<svg width="224" height="165" viewBox="0 0 224 165" fill="none" xmlns="http://www.w3.org/2000/svg">
<path d="M29.0264 140.9C28.9697 140.9 28.9153 140.881 28.8751 140.847C28.5738 140.592 28.0824 135.921 26.7592 122.012C26.2179 116.322 25.7064 110.946 25.3332 107.679C25.3066 107.446 25.1995 107.419 25.1644 107.41C24.6536 107.28 23.0998 108.315 22.2325 109.221C22.1968 109.258 22.145 109.282 22.0886 109.287C22.0321 109.292 21.9756 109.278 21.9315 109.248C21.8874 109.218 21.8592 109.174 21.8532 109.127C21.8473 109.079 21.864 109.031 21.8996 108.994C22.4733 108.395 24.3428 106.824 25.2874 107.064C25.478 107.112 25.7152 107.252 25.7593 107.645C26.1327 110.914 26.6442 116.291 27.1858 121.984C27.9898 130.435 28.9008 140.011 29.2001 140.614C29.223 140.641 29.2367 140.673 29.2396 140.706C29.2425 140.739 29.2345 140.772 29.2166 140.802C29.1986 140.831 29.1714 140.856 29.1378 140.873C29.1043 140.891 29.0657 140.9 29.0264 140.9Z" fill="#494949"/>
<path d="M24.7844 113.674C28.3338 111.27 29.5103 107.529 27.412 105.317C25.3138 103.106 20.7355 103.262 17.1861 105.665C13.6366 108.069 12.4602 111.81 14.5585 114.022C16.6567 116.233 21.235 116.077 24.7844 113.674Z" fill="#0CBC8B"/>
<path opacity="0.2" d="M24.7844 113.674C28.3338 111.27 29.5103 107.529 27.412 105.317C25.3138 103.106 20.7355 103.262 17.1861 105.665C13.6366 108.069 12.4602 111.81 14.5585 114.022C16.6567 116.233 21.235 116.077 24.7844 113.674Z" fill="white"/>
<path d="M15.553 114.583C15.5327 114.583 15.5129 114.578 15.4958 114.569C15.4787 114.559 15.465 114.546 15.4564 114.531C15.4478 114.515 15.4446 114.498 15.4471 114.481C15.4497 114.464 15.4579 114.448 15.4709 114.435L25.5864 104.129C25.6047 104.111 25.6306 104.1 25.6586 104.098C25.6865 104.096 25.7143 104.103 25.7358 104.119C25.7574 104.134 25.771 104.155 25.7739 104.179C25.7767 104.202 25.7685 104.226 25.7509 104.245L15.6354 114.55C15.6253 114.56 15.6127 114.569 15.5985 114.574C15.5843 114.58 15.5687 114.583 15.553 114.583Z" fill="white"/>
<path d="M31.2326 138.691C31.1985 138.691 31.1648 138.684 31.1344 138.67C31.1041 138.657 31.0779 138.638 31.0581 138.615C31.0383 138.591 31.0255 138.564 31.0207 138.535C31.0159 138.507 31.0192 138.478 31.0305 138.45L34.8302 129.218C34.9421 128.947 35.1327 128.704 35.3847 128.511C35.6366 128.318 35.9418 128.182 36.2724 128.114C36.6029 128.047 36.9481 128.051 37.2765 128.125C37.6049 128.2 37.9058 128.343 38.1518 128.541L40.1606 130.162C40.2016 130.196 40.2254 130.241 40.2266 130.289C40.2279 130.337 40.2066 130.383 40.1674 130.418C40.1282 130.453 40.0743 130.473 40.0176 130.474C39.9609 130.475 39.906 130.457 39.865 130.424L37.8562 128.803C37.662 128.646 37.4245 128.533 37.1653 128.474C36.9061 128.416 36.6336 128.413 36.3727 128.466C36.1118 128.519 35.8709 128.627 35.672 128.779C35.4731 128.931 35.3226 129.123 35.2342 129.337L31.4345 138.569C31.42 138.605 31.3927 138.635 31.3565 138.657C31.3203 138.679 31.277 138.691 31.2326 138.691Z" fill="#494949"/>
<path d="M45.773 135.272C48.4035 133.513 48.2472 129.645 45.4239 126.631C42.6006 123.618 38.1794 122.601 35.549 124.36C32.9185 126.119 33.0749 129.988 35.8981 133.001C38.7214 136.015 43.1426 137.031 45.773 135.272Z" fill="#0CBC8B"/>
<path d="M27.3005 140.31C27.2525 140.31 27.2058 140.296 27.1681 140.271C27.1303 140.246 27.1038 140.211 27.0926 140.171L20.7162 117.647C20.6726 117.493 20.5798 117.353 20.4479 117.241C20.3159 117.129 20.1501 117.05 19.9685 117.013C19.7869 116.975 19.5967 116.981 19.4186 117.029C19.2406 117.077 19.0818 117.166 18.9595 117.285L16.994 119.204C16.9756 119.222 16.9532 119.237 16.9281 119.247C16.9029 119.258 16.8756 119.264 16.8476 119.266C16.8195 119.268 16.7914 119.265 16.7647 119.257C16.7381 119.25 16.7134 119.238 16.6921 119.223C16.6709 119.207 16.6535 119.188 16.6409 119.167C16.6283 119.146 16.6207 119.123 16.6187 119.099C16.6167 119.075 16.6202 119.051 16.6291 119.029C16.6379 119.006 16.6519 118.986 16.6703 118.968L18.6358 117.049C18.8097 116.879 19.0355 116.753 19.2886 116.685C19.5416 116.616 19.8121 116.609 20.0701 116.662C20.3282 116.715 20.5639 116.827 20.7513 116.986C20.9387 117.145 21.0705 117.345 21.1323 117.563L27.5086 140.088C27.5218 140.135 27.5126 140.184 27.4829 140.225C27.4532 140.265 27.4055 140.295 27.3504 140.306C27.334 140.309 27.3173 140.31 27.3005 140.31Z" fill="#494949"/>
<path d="M24.9473 124.208C25.7224 120.421 23.671 116.96 20.3653 116.477C17.0596 115.994 13.7514 118.673 12.9763 122.46C12.2011 126.246 14.2526 129.708 17.5583 130.191C20.864 130.674 24.1721 127.995 24.9473 124.208Z" fill="#0CBC8B"/>
<path d="M29.0269 140.899C29.0181 140.899 29.0092 140.899 29.0004 140.898C28.9725 140.895 28.9456 140.887 28.9211 140.876C28.8966 140.864 28.8751 140.848 28.8578 140.83C28.8405 140.811 28.8278 140.79 28.8203 140.767C28.8128 140.744 28.8107 140.72 28.8141 140.696L32.8861 112.766C32.9305 112.462 33.0779 112.175 33.3106 111.94C33.5434 111.705 33.8516 111.531 34.1982 111.44C34.5448 111.35 34.915 111.345 35.2644 111.428C35.6138 111.511 35.9274 111.677 36.1676 111.907L40.8216 116.36C40.8402 116.378 40.8545 116.399 40.8636 116.421C40.8728 116.444 40.8766 116.468 40.8748 116.491C40.8731 116.515 40.8658 116.538 40.8535 116.56C40.8412 116.581 40.824 116.6 40.8029 116.616C40.7818 116.631 40.7573 116.644 40.7307 116.651C40.7041 116.659 40.676 116.662 40.648 116.661C40.6199 116.659 40.5925 116.653 40.5672 116.643C40.542 116.632 40.5194 116.618 40.5008 116.6L35.8472 112.147C35.6616 111.969 35.4192 111.84 35.1492 111.776C34.8792 111.712 34.593 111.716 34.3251 111.786C34.0573 111.856 33.819 111.99 33.6391 112.172C33.4592 112.353 33.3452 112.575 33.3109 112.81L29.2389 140.741C29.2325 140.784 29.2074 140.825 29.1684 140.854C29.1294 140.883 29.0791 140.899 29.0269 140.899Z" fill="#494949"/>
<path d="M45.5949 118.836C47.2187 116.356 45.3082 112.837 41.3276 110.977C37.347 109.117 32.8037 109.619 31.1799 112.099C29.5561 114.579 31.4667 118.098 35.4472 119.958C39.4278 121.818 43.9711 121.316 45.5949 118.836Z" fill="#0CBC8B"/>
<path opacity="0.2" d="M45.773 135.272C48.4035 133.513 48.2472 129.645 45.4239 126.631C42.6006 123.618 38.1794 122.601 35.549 124.36C32.9185 126.119 33.0749 129.988 35.8981 133.001C38.7214 136.015 43.1426 137.031 45.773 135.272Z" fill="white"/>
<path opacity="0.5" d="M24.9473 124.208C25.7224 120.421 23.671 116.96 20.3653 116.477C17.0596 115.994 13.7514 118.673 12.9763 122.46C12.2011 126.246 14.2526 129.708 17.5583 130.191C20.864 130.674 24.1721 127.995 24.9473 124.208Z" fill="white"/>
<path opacity="0.5" d="M45.5949 118.836C47.2187 116.356 45.3082 112.837 41.3276 110.977C37.347 109.117 32.8037 109.619 31.1799 112.099C29.5561 114.579 31.4667 118.098 35.4472 119.958C39.4278 121.818 43.9711 121.316 45.5949 118.836Z" fill="white"/>
<path d="M34.2346 164.597H23.8185L22.0923 136.441H35.9605L34.2346 164.597Z" fill="#292A2E"/>
<path opacity="0.3" d="M34.2346 164.597H23.8185L22.0923 136.441H35.9605L34.2346 164.597Z" fill="white"/>
<path d="M45.7735 135.363C45.7573 135.363 45.7414 135.36 45.7268 135.354C45.7122 135.348 45.6995 135.339 45.6894 135.328L35.465 124.416C35.4563 124.407 35.4498 124.396 35.446 124.385C35.4421 124.373 35.441 124.361 35.4426 124.349C35.4442 124.338 35.4486 124.326 35.4554 124.316C35.4622 124.306 35.4714 124.296 35.4824 124.289C35.4935 124.282 35.5061 124.276 35.5196 124.273C35.5331 124.27 35.5472 124.269 35.5612 124.27C35.5751 124.272 35.5886 124.275 35.6009 124.281C35.6132 124.287 35.624 124.294 35.6327 124.304L45.8571 135.216C45.8696 135.23 45.8775 135.246 45.8797 135.262C45.8819 135.279 45.8785 135.296 45.8697 135.312C45.861 135.327 45.8473 135.34 45.8303 135.349C45.8133 135.358 45.7936 135.363 45.7735 135.363Z" fill="white"/>
<path d="M44.915 119.709C44.8923 119.709 44.8702 119.703 44.8519 119.691L31.7685 111.62C31.7572 111.613 31.7476 111.605 31.7402 111.594C31.7329 111.584 31.7281 111.573 31.7259 111.561C31.7237 111.55 31.7243 111.538 31.7276 111.526C31.7309 111.515 31.7369 111.504 31.7452 111.494C31.7535 111.485 31.7639 111.476 31.7759 111.47C31.7879 111.464 31.8012 111.46 31.8151 111.458C31.829 111.456 31.8432 111.457 31.8568 111.46C31.8705 111.462 31.8834 111.467 31.8947 111.474L44.9781 119.546C44.9961 119.557 45.0094 119.573 45.0161 119.591C45.0227 119.609 45.0225 119.628 45.0154 119.646C45.0083 119.664 44.9947 119.68 44.9765 119.691C44.9583 119.702 44.9364 119.708 44.914 119.708L44.915 119.709Z" fill="white"/>
<path d="M17.0273 130.073C17.018 130.073 17.0088 130.072 16.9997 130.07C16.9724 130.064 16.949 130.049 16.9348 130.028C16.9206 130.007 16.9167 129.983 16.924 129.96L21.0891 116.776C21.0922 116.764 21.0981 116.753 21.1065 116.743C21.1149 116.733 21.1256 116.725 21.1379 116.718C21.1503 116.712 21.164 116.708 21.1783 116.706C21.1927 116.704 21.2072 116.705 21.2212 116.708C21.2352 116.711 21.2483 116.717 21.2597 116.724C21.271 116.732 21.2805 116.741 21.2874 116.752C21.2944 116.763 21.2987 116.775 21.3001 116.787C21.3014 116.799 21.2999 116.811 21.2955 116.823L17.1304 130.006C17.1244 130.026 17.111 130.042 17.0923 130.055C17.0737 130.067 17.0509 130.073 17.0273 130.073Z" fill="white"/>
<path d="M95.7502 138.976H59.5707L53.9023 142.563V123.577C53.9023 123.048 54.088 122.531 54.4359 122.091C54.7837 121.651 55.2781 121.308 55.8566 121.106C56.4351 120.904 57.0716 120.851 57.6857 120.954C58.2998 121.057 58.8638 121.312 59.3066 121.686C59.7493 122.06 60.0508 122.536 60.173 123.055C60.2951 123.574 60.2324 124.112 59.9928 124.6C59.7532 125.089 59.3475 125.507 58.8269 125.801C58.3063 126.095 57.6942 126.251 57.0681 126.251L95.7502 120.902V126.251C95.1241 126.251 94.5121 126.095 93.9915 125.801C93.4709 125.507 93.0651 125.089 92.8255 124.6C92.5859 124.112 92.5232 123.574 92.6453 123.055C92.7675 122.536 93.069 122.06 93.5117 121.686C93.9545 121.312 94.5185 121.057 95.1326 120.954C95.7467 120.851 96.3832 120.904 96.9617 121.106C97.5402 121.308 98.0346 121.651 98.3824 122.091C98.7303 122.531 98.916 123.048 98.916 123.577V136.301C98.916 136.652 98.8342 137 98.6751 137.325C98.516 137.649 98.2829 137.944 97.9889 138.192C97.6949 138.441 97.3459 138.638 96.9618 138.772C96.5777 138.907 96.166 138.976 95.7502 138.976Z" fill="#F4F4F4"/>
<path d="M94.9156 124.924H57.9036C57.8858 124.925 57.8681 124.923 57.8514 124.917C57.8348 124.912 57.8196 124.904 57.8067 124.893C57.7939 124.883 57.7837 124.87 57.7767 124.857C57.7697 124.843 57.7661 124.828 57.7661 124.813C57.7661 124.798 57.7697 124.783 57.7767 124.769C57.7837 124.755 57.7939 124.743 57.8067 124.732C57.8196 124.722 57.8348 124.714 57.8514 124.708C57.8681 124.703 57.8858 124.701 57.9036 124.701H94.9156C94.9334 124.701 94.9512 124.703 94.9678 124.708C94.9845 124.714 94.9997 124.722 95.0125 124.732C95.0254 124.743 95.0356 124.755 95.0426 124.769C95.0496 124.783 95.0532 124.798 95.0532 124.813C95.0532 124.828 95.0496 124.843 95.0426 124.857C95.0356 124.87 95.0254 124.883 95.0125 124.893C94.9997 124.904 94.9845 124.912 94.9678 124.917C94.9512 124.923 94.9334 124.925 94.9156 124.924Z" fill="white"/>
<path d="M94.9156 128.524H57.9036C57.8858 128.525 57.8681 128.522 57.8514 128.517C57.8348 128.512 57.8196 128.503 57.8067 128.493C57.7939 128.483 57.7837 128.47 57.7767 128.456C57.7697 128.442 57.7661 128.428 57.7661 128.412C57.7661 128.397 57.7697 128.383 57.7767 128.369C57.7837 128.355 57.7939 128.342 57.8067 128.332C57.8196 128.321 57.8348 128.313 57.8514 128.308C57.8681 128.303 57.8858 128.3 57.9036 128.301H94.9156C94.9334 128.3 94.9512 128.303 94.9678 128.308C94.9845 128.313 94.9997 128.321 95.0125 128.332C95.0254 128.342 95.0356 128.355 95.0426 128.369C95.0496 128.383 95.0532 128.397 95.0532 128.412C95.0532 128.428 95.0496 128.442 95.0426 128.456C95.0356 128.47 95.0254 128.483 95.0125 128.493C94.9997 128.503 94.9845 128.512 94.9678 128.517C94.9512 128.522 94.9334 128.525 94.9156 128.524Z" fill="white"/>
<path d="M94.9158 132.123H57.9038Cnan nan nan nan 57.9038 132.123L94.9158 131.9V132.123Cnan nan nan nan 94.9158 132.123Z" fill="white"/>
<path d="M86.9921 135.723H57.9036C57.8858 135.724 57.8681 135.721 57.8514 135.716C57.8348 135.711 57.8196 135.703 57.8067 135.692C57.7939 135.682 57.7837 135.669 57.7767 135.655C57.7697 135.642 57.7661 135.627 57.7661 135.612C57.7661 135.597 57.7697 135.582 57.7767 135.568C57.7837 135.554 57.7939 135.542 57.8067 135.531C57.8196 135.521 57.8348 135.513 57.8514 135.507C57.8681 135.502 57.8858 135.499 57.9036 135.5H86.9921C87.0099 135.499 87.0277 135.502 87.0443 135.507C87.061 135.513 87.0762 135.521 87.089 135.531C87.1019 135.542 87.1121 135.554 87.1191 135.568C87.126 135.582 87.1296 135.597 87.1296 135.612C87.1296 135.627 87.126 135.642 87.1191 135.655C87.1121 135.669 87.1019 135.682 87.089 135.692C87.0762 135.703 87.061 135.711 87.0443 135.716C87.0277 135.721 87.0099 135.724 86.9921 135.723Z" fill="white"/>
<path d="M62.1804 89.5391H6.99197L0 93.9637V70.5422C5.67279e-05 69.6669 0.411632 68.8276 1.14419 68.2087C1.87675 67.5899 2.87028 67.2422 3.90625 67.2422H62.1804V73.8421C61.4079 73.8421 60.6527 73.6486 60.0103 73.286C59.368 72.9234 58.8673 72.408 58.5717 71.805C58.2761 71.202 58.1987 70.5385 58.3494 69.8984C58.5001 69.2582 58.8722 68.6702 59.4184 68.2087C59.9647 67.7472 60.6607 67.4329 61.4184 67.3056C62.1761 67.1783 62.9614 67.2436 63.6752 67.4934C64.3889 67.7432 64.9989 68.1661 65.4282 68.7088C65.8574 69.2515 66.0864 69.8895 66.0864 70.5422V86.2392C66.0864 87.1143 65.6748 87.9537 64.9423 88.5725C64.2098 89.1914 63.2163 89.5391 62.1804 89.5391Z" fill="#F4F4F4"/>
<path d="M61.1516 72.2051H4.93604Cnan nan nan nan 4.93604 72.2051L61.1516 71.9297V72.2051Cnan nan nan nan 61.1516 72.2051Z" fill="white"/>
<path d="M61.1516 76.6445H4.93599C4.9141 76.6451 4.89228 76.6421 4.87182 76.6354C4.85137 76.6288 4.8327 76.6188 4.81694 76.606C4.80117 76.5931 4.78863 76.5777 4.78007 76.5607C4.7715 76.5437 4.76709 76.5253 4.76709 76.5068C4.76709 76.4883 4.7715 76.47 4.78007 76.453C4.78863 76.436 4.80117 76.4206 4.81694 76.4077C4.8327 76.3949 4.85137 76.3849 4.87182 76.3782C4.89228 76.3716 4.9141 76.3686 4.93599 76.3692H61.1516C61.1937 76.3705 61.2337 76.3856 61.263 76.4112C61.2923 76.4369 61.3086 76.4712 61.3086 76.5068C61.3086 76.5425 61.2923 76.5768 61.263 76.6024C61.2337 76.6281 61.1937 76.6432 61.1516 76.6445Z" fill="white"/>
<path d="M61.1516 81.0859H4.93599C4.9141 81.0865 4.89228 81.0835 4.87182 81.0769C4.85137 81.0702 4.8327 81.0602 4.81694 81.0474C4.80117 81.0345 4.78863 81.0191 4.78007 81.0021C4.7715 80.9851 4.76709 80.9668 4.76709 80.9483C4.76709 80.9297 4.7715 80.9114 4.78007 80.8944C4.78863 80.8774 4.80117 80.862 4.81694 80.8491C4.8327 80.8363 4.85137 80.8263 4.87182 80.8196C4.89228 80.813 4.9141 80.81 4.93599 80.8106H61.1516C61.1937 80.8119 61.2337 80.827 61.263 80.8527C61.2923 80.8783 61.3086 80.9126 61.3086 80.9483C61.3086 80.9839 61.2923 81.0182 61.263 81.0438C61.2337 81.0695 61.1937 81.0846 61.1516 81.0859Z" fill="white"/>
<path d="M51.3764 85.5254H4.93604Cnan nan nan nan 4.93604 85.5254L51.3764 85.25V85.5254Cnan nan nan nan 51.3764 85.5254Z" fill="white"/>
<path d="M97.2726 104.618H163.072L171.409 109.895V81.9689C171.409 80.9255 170.918 79.925 170.045 79.1873C169.171 78.4496 167.987 78.0352 166.752 78.0352H97.2726C96.0378 78.0353 94.8535 78.4498 93.9804 79.1875C93.1072 79.9252 92.6165 80.9256 92.6162 81.9689V100.684C92.6164 101.727 93.107 102.728 93.9802 103.465C94.8534 104.203 96.0377 104.618 97.2726 104.618Z" fill="#F4F4F4"/>
<path d="M98.5005 83.9514H165.524C165.575 83.95 165.622 83.9321 165.658 83.9014C165.693 83.8708 165.712 83.8298 165.712 83.7872C165.712 83.7446 165.693 83.7036 165.658 83.673C165.622 83.6424 165.575 83.6245 165.524 83.623H98.5005C98.4501 83.6245 98.4023 83.6424 98.3672 83.673C98.3321 83.7036 98.3125 83.7446 98.3125 83.7872C98.3125 83.8298 98.3321 83.8708 98.3672 83.9014C98.4023 83.9321 98.4501 83.95 98.5005 83.9514Z" fill="white"/>
<path d="M98.5005 89.2444H165.524C165.575 89.2429 165.622 89.225 165.658 89.1944C165.693 89.1638 165.712 89.1228 165.712 89.0802C165.712 89.0376 165.693 88.9966 165.658 88.966C165.622 88.9353 165.575 88.9174 165.524 88.916H98.5005C98.4501 88.9174 98.4023 88.9353 98.3672 88.966C98.3321 88.9966 98.3125 89.0376 98.3125 89.0802C98.3125 89.1228 98.3321 89.1638 98.3672 89.1944C98.4023 89.225 98.4501 89.2429 98.5005 89.2444Z" fill="white"/>
<path d="M98.5005 94.5393H165.524C165.575 94.5379 165.622 94.52 165.658 94.4893C165.693 94.4587 165.712 94.4177 165.712 94.3751C165.712 94.3325 165.693 94.2915 165.658 94.2609C165.622 94.2303 165.575 94.2124 165.524 94.2109H98.5005C98.4501 94.2124 98.4023 94.2303 98.3672 94.2609C98.3321 94.2915 98.3125 94.3325 98.3125 94.3751C98.3125 94.4177 98.3321 94.4587 98.3672 94.4893C98.4023 94.52 98.4501 94.5379 98.5005 94.5393Z" fill="white"/>
<path d="M110.155 99.8323H165.524C165.575 99.8308 165.623 99.8129 165.658 99.7823C165.693 99.7517 165.712 99.7107 165.712 99.6681C165.712 99.6255 165.693 99.5845 165.658 99.5539C165.623 99.5232 165.575 99.5053 165.524 99.5039H110.155C110.104 99.5053 110.057 99.5232 110.021 99.5539C109.986 99.5845 109.967 99.6255 109.967 99.6681C109.967 99.7107 109.986 99.7517 110.021 99.7823C110.057 99.8129 110.104 99.8308 110.155 99.8323Z" fill="white"/>
<path d="M149.975 56.7794H205.163L212.156 61.2041V37.7824C212.156 36.9073 211.744 36.0681 211.012 35.4493C210.28 34.8304 209.286 34.4827 208.251 34.4824H149.975C148.94 34.4826 147.946 34.8303 147.214 35.4491C146.481 36.068 146.07 36.9073 146.07 37.7824V53.4792C146.07 54.3544 146.481 55.1937 147.214 55.8126C147.946 56.4315 148.94 56.7792 149.975 56.7794Z" fill="#F4F4F4"/>
<path d="M151.005 39.4453H207.22Cnan nan nan nan 207.22 39.4453L151.005 39.1699V39.4453Cnan nan nan nan 151.005 39.4453Z" fill="white"/>
<path d="M151.005 43.8846H207.22C207.262 43.8833 207.302 43.8682 207.332 43.8426C207.361 43.8169 207.377 43.7826 207.377 43.747C207.377 43.7113 207.361 43.6771 207.332 43.6514C207.302 43.6257 207.262 43.6107 207.22 43.6094H151.005C150.963 43.6107 150.923 43.6257 150.894 43.6514C150.865 43.6771 150.848 43.7113 150.848 43.747C150.848 43.7826 150.865 43.8169 150.894 43.8426C150.923 43.8682 150.963 43.8833 151.005 43.8846Z" fill="white"/>
<path d="M151.005 48.326H207.22C207.262 48.3247 207.302 48.3096 207.332 48.284C207.361 48.2583 207.377 48.2241 207.377 48.1884C207.377 48.1527 207.361 48.1185 207.332 48.0928C207.302 48.0671 207.262 48.0521 207.22 48.0508H151.005C150.963 48.0521 150.923 48.0671 150.894 48.0928C150.865 48.1185 150.848 48.1527 150.848 48.1884C150.848 48.2241 150.865 48.2583 150.894 48.284C150.923 48.3096 150.963 48.3247 151.005 48.326Z" fill="white"/>
<path d="M160.78 52.7656H207.22C207.263 52.7643 207.302 52.7492 207.332 52.7235C207.361 52.6979 207.377 52.6636 207.377 52.6279C207.377 52.5923 207.361 52.558 207.332 52.5323C207.302 52.5067 207.263 52.4916 207.22 52.4903H160.78C160.758 52.4897 160.737 52.4927 160.716 52.4993C160.696 52.5059 160.677 52.516 160.661 52.5288C160.645 52.5417 160.633 52.5571 160.624 52.5741C160.616 52.5911 160.611 52.6094 160.611 52.6279C160.611 52.6464 160.616 52.6648 160.624 52.6818C160.633 52.6988 160.645 52.7142 160.661 52.7271C160.677 52.7399 160.696 52.7499 160.716 52.7565C160.737 52.7632 160.758 52.7662 160.78 52.7656Z" fill="white"/>
<path d="M18.9694 82.582L129.249 82.582C132.167 82.582 134.533 80.5834 134.533 78.1179V4.61196C134.533 2.14649 132.167 0.147835 129.249 0.147835L18.9694 0.147835C16.0512 0.147835 13.6855 2.14649 13.6855 4.61196L13.6855 78.1179C13.6855 80.5834 16.0512 82.582 18.9694 82.582Z" fill="white"/>
<path d="M13.5093 78.1188V4.61303C13.5109 3.39 14.0867 2.21747 15.1104 1.35266C16.134 0.487847 17.5219 0.00138706 18.9695 0H129.249C130.696 0.00143479 132.084 0.487909 133.108 1.35271C134.132 2.21751 134.707 3.39002 134.709 4.61303V78.1188C134.707 79.3418 134.132 80.5144 133.108 81.3792C132.084 82.244 130.696 82.7305 129.249 82.7318H18.9695C17.5219 82.7305 16.1339 82.2441 15.1103 81.3792C14.0866 80.5144 13.5109 79.3419 13.5093 78.1188ZM18.9695 0.297632C17.6153 0.298924 16.3169 0.753995 15.3593 1.56301C14.4017 2.37202 13.8631 3.46891 13.8616 4.61303V78.1188C13.8631 79.2629 14.4017 80.3598 15.3593 81.1688C16.3169 81.9779 17.6153 82.4329 18.9695 82.4342H129.249C130.603 82.433 131.901 81.9779 132.859 81.1689C133.817 80.3599 134.355 79.2629 134.357 78.1188V4.61303C134.355 3.4689 133.817 2.37198 132.859 1.56296C131.901 0.753932 130.603 0.298876 129.249 0.297632H18.9695Z" fill="#292A2E"/>
<path d="M13.6855 4.61202V9.10434H134.532V4.61202C134.532 3.72921 134.222 2.86622 133.642 2.13219C133.061 1.39816 132.236 0.826047 131.271 0.488209C130.305 0.150371 129.243 0.0619777 128.218 0.234206C127.193 0.406434 126.252 0.831549 125.513 1.45579C124.774 2.08004 124.271 2.87537 124.067 3.74122C123.863 4.60707 123.968 5.50455 124.368 6.32016C124.768 7.13577 125.445 7.83289 126.314 8.32335C127.182 8.81382 128.204 9.0756 129.249 9.0756L18.9695 0.14844C18.2757 0.148368 17.5886 0.26377 16.9475 0.488054C16.3064 0.712338 15.7239 1.04111 15.2332 1.4556C14.7426 1.87009 14.3533 2.36217 14.0878 2.90376C13.8222 3.44534 13.6855 4.02581 13.6855 4.61202Z" fill="#292A2E"/>
<path d="M110.008 24.0928C110.042 23.9815 110.103 23.8772 110.186 23.7864C110.27 23.6956 110.375 23.6202 110.494 23.5647C110.613 23.5092 110.744 23.4748 110.88 23.4636C111.015 23.4524 111.152 23.4647 111.282 23.4997C111.53 23.5747 111.735 23.7264 111.856 23.9244C111.977 24.1223 112.004 24.3516 111.933 24.5659L111.591 25.6724L114.564 22.5987C114.887 22.252 115.548 22.0014 115.983 22.3339C116.161 22.4525 116.286 22.6185 116.337 22.8047C116.389 22.9909 116.364 23.1864 116.267 23.3593C116.272 23.3611 116.277 23.3634 116.281 23.3661C116.284 23.3685 116.286 23.3711 116.289 23.3737L116.788 22.8392C116.88 22.7408 116.996 22.6608 117.129 22.6051C117.262 22.5494 117.408 22.5194 117.557 22.5171C117.705 22.5148 117.852 22.5404 117.988 22.5919C118.123 22.6435 118.243 22.7198 118.339 22.8153C118.489 22.9702 118.571 23.164 118.571 23.364C118.571 23.5639 118.489 23.7577 118.339 23.9126L118.127 24.1401C118.132 24.1486 118.135 24.1578 118.136 24.1672C118.32 24.0427 118.55 23.9769 118.785 23.9814C119.021 23.9858 119.247 24.0603 119.424 24.1916C119.615 24.3444 119.731 24.5531 119.748 24.7754C119.765 24.9977 119.681 25.217 119.513 25.389L118.991 25.9481C119.003 25.9449 119.014 25.9435 119.026 25.9443C119.038 25.9451 119.049 25.9479 119.06 25.9526C119.07 25.9572 119.079 25.9637 119.087 25.9715C119.094 25.9793 119.099 25.9884 119.102 25.998C119.299 25.9269 119.517 25.9108 119.726 25.9521C119.934 25.9934 120.121 26.0899 120.26 26.2275C120.409 26.3824 120.491 26.5762 120.491 26.7762C120.491 26.9761 120.409 27.1699 120.26 27.3248L115.809 32.0914C115.186 32.7582 114.342 33.2526 113.385 33.5115C112.427 33.7703 111.4 33.7818 110.435 33.5444L107.327 32.7794L110.008 24.0928Z" fill="#E98862"/>
<g opacity="0.2">
<path opacity="0.2" d="M113.343 26.4156C113.362 26.4281 113.386 26.4338 113.41 26.4315C113.434 26.4292 113.456 26.4191 113.472 26.4033L116.295 23.477C116.311 23.461 116.318 23.4404 116.315 23.4198C116.313 23.3992 116.301 23.3803 116.282 23.3672C116.263 23.3541 116.238 23.3479 116.214 23.35C116.19 23.3521 116.167 23.3623 116.152 23.3784L113.328 26.3046C113.313 26.3207 113.306 26.3413 113.308 26.3619C113.311 26.3825 113.323 26.4014 113.342 26.4145L113.343 26.4156Z" fill="#0C0C0C"/>
</g>
<g opacity="0.2">
<path opacity="0.2" d="M114.837 27.502C114.856 27.5146 114.88 27.5203 114.904 27.518C114.928 27.5157 114.95 27.5056 114.965 27.4897L118.117 24.2241C118.133 24.208 118.14 24.1874 118.137 24.1668C118.135 24.1461 118.123 24.1272 118.104 24.1141C118.084 24.1017 118.06 24.096 118.036 24.0981C118.012 24.1002 117.99 24.1099 117.974 24.1253L114.822 27.3909C114.807 27.407 114.799 27.4276 114.802 27.4482C114.804 27.4689 114.816 27.4878 114.835 27.501L114.837 27.502Z" fill="#0C0C0C"/>
</g>
<g opacity="0.2">
<path opacity="0.2" d="M116.446 28.6893C116.465 28.7018 116.49 28.7075 116.514 28.7052C116.538 28.7029 116.559 28.6928 116.575 28.677L119.089 26.072C119.103 26.0559 119.109 26.0357 119.106 26.0157C119.103 25.9958 119.091 25.9775 119.073 25.9648C119.054 25.9521 119.031 25.9459 119.007 25.9475C118.983 25.9491 118.961 25.9584 118.945 25.9734L116.431 28.5783C116.424 28.5863 116.418 28.5954 116.415 28.6053C116.411 28.6151 116.41 28.6254 116.411 28.6356C116.412 28.6458 116.416 28.6557 116.422 28.6647C116.427 28.6738 116.435 28.6817 116.445 28.6882L116.446 28.6893Z" fill="#0C0C0C"/>
</g>
<path d="M52.0513 17.6758C52.0513 17.6758 50.8892 22.6233 49.2813 24.288C44.6525 29.0803 42.6408 34.8235 46.0008 38.3076C49.3607 41.7918 73.7932 44.5212 76.7299 37.6779C79.2021 31.9166 75.9553 30.9109 75.8957 25.9274C75.8685 23.6725 75.5705 18.9176 75.5705 18.9176" fill="#0A0A0A"/>
<path d="M71.6985 34.9415C71.6557 34.9368 71.1839 41.5556 62.0839 40.9773C55.7841 40.5786 53.5379 34.9318 53.3936 34.9318C54.0727 34.8098 55.2164 34.6323 55.5182 34.4964C56.5101 34.0461 57.7377 33.5775 58.0574 31.95C58.2416 31.0119 57.9291 26.213 58.0251 25.2637L67.6954 27.0871C67.5604 29.0915 66.6145 33.7385 69.9293 34.5609C70.4808 34.6975 71.0748 34.8226 71.6985 34.9415Z" fill="#E98862"/>
<path opacity="0.5" d="M67.831 32.6621C67.6796 32.2497 67.582 31.8245 67.5401 31.3941C67.4341 30.412 67.4556 29.4231 67.6043 28.445C65.6388 28.2208 63.7871 27.5355 62.2595 26.4668C62.0801 27.027 61.0925 29.4749 61.3659 30.0075C61.882 31.014 64.3106 32.6621 67.831 32.6621Z" fill="#0C0C0C"/>
<path d="M66.1508 31.0869C62.322 30.9804 57.6273 29.165 57.269 24.8001L56.9458 20.8606C56.5876 16.4957 59.0106 12.7981 63.8762 12.5131C68.7407 12.2281 72.6675 15.5536 73.0256 19.9185L73.1687 21.6622C73.3054 23.3379 72.9811 31.2768 66.1508 31.0869Z" fill="#E98862"/>
<path d="M65.7565 26.1392C66.2912 26.3633 67.4035 26.6632 68.947 26.2095C69.1154 26.16 69.2437 26.3221 69.1584 26.4823C68.8311 27.0968 68.0829 27.8059 66.7693 27.563C66.4321 27.5138 66.1227 27.3738 65.8875 27.1637C65.6523 26.9537 65.5039 26.685 65.4645 26.3978C65.4292 26.2335 65.6063 26.0763 65.7565 26.1392Z" fill="white"/>
<path d="M71.815 21.9993C72.1467 21.9993 72.4156 21.7721 72.4156 21.4918C72.4156 21.2116 72.1467 20.9844 71.815 20.9844C71.4833 20.9844 71.2144 21.2116 71.2144 21.4918C71.2144 21.7721 71.4833 21.9993 71.815 21.9993Z" fill="#0C0C0C"/>
<path d="M65.65 21.9993C65.9817 21.9993 66.2506 21.7721 66.2506 21.4918C66.2506 21.2116 65.9817 20.9844 65.65 20.9844C65.3182 20.9844 65.0493 21.2116 65.0493 21.4918C65.0493 21.7721 65.3182 21.9993 65.65 21.9993Z" fill="#0C0C0C"/>
<path opacity="0.5" d="M68.4851 25.318H68.4946C68.6918 25.3053 68.888 25.2834 69.0824 25.2524C69.3728 25.2043 69.7568 25.115 69.739 24.8969C69.7176 24.6481 68.692 22.0118 68.575 21.712C68.5638 21.6869 68.5415 21.6663 68.5128 21.6547C68.4841 21.6431 68.4512 21.6414 68.421 21.6498C68.3908 21.6582 68.3656 21.6762 68.3507 21.7C68.3358 21.7237 68.3324 21.7514 68.3412 21.7773C68.7795 22.9 69.4798 24.7438 69.4935 24.9112C69.4507 24.9835 68.9666 25.0818 68.4774 25.11C68.4459 25.1121 68.4166 25.1244 68.3956 25.1444C68.3745 25.1643 68.3633 25.1903 68.3643 25.217C68.3653 25.2437 68.3784 25.269 68.4009 25.2878C68.4234 25.3065 68.4535 25.3173 68.4851 25.3178V25.318Z" fill="#0C0C0C"/>
<path d="M52.9511 21.8231L57.3089 21.5882C60.6939 20.8068 62.3326 16.18 62.3326 16.18C62.3326 16.18 65.8037 19.8033 75.5698 18.9163C75.5698 18.9163 75.2325 7.52264 60.7287 9.37566C56.052 9.9731 52.2609 13.5044 51.9439 18.6989C51.7216 22.339 52.9511 21.8231 52.9511 21.8231Z" fill="#0A0A0A"/>
<path d="M57.6805 26.1127C56.2022 26.1993 54.894 24.9334 54.7915 23.6843C54.6891 22.4352 55.8309 21.6764 57.3092 21.5898L58.1397 22.3821L58.9526 26.0382L57.6805 26.1127Z" fill="#E98862"/>
<path d="M69.7487 19.6218C70.1974 19.435 70.6974 19.3535 71.1962 19.3858C71.4422 19.4004 71.6843 19.4461 71.9142 19.5215C72.1425 19.5954 72.3588 19.6932 72.5581 19.8129C72.5815 19.8263 72.5977 19.8469 72.6034 19.8704C72.6091 19.8938 72.6038 19.9182 72.5886 19.9383C72.5734 19.9585 72.5495 19.9729 72.5219 19.9784C72.4944 19.9839 72.4654 19.9801 72.4411 19.9679L72.4338 19.9643C72.2462 19.8608 72.044 19.7775 71.8319 19.7165C71.6219 19.6554 71.4021 19.6213 71.1801 19.6155C70.7392 19.6014 70.3017 19.6861 69.9121 19.8611L69.9012 19.8662C69.8633 19.8839 69.8185 19.8881 69.7769 19.878C69.7352 19.8678 69.7 19.8441 69.6791 19.812C69.6581 19.78 69.6531 19.7422 69.6651 19.707C69.6771 19.6718 69.7052 19.6421 69.7431 19.6244L69.7487 19.6218Z" fill="#0C0C0C"/>
<path d="M65.8335 20.1104C65.4196 19.9811 64.9726 19.9466 64.5379 20.0103C64.3188 20.041 64.1064 20.0996 63.9081 20.1841C63.7074 20.2684 63.5201 20.3737 63.3505 20.4975L63.3443 20.5018C63.3334 20.5096 63.3208 20.5155 63.3071 20.5192C63.2935 20.5229 63.2792 20.5243 63.2649 20.5233C63.2507 20.5223 63.2368 20.5189 63.2241 20.5134C63.2114 20.5079 63.2001 20.5003 63.1908 20.4911C63.1816 20.4818 63.1746 20.4712 63.1702 20.4597C63.1659 20.4482 63.1642 20.436 63.1654 20.424C63.1666 20.412 63.1706 20.4002 63.1771 20.3895C63.1837 20.3788 63.1926 20.3692 63.2036 20.3614C63.3822 20.2204 63.5811 20.099 63.7956 20C64.0116 19.8993 64.2442 19.8267 64.4857 19.7844C64.9749 19.6962 65.4832 19.7206 65.9575 19.855C65.9985 19.867 66.0322 19.8923 66.0511 19.9252C66.0701 19.9582 66.0728 19.9962 66.0586 20.0308C66.0444 20.0654 66.0145 20.0939 65.9755 20.1099C65.9365 20.1259 65.8916 20.1282 65.8506 20.1162L65.8452 20.1145L65.8335 20.1104Z" fill="#0C0C0C"/>
<path d="M62.2912 15.6758C62.2912 15.6758 63.0687 20.3699 57.3105 21.4929" stroke="#0C0C0C" stroke-width="0.5" stroke-miterlimit="10"/>
<path opacity="0.1" d="M65.759 24.5499C65.7639 24.1584 65.2557 23.8364 64.6238 23.8308C63.9919 23.8251 63.4757 24.1379 63.4708 24.5294C63.4659 24.9209 63.9741 25.2429 64.606 25.2485C65.2379 25.2542 65.7541 24.9414 65.759 24.5499Z" fill="#0C0C0C"/>
<path opacity="0.1" d="M71.4185 24.4294C71.4151 24.8204 71.9231 25.1421 72.5549 25.1484C72.6641 25.1495 72.7732 25.1409 72.8803 25.1228C72.9799 24.6668 73.0497 24.2254 73.0967 23.8148C72.9296 23.7594 72.7516 23.7308 72.572 23.7306C71.9391 23.7241 71.423 24.0376 71.4185 24.4294Z" fill="#0C0C0C"/>
<path d="M41.2635 74.2621L39.6167 82.7434H80.6873L79.1521 74.2109L41.2635 74.2621Z" fill="#262626"/>
<path d="M61.8753 39.3333C55.571 39.0823 55.3055 34.5625 55.3055 34.5625C55.3055 34.5625 52.1826 34.7331 50.1054 34.9704C46.7057 35.3591 44.4631 36.3329 42.6784 37.8408C41.0181 39.2435 40.0074 40.7609 41.0769 50.45C41.8514 57.4655 41.2638 74.2631 41.2638 74.2631L79.1524 74.2119C79.1524 74.2119 82.6876 52.6711 83.0056 49.5126C83.6125 43.4839 82.319 38.3874 80.8375 37.1358C77.7916 34.5625 72.548 34.5625 69.9286 34.5629C69.8867 34.562 70.4606 39.6752 61.8753 39.3333Z" fill="#367CFF"/>
<path d="M106.937 28.0918L94.685 47.0653L80.0649 36.595L71.0747 45.5552L92.2036 60.687L92.3546 60.7967C93.15 61.3592 94.0867 61.7613 95.0935 61.9723C96.1003 62.1834 97.1508 62.1978 98.1653 62.0146C99.1797 61.8313 100.131 61.4552 100.948 60.9148C101.765 60.3744 102.425 59.6839 102.878 58.8957L117.843 32.8371L106.937 28.0918Z" fill="#367CFF"/>
<path d="M44.9252 66.4396L47.2317 82.4339H33.3297L31.011 65.4421C31.0033 64.7139 31.1556 63.9909 31.4602 63.3097L41.5285 39.2969L54.7454 43.0936L44.9252 66.4396Z" fill="#367CFF"/>
<path d="M47.1256 82.4449L44.8159 66.4277L44.8258 66.4063L51.1797 52.7832L51.3788 52.8497L45.0347 66.4513L47.3378 82.423L47.1256 82.4449Z" fill="#0C0C0C"/>
<path d="M83.0617 48.8003L82.2949 53.9492L82.4785 53.9687L83.2453 48.8198L83.0617 48.8003Z" fill="#0C0C0C"/>
<path d="M218.62 164.999H4.62971C4.59 164.999 4.55192 164.986 4.52384 164.962C4.49576 164.938 4.47998 164.906 4.47998 164.873C4.47998 164.839 4.49576 164.807 4.52384 164.783C4.55192 164.759 4.59 164.746 4.62971 164.746H218.62C218.66 164.746 218.698 164.759 218.726 164.783C218.754 164.807 218.77 164.839 218.77 164.873C218.77 164.906 218.754 164.938 218.726 164.962C218.698 164.986 218.66 164.999 218.62 164.999Z" fill="#292A2E"/>
<g opacity="0.65">
<path opacity="0.65" d="M218.62 164.999H4.62971C4.59 164.999 4.55192 164.986 4.52384 164.962C4.49576 164.938 4.47998 164.906 4.47998 164.873C4.47998 164.839 4.49576 164.807 4.52384 164.783C4.55192 164.759 4.59 164.746 4.62971 164.746H218.62C218.66 164.746 218.698 164.759 218.726 164.783C218.754 164.807 218.77 164.839 218.77 164.873C218.77 164.906 218.754 164.938 218.726 164.962C218.698 164.986 218.66 164.999 218.62 164.999Z" fill="#292A2E"/>
</g>
<path opacity="0.49" d="M74.1088 78.4118C79.641 78.4118 84.1257 74.6229 84.1257 69.9491C84.1257 65.2752 79.641 61.4863 74.1088 61.4863C68.5765 61.4863 64.0918 65.2752 64.0918 69.9491C64.0918 74.6229 68.5765 78.4118 74.1088 78.4118Z" fill="white"/>
<path d="M74.109 76.2158C78.2059 76.2158 81.527 73.4099 81.527 69.9487C81.527 66.4875 78.2059 63.6816 74.109 63.6816C70.0121 63.6816 66.6909 66.4875 66.6909 69.9487C66.6909 73.4099 70.0121 76.2158 74.109 76.2158Z" fill="white"/>
<path d="M79.1079 72.0108C79.194 72.0595 79.2547 72.1342 79.2774 72.2197C79.3001 72.3051 79.2831 72.3947 79.2298 72.4698L78.7442 73.1534C78.6156 73.3383 78.4075 73.4742 78.1633 73.5329C77.3562 73.7201 75.5766 73.7577 72.724 71.3479C69.8714 68.9381 69.9161 67.4341 70.1375 66.7524C70.2071 66.5461 70.3679 66.3702 70.5867 66.2612L71.3961 65.8512C71.485 65.8062 71.591 65.7918 71.6922 65.8111C71.7933 65.8303 71.8817 65.8817 71.9392 65.9546L73.2295 67.5897C73.2858 67.6613 73.308 67.7482 73.2917 67.8331C73.2754 67.918 73.2218 67.9945 73.1415 68.0474L72.4168 68.5232C72.3405 68.5727 72.2878 68.6437 72.2681 68.7233C72.2485 68.8029 72.2633 68.8858 72.3099 68.9569C72.5225 69.28 72.7242 69.6608 73.7216 70.5049C74.7191 71.349 75.1717 71.5182 75.5541 71.6976C75.6382 71.7369 75.7361 71.7494 75.8301 71.7328C75.9242 71.7162 76.008 71.6717 76.0664 71.6072L76.63 70.9954C76.6925 70.9274 76.7831 70.882 76.8836 70.8682C76.9841 70.8544 77.0871 70.8732 77.1719 70.9209L79.1079 72.0108Z" fill="#0CBC8B"/>
<path d="M188.299 89.4395C177.649 89.4395 169.015 91.8942 169.015 94.9224V101.45H207.584V94.9224C207.584 91.8942 198.95 89.4395 188.299 89.4395Z" fill="#367CFF"/>
<path opacity="0.49" d="M188.299 89.4395C177.649 89.4395 169.015 91.8942 169.015 94.9224V101.45H207.584V94.9224C207.584 91.8942 198.95 89.4395 188.299 89.4395Z" fill="white"/>
<path opacity="0.49" d="M202.329 94.9237V101.45H169.013V94.9237C169.013 92.1479 176.264 89.8547 185.671 89.4922C195.079 89.8543 202.329 92.1479 202.329 94.9237Z" fill="white"/>
<path d="M207.583 164.875L208.225 164.328L207.583 100.871L206.941 101.418L207.399 146.127L184.552 146.455L184.091 101.413L183.449 101.418L183.91 146.464L170.118 146.662L169.655 101.413L169.013 100.876L169.655 164.333L170.297 164.871L170.123 147.204L183.915 147.006L184.091 164.875L184.732 164.871L184.557 146.997L207.404 146.669L207.583 164.875Z" fill="#292A2E"/>
<path d="M148.665 155.289C148.665 155.289 147.518 160.312 141.952 160.592C136.386 160.872 137.593 164.618 137.593 164.618H158.864V155.639L148.665 155.289Z" fill="#367CFF"/>
<path d="M160.801 140.183C160.801 140.183 162.396 145.117 157.548 147.444C152.7 149.771 155.74 152.683 155.74 152.683L174.827 144.749L170.136 136.693L160.801 140.183Z" fill="#367CFF"/>
<path d="M158.782 143.445L144.4 97.6002C143.309 92.5355 144.952 90.3402 147.482 88.2077C151.928 84.461 170.352 76.4863 170.352 76.4863L192.454 76.4355C198.315 76.4355 204.076 81.3178 204.076 86.269C204.076 91.2201 198.118 95.4193 192.258 95.4193L165.041 97.7144L172.418 139.691L158.782 143.445Z" fill="#262626"/>
<path d="M172.418 139.69L169.513 123.164L154.799 130.747L158.782 143.444L172.418 139.69Z" fill="#0C0C0C"/>
<path d="M175.754 85.7617C175.754 85.7617 166.463 87.5112 157.261 95.2852C151.681 99.9987 152.139 108.529 152.976 124.934L162.115 113.529L172.139 98.2547L175.754 85.7617Z" fill="#0C0C0C"/>
<path d="M207.924 76.429L192.914 76.3691L192.908 76.5361H188.363C188.363 76.5361 176.978 85.3872 167.812 90.9645C161.144 95.0211 157.077 98.8887 156.725 103.104C155.867 113.379 146.191 157.204 146.191 157.204L160.753 159.067L173.533 106.694C173.533 106.694 193.516 98.9117 198.138 96.203C202.491 93.6524 205.565 92.6666 207.005 89.8833C209.493 85.0753 207.924 76.429 207.924 76.429Z" fill="#262626"/>
<path d="M179.568 20.9244C179.568 20.9244 177.211 18.7654 177.393 14.6537C177.534 11.4701 180.492 13.999 180.492 13.999C180.492 13.999 180.62 11.7074 182.501 12.2244C184.382 12.7414 184.961 15.2576 184.961 15.2576" fill="#0C0C0C"/>
<path d="M192.42 14.0117C192.42 14.0117 201.811 16.3429 196 26.7765L195.142 26.6948L193.402 26.5293" fill="#0C0C0C"/>
<path d="M179.113 37.5976C179.156 37.5929 179.63 44.2478 188.782 43.6683C195.118 43.2673 197.377 37.5883 197.522 37.5883C196.839 37.4655 195.995 37.2794 195.659 37.2156C194.928 37.0722 194.266 36.7441 193.761 36.275C193.256 35.8059 192.932 35.218 192.832 34.5895C192.646 33.646 192.96 28.8198 192.864 27.8652L183.139 29.6991C183.275 31.7149 184.226 36.3885 180.893 37.2156C180.337 37.3524 179.74 37.4782 179.113 37.5976Z" fill="#E98862"/>
<path opacity="0.52" d="M183.003 35.3069C183.155 34.8921 183.253 34.4645 183.295 34.0317C183.402 33.044 183.381 32.0494 183.231 31.0656C185.208 30.8402 187.07 30.1509 188.606 29.0762C188.787 29.6396 189.78 32.1015 189.505 32.6362C188.986 33.6493 186.543 35.3069 183.003 35.3069Z" fill="#0C0C0C"/>
<path d="M184.59 33.1875C188.427 33.4788 193.378 32.1543 194.37 27.8346L195.266 23.9368C196.259 19.6178 194.378 15.6749 189.564 14.8852C184.75 14.0955 180.347 17.0069 179.354 21.3266L178.957 23.0523C178.833 23.6467 178.757 24.2477 178.73 24.8509C178.645 26.4446 178.521 28.8688 179.429 30.6604C180.285 32.3511 182.139 33.0017 184.59 33.1875Z" fill="#E98862"/>
<path d="M181.738 28.5457C183.166 28.6851 184.609 28.4183 185.838 27.7876C185.881 27.7659 185.93 27.7549 185.979 27.7559C186.029 27.7569 186.077 27.7699 186.119 27.7932C186.16 27.8166 186.193 27.8495 186.213 27.8879C186.233 27.9264 186.239 27.9689 186.232 28.0104C186.095 28.7217 185.601 30.0196 183.815 30.1139C182.662 30.1748 181.874 29.3967 181.483 28.8851C181.456 28.8496 181.442 28.8083 181.441 28.766C181.441 28.7237 181.455 28.6823 181.482 28.6466C181.509 28.6109 181.547 28.5824 181.593 28.5645C181.638 28.5466 181.688 28.5401 181.738 28.5457Z" fill="white"/>
<path d="M180.506 24.1398C180.84 24.1398 181.11 23.9113 181.11 23.6295C181.11 23.3476 180.84 23.1191 180.506 23.1191C180.172 23.1191 179.902 23.3476 179.902 23.6295C179.902 23.9113 180.172 24.1398 180.506 24.1398Z" fill="#0C0C0C"/>
<path d="M186.379 24.7199C186.713 24.7199 186.983 24.4914 186.983 24.2095C186.983 23.9277 186.713 23.6992 186.379 23.6992C186.045 23.6992 185.775 23.9277 185.775 24.2095C185.775 24.4914 186.045 24.7199 186.379 24.7199Z" fill="#0C0C0C"/>
<path d="M193.769 29.101C195.232 29.341 196.722 28.2134 197.006 26.9773C197.29 25.7413 196.261 24.8652 194.798 24.625L193.853 25.3298L192.511 28.895L193.769 29.101Z" fill="#E98862"/>
<path d="M192.735 26.887C192.735 26.887 193.552 20.6846 191.434 19.97C190.024 19.4942 186.096 20.7061 182.921 19.6731C181.53 19.2213 180.101 19.3132 179.839 19.8661C179.735 20.0852 179.539 16.6804 182.323 14.5449C184.541 12.8448 190.532 13.185 193.065 14.2411C200.078 17.165 195.041 24.9409 195.041 24.9409L194.258 27.0026L192.735 26.887Z" fill="#0C0C0C"/>
<g opacity="0.52">
<path opacity="0.52" d="M183.11 27.3799L183.1 27.3786C182.63 27.3024 181.848 27.13 181.915 26.8318C181.971 26.5848 183.375 24.0477 183.536 23.7597C183.542 23.747 183.552 23.7355 183.563 23.7259C183.575 23.7163 183.589 23.7089 183.605 23.704C183.62 23.6991 183.636 23.6968 183.653 23.6973C183.669 23.6979 183.685 23.7012 183.7 23.7071C183.715 23.713 183.728 23.7213 183.739 23.7316C183.75 23.7419 183.758 23.754 183.764 23.7671C183.769 23.7802 183.771 23.7941 183.77 23.8079C183.769 23.8217 183.764 23.8352 183.757 23.8475C183.134 24.9708 182.193 26.7028 182.155 26.871C182.186 26.9489 182.658 27.0969 183.146 27.176C183.177 27.1812 183.204 27.1963 183.223 27.218C183.241 27.2397 183.248 27.2665 183.243 27.2928C183.239 27.3191 183.222 27.3428 183.197 27.3591C183.173 27.3754 183.141 27.3829 183.11 27.3802V27.3799Z" fill="#0C0C0C"/>
</g>
<path d="M182.776 21.1652C182.304 20.9741 181.779 20.8941 181.258 20.9337C181.002 20.9519 180.751 21.0024 180.513 21.0835C180.278 21.1627 180.056 21.2667 179.851 21.3931C179.812 21.4146 179.784 21.4486 179.774 21.4876C179.764 21.5266 179.772 21.5673 179.798 21.6009C179.823 21.6344 179.864 21.658 179.91 21.6665C179.956 21.675 180.004 21.6676 180.044 21.6461L180.056 21.6397C180.242 21.5399 180.441 21.46 180.65 21.4021C180.855 21.3442 181.07 21.3128 181.286 21.3092C181.713 21.2993 182.135 21.3847 182.511 21.5568L182.527 21.5644C182.557 21.5791 182.591 21.5886 182.626 21.5923C182.66 21.5961 182.696 21.594 182.73 21.5862C182.764 21.5783 182.795 21.565 182.823 21.5468C182.851 21.5286 182.874 21.506 182.892 21.4802C182.909 21.4544 182.92 21.426 182.925 21.3965C182.929 21.367 182.927 21.3371 182.917 21.3085C182.908 21.2798 182.892 21.253 182.871 21.2296C182.849 21.2061 182.822 21.1864 182.792 21.1717C182.787 21.1701 182.781 21.1675 182.776 21.1652Z" fill="#0C0C0C"/>
<path d="M186.239 21.9538C186.65 21.8565 187.085 21.8526 187.498 21.9426C187.708 21.9868 187.909 22.0577 188.094 22.1527C188.283 22.2484 188.456 22.3638 188.61 22.4961L188.62 22.504C188.653 22.532 188.698 22.5478 188.745 22.548C188.792 22.5481 188.837 22.5327 188.871 22.505C188.904 22.4772 188.923 22.4395 188.924 22.3999C188.925 22.3603 188.907 22.3221 188.874 22.2935C188.708 22.132 188.519 21.9888 188.311 21.8672C188.1 21.7434 187.868 21.647 187.624 21.5811C187.126 21.4446 186.594 21.424 186.084 21.5213C186.015 21.535 185.955 21.5713 185.917 21.6222C185.88 21.6732 185.868 21.7346 185.884 21.793C185.9 21.8514 185.943 21.902 186.003 21.9336C186.064 21.9653 186.136 21.9754 186.206 21.9617C186.211 21.9606 186.216 21.9596 186.222 21.9581L186.239 21.9538Z" fill="#0C0C0C"/>
<path d="M187.406 15.3517C188.029 14.053 187.687 12.7104 186.643 12.3528C185.599 11.9952 184.247 12.7581 183.624 14.0568C183.001 15.3554 183.343 16.6981 184.387 17.0557C185.431 17.4132 186.783 16.6503 187.406 15.3517Z" fill="#0C0C0C"/>
<path d="M167.742 52.2515C168.031 55.1125 170.074 72.9629 170.352 76.4869H207.907C208.123 73.3084 209.092 59.4096 209.91 53.1941C210.691 47.2629 211.786 44.5638 210.886 42.7206C209.299 39.4697 204.249 38.0181 200.829 37.6268C198.74 37.3879 195.599 37.2168 195.599 37.2168C195.599 37.2168 195.333 41.7622 188.991 42.0151C180.358 42.3584 180.935 37.2168 180.892 37.2168C179.494 37.2168 171.881 38.0759 169.977 39.1242C167.289 40.6046 166.494 42.6222 166.463 44.4758C166.427 46.6097 167.415 49.0064 167.742 52.2515Z" fill="#367CFF"/>
<path d="M134.663 36.9473C134.602 36.8448 134.516 36.7539 134.411 36.6803C134.307 36.6067 134.185 36.5519 134.055 36.5192C133.924 36.4865 133.787 36.4766 133.652 36.4901C133.517 36.5036 133.386 36.5403 133.268 36.5978C133.045 36.7159 132.883 36.9013 132.815 37.1165C132.747 37.3317 132.778 37.5607 132.902 37.7572L133.516 38.7765L129.833 36.3105C129.429 36.0304 128.721 35.9048 128.378 36.3081C128.235 36.456 128.155 36.6407 128.152 36.832C128.148 37.0232 128.222 37.2098 128.36 37.3611C128.356 37.3638 128.352 37.3668 128.348 37.3703C128.346 37.3732 128.344 37.3761 128.343 37.3792L127.72 36.9471C127.605 36.8676 127.471 36.8105 127.327 36.7801C127.183 36.7497 127.033 36.7466 126.887 36.7712C126.742 36.7957 126.605 36.8472 126.486 36.922C126.366 36.9968 126.268 37.0931 126.199 37.2037C126.092 37.3821 126.061 37.5862 126.112 37.7815C126.162 37.9768 126.291 38.1513 126.477 38.2755L126.742 38.4595C126.739 38.4687 126.738 38.4782 126.739 38.4877C126.528 38.3992 126.287 38.3764 126.058 38.4232C125.829 38.4701 125.627 38.5836 125.488 38.7437C125.339 38.9277 125.279 39.1525 125.319 39.3727C125.359 39.5929 125.496 39.7921 125.703 39.9299L126.354 40.3817C126.34 40.3808 126.325 40.3828 126.311 40.3876C126.298 40.3925 126.286 40.4 126.277 40.4095C126.266 40.4214 126.26 40.4356 126.259 40.4504C126.048 40.4165 125.831 40.4403 125.638 40.5183C125.445 40.5963 125.287 40.7245 125.186 40.8841C125.079 41.0625 125.048 41.2666 125.099 41.4619C125.15 41.6572 125.279 41.8317 125.464 41.9559L131.017 45.809C131.794 46.348 132.744 46.6787 133.745 46.7587C134.746 46.8388 135.752 46.6646 136.635 46.2585L139.477 44.9503L134.663 36.9473Z" fill="#E98862"/>
<g opacity="0.2">
<path opacity="0.2" d="M131.991 39.8172C131.976 39.8328 131.954 39.8427 131.93 39.8448C131.906 39.8469 131.882 39.841 131.863 39.8284L128.364 37.4791C128.355 37.4728 128.347 37.4649 128.341 37.4559C128.335 37.4469 128.331 37.4371 128.33 37.4269C128.328 37.4167 128.329 37.4063 128.333 37.3965C128.336 37.3866 128.342 37.3774 128.349 37.3694C128.357 37.3613 128.366 37.3546 128.377 37.3497C128.387 37.3447 128.399 37.3415 128.411 37.3404C128.423 37.3392 128.435 37.34 128.447 37.3429C128.459 37.3457 128.47 37.3504 128.479 37.3568L131.978 39.7061C131.987 39.7124 131.995 39.7203 132.001 39.7293C132.007 39.7382 132.011 39.7481 132.012 39.7583C132.014 39.7685 132.013 39.7788 132.009 39.7886C132.006 39.7985 132 39.8077 131.993 39.8158L131.991 39.8172Z" fill="#0C0C0C"/>
</g>
<g opacity="0.2">
<path opacity="0.2" d="M130.808 41.1508C130.792 41.1664 130.77 41.1763 130.746 41.1783C130.722 41.1804 130.698 41.1746 130.679 41.162L126.774 38.5406C126.765 38.5342 126.757 38.5263 126.751 38.5173C126.745 38.5084 126.741 38.4985 126.74 38.4883C126.738 38.4781 126.74 38.4678 126.743 38.4579C126.746 38.4481 126.752 38.4389 126.759 38.4309C126.775 38.4152 126.797 38.4052 126.821 38.4029C126.846 38.4005 126.87 38.406 126.889 38.4182L130.794 41.0396C130.804 41.046 130.811 41.0539 130.817 41.0629C130.823 41.0718 130.827 41.0817 130.828 41.0919C130.83 41.1021 130.829 41.1124 130.825 41.1222C130.822 41.1321 130.816 41.1413 130.809 41.1493L130.808 41.1508Z" fill="#0C0C0C"/>
</g>
<g opacity="0.2">
<path opacity="0.2" d="M129.536 42.5987C129.52 42.6143 129.498 42.6242 129.474 42.6262C129.45 42.6283 129.426 42.6224 129.408 42.6098L126.292 40.5182C126.273 40.5053 126.261 40.4865 126.258 40.4659C126.255 40.4453 126.262 40.4247 126.277 40.4084C126.293 40.3922 126.315 40.3818 126.339 40.3794C126.364 40.3771 126.388 40.383 126.407 40.3959L129.522 42.4867C129.541 42.4996 129.554 42.5185 129.556 42.5391C129.559 42.5597 129.552 42.5803 129.537 42.5966L129.536 42.5987Z" fill="#0C0C0C"/>
</g>
<path d="M187.851 83.1273C187.718 83.1536 187.593 83.2024 187.484 83.2708C187.374 83.3392 187.283 83.4258 187.214 83.5251C187.146 83.6245 187.102 83.7346 187.085 83.8488C187.069 83.9629 187.08 84.0788 187.118 84.1891C187.201 84.4007 187.375 84.5778 187.607 84.6846C187.838 84.7915 188.109 84.8201 188.364 84.7647L189.682 84.5032L185.972 86.9408C185.554 87.2058 185.242 87.7568 185.625 88.1335C185.761 88.2865 185.954 88.3959 186.173 88.4439C186.393 88.492 186.625 88.4758 186.831 88.3981C186.833 88.4024 186.836 88.4065 186.839 88.4102C186.842 88.4125 186.845 88.4147 186.848 88.4167L186.203 88.8253C186.085 88.9006 185.987 88.9972 185.918 89.1082C185.849 89.2191 185.81 89.3417 185.804 89.4669C185.797 89.5922 185.824 89.7171 185.882 89.8326C185.939 89.9482 186.027 90.0514 186.138 90.1349C186.317 90.265 186.545 90.3387 186.781 90.3434C187.018 90.3482 187.249 90.2837 187.436 90.161L187.71 89.9871C187.72 89.9915 187.731 89.9945 187.742 89.9958C187.59 90.1479 187.507 90.3404 187.507 90.5394C187.506 90.7384 187.589 90.9311 187.74 91.0837C187.916 91.2494 188.16 91.3523 188.423 91.3718C188.686 91.3912 188.947 91.3256 189.155 91.1883L189.829 90.7609C189.824 90.7727 189.823 90.7853 189.826 90.7976C189.828 90.8099 189.834 90.8216 189.843 90.8316C189.854 90.843 189.869 90.8515 189.885 90.856C189.797 91.0204 189.772 91.2044 189.816 91.3813C189.86 91.5582 189.97 91.7186 190.129 91.839C190.309 91.9691 190.536 92.0427 190.773 92.0474C191.009 92.0521 191.241 91.9877 191.427 91.8649L197.175 88.2212C197.98 87.7115 198.585 87.0105 198.915 86.2081C199.244 85.4057 199.283 84.5384 199.025 83.7175L198.195 81.0742L187.851 83.1273Z" fill="#E98862"/>
<g opacity="0.2">
<path opacity="0.2" d="M190.518 86.0017C190.532 86.0181 190.539 86.0387 190.535 86.059C190.532 86.0792 190.519 86.0976 190.5 86.1101L186.968 88.4241C186.959 88.4304 186.948 88.4351 186.936 88.4378C186.925 88.4405 186.912 88.4412 186.9 88.4399C186.888 88.4386 186.877 88.4354 186.866 88.4303C186.855 88.4252 186.846 88.4184 186.839 88.4103C186.831 88.4022 186.826 88.3929 186.823 88.3831C186.819 88.3732 186.819 88.3628 186.82 88.3527C186.822 88.3425 186.825 88.3327 186.831 88.3237C186.837 88.3148 186.846 88.307 186.855 88.3007L190.387 85.9871C190.406 85.9744 190.431 85.9687 190.455 85.9713C190.479 85.9739 190.502 85.9846 190.517 86.001L190.518 86.0017Z" fill="#0C0C0C"/>
</g>
<g opacity="0.2">
<path opacity="0.2" d="M191.769 87.2888C191.783 87.3052 191.789 87.3258 191.786 87.3461C191.783 87.3664 191.77 87.3847 191.751 87.3972L187.811 89.9803C187.791 89.993 187.767 89.9986 187.742 89.9961C187.718 89.9935 187.696 89.9829 187.681 89.9666C187.666 89.9499 187.66 89.9294 187.663 89.909C187.666 89.8886 187.678 89.87 187.697 89.8569L191.638 87.2742C191.657 87.2615 191.682 87.2558 191.706 87.2584C191.73 87.261 191.752 87.2716 191.767 87.2879L191.769 87.2888Z" fill="#0C0C0C"/>
</g>
<g opacity="0.2">
<path opacity="0.2" d="M193.133 88.6763C193.147 88.6927 193.154 88.7133 193.15 88.7336C193.147 88.7538 193.135 88.7722 193.115 88.7847L189.971 90.8448C189.952 90.8566 189.928 90.8615 189.904 90.8585C189.88 90.8556 189.859 90.845 189.844 90.8291C189.829 90.8131 189.823 90.7929 189.825 90.7728C189.828 90.7527 189.839 90.7342 189.858 90.7212L193.002 88.6609C193.021 88.6482 193.046 88.6426 193.07 88.6451C193.095 88.6477 193.117 88.6583 193.132 88.6747L193.133 88.6763Z" fill="#0C0C0C"/>
</g>
<path d="M223.331 64.5988L223.261 64.4755L210.769 42.6582L198.253 47.7732L208.597 65.8403L190.745 80.9718L199.363 88.5798L221.808 71.2759C222.878 70.4492 223.604 69.3531 223.878 68.1504C224.153 66.9476 223.961 65.7022 223.331 64.5988Z" fill="#367CFF"/>
<path d="M196.037 76.5761C196.016 76.5761 195.996 76.5707 195.978 76.5608C195.96 76.5508 195.947 76.5366 195.939 76.5201C195.931 76.5035 195.929 76.4853 195.933 76.4678C195.937 76.4503 195.947 76.4342 195.962 76.4216L208.679 65.8225L199.225 49.8028C199.217 49.7921 199.213 49.7803 199.211 49.7681C199.21 49.7559 199.211 49.7436 199.215 49.7319C199.22 49.7201 199.227 49.7093 199.236 49.6999C199.245 49.6905 199.257 49.6829 199.27 49.6774C199.283 49.672 199.297 49.6688 199.312 49.6681C199.326 49.6674 199.341 49.6692 199.354 49.6734C199.368 49.6776 199.38 49.6841 199.391 49.6926C199.402 49.701 199.41 49.7111 199.416 49.7223L208.906 65.8001C208.916 65.8172 208.919 65.8365 208.915 65.8552C208.911 65.874 208.901 65.8913 208.884 65.9045L196.112 76.5496C196.092 76.5664 196.065 76.5759 196.037 76.5761Z" fill="#0C0C0C"/>
<path d="M169.037 39.6719L151.563 53.2941L138.701 39.7124L130.124 47.0003L144.488 63.8162C145.78 65.9978 148.562 67.3182 151.42 66.972C152.527 66.8379 153.577 66.4733 154.475 65.911L154.8 65.7086L178.241 49.1356L169.037 39.6719Z" fill="#367CFF"/>
<path d="M168.247 56.2067C168.221 56.2069 168.196 56.199 168.176 56.1846C168.156 56.1701 168.144 56.1501 168.14 56.1283L167.327 50.978C167.324 50.9544 167.332 50.9307 167.349 50.9119C167.366 50.8932 167.392 50.8809 167.419 50.8778C167.447 50.8746 167.475 50.8808 167.498 50.8951C167.52 50.9093 167.535 50.9305 167.539 50.9539L168.352 56.1042C168.354 56.116 168.353 56.128 168.35 56.1395C168.346 56.151 168.34 56.1618 168.331 56.1712C168.323 56.1807 168.312 56.1886 168.3 56.1946C168.288 56.2005 168.274 56.2044 168.26 56.206C168.256 56.2064 168.252 56.2067 168.247 56.2067Z" fill="#0C0C0C"/>
<path d="M153.72 56.0339C153.701 56.0339 153.682 56.0296 153.666 56.0214C153.649 56.0131 153.636 56.0013 153.627 55.9871L151.469 53.3372C151.456 53.3162 151.452 53.2914 151.46 53.2684C151.468 53.2454 151.487 53.2259 151.511 53.2144C151.536 53.2028 151.565 53.2 151.593 53.2067C151.62 53.2133 151.643 53.2289 151.657 53.2499L153.814 55.9C153.823 55.9137 153.827 55.9292 153.827 55.9449C153.827 55.9606 153.822 55.9759 153.812 55.9895C153.803 56.003 153.789 56.0142 153.773 56.022C153.757 56.0298 153.739 56.0339 153.72 56.0339H153.72Z" fill="#0C0C0C"/>
</svg>
