<svg width="230" height="153" viewBox="0 0 230 153" fill="none" xmlns="http://www.w3.org/2000/svg">
<g clip-path="url(#clip0_8_18042)">
<path d="M210.924 152.966C213.5 152.966 216.05 152.517 218.419 151.645C220.788 150.773 222.928 149.497 224.709 147.894C226.49 146.29 227.875 144.393 228.781 142.315C229.688 140.238 230.096 138.024 229.982 135.807C229.355 123.58 220.333 106.057 195.745 90.2304C161.627 68.2716 184.12 18.1331 139.336 12.8962C65.7235 4.29048 79.6496 60.5717 34.1959 81.0909C5.26236 94.1524 0.00181732 119.709 0 136.56C0.00473755 140.915 2.01687 145.089 5.59393 148.166C9.17099 151.242 14.0201 152.969 19.0749 152.966H210.924Z" fill="#F3F5FD"/>
<path d="M166.208 2.30176H91.8803C86.1884 2.30176 81.5742 6.27638 81.5742 11.1793V141.82C81.5742 146.723 86.1884 150.698 91.8803 150.698H166.208C171.9 150.698 176.514 146.723 176.514 141.82V11.1793C176.514 6.27638 171.9 2.30176 166.208 2.30176Z" fill="white"/>
<path d="M166.208 153H91.8806C88.4396 152.997 85.1408 151.818 82.7077 149.722C80.2745 147.626 78.9059 144.784 78.9019 141.82V11.1798C78.9059 8.2158 80.2745 5.37417 82.7077 3.2783C85.1408 1.18243 88.4396 0.00345255 91.8806 0H166.209C169.65 0.00345255 172.949 1.18243 175.382 3.2783C177.815 5.37417 179.184 8.2158 179.188 11.1798V141.82C179.184 144.784 177.815 147.626 175.382 149.722C172.949 151.818 169.649 152.997 166.208 153ZM91.8806 4.60394C89.857 4.60615 87.9171 5.29956 86.4862 6.5321C85.0554 7.76464 84.2504 9.43569 84.2478 11.1788V141.82C84.2503 143.563 85.0553 145.234 86.4861 146.467C87.917 147.699 89.857 148.393 91.8806 148.395H166.209C168.233 148.393 170.173 147.699 171.604 146.467C173.034 145.234 173.839 143.563 173.842 141.82V11.1798C173.839 9.43673 173.034 7.76568 171.603 6.53314C170.173 5.3006 168.233 4.60719 166.209 4.60498L91.8806 4.60394Z" fill="#DEE8F5"/>
<path d="M112.77 2.30176H145.319V7.74164C145.319 8.27638 145.197 8.80588 144.959 9.29991C144.722 9.79394 144.373 10.2428 143.934 10.6209C143.495 10.9991 142.974 11.299 142.401 11.5036C141.827 11.7083 141.213 11.8136 140.592 11.8136H117.497C116.243 11.8136 115.041 11.3846 114.154 10.6209C113.268 9.85731 112.77 8.82159 112.77 7.74164V2.30176H112.77Z" fill="#DEE8F5"/>
<path d="M26.5309 34.8531C26.4842 30.9737 28.2643 28.5697 30.6774 27.2498C33.0587 25.9474 40.5261 24.8137 43.3572 29.5416C45.2048 32.6268 44.4754 33.7296 44.9988 38.6709C45.5222 43.6122 47.5328 44.1309 49.5724 50.1203C51.1717 54.8184 42.2123 57.3124 34.455 57.0969C26.6978 56.8814 21.7792 55.401 21.3291 51.1516C20.6818 45.0519 26.6218 42.4554 26.5309 34.8531Z" fill="#0F1011"/>
<path d="M31.1533 45.5803C31.1533 45.5803 33.4837 44.492 32.9025 39.0026L37.7329 38.1914C37.7329 38.1914 37.2417 43.1225 39.7062 44.6655L31.1533 45.5803Z" fill="#E98862"/>
<g opacity="0.15">
<path opacity="0.15" d="M38.7038 43.6425L34.6558 41.0253L37.8128 40.9731C37.9142 41.903 38.2164 42.8083 38.7038 43.6425Z" fill="black"/>
</g>
<path d="M30.1342 36.8919C30.4871 38.556 31.5596 40.1272 33.2721 40.6508C35.1393 41.2721 37.1547 41.4905 39.1424 41.2869C44.4356 40.8708 43.2774 30.5039 40.741 28.5085C38.2046 26.5131 30.8366 27.8477 29.9752 31.2253C29.5296 32.9731 29.7986 35.3088 30.1342 36.8919Z" fill="#E98862"/>
<path d="M37.6938 35.5491C37.9362 35.5491 38.1327 35.3798 38.1327 35.171C38.1327 34.9622 37.9362 34.793 37.6938 34.793C37.4514 34.793 37.2549 34.9622 37.2549 35.171C37.2549 35.3798 37.4514 35.5491 37.6938 35.5491Z" fill="#0F1011"/>
<path d="M41.1537 35.2771C41.3961 35.2771 41.5926 35.1078 41.5926 34.899C41.5926 34.6903 41.3961 34.521 41.1537 34.521C40.9113 34.521 40.7148 34.6903 40.7148 34.899C40.7148 35.1078 40.9113 35.2771 41.1537 35.2771Z" fill="#0F1011"/>
<path d="M41.9033 34.0875Cnan nan nan nan 41.9033 34.0875L40.7408 33.729C40.6875 33.7308 40.6371 33.7502 40.6001 33.7833C40.5631 33.8164 40.5425 33.8606 40.5425 33.9066C40.5425 33.9525 40.5631 33.9966 40.6001 34.0298C40.6371 34.0629 40.6875 34.0823 40.7408 34.0841L41.9033 34.0875Z" fill="#0F1011"/>
<path d="M36.7373 34.4933C36.7542 34.4934 36.7711 34.4916 36.7876 34.4881L37.9313 34.2415C37.9832 34.2292 38.0274 34.1999 38.0546 34.1598C38.0817 34.1198 38.0896 34.0722 38.0765 34.0272C38.0635 33.9822 38.0305 33.9434 37.9847 33.919C37.9389 33.8947 37.8839 33.8867 37.8313 33.8969L36.6876 34.1437C36.6388 34.1541 36.5961 34.1796 36.5676 34.2153C36.539 34.251 36.5267 34.2944 36.5328 34.3375C36.5389 34.3805 36.5631 34.4201 36.6007 34.4488C36.6384 34.4775 36.687 34.4933 36.7373 34.4933Z" fill="#0F1011"/>
<path d="M37.9287 38.1467C37.9287 38.1467 39.5504 38.2811 40.6823 37.9302C40.6823 37.9302 40.6823 38.8493 39.402 38.9501C38.1217 39.0508 37.9287 38.1467 37.9287 38.1467Z" fill="white"/>
<path d="M33.6525 32.5462C33.5374 40.0741 32.6951 42.9983 32.6951 42.9983C32.6951 42.9983 28.557 38.691 27.9325 34.1275C27.347 29.851 30.9822 27.2944 33.4517 26.7982C42.8351 24.9129 43.4866 30.8086 43.4866 30.8086C42.8808 32.8199 32.6363 34.0678 32.6363 34.0678" fill="#0F1011"/>
<path d="M35.4953 36.8177C35.5379 37.24 35.3845 37.6596 35.0689 37.9847C34.7532 38.3098 34.3008 38.514 33.8108 38.5526C33.3208 38.5911 32.833 38.4609 32.4541 38.1903C32.0753 37.9198 31.8363 37.5311 31.7894 37.1091C31.763 36.8989 31.786 36.6862 31.8569 36.4837C31.9279 36.2813 32.0454 36.0932 32.2025 35.9307C32.3596 35.7682 32.5531 35.6345 32.7714 35.5377C32.9897 35.441 33.2284 35.383 33.4732 35.3673C34.7989 35.3196 35.4017 35.9364 35.4953 36.8177Z" fill="#E98862"/>
<g opacity="0.15">
<path opacity="0.15" d="M39.6633 37.2526C39.6273 37.2525 39.5924 37.2414 39.565 37.2211C39.5377 37.2009 39.5196 37.1729 39.514 37.1422C39.5085 37.1115 39.5158 37.0801 39.5347 37.0536C39.5537 37.0272 39.583 37.0074 39.6173 36.9979L40.5075 36.7548L39.8714 35.5619C39.8624 35.5463 39.8572 35.5292 39.856 35.5118C39.8547 35.4944 39.8576 35.477 39.8643 35.4605C39.8711 35.4441 39.8816 35.429 39.8952 35.4161C39.9089 35.4032 39.9254 35.3928 39.9438 35.3855C39.9622 35.3782 39.9821 35.3742 40.0023 35.3736C40.0226 35.373 40.0427 35.376 40.0616 35.3823C40.0805 35.3886 40.0978 35.398 40.1123 35.4102C40.1269 35.4223 40.1385 35.4368 40.1464 35.4528L40.8555 36.7798C40.8645 36.7966 40.8692 36.8147 40.8694 36.8332C40.8696 36.8516 40.8653 36.8699 40.8567 36.8868C40.8481 36.9036 40.8355 36.9188 40.8196 36.9311C40.8037 36.9435 40.785 36.9529 40.7646 36.9585L39.7112 37.2455C39.6958 37.2501 39.6796 37.2525 39.6633 37.2526Z" fill="black"/>
</g>
<path d="M70.9404 57.3759C70.9404 57.3759 72.7217 55.555 74.6166 55.2664C76.5114 54.9779 76.038 55.9169 74.9125 56.6174C73.787 57.3179 71.2476 58.7284 71.2476 58.7284" fill="#E98862"/>
<path d="M72.2441 56.8228C72.2441 56.8228 75.7798 55.5843 77.2951 56.1445C77.2951 56.1445 78.616 57.2609 77.3214 58.7274C76.0796 60.134 72.8387 60.6563 72.8387 60.6563L72.2441 56.8228Z" fill="#E98862"/>
<path d="M51.8081 150.143L45.4917 149.496C45.7761 147.437 46.0975 144.963 46.1193 144.558C46.1193 144.584 46.1193 144.605 46.1193 144.622H52.4799C52.4787 144.786 52.4787 145.286 51.8081 150.143Z" fill="#E98862"/>
<path d="M26.4637 150.798L20.103 150.78C20.103 150.78 20.1242 145.123 20.1242 144.623H26.4849C26.4849 145.124 26.4637 150.798 26.4637 150.798Z" fill="#E98862"/>
<path d="M42.9495 148.413L54.1563 148.249C53.6905 138.083 53.6111 126.456 53.486 115.934C53.4513 113.326 53.2227 110.723 52.8015 108.141C50.9987 96.9939 49.8226 85.9114 47.3956 74.8284L47.3144 74.849L47.0779 73.4584L24.0351 72.2334L22.8357 85.2004C22.8357 85.2004 19.8341 130.062 18.4653 148.101L29.6325 148.914C31.6446 131.228 34.7582 105.458 36.6734 86.8788C38.8727 95.9244 40.3686 105.29 42.281 114.259C42.6618 125.486 42.9849 137.221 42.9495 148.413Z" fill="#262626"/>
<path d="M34.1959 152.917C34.367 152.916 34.5361 152.885 34.6926 152.826C34.8491 152.766 34.9897 152.679 35.1056 152.571C35.2215 152.463 35.3102 152.335 35.3661 152.196C35.4221 152.056 35.4441 151.909 35.4308 151.762C35.4123 151.558 35.3267 151.363 35.184 151.2C35.0414 151.037 34.8476 150.912 34.6254 150.841L27.222 148.705C27.0786 148.664 26.9266 148.65 26.7764 148.665C26.6263 148.679 26.4815 148.721 26.3521 148.788C25.3343 149.397 24.1168 149.708 22.8786 149.676C21.9142 149.616 20.9885 149.325 20.2071 148.835C20.1384 148.786 20.0551 148.755 19.9669 148.746C19.8787 148.737 19.7893 148.749 19.709 148.782C19.6288 148.815 19.561 148.867 19.5136 148.931C19.4662 148.996 19.4412 149.071 19.4414 149.148V152.266C19.4414 152.358 19.4625 152.449 19.5035 152.534C19.5444 152.619 19.6045 152.696 19.6802 152.761C19.7558 152.826 19.8456 152.877 19.9444 152.912C20.0432 152.947 20.1491 152.965 20.2559 152.965L34.1959 152.917Z" fill="#C1D8ED"/>
<path d="M59.5578 152.917C59.7288 152.916 59.8979 152.885 60.0544 152.826C60.2109 152.766 60.3514 152.679 60.4673 152.571C60.5832 152.463 60.6718 152.335 60.7278 152.196C60.7837 152.056 60.8057 151.909 60.7923 151.762C60.774 151.558 60.6884 151.363 60.5457 151.2C60.403 151.037 60.2091 150.912 59.987 150.841L52.5838 148.705C52.4404 148.664 52.2884 148.65 52.1382 148.665C51.9881 148.679 51.8433 148.721 51.7139 148.788C50.6961 149.397 49.4786 149.708 48.2404 149.676C47.2759 149.616 46.3501 149.325 45.5686 148.835C45.4999 148.786 45.4166 148.756 45.3285 148.746C45.2404 148.737 45.151 148.749 45.0708 148.782C44.9906 148.815 44.9229 148.867 44.8755 148.932C44.8281 148.996 44.8031 149.071 44.8032 149.148V152.266C44.8032 152.358 44.8243 152.449 44.8653 152.534C44.9063 152.619 44.9663 152.696 45.042 152.761C45.1176 152.826 45.2075 152.877 45.3063 152.912C45.4051 152.947 45.5109 152.965 45.6177 152.965L59.5578 152.917Z" fill="#C1D8ED"/>
<path d="M55.3604 66.4366C54.8074 66.4366 54.264 66.3125 53.7837 66.0764C53.3035 65.8403 52.9029 65.5004 52.6217 65.0903L41.6699 49.1244L47.1461 46.3369L56.7807 60.3825L72.0068 55.8962L74.0664 61.0802L56.3902 66.2886C56.0588 66.3866 55.7108 66.4365 55.3604 66.4366Z" fill="#367CFF"/>
<path d="M48.5721 74.3321C47.303 76.8446 22.3663 77.8882 22.0331 73.4685C21.8211 70.6559 24.6985 68.2008 24.6985 62.7192C24.6985 57.2376 18.8437 50.2375 23.6142 46.1282C24.9984 44.9359 27.3881 44.1662 30.3019 44.1636C30.52 45.6273 40.8363 45.6325 40.9151 44.1975C41.3088 44.2027 41.6147 44.2079 41.8056 44.2158C51.8553 44.5888 47.4393 54.4406 47.3423 61.6782C47.2242 70.1469 49.8805 71.7436 48.5721 74.3321Z" fill="#367CFF"/>
<path d="M64.3057 68.9714C63.5329 68.9714 62.7894 68.7169 62.2273 68.2602L47.5297 56.3138C47.2382 56.0792 47.0034 55.7972 46.8387 55.4842C46.6741 55.1711 46.5829 54.8331 46.5703 54.4896C46.5578 54.1461 46.6242 53.8038 46.7656 53.4825C46.9071 53.1611 47.1208 52.867 47.3946 52.6171C47.6684 52.3671 47.9969 52.1662 48.3611 52.0258C48.7253 51.8855 49.1181 51.8086 49.5169 51.7994C49.9158 51.7902 50.3128 51.849 50.6852 51.9724C51.0575 52.0958 51.3979 52.2814 51.6868 52.5184L64.1385 62.6389L90.0305 38.0616C90.2963 37.8032 90.6189 37.5928 90.9798 37.4425C91.3407 37.2923 91.7326 37.2053 92.1328 37.1865C92.533 37.1677 92.9336 37.2175 93.3113 37.333C93.689 37.4486 94.0363 37.6275 94.3331 37.8595C94.6299 38.0915 94.8703 38.372 95.0404 38.6846C95.2105 38.9972 95.3068 39.3358 95.3238 39.6808C95.3409 40.0257 95.2783 40.3701 95.1396 40.6941C95.001 41.018 94.7891 41.315 94.5162 41.5679L66.5489 68.1156C66.2783 68.3725 65.9509 68.5804 65.5859 68.727C65.2209 68.8736 64.8256 68.9561 64.4232 68.9696C64.3841 68.9706 64.3448 68.9714 64.3057 68.9714Z" fill="#0CBC8B"/>
<path d="M40.9149 44.1975C40.8362 45.6325 39.9305 47.7432 37.1349 47.9024C33.4094 48.1137 30.5198 45.6273 30.3018 44.1636H30.3108C33.9788 44.1633 38.7765 44.1685 40.9149 44.1975Z" fill="#E98862"/>
<path d="M49.3851 64.285C49.3851 64.285 48.6839 60.8486 51.5677 60.5645C53.3872 60.3853 57.9614 58.2067 58.8291 60.0276C59.5818 61.6073 55.2136 63.488 53.6498 63.8368C52.2483 64.147 49.3851 64.285 49.3851 64.285Z" fill="#E98862"/>
<path d="M50.5845 60.8382C50.5845 60.8382 54.3006 59.0828 55.3174 59.1238C56.2176 59.16 54.6862 60.66 54.6862 60.66L50.5845 60.8382Z" fill="#E98862"/>
<path d="M34.4029 69.9077C33.7652 69.9077 33.1411 69.7486 32.6061 69.4496C32.0711 69.1505 31.6482 68.7245 31.3883 68.2228L22.1348 50.3769L28.1649 48.0566L36.2269 63.6066L51.7483 59.5031L53.6868 64.9411L35.3721 69.782C35.0581 69.8653 34.7314 69.9076 34.4029 69.9077Z" fill="#367CFF"/>
<path d="M79.1023 56.6946C79.1815 56.5959 79.2193 56.477 79.2097 56.3573C79.2001 56.2377 79.1435 56.1244 79.0493 56.0361C78.5901 55.6084 77.7378 54.9303 77.1768 55.1811C76.3769 55.5382 74.7768 56.8655 75.2211 57.5553C75.6654 58.2451 76.5841 59.0023 77.1777 58.7727C77.6266 58.5992 78.5892 57.3374 79.1023 56.6946Z" fill="#E98862"/>
<path d="M126.399 99.7593H97.0767V110.574H126.399V99.7593Z" fill="#0CBC8B"/>
<path d="M161.013 99.7593H131.69V110.574H161.013V99.7593Z" fill="#C1D8ED"/>
<path d="M206.72 152.966H154.609C151.751 146.56 160.338 143.4 163.068 147.552C161.44 145.075 161.006 141.936 164.389 139.916C167.935 138.314 172.204 140.145 172.856 143.042C171.987 139.184 176.127 135.34 180.734 134.465C192.561 132.223 195.197 142.271 194.125 143.851C197.249 139.248 210.163 144.929 206.72 152.966Z" fill="#C1D8ED"/>
<path d="M150.201 50.746C150.209 55.4585 148.089 59.9889 144.289 63.3791C141.436 57.887 135.678 54.1378 129.048 54.1378C122.412 54.1378 116.654 57.8922 113.801 63.3843C111.399 61.2355 109.647 58.612 108.697 55.7438C107.747 52.8757 107.629 49.8506 108.353 46.934C109.077 44.0174 110.621 41.2984 112.85 39.0156C115.078 36.7328 117.923 34.956 121.134 33.841C124.345 32.726 127.825 32.3069 131.269 32.6206C134.712 32.9342 138.013 33.971 140.883 35.6399C143.752 37.3089 146.103 39.5589 147.727 42.1927C149.352 44.8265 150.202 47.7635 150.201 50.746Z" fill="#C1D8ED"/>
<path d="M129.044 52.6236C133.67 52.6236 137.421 49.3931 137.421 45.4082C137.421 41.4233 133.67 38.1929 129.044 38.1929C124.418 38.1929 120.668 41.4233 120.668 45.4082C120.668 49.3931 124.418 52.6236 129.044 52.6236Z" fill="#F3F5FD"/>
<path d="M144.289 63.379C142.316 65.1465 139.949 66.5527 137.329 67.5135C134.71 68.4742 131.893 68.9696 129.046 68.9701C126.199 68.9706 123.381 68.4761 120.762 67.5163C118.142 66.5565 115.774 65.151 113.8 63.3842C116.653 57.8921 122.411 54.1377 129.048 54.1377C135.678 54.1377 141.436 57.8869 144.289 63.379Z" fill="#F3F5FD"/>
<path d="M161.013 76.1831H97.0767V78.3823H161.013V76.1831Z" fill="#DEE8F5"/>
<path d="M161.013 82.1704H97.0767V84.3696H161.013V82.1704Z" fill="#DEE8F5"/>
<path d="M126.399 88.3628H97.0767V90.562H126.399V88.3628Z" fill="#DEE8F5"/>
</g>
<defs>
<clipPath id="clip0_8_18042">
<rect width="230" height="153" fill="white"/>
</clipPath>
</defs>
</svg>
