<svg width="98" height="67" viewBox="0 0 98 67" fill="none" xmlns="http://www.w3.org/2000/svg">
<g clip-path="url(#clip0_2_49248)">
<path d="M55.1276 3.63218C37.1263 -5.04217 15.5356 9.8716 10.5383 22.1735C-1.46138 51.7132 19.5087 65.3466 28.7337 60.3597C32.585 58.2778 35.7308 54.7228 38.7712 51.2641C43.2677 46.1489 49.4533 43.1145 55.7273 42.9459C60.6119 42.8147 65.4734 44.3464 70.3445 43.8966C75.2155 43.4467 79.5178 35.5979 79.3858 29.891C79.1841 21.1807 74.4311 12.9344 55.1276 3.63218Z" fill="#F4F4F4"/>
<path d="M7.06145 42.013L6.87891 42.0364L9.13299 66.1041L9.31553 66.0808L7.06145 42.013Z" fill="#292A2E"/>
<path d="M12.8989 52.5201L11.79 65.3381L11.9727 65.3597L13.0816 52.5416L12.8989 52.5201Z" fill="#292A2E"/>
<path d="M14.8063 63.7888H6.57812V66.9089H14.8063V63.7888Z" fill="#292A2E"/>
<path opacity="0.2" d="M14.8063 63.7888H6.57812V66.9089H14.8063V63.7888Z" fill="white"/>
<path d="M19.7669 58.0442C21.3256 55.6237 20.5825 51.8973 18.1071 49.7211C15.6317 47.545 12.3615 47.7431 10.8028 50.1636C9.24405 52.5841 9.98716 56.3105 12.4625 58.4867C14.9379 60.6629 18.2082 60.4648 19.7669 58.0442Z" fill="#0CBC8B"/>
<path opacity="0.2" d="M19.7669 58.0442C21.3256 55.6237 20.5825 51.8973 18.1071 49.7211C15.6317 47.545 12.3615 47.7431 10.8028 50.1636C9.24405 52.5841 9.98716 56.3105 12.4625 58.4867C14.9379 60.6629 18.2082 60.4648 19.7669 58.0442Z" fill="white"/>
<path opacity="0.5" d="M19.7664 58.0444C19.6618 58.2077 19.5476 58.3624 19.4246 58.5072C17.7087 59.788 15.1762 59.5864 13.1669 57.8197C10.6918 55.644 9.94896 51.9177 11.5078 49.4972C11.6127 49.3343 11.7266 49.1797 11.8489 49.0344C13.5659 47.7526 16.0973 47.9551 18.1073 49.721C20.5824 51.8976 21.3253 55.6238 19.7664 58.0444Z" fill="white"/>
<path d="M8.28343 48.8601C10.7356 46.6484 11.4021 42.8553 9.77209 40.388C8.14205 37.9206 4.83274 37.7134 2.38054 39.9251C-0.0716667 42.1368 -0.738162 45.9299 0.891877 48.3972C2.52192 50.8646 5.83123 51.0718 8.28343 48.8601Z" fill="#0CBC8B"/>
<path opacity="0.2" d="M7.50651 48.2259C5.60748 49.9398 3.194 50.2009 1.44453 49.0853C1.24209 48.8769 1.05716 48.6463 0.892256 48.3968C-0.738033 45.9302 -0.0716307 42.1367 2.38041 39.9254C4.27954 38.2126 6.69302 37.9504 8.44166 39.0651C8.6446 39.2735 8.8298 39.5044 8.99467 39.7545C10.625 42.2212 9.95864 46.0147 7.50651 48.2259Z" fill="white"/>
<path d="M65.4194 2.8584H16.6886C15.0727 2.8584 13.7627 4.389 13.7627 6.2771V51.0842C13.7627 52.9723 15.0727 54.5029 16.6886 54.5029H65.4194C67.0353 54.5029 68.3453 52.9723 68.3453 51.0842V6.2771C68.3453 4.389 67.0353 2.8584 65.4194 2.8584Z" fill="white"/>
<path d="M65.4195 54.6102H16.6887C15.8886 54.6092 15.1215 54.2373 14.5558 53.5763C13.99 52.9153 13.6718 52.019 13.6709 51.0841V6.2772C13.6717 5.34232 13.9899 4.446 14.5557 3.78495C15.1215 3.1239 15.8886 2.75213 16.6887 2.75122H65.4195C66.2196 2.75216 66.9867 3.12394 67.5525 3.78499C68.1182 4.44604 68.4364 5.34234 68.4372 6.2772V51.0841C68.4365 52.019 68.1183 52.9154 67.5525 53.5764C66.9868 54.2375 66.2196 54.6093 65.4195 54.6102ZM16.6887 2.96578C15.9373 2.96669 15.2169 3.31586 14.6855 3.93667C14.1542 4.55748 13.8553 5.39922 13.8545 6.2772V51.0841C13.8553 51.9621 14.1542 52.8039 14.6855 53.4247C15.2168 54.0456 15.9373 54.3948 16.6887 54.3957H65.4195C66.1709 54.3947 66.8913 54.0455 67.4227 53.4247C67.954 52.8039 68.2528 51.9621 68.2536 51.0841V6.2772C68.2528 5.39924 67.954 4.55752 67.4226 3.93671C66.8913 3.3159 66.1709 2.96672 65.4195 2.96578H16.6887Z" fill="#292A2E"/>
<path opacity="0.7" d="M64.0677 12.1426H61.0755C60.4448 12.1426 59.9336 12.7399 59.9336 13.4768V16.973C59.9336 17.7099 60.4448 18.3072 61.0755 18.3072H64.0677C64.6984 18.3072 65.2096 17.7099 65.2096 16.973V13.4768C65.2096 12.7399 64.6984 12.1426 64.0677 12.1426Z" fill="#367CFF"/>
<path opacity="0.7" d="M64.0562 19.8071H61.087C60.45 19.8071 59.9336 20.4105 59.9336 21.1548V24.6241C59.9336 25.3684 60.45 25.9718 61.087 25.9718H64.0562C64.6932 25.9718 65.2096 25.3684 65.2096 24.6241V21.1548C65.2096 20.4105 64.6932 19.8071 64.0562 19.8071Z" fill="#367CFF"/>
<path opacity="0.7" d="M64.0562 28.4795H61.087C60.45 28.4795 59.9336 29.0829 59.9336 29.8271V33.2965C59.9336 34.0408 60.45 34.6441 61.087 34.6441H64.0562C64.6932 34.6441 65.2096 34.0408 65.2096 33.2965V29.8271C65.2096 29.0829 64.6932 28.4795 64.0562 28.4795Z" fill="#367CFF"/>
<path opacity="0.7" d="M64.0562 36.8301H61.087C60.45 36.8301 59.9336 37.4334 59.9336 38.1777V41.6471C59.9336 42.3914 60.45 42.9947 61.087 42.9947H64.0562C64.6932 42.9947 65.2096 42.3914 65.2096 41.6471V38.1777C65.2096 37.4334 64.6932 36.8301 64.0562 36.8301Z" fill="#367CFF"/>
<g opacity="0.2">
<path opacity="0.2" d="M42.5531 12.1426H39.5609C38.9302 12.1426 38.4189 12.7399 38.4189 13.4768V16.973C38.4189 17.7099 38.9302 18.3072 39.5609 18.3072H42.5531C43.1837 18.3072 43.695 17.7099 43.695 16.973V13.4768C43.695 12.7399 43.1837 12.1426 42.5531 12.1426Z" fill="#367CFF"/>
<path opacity="0.2" d="M35.3822 12.1426H32.39C31.7593 12.1426 31.248 12.7399 31.248 13.4768V16.973C31.248 17.7099 31.7593 18.3072 32.39 18.3072H35.3822C36.0128 18.3072 36.5241 17.7099 36.5241 16.973V13.4768C36.5241 12.7399 36.0128 12.1426 35.3822 12.1426Z" fill="#367CFF"/>
<path opacity="0.2" d="M49.7249 12.1426H46.7327C46.1021 12.1426 45.5908 12.7399 45.5908 13.4768V16.973C45.5908 17.7099 46.1021 18.3072 46.7327 18.3072H49.7249C50.3556 18.3072 50.8669 17.7099 50.8669 16.973V13.4768C50.8669 12.7399 50.3556 12.1426 49.7249 12.1426Z" fill="#367CFF"/>
<path opacity="0.2" d="M56.8958 12.1426H53.9036C53.273 12.1426 52.7617 12.7399 52.7617 13.4768V16.973C52.7617 17.7099 53.273 18.3072 53.9036 18.3072H56.8958C57.5265 18.3072 58.0378 17.7099 58.0378 16.973V13.4768C58.0378 12.7399 57.5265 12.1426 56.8958 12.1426Z" fill="#367CFF"/>
<path opacity="0.2" d="M42.5416 19.8071H39.5723C38.9353 19.8071 38.4189 20.4105 38.4189 21.1548V24.6241C38.4189 25.3684 38.9353 25.9718 39.5723 25.9718H42.5416C43.1786 25.9718 43.695 25.3684 43.695 24.6241V21.1548C43.695 20.4105 43.1786 19.8071 42.5416 19.8071Z" fill="#367CFF"/>
<path opacity="0.2" d="M49.7135 19.8071H46.7442C46.1072 19.8071 45.5908 20.4105 45.5908 21.1548V24.6241C45.5908 25.3684 46.1072 25.9718 46.7442 25.9718H49.7135C50.3505 25.9718 50.8669 25.3684 50.8669 24.6241V21.1548C50.8669 20.4105 50.3505 19.8071 49.7135 19.8071Z" fill="#367CFF"/>
<path opacity="0.2" d="M56.8844 19.8071H53.9151C53.2781 19.8071 52.7617 20.4105 52.7617 21.1548V24.6241C52.7617 25.3684 53.2781 25.9718 53.9151 25.9718H56.8844C57.5214 25.9718 58.0378 25.3684 58.0378 24.6241V21.1548C58.0378 20.4105 57.5214 19.8071 56.8844 19.8071Z" fill="#367CFF"/>
<path opacity="0.2" d="M21.0279 19.8071H18.0587C17.4217 19.8071 16.9053 20.4105 16.9053 21.1548V24.6241C16.9053 25.3684 17.4217 25.9718 18.0587 25.9718H21.0279C21.6649 25.9718 22.1813 25.3684 22.1813 24.6241V21.1548C22.1813 20.4105 21.6649 19.8071 21.0279 19.8071Z" fill="#367CFF"/>
<path opacity="0.2" d="M28.1998 19.8071H25.2305C24.5935 19.8071 24.0771 20.4105 24.0771 21.1548V24.6241C24.0771 25.3684 24.5935 25.9718 25.2305 25.9718H28.1998C28.8368 25.9718 29.3532 25.3684 29.3532 24.6241V21.1548C29.3532 20.4105 28.8368 19.8071 28.1998 19.8071Z" fill="#367CFF"/>
<path opacity="0.2" d="M35.3707 19.8071H32.4014C31.7644 19.8071 31.248 20.4105 31.248 21.1548V24.6241C31.248 25.3684 31.7644 25.9718 32.4014 25.9718H35.3707C36.0077 25.9718 36.5241 25.3684 36.5241 24.6241V21.1548C36.5241 20.4105 36.0077 19.8071 35.3707 19.8071Z" fill="#367CFF"/>
<path opacity="0.2" d="M42.5416 28.4795H39.5723C38.9353 28.4795 38.4189 29.0829 38.4189 29.8271V33.2965C38.4189 34.0408 38.9353 34.6441 39.5723 34.6441H42.5416C43.1786 34.6441 43.695 34.0408 43.695 33.2965V29.8271C43.695 29.0829 43.1786 28.4795 42.5416 28.4795Z" fill="#367CFF"/>
<path opacity="0.2" d="M49.7135 28.4795H46.7442C46.1072 28.4795 45.5908 29.0829 45.5908 29.8271V33.2965C45.5908 34.0408 46.1072 34.6441 46.7442 34.6441H49.7135C50.3505 34.6441 50.8669 34.0408 50.8669 33.2965V29.8271C50.8669 29.0829 50.3505 28.4795 49.7135 28.4795Z" fill="#367CFF"/>
<path opacity="0.2" d="M56.8844 28.4795H53.9151C53.2781 28.4795 52.7617 29.0829 52.7617 29.8271V33.2965C52.7617 34.0408 53.2781 34.6441 53.9151 34.6441H56.8844C57.5214 34.6441 58.0378 34.0408 58.0378 33.2965V29.8271C58.0378 29.0829 57.5214 28.4795 56.8844 28.4795Z" fill="#367CFF"/>
<path opacity="0.2" d="M21.0279 28.4795H18.0587C17.4217 28.4795 16.9053 29.0829 16.9053 29.8271V33.2965C16.9053 34.0408 17.4217 34.6441 18.0587 34.6441H21.0279C21.6649 34.6441 22.1813 34.0408 22.1813 33.2965V29.8271C22.1813 29.0829 21.6649 28.4795 21.0279 28.4795Z" fill="#367CFF"/>
<path opacity="0.2" d="M28.1998 28.4795H25.2305C24.5935 28.4795 24.0771 29.0829 24.0771 29.8271V33.2965C24.0771 34.0408 24.5935 34.6441 25.2305 34.6441H28.1998C28.8368 34.6441 29.3532 34.0408 29.3532 33.2965V29.8271C29.3532 29.0829 28.8368 28.4795 28.1998 28.4795Z" fill="#367CFF"/>
<path opacity="0.2" d="M35.3707 28.4795H32.4014C31.7644 28.4795 31.248 29.0829 31.248 29.8271V33.2965C31.248 34.0408 31.7644 34.6441 32.4014 34.6441H35.3707C36.0077 34.6441 36.5241 34.0408 36.5241 33.2965V29.8271C36.5241 29.0829 36.0077 28.4795 35.3707 28.4795Z" fill="#367CFF"/>
<path opacity="0.2" d="M42.5416 36.8301H39.5723C38.9353 36.8301 38.4189 37.4334 38.4189 38.1777V41.6471C38.4189 42.3914 38.9353 42.9947 39.5723 42.9947H42.5416C43.1786 42.9947 43.695 42.3914 43.695 41.6471V38.1777C43.695 37.4334 43.1786 36.8301 42.5416 36.8301Z" fill="#367CFF"/>
<path opacity="0.2" d="M49.7135 36.8301H46.7442C46.1072 36.8301 45.5908 37.4334 45.5908 38.1777V41.6471C45.5908 42.3914 46.1072 42.9947 46.7442 42.9947H49.7135C50.3505 42.9947 50.8669 42.3914 50.8669 41.6471V38.1777C50.8669 37.4334 50.3505 36.8301 49.7135 36.8301Z" fill="#367CFF"/>
<path opacity="0.2" d="M56.8844 36.8301H53.9151C53.2781 36.8301 52.7617 37.4334 52.7617 38.1777V41.6471C52.7617 42.3914 53.2781 42.9947 53.9151 42.9947H56.8844C57.5214 42.9947 58.0378 42.3914 58.0378 41.6471V38.1777C58.0378 37.4334 57.5214 36.8301 56.8844 36.8301Z" fill="#367CFF"/>
<path opacity="0.2" d="M21.0279 36.8301H18.0587C17.4217 36.8301 16.9053 37.4334 16.9053 38.1777V41.6471C16.9053 42.3914 17.4217 42.9947 18.0587 42.9947H21.0279C21.6649 42.9947 22.1813 42.3914 22.1813 41.6471V38.1777C22.1813 37.4334 21.6649 36.8301 21.0279 36.8301Z" fill="#367CFF"/>
<path opacity="0.2" d="M28.1998 36.8301H25.2305C24.5935 36.8301 24.0771 37.4334 24.0771 38.1777V41.6471C24.0771 42.3914 24.5935 42.9947 25.2305 42.9947H28.1998C28.8368 42.9947 29.3532 42.3914 29.3532 41.6471V38.1777C29.3532 37.4334 28.8368 36.8301 28.1998 36.8301Z" fill="#367CFF"/>
<path opacity="0.2" d="M35.3707 36.8301H32.4014C31.7644 36.8301 31.248 37.4334 31.248 38.1777V41.6471C31.248 42.3914 31.7644 42.9947 32.4014 42.9947H35.3707C36.0077 42.9947 36.5241 42.3914 36.5241 41.6471V38.1777C36.5241 37.4334 36.0077 36.8301 35.3707 36.8301Z" fill="#367CFF"/>
<path opacity="0.2" d="M42.5416 44.5156H39.5723C38.9353 44.5156 38.4189 45.119 38.4189 45.8633V49.3326C38.4189 50.0769 38.9353 50.6802 39.5723 50.6802H42.5416C43.1786 50.6802 43.695 50.0769 43.695 49.3326V45.8633C43.695 45.119 43.1786 44.5156 42.5416 44.5156Z" fill="#367CFF"/>
<path opacity="0.2" d="M21.0279 44.5156H18.0587C17.4217 44.5156 16.9053 45.119 16.9053 45.8633V49.3326C16.9053 50.0769 17.4217 50.6802 18.0587 50.6802H21.0279C21.6649 50.6802 22.1813 50.0769 22.1813 49.3326V45.8633C22.1813 45.119 21.6649 44.5156 21.0279 44.5156Z" fill="#367CFF"/>
<path opacity="0.2" d="M28.1998 44.5156H25.2305C24.5935 44.5156 24.0771 45.119 24.0771 45.8633V49.3326C24.0771 50.0769 24.5935 50.6802 25.2305 50.6802H28.1998C28.8368 50.6802 29.3532 50.0769 29.3532 49.3326V45.8633C29.3532 45.119 28.8368 44.5156 28.1998 44.5156Z" fill="#367CFF"/>
<path opacity="0.2" d="M35.3707 44.5156H32.4014C31.7644 44.5156 31.248 45.119 31.248 45.8633V49.3326C31.248 50.0769 31.7644 50.6802 32.4014 50.6802H35.3707C36.0077 50.6802 36.5241 50.0769 36.5241 49.3326V45.8633C36.5241 45.119 36.0077 44.5156 35.3707 44.5156Z" fill="#367CFF"/>
</g>
<path d="M68.3457 6.27736V8.46898H13.7637V6.27736C13.7636 5.82835 13.8392 5.38373 13.9861 4.96886C14.1331 4.554 14.3486 4.17704 14.6203 3.8595C14.892 3.54196 15.2146 3.29007 15.5696 3.11822C15.9246 2.94636 16.3051 2.85791 16.6894 2.85791H65.4201C66.1962 2.85808 66.9404 3.21843 67.489 3.8597C68.0377 4.50096 68.3458 5.37061 68.3457 6.27736Z" fill="#292A2E"/>
<path d="M23.6748 2.75109C23.6748 2.207 23.8129 1.67513 24.0715 1.22272C24.3302 0.770315 24.6979 0.417697 25.1281 0.209459C25.5583 0.00122052 26.0317 -0.053286 26.4885 0.0528319C26.9452 0.15895 27.3647 0.420926 27.694 0.805632C28.0233 1.19034 28.2476 1.6805 28.3384 2.21412C28.4293 2.74775 28.3827 3.30088 28.2045 3.80357C28.0264 4.30626 27.7246 4.73592 27.3375 5.03823C26.9503 5.34055 26.4951 5.50193 26.0294 5.50197Cnan nan nan nan 26.0294 5.50197V5.03723C26.4164 5.03723 26.7947 4.90314 27.1165 4.65192C27.4383 4.4007 27.6891 4.04363 27.8372 3.62587C27.9853 3.20811 28.024 2.74841 27.9485 2.30492C27.873 1.86143 27.6867 1.45406 27.413 1.13433C27.1393 0.814594 26.7907 0.596859 26.4111 0.508655C26.0315 0.420452 25.6381 0.465743 25.2806 0.6388C24.923 0.811857 24.6174 1.10491 24.4025 1.48089C24.1875 1.85688 24.0727 2.29891 24.0727 2.75109" fill="#E5E5E5"/>
<path d="M35.6943 2.75109C35.6943 2.207 35.8324 1.67511 36.0911 1.2227C36.3498 0.770288 36.7175 0.41767 37.1477 0.209438C37.5779 0.0012063 38.0513 -0.0532877 38.508 0.0528476C38.9648 0.158983 39.3843 0.42098 39.7136 0.805708C40.0429 1.19044 40.2671 1.68061 40.358 2.21426C40.4488 2.7479 40.4022 3.30103 40.224 3.80372C40.0458 4.3064 39.744 4.73605 39.3568 5.03834C38.9697 5.34063 38.5144 5.50197 38.0488 5.50197Cnan nan nan nan 38.0488 5.50197V5.03723C38.4358 5.03734 38.8142 4.90334 39.136 4.65218C39.4578 4.40103 39.7087 4.044 39.8569 3.62624C40.005 3.20849 40.0438 2.74878 39.9684 2.30525C39.8929 1.86172 39.7066 1.4543 39.433 1.13452C39.1593 0.81473 38.8107 0.596941 38.4311 0.508695C38.0515 0.420448 37.658 0.465707 37.3005 0.638749C36.9429 0.81179 36.6373 1.10484 36.4223 1.48084C36.2073 1.85683 36.0925 2.29889 36.0925 2.75109" fill="#E5E5E5"/>
<path d="M47.7139 2.75109C47.7138 2.207 47.8519 1.67511 48.1106 1.2227C48.3693 0.770288 48.737 0.41767 49.1672 0.209438C49.5975 0.0012063 50.0709 -0.0532877 50.5276 0.0528476C50.9843 0.158983 51.4038 0.42098 51.7331 0.805708C52.0624 1.19044 52.2867 1.68061 52.3775 2.21426C52.4684 2.7479 52.4218 3.30103 52.2436 3.80372C52.0654 4.3064 51.7636 4.73605 51.3764 5.03834C50.9892 5.34063 50.534 5.50197 50.0683 5.50197Cnan nan nan nan 50.0683 5.50197V5.03723C50.4553 5.03715 50.8336 4.90299 51.1553 4.65172C51.477 4.40044 51.7278 4.04334 51.8758 3.62557C52.0239 3.2078 52.0626 2.74812 51.987 2.30466C51.9115 1.8612 51.7251 1.45387 51.4514 1.13418C51.1777 0.814485 50.8291 0.596792 50.4495 0.508624C50.0699 0.420456 49.6765 0.465771 49.319 0.638841C48.9615 0.811911 48.6559 1.10496 48.4409 1.48094C48.226 1.85691 48.1112 2.29893 48.1112 2.75109" fill="#E5E5E5"/>
<path d="M53.7236 2.75109C53.7236 2.207 53.8617 1.67511 54.1204 1.2227C54.3791 0.770288 54.7468 0.41767 55.177 0.209438C55.6072 0.0012063 56.0806 -0.0532877 56.5374 0.0528476C56.9941 0.158983 57.4136 0.42098 57.7429 0.805708C58.0722 1.19044 58.2964 1.68061 58.3873 2.21426C58.4781 2.7479 58.4315 3.30103 58.2533 3.80372C58.0751 4.3064 57.7733 4.73605 57.3861 5.03834C56.999 5.34063 56.5437 5.50197 56.0781 5.50197Cnan nan nan nan 56.0781 5.50197V5.03723C56.4651 5.03723 56.8434 4.90314 57.1652 4.65192C57.487 4.4007 57.7377 4.04363 57.8858 3.62587C58.0339 3.20811 58.0727 2.74841 57.9972 2.30492C57.9217 1.86143 57.7353 1.45406 57.4616 1.13433C57.188 0.814594 56.8393 0.596859 56.4598 0.508655C56.0802 0.420452 55.6868 0.465743 55.3292 0.6388C54.9717 0.811857 54.6661 1.10491 54.4511 1.48089C54.2361 1.85688 54.1214 2.29891 54.1214 2.75109" fill="#E5E5E5"/>
<path d="M17.665 2.75109C17.665 2.207 17.8031 1.67511 18.0618 1.2227C18.3205 0.770288 18.6882 0.41767 19.1184 0.209438C19.5486 0.0012063 20.022 -0.0532877 20.4788 0.0528476C20.9355 0.158983 21.355 0.42098 21.6843 0.805708C22.0136 1.19044 22.2378 1.68061 22.3287 2.21426C22.4195 2.7479 22.3729 3.30103 22.1947 3.80372C22.0165 4.3064 21.7147 4.73605 21.3276 5.03834C20.9404 5.34063 20.4852 5.50197 20.0195 5.50197Cnan nan nan nan 20.0195 5.50197V5.03723C20.4065 5.03723 20.7848 4.90314 21.1066 4.65192C21.4284 4.4007 21.6791 4.04363 21.8272 3.62587C21.9753 3.20811 22.0141 2.74841 21.9386 2.30492C21.8631 1.86143 21.6767 1.45406 21.403 1.13433C21.1294 0.814594 20.7807 0.596859 20.4012 0.508655C20.0216 0.420452 19.6282 0.465743 19.2706 0.6388C18.9131 0.811857 18.6075 1.10491 18.3925 1.48089C18.1775 1.85688 18.0628 2.29891 18.0628 2.75109" fill="#E5E5E5"/>
<path d="M29.6846 2.75109C29.6846 2.207 29.8226 1.67511 30.0813 1.2227C30.34 0.770288 30.7077 0.41767 31.1379 0.209438C31.5682 0.0012063 32.0416 -0.0532877 32.4983 0.0528476C32.955 0.158983 33.3745 0.42098 33.7038 0.805708C34.0331 1.19044 34.2574 1.68061 34.3482 2.21426C34.4391 2.7479 34.3924 3.30103 34.2142 3.80372C34.036 4.3064 33.7343 4.73605 33.3471 5.03834C32.9599 5.34063 32.5047 5.50197 32.039 5.50197Cnan nan nan nan 32.039 5.50197V5.03723C32.426 5.03723 32.8043 4.90314 33.1261 4.65192C33.4479 4.4007 33.6987 4.04363 33.8468 3.62587C33.9949 3.20811 34.0336 2.74841 33.9581 2.30492C33.8826 1.86143 33.6962 1.45406 33.4226 1.13433C33.1489 0.814594 32.8003 0.596859 32.4207 0.508655C32.0411 0.420452 31.6477 0.465743 31.2902 0.6388C30.9326 0.811857 30.627 1.10491 30.412 1.48089C30.197 1.85688 30.0823 2.29891 30.0823 2.75109" fill="#E5E5E5"/>
<path d="M41.7041 2.75109C41.7041 2.20699 41.8422 1.6751 42.1009 1.22269C42.3596 0.770274 42.7273 0.417657 43.1575 0.209428C43.5877 0.00119918 44.0611 -0.0532885 44.5179 0.0528554C44.9746 0.158999 45.3941 0.421007 45.7234 0.805746C46.0527 1.19048 46.2769 1.68067 46.3678 2.21432C46.4586 2.74797 46.412 3.30111 46.2338 3.80379C46.0555 4.30647 45.7538 4.73612 45.3666 5.03839C44.9794 5.34066 44.5241 5.50199 44.0585 5.50197Cnan nan nan nan 44.0585 5.50197V5.03723C44.4455 5.03723 44.8238 4.90314 45.1455 4.65192C45.4673 4.4007 45.7181 4.04363 45.8662 3.62587C46.0143 3.20811 46.0531 2.74841 45.9775 2.30492C45.902 1.86143 45.7157 1.45406 45.442 1.13433C45.1684 0.814594 44.8197 0.596859 44.4401 0.508655C44.0606 0.420452 43.6671 0.465743 43.3096 0.6388C42.9521 0.811857 42.6465 1.10491 42.4315 1.48089C42.2165 1.85688 42.1017 2.29891 42.1018 2.75109" fill="#E5E5E5"/>
<path d="M59.7334 2.75109C59.7334 2.20699 59.8715 1.6751 60.1302 1.22269C60.3889 0.770274 60.7566 0.417657 61.1868 0.209428C61.617 0.00119918 62.0904 -0.0532885 62.5472 0.0528554C63.0039 0.158999 63.4234 0.421007 63.7527 0.805746C64.082 1.19048 64.3062 1.68067 64.3971 2.21432C64.4879 2.74797 64.4413 3.30111 64.2631 3.80379C64.0848 4.30647 63.7831 4.73612 63.3959 5.03839C63.0087 5.34066 62.5534 5.50199 62.0878 5.50197Cnan nan nan nan 62.0878 5.50197V5.03723C62.4748 5.03725 62.8531 4.90318 63.1749 4.65198C63.4967 4.40077 63.7475 4.04371 63.8956 3.62594C64.0437 3.20818 64.0825 2.74849 64.007 2.30499C63.9315 1.86149 63.7451 1.45411 63.4714 1.13437C63.1978 0.814621 62.8491 0.596875 62.4696 0.508663C62.09 0.420451 61.6966 0.465736 61.339 0.63879C60.9815 0.811844 60.6759 1.10489 60.4609 1.48088C60.2459 1.85687 60.1311 2.29891 60.1312 2.75109" fill="#E5E5E5"/>
<path d="M25.6842 41.6073C25.6759 41.6073 25.6675 41.6073 25.6591 41.606C25.6206 41.6019 25.5832 41.5885 25.5494 41.5666C25.5156 41.5447 25.486 41.5149 25.4626 41.4789L24.6222 40.1873C24.6001 40.1533 24.5839 40.1145 24.5746 40.0732C24.5653 40.0319 24.563 39.9888 24.568 39.9465C24.5729 39.9042 24.5849 39.8634 24.6034 39.8265C24.6218 39.7896 24.6463 39.7573 24.6754 39.7314C24.7045 39.7056 24.7376 39.6867 24.773 39.6758C24.8084 39.6649 24.8452 39.6623 24.8814 39.6681C24.9177 39.6739 24.9526 39.6879 24.9841 39.7094C25.0157 39.731 25.0434 39.7595 25.0655 39.7936L25.7215 40.802L28.2394 38.1168C28.2939 38.0586 28.366 38.0281 28.4398 38.0321C28.5135 38.036 28.5829 38.074 28.6327 38.1377C28.6825 38.2015 28.7085 38.2857 28.7052 38.3718C28.7018 38.458 28.6693 38.5391 28.6147 38.5973L25.8719 41.5224C25.8206 41.577 25.7537 41.6074 25.6842 41.6073Z" fill="#367CFF"/>
<path d="M35.3044 45.1975H32.4684C32.1169 45.1975 31.832 45.5304 31.832 45.9411V49.2547C31.832 49.6654 32.1169 49.9983 32.4684 49.9983H35.3044C35.6559 49.9983 35.9408 49.6654 35.9408 49.2547V45.9411C35.9408 45.5304 35.6559 45.1975 35.3044 45.1975Z" fill="#367CFF"/>
<path d="M53.7724 17.4643C53.7178 17.4643 53.6645 17.4455 53.619 17.4103C53.5735 17.3751 53.5378 17.3251 53.5164 17.2664C53.495 17.2078 53.4889 17.1431 53.4987 17.0804C53.5085 17.0176 53.5339 16.9597 53.5717 16.9137L56.807 12.9794C56.8322 12.9478 56.8625 12.9224 56.8961 12.9046C56.9298 12.8868 56.9661 12.8771 57.003 12.8759C57.0399 12.8747 57.0767 12.882 57.1111 12.8976C57.1455 12.9131 57.177 12.9365 57.2036 12.9664C57.2303 12.9963 57.2515 13.0321 57.2662 13.0717C57.2809 13.1112 57.2887 13.1538 57.2892 13.197C57.2896 13.2401 57.2827 13.2829 57.2689 13.3229C57.255 13.3629 57.2345 13.3993 57.2085 13.43L53.9732 17.3643C53.9473 17.396 53.9161 17.4212 53.8816 17.4384C53.8471 17.4556 53.8099 17.4644 53.7724 17.4643Z" fill="#0A0A0A"/>
<path d="M57.0735 17.3874C57.0016 17.3875 56.9325 17.355 56.8807 17.2967L53.5135 13.5162C53.4865 13.4868 53.4647 13.4515 53.4495 13.4121C53.4343 13.3728 53.4259 13.3304 53.4249 13.2873C53.4239 13.2441 53.4302 13.2012 53.4435 13.1609C53.4568 13.1207 53.4768 13.084 53.5024 13.0528C53.528 13.0217 53.5586 12.9969 53.5925 12.9797C53.6264 12.9625 53.6628 12.9534 53.6997 12.9529C53.7367 12.9524 53.7733 12.9604 53.8075 12.9766C53.8418 12.9928 53.8729 13.0167 53.8991 13.0471L57.2663 16.8275C57.3063 16.8725 57.3339 16.9304 57.3456 16.9939C57.3572 17.0573 57.3524 17.1233 57.3316 17.1835C57.3109 17.2437 57.2753 17.2953 57.2293 17.3316C57.1833 17.3679 57.129 17.3874 57.0735 17.3874Z" fill="#0A0A0A"/>
<path d="M87.2207 22.8457C87.2207 22.8457 87.4702 26.2973 88.1546 27.5371C90.1248 31.1066 90.7413 35.1555 88.8553 37.3163C86.9693 39.4772 74.7348 39.7603 73.7339 34.9004C72.8913 30.8089 74.5592 30.3326 74.9152 26.9357C75.0764 25.3986 75.5347 22.1731 75.5347 22.1731" fill="#0A0A0A"/>
<path d="M76.7812 34.0678C76.8024 34.0645 77.0368 38.6089 81.5551 38.2127C84.6831 37.939 85.7984 34.061 85.8705 34.061C85.5333 33.9773 84.9654 33.8556 84.8156 33.7621C84.323 33.4528 83.7138 33.1311 83.5548 32.0135C83.463 31.3698 83.6185 28.0739 83.5708 27.4219L78.7686 28.6747C78.8356 30.0512 79.3053 33.2421 77.6595 33.8069C77.3859 33.9005 77.0909 33.9863 76.7812 34.0678Z" fill="#E98862"/>
<path opacity="0.5" d="M78.7021 32.5028C78.7773 32.2196 78.8257 31.9277 78.8466 31.6321C78.8993 30.9578 78.8888 30.2787 78.8152 29.607C79.791 29.4531 80.7103 28.9824 81.4687 28.2485C81.5578 28.6332 82.0482 30.3143 81.9124 30.6799C81.656 31.3711 80.4501 32.5028 78.7021 32.5028Z" fill="#0C0C0C"/>
<path d="M79.3855 31.0864C81.2814 31.2612 83.717 30.3259 84.1796 27.3704L84.597 24.7035C85.0597 21.7479 84.1061 19.0681 81.7245 18.5591C79.3427 18.0502 77.1876 20.0658 76.7249 23.0213L76.5401 24.2014C76.3626 25.336 76.0028 30.7746 79.3855 31.0864Z" fill="#E98862"/>
<path opacity="0.5" d="M78.6117 26.9986L78.607 26.9978C78.5105 26.9764 78.4152 26.9487 78.3213 26.9149C78.1811 26.8633 77.9974 26.7777 78.0205 26.6299C78.0468 26.4616 78.7261 24.7289 78.8035 24.5318C78.8105 24.515 78.8228 24.5021 78.8379 24.4959C78.8529 24.4896 78.8694 24.4904 78.8839 24.4982C78.8985 24.506 78.9098 24.5201 78.9155 24.5375C78.9212 24.555 78.9209 24.5743 78.9146 24.5914C78.6248 25.3292 78.1585 26.5422 78.1408 26.6556C78.1568 26.708 78.3896 26.8058 78.629 26.8573C78.6444 26.8608 78.6581 26.8711 78.6673 26.886C78.6764 26.901 78.6802 26.9194 78.678 26.9376C78.6758 26.9558 78.6676 26.9723 78.6553 26.9836C78.6429 26.995 78.6273 27.0003 78.6117 26.9986Z" fill="#0C0C0C"/>
<path opacity="0.5" d="M78.9708 28.2706C78.5825 28.2145 78.2109 28.0526 77.8859 27.798C77.8738 27.787 77.8657 27.7712 77.8632 27.7536C77.8606 27.736 77.8638 27.718 77.872 27.703C77.8803 27.688 77.893 27.6771 77.9077 27.6726C77.9225 27.668 77.9382 27.67 77.9517 27.6782C78.6548 28.2064 79.3512 28.2876 79.9653 27.9132C79.9777 27.9052 79.9905 27.8981 80.0036 27.8917C80.0186 27.886 80.035 27.8873 80.0492 27.8954C80.0634 27.9035 80.0744 27.9176 80.0799 27.935C80.0854 27.9523 80.0849 27.9715 80.0785 27.9884C80.0722 28.0053 80.0605 28.0187 80.0458 28.0257C80.041 28.0281 80.033 28.0331 80.0219 28.04C79.699 28.2373 79.333 28.3176 78.9708 28.2706Z" fill="#0C0C0C"/>
<path d="M86.5055 25.6185L84.3706 25.1769C82.7515 24.425 82.2459 21.1617 82.2459 21.1617C82.2459 21.1617 80.2959 23.4099 75.5352 22.1734C75.5352 22.1734 76.4476 14.4199 83.4828 16.622C85.7514 17.3321 87.3908 19.9868 87.2071 23.5523C87.0786 26.0503 86.5055 25.6185 86.5055 25.6185Z" fill="#0A0A0A"/>
<path d="M83.8909 28.239C84.6147 28.3937 85.343 27.6144 85.4754 26.7687C85.6077 25.923 85.094 25.3311 84.3703 25.1765L83.9086 25.6636L83.2686 28.1061L83.8909 28.239Z" fill="#E98862"/>
<path d="M78.2711 23.1726C78.0884 23.0272 77.8759 22.941 77.6554 22.9227C77.5446 22.9127 77.4332 22.9222 77.3249 22.951C77.2156 22.9793 77.1098 23.0236 77.01 23.0828L77.0068 23.0846C76.9957 23.091 76.9828 23.092 76.9711 23.0873C76.9594 23.0826 76.9497 23.0727 76.9442 23.0597C76.9388 23.0467 76.938 23.0317 76.942 23.018C76.946 23.0043 76.9545 22.993 76.9656 22.9866C77.0713 22.9185 77.1839 22.8663 77.3008 22.8312C77.4185 22.7952 77.5401 22.78 77.6617 22.7863C77.9079 22.7971 78.1471 22.8849 78.3543 23.0407C78.3699 23.0526 78.3808 23.0712 78.3846 23.0925C78.3884 23.1138 78.3848 23.136 78.3746 23.1542C78.3644 23.1724 78.3485 23.1851 78.3302 23.1895C78.312 23.194 78.293 23.1898 78.2775 23.1779L78.2758 23.1765L78.2711 23.1726Z" fill="#0C0C0C"/>
<path d="M80.2194 23.4462C80.4603 23.385 80.7108 23.4004 80.9448 23.4909C81.0605 23.5348 81.1699 23.5987 81.2694 23.6805C81.3684 23.7612 81.4582 23.8561 81.5369 23.9631C81.5452 23.9736 81.5496 23.9876 81.5492 24.0019C81.5488 24.0163 81.5436 24.0298 81.5346 24.0397C81.5257 24.0496 81.5138 24.055 81.5016 24.0547C81.4893 24.0544 81.4776 24.0485 81.469 24.0382L81.4665 24.0352C81.3907 23.9389 81.3049 23.8542 81.211 23.783C81.1181 23.7117 81.0166 23.6572 80.9098 23.6214C80.6976 23.5484 80.4727 23.5423 80.2579 23.6039L80.2526 23.6055C80.2436 23.6085 80.2342 23.6094 80.2249 23.6081C80.2156 23.6068 80.2066 23.6033 80.1985 23.5979C80.1904 23.5925 80.1833 23.5853 80.1776 23.5766C80.1719 23.5679 80.1677 23.558 80.1654 23.5474C80.163 23.5369 80.1625 23.5258 80.1638 23.515C80.1651 23.5042 80.1683 23.4938 80.1731 23.4845C80.178 23.4751 80.1843 23.467 80.1919 23.4605C80.1994 23.4541 80.208 23.4495 80.2171 23.447L80.2194 23.4462Z" fill="#0C0C0C"/>
<path opacity="0.52" d="M78.8912 28.9416C78.8208 28.9328 78.7513 28.9169 78.6832 28.8943C78.6676 28.8892 78.6544 28.877 78.6465 28.8605C78.6386 28.844 78.6366 28.8245 78.6409 28.8063C78.6453 28.788 78.6557 28.7726 78.6699 28.7633C78.684 28.7541 78.7007 28.7517 78.7163 28.7568C79.1259 28.8914 79.3574 28.7076 79.3672 28.6997C79.3804 28.6895 79.3965 28.6858 79.412 28.6892C79.4276 28.6927 79.4414 28.703 79.4505 28.7181C79.4597 28.7331 79.4635 28.7517 79.4611 28.77C79.4588 28.7883 79.4505 28.8048 79.438 28.8161C79.2736 28.9305 79.0804 28.9748 78.8912 28.9416Z" fill="#0C0C0C"/>
<path d="M84.3685 25.1356C82.9289 24.5433 82.4368 23.399 82.2776 22.5433C82.1744 21.9725 82.1744 21.3828 82.2776 20.812L82.322 20.8253C82.2206 21.3887 82.2209 21.9706 82.323 22.5339C82.4801 23.3755 82.9652 24.5014 84.384 25.0851L84.3685 25.1356Z" fill="#0C0C0C"/>
<path opacity="0.1" d="M81.1372 26.7848C81.1604 26.5173 80.9262 26.2705 80.6141 26.2335C80.3019 26.1965 80.0301 26.3834 80.0069 26.6509C79.9837 26.9184 80.2179 27.1652 80.53 27.2022C80.8421 27.2392 81.114 27.0523 81.1372 26.7848Z" fill="#0C0C0C"/>
<path opacity="0.1" d="M77.2224 26.2032C77.1986 26.4703 76.9268 26.657 76.6146 26.6205C76.5607 26.6141 76.5074 26.6012 76.4558 26.5819C76.4365 26.2644 76.431 25.9586 76.4347 25.6754C76.5208 25.6483 76.6105 25.6403 76.6991 25.6518C77.0113 25.6883 77.2454 25.935 77.2224 26.2032Z" fill="#0C0C0C"/>
<path d="M90.975 61.0686L91.7927 66.8927H71.4004L72.1626 61.0334L90.975 61.0686Z" fill="#262626"/>
<path d="M81.6587 37.0834C84.7889 36.911 84.9207 33.8066 84.9207 33.8066C84.9207 33.8066 86.4716 33.9238 87.5026 34.0867C89.1906 34.3536 90.3071 34.9376 91.1936 35.9729C92.018 36.9362 92.517 38.0631 91.9859 44.7163C91.6014 49.5338 90.9749 61.0686 90.9749 61.0686L72.1625 61.0334C72.1625 61.0334 71.3254 46.2413 71.1675 44.0724C70.8662 39.9325 70.3903 34.0976 71.4003 33.8063C72.577 33.467 76.4179 34.0248 77.6601 33.8063C77.6806 33.8032 77.3959 37.3181 81.6587 37.0834Z" fill="#367CFF"/>
<path d="M47.3999 20.8564C47.3725 20.7842 47.3328 20.7193 47.2832 20.6656C47.2336 20.6119 47.1752 20.5706 47.1115 20.5442C47.0478 20.5177 46.9802 20.5067 46.9127 20.5118C46.8453 20.5169 46.7794 20.538 46.7192 20.5739C46.6046 20.6479 46.5185 20.77 46.478 20.9155C46.4376 21.061 46.4459 21.219 46.5014 21.3575L46.7736 22.0754L45.0247 20.2708C44.8332 20.0662 44.4863 19.9582 44.304 20.2242C44.2282 20.3212 44.1828 20.4454 44.1752 20.5765C44.1676 20.7075 44.1983 20.8377 44.2622 20.9458C44.2599 20.9475 44.2578 20.9495 44.2559 20.9518C44.2549 20.9537 44.2539 20.9556 44.253 20.9576L43.9578 20.6421C43.9034 20.5841 43.8387 20.5409 43.7683 20.5156C43.6979 20.4903 43.6236 20.4836 43.5507 20.4959C43.4778 20.5082 43.4082 20.5393 43.3468 20.5868C43.2854 20.6343 43.2338 20.6972 43.1957 20.7708C43.1371 20.8898 43.1155 21.0288 43.1345 21.1643C43.1535 21.2999 43.212 21.4235 43.3001 21.5144L43.4258 21.6487C43.4241 21.6549 43.4234 21.6614 43.4236 21.6679C43.3218 21.6008 43.203 21.5777 43.0881 21.6028C42.9731 21.6279 42.8694 21.6995 42.7952 21.805C42.7157 21.9265 42.6787 22.0788 42.6916 22.231C42.7046 22.3832 42.7665 22.524 42.8648 22.6249L43.1737 22.9549C43.1664 22.9538 43.159 22.9548 43.1522 22.9577C43.1453 22.9606 43.1391 22.9654 43.1341 22.9717C43.1286 22.9795 43.1251 22.989 43.124 22.999C43.0209 22.9693 42.9124 22.9789 42.8142 23.0264C42.7161 23.0739 42.6336 23.1568 42.5786 23.2629C42.52 23.382 42.4984 23.521 42.5175 23.6565C42.5365 23.792 42.5951 23.9156 42.6832 24.0065L45.3158 26.82C45.6841 27.2137 46.1447 27.4698 46.6384 27.5556C47.1321 27.6413 47.6365 27.5529 48.087 27.3015L49.5372 26.4922L47.3999 20.8564Z" fill="#E98862"/>
<g opacity="0.2">
<path opacity="0.2" d="M45.9852 22.7423C45.9771 22.7526 45.9658 22.7588 45.9537 22.7595C45.9417 22.7602 45.9299 22.7554 45.9209 22.7461L44.2596 21.0274C44.2505 21.018 44.245 21.0047 44.2442 20.9905C44.2435 20.9763 44.2476 20.9623 44.2557 20.9517C44.2637 20.941 44.2751 20.9346 44.2873 20.9337C44.2994 20.9328 44.3114 20.9376 44.3205 20.9471L45.9818 22.6657C45.9863 22.6704 45.99 22.676 45.9927 22.6824C45.9953 22.6887 45.9969 22.6956 45.9972 22.7026C45.9976 22.7096 45.9968 22.7167 45.9948 22.7234C45.9928 22.73 45.9898 22.7362 45.9858 22.7414L45.9852 22.7423Z" fill="#0C0C0C"/>
</g>
<g opacity="0.2">
<path opacity="0.2" d="M45.3576 23.6195C45.3495 23.6298 45.3382 23.636 45.3261 23.6367C45.3141 23.6374 45.3024 23.6325 45.2934 23.6231L43.4393 21.7052C43.4348 21.7005 43.4311 21.6949 43.4285 21.6885C43.4258 21.6822 43.4243 21.6753 43.4239 21.6683C43.4235 21.6612 43.4244 21.6542 43.4263 21.6475C43.4283 21.6409 43.4314 21.6347 43.4354 21.6294C43.4437 21.6192 43.455 21.613 43.467 21.6122C43.479 21.6113 43.4909 21.6158 43.5002 21.6248L45.3542 23.5428C45.3588 23.5475 45.3624 23.5531 45.3651 23.5595C45.3677 23.5658 45.3693 23.5727 45.3697 23.5797C45.37 23.5867 45.3692 23.5938 45.3672 23.6004C45.3653 23.6071 45.3622 23.6133 45.3582 23.6185L45.3576 23.6195Z" fill="#0C0C0C"/>
</g>
<g opacity="0.2">
<path opacity="0.2" d="M44.6808 24.574C44.6726 24.5843 44.6613 24.5905 44.6493 24.5911C44.6373 24.5918 44.6255 24.587 44.6165 24.5776L43.1376 23.0477C43.1284 23.0383 43.1229 23.025 43.1222 23.0108C43.1214 22.9966 43.1255 22.9826 43.1336 22.9719C43.1417 22.9613 43.153 22.9548 43.1652 22.954C43.1774 22.9531 43.1893 22.9579 43.1984 22.9673L44.6778 24.4973C44.6823 24.5019 44.686 24.5076 44.6886 24.5139C44.6912 24.5203 44.6928 24.5272 44.6931 24.5342C44.6935 24.5412 44.6926 24.5483 44.6907 24.5549C44.6887 24.5616 44.6856 24.5677 44.6816 24.573L44.6808 24.574Z" fill="#0C0C0C"/>
</g>
<path d="M49.0765 22.8457L59.0465 32.3878L73.7656 33.8426C74.6506 33.9292 75.4728 34.4121 76.0603 35.1904C76.6478 35.9687 76.9551 36.9821 76.9182 38.0189C76.8812 39.0557 76.5028 40.0358 75.862 40.7543C75.2211 41.4728 74.3675 41.8741 73.4793 41.8745C73.3819 41.8745 73.284 41.8697 73.1855 41.8599L57.3824 40.2986C56.6773 40.2288 56.0078 39.907 55.4648 39.3769L45.0234 28.5538L49.0765 22.8457Z" fill="#367CFF"/>
<path d="M46.3572 24.5911L39.0312 22.8887L40.1854 16.1087L42.0705 14.6965L47.8143 16.0313L46.3572 24.5911Z" fill="#0CBC8B"/>
<path opacity="0.29" d="M42.0706 14.6965L40.1855 16.1087L41.7716 16.5096L42.0706 14.6965Z" fill="#FFFFFA"/>
<g opacity="0.88">
<path opacity="0.88" d="M46.4552 19.0712C46.449 19.0712 46.4429 19.0705 46.4368 19.069L40.7893 17.7303C40.7775 17.7274 40.7663 17.7219 40.7563 17.714C40.7463 17.7062 40.7377 17.696 40.731 17.6843C40.7176 17.6606 40.7128 17.6316 40.7177 17.6037C40.7225 17.5758 40.7367 17.5513 40.757 17.5356C40.7773 17.5199 40.8022 17.5143 40.826 17.52L46.4735 18.8587C46.4959 18.864 46.5157 18.8788 46.5292 18.9003C46.5427 18.9217 46.5489 18.9482 46.5466 18.9747C46.5443 19.0011 46.5337 19.0257 46.5168 19.0435C46.4999 19.0613 46.4779 19.0712 46.4552 19.0712Z" fill="white"/>
<path opacity="0.88" d="M46.2472 20.326C46.241 20.3261 46.2348 20.3253 46.2288 20.3239L40.5813 18.9851C40.5574 18.9794 40.5365 18.9629 40.523 18.9392C40.5096 18.9154 40.5048 18.8864 40.5097 18.8586C40.5145 18.8307 40.5287 18.8062 40.549 18.7905C40.5693 18.7748 40.5941 18.7692 40.618 18.7749L46.2655 20.1136C46.2878 20.1189 46.3077 20.1337 46.3212 20.1551C46.3347 20.1765 46.3409 20.2031 46.3386 20.2295C46.3363 20.256 46.3257 20.2805 46.3088 20.2984C46.2919 20.3162 46.2699 20.3261 46.2472 20.326Z" fill="white"/>
<path opacity="0.88" d="M46.0235 21.7103C46.0174 21.7103 46.0112 21.7096 46.0052 21.7082L40.3577 20.3694C40.3458 20.3666 40.3346 20.3611 40.3246 20.3532C40.3146 20.3453 40.3061 20.3352 40.2994 20.3235C40.286 20.2997 40.2812 20.2707 40.286 20.2428C40.2909 20.2149 40.3051 20.1905 40.3254 20.1748C40.3457 20.1591 40.3705 20.1535 40.3944 20.1591L46.0418 21.498C46.064 21.5034 46.0837 21.5182 46.0972 21.5396C46.1106 21.561 46.1167 21.5874 46.1145 21.6138C46.1122 21.6402 46.1016 21.6647 46.0848 21.6825C46.068 21.7003 46.0461 21.7102 46.0235 21.7103H46.0235Z" fill="white"/>
<path opacity="0.88" d="M42.6908 22.2081C42.6846 22.2081 42.6785 22.2074 42.6724 22.2059L40.1674 21.612C40.1554 21.6095 40.1439 21.6042 40.1336 21.5964C40.1233 21.5886 40.1145 21.5785 40.1076 21.5667C40.1008 21.5548 40.096 21.5415 40.0936 21.5275C40.0912 21.5135 40.0912 21.499 40.0937 21.485C40.0961 21.471 40.1009 21.4577 40.1078 21.4459C40.1148 21.4341 40.1236 21.424 40.1339 21.4162C40.1442 21.4085 40.1557 21.4032 40.1678 21.4008C40.1798 21.3983 40.1922 21.3987 40.2041 21.4019L42.7092 21.9957C42.7315 22.001 42.7513 22.0158 42.7648 22.0372C42.7783 22.0586 42.7845 22.0851 42.7822 22.1116C42.78 22.1381 42.7693 22.1626 42.7524 22.1804C42.7355 22.1983 42.7136 22.2081 42.6908 22.2081Z" fill="white"/>
</g>
<path d="M46.8648 22.3436L46.5008 21.3577C46.4453 21.2191 46.437 21.0611 46.4774 20.9156C46.5178 20.7702 46.604 20.6481 46.7186 20.574C46.7788 20.5382 46.8447 20.5171 46.9121 20.512C46.9796 20.5069 47.0472 20.5179 47.1109 20.5443C47.1746 20.5707 47.233 20.6121 47.2826 20.6657C47.3322 20.7194 47.3719 20.7844 47.3993 20.8566" fill="#E98862"/>
<path d="M79.8461 47.6753L77.4247 45.3308C77.3727 45.2804 77.3124 45.2429 77.2475 45.2206C77.1827 45.1983 77.1146 45.1917 77.0475 45.2012C76.9804 45.2107 76.9156 45.2361 76.8572 45.2757C76.7987 45.3154 76.7478 45.3686 76.7076 45.4321C76.6332 45.558 76.6026 45.7123 76.6218 45.8637C76.6411 46.015 76.7089 46.1522 76.8114 46.2474L77.3288 46.7483L79.7639 48.2219L79.8461 47.6753Z" fill="#E98862"/>
<path d="M77.3285 46.7476L75.0747 46.0424C74.8253 45.9588 74.4735 46.0424 74.4118 46.3758C74.3809 46.5021 74.3875 46.637 74.4306 46.7584C74.4737 46.8798 74.5508 46.9805 74.6492 47.0441C74.6479 47.0467 74.6468 47.0494 74.646 47.0522C74.646 47.0544 74.646 47.0566 74.646 47.0588L74.2614 46.9301C74.1906 46.9064 74.1161 46.9014 74.0434 46.9154C73.9706 46.9294 73.9015 46.9621 73.8409 47.0111C73.7803 47.0601 73.7297 47.1242 73.6929 47.1988C73.6561 47.2734 73.6339 47.3566 73.6279 47.4425C73.6208 47.5796 73.6544 47.7153 73.7231 47.8267C73.7918 47.9382 73.8913 48.0185 74.0049 48.054L74.1686 48.1088C74.1695 48.115 74.1712 48.121 74.1738 48.1266C74.057 48.1197 73.9419 48.161 73.8486 48.2434C73.7553 48.3258 73.6898 48.444 73.6636 48.5772C73.6389 48.7273 73.6639 48.8828 73.7335 49.0122C73.8031 49.1416 73.9121 49.2354 74.0386 49.2745L74.4409 49.4092C74.434 49.412 74.4278 49.4167 74.4227 49.4229C74.4177 49.4291 74.414 49.4366 74.4119 49.4448C74.4099 49.4546 74.4103 49.465 74.4133 49.4746C74.3096 49.5016 74.2161 49.5667 74.1464 49.6603C74.0766 49.7539 74.0343 49.8711 74.0256 49.9948C74.0185 50.1319 74.0521 50.2676 74.1208 50.3791C74.1895 50.4905 74.2891 50.5708 74.4026 50.6063L77.832 51.7547C78.3118 51.9154 78.8219 51.905 79.2966 51.7249C79.7714 51.5447 80.1894 51.203 80.4969 50.7436L81.4868 49.2641L77.3285 46.7476Z" fill="#E98862"/>
<g opacity="0.2">
<path opacity="0.2" d="M76.8772 47.7551C76.8738 47.7686 76.866 47.7799 76.8556 47.7868C76.8451 47.7937 76.8327 47.7954 76.8212 47.7918L74.6785 47.1174C74.6727 47.1156 74.6672 47.1125 74.6625 47.1082C74.6577 47.1039 74.6537 47.0985 74.6507 47.0924C74.6476 47.0863 74.6457 47.0796 74.6449 47.0726C74.6441 47.0656 74.6445 47.0585 74.6461 47.0517C74.6477 47.0449 74.6504 47.0385 74.6541 47.0329C74.6577 47.0273 74.6623 47.0226 74.6675 47.0191C74.6728 47.0156 74.6785 47.0133 74.6845 47.0124C74.6905 47.0115 74.6966 47.012 74.7024 47.0138L76.8451 47.6877C76.8569 47.6914 76.8669 47.7005 76.8729 47.7128C76.879 47.7251 76.8806 47.7398 76.8774 47.7535L76.8772 47.7551Z" fill="#0C0C0C"/>
</g>
<g opacity="0.2">
<path opacity="0.2" d="M76.6491 48.8675C76.6457 48.8809 76.6379 48.8923 76.6275 48.8991C76.617 48.9059 76.6047 48.9077 76.5931 48.9041L74.2019 48.152C74.1901 48.1482 74.1801 48.1392 74.1741 48.1269C74.168 48.1146 74.1664 48.0999 74.1696 48.0862C74.1731 48.0727 74.1809 48.0613 74.1913 48.0543C74.2018 48.0473 74.2141 48.0451 74.2258 48.0483L76.617 48.8005C76.6228 48.8023 76.6283 48.8055 76.6331 48.8097C76.6379 48.814 76.6419 48.8194 76.6449 48.8255C76.6479 48.8316 76.6499 48.8384 76.6506 48.8453C76.6514 48.8523 76.651 48.8594 76.6494 48.8662L76.6491 48.8675Z" fill="#0C0C0C"/>
</g>
<g opacity="0.2">
<path opacity="0.2" d="M76.4072 50.074C76.4038 50.0875 76.3961 50.0988 76.3856 50.1057C76.3751 50.1125 76.3628 50.1143 76.3512 50.1107L74.4437 49.5107C74.4377 49.509 74.432 49.506 74.4271 49.5018C74.4221 49.4975 74.4179 49.4922 74.4147 49.486C74.4116 49.4798 74.4095 49.4729 74.4086 49.4658C74.4078 49.4587 74.4082 49.4514 74.4098 49.4445C74.4114 49.4375 74.4142 49.431 74.418 49.4253C74.4218 49.4197 74.4265 49.415 74.4319 49.4115C74.4373 49.408 74.4432 49.4058 74.4494 49.4051C74.4555 49.4043 74.4617 49.405 74.4676 49.4071L76.375 50.0071C76.3808 50.0089 76.3862 50.012 76.391 50.0163C76.3958 50.0206 76.3998 50.026 76.4028 50.0321C76.4058 50.0382 76.4078 50.0449 76.4086 50.0519C76.4093 50.0589 76.4089 50.066 76.4074 50.0728L76.4072 50.074Z" fill="#0C0C0C"/>
</g>
<path d="M78.0947 52.795L93.6727 58.0493C94.3002 58.2439 94.962 58.2273 95.5817 58.0013C96.2014 57.7754 96.7539 57.3493 97.1753 56.7722C97.5966 56.1952 97.8698 55.4907 97.9633 54.7401C98.0568 53.9895 97.9667 53.2233 97.7035 52.5299L92.3924 37.7466C92.2091 37.2637 91.9461 36.8277 91.6186 36.4635C91.291 36.0994 90.9053 35.8141 90.4834 35.6241C90.0614 35.4341 89.6116 35.3431 89.1596 35.3562C88.7076 35.3693 88.2622 35.4864 87.8489 35.7006C87.4356 35.9148 87.0625 36.2221 86.7508 36.6048C86.4391 36.9875 86.195 37.4383 86.0324 37.9312C85.8698 38.4242 85.7918 38.9497 85.8031 39.4779C85.8143 40.006 85.9144 40.5264 86.0978 41.0094L89.2913 48.7834L79.5788 46.1594L78.0947 52.795Z" fill="#367CFF"/>
<path d="M91.1906 57.2655C91.1863 57.2655 91.182 57.2648 91.1778 57.2634L78.0819 52.8461C78.0704 52.8422 78.0607 52.8332 78.0548 52.8211C78.0489 52.809 78.0473 52.7946 78.0503 52.7811L79.5343 46.1454C79.5373 46.1318 79.5448 46.1201 79.5551 46.1129C79.5654 46.1056 79.5777 46.1034 79.5894 46.1067L89.2089 48.7051L86.0568 41.0317C86.0538 41.0253 86.052 41.0183 86.0514 41.011C86.0508 41.0038 86.0515 40.9965 86.0534 40.9896C86.0553 40.9827 86.0584 40.9763 86.0625 40.9708C86.0666 40.9653 86.0716 40.9608 86.0772 40.9577C86.0828 40.9545 86.0889 40.9528 86.0951 40.9524C86.1013 40.9521 86.1075 40.9533 86.1134 40.9559C86.1192 40.9584 86.1245 40.9624 86.129 40.9674C86.1334 40.9725 86.137 40.9785 86.1394 40.9852L89.3329 48.7593C89.3365 48.7684 89.3379 48.7785 89.3369 48.7884C89.3359 48.7984 89.3325 48.8078 89.3271 48.8157C89.3217 48.8235 89.3145 48.8294 89.3064 48.8327C89.2983 48.836 89.2896 48.8366 89.2812 48.8344L79.6119 46.2233L78.1505 52.7579L91.2034 57.1603C91.214 57.1638 91.2233 57.1717 91.2293 57.1826C91.2354 57.1935 91.2378 57.2066 91.2363 57.2194C91.2347 57.2322 91.2292 57.244 91.2208 57.2525C91.2124 57.2609 91.2017 57.2656 91.1906 57.2655Z" fill="#0C0C0C"/>
<path d="M90.8951 49.2443C90.8918 49.2442 90.8885 49.2438 90.8853 49.2431L89.2818 48.8354C89.27 48.8323 89.2597 48.8238 89.2532 48.8119C89.2468 48.8 89.2446 48.7855 89.2471 48.7717C89.2497 48.7579 89.2569 48.7458 89.267 48.7381C89.2772 48.7304 89.2895 48.7277 89.3013 48.7306L90.9049 49.1383C90.9159 49.1411 90.9256 49.1487 90.9322 49.1594C90.9388 49.1701 90.9417 49.1833 90.9405 49.1964C90.9393 49.2095 90.934 49.2216 90.9256 49.2305C90.9172 49.2393 90.9064 49.2442 90.8951 49.2443Z" fill="#0C0C0C"/>
<path d="M70.9918 41.6974C70.9802 41.6974 70.969 41.6923 70.9605 41.6831C70.952 41.6739 70.9468 41.6613 70.9459 41.6478L70.7413 38.554C70.7409 38.5469 70.7416 38.5398 70.7435 38.5331C70.7454 38.5264 70.7484 38.5202 70.7523 38.5148C70.7563 38.5095 70.7611 38.5051 70.7665 38.5019C70.7719 38.4987 70.7777 38.4968 70.7838 38.4962C70.7898 38.4957 70.7959 38.4966 70.8016 38.4988C70.8073 38.501 70.8127 38.5045 70.8172 38.5091C70.8218 38.5137 70.8256 38.5193 70.8283 38.5256C70.8311 38.5319 70.8327 38.5388 70.8332 38.5458L71.0377 41.6397C71.0386 41.6538 71.0347 41.6678 71.0268 41.6786C71.0189 41.6894 71.0076 41.6961 70.9955 41.6972C70.9943 41.6973 70.993 41.6974 70.9918 41.6974Z" fill="#0C0C0C"/>
<path d="M77.2514 24.1876C77.4161 24.1876 77.5496 24.0316 77.5496 23.8392C77.5496 23.6467 77.4161 23.4907 77.2514 23.4907C77.0866 23.4907 76.9531 23.6467 76.9531 23.8392C76.9531 24.0316 77.0866 24.1876 77.2514 24.1876Z" fill="#0C0C0C"/>
<path d="M80.2738 24.7843C80.4385 24.7843 80.572 24.6283 80.572 24.4358C80.572 24.2434 80.4385 24.0874 80.2738 24.0874C80.1091 24.0874 79.9756 24.2434 79.9756 24.4358C79.9756 24.6283 80.1091 24.7843 80.2738 24.7843Z" fill="#0C0C0C"/>
<path d="M92.5492 67H2.9248Cnan nan nan nan 2.9248 67L92.5492 66.7854V67Cnan nan nan nan 92.5492 67Z" fill="#292A2E"/>
</g>
<defs>
<clipPath id="clip0_2_49248">
<rect width="98" height="67" fill="white"/>
</clipPath>
</defs>
</svg>
