<svg width="176" height="145" viewBox="0 0 176 145" fill="none" xmlns="http://www.w3.org/2000/svg">
<path d="M146.002 0H60.0938V72.8713H146.002V0Z" fill="#F4F4F4"/>
<path d="M146.987 0H146.002V72.8713H146.987V0Z" fill="#F4F4F4"/>
<path opacity="0.05" d="M146.987 0H146.002V72.8713H146.987V0Z" fill="#292A2E"/>
<path opacity="0.05" d="M125.191 50.2143V31.1487H106.779V42.2254H78.2594V61.8381H66.1382V72.8713H78.2594H80.5945H141.87V50.2143H125.191Z" fill="#292A2E"/>
<path opacity="0.34" d="M122.55 33.2189H109.143V35.289H122.55V33.2189Z" fill="#FFFFFA"/>
<path opacity="0.34" d="M122.55 37.5086H109.143V39.5787H122.55V37.5086Z" fill="#FFFFFA"/>
<path opacity="0.34" d="M122.55 41.7983H109.143V43.8684H122.55V41.7983Z" fill="#FFFFFA"/>
<path opacity="0.34" d="M139.493 52.2238H137.021V54.2938H139.493V52.2238Z" fill="#FFFFFA"/>
<path opacity="0.34" d="M139.493 56.5134H137.021V58.5835H139.493V56.5134Z" fill="#FFFFFA"/>
<path opacity="0.34" d="M139.493 60.803H137.021V62.8731H139.493V60.803Z" fill="#FFFFFA"/>
<path opacity="0.34" d="M134.92 52.2237H132.449V54.2938H134.92V52.2237Z" fill="#FFFFFA"/>
<path opacity="0.34" d="M134.92 56.5135H132.449V58.5836H134.92V56.5135Z" fill="#FFFFFA"/>
<path opacity="0.34" d="M134.92 60.803H132.449V62.8731H134.92V60.803Z" fill="#FFFFFA"/>
<path opacity="0.34" d="M130.473 52.2239H128.001V54.294H130.473V52.2239Z" fill="#FFFFFA"/>
<path opacity="0.34" d="M130.473 56.5135H128.001V58.5836H130.473V56.5135Z" fill="#FFFFFA"/>
<path opacity="0.34" d="M130.473 60.803H128.001V62.8731H130.473V60.803Z" fill="#FFFFFA"/>
<path d="M146.002 36.0269H128.716V0H127.287V36.0269H80.5945V0H79.165V36.0269H60.0938V37.2395H79.165V72.8713H80.5945V37.2395H127.287V72.8713H128.716V37.2395H146.002V36.0269Z" fill="white"/>
<path d="M149.425 72.7835H56.6714V75.2069H149.425V72.7835Z" fill="#F4F4F4"/>
<path opacity="0.1" d="M149.425 72.7835H56.6714V75.2069H149.425V72.7835Z" fill="#292A2E"/>
<path opacity="0.1" d="M150.764 72.7836H149.425V75.207H150.764V72.7836Z" fill="#292A2E"/>
<path opacity="0.1" d="M150.764 72.7836H149.425V75.207H150.764V72.7836Z" fill="#292A2E"/>
<path d="M146.987 1.30078H60.0933V3.10266H146.987V1.30078Z" fill="white"/>
<path d="M146.987 4.66626H60.0933V6.46813H146.987V4.66626Z" fill="white"/>
<path d="M146.987 8.03162H60.0933V9.83349H146.987V8.03162Z" fill="white"/>
<path d="M146.987 11.3971H60.0933V13.199H146.987V11.3971Z" fill="white"/>
<path d="M146.987 14.7626H60.0933V16.5644H146.987V14.7626Z" fill="white"/>
<path d="M137.758 0H136.456V18.5965H137.758V0Z" fill="white"/>
<path d="M137.217 21.2673C138.205 21.2673 139.006 20.5879 139.006 19.7498C139.006 18.9117 138.205 18.2323 137.217 18.2323C136.229 18.2323 135.428 18.9117 135.428 19.7498C135.428 20.5879 136.229 21.2673 137.217 21.2673Z" fill="white"/>
<path d="M170.813 145H0.138853C0.120618 145 0.102562 144.997 0.0857161 144.991C0.0688697 144.985 0.0535627 144.976 0.040669 144.965C0.0277753 144.955 0.0175475 144.942 0.0105695 144.927C0.00359153 144.913 0 144.898 0 144.882C0 144.867 0.00359153 144.851 0.0105695 144.837C0.0175475 144.823 0.0277753 144.81 0.040669 144.799C0.0535627 144.788 0.0688697 144.779 0.0857161 144.773C0.102562 144.767 0.120618 144.764 0.138853 144.764H170.813C170.849 144.764 170.885 144.777 170.911 144.799C170.937 144.821 170.951 144.851 170.951 144.882C170.951 144.913 170.937 144.943 170.911 144.965C170.885 144.988 170.849 145 170.813 145H170.813Z" fill="#292A2E"/>
<g opacity="0.65">
<path opacity="0.65" d="M170.813 145H0.138853C0.120618 145 0.102562 144.997 0.0857161 144.991C0.0688697 144.985 0.0535627 144.976 0.040669 144.965C0.0277753 144.955 0.0175475 144.942 0.0105695 144.927C0.00359153 144.913 0 144.898 0 144.882C0 144.867 0.00359153 144.851 0.0105695 144.837C0.0175475 144.823 0.0277753 144.81 0.040669 144.799C0.0535627 144.788 0.0688697 144.779 0.0857161 144.773C0.102562 144.767 0.120618 144.764 0.138853 144.764H170.813C170.849 144.764 170.885 144.777 170.911 144.799C170.937 144.821 170.951 144.851 170.951 144.882C170.951 144.913 170.937 144.943 170.911 144.965C170.885 144.988 170.849 145 170.813 145H170.813Z" fill="#292A2E"/>
</g>
<path d="M12.0214 144.793L11.6318 144.729L17.7207 93.4052L18.1103 93.4688L12.0214 144.793Z" fill="#494949"/>
<path d="M34.6938 144.793L34.3042 144.729L40.3931 93.4052L40.7825 93.4688L34.6938 144.793Z" fill="#494949"/>
<path d="M84.8094 144.793L85.199 144.729L79.1103 93.4052L78.7207 93.4688L84.8094 144.793Z" fill="#494949"/>
<path d="M62.1372 144.793L62.5266 144.729L56.4379 93.4053L56.0483 93.4689L62.1372 144.793Z" fill="#494949"/>
<path d="M54.0622 70.8175L53.6689 70.862L57.2259 93.4597L57.6192 93.4152L54.0622 70.8175Z" fill="#494949"/>
<path d="M13.235 70.8173L12.8418 70.8618L16.3988 93.4596L16.792 93.415L13.235 70.8173Z" fill="#494949"/>
<path d="M57.5854 91.7822H17.6514C16.574 91.7822 15.7006 92.5231 15.7006 93.437V93.4372C15.7006 94.3511 16.574 95.092 17.6514 95.092H57.5854C58.6629 95.092 59.5363 94.3511 59.5363 93.4372V93.437C59.5363 92.5231 58.6629 91.7822 57.5854 91.7822Z" fill="#292A2E"/>
<path opacity="0.8" d="M57.5854 91.7822H17.6514C16.574 91.7822 15.7006 92.5231 15.7006 93.437V93.4372C15.7006 94.3511 16.574 95.092 17.6514 95.092H57.5854C58.6629 95.092 59.5363 94.3511 59.5363 93.4372V93.437C59.5363 92.5231 58.6629 91.7822 57.5854 91.7822Z" fill="white"/>
<path d="M57.585 95.2602H17.6517C17.0853 95.2556 16.5439 95.0615 16.1452 94.7201C15.7466 94.3787 15.5229 93.9176 15.5229 93.4371C15.5229 92.9565 15.7466 92.4954 16.1452 92.154C16.5439 91.8126 17.0853 91.6185 17.6517 91.6139H57.585C58.1514 91.6185 58.6928 91.8126 59.0915 92.154C59.4901 92.4954 59.7137 92.9565 59.7137 93.4371C59.7137 93.9176 59.4901 94.3787 59.0915 94.7201C58.6928 95.0615 58.1514 95.2556 57.585 95.2602ZM17.6517 91.9504C17.1901 91.9546 16.7491 92.113 16.4245 92.3914C16.0998 92.6697 15.9177 93.0455 15.9177 93.4371C15.9177 93.8286 16.0998 94.2044 16.4245 94.4827C16.7491 94.7611 17.1901 94.9195 17.6517 94.9237H57.585C58.0465 94.9195 58.4876 94.7611 58.8122 94.4827C59.1369 94.2044 59.319 93.8286 59.319 93.4371C59.319 93.0455 59.1369 92.6697 58.8122 92.3914C58.4876 92.113 58.0465 91.9546 57.585 91.9504H17.6517Z" fill="#292A2E"/>
<path d="M79.5035 91.7822H39.5695C38.4921 91.7822 37.6187 92.5231 37.6187 93.437V93.4372C37.6187 94.3511 38.4921 95.092 39.5695 95.092H79.5035C80.581 95.092 81.4544 94.3511 81.4544 93.4372V93.437C81.4544 92.5231 80.581 91.7822 79.5035 91.7822Z" fill="white"/>
<path d="M79.5035 95.2602H39.5695C39.2855 95.2626 39.0038 95.2171 38.7406 95.1265C38.4775 95.0359 38.2381 94.902 38.0363 94.7325C37.8345 94.563 37.6743 94.3612 37.565 94.1388C37.4557 93.9165 37.3994 93.678 37.3994 93.4371C37.3994 93.1962 37.4557 92.9577 37.565 92.7353C37.6743 92.513 37.8345 92.3112 38.0363 92.1417C38.2381 91.9721 38.4775 91.8382 38.7406 91.7476C39.0038 91.6571 39.2855 91.6116 39.5695 91.6139H79.5035C79.7875 91.6116 80.0692 91.6571 80.3324 91.7476C80.5955 91.8382 80.8349 91.9721 81.0367 92.1417C81.2385 92.3112 81.3987 92.513 81.508 92.7353C81.6173 92.9577 81.6736 93.1962 81.6736 93.4371C81.6736 93.678 81.6173 93.9165 81.508 94.1388C81.3987 94.3612 81.2385 94.563 81.0367 94.7325C80.8349 94.902 80.5955 95.0359 80.3324 95.1265C80.0692 95.2171 79.7875 95.2626 79.5035 95.2602ZM39.5695 91.9504C39.3378 91.9483 39.1079 91.9852 38.8931 92.059C38.6783 92.1328 38.4828 92.242 38.3181 92.3802C38.1534 92.5185 38.0226 92.6831 37.9333 92.8645C37.8441 93.0459 37.7981 93.2405 37.7981 93.4371C37.7981 93.6336 37.8441 93.8283 37.9333 94.0097C38.0226 94.1911 38.1534 94.3557 38.3181 94.4939C38.4828 94.6322 38.6783 94.7414 38.8931 94.8151C39.1079 94.8889 39.3378 94.9258 39.5695 94.9237H79.5035C79.7352 94.9258 79.9651 94.8889 80.18 94.8151C80.3947 94.7414 80.5902 94.6322 80.7549 94.4939C80.9196 94.3557 81.0504 94.1911 81.1397 94.0097C81.2289 93.8283 81.2749 93.6336 81.2749 93.4371C81.2749 93.2405 81.2289 93.0459 81.1397 92.8645C81.0504 92.6831 80.9196 92.5185 80.7549 92.3802C80.5902 92.242 80.3947 92.1328 80.18 92.059C79.9651 91.9852 79.7352 91.9483 79.5035 91.9504H39.5695Z" fill="#292A2E"/>
<path d="M51.8755 70.8394H13.1462C12.513 70.8394 11.9014 70.6439 11.4257 70.2895C10.9499 69.9351 10.6425 69.4459 10.5607 68.9133L7.9989 52.2255C7.95099 51.9136 7.98208 51.5965 8.0901 51.2956C8.19812 50.9947 8.38059 50.7168 8.62531 50.4804C8.87003 50.244 9.17137 50.0547 9.50923 49.925C9.84709 49.7953 10.2137 49.7282 10.5845 49.7282H49.3137C49.9469 49.7282 50.5584 49.9237 51.0342 50.2781C51.5099 50.6325 51.8174 51.1217 51.8991 51.6543L54.461 68.3421C54.5088 68.654 54.4777 68.971 54.3697 69.2719C54.2617 69.5728 54.0792 69.8507 53.8345 70.0871C53.5899 70.3234 53.2885 70.5128 52.9507 70.6425C52.6129 70.7722 52.2464 70.8393 51.8755 70.8394Z" fill="#292A2E"/>
<path opacity="0.8" d="M51.8755 70.8394H13.1462C12.513 70.8394 11.9014 70.6439 11.4257 70.2895C10.9499 69.9351 10.6425 69.4459 10.5607 68.9133L7.9989 52.2255C7.95099 51.9136 7.98208 51.5965 8.0901 51.2956C8.19812 50.9947 8.38059 50.7168 8.62531 50.4804C8.87003 50.244 9.17137 50.0547 9.50923 49.925C9.84709 49.7953 10.2137 49.7282 10.5845 49.7282H49.3137C49.9469 49.7282 50.5584 49.9237 51.0342 50.2781C51.5099 50.6325 51.8174 51.1217 51.8991 51.6543L54.461 68.3421C54.5088 68.654 54.4777 68.971 54.3697 69.2719C54.2617 69.5728 54.0792 69.8507 53.8345 70.0871C53.5899 70.3234 53.2885 70.5128 52.9507 70.6425C52.6129 70.7722 52.2464 70.8393 51.8755 70.8394Z" fill="white"/>
<path d="M51.8752 71.0076H13.1459C12.465 71.0063 11.8078 70.7955 11.2961 70.4145C10.7845 70.0334 10.4532 69.5078 10.3637 68.9353L7.80183 52.2475C7.75028 51.9118 7.78374 51.5707 7.89997 51.2469C8.01621 50.9231 8.21254 50.624 8.47586 50.3697C8.73918 50.1154 9.06344 49.9116 9.42698 49.772C9.79052 49.6324 10.185 49.5602 10.584 49.5602H49.3134C49.9944 49.5615 50.6517 49.7723 51.1634 50.1535C51.675 50.5347 52.0064 51.0604 52.0958 51.633L54.6576 68.3207C54.7091 68.6563 54.6756 68.9974 54.5593 69.3212C54.4431 69.645 54.2467 69.9441 53.9834 70.1984C53.7201 70.4527 53.3958 70.6565 53.0323 70.7961C52.6687 70.9357 52.2743 71.0079 51.8752 71.0079V71.0076ZM10.584 49.8964C10.2414 49.8964 9.90274 49.9584 9.59062 50.0783C9.27849 50.1981 9.0001 50.3731 8.77402 50.5915C8.54795 50.8098 8.37939 51.0666 8.27961 51.3446C8.17982 51.6227 8.15111 51.9156 8.19537 52.2037L10.757 68.8916C10.8339 69.3832 11.1183 69.8345 11.5576 70.1617C11.9969 70.4889 12.5612 70.6699 13.1459 70.6711H51.8752C52.2179 70.6711 52.5567 70.609 52.8688 70.4892C53.181 70.3693 53.4594 70.1943 53.6855 69.9758C53.9116 69.7574 54.0802 69.5006 54.18 69.2225C54.2797 68.9444 54.3084 68.6515 54.2641 68.3632L51.7023 51.6756C51.6254 51.184 51.3409 50.7328 50.9016 50.4056C50.4623 50.0784 49.898 49.8975 49.3134 49.8964H10.584Z" fill="#292A2E"/>
<path d="M54.0651 70.8393H15.3358C14.7026 70.8393 14.091 70.6439 13.6152 70.2895C13.1394 69.935 12.8319 69.4459 12.7501 68.9133L10.1883 52.2254C10.1405 51.9135 10.1716 51.5965 10.2796 51.2956C10.3877 50.9947 10.5702 50.7168 10.8149 50.4805C11.0596 50.2441 11.3609 50.0548 11.6987 49.925C12.0365 49.7953 12.4031 49.7282 12.7739 49.7281H51.5033C52.1365 49.7281 52.7481 49.9236 53.2239 50.278C53.6996 50.6324 54.0071 51.1216 54.0889 51.6542L56.6508 68.342C56.6986 68.6539 56.6675 68.9709 56.5594 69.2718C56.4514 69.5728 56.2689 69.8507 56.0242 70.087C55.7795 70.3233 55.4782 70.5127 55.1403 70.6424C54.8025 70.7722 54.436 70.8393 54.0651 70.8393Z" fill="white"/>
<path d="M54.0652 71.0076H15.3358C14.6549 71.0063 13.9977 70.7956 13.486 70.4145C12.9744 70.0334 12.6431 69.5079 12.5536 68.9353L9.99177 52.2475C9.94022 51.9118 9.97368 51.5707 10.0899 51.2469C10.2061 50.9231 10.4025 50.624 10.6658 50.3697C10.9291 50.1154 11.2534 49.9116 11.6169 49.772C11.9805 49.6324 12.3749 49.5602 12.774 49.5602H51.5033C52.1843 49.5615 52.8416 49.7723 53.3533 50.1535C53.8649 50.5347 54.1962 51.0604 54.2855 51.633L56.8474 68.3207C56.8989 68.6563 56.8655 68.9974 56.7492 69.3213C56.633 69.6451 56.4367 69.9441 56.1733 70.1985C55.91 70.4528 55.5858 70.6566 55.2222 70.7961C54.8587 70.9357 54.4642 71.0079 54.0652 71.0079V71.0076ZM12.774 49.8964C12.4313 49.8964 12.0927 49.9584 11.7805 50.0783C11.4684 50.1981 11.19 50.3731 10.9639 50.5915C10.7378 50.8098 10.5692 51.0666 10.4694 51.3446C10.3696 51.6227 10.3409 51.9155 10.3851 52.2037L12.9469 68.8916C13.0237 69.3832 13.3082 69.8345 13.7475 70.1618C14.1868 70.489 14.7511 70.67 15.3358 70.6711H54.0652C54.4079 70.6711 54.7466 70.6091 55.0588 70.4892C55.371 70.3693 55.6495 70.1943 55.8756 69.9759C56.1017 69.7575 56.2703 69.5006 56.3701 69.2225C56.4699 68.9444 56.4986 68.6515 56.4542 68.3632L53.8924 51.6756C53.8156 51.1839 53.5312 50.7326 53.0919 50.4053C52.6526 50.078 52.0882 49.897 51.5035 49.8959L12.774 49.8964Z" fill="#292A2E"/>
<path d="M108.686 136.209C108.686 136.209 109.749 140.886 114.911 141.146C120.073 141.407 118.954 144.895 118.954 144.895H99.228V136.535L108.686 136.209Z" fill="#367CFF"/>
<path d="M71.1584 133.256C71.1584 133.256 69.6792 137.851 74.1754 140.018C78.6717 142.184 75.852 144.895 75.852 144.895L58.1519 137.508L62.5021 130.007L71.1584 133.256Z" fill="#367CFF"/>
<path d="M55.2753 24.2881C55.2753 24.2881 57.8488 22.6403 58.4866 18.8475C58.9803 15.9107 55.7867 17.8132 55.7867 17.8132C55.7867 17.8132 56.1179 15.6958 54.299 15.9058C52.48 16.1158 51.4624 18.3405 51.4624 18.3405" fill="#0C0C0C"/>
<path d="M44.8988 16.1536C44.8988 16.1536 35.8744 16.9744 39.1366 27.3472L39.9352 27.3924L41.5562 27.4846" fill="#0C0C0C"/>
<path d="M53.7635 38.18C53.7239 38.1756 53.2835 44.3719 44.7964 43.8321C38.921 43.4589 36.8261 38.1712 36.6914 38.1712C37.325 38.057 38.1077 37.8837 38.4189 37.8241C39.097 37.6906 39.711 37.3851 40.1794 36.9483C40.6477 36.5116 40.9482 35.9642 41.0409 35.379C41.2128 34.5007 40.9218 30.0068 41.0109 29.1181L50.0298 30.8258C49.9038 32.7027 49.0217 37.054 52.1126 37.8241C52.6277 37.9515 53.1817 38.0686 53.7635 38.18Z" fill="#E98862"/>
<path opacity="0.52" d="M50.1565 36.0458C50.0153 35.6597 49.9243 35.2615 49.8852 34.8586C49.7862 33.939 49.8061 33.0129 49.9447 32.097C48.1116 31.8871 46.3846 31.2453 44.9601 30.2444C44.7926 30.7691 43.8717 33.0614 44.1269 33.5601C44.608 34.5025 46.8727 36.0458 50.1565 36.0458Z" fill="#0C0C0C"/>
<path d="M48.2952 34.8193C44.737 34.5486 40.4784 32.6417 40.4171 28.5448L40.3616 24.8484C40.3003 20.7515 42.7871 17.403 47.3348 17.354C51.8822 17.3049 55.3311 20.5894 55.3924 24.6862L55.417 26.3227C55.4138 26.8847 55.3655 27.4459 55.2724 28.0024C55.0391 29.4746 54.6773 31.713 53.4996 33.2273C52.3872 34.6566 50.5682 34.9923 48.2952 34.8193Z" fill="#E98862"/>
<path d="M49.9459 31.0747C50.6801 31.1029 51.4119 30.9843 52.0822 30.7285C52.0961 30.7235 52.1086 30.7162 52.1192 30.7071C52.1297 30.698 52.138 30.6872 52.1436 30.6753C52.1492 30.6635 52.1521 30.6508 52.1519 30.638C52.1517 30.6252 52.1486 30.6126 52.1427 30.6008C52.1368 30.5891 52.1282 30.5784 52.1174 30.5695C52.1067 30.5605 52.0939 30.5535 52.08 30.5487C52.066 30.544 52.051 30.5416 52.036 30.5417C52.0209 30.5419 52.006 30.5445 51.9921 30.5495C50.5481 31.072 49.2367 30.9954 48.2001 30.3283C48.1791 30.3142 48.1574 30.3012 48.1348 30.2891C48.1088 30.2788 48.0791 30.2772 48.0518 30.2846C48.0244 30.292 48.0013 30.3078 47.987 30.3289C47.9727 30.35 47.9682 30.3749 47.9744 30.3987C47.9807 30.4224 47.9972 30.4434 48.0208 30.4573C48.0291 30.4617 48.0424 30.4706 48.0604 30.4829C48.6054 30.835 49.2619 31.041 49.9459 31.0747Z" fill="#0C0C0C"/>
<path d="M49.9116 31.9976C50.0443 32.0046 50.1774 32.0019 50.3095 31.9895C50.3398 31.9868 50.3675 31.974 50.3866 31.9539C50.4057 31.9338 50.4147 31.9081 50.4115 31.8825C50.4083 31.8568 50.3932 31.8333 50.3695 31.8171C50.3458 31.8008 50.3156 31.7933 50.2853 31.796C49.4905 31.8677 49.1112 31.5587 49.0951 31.5454C49.0734 31.528 49.0446 31.5185 49.0147 31.5188C48.9848 31.5192 48.9562 31.5294 48.9351 31.5473C48.9139 31.5652 48.9018 31.5894 48.9014 31.6148C48.9009 31.6401 48.9122 31.6646 48.9327 31.6831C49.2064 31.8806 49.5523 31.9917 49.9116 31.9976Z" fill="#0C0C0C"/>
<path d="M53.8902 27.1105C54.1996 27.1105 54.4504 26.8977 54.4504 26.6353C54.4504 26.3729 54.1996 26.1602 53.8902 26.1602C53.5809 26.1602 53.3301 26.3729 53.3301 26.6353C53.3301 26.8977 53.5809 27.1105 53.8902 27.1105Z" fill="#0C0C0C"/>
<path d="M48.4181 26.8192C48.7275 26.8192 48.9783 26.6064 48.9783 26.344C48.9783 26.0816 48.7275 25.8688 48.4181 25.8688C48.1087 25.8688 47.8579 26.0816 47.8579 26.344C47.8579 26.6064 48.1087 26.8192 48.4181 26.8192Z" fill="#0C0C0C"/>
<path d="M40.7184 29.79C39.3365 29.805 38.1975 28.5629 38.1794 27.3907C38.1614 26.2184 39.2724 25.56 40.6544 25.545L41.3782 26.3227L41.9062 29.7772L40.7184 29.79Z" fill="#E98862"/>
<path d="M42.0918 27.9063C42.0918 27.9063 42.5586 22.1093 44.6309 21.7514C46.011 21.513 49.358 23.1735 52.458 22.672C53.8144 22.4532 55.1019 22.7374 55.2328 23.2807C55.2846 23.4959 56.1296 20.4035 54.0058 18.0573C52.3148 16.1897 46.7809 15.6613 44.2633 16.2738C37.2923 17.9702 40.3685 25.8002 40.3685 25.8002L40.6793 27.7986L42.0918 27.9063Z" fill="#0C0C0C"/>
<path d="M50.7801 29.7065C50.783 29.7066 50.786 29.7066 50.789 29.7065C51.2343 29.7026 51.9807 29.6541 51.9778 29.3715C51.9748 29.1372 51.1893 26.6162 51.0994 26.3295C51.0895 26.3072 51.0702 26.2887 51.0452 26.2778C51.0201 26.2669 50.9912 26.2642 50.964 26.2704C50.9368 26.2765 50.9133 26.291 50.898 26.3111C50.8827 26.3311 50.8767 26.3553 50.8812 26.3788C51.2301 27.4954 51.7498 29.2143 51.752 29.3738C51.709 29.4411 51.249 29.5103 50.7878 29.5143C50.7587 29.5148 50.731 29.5248 50.7103 29.5422C50.6897 29.5596 50.6777 29.583 50.6768 29.6077C50.6759 29.6323 50.6863 29.6563 50.7057 29.6747C50.7251 29.6931 50.7521 29.7045 50.7811 29.7065H50.7801Z" fill="#0C0C0C"/>
<path d="M52.3 24.0589C52.7681 23.9496 53.2622 23.9496 53.7302 24.0589C53.9602 24.1113 54.1795 24.1927 54.3808 24.3005C54.5799 24.406 54.7625 24.5324 54.9242 24.6767C54.9551 24.7022 54.9731 24.7369 54.9743 24.7735C54.9755 24.8101 54.9597 24.8456 54.9304 24.8724C54.901 24.8993 54.8605 24.9153 54.8174 24.9171C54.7743 24.9189 54.7321 24.9063 54.6998 24.882L54.6897 24.8746C54.5399 24.757 54.3733 24.6559 54.1938 24.5736C54.0177 24.4917 53.8279 24.433 53.631 24.3994C53.2435 24.3303 52.8413 24.3494 52.4653 24.4546L52.4494 24.4593C52.3874 24.4779 52.3191 24.4749 52.2597 24.4508C52.2004 24.4268 52.1547 24.3837 52.1327 24.331C52.1108 24.2784 52.1144 24.2205 52.1428 24.1702C52.1711 24.1198 52.2219 24.081 52.284 24.0624L52.3 24.0589Z" fill="#0C0C0C"/>
<path d="M48.9859 24.2973C48.6298 24.1505 48.2343 24.0861 47.8394 24.1107C47.639 24.1217 47.4417 24.1585 47.2542 24.2197C47.0637 24.2811 46.883 24.3625 46.7163 24.462L46.7056 24.4681C46.6698 24.4875 46.6266 24.4945 46.5848 24.4877C46.5431 24.4808 46.5061 24.4605 46.4816 24.4311C46.457 24.4017 46.4467 24.3654 46.4529 24.3297C46.4591 24.294 46.4813 24.2618 46.5148 24.2396C46.6978 24.1148 46.8986 24.0101 47.1124 23.928C47.329 23.8441 47.5591 23.7882 47.7952 23.7621C48.0316 23.7339 48.2715 23.7334 48.5081 23.7605C48.7509 23.7862 48.9882 23.8409 49.2129 23.9233C49.2734 23.9456 49.3209 23.9873 49.3451 24.0394C49.3693 24.0915 49.3681 24.1496 49.3418 24.2009C49.3155 24.2522 49.2662 24.2926 49.2048 24.3131C49.1435 24.3336 49.075 24.3326 49.0145 24.3102C49.0099 24.3086 49.0052 24.3067 49.0008 24.3047L48.9859 24.2973Z" fill="#0C0C0C"/>
<path d="M51.6349 20.0682C52.6578 19.8869 53.232 18.7046 52.9175 17.4275C52.6029 16.1504 51.5187 15.2621 50.4957 15.4434C49.4728 15.6246 48.8986 16.8069 49.2131 18.084C49.5277 19.3611 50.6119 20.2495 51.6349 20.0682Z" fill="#0C0C0C"/>
<path d="M60.1956 131.959L75.1221 92.016H48.0656C42.6305 92.016 40.3649 88.1065 40.3649 83.4966C40.3649 78.8867 45.7079 74.8455 51.1426 74.8455H87.6589C90.9737 74.8455 94.6906 76.5651 96.5099 78.9156C98.3293 81.2662 97.8373 84.9085 96.5192 87.4885L72.6168 136.732" fill="#262626"/>
<path opacity="0.8" d="M60.1956 131.959L75.1221 92.016H48.0656C42.6305 92.016 40.3649 88.1065 40.3649 83.4966C40.3649 78.8867 45.7079 74.8455 51.1426 74.8455H87.6589C90.9737 74.8455 94.6906 76.5651 96.5099 78.9156C98.3293 81.2662 97.8373 84.9085 96.5192 87.4885L72.6168 136.732" fill="#0A0A0A"/>
<path d="M98.0938 140.552L73.1356 92.016L40.3646 92.0142C32.6859 91.5035 29.1692 87.9339 29.281 83.325C29.3913 78.7745 32.1077 74.2798 37.4481 74.2798H81.6176C85.5689 74.3488 88.6776 78.0526 90.1435 81.1657L110.892 137.581" fill="#262626"/>
<path d="M27.0458 74.3357C27.0458 74.3357 25.5904 82.3862 27.8974 86.862C30.7774 92.4498 41.5738 92.0145 41.5738 92.0145L40.9654 74.2802L27.0458 74.3357Z" fill="#262626"/>
<path d="M91.0823 74.177L67.9336 70.1082C66.969 69.9387 66.0704 69.5655 65.3209 69.0233C64.5714 68.481 63.9953 67.7871 63.6458 67.0059L54.5411 46.6546C54.2638 46.0438 54.1316 45.3926 54.1519 44.7383C54.1723 44.0841 54.3448 43.4397 54.6596 42.8421C54.9745 42.2446 55.4254 41.7057 55.9864 41.2565C56.5475 40.8072 57.2077 40.4563 57.9291 40.2241C58.6504 39.9919 59.4188 39.8829 60.19 39.9033C60.9612 39.9237 61.7201 40.0732 62.423 40.3431C63.1259 40.613 63.759 40.9981 64.2859 41.4761C64.8129 41.9542 65.2233 42.5159 65.4936 43.1289L73.4582 60.9306L93.4599 64.4462C93.4599 64.4462 91.4838 74.2475 91.0823 74.177Z" fill="#367CFF"/>
<path d="M64.3087 51.8235C64.0415 54.4875 62.1465 71.1075 61.8887 74.3889H27.0613C26.8611 71.4294 25.9625 58.4885 25.2038 52.7005C24.4794 47.1781 23.464 44.665 24.2983 42.9487C25.7697 39.9219 30.4534 38.5702 33.6252 38.206C35.5618 37.9836 38.4748 37.8241 38.4748 37.8241C38.4748 37.8241 38.7215 42.0563 44.6025 42.2918C52.6082 42.6115 52.0736 37.8241 52.1133 37.8241C53.4101 37.8241 60.4698 38.6242 62.235 39.6001C64.7284 40.9786 65.4651 42.857 65.4943 44.583C65.5278 46.5701 64.6118 48.8014 64.3087 51.8235Z" fill="#367CFF"/>
<path d="M62.9397 65.4031H62.9313C62.9183 65.4022 62.9057 65.3991 62.8941 65.3941C62.8825 65.389 62.8722 65.3821 62.8638 65.3736C62.8554 65.3652 62.849 65.3554 62.845 65.3449C62.8411 65.3344 62.8396 65.3233 62.8407 65.3123L63.7448 56.0995C63.7455 56.0884 63.7489 56.0775 63.7548 56.0675C63.7606 56.0576 63.7688 56.0487 63.7788 56.0415C63.7888 56.0343 63.8004 56.029 63.813 56.0257C63.8255 56.0224 63.8387 56.0214 63.8517 56.0226C63.8647 56.0235 63.8774 56.0266 63.8889 56.0316C63.9005 56.0367 63.9108 56.0436 63.9192 56.0521C63.9277 56.0605 63.934 56.0703 63.938 56.0808C63.942 56.0913 63.9435 56.1024 63.9424 56.1134L63.0382 65.3262C63.0361 65.3472 63.0248 65.3667 63.0066 65.3809C62.9883 65.3952 62.9644 65.4031 62.9397 65.4031Z" fill="#0C0C0C"/>
<path d="M68.5389 72.5617L76.1805 52.6361C76.3148 52.2859 76.5763 51.9808 76.9275 51.7645C77.2788 51.5481 77.7017 51.4315 78.1358 51.4315H109.269C109.593 51.4315 109.913 51.4967 110.203 51.6217C110.492 51.7466 110.742 51.9279 110.933 52.1507C111.123 52.3734 111.249 52.6313 111.3 52.9032C111.35 53.1751 111.325 53.4533 111.224 53.7151L103.582 73.6407C103.448 73.9909 103.187 74.296 102.835 74.5124C102.484 74.7287 102.061 74.8453 101.627 74.8453H70.4941C70.1696 74.8453 69.8496 74.7801 69.5605 74.6552C69.2713 74.5302 69.0212 74.3489 68.8304 74.1261C68.6397 73.9034 68.5139 73.6455 68.4632 73.3736C68.4125 73.1017 68.4385 72.8235 68.5389 72.5617Z" fill="#292A2E"/>
<path opacity="0.2" d="M68.5389 72.5617L76.1805 52.6361C76.3148 52.2859 76.5763 51.9808 76.9275 51.7645C77.2788 51.5481 77.7017 51.4315 78.1358 51.4315H109.269C109.593 51.4315 109.913 51.4967 110.203 51.6217C110.492 51.7466 110.742 51.9279 110.933 52.1507C111.123 52.3734 111.249 52.6313 111.3 52.9032C111.35 53.1751 111.325 53.4533 111.224 53.7151L103.582 73.6407C103.448 73.9909 103.187 74.296 102.835 74.5124C102.484 74.7287 102.061 74.8453 101.627 74.8453H70.4941C70.1696 74.8453 69.8496 74.7801 69.5605 74.6552C69.2713 74.5302 69.0212 74.3489 68.8304 74.1261C68.6397 73.9034 68.5139 73.6455 68.4632 73.3736C68.4125 73.1017 68.4385 72.8235 68.5389 72.5617Z" fill="white"/>
<path d="M74.7725 73.2299H53.9319C53.4127 73.2299 52.9917 73.5869 52.9917 74.0274V74.0479C52.9917 74.4884 53.4127 74.8455 53.9319 74.8455H74.7725C75.2918 74.8455 75.7127 74.4884 75.7127 74.0479V74.0274C75.7127 73.5869 75.2918 73.2299 74.7725 73.2299Z" fill="#292A2E"/>
<path opacity="0.2" d="M74.7725 73.2299H53.9319C53.4127 73.2299 52.9917 73.5869 52.9917 74.0274V74.0479C52.9917 74.4884 53.4127 74.8455 53.9319 74.8455H74.7725C75.2918 74.8455 75.7127 74.4884 75.7127 74.0479V74.0274C75.7127 73.5869 75.2918 73.2299 74.7725 73.2299Z" fill="white"/>
<path d="M89.8814 66.8803C91.6848 66.8803 93.1466 65.6403 93.1466 64.1106C93.1466 62.581 91.6848 61.3409 89.8814 61.3409C88.0781 61.3409 86.6162 62.581 86.6162 64.1106C86.6162 65.6403 88.0781 66.8803 89.8814 66.8803Z" fill="white"/>
<path d="M64.6243 48.1094H56.3457V56.7215H64.6243V48.1094Z" fill="white"/>
<path d="M56.3458 55.291C55.6752 55.291 55.0198 55.1224 54.4623 54.8064C53.9048 54.4904 53.4702 54.0413 53.2136 53.5158C52.957 52.9903 52.8899 52.4121 53.0207 51.8543C53.1515 51.2965 53.4744 50.7841 53.9485 50.3819C54.4227 49.9797 55.0267 49.7058 55.6844 49.5949C56.342 49.4839 57.0236 49.5409 57.6431 49.7585C58.2626 49.9762 58.7921 50.3448 59.1646 50.8177C59.5371 51.2906 59.7359 51.8465 59.7359 52.4153C59.7349 53.1777 59.3774 53.9087 58.7419 54.4478C58.1063 54.9869 57.2446 55.2902 56.3458 55.291ZM56.3458 50.7176C55.9499 50.7176 55.5628 50.8172 55.2337 51.0037C54.9045 51.1903 54.6479 51.4555 54.4964 51.7658C54.3449 52.076 54.3053 52.4174 54.3826 52.7468C54.4598 53.0761 54.6505 53.3787 54.9304 53.6161C55.2104 53.8536 55.5671 54.0153 55.9554 54.0808C56.3437 54.1463 56.7461 54.1126 57.1119 53.9841C57.4776 53.8555 57.7902 53.6379 58.0102 53.3587C58.2301 53.0794 58.3475 52.7511 58.3474 52.4153C58.3469 51.9652 58.1358 51.5336 57.7605 51.2153C57.3853 50.897 56.8764 50.718 56.3458 50.7176Z" fill="white"/>
<path d="M56.823 53.6911C56.7475 53.5248 56.6055 53.3863 56.4217 53.2999C56.2379 53.2135 56.0242 53.1847 55.8179 53.2185C55.8218 53.2104 55.8239 53.2018 55.824 53.1931L56.1017 53.0878C56.2963 53.0176 56.4563 52.8926 56.5546 52.7338C56.653 52.5751 56.6837 52.3924 56.6415 52.2167C56.6123 52.107 56.5548 52.0041 56.4731 51.9156C56.3914 51.827 56.2876 51.7549 56.169 51.7044C56.0505 51.654 55.9203 51.6265 55.7878 51.624C55.6552 51.6214 55.5236 51.6438 55.4025 51.6896L54.7475 51.9381C54.7475 51.9359 54.7475 51.9337 54.7461 51.9315C54.7436 51.927 54.7404 51.9229 54.7366 51.9191C54.898 51.8159 55.0134 51.6694 55.064 51.5034C55.1146 51.3375 55.0974 51.1619 55.0153 51.0052C54.8334 50.5878 54.1887 50.5545 53.7625 50.7158L52.0498 51.3019L52.5667 50.8572C52.7287 50.7122 52.8197 50.5204 52.8214 50.3207C52.8231 50.121 52.7353 49.9281 52.5759 49.7812C52.4904 49.7078 52.3881 49.6499 52.2754 49.6112C52.1626 49.5724 52.0418 49.5535 51.9201 49.5557C51.7985 49.5579 51.6787 49.5811 51.568 49.6238C51.4573 49.6666 51.358 49.728 51.2762 49.8044L45.1865 55.4457L47.2693 57.1472C47.916 57.6757 48.7341 58.0283 49.6186 58.1598C50.5031 58.2913 51.4138 58.1957 52.2339 57.8853L55.9456 56.4738C56.1402 56.4037 56.3002 56.2786 56.3986 56.1199C56.4969 55.9611 56.5276 55.7784 56.4854 55.6027C56.4432 55.445 56.3428 55.3028 56.1987 55.1969C56.0546 55.0909 55.8744 55.0268 55.6844 55.0138C55.6865 55.0051 55.6865 54.9961 55.6845 54.9873C55.6825 54.9786 55.6784 54.9703 55.6725 54.9629C55.6667 54.9555 55.6592 54.9491 55.6504 54.9442C55.6416 54.9393 55.6318 54.9359 55.6215 54.9342L56.3068 54.6748C56.5238 54.5969 56.6978 54.4519 56.7936 54.2693C56.8895 54.0867 56.8999 53.8801 56.823 53.6911Z" fill="#E98862"/>
<path opacity="0.2" d="M53.5088 52.4154C53.4892 52.4155 53.4701 52.4097 53.4549 52.3991C53.4398 52.3885 53.4295 52.3738 53.4258 52.3574C53.4221 52.341 53.4253 52.3241 53.4348 52.3095C53.4443 52.2949 53.4596 52.2836 53.4779 52.2776L54.6363 51.8906C54.6466 51.8871 54.6575 51.8855 54.6686 51.8856C54.6796 51.8858 54.6905 51.8878 54.7006 51.8915C54.7108 51.8953 54.7199 51.9007 54.7276 51.9074C54.7353 51.9141 54.7413 51.9221 54.7454 51.9308C54.7494 51.9395 54.7514 51.9488 54.7512 51.9582C54.751 51.9676 54.7487 51.9768 54.7443 51.9854C54.7399 51.994 54.7335 52.0018 54.7256 52.0083C54.7176 52.0148 54.7083 52.0199 54.698 52.0233L53.5395 52.4103C53.5298 52.4136 53.5193 52.4153 53.5088 52.4154Z" fill="#0C0C0C"/>
<path opacity="0.2" d="M54.1552 53.8049C54.1357 53.8049 54.1168 53.7991 54.1018 53.7885C54.0868 53.778 54.0765 53.7633 54.0728 53.7471C54.0691 53.7309 54.0722 53.714 54.0815 53.6995C54.0908 53.685 54.1058 53.6736 54.1238 53.6674L55.7083 53.1268C55.7288 53.1207 55.7512 53.1216 55.7709 53.1292C55.7906 53.1368 55.8061 53.1505 55.8142 53.1675C55.8223 53.1846 55.8223 53.2036 55.8143 53.2207C55.8062 53.2377 55.7907 53.2515 55.771 53.2591L54.1867 53.7999C54.1766 53.8032 54.166 53.8049 54.1552 53.8049Z" fill="#0C0C0C"/>
<path opacity="0.2" d="M54.8468 55.3135C54.8271 55.3135 54.808 55.3076 54.7929 55.2969C54.7778 55.2862 54.7676 55.2713 54.764 55.2549C54.7605 55.2384 54.7639 55.2215 54.7737 55.2069C54.7834 55.1924 54.7988 55.1812 54.8173 55.1753L55.5726 54.9349C55.5935 54.9282 55.6167 54.9288 55.637 54.9366C55.6574 54.9444 55.6732 54.9588 55.6811 54.9765C55.689 54.9942 55.6883 55.0138 55.6791 55.0311C55.6699 55.0484 55.653 55.0618 55.6321 55.0685L54.8768 55.3089C54.8672 55.312 54.857 55.3135 54.8468 55.3135Z" fill="#0C0C0C"/>
<path d="M58.5843 42.6314C58.5478 42.6315 58.512 42.6229 58.4808 42.6068C58.4496 42.5906 58.4243 42.5675 58.4076 42.5399C57.9559 41.793 57.394 40.8632 57.4574 39.8885C57.5078 39.1133 57.9363 38.4247 58.3501 37.7595C58.6175 37.3575 58.8454 36.9375 59.0314 36.5037C59.2585 35.9051 59.3157 35.2695 59.1985 34.6486C59.0814 34.0277 58.793 33.4391 58.357 32.9305C58.3407 32.9128 58.3287 32.8925 58.3218 32.8708C58.3149 32.8491 58.3131 32.8265 58.3167 32.8042C58.3203 32.7819 58.3291 32.7605 58.3426 32.7411C58.3561 32.7218 58.3741 32.7049 58.3954 32.6916C58.4167 32.6782 58.441 32.6686 58.4667 32.6633C58.4925 32.6581 58.5193 32.6572 58.5454 32.6609C58.5716 32.6645 58.5966 32.6726 58.619 32.6845C58.6415 32.6965 58.6608 32.7122 58.676 32.7306C59.1496 33.2825 59.4629 33.9214 59.5905 34.5954C59.718 35.2693 59.6561 35.9593 59.4099 36.6092C59.2172 37.0609 58.9806 37.4982 58.7026 37.9167C58.29 38.5795 57.9004 39.2054 57.8548 39.9072C57.7972 40.7907 58.3098 41.6386 58.7619 42.3865C58.7774 42.4121 58.7848 42.4407 58.7836 42.4695C58.7823 42.4983 58.7723 42.5263 58.7546 42.5509C58.7369 42.5755 58.7121 42.5958 58.6825 42.6099C58.6529 42.624 58.6195 42.6314 58.5855 42.6314H58.5843Z" fill="white"/>
<path d="M61.7696 45.2576C61.7256 45.2576 61.6829 45.2452 61.6481 45.2224C61.6134 45.1996 61.5886 45.1676 61.5776 45.1314C61.5666 45.0953 61.57 45.0571 61.5874 45.0229C61.6048 44.9886 61.6351 44.9602 61.6736 44.9422C62.4087 44.5982 62.491 43.641 62.1457 42.9143C61.9744 42.5803 61.774 42.2576 61.5461 41.9489C61.2414 41.5488 60.9937 41.1196 60.8082 40.6701C60.6187 40.1221 60.6068 39.5409 60.7737 38.9876C60.9406 38.4344 61.2802 37.9295 61.7567 37.526C61.7946 37.4954 61.8451 37.4787 61.8974 37.4796C61.9497 37.4804 61.9995 37.4988 62.0359 37.5306C62.0723 37.5624 62.0925 37.6052 62.0919 37.6496C62.0914 37.6939 62.0702 37.7363 62.033 37.7675C61.6082 38.1273 61.3054 38.5775 61.1566 39.0709C61.0077 39.5642 61.0183 40.0825 61.1872 40.5712C61.3636 40.9952 61.5986 41.4001 61.8872 41.7772C62.1259 42.1003 62.3352 42.4383 62.5135 42.7883C62.9179 43.6392 62.8279 44.7864 61.865 45.2366C61.8358 45.2503 61.803 45.2576 61.7696 45.2576Z" fill="white"/>
<path d="M52.1688 59.9243L22.9602 70.1779C21.9071 70.5436 20.7512 70.6411 19.6338 70.4587C18.5164 70.2762 17.4859 69.8216 16.6681 69.1504C15.8504 68.4792 15.2808 67.6205 15.029 66.6792C14.7772 65.7379 14.8541 64.7548 15.2503 63.8499L23.9619 43.6667C25.0882 41.0944 28.261 39.6152 31.2937 40.5708C32.7499 41.0296 33.9317 41.9603 34.5789 43.1581C35.2262 44.356 35.286 45.7229 34.7452 46.9582L30.7716 56.511L47.8901 50.9129" fill="#367CFF"/>
<path d="M52.0978 60.0159C52.0822 60.0157 52.067 60.0118 52.0541 60.0044C52.0412 59.9971 52.0312 59.9866 52.0252 59.9745L47.7753 51.0231L30.7141 56.6083C30.7 56.6129 30.6845 56.614 30.6697 56.6113C30.6549 56.6087 30.6413 56.6024 30.6306 56.5933C30.6199 56.5842 30.6126 56.5727 30.6095 56.5601C30.6065 56.5475 30.6078 56.5344 30.6133 56.5225L33.2515 50.7788C33.259 50.7625 33.2739 50.7493 33.2929 50.7423C33.3118 50.7352 33.3333 50.7348 33.3526 50.7412C33.3719 50.7476 33.3874 50.7602 33.3957 50.7763C33.404 50.7924 33.4044 50.8106 33.3969 50.8269L30.823 56.4304L47.791 50.8757C47.8101 50.8695 47.8314 50.8699 47.8502 50.8768C47.869 50.8837 47.8838 50.8966 47.8915 50.9128L52.1702 59.9248C52.1776 59.9412 52.1773 59.9593 52.1692 59.9754C52.1611 59.9915 52.146 60.0044 52.1269 60.0111C52.1176 60.0143 52.1078 60.0159 52.0978 60.0159Z" fill="#0C0C0C"/>
<path d="M25.3555 58.3856C25.3372 58.3857 25.3195 58.3804 25.3053 58.3706C25.2912 58.3607 25.2816 58.347 25.2782 58.3318C25.2748 58.3165 25.2778 58.3008 25.2867 58.2872C25.2956 58.2737 25.3099 58.2632 25.3269 58.2577L30.6706 56.4742C30.6802 56.4708 30.6904 56.4691 30.7008 56.4692C30.7111 56.4692 30.7214 56.471 30.7309 56.4745C30.7405 56.4779 30.7491 56.4829 30.7563 56.4892C30.7635 56.4955 30.7692 56.503 30.773 56.5112C30.7768 56.5193 30.7787 56.5281 30.7784 56.5369C30.7782 56.5456 30.776 56.5543 30.7718 56.5623C30.7676 56.5704 30.7615 56.5776 30.754 56.5836C30.7465 56.5897 30.7376 56.5944 30.7279 56.5975L25.3841 58.381C25.375 58.384 25.3653 58.3856 25.3555 58.3856Z" fill="#0C0C0C"/>
<path d="M26.6003 68.9806C26.5822 68.9807 26.5646 68.9754 26.5506 68.9657C26.5366 68.9559 26.527 68.9424 26.5235 68.9273C26.5199 68.9122 26.5227 68.8966 26.5313 68.8831C26.5399 68.8696 26.5538 68.859 26.5705 68.8532L52.0688 59.8884C52.0783 59.8851 52.0885 59.8834 52.0987 59.8834C52.1089 59.8834 52.1191 59.8852 52.1285 59.8885C52.138 59.8918 52.1466 59.8967 52.1538 59.9029C52.1611 59.909 52.1668 59.9163 52.1707 59.9244C52.1746 59.9324 52.1766 59.941 52.1766 59.9497C52.1766 59.9584 52.1746 59.967 52.1706 59.975C52.1667 59.983 52.1609 59.9903 52.1537 59.9964C52.1464 60.0026 52.1378 60.0074 52.1284 60.0108L26.63 68.9755C26.6206 68.9789 26.6105 68.9806 26.6003 68.9806Z" fill="#0C0C0C"/>
<path d="M156.053 122.934C156 122.934 155.95 122.917 155.913 122.885C155.633 122.648 155.178 118.299 153.951 105.349C153.448 100.05 152.974 95.0451 152.628 92.0035C152.603 91.7863 152.504 91.7609 152.471 91.7526C151.998 91.6313 150.557 92.5951 149.752 93.4389C149.719 93.4736 149.671 93.4958 149.619 93.5005C149.567 93.5052 149.514 93.4921 149.473 93.464C149.433 93.436 149.406 93.3953 149.401 93.3509C149.395 93.3065 149.411 93.2621 149.444 93.2274C149.976 92.6694 151.71 91.2066 152.585 91.4302C152.762 91.4753 152.982 91.6055 153.023 91.971C153.369 95.0153 153.844 100.022 154.346 105.322C155.092 113.191 155.936 122.107 156.214 122.668C156.235 122.693 156.248 122.723 156.251 122.754C156.253 122.785 156.246 122.815 156.229 122.843C156.213 122.871 156.187 122.894 156.156 122.91C156.125 122.926 156.089 122.935 156.053 122.934Z" fill="#494949"/>
<path d="M152.119 97.5846C155.41 95.3466 156.501 91.8631 154.555 89.804C152.609 87.7449 148.364 87.89 145.072 90.1281C141.781 92.3661 140.69 95.8496 142.635 97.9087C144.581 99.9677 148.827 99.8226 152.119 97.5846Z" fill="#0CBC8B"/>
<path opacity="0.2" d="M152.119 97.5846C155.41 95.3466 156.501 91.8631 154.555 89.804C152.609 87.7449 148.364 87.89 145.072 90.1281C141.781 92.3661 140.69 95.8496 142.635 97.9087C144.581 99.9677 148.827 99.8226 152.119 97.5846Z" fill="white"/>
<path d="M143.558 98.4326C143.539 98.4326 143.521 98.428 143.505 98.4194C143.489 98.4108 143.476 98.3986 143.468 98.3841C143.46 98.3696 143.457 98.3535 143.46 98.3377C143.462 98.3218 143.47 98.3069 143.482 98.2946L152.863 88.699C152.871 88.6903 152.881 88.683 152.893 88.6777C152.904 88.6724 152.917 88.669 152.93 88.6679C152.943 88.6668 152.956 88.6679 152.969 88.6711C152.982 88.6744 152.993 88.6798 153.003 88.6869C153.014 88.694 153.022 88.7028 153.028 88.7127C153.034 88.7226 153.038 88.7335 153.039 88.7446C153.04 88.7558 153.038 88.767 153.034 88.7776C153.03 88.7882 153.024 88.7981 153.015 88.8065L143.635 98.4021C143.625 98.4116 143.614 98.4193 143.6 98.4246C143.587 98.4298 143.573 98.4326 143.558 98.4326Z" fill="white"/>
<path d="M158.099 120.877C158.067 120.877 158.036 120.871 158.008 120.859C157.98 120.846 157.955 120.829 157.937 120.807C157.919 120.785 157.907 120.759 157.902 120.733C157.898 120.706 157.901 120.679 157.911 120.654L161.435 112.058C161.539 111.805 161.716 111.579 161.949 111.399C162.183 111.22 162.466 111.093 162.773 111.03C163.079 110.967 163.399 110.971 163.704 111.04C164.008 111.11 164.287 111.243 164.515 111.427L166.378 112.937C166.416 112.968 166.438 113.01 166.44 113.055C166.441 113.099 166.421 113.143 166.385 113.175C166.348 113.207 166.298 113.226 166.246 113.227C166.193 113.228 166.142 113.211 166.104 113.18L164.241 111.671C164.061 111.525 163.841 111.42 163.601 111.365C163.36 111.311 163.108 111.308 162.866 111.357C162.624 111.407 162.4 111.507 162.216 111.649C162.031 111.79 161.892 111.969 161.81 112.169L158.286 120.764C158.273 120.797 158.247 120.826 158.214 120.846C158.18 120.866 158.14 120.877 158.099 120.877Z" fill="#494949"/>
<path d="M171.583 117.696C174.022 116.058 173.877 112.456 171.259 109.65C168.641 106.845 164.541 105.898 162.102 107.536C159.662 109.174 159.807 112.776 162.426 115.581C165.044 118.387 169.144 119.334 171.583 117.696Z" fill="#0CBC8B"/>
<path d="M154.452 122.386C154.407 122.386 154.364 122.374 154.329 122.35C154.294 122.327 154.269 122.294 154.259 122.257L148.346 101.285C148.305 101.142 148.219 101.011 148.097 100.907C147.975 100.803 147.821 100.729 147.652 100.695C147.484 100.66 147.308 100.665 147.142 100.71C146.977 100.755 146.83 100.837 146.717 100.948L144.894 102.735C144.877 102.752 144.856 102.765 144.833 102.775C144.809 102.785 144.784 102.791 144.758 102.793C144.732 102.794 144.706 102.792 144.681 102.785C144.657 102.778 144.634 102.767 144.614 102.752C144.594 102.738 144.578 102.72 144.566 102.7C144.555 102.681 144.548 102.659 144.546 102.637C144.544 102.615 144.547 102.593 144.556 102.572C144.564 102.551 144.577 102.531 144.594 102.515L146.417 100.728C146.578 100.57 146.787 100.453 147.022 100.39C147.256 100.326 147.507 100.319 147.746 100.369C147.985 100.418 148.204 100.523 148.377 100.67C148.551 100.818 148.673 101.004 148.731 101.207L154.644 122.18C154.656 122.223 154.648 122.269 154.62 122.307C154.593 122.345 154.548 122.372 154.497 122.382C154.482 122.385 154.467 122.386 154.452 122.386Z" fill="#494949"/>
<path d="M152.271 107.394C152.99 103.868 151.087 100.645 148.022 100.195C144.956 99.7457 141.889 102.24 141.17 105.765C140.451 109.291 142.353 112.514 145.419 112.964C148.484 113.414 151.552 110.92 152.271 107.394Z" fill="#0CBC8B"/>
<path d="M156.053 122.934C156.045 122.934 156.037 122.934 156.029 122.933C155.977 122.928 155.929 122.905 155.897 122.87C155.864 122.835 155.85 122.79 155.856 122.746L159.632 96.7401C159.673 96.4567 159.81 96.1894 160.026 95.9703C160.242 95.7512 160.528 95.5898 160.849 95.5053C161.171 95.4209 161.514 95.417 161.838 95.4943C162.162 95.5715 162.453 95.7265 162.676 95.9407L166.992 100.087C167.027 100.121 167.044 100.164 167.041 100.209C167.038 100.253 167.014 100.295 166.974 100.325C166.935 100.354 166.883 100.369 166.831 100.366C166.778 100.364 166.729 100.343 166.694 100.31L162.378 96.1633C162.206 95.9978 161.981 95.8779 161.731 95.8183C161.48 95.7586 161.215 95.7616 160.966 95.827C160.718 95.8924 160.497 96.0173 160.33 96.1867C160.163 96.3562 160.057 96.5629 160.026 96.782L156.249 122.787C156.243 122.827 156.22 122.865 156.184 122.892C156.148 122.919 156.102 122.934 156.053 122.934Z" fill="#494949"/>
<path d="M171.418 102.391C172.923 100.082 171.152 96.8059 167.46 95.0739C163.769 93.3419 159.556 93.8098 158.05 96.1189C156.544 98.4281 158.316 101.704 162.007 103.436C165.699 105.168 169.912 104.7 171.418 102.391Z" fill="#0CBC8B"/>
<path opacity="0.2" d="M171.583 117.696C174.022 116.058 173.877 112.456 171.259 109.65C168.641 106.845 164.541 105.898 162.102 107.536C159.662 109.174 159.807 112.776 162.426 115.581C165.044 118.387 169.144 119.334 171.583 117.696Z" fill="white"/>
<path opacity="0.5" d="M152.271 107.394C152.99 103.868 151.087 100.645 148.022 100.195C144.956 99.7457 141.889 102.24 141.17 105.765C140.451 109.291 142.353 112.514 145.419 112.964C148.484 113.414 151.552 110.92 152.271 107.394Z" fill="white"/>
<path opacity="0.5" d="M171.418 102.391C172.923 100.082 171.152 96.8059 167.46 95.0739C163.769 93.3419 159.556 93.8098 158.05 96.1189C156.544 98.4281 158.316 101.704 162.007 103.436C165.699 105.168 169.912 104.7 171.418 102.391Z" fill="white"/>
<path d="M160.883 145H151.223L149.623 118.785H162.483L160.883 145Z" fill="#292A2E"/>
<path opacity="0.3" d="M160.883 145H151.223L149.623 118.785H162.483L160.883 145Z" fill="white"/>
<path d="M171.583 117.779C171.569 117.779 171.554 117.776 171.54 117.771C171.527 117.765 171.515 117.757 171.506 117.747L162.024 107.587C162.008 107.569 162 107.547 162.003 107.525C162.006 107.503 162.019 107.483 162.04 107.469C162.061 107.455 162.087 107.448 162.113 107.451C162.139 107.454 162.163 107.465 162.179 107.482L171.661 117.643C171.673 117.655 171.68 117.67 171.682 117.686C171.684 117.702 171.681 117.717 171.673 117.732C171.665 117.746 171.652 117.758 171.636 117.766C171.62 117.775 171.602 117.779 171.583 117.779Z" fill="white"/>
<path d="M170.787 103.205C170.766 103.205 170.746 103.199 170.729 103.188L158.596 95.6741C158.585 95.6675 158.576 95.6593 158.57 95.6499C158.563 95.6404 158.558 95.63 158.556 95.619C158.554 95.6081 158.555 95.597 158.558 95.5862C158.561 95.5755 158.567 95.5654 158.574 95.5564C158.582 95.5475 158.592 95.54 158.603 95.5342C158.614 95.5285 158.626 95.5246 158.639 95.5229C158.652 95.5212 158.665 95.5217 158.678 95.5243C158.69 95.5269 158.702 95.5316 158.713 95.5381L170.846 103.053C170.862 103.064 170.875 103.078 170.881 103.095C170.887 103.112 170.887 103.13 170.881 103.147C170.874 103.163 170.862 103.178 170.845 103.188C170.828 103.199 170.808 103.204 170.787 103.204V103.205Z" fill="white"/>
<path d="M144.926 112.855C144.917 112.855 144.909 112.854 144.9 112.852C144.875 112.846 144.853 112.832 144.84 112.812C144.827 112.793 144.823 112.77 144.83 112.749L148.692 100.474C148.696 100.463 148.701 100.453 148.709 100.444C148.717 100.435 148.727 100.427 148.738 100.422C148.75 100.416 148.762 100.412 148.775 100.411C148.788 100.409 148.802 100.41 148.814 100.413C148.827 100.416 148.839 100.421 148.849 100.428C148.86 100.434 148.869 100.443 148.875 100.453C148.881 100.462 148.886 100.473 148.887 100.484C148.889 100.495 148.888 100.506 148.884 100.517L145.022 112.792C145.016 112.81 145.004 112.826 144.986 112.837C144.969 112.848 144.948 112.855 144.926 112.855Z" fill="white"/>
</svg>
