<svg width="211" height="145" viewBox="0 0 211 145" fill="none" xmlns="http://www.w3.org/2000/svg">
<path opacity="0.2" d="M63.1016 18.7977L62.9516 18.7603L15.3364 117.44L183.19 130.267L183.379 130.281L189.529 50.1754L189.541 50.0179L63.1016 18.7977ZM111.321 82.2577L15.9971 116.94L63.0925 19.3374L111.321 82.2577ZM111.6 82.5549L182.505 129.838L16.5063 117.154L111.6 82.5549ZM111.688 82.1175L63.5313 19.2891L188.741 50.2053L111.688 82.1175ZM183.041 129.744L112.023 82.3849L189.128 50.4512L183.041 129.744Z" fill="#367CFF"/>
<path d="M210.982 51.843C210.831 55.6419 209.752 59.3479 207.839 62.6445C205.925 65.941 203.234 68.7299 199.995 70.773C196.756 72.816 193.066 74.0524 189.239 74.3765C185.413 74.7006 181.563 74.1028 178.021 72.6341C176.359 71.9448 174.784 71.0685 173.325 70.0224C170.536 68.0295 168.215 65.464 166.521 62.5012V62.4986C164.714 59.3297 163.674 55.7892 163.482 52.1554C163.291 48.5215 163.954 44.8932 165.418 41.5555C166.882 38.2179 169.108 35.2618 171.921 32.9195C174.735 30.5772 178.058 28.9126 181.631 28.0564C185.203 27.2001 188.928 27.1756 192.512 27.9847C196.096 28.7939 199.441 30.4147 202.286 32.7197C205.13 35.0248 207.396 37.9513 208.905 41.2694C210.414 44.5875 211.125 48.2067 210.982 51.8428L210.982 51.843Z" fill="white"/>
<path opacity="0.09" d="M210.982 51.843C210.831 55.6419 209.752 59.3479 207.839 62.6445C205.925 65.941 203.234 68.7299 199.995 70.773C196.756 72.816 193.066 74.0524 189.239 74.3765C185.413 74.7006 181.563 74.1028 178.021 72.6341C176.359 71.9448 174.784 71.0685 173.325 70.0224C170.536 68.0295 168.215 65.464 166.521 62.5012V62.4986C164.714 59.3297 163.674 55.7892 163.482 52.1554C163.291 48.5215 163.954 44.8932 165.418 41.5555C166.882 38.2179 169.108 35.2618 171.921 32.9195C174.735 30.5772 178.058 28.9126 181.631 28.0564C185.203 27.2001 188.928 27.1756 192.512 27.9847C196.096 28.7939 199.441 30.4147 202.286 32.7197C205.13 35.0248 207.396 37.9513 208.905 41.2694C210.414 44.5875 211.125 48.2067 210.982 51.8428L210.982 51.843Z" fill="#367CFF"/>
<path d="M192.847 33.0068C192.847 33.0068 198.531 33.0758 196.571 40.8298L196.037 40.8556L194.954 40.9079" fill="#0C0C0C"/>
<path d="M186.5 48.9644C186.526 48.962 186.631 53.7985 192.31 53.5953C196.242 53.4552 197.801 49.3916 197.891 49.395C197.472 49.2899 196.765 49.1328 196.582 49.0268C195.977 48.6749 195.227 48.3039 195.074 47.1095C194.986 46.4211 195.318 42.9296 195.285 42.2354L189.216 43.3337C189.242 44.7985 189.698 48.2092 187.612 48.7296C187.265 48.8157 186.891 48.8927 186.5 48.9644Z" fill="#E98862"/>
<path opacity="0.52" d="M188.972 47.3955C189.078 47.0984 189.151 46.7906 189.189 46.4778C189.283 45.7643 189.298 45.0427 189.234 44.3259C190.463 44.2095 191.635 43.754 192.616 43.0112C192.712 43.4232 193.257 45.2327 193.07 45.6143C192.721 46.3361 191.162 47.4797 188.972 47.3955Z" fill="#0C0C0C"/>
<path d="M190.349 46.5408C192.729 46.3722 195.599 44.9383 195.699 41.7466L195.789 38.8673C195.888 35.6762 194.275 33.0373 191.241 32.9444C188.206 32.8508 185.856 35.3688 185.756 38.56L185.717 39.8347C185.711 40.2728 185.735 40.7108 185.789 41.1456C185.924 42.2955 186.133 44.0439 186.898 45.2377C187.62 46.3647 188.829 46.6481 190.349 46.5408Z" fill="#E98862"/>
<path d="M195.48 42.7134C196.402 42.7415 197.18 41.7875 197.209 40.8746C197.237 39.9616 196.505 39.435 195.583 39.4067L195.089 40.0039L194.687 42.6891L195.48 42.7134Z" fill="#E98862"/>
<path d="M185.912 42.109C186.079 42.3046 186.292 42.4558 186.533 42.5489C186.774 42.642 187.034 42.674 187.291 42.642C187.839 42.5736 188.203 42.7965 188.661 42.7517C189.046 42.7143 189.112 42.5384 189.768 42.5C192.301 42.3515 194.201 42.1934 194.325 39.0475L195.936 37.6304C195.936 37.6304 196.657 46.3483 191.893 47.5071C188.966 48.2187 186.221 47.9586 185.868 45.2374C185.581 43.0262 185.912 42.109 185.912 42.109Z" fill="#0C0C0C"/>
<path d="M187.112 40.2883C187.319 40.2883 187.486 40.1226 187.486 39.9181C187.486 39.7136 187.319 39.5479 187.112 39.5479C186.906 39.5479 186.738 39.7136 186.738 39.9181C186.738 40.1226 186.906 40.2883 187.112 40.2883Z" fill="#0C0C0C"/>
<path d="M190.454 40.2195C190.661 40.2195 190.828 40.0537 190.828 39.8492C190.828 39.6448 190.661 39.479 190.454 39.479C190.248 39.479 190.08 39.6448 190.08 39.8492C190.08 40.0537 190.248 40.2195 190.454 40.2195Z" fill="#0C0C0C"/>
<path d="M194.589 41.2296C194.589 41.2296 194.361 36.7077 192.982 36.4038C192.064 36.2013 189.806 37.4549 187.744 37.0268C186.841 36.8396 185.978 37.0456 185.882 37.4677C185.845 37.6347 185.131 36.1532 186.582 34.3505C187.738 32.9153 191.496 32.5115 193.168 33.019C197.798 34.4247 195.77 39.6097 195.77 39.6097L195.534 41.1629L194.589 41.2296Z" fill="#0C0C0C"/>
<path d="M196.693 37.5835C198.056 37.5835 199.16 36.49 199.16 35.1411C199.16 33.7922 198.056 32.6987 196.693 32.6987C195.33 32.6987 194.226 33.7922 194.226 35.1411C194.226 36.49 195.33 37.5835 196.693 37.5835Z" fill="#0C0C0C"/>
<g opacity="0.52">
<path opacity="0.52" d="M188.707 42.6069H188.701C188.404 42.5984 187.906 42.5516 187.912 42.3316C187.917 42.1492 188.478 40.1944 188.542 39.9719C188.548 39.9528 188.561 39.9366 188.578 39.927C188.596 39.9173 188.616 39.9149 188.636 39.9203C188.655 39.9258 188.671 39.9386 188.681 39.956C188.691 39.9733 188.693 39.9938 188.688 40.0129C188.439 40.8787 188.067 42.2117 188.064 42.3351C188.091 42.3879 188.397 42.4475 188.705 42.4563C188.725 42.4561 188.745 42.4637 188.759 42.4776C188.773 42.4915 188.782 42.5105 188.782 42.5304C188.782 42.5502 188.774 42.5694 188.76 42.5836C188.746 42.5978 188.727 42.6059 188.707 42.6061V42.6069Z" fill="#0C0C0C"/>
</g>
<path d="M187.802 38.6605C187.495 38.5705 187.169 38.564 186.858 38.6418C186.706 38.679 186.559 38.7387 186.424 38.819C186.291 38.8976 186.168 38.9927 186.058 39.1019C186.039 39.1188 186.028 39.1424 186.027 39.1676C186.025 39.1928 186.034 39.2175 186.051 39.2363C186.068 39.2551 186.092 39.2664 186.117 39.2678C186.143 39.2692 186.168 39.2605 186.187 39.2437L186.192 39.2388C186.295 39.1477 186.408 39.0696 186.53 39.0064C186.649 38.9435 186.778 38.899 186.912 38.8742C187.175 38.8233 187.447 38.8421 187.7 38.9287L187.71 38.9323C187.728 38.9391 187.747 38.9424 187.766 38.9419C187.785 38.9413 187.804 38.937 187.822 38.9292C187.839 38.9214 187.855 38.9102 187.868 38.8963C187.881 38.8824 187.891 38.866 187.898 38.8482C187.904 38.8304 187.907 38.8114 187.907 38.7924C187.906 38.7734 187.901 38.7548 187.893 38.7377C187.885 38.7205 187.873 38.7051 187.859 38.6924C187.844 38.6797 187.828 38.67 187.81 38.6637L187.802 38.6605Z" fill="#0C0C0C"/>
<path d="M190.005 38.9294C190.249 38.8186 190.518 38.7737 190.785 38.7992C190.92 38.8109 191.053 38.843 191.178 38.8942C191.306 38.9453 191.426 39.012 191.536 39.0929L191.542 39.097C191.563 39.1103 191.588 39.1152 191.612 39.1109C191.636 39.1065 191.658 39.0932 191.672 39.0736C191.687 39.0539 191.693 39.0296 191.69 39.0054C191.687 38.9813 191.675 38.9592 191.656 38.9438C191.536 38.8457 191.404 38.7628 191.264 38.6973C191.122 38.6305 190.97 38.5851 190.814 38.5627C190.498 38.5155 190.174 38.5534 189.877 38.6726C189.842 38.6875 189.815 38.7154 189.801 38.7503C189.786 38.7851 189.787 38.8241 189.801 38.8588C189.816 38.8936 189.843 38.9212 189.878 38.9358C189.913 38.9504 189.953 38.9508 189.988 38.9369L189.995 38.9339L190.005 38.9294Z" fill="#0C0C0C"/>
<path d="M205.158 61.0418C204.946 62.6229 204.74 64.7947 204.555 67.0403C203.835 67.7994 203.064 68.5104 202.249 69.1688C201.731 69.5856 201.196 69.9817 200.644 70.3573C197.662 72.3724 194.256 73.6901 190.684 74.2107C187.112 74.7313 183.467 74.4411 180.024 73.3623C179.978 71.2764 179.914 68.4628 179.85 65.8852C179.777 62.9119 179.704 60.2496 179.664 59.3749C179.501 55.9032 178.571 53.5869 179.274 51.6928C179.484 51.1321 179.822 50.627 180.261 50.2165C181.899 48.6301 185.966 48.6663 187.597 48.729C187.626 48.7301 187.122 52.457 192.489 52.4121C196.434 52.3801 196.73 49.0798 196.73 49.0798C196.73 49.0798 198.674 49.28 199.965 49.5019C202.077 49.868 203.45 50.6347 204.518 51.7797C205.515 52.8473 206.103 53.9807 205.158 61.0418Z" fill="#367CFF"/>
<path d="M173.603 49.0967L173.765 45.1199C173.769 45.0325 173.754 44.9452 173.722 44.8637C173.69 44.7822 173.641 44.7083 173.578 44.6466C173.515 44.5849 173.44 44.5369 173.358 44.5055C173.275 44.4742 173.187 44.4602 173.099 44.4645C172.936 44.4775 172.784 44.5498 172.672 44.6675C172.56 44.7851 172.496 44.9397 172.493 45.1012L172.458 45.954L171.324 43.2231C171.203 42.9172 170.857 42.6184 170.52 42.7751C170.386 42.827 170.273 42.9223 170.201 43.0454C170.129 43.1685 170.101 43.3122 170.122 43.453C170.119 43.4534 170.116 43.4541 170.113 43.4551C170.111 43.4563 170.109 43.4577 170.107 43.4592L169.921 42.9877C169.886 42.9003 169.832 42.8217 169.763 42.7575C169.694 42.6933 169.611 42.6453 169.521 42.6167C169.431 42.5882 169.335 42.58 169.241 42.5927C169.148 42.6054 169.058 42.6387 168.978 42.6901C168.855 42.7735 168.765 42.8963 168.722 43.0379C168.679 43.1794 168.687 43.3312 168.744 43.4678L168.823 43.6684C168.819 43.6734 168.815 43.6791 168.812 43.6854C168.727 43.5623 168.6 43.4731 168.454 43.4339C168.309 43.3947 168.154 43.408 168.017 43.4714C167.87 43.5453 167.756 43.6715 167.698 43.8248C167.641 43.9781 167.644 44.1473 167.707 44.2986L167.903 44.7971C167.896 44.792 167.887 44.7887 167.877 44.7877C167.868 44.7867 167.859 44.7878 167.85 44.7911C167.84 44.7956 167.831 44.8029 167.825 44.8121C167.718 44.7231 167.585 44.6714 167.446 44.6648C167.306 44.6582 167.168 44.6971 167.054 44.7755C166.935 44.8604 166.848 44.9825 166.808 45.1221C166.768 45.2617 166.777 45.4106 166.833 45.5447L168.493 49.7506C168.725 50.339 169.13 50.8453 169.655 51.2047C170.18 51.564 170.801 51.76 171.439 51.7675C171.989 51.774 172.52 51.5678 172.92 51.1928C173.319 50.8178 173.554 50.3035 173.577 49.7592L173.603 49.0967Z" fill="#E98862"/>
<g opacity="0.2">
<path opacity="0.2" d="M171.232 46.1618C171.217 46.1673 171.201 46.167 171.187 46.161C171.173 46.1549 171.162 46.1437 171.156 46.1296L170.081 43.5308C170.077 43.5236 170.076 43.5159 170.075 43.508C170.075 43.5001 170.076 43.4922 170.079 43.4849C170.082 43.4775 170.086 43.4708 170.092 43.4652C170.098 43.4595 170.104 43.4551 170.112 43.4521C170.119 43.4491 170.127 43.4476 170.135 43.4478C170.143 43.4479 170.151 43.4496 170.158 43.4529C170.165 43.4561 170.172 43.4608 170.177 43.4666C170.183 43.4725 170.187 43.4793 170.19 43.4868L171.265 46.0856C171.268 46.0926 171.269 46.1002 171.269 46.1078C171.269 46.1155 171.268 46.123 171.265 46.1301C171.262 46.1371 171.257 46.1435 171.252 46.1489C171.246 46.1543 171.24 46.1585 171.233 46.1614L171.232 46.1618Z" fill="#0C0C0C"/>
</g>
<g opacity="0.2">
<path opacity="0.2" d="M170.087 46.663C170.072 46.6685 170.056 46.6682 170.042 46.6621C170.028 46.6561 170.017 46.6447 170.011 46.6306L168.811 43.7303C168.806 43.7161 168.806 43.7003 168.812 43.6863C168.818 43.6723 168.829 43.6612 168.843 43.6554C168.858 43.6503 168.873 43.6507 168.887 43.6566C168.901 43.6625 168.913 43.6733 168.919 43.687L170.119 46.5873C170.125 46.6016 170.125 46.6176 170.119 46.6318C170.113 46.646 170.101 46.6573 170.087 46.6631V46.663Z" fill="#0C0C0C"/>
</g>
<g opacity="0.2">
<path opacity="0.2" d="M168.85 47.213C168.835 47.2185 168.819 47.2182 168.805 47.2122C168.791 47.2061 168.78 47.1947 168.774 47.1806L167.817 44.8672C167.811 44.8529 167.811 44.8369 167.817 44.8227C167.823 44.8085 167.835 44.7973 167.849 44.7914C167.863 44.7856 167.879 44.7857 167.894 44.7916C167.908 44.7976 167.92 44.8089 167.925 44.8232L168.883 47.136C168.889 47.1503 168.889 47.1663 168.883 47.1805C168.877 47.1947 168.865 47.206 168.851 47.2118L168.85 47.213Z" fill="#0C0C0C"/>
</g>
<path d="M186.901 55.3307L177.124 70.2106C176.769 70.7515 176.292 71.2044 175.732 71.5346C174.899 71.0797 174.095 70.5745 173.325 70.0216C171.682 68.8488 170.199 67.4729 168.909 65.9275L166.855 50.1659L175.074 48.8623L176.011 56.4491L179.766 50.7348L186.901 55.3307Z" fill="#367CFF"/>
<path d="M188.048 43.419C188.944 43.478 189.836 43.2393 190.58 42.7409C190.606 42.7237 190.636 42.7142 190.667 42.7134C190.698 42.7127 190.729 42.7207 190.756 42.7365C190.782 42.7524 190.804 42.7754 190.818 42.8029C190.832 42.8305 190.837 42.8614 190.834 42.892C190.774 43.4164 190.513 44.3808 189.401 44.5037C188.684 44.5829 188.164 44.0374 187.902 43.6746C187.883 43.6495 187.873 43.6198 187.871 43.589C187.87 43.5582 187.877 43.5276 187.892 43.5007C187.908 43.4739 187.93 43.4519 187.958 43.4374C187.985 43.423 188.017 43.4166 188.048 43.419Z" fill="white"/>
<path d="M207.809 62.7137C206.364 65.1795 204.48 67.3663 202.249 69.1684C201.731 69.5852 201.196 69.9813 200.644 70.3569L196.826 55.976L205.426 53.7368L207.809 62.7137Z" fill="#367CFF"/>
<path d="M200.728 70.3009C200.701 70.3185 200.671 70.3384 200.644 70.3571C200.618 70.3758 200.59 70.3946 200.563 70.412L197.652 59.4566L197.836 59.4092L200.728 70.3009Z" fill="#0C0C0C"/>
<path d="M179.873 66.5623C179.849 66.5613 179.827 66.5516 179.81 66.5351C179.793 66.5185 179.784 66.4964 179.782 66.473L179.595 62.3904C179.594 62.3656 179.603 62.3413 179.62 62.323C179.636 62.3046 179.66 62.2937 179.685 62.2926C179.71 62.2915 179.735 62.3002 179.753 62.317C179.772 62.3338 179.783 62.3572 179.784 62.382L179.971 66.4645C179.973 66.4893 179.964 66.5135 179.947 66.5318C179.93 66.5502 179.906 66.5611 179.881 66.5623H179.873Z" fill="#0C0C0C"/>
<path d="M109.143 104.342C122.529 104.342 133.38 93.5999 133.38 80.3493C133.38 67.0987 122.529 56.3569 109.143 56.3569C95.7576 56.3569 84.9062 67.0987 84.9062 80.3493C84.9062 93.5999 95.7576 104.342 109.143 104.342Z" fill="white"/>
<path opacity="0.09" d="M133.381 80.3486C133.381 86.7117 130.827 92.8142 126.282 97.3135C121.737 101.813 115.572 104.341 109.144 104.341V56.3566C112.33 56.3449 115.487 56.9576 118.433 58.1591C121.379 59.3607 124.055 61.1275 126.308 63.3577C128.561 65.5879 130.346 68.2374 131.56 71.1535C132.774 74.0696 133.392 77.1947 133.381 80.3486Z" fill="#367CFF"/>
<path d="M98.4146 66.1976C98.4146 66.1976 98.1709 69.8195 97.3476 71.1336C94.9779 74.9165 94.2914 79.1722 96.6645 81.3961C99.0376 83.62 114.174 83.6505 115.321 78.5365C116.286 74.2311 114.215 73.7681 113.711 70.2165C113.482 68.6095 112.855 65.2397 112.855 65.2397" fill="#0A0A0A"/>
<path d="M111.403 77.7861C111.377 77.7827 111.087 82.5452 105.498 82.1308C101.629 81.8439 100.249 77.7801 100.161 77.7801C100.578 77.6925 101.28 77.5647 101.466 77.467C102.075 77.1428 102.829 76.8057 103.025 75.6343C103.139 74.9602 102.947 71.5057 103.007 70.8228L108.946 72.135C108.863 73.577 108.282 76.9216 110.318 77.5134C110.655 77.6106 111.02 77.7007 111.403 77.7861Z" fill="#E98862"/>
<path opacity="0.5" d="M109.028 76.1462C108.935 75.8493 108.875 75.5433 108.849 75.2336C108.784 74.5269 108.797 73.8152 108.888 73.1113C107.681 72.9501 106.543 72.457 105.605 71.688C105.495 72.0912 104.888 73.8529 105.057 74.2362C105.375 74.96 106.865 76.1462 109.028 76.1462Z" fill="#0C0C0C"/>
<path d="M108.26 74.662C105.918 74.8868 102.888 73.959 102.261 70.8722L101.694 68.0869C101.067 65.0001 102.196 62.1714 105.132 61.5865C108.068 61.0015 110.771 63.0659 111.399 66.1535L111.65 67.3865C111.89 68.571 112.438 74.2618 108.26 74.662Z" fill="#E98862"/>
<path opacity="0.1" d="M106.771 70.6181C107.156 70.5725 107.441 70.3088 107.408 70.0289C107.374 69.7491 107.034 69.5591 106.649 69.6046C106.264 69.6501 105.979 69.9139 106.012 70.1937C106.046 70.4736 106.386 70.6636 106.771 70.6181Z" fill="#0C0C0C"/>
<path opacity="0.1" d="M110.843 69.4986C110.878 69.7778 111.217 69.9668 111.603 69.9226C111.669 69.9147 111.735 69.9 111.798 69.8787C111.816 69.5456 111.817 69.225 111.808 68.9283C111.701 68.9019 111.589 68.8956 111.48 68.9096C111.095 68.9544 110.81 69.218 110.843 69.4986Z" fill="#0C0C0C"/>
<path opacity="0.5" d="M109.14 70.3622H109.146C109.265 70.3375 109.383 70.3062 109.498 70.2686C109.67 70.2124 109.895 70.1179 109.865 69.9635C109.829 69.7875 108.957 67.9869 108.857 67.782C108.848 67.7652 108.832 67.7526 108.814 67.7467C108.795 67.7409 108.775 67.7423 108.758 67.7506C108.74 67.7589 108.727 67.7735 108.72 67.7914C108.713 67.8093 108.713 67.8291 108.721 67.8468C109.093 68.6146 109.692 69.8746 109.716 69.9929C109.697 70.0482 109.412 70.1561 109.116 70.2151C109.097 70.2193 109.081 70.2305 109.07 70.2463C109.06 70.2621 109.055 70.2813 109.058 70.3001C109.062 70.3189 109.072 70.3358 109.087 70.3474C109.102 70.359 109.121 70.3645 109.14 70.3626V70.3622Z" fill="#0C0C0C"/>
<path d="M99.3514 69.087L101.984 68.578C103.972 67.754 104.536 64.3247 104.536 64.3247C104.536 64.3247 106.99 66.6381 112.855 65.2392C112.855 65.2392 111.581 57.1348 102.921 59.5948C100.129 60.3879 98.1508 63.2054 98.445 66.937C98.651 69.5526 99.3514 69.087 99.3514 69.087Z" fill="#0A0A0A"/>
<path d="M102.634 71.7767C101.742 71.9545 100.826 71.1537 100.647 70.2703C100.469 69.3869 101.092 68.7558 101.984 68.5781L102.564 69.0783L103.402 71.6239L102.634 71.7767Z" fill="#E98862"/>
<path d="M109.49 66.3457C109.713 66.1892 109.974 66.0942 110.246 66.0704C110.383 66.0575 110.521 66.065 110.656 66.0927C110.791 66.12 110.923 66.1641 111.048 66.2238L111.052 66.2255C111.065 66.231 111.081 66.231 111.094 66.2257C111.108 66.2203 111.119 66.21 111.126 66.1967C111.132 66.1835 111.133 66.1683 111.128 66.1544C111.124 66.1405 111.114 66.1289 111.101 66.1219C110.969 66.0529 110.829 66.0007 110.683 65.9665C110.537 65.9312 110.386 65.918 110.236 65.9271C109.932 65.9438 109.638 66.0408 109.385 66.208C109.375 66.2142 109.367 66.2223 109.36 66.2318C109.353 66.2413 109.349 66.252 109.347 66.2633C109.344 66.2745 109.344 66.2862 109.346 66.2975C109.349 66.3088 109.353 66.3195 109.36 66.329C109.366 66.3385 109.375 66.3466 109.385 66.3529C109.394 66.3591 109.405 66.3633 109.417 66.3653C109.428 66.3672 109.44 66.3669 109.451 66.3643C109.463 66.3616 109.473 66.3568 109.483 66.35L109.485 66.3487L109.49 66.3457Z" fill="#0C0C0C"/>
<path d="M107.085 66.6749C106.786 66.6161 106.477 66.6378 106.189 66.7377C106.047 66.7862 105.913 66.8556 105.792 66.9437C105.671 67.0304 105.562 67.1318 105.466 67.2455C105.457 67.2569 105.452 67.2715 105.453 67.2863C105.454 67.3011 105.46 67.3149 105.472 67.3249C105.483 67.3349 105.497 67.3403 105.512 67.3399C105.527 67.3394 105.541 67.3333 105.552 67.3227L105.555 67.3195C105.647 67.217 105.751 67.1263 105.866 67.0497C105.98 66.973 106.104 66.9137 106.236 66.8738C106.496 66.7928 106.774 66.7816 107.041 66.8414L107.048 66.8429C107.059 66.8458 107.071 66.8465 107.082 66.845C107.093 66.8434 107.104 66.8396 107.114 66.8337C107.124 66.8278 107.133 66.8201 107.14 66.8109C107.147 66.8017 107.152 66.7912 107.154 66.7801C107.157 66.7689 107.158 66.7574 107.156 66.7461C107.154 66.7348 107.15 66.724 107.144 66.7143C107.138 66.7046 107.129 66.6962 107.12 66.6896C107.111 66.683 107.1 66.6783 107.089 66.6759L107.085 66.6749Z" fill="#0C0C0C"/>
<path d="M101.986 68.5353C103.755 67.8834 104.342 66.6738 104.523 65.7736C104.64 65.1733 104.629 64.5554 104.491 63.9595L104.436 63.9745C104.572 64.5626 104.583 65.1724 104.467 65.7648C104.289 66.65 103.71 67.8403 101.966 68.4827L101.986 68.5353Z" fill="#0C0C0C"/>
<path d="M124.357 76.8381L125.416 73.2799C125.44 73.2017 125.479 73.1292 125.532 73.067C125.585 73.0047 125.651 72.9541 125.725 72.9183C125.799 72.8826 125.88 72.8625 125.962 72.8593C126.044 72.856 126.126 72.8698 126.203 72.8997C126.342 72.9593 126.455 73.068 126.518 73.2049C126.581 73.3418 126.591 73.4971 126.545 73.6406L126.318 74.4035L128.144 72.3289C128.343 72.0946 128.738 71.9332 128.989 72.1716C129.092 72.257 129.162 72.3743 129.188 72.5044C129.215 72.6344 129.196 72.7695 129.135 72.8875C129.138 72.8888 129.14 72.8904 129.143 72.8922C129.144 72.8939 129.146 72.8957 129.147 72.8977L129.454 72.5364C129.51 72.4696 129.582 72.4161 129.662 72.38C129.742 72.3439 129.83 72.3259 129.918 72.3275C130.006 72.3291 130.093 72.3501 130.172 72.3891C130.251 72.4281 130.321 72.4841 130.375 72.5529C130.458 72.663 130.501 72.7981 130.496 72.9357C130.491 73.0732 130.438 73.2048 130.347 73.3085L130.216 73.4623C130.219 73.4681 130.221 73.4745 130.221 73.481C130.334 73.3975 130.473 73.3563 130.613 73.3649C130.753 73.3734 130.886 73.4311 130.988 73.5276C131.095 73.6364 131.158 73.7815 131.162 73.9339C131.167 74.0862 131.113 74.2347 131.012 74.3496L130.687 74.7312C130.696 74.729 130.705 74.7288 130.713 74.7306C130.722 74.7324 130.73 74.7362 130.736 74.7417C130.744 74.7487 130.75 74.7578 130.752 74.7678C130.873 74.721 131.007 74.715 131.132 74.7507C131.257 74.7864 131.367 74.8618 131.444 74.9653C131.523 75.0755 131.563 75.2088 131.556 75.3439C131.549 75.4789 131.496 75.6077 131.406 75.7094L128.67 78.9304C128.287 79.3809 127.777 79.708 127.205 79.8697C126.633 80.0314 126.026 80.0203 125.46 79.838C124.973 79.6808 124.566 79.3416 124.327 78.8925C124.089 78.4434 124.036 77.9197 124.181 77.4328L124.357 76.8381Z" fill="#E98862"/>
<g opacity="0.2">
<path opacity="0.2" d="M127.337 74.9509C127.348 74.9597 127.362 74.9639 127.376 74.9628C127.39 74.9616 127.403 74.9551 127.412 74.9447L129.147 72.9695C129.156 72.9587 129.161 72.9445 129.16 72.9302C129.159 72.9159 129.152 72.9025 129.141 72.8931C129.13 72.8837 129.116 72.879 129.101 72.88C129.087 72.881 129.073 72.8877 129.064 72.8986L127.33 74.8735C127.325 74.8789 127.321 74.8851 127.319 74.8919C127.317 74.8986 127.316 74.9058 127.317 74.9129C127.317 74.92 127.319 74.9269 127.322 74.9332C127.325 74.9396 127.33 74.9453 127.335 74.9499L127.337 74.9509Z" fill="#0C0C0C"/>
</g>
<g opacity="0.2">
<path opacity="0.2" d="M128.195 75.7319C128.206 75.7407 128.22 75.7451 128.234 75.7439C128.249 75.7428 128.262 75.7362 128.271 75.7257L130.206 73.5215C130.211 73.5161 130.214 73.5099 130.217 73.5031C130.219 73.4964 130.22 73.4893 130.219 73.4822C130.219 73.4751 130.217 73.4681 130.214 73.4618C130.211 73.4554 130.206 73.4497 130.201 73.4451C130.19 73.4362 130.175 73.4318 130.161 73.4328C130.147 73.4338 130.133 73.4401 130.123 73.4505L128.19 75.6547C128.185 75.6601 128.181 75.6663 128.179 75.6731C128.177 75.6798 128.176 75.6869 128.176 75.694C128.177 75.7011 128.179 75.7081 128.182 75.7144C128.185 75.7208 128.19 75.7265 128.195 75.7311L128.195 75.7319Z" fill="#0C0C0C"/>
</g>
<g opacity="0.2">
<path opacity="0.2" d="M129.121 76.5829C129.132 76.5917 129.146 76.5961 129.16 76.5949C129.174 76.5938 129.187 76.5872 129.197 76.5767L130.74 74.8186C130.749 74.8076 130.753 74.7938 130.752 74.78C130.75 74.7662 130.744 74.7534 130.733 74.7443C130.722 74.7352 130.709 74.7304 130.695 74.731C130.681 74.7316 130.667 74.7375 130.658 74.7474L129.114 76.5057C129.109 76.5111 129.106 76.5173 129.103 76.5241C129.101 76.5308 129.1 76.5379 129.101 76.545C129.101 76.5521 129.103 76.5591 129.106 76.5654C129.11 76.5718 129.114 76.5775 129.119 76.5821L129.121 76.5829Z" fill="#0C0C0C"/>
</g>
<path d="M130.805 78.3907L126.709 96.7846C126.699 96.8258 126.69 96.8689 126.678 96.9101C125.759 97.8629 124.762 98.7403 123.699 99.5336C123.485 99.6911 123.271 99.8465 123.052 99.9963C122.916 100.011 122.78 100.019 122.643 100.019C121.913 100.019 121.196 99.8283 120.564 99.467C119.932 99.1058 119.406 98.5863 119.041 97.9607L111.235 84.5906L118.443 80.4689L120.886 84.6526L122.675 76.6167L130.805 78.3907Z" fill="#0CBC8B"/>
<path d="M118.199 86.7767C118.174 87.0687 118.125 87.5895 118.057 88.2749C117.717 91.7788 116.92 99.588 116.551 103.197C111.891 104.672 106.889 104.722 102.2 103.341H102.198C98.7345 102.315 95.5475 100.533 92.8712 98.1273C92.8863 94.9006 92.839 91.2713 92.6195 88.9379C91.9631 81.9655 92.5836 80.8739 93.6033 79.8645C93.6865 79.7821 93.7736 79.7016 93.8606 79.6229C94.9143 78.6753 96.2367 78.0573 98.1645 77.7987C99.4396 77.6285 101.358 77.5049 101.358 77.5049C101.358 77.5049 101.521 80.7595 105.393 80.9393C110.666 81.1848 110.314 77.5049 110.34 77.5049C111.666 77.5049 114.618 77.5873 116.479 78.5255C116.481 78.5255 116.481 78.5255 116.483 78.5274C116.858 78.708 117.199 78.9505 117.491 79.2446C119.623 81.4807 118.572 82.4369 118.199 86.7767Z" fill="#0CBC8B"/>
<path d="M109.925 70.9708C109.164 71.3537 108.296 71.4748 107.458 71.315C107.429 71.3096 107.399 71.3124 107.372 71.3232C107.344 71.334 107.321 71.3524 107.303 71.3761C107.286 71.3998 107.276 71.4278 107.274 71.457C107.272 71.4862 107.279 71.5153 107.293 71.5409C107.544 71.9766 108.136 72.7218 109.153 72.4182C109.809 72.2222 110.057 71.5536 110.149 71.1399C110.156 71.1113 110.154 71.0815 110.143 71.054C110.133 71.0264 110.115 71.0024 110.092 70.9846C110.068 70.9669 110.04 70.9561 110.011 70.9537C109.981 70.9512 109.952 70.9572 109.925 70.9708Z" fill="white"/>
<path d="M109.973 67.6213C110.176 67.6213 110.341 67.4584 110.341 67.2574C110.341 67.0565 110.176 66.8936 109.973 66.8936C109.77 66.8936 109.605 67.0565 109.605 67.2574C109.605 67.4584 109.77 67.6213 109.973 67.6213Z" fill="#0C0C0C"/>
<path d="M106.44 68.2331C106.643 68.2331 106.808 68.0702 106.808 67.8692C106.808 67.6683 106.643 67.5054 106.44 67.5054C106.237 67.5054 106.073 67.6683 106.073 67.8692C106.073 68.0702 106.237 68.2331 106.44 68.2331Z" fill="#0C0C0C"/>
<path d="M117.386 94.6318C117.384 94.632 117.381 94.632 117.379 94.6318C117.364 94.6298 117.351 94.622 117.342 94.6101C117.333 94.5982 117.329 94.5833 117.331 94.5685L117.98 88.0872C117.981 88.0798 117.984 88.0727 117.987 88.0663C117.991 88.0598 117.996 88.0542 118.002 88.0497C118.008 88.0452 118.015 88.042 118.022 88.0402C118.03 88.0384 118.037 88.0381 118.045 88.0393C118.059 88.0413 118.073 88.0491 118.082 88.061C118.091 88.0729 118.095 88.0878 118.093 88.1026L117.443 94.5839C117.441 94.5973 117.434 94.6096 117.424 94.6184C117.413 94.6273 117.4 94.632 117.386 94.6318Z" fill="#0C0C0C"/>
<path d="M113.453 94.3201L117.005 92.7498C117.083 92.7155 117.167 92.6976 117.253 92.6973C117.338 92.6969 117.423 92.7142 117.501 92.7479C117.579 92.7816 117.649 92.8311 117.707 92.8932C117.765 92.9552 117.81 93.0285 117.837 93.1084C117.884 93.2576 117.873 93.4187 117.807 93.5604C117.74 93.7021 117.623 93.8143 117.478 93.8753L116.716 94.2124L119.602 94.2418C119.924 94.2396 120.319 94.44 120.297 94.7965C120.298 94.9343 120.252 95.0682 120.166 95.1766C120.08 95.2849 119.96 95.3613 119.824 95.3932C119.825 95.3961 119.826 95.3991 119.826 95.4022C119.825 95.4045 119.825 95.4068 119.824 95.4091L120.319 95.4057C120.411 95.4051 120.501 95.4247 120.584 95.4631C120.667 95.5016 120.741 95.5578 120.799 95.6277C120.857 95.6977 120.899 95.7796 120.921 95.8676C120.943 95.9555 120.945 96.0472 120.927 96.1361C120.896 96.2755 120.817 96.3999 120.703 96.4885C120.59 96.5772 120.45 96.6246 120.305 96.623L120.095 96.6245C120.092 96.6305 120.088 96.6361 120.083 96.6408C120.226 96.6725 120.352 96.7533 120.44 96.8688C120.528 96.9843 120.571 97.127 120.563 97.2713C120.549 97.429 120.475 97.5755 120.356 97.6817C120.238 97.7879 120.083 97.846 119.923 97.8444L119.4 97.8479C119.408 97.853 119.414 97.8598 119.418 97.8678C119.422 97.8757 119.425 97.8845 119.425 97.8934C119.424 97.904 119.421 97.9143 119.415 97.923C119.534 97.9862 119.629 98.0865 119.685 98.2083C119.741 98.3301 119.755 98.4668 119.724 98.5972C119.69 98.7334 119.61 98.8542 119.498 98.9399C119.386 99.0257 119.247 99.0714 119.106 99.0697L114.692 99.1008C114.075 99.1051 113.47 98.9268 112.956 98.5888C112.441 98.2507 112.04 97.7683 111.805 97.2033C111.602 96.7162 111.598 96.1698 111.795 95.6802C111.993 95.1906 112.375 94.7965 112.861 94.5815L113.453 94.3201Z" fill="#E98862"/>
<g opacity="0.2">
<path opacity="0.2" d="M116.967 95.3775C116.967 95.3924 116.973 95.4067 116.984 95.4172C116.995 95.4277 117.009 95.4337 117.024 95.4337L119.769 95.4582C119.784 95.4583 119.798 95.4525 119.809 95.4421C119.82 95.4316 119.826 95.4174 119.826 95.4025C119.826 95.3876 119.82 95.3732 119.81 95.3626C119.799 95.352 119.785 95.3459 119.77 95.3458L117.025 95.3213V95.4337C117.036 95.4337 117.047 95.4304 117.056 95.4242C117.065 95.418 117.073 95.4092 117.077 95.399C117.081 95.3887 117.082 95.3774 117.08 95.3665C117.078 95.3556 117.073 95.3456 117.065 95.3377C117.057 95.3299 117.047 95.3245 117.036 95.3224C117.025 95.3202 117.013 95.3213 117.003 95.3256C116.993 95.3298 116.984 95.337 116.977 95.3463C116.971 95.3555 116.968 95.3664 116.968 95.3775H116.967Z" fill="#0C0C0C"/>
</g>
<g opacity="0.2">
<path opacity="0.2" d="M116.923 96.5762C116.923 96.5911 116.929 96.6054 116.94 96.6159C116.95 96.6265 116.965 96.6324 116.98 96.6324L120.043 96.6597C120.058 96.6597 120.072 96.6538 120.083 96.6433C120.094 96.6327 120.1 96.6184 120.1 96.6035C120.099 96.5888 120.093 96.5747 120.082 96.5643C120.072 96.5538 120.058 96.5478 120.043 96.5474L116.98 96.52V96.6324C116.991 96.6324 117.002 96.6291 117.011 96.6229C117.021 96.6167 117.028 96.608 117.032 96.5977C117.036 96.5874 117.038 96.5761 117.035 96.5652C117.033 96.5543 117.028 96.5443 117.02 96.5365C117.012 96.5286 117.002 96.5233 116.991 96.5211C116.98 96.5189 116.968 96.52 116.958 96.5243C116.948 96.5286 116.939 96.5357 116.933 96.545C116.926 96.5542 116.923 96.5651 116.923 96.5762H116.923Z" fill="#0C0C0C"/>
</g>
<g opacity="0.2">
<path opacity="0.2" d="M116.868 97.8724C116.868 97.8873 116.874 97.9016 116.884 97.9121C116.895 97.9227 116.909 97.9286 116.924 97.9286L119.368 97.9505Cnan nan nan nan 119.368 97.9505L116.924 97.8164C116.909 97.8164 116.895 97.8223 116.884 97.8329C116.874 97.8434 116.868 97.8577 116.868 97.8726V97.8724Z" fill="#0C0C0C"/>
</g>
<path d="M114.47 100.581L102.2 103.341H102.198C98.7348 102.315 95.5478 100.533 92.8715 98.1275C92.5839 97.8691 92.3027 97.6044 92.0277 97.3333C91.5484 96.8598 91.09 96.3673 90.6523 95.8559L92.3701 82.1776C92.5575 81.0749 93.1797 80.0912 94.0999 79.4427C95.02 78.7942 96.1627 78.5341 97.2766 78.7196C98.3904 78.9051 99.3842 79.521 100.039 80.4319C100.694 81.3427 100.957 82.4739 100.77 83.5765L99.6839 96.4196L113.366 93.3538L114.47 100.581Z" fill="#0CBC8B"/>
<path d="M96.9161 96.9245C96.9087 96.9251 96.9012 96.9242 96.8941 96.9218C96.887 96.9195 96.8804 96.9159 96.8748 96.911C96.8691 96.9062 96.8645 96.9003 96.8611 96.8937C96.8577 96.8871 96.8557 96.8799 96.8551 96.8725C96.8546 96.8652 96.8555 96.8578 96.8578 96.8507C96.8602 96.8437 96.8639 96.8372 96.8687 96.8316C96.8736 96.826 96.8796 96.8214 96.8862 96.818C96.8929 96.8147 96.9002 96.8127 96.9076 96.8122L99.6508 96.2316C99.6582 96.2305 99.6657 96.2308 99.6729 96.2326C99.6802 96.2344 99.687 96.2375 99.693 96.2419C99.699 96.2463 99.7041 96.2518 99.708 96.2581C99.7118 96.2645 99.7144 96.2715 99.7155 96.2788C99.7166 96.2861 99.7162 96.2936 99.7144 96.3007C99.7126 96.3079 99.7094 96.3146 99.7049 96.3205C99.7005 96.3265 99.6949 96.3315 99.6885 96.3353C99.6821 96.3391 99.675 96.3416 99.6676 96.3427L96.9235 96.9232C96.9211 96.9239 96.9186 96.9243 96.9161 96.9245Z" fill="#0C0C0C"/>
<path d="M114.47 100.58C114.473 100.595 114.471 100.61 114.463 100.622C114.455 100.635 114.443 100.644 114.429 100.648L102.508 103.429C102.433 103.408 102.359 103.388 102.285 103.365L114.345 100.554L113.271 93.4379L99.6706 96.3423C99.6618 96.3437 99.6528 96.3431 99.6443 96.3406C99.6357 96.338 99.6279 96.3336 99.6214 96.3275C99.6158 96.3208 99.6115 96.313 99.6089 96.3047C99.6063 96.2963 99.6054 96.2875 99.6063 96.2788L100.369 88.9396C100.37 88.9324 100.373 88.9254 100.377 88.9192C100.381 88.913 100.386 88.9077 100.392 88.9035C100.398 88.8993 100.405 88.8963 100.413 88.8948C100.42 88.8932 100.428 88.8932 100.435 88.8945C100.45 88.8968 100.463 88.9048 100.472 88.9168C100.481 88.9287 100.484 88.9437 100.482 88.9584L99.7311 96.2227L113.296 93.3124C113.303 93.3104 113.311 93.31 113.318 93.3113C113.326 93.3126 113.333 93.3155 113.339 93.3199C113.346 93.3234 113.351 93.3282 113.356 93.3339C113.36 93.3397 113.364 93.3464 113.366 93.3535L114.47 100.58Z" fill="#0C0C0C"/>
<path d="M22.224 131.986C34.498 131.986 44.4481 122.136 44.4481 109.986C44.4481 97.8359 34.498 87.9863 22.224 87.9863C9.95004 87.9863 0 97.8359 0 109.986C0 122.136 9.95004 131.986 22.224 131.986Z" fill="white"/>
<path opacity="0.09" d="M22.224 131.986C34.498 131.986 44.4481 122.136 44.4481 109.986C44.4481 97.8359 34.498 87.9863 22.224 87.9863C9.95004 87.9863 0 97.8359 0 109.986C0 122.136 9.95004 131.986 22.224 131.986Z" fill="#367CFF"/>
<path d="M16.104 97.5091C16.104 97.5091 16.3448 104.135 20.8124 104.44L21.5691 95.7021L16.104 97.5091Z" fill="#0A0A0A"/>
<path d="M16.9645 105.793C18.4262 105.793 19.6112 104.62 19.6112 103.173C19.6112 101.726 18.4262 100.553 16.9645 100.553C15.5028 100.553 14.3179 101.726 14.3179 103.173C14.3179 104.62 15.5028 105.793 16.9645 105.793Z" fill="#0A0A0A"/>
<path d="M27.3203 107.514C27.2967 107.511 27.0352 111.808 21.9931 111.433C18.5025 111.175 17.2581 107.509 17.1782 107.509C17.5771 107.443 17.9706 107.349 18.3555 107.226C18.9051 106.934 19.5852 106.63 19.7623 105.573C19.8644 104.964 19.6913 101.849 19.7445 101.232L25.1025 102.416C25.0268 103.718 24.5036 106.734 26.3401 107.268C26.6455 107.357 26.9747 107.438 27.3203 107.514Z" fill="#E98862"/>
<path opacity="0.5" d="M25.1773 106.035C25.0933 105.767 25.0392 105.491 25.0161 105.211C24.9572 104.573 24.969 103.932 25.0511 103.297C23.9621 103.151 22.9361 102.706 22.0898 102.012C21.9903 102.376 21.4432 103.965 21.5947 104.311C21.8811 104.965 23.2268 106.035 25.1773 106.035Z" fill="#0C0C0C"/>
<path d="M24.3378 104.877C22.2158 104.904 19.5629 103.844 19.2341 101.022L18.9374 98.4755C18.6084 95.6537 19.8391 93.1944 22.5232 92.8886C25.2071 92.5822 27.4798 94.6405 27.8088 97.4626L27.9401 98.5897C28.0662 99.6731 28.1241 104.83 24.3378 104.877Z" fill="#E98862"/>
<path d="M27.1707 98.5143C27.3544 98.5143 27.5034 98.3668 27.5034 98.1849C27.5034 98.003 27.3544 97.8555 27.1707 97.8555C26.9869 97.8555 26.8379 98.003 26.8379 98.1849C26.8379 98.3668 26.9869 98.5143 27.1707 98.5143Z" fill="#0C0C0C"/>
<path d="M23.7698 98.8991C23.9536 98.8991 24.1026 98.7516 24.1026 98.5696C24.1026 98.3877 23.9536 98.2402 23.7698 98.2402C23.586 98.2402 23.437 98.3877 23.437 98.5696C23.437 98.7516 23.586 98.8991 23.7698 98.8991Z" fill="#0C0C0C"/>
<path opacity="0.5" d="M25.4575 101.078H25.4628C25.5715 101.065 25.6794 101.045 25.7861 101.02C25.9454 100.982 26.1554 100.915 26.1389 100.773C26.12 100.613 25.4732 98.9286 25.3994 98.7372C25.3962 98.729 25.3914 98.7214 25.3852 98.715C25.3791 98.7085 25.3717 98.7033 25.3635 98.6997C25.3554 98.6961 25.3466 98.6941 25.3376 98.6939C25.3287 98.6936 25.3198 98.6951 25.3114 98.6983C25.3031 98.7014 25.2954 98.7062 25.2889 98.7123C25.2824 98.7184 25.2772 98.7257 25.2735 98.7338C25.2699 98.7418 25.2679 98.7506 25.2676 98.7594C25.2674 98.7683 25.2689 98.7771 25.2721 98.7854C25.5481 99.5024 25.991 100.681 26.0034 100.789C25.8332 100.884 25.6424 100.937 25.4471 100.944C25.429 100.945 25.4123 100.954 25.4006 100.967C25.3888 100.981 25.383 100.998 25.3843 101.016C25.3857 101.034 25.3942 101.051 25.4079 101.062C25.4216 101.074 25.4394 101.08 25.4575 101.078V101.078Z" fill="#0C0C0C"/>
<path opacity="0.5" d="M24.9778 102.252C25.4137 102.227 25.8377 102.102 26.2156 101.885C26.2305 101.876 26.2412 101.862 26.2457 101.845C26.2501 101.828 26.2478 101.81 26.2393 101.795C26.2309 101.78 26.2168 101.769 26.2001 101.763C26.1834 101.758 26.1653 101.76 26.1496 101.767C25.3334 102.214 24.5529 102.24 23.8926 101.842C23.8793 101.834 23.8655 101.826 23.8514 101.819C23.835 101.813 23.8168 101.813 23.8006 101.819C23.7844 101.826 23.7713 101.838 23.7642 101.854C23.7571 101.87 23.7564 101.888 23.7623 101.905C23.7682 101.921 23.7803 101.934 23.7959 101.942C23.8011 101.945 23.8098 101.95 23.8217 101.957C24.1688 102.167 24.5714 102.27 24.9778 102.252Z" fill="#0C0C0C"/>
<path d="M16.7552 99.1996L19.1603 98.9387C21.0103 98.3473 21.7789 95.3056 21.7789 95.3056C21.7789 95.3056 23.4367 97.1718 28.3494 96.3197C28.3494 96.3197 28.1591 90.0502 20.6875 90.9328C18.0861 91.2405 16.1245 93.823 16.1042 97.1997C16.0902 99.5659 16.7552 99.1996 16.7552 99.1996Z" fill="#0A0A0A"/>
<path d="M19.501 101.863C18.6853 101.957 17.9234 101.168 17.8294 100.361C17.7354 99.5531 18.3446 99.0325 19.1603 98.9395L19.6437 99.4324L20.2023 101.783L19.501 101.863Z" fill="#E98862"/>
<path d="M25.9942 97.3625C26.2348 97.2307 26.5067 97.1653 26.7816 97.173C26.9173 97.1759 27.0518 97.1991 27.1806 97.2417C27.3085 97.2834 27.4306 97.3408 27.544 97.4127C27.5553 97.4198 27.5635 97.431 27.5667 97.444C27.5699 97.4569 27.5679 97.4705 27.5612 97.4821C27.5545 97.4936 27.5436 97.5022 27.5307 97.5059C27.5178 97.5097 27.5039 97.5083 27.492 97.5022L27.4886 97.5003C27.3811 97.4372 27.2661 97.3876 27.1461 97.3529C27.0273 97.3178 26.9039 97.3007 26.7799 97.3022C26.5332 97.3034 26.2912 97.3693 26.0786 97.493L26.0735 97.4962C26.0647 97.5019 26.0548 97.5058 26.0445 97.5077C26.0341 97.5095 26.0235 97.5093 26.0133 97.507C26.003 97.5048 25.9933 97.5005 25.9848 97.4944C25.9762 97.4883 25.969 97.4806 25.9636 97.4717C25.9581 97.4628 25.9545 97.4529 25.953 97.4426C25.9515 97.4323 25.952 97.4218 25.9547 97.4118C25.9574 97.4017 25.9621 97.3922 25.9685 97.384C25.9749 97.3758 25.983 97.3689 25.9921 97.3638L25.9942 97.3625Z" fill="#0C0C0C"/>
<path d="M23.8382 97.7554C23.603 97.6816 23.3523 97.6709 23.1116 97.7245C22.9903 97.7507 22.8738 97.7949 22.7659 97.8556C22.6569 97.916 22.556 97.9897 22.4655 98.0749L22.4627 98.0775C22.4524 98.0851 22.4397 98.0886 22.4269 98.0875C22.4142 98.0863 22.4023 98.0806 22.3935 98.0713C22.3848 98.0621 22.3797 98.05 22.3794 98.0373C22.3791 98.0247 22.3835 98.0123 22.3917 98.0026C22.486 97.9075 22.5921 97.8245 22.7073 97.7556C22.8232 97.6857 22.9491 97.6333 23.0807 97.6004C23.3469 97.5321 23.6267 97.5358 23.891 97.611C23.9012 97.6136 23.9108 97.6182 23.9192 97.6246C23.9275 97.6309 23.9345 97.6388 23.9397 97.6479C23.9449 97.657 23.9482 97.667 23.9494 97.6774C23.9506 97.6878 23.9497 97.6983 23.9467 97.7083C23.9437 97.7183 23.9386 97.7276 23.9319 97.7356C23.9252 97.7436 23.9169 97.7503 23.9075 97.755C23.8982 97.7598 23.8879 97.7627 23.8774 97.7635C23.8669 97.7642 23.8563 97.7629 23.8464 97.7596H23.8443L23.8382 97.7554Z" fill="#0C0C0C"/>
<path opacity="0.52" d="M25.0235 102.89C25.1024 102.887 25.1809 102.877 25.2581 102.861C25.2753 102.856 25.2901 102.846 25.2995 102.831C25.3089 102.816 25.3121 102.798 25.3085 102.781C25.3048 102.764 25.2946 102.749 25.2799 102.739C25.2653 102.729 25.2474 102.725 25.2299 102.728C25.1094 102.763 24.9827 102.772 24.8583 102.755C24.7339 102.737 24.6148 102.694 24.5088 102.627C24.4948 102.616 24.4768 102.61 24.4588 102.612C24.4408 102.614 24.4243 102.623 24.4128 102.637C24.4014 102.65 24.396 102.668 24.3978 102.686C24.3996 102.704 24.4085 102.72 24.4225 102.732C24.5983 102.852 24.8107 102.908 25.0235 102.89Z" fill="#0C0C0C"/>
<path opacity="0.1" d="M23.3087 101.13C23.6586 101.118 23.935 100.902 23.926 100.648C23.917 100.394 23.626 100.198 23.2761 100.21C22.9262 100.222 22.6499 100.438 22.6588 100.692C22.6678 100.946 22.9588 101.142 23.3087 101.13Z" fill="#0C0C0C"/>
<path opacity="0.1" d="M27.0534 100.429C27.0632 100.682 27.354 100.878 27.704 100.867C27.7645 100.864 27.8246 100.856 27.8833 100.842C27.9248 100.544 27.9501 100.256 27.9639 99.9881C27.8697 99.9563 27.7703 99.9422 27.6709 99.9466C27.3217 99.9582 27.0454 100.173 27.0534 100.429Z" fill="#0C0C0C"/>
<path d="M34.8506 112.039C34.8355 113.539 34.3152 115.328 34.1298 117.489C34.0806 118.066 32.83 119.734 32.6483 121.59C32.4194 123.953 32.9285 127.639 32.9966 129.233C29.4812 131.158 25.5047 132.105 21.4892 131.973C17.4738 131.842 13.5694 130.636 10.1907 128.484C10.0999 124.39 9.99202 119.335 9.85391 118.124C9.40555 114.124 9.52663 111.594 10.1736 110.41C11.2312 108.477 13.1135 107.887 15.0829 107.621C16.2861 107.46 18.0928 107.346 18.0928 107.346C18.0928 107.346 18.2461 110.412 21.8973 110.582C26.8671 110.814 26.536 107.346 26.5606 107.346C28.3635 107.346 31.7802 107.773 33.0893 108.657C34.4779 109.592 34.8676 110.7 34.8506 112.039Z" fill="#FFC239"/>
<path d="M17.6803 114.372L10.9378 128.938C8.34901 127.425 6.0966 125.409 4.31641 123.011L9.9408 110.86L17.6803 114.372Z" fill="#FFC239"/>
<path d="M40.2968 122.79C38.976 124.614 37.3817 126.228 35.5691 127.577C34.9726 128.023 34.3531 128.438 33.7133 128.82L26.793 113.76L34.5419 110.269L40.2968 122.79Z" fill="#FFC239"/>
<path d="M68.4761 45.8102C81.2553 45.8102 91.6149 35.5552 91.6149 22.9051C91.6149 10.255 81.2553 0 68.4761 0C55.697 0 45.3374 10.255 45.3374 22.9051C45.3374 35.5552 55.697 45.8102 68.4761 45.8102Z" fill="white"/>
<path opacity="0.09" d="M68.4761 45.8102C81.2553 45.8102 91.6149 35.5552 91.6149 22.9051C91.6149 10.255 81.2553 0 68.4761 0C55.697 0 45.3374 10.255 45.3374 22.9051C45.3374 35.5552 55.697 45.8102 68.4761 45.8102Z" fill="#367CFF"/>
<path d="M72.9504 9.18917C72.9504 9.18917 74.4156 7.61721 74.3023 4.6231C74.2147 2.30486 72.3766 4.1463 72.3766 4.1463C72.3766 4.1463 72.297 2.47771 71.128 2.85413C69.9591 3.23054 69.5996 5.06281 69.5996 5.06281" fill="#0C0C0C"/>
<path d="M64.9636 4.15625C64.9636 4.15625 59.1283 5.85387 62.739 13.4508L63.2719 13.3912L64.3537 13.2706" fill="#0C0C0C"/>
<path d="M73.2329 21.3305C73.2064 21.3271 72.9113 26.1733 67.2239 25.7501C63.2866 25.4581 61.8827 21.323 61.7925 21.323C62.217 21.2337 62.7416 21.0983 62.9501 21.0516C63.4045 20.9472 63.8161 20.7084 64.13 20.3668C64.4439 20.0252 64.6453 19.5971 64.7074 19.1394C64.8226 18.4525 64.6272 14.9381 64.6873 14.2432L70.731 15.5784C70.6466 17.0464 70.0556 20.4494 72.1271 21.0516C72.472 21.1514 72.8434 21.2432 73.2329 21.3305Z" fill="#E98862"/>
<path opacity="0.52" d="M70.8159 19.6609C70.7214 19.3589 70.6604 19.0475 70.6341 18.7324C70.5678 18.0132 70.581 17.2891 70.6737 16.5728C69.4453 16.4086 68.2881 15.9067 67.3335 15.124C67.2211 15.5343 66.604 17.3271 66.7748 17.717C67.0979 18.4541 68.6157 19.6609 70.8159 19.6609Z" fill="#0C0C0C"/>
<path d="M69.8298 18.1181C67.446 18.3303 64.369 17.366 63.7521 14.2206L63.1953 11.3825C62.5784 8.23631 63.7471 5.36637 66.7389 4.79144C69.7306 4.21633 72.467 6.33644 73.0841 9.48186L73.33 10.7383C73.4072 11.1711 73.4543 11.6087 73.4711 12.0479C73.5245 13.209 73.6011 14.9736 73.0373 16.2782C72.5054 17.51 71.353 17.9827 69.8298 18.1181Z" fill="#E98862"/>
<path opacity="0.5" d="M70.19 15.0086C70.6266 15.0005 71.0551 14.8909 71.441 14.6887C71.4494 14.685 71.457 14.6796 71.4632 14.6728C71.4694 14.6661 71.4742 14.6582 71.4773 14.6496C71.4803 14.641 71.4816 14.6319 71.481 14.6228C71.4804 14.6137 71.478 14.6048 71.4738 14.5967C71.4697 14.5885 71.4639 14.5813 71.4569 14.5754C71.4498 14.5696 71.4417 14.5652 71.4329 14.5625C71.424 14.5598 71.4148 14.559 71.4056 14.5599C71.3965 14.5609 71.3876 14.5637 71.3796 14.5681C70.5472 14.9841 69.766 14.9801 69.1215 14.558C69.1085 14.5491 69.095 14.5408 69.0812 14.5333C69.0731 14.5294 69.0644 14.5271 69.0555 14.5265C69.0465 14.5259 69.0376 14.5271 69.0291 14.53C69.0206 14.5328 69.0128 14.5373 69.0061 14.5432C68.9993 14.549 68.9939 14.5561 68.9899 14.5641C68.986 14.5721 68.9836 14.5807 68.9831 14.5895C68.9825 14.5984 68.9837 14.6073 68.9866 14.6157C68.9895 14.624 68.994 14.6318 68.9999 14.6384C69.0058 14.6451 69.013 14.6505 69.021 14.6545C69.0261 14.6573 69.0345 14.6629 69.0462 14.6706C69.385 14.8934 69.7832 15.0111 70.19 15.0086Z" fill="#0C0C0C"/>
<path opacity="0.52" d="M70.211 15.6485C70.2899 15.6483 70.3687 15.6414 70.4465 15.6279C70.4553 15.6265 70.4638 15.6233 70.4713 15.6185C70.4789 15.6138 70.4855 15.6077 70.4906 15.6005C70.4958 15.5932 70.4995 15.5851 70.5015 15.5764C70.5035 15.5678 70.5037 15.5589 70.5022 15.5501C70.5007 15.5414 70.4975 15.5331 70.4927 15.5256C70.488 15.5181 70.4817 15.5116 70.4744 15.5064C70.4671 15.5013 70.4589 15.4977 70.4502 15.4957C70.4415 15.4937 70.4324 15.4935 70.4236 15.495C70.3018 15.5252 70.1748 15.5294 70.0512 15.5072C69.9276 15.4851 69.8102 15.4371 69.7068 15.3665C69.6932 15.3551 69.6756 15.3495 69.6578 15.3508C69.6401 15.3521 69.6235 15.3602 69.6117 15.3734C69.6 15.3867 69.5939 15.4039 69.5948 15.4215C69.5958 15.4392 69.6036 15.4557 69.6167 15.4676C69.7877 15.5942 69.9977 15.6581 70.211 15.6485Z" fill="#0C0C0C"/>
<path d="M72.3675 11.5307C72.5748 11.5307 72.7429 11.3643 72.7429 11.1591C72.7429 10.9539 72.5748 10.7876 72.3675 10.7876C72.1602 10.7876 71.9922 10.9539 71.9922 11.1591C71.9922 11.3643 72.1602 11.5307 72.3675 11.5307Z" fill="#0C0C0C"/>
<path d="M68.7181 11.9531C68.9254 11.9531 69.0934 11.7867 69.0934 11.5815C69.0934 11.3763 68.9254 11.21 68.7181 11.21C68.5108 11.21 68.3428 11.3763 68.3428 11.5815C68.3428 11.7867 68.5108 11.9531 68.7181 11.9531Z" fill="#0C0C0C"/>
<path d="M64.1256 15.1434C63.2164 15.3181 62.2906 14.4969 62.1139 13.5969C61.9372 12.6969 62.5772 12.059 63.4862 11.8843L64.0727 12.3972L64.907 14.9932L64.1256 15.1434Z" fill="#E98862"/>
<path d="M64.7675 13.5316C64.7675 13.5316 64.2595 9.01556 65.5757 8.49532C66.4522 8.14868 68.8928 9.03111 70.8665 8.27902C71.73 7.9498 72.6191 8.01684 72.7818 8.41966C72.8463 8.57903 72.9686 6.09973 71.2377 4.54481C69.8597 3.30694 66.1366 3.5547 64.5626 4.32364C60.2044 6.45274 63.3346 12.1142 63.3346 12.1142L63.8208 13.6153L64.7675 13.5316Z" fill="#0C0C0C"/>
<g opacity="0.52">
<path opacity="0.52" d="M70.7496 13.891H70.7554C71.0487 13.8348 71.5341 13.7099 71.4932 13.4928C71.4582 13.3128 70.5852 11.4656 70.486 11.2557C70.4818 11.2467 70.4758 11.2387 70.4685 11.232C70.4611 11.2254 70.4525 11.2202 70.4431 11.2169C70.4337 11.2135 70.4237 11.212 70.4138 11.2125C70.4038 11.2129 70.394 11.2153 70.385 11.2195C70.376 11.2237 70.3679 11.2296 70.3612 11.2369C70.3544 11.2442 70.3492 11.2527 70.3458 11.262C70.3424 11.2713 70.3409 11.2812 70.3414 11.291C70.3418 11.3009 70.3443 11.3106 70.3485 11.3195C70.7356 12.1375 71.3201 13.3982 71.344 13.5209C71.3251 13.5771 71.0314 13.6855 70.728 13.743C70.7079 13.746 70.6899 13.7567 70.6778 13.7728C70.6657 13.789 70.6606 13.8092 70.6636 13.8291C70.6666 13.8489 70.6774 13.8668 70.6937 13.8788C70.71 13.8907 70.7304 13.8958 70.7505 13.8928L70.7496 13.891Z" fill="#0C0C0C"/>
</g>
<path d="M70.9569 9.36424C71.2502 9.22502 71.5761 9.16679 71.9001 9.1957C72.0591 9.20894 72.2151 9.24568 72.3631 9.30469C72.5091 9.36219 72.6473 9.43769 72.7743 9.52942C72.7979 9.54556 72.8142 9.57012 72.8199 9.59794C72.8255 9.62575 72.8201 9.65465 72.8046 9.67855C72.7892 9.70245 72.765 9.71949 72.7371 9.72608C72.7092 9.73267 72.6798 9.7283 72.6552 9.71388L72.6466 9.71089C72.5315 9.63809 72.4075 9.57989 72.2777 9.53766C72.1501 9.49547 72.0167 9.47268 71.8822 9.47005C71.6169 9.46274 71.3544 9.52495 71.1213 9.6504L71.1116 9.65583C71.0926 9.66655 71.0717 9.67347 71.0501 9.67619C71.0284 9.67891 71.0064 9.67738 70.9853 9.67168C70.9642 9.66599 70.9445 9.65624 70.9272 9.643C70.91 9.62975 70.8955 9.61327 70.8847 9.5945C70.8739 9.57572 70.8669 9.55501 70.8641 9.53356C70.8614 9.51211 70.8629 9.49034 70.8687 9.46948C70.8744 9.44862 70.8843 9.42908 70.8976 9.41199C70.911 9.3949 70.9277 9.38058 70.9466 9.36986L70.9569 9.36424Z" fill="#0C0C0C"/>
<path d="M68.8052 9.94021C68.5497 9.86944 68.2799 9.86666 68.0229 9.93216C67.8924 9.96432 67.7675 10.0159 67.6525 10.0852C67.5352 10.1549 67.4272 10.2389 67.3309 10.3352L67.3249 10.3412C67.3041 10.361 67.2764 10.3721 67.2475 10.372C67.2187 10.3719 67.191 10.3607 67.1704 10.3407C67.1498 10.3207 67.1379 10.2935 67.1372 10.2649C67.1366 10.2364 67.1472 10.2087 67.1669 10.1878C67.2699 10.0701 67.3876 9.96587 67.5171 9.87748C67.6481 9.78732 67.792 9.71707 67.9441 9.66904C68.096 9.61945 68.2541 9.59072 68.414 9.58365C68.5777 9.57473 68.7418 9.58885 68.9015 9.6256C68.9445 9.63553 68.9817 9.66194 69.0049 9.69903C69.0282 9.73612 69.0356 9.78084 69.0256 9.82336C69.0156 9.86587 68.9889 9.9027 68.9514 9.92574C68.914 9.94878 68.8688 9.95614 68.8258 9.94621L68.816 9.94358L68.8052 9.94021Z" fill="#0C0C0C"/>
<path d="M69.9559 6.3719C70.6049 6.11155 70.8171 5.13392 70.43 4.18831C70.0429 3.2427 69.203 2.68719 68.554 2.94754C67.905 3.20789 67.6927 4.18551 68.0799 5.13112C68.467 6.07674 69.3069 6.63225 69.9559 6.3719Z" fill="#0C0C0C"/>
<path d="M81.0936 26.338C81.1163 27.8905 80.5033 29.6358 80.299 31.9992C80.2574 32.4786 80.159 33.5348 80.0285 34.9113C79.8147 37.1904 79.512 40.3422 79.2471 43.1831C75.4595 45.1511 71.1954 46.0426 66.9273 45.759C62.6593 45.4754 58.5538 44.0277 55.0658 41.5763C54.9826 41.5145 54.8993 41.4546 54.8161 41.3965C54.5948 38.1848 54.3337 34.8139 54.0953 32.6846C53.647 28.7088 53.0359 26.7294 53.3783 25.3922C53.4057 25.2784 53.4424 25.1669 53.488 25.0589C54.4737 22.6918 57.6122 21.6356 59.7386 21.3509C61.0364 21.1767 62.9888 21.0513 62.9888 21.0513C62.9888 21.0513 63.1534 24.3622 67.0941 24.5458C72.4593 24.7967 72.1017 21.0513 72.1282 21.0513C72.9966 21.0513 77.728 21.6768 78.9104 22.4408C79.1086 22.5682 79.2982 22.7083 79.4779 22.8603C79.9917 23.2845 80.4033 23.8168 80.6828 24.4184C80.9623 25.02 81.1026 25.6758 81.0936 26.338Z" fill="#383838"/>
<path d="M61.3389 28.7386L55.0656 41.5761C54.9824 41.5143 54.8992 41.4544 54.8159 41.3963C52.3841 39.6312 50.3216 37.4153 48.7432 34.8718L53.3781 25.392L53.5616 25.0156L61.3389 28.7386Z" fill="#383838"/>
<path d="M60.7334 30.2164L55.0276 41.5483C54.9898 41.5202 54.9539 41.4939 54.916 41.4696L60.6142 30.1584C60.6224 30.1426 60.6365 30.1307 60.6534 30.1251C60.6704 30.1195 60.6889 30.1207 60.705 30.1284C60.7206 30.1363 60.7323 30.1501 60.7376 30.1666C60.7429 30.1831 60.7414 30.201 60.7334 30.2164Z" fill="white"/>
<path d="M89.6636 32.1267C88.5263 34.678 86.9295 37.0031 84.951 38.9883L80.0285 34.9114L73.776 29.7315L79.478 22.8604L79.495 22.8398L89.6636 32.1267Z" fill="#383838"/>
<path d="M80.1043 34.9615C80.1204 34.9607 80.1356 34.9542 80.1472 34.9431C80.1588 34.9321 80.1659 34.9172 80.1673 34.9014L80.4922 31.1316C80.4937 31.1142 80.4882 31.0969 80.4768 31.0835C80.4655 31.0701 80.4492 31.0618 80.4316 31.0602C80.4141 31.059 80.3968 31.0645 80.3834 31.0757C80.3699 31.0869 80.3615 31.1029 80.3597 31.1202L80.0349 34.8901C80.0334 34.9075 80.039 34.9248 80.0503 34.9381C80.0617 34.9514 80.0779 34.9598 80.0954 34.9613L80.1043 34.9615Z" fill="white"/>
<path d="M177.43 144.995C189.618 144.995 199.499 135.214 199.499 123.149C199.499 111.083 189.618 101.302 177.43 101.302C165.241 101.302 155.36 111.083 155.36 123.149C155.36 135.214 165.241 144.995 177.43 144.995Z" fill="white"/>
<path opacity="0.09" d="M155.36 123.148C155.36 127.469 156.654 131.693 159.079 135.285C161.504 138.878 164.951 141.678 168.984 143.331C173.016 144.985 177.453 145.418 181.734 144.575C186.015 143.732 189.948 141.651 193.034 138.596C196.121 135.541 198.223 131.648 199.074 127.41C199.926 123.172 199.489 118.78 197.818 114.788C196.148 110.796 193.319 107.384 189.69 104.984C186.061 102.583 181.794 101.302 177.429 101.302C174.528 101.291 171.653 101.849 168.971 102.943C166.289 104.037 163.852 105.646 161.8 107.677C159.749 109.708 158.124 112.12 157.018 114.775C155.913 117.431 155.349 120.276 155.36 123.148Z" fill="#367CFF"/>
<path d="M187.444 111.093C187.091 115.138 187.418 116.51 189.115 118.828C190.546 120.782 182.403 119.121 178.8 118.486L181.98 109.287C181.98 109.287 187.568 109.673 187.444 111.093Z" fill="#0A0A0A"/>
<path d="M175.014 109.41C173.951 113.331 174.07 114.544 171.99 116.603C170.266 118.31 176.985 118.657 180.591 119.277L180.773 109.558C180.773 109.558 175.387 108.033 175.014 109.41Z" fill="#0A0A0A"/>
<path d="M175.372 120.815C175.396 120.812 175.66 125.149 180.749 124.771C184.272 124.509 185.528 120.809 185.609 120.809C185.207 120.743 184.809 120.648 184.421 120.524C183.866 120.229 183.18 119.922 183.001 118.855C182.898 118.24 183.073 115.096 183.019 114.473L177.611 115.668C177.686 116.982 178.216 120.027 176.362 120.565C176.053 120.655 175.721 120.737 175.372 120.815Z" fill="#E98862"/>
<path opacity="0.5" d="M177.535 119.322C177.619 119.052 177.674 118.773 177.697 118.491C177.757 117.847 177.745 117.199 177.662 116.559C178.761 116.412 179.797 115.963 180.651 115.262C180.752 115.629 181.304 117.233 181.151 117.582C180.862 118.242 179.504 119.322 177.535 119.322Z" fill="#0C0C0C"/>
<path d="M178.234 117.971C180.366 118.175 183.125 117.331 183.697 114.52L184.212 111.984C184.784 109.173 183.756 106.597 181.082 106.065C178.409 105.532 175.947 107.413 175.376 110.223L175.147 111.347C174.928 112.425 174.43 117.607 178.234 117.971Z" fill="#E98862"/>
<path d="M186.793 112.784L184.388 112.523C179.682 111.667 178.529 107.908 178.529 107.908C178.529 107.908 176.555 110.517 174.879 109.918C174.879 109.918 175.419 103.627 182.86 104.732C185.784 105.167 187.444 107.566 187.444 110.784C187.444 113.15 186.793 112.784 186.793 112.784Z" fill="#0A0A0A"/>
<path opacity="0.1" d="M180.279 113.901C180.31 113.646 180.051 113.406 179.7 113.364C179.349 113.323 179.039 113.496 179.009 113.751C178.978 114.005 179.238 114.246 179.588 114.287C179.939 114.328 180.249 114.155 180.279 113.901Z" fill="#0C0C0C"/>
<path opacity="0.1" d="M175.883 113.269C175.851 113.523 175.542 113.696 175.191 113.655C175.13 113.648 175.071 113.635 175.013 113.615C174.997 113.312 174.996 113.02 175.004 112.75C175.102 112.726 175.203 112.72 175.303 112.733C175.653 112.774 175.912 113.014 175.883 113.269Z" fill="#0C0C0C"/>
<path opacity="0.5" d="M177.433 114.055H177.427C177.319 114.033 177.212 114.005 177.107 113.971C176.95 113.918 176.745 113.833 176.773 113.693C176.806 113.533 177.6 111.893 177.691 111.706C177.694 111.698 177.7 111.691 177.707 111.684C177.713 111.678 177.721 111.673 177.73 111.67C177.739 111.667 177.748 111.666 177.757 111.666C177.766 111.667 177.775 111.669 177.783 111.673C177.792 111.677 177.799 111.682 177.805 111.689C177.811 111.696 177.816 111.704 177.819 111.713C177.822 111.721 177.823 111.73 177.822 111.739C177.822 111.748 177.819 111.757 177.815 111.765C177.476 112.464 176.93 113.612 176.908 113.72C177.071 113.829 177.259 113.899 177.454 113.922C177.472 113.925 177.487 113.935 177.497 113.95C177.507 113.964 177.511 113.982 177.508 113.999C177.505 114.016 177.496 114.032 177.482 114.043C177.468 114.053 177.45 114.058 177.433 114.056V114.055Z" fill="#0C0C0C"/>
<path d="M183.356 115.344C184.169 115.505 185.002 114.776 185.166 113.972C185.329 113.168 184.761 112.593 183.948 112.431L183.42 112.887L182.658 115.204L183.356 115.344Z" fill="#E98862"/>
<path d="M177.114 110.398C177.014 110.328 176.905 110.271 176.789 110.23C176.672 110.186 176.55 110.159 176.425 110.149C176.3 110.137 176.175 110.144 176.052 110.169C175.929 110.194 175.809 110.234 175.696 110.289L175.692 110.29C175.68 110.295 175.666 110.294 175.654 110.289C175.642 110.284 175.632 110.275 175.627 110.264C175.621 110.252 175.62 110.239 175.624 110.226C175.628 110.214 175.636 110.203 175.647 110.197C175.767 110.134 175.895 110.086 176.027 110.055C176.16 110.023 176.298 110.011 176.434 110.019C176.712 110.034 176.979 110.123 177.21 110.276C177.227 110.288 177.238 110.305 177.242 110.326C177.245 110.346 177.241 110.366 177.229 110.383C177.218 110.4 177.2 110.412 177.18 110.416C177.16 110.42 177.139 110.416 177.121 110.405L177.119 110.404L177.114 110.398Z" fill="#0C0C0C"/>
<path d="M179.304 110.698C179.576 110.644 179.857 110.664 180.119 110.755C180.249 110.799 180.371 110.862 180.482 110.942C180.592 111.021 180.691 111.114 180.778 111.217C180.787 111.227 180.792 111.241 180.792 111.255C180.791 111.268 180.785 111.281 180.775 111.291C180.764 111.3 180.751 111.305 180.737 111.304C180.723 111.304 180.71 111.298 180.7 111.287L180.697 111.284C180.614 111.191 180.518 111.109 180.414 111.039C180.31 110.969 180.197 110.915 180.077 110.879C179.84 110.805 179.586 110.795 179.344 110.849L179.338 110.851C179.317 110.856 179.296 110.852 179.278 110.842C179.26 110.831 179.247 110.813 179.242 110.793C179.237 110.773 179.24 110.752 179.251 110.734C179.262 110.716 179.28 110.703 179.3 110.699L179.304 110.698Z" fill="#0C0C0C"/>
<path d="M167.175 142.497C166.308 142.123 165.659 141.722 164.177 140.617C163.108 139.823 162.115 138.933 161.209 137.96L168.816 123.631L169.147 123.009L176.008 126.58L170.056 137.791L170.029 137.841L170.081 138.04" fill="#EA394A"/>
<path d="M192.474 130.97C192.274 133.095 192.231 136.399 192.245 139.338C189.377 141.913 185.874 143.696 182.089 144.506C178.304 145.316 174.37 145.126 170.683 143.954C170.232 139.523 169.561 133.011 169.182 129.002C168.799 124.849 167.672 123.478 170.748 121.489C172.443 120.635 175.13 120.56 176.338 120.56C175.928 124.496 184.309 124.981 184.517 120.56C190.785 121.14 193.687 121.284 192.474 130.97Z" fill="#EA394A"/>
<path d="M176.717 114.609C177.41 114.958 178.2 115.068 178.964 114.922C178.99 114.918 179.017 114.92 179.042 114.93C179.067 114.94 179.089 114.957 179.105 114.978C179.121 115 179.13 115.025 179.131 115.052C179.133 115.079 179.127 115.105 179.114 115.128C178.887 115.525 178.346 116.204 177.421 115.927C176.823 115.749 176.597 115.141 176.513 114.763C176.507 114.737 176.509 114.71 176.518 114.685C176.527 114.66 176.543 114.638 176.565 114.621C176.587 114.605 176.612 114.595 176.639 114.593C176.666 114.591 176.693 114.597 176.717 114.609Z" fill="white"/>
<path d="M176.674 111.56C176.859 111.56 177.009 111.411 177.009 111.228C177.009 111.045 176.859 110.897 176.674 110.897C176.489 110.897 176.339 111.045 176.339 111.228C176.339 111.411 176.489 111.56 176.674 111.56Z" fill="#0C0C0C"/>
<path d="M179.891 112.117C180.076 112.117 180.225 111.968 180.225 111.785C180.225 111.602 180.076 111.454 179.891 111.454C179.706 111.454 179.556 111.602 179.556 111.785C179.556 111.968 179.706 112.117 179.891 112.117Z" fill="#0C0C0C"/>
<path d="M169.923 136.155H169.93C169.943 136.153 169.956 136.145 169.964 136.135C169.972 136.124 169.976 136.11 169.974 136.097L169.382 130.195C169.381 130.188 169.379 130.182 169.376 130.176C169.372 130.17 169.368 130.165 169.362 130.161C169.357 130.157 169.351 130.154 169.344 130.152C169.338 130.151 169.331 130.15 169.324 130.152C169.317 130.152 169.311 130.155 169.305 130.158C169.299 130.161 169.294 130.166 169.29 130.171C169.286 130.177 169.283 130.183 169.281 130.189C169.279 130.196 169.279 130.203 169.28 130.209L169.871 136.111C169.873 136.123 169.88 136.134 169.889 136.142C169.899 136.15 169.911 136.155 169.923 136.155Z" fill="#0C0C0C"/>
<path d="M169.15 131.66H163.109V138.994H169.15V131.66Z" fill="white"/>
<path d="M166.676 135.327C166.676 134.843 166.821 134.369 167.093 133.967C167.365 133.564 167.752 133.25 168.204 133.065C168.656 132.88 169.153 132.831 169.633 132.926C170.113 133.021 170.553 133.254 170.899 133.596C171.245 133.939 171.481 134.375 171.576 134.85C171.672 135.325 171.623 135.818 171.435 136.265C171.248 136.712 170.931 137.095 170.524 137.364C170.117 137.633 169.639 137.776 169.15 137.776C168.494 137.776 167.865 137.517 167.401 137.058C166.937 136.599 166.677 135.976 166.676 135.327ZM167.689 135.327C167.689 135.711 167.843 136.078 168.117 136.349C168.391 136.621 168.762 136.773 169.15 136.773V133.881C168.763 133.882 168.391 134.034 168.117 134.305C167.844 134.576 167.69 134.944 167.689 135.327Z" fill="white"/>
<path d="M169.102 136.234C169.122 136.11 169.186 135.997 169.282 135.915C169.378 135.832 169.5 135.786 169.627 135.784C169.624 135.779 169.621 135.774 169.62 135.768L169.44 135.729C169.315 135.705 169.202 135.638 169.12 135.54C169.039 135.443 168.994 135.32 168.993 135.194C168.994 135.115 169.013 135.037 169.049 134.965C169.084 134.894 169.135 134.831 169.198 134.782C169.26 134.733 169.333 134.698 169.411 134.68C169.49 134.662 169.571 134.661 169.649 134.678L170.073 134.768C170.073 134.767 170.073 134.765 170.073 134.764C170.074 134.76 170.076 134.757 170.077 134.754C169.967 134.702 169.877 134.615 169.823 134.507C169.768 134.399 169.753 134.275 169.779 134.157C169.825 133.846 170.202 133.744 170.477 133.803L171.577 133.998L171.206 133.754C171.089 133.674 171.007 133.553 170.976 133.415C170.946 133.277 170.97 133.134 171.043 133.012C171.083 132.951 171.135 132.899 171.196 132.858C171.256 132.817 171.325 132.789 171.397 132.776C171.47 132.762 171.544 132.764 171.616 132.779C171.687 132.795 171.755 132.825 171.815 132.868L176.245 137.887L175.262 137.445C174.956 137.89 174.524 138.234 174.02 138.433C173.515 138.633 172.963 138.679 172.432 138.565L170.029 138.047C169.904 138.023 169.791 137.956 169.709 137.858C169.628 137.761 169.583 137.638 169.582 137.512C169.584 137.398 169.622 137.287 169.692 137.196C169.762 137.105 169.859 137.039 169.97 137.006C169.966 136.998 169.965 136.989 169.966 136.981C169.967 136.973 169.971 136.965 169.976 136.958C169.981 136.952 169.988 136.947 169.995 136.943L169.552 136.849C169.412 136.822 169.288 136.743 169.204 136.629C169.121 136.515 169.084 136.374 169.102 136.234Z" fill="#E98862"/>
<path opacity="0.2" d="M170.876 134.946C170.888 134.943 170.898 134.937 170.905 134.928C170.913 134.918 170.917 134.907 170.916 134.895C170.916 134.884 170.912 134.872 170.904 134.863C170.897 134.855 170.886 134.849 170.874 134.847L170.132 134.722C170.125 134.721 170.119 134.721 170.112 134.722C170.105 134.723 170.099 134.726 170.093 134.73C170.087 134.734 170.083 134.739 170.079 134.744C170.075 134.75 170.073 134.756 170.072 134.763C170.07 134.77 170.071 134.777 170.072 134.783C170.074 134.79 170.077 134.796 170.081 134.802C170.085 134.807 170.09 134.812 170.096 134.815C170.102 134.818 170.108 134.821 170.115 134.822L170.857 134.946C170.864 134.947 170.87 134.947 170.876 134.946Z" fill="#0C0C0C"/>
<path opacity="0.2" d="M170.697 135.984C170.708 135.982 170.719 135.975 170.726 135.966C170.733 135.957 170.737 135.946 170.737 135.934C170.737 135.922 170.733 135.911 170.725 135.902C170.717 135.893 170.707 135.887 170.695 135.885L169.679 135.707C169.672 135.705 169.665 135.705 169.658 135.706C169.651 135.708 169.645 135.71 169.639 135.714C169.633 135.718 169.628 135.723 169.625 135.728C169.621 135.734 169.618 135.74 169.617 135.747C169.616 135.754 169.616 135.761 169.618 135.767C169.619 135.774 169.622 135.78 169.626 135.786C169.63 135.791 169.635 135.796 169.641 135.799C169.647 135.803 169.654 135.805 169.661 135.806L170.677 135.985C170.684 135.986 170.69 135.986 170.697 135.984Z" fill="#0C0C0C"/>
<path opacity="0.2" d="M170.51 137.111C170.522 137.108 170.532 137.102 170.539 137.093C170.547 137.083 170.551 137.072 170.55 137.06C170.55 137.048 170.545 137.037 170.538 137.028C170.53 137.019 170.519 137.014 170.507 137.012L170.025 136.939C170.012 136.937 169.999 136.941 169.989 136.949C169.979 136.957 169.972 136.969 169.97 136.981C169.968 136.994 169.971 137.007 169.978 137.018C169.986 137.028 169.997 137.035 170.01 137.038L170.492 137.111C170.498 137.112 170.504 137.112 170.51 137.111Z" fill="#0C0C0C"/>
<path d="M195.551 135.614C192.833 139.483 188.927 142.381 184.413 143.879L184.411 143.877C183.408 143.683 173.843 139.944 172.578 139.699L173.963 133.306C177.517 134.006 184.001 136.705 187.576 137.408L185.053 126.088C184.962 125.588 184.972 125.075 185.082 124.579C185.193 124.082 185.402 123.613 185.697 123.197C185.992 122.781 186.367 122.428 186.802 122.157C187.236 121.886 187.72 121.703 188.226 121.619C188.733 121.534 189.251 121.55 189.751 121.666C190.251 121.781 190.722 121.994 191.139 122.291C191.555 122.588 191.907 122.964 192.176 123.398C192.444 123.831 192.623 124.312 192.702 124.815L195.551 135.614Z" fill="#EA394A"/>
<path d="M190.286 138.242C190.298 138.241 190.311 138.236 190.32 138.227C190.33 138.219 190.335 138.207 190.336 138.194C190.337 138.181 190.333 138.169 190.325 138.159C190.317 138.149 190.306 138.142 190.293 138.14L187.605 137.237C187.599 137.236 187.592 137.236 187.585 137.238C187.579 137.239 187.572 137.242 187.567 137.246C187.561 137.25 187.557 137.255 187.553 137.261C187.55 137.267 187.547 137.273 187.547 137.28C187.545 137.293 187.548 137.307 187.556 137.318C187.564 137.329 187.577 137.336 187.59 137.338L190.278 138.241C190.28 138.241 190.283 138.242 190.286 138.242Z" fill="#0C0C0C"/>
<path d="M187.647 137.28C187.648 137.296 187.643 137.312 187.633 137.325C187.627 137.33 187.62 137.334 187.612 137.337C187.604 137.339 187.596 137.34 187.588 137.338L174.049 133.383L172.692 139.675L184.351 143.897C184.315 143.909 184.277 143.921 184.24 143.933C184.215 143.942 184.189 143.95 184.161 143.957L172.616 139.761C172.603 139.758 172.592 139.749 172.585 139.738C172.578 139.726 172.575 139.713 172.578 139.7L173.963 133.306C173.964 133.3 173.967 133.294 173.972 133.288C173.976 133.283 173.981 133.279 173.987 133.276C173.993 133.272 173.999 133.269 174.006 133.268C174.013 133.267 174.02 133.267 174.027 133.269L187.533 137.23L186.004 130.989C186.002 130.976 186.005 130.962 186.014 130.951C186.022 130.941 186.034 130.933 186.047 130.931C186.054 130.93 186.061 130.93 186.067 130.931C186.074 130.933 186.08 130.935 186.086 130.939C186.091 130.943 186.096 130.948 186.1 130.953C186.104 130.959 186.106 130.965 186.107 130.972L187.647 137.28Z" fill="#0C0C0C"/>
<path d="M11.099 129.125C11.0864 129.125 11.074 129.123 11.0623 129.118C11.0509 129.113 11.0405 129.106 11.0317 129.098C11.023 129.089 11.0161 129.078 11.0114 129.067C11.0067 129.056 11.0043 129.044 11.0044 129.031C11.0045 129.019 11.007 129.007 11.0118 128.995L14.7187 120.274C14.7284 120.251 14.747 120.233 14.7702 120.223C14.7935 120.214 14.8195 120.214 14.8427 120.224C14.8658 120.233 14.8841 120.252 14.8936 120.275C14.903 120.298 14.9028 120.324 14.8931 120.346L11.1862 129.068C11.179 129.085 11.1669 129.099 11.1514 129.11C11.1359 129.12 11.1177 129.125 11.099 129.125Z" fill="#0C0C0C"/>
<path d="M32.9111 129.225H32.907C32.8945 129.225 32.8821 129.223 32.8705 129.219C32.8588 129.215 32.8481 129.208 32.8389 129.2C32.8297 129.192 32.8223 129.182 32.817 129.171C32.8118 129.16 32.8088 129.148 32.8082 129.135L32.395 120.215C32.3947 120.19 32.4038 120.166 32.4205 120.148C32.4373 120.13 32.4603 120.119 32.4851 120.117C32.4975 120.116 32.5099 120.118 32.5216 120.122C32.5333 120.126 32.5441 120.133 32.5533 120.141C32.5625 120.149 32.5699 120.159 32.5752 120.171C32.5805 120.182 32.5835 120.194 32.584 120.206L32.9972 129.127C32.9984 129.151 32.9901 129.175 32.9741 129.193C32.958 129.211 32.9355 129.222 32.9111 129.225Z" fill="#0C0C0C"/>
</svg>
