<svg width="269" height="172" viewBox="0 0 269 172" fill="none" xmlns="http://www.w3.org/2000/svg">
<path d="M250.442 170.943C252.948 170.943 255.428 170.411 257.733 169.378C260.038 168.345 262.119 166.833 263.852 164.933C265.584 163.034 266.932 160.786 267.813 158.325C268.695 155.864 269.092 153.241 268.981 150.615C268.37 136.13 261.31 115.676 233.477 95.2356C199.535 70.3093 214.844 -1.45815 142.728 3.4938C70.6113 8.44576 77.4873 61.4831 33.2676 85.7924C5.11967 101.266 0.00188163 131.543 0 151.507C0.0046142 156.666 1.96219 161.611 5.44224 165.256C8.9223 168.901 13.6399 170.946 18.5575 170.943H250.442Z" fill="#F3F5FD"/>
<path d="M200.995 0H54.9131V110.972H200.995V0Z" fill="#DEE8F5"/>
<path d="M200.995 0H54.9131V9.14129H200.995V0Z" fill="#C1D8ED"/>
<path d="M196.102 6.86428C197.31 6.86428 198.289 5.83743 198.289 4.57075C198.289 3.30407 197.31 2.27722 196.102 2.27722C194.895 2.27722 193.916 3.30407 193.916 4.57075C193.916 5.83743 194.895 6.86428 196.102 6.86428Z" fill="white"/>
<path d="M93.2036 34.8632C93.2036 38.9511 91.6555 42.8716 88.8999 45.7622C86.1443 48.6528 82.4068 50.2767 78.5098 50.2767V19.4498C80.441 19.4438 82.3543 19.8384 84.1396 20.6109C85.9249 21.3834 87.547 22.5185 88.9126 23.951C90.2782 25.3834 91.3603 27.085 92.0967 28.9577C92.8331 30.8305 93.2093 32.8374 93.2036 34.8632Z" fill="#C1D8ED"/>
<path d="M78.5094 36.4514C81.7221 36.4514 84.3265 33.7195 84.3265 30.3495C84.3265 26.9795 81.7221 24.2476 78.5094 24.2476C75.2968 24.2476 72.6924 26.9795 72.6924 30.3495C72.6924 33.7195 75.2968 36.4514 78.5094 36.4514Z" fill="white"/>
<path d="M89.0979 45.551C87.7268 47.0454 86.0823 48.2341 84.2629 49.046C82.4435 49.858 80.4866 50.2765 78.5094 50.2765C76.5322 50.2765 74.5753 49.858 72.7559 49.046C70.9365 48.2341 69.292 47.0454 67.9209 45.551C69.9023 40.9063 73.9019 37.7319 78.5093 37.7319C83.1167 37.7319 87.1168 40.9065 89.0979 45.551Z" fill="white"/>
<path d="M128.855 19.5449H99.1904V28.9487H128.855V19.5449Z" fill="white"/>
<path d="M193.484 34.766H99.1904V38.1873H193.484V34.766Z" fill="white"/>
<path d="M193.484 44.0043H99.1904V47.4256H193.484V44.0043Z" fill="white"/>
<path d="M86.7992 77.0977H62.1885V102.914H86.7992V77.0977Z" fill="#C1D8ED"/>
<path d="M125.479 92.3148H92.8936V95.0314H125.479V92.3148Z" fill="white"/>
<path d="M125.479 99.6498H92.8936V102.367H125.479V99.6498Z" fill="white"/>
<path d="M125.479 77.6447H92.8936V80.3613H125.479V77.6447Z" fill="white"/>
<path d="M125.479 84.9797H92.8936V87.6963H125.479V84.9797Z" fill="white"/>
<path d="M155.039 77.0977H130.429V102.914H155.039V77.0977Z" fill="#C1D8ED"/>
<path d="M193.718 92.3148H161.133V95.0314H193.718V92.3148Z" fill="white"/>
<path d="M193.718 99.6498H161.133V102.367H193.718V99.6498Z" fill="white"/>
<path d="M193.718 77.6447H161.133V80.3613H193.718V77.6447Z" fill="white"/>
<path d="M193.718 84.9797H161.133V87.6963H193.718V84.9797Z" fill="white"/>
<path d="M193.719 62.2882C193.719 62.6778 193.571 63.0513 193.308 63.3265C193.045 63.6018 192.689 63.7563 192.318 63.7562H120.388V60.8202H192.318C192.501 60.82 192.684 60.8578 192.854 60.9315C193.024 61.0052 193.178 61.1133 193.308 61.2496C193.439 61.3859 193.542 61.5478 193.612 61.726C193.683 61.9042 193.719 62.0952 193.719 62.2882Z" fill="white"/>
<path d="M120.388 60.8202V63.7562H63.5889Cnan nan nan nan 63.5889 63.7562L120.388 60.8202Z" fill="#0CBC8B"/>
<path d="M120.388 65.1213C121.879 65.1213 123.089 63.8528 123.089 62.2879C123.089 60.7231 121.879 59.4546 120.388 59.4546C118.896 59.4546 117.687 60.7231 117.687 62.2879C117.687 63.8528 118.896 65.1213 120.388 65.1213Z" fill="#0CBC8B"/>
<path d="M78.1865 98.9185C79.8247 122.372 81.9279 145.831 84.9237 169.14L89.7155 168.674C88.5787 145.186 86.5381 121.72 84.0414 98.3495L78.1865 98.9185Z" fill="#E98862"/>
<path d="M68.2195 104.246C67.5666 122.384 65.9197 149.891 64.9697 168.248L69.7594 168.727C72.0277 150.233 75.5955 123.065 77.539 104.783L68.2195 104.246Z" fill="#E98862"/>
<path d="M75.9643 170.897C76.0971 170.896 76.2284 170.867 76.3499 170.811C76.4715 170.755 76.5806 170.673 76.6706 170.57C76.7606 170.468 76.8294 170.347 76.8728 170.215C76.9163 170.083 76.9333 169.944 76.923 169.805C76.9087 169.612 76.8422 169.428 76.7315 169.274C76.6207 169.119 76.4703 169.002 76.2978 168.934L70.5487 166.914C70.4374 166.876 70.3194 166.863 70.2028 166.876C70.0862 166.89 69.9738 166.93 69.8732 166.993C69.0829 167.568 68.1375 167.862 67.1759 167.832C66.4271 167.776 65.7082 167.501 65.1014 167.037C65.0481 166.991 64.9834 166.962 64.9149 166.953C64.8464 166.944 64.777 166.956 64.7147 166.987C64.6523 167.018 64.5997 167.067 64.5629 167.128C64.5261 167.19 64.5067 167.261 64.5068 167.333V170.282C64.5068 170.369 64.5232 170.455 64.555 170.535C64.5868 170.616 64.6335 170.689 64.6922 170.75C64.751 170.811 64.8207 170.86 64.8975 170.893C64.9742 170.926 65.0564 170.943 65.1393 170.943L75.9643 170.897Z" fill="#C1D8ED"/>
<path d="M95.6577 170.897C95.7905 170.896 95.9218 170.867 96.0433 170.811C96.1648 170.755 96.274 170.673 96.364 170.57C96.4539 170.468 96.5228 170.347 96.5662 170.215C96.6096 170.083 96.6267 169.944 96.6163 169.805C96.6021 169.612 96.5356 169.428 96.4248 169.274C96.314 169.119 96.1635 169.002 95.9909 168.934L90.2421 166.914C90.1307 166.876 90.0127 166.863 89.8961 166.876C89.7795 166.89 89.6671 166.93 89.5666 166.993C88.7763 167.568 87.8308 167.862 86.8693 167.832C86.1204 167.776 85.4015 167.501 84.7946 167.037C84.7412 166.991 84.6766 166.962 84.6081 166.953C84.5396 166.944 84.4702 166.956 84.4078 166.987C84.3455 167.018 84.2929 167.067 84.2561 167.128C84.2194 167.19 84.2 167.261 84.2002 167.333V170.282C84.2002 170.369 84.2165 170.455 84.2483 170.535C84.2801 170.616 84.3268 170.689 84.3855 170.75C84.4443 170.811 84.5141 170.86 84.5908 170.893C84.6675 170.926 84.7497 170.943 84.8327 170.943L95.6577 170.897Z" fill="#C1D8ED"/>
<path d="M68.0727 94.5991C68.0727 94.5991 65.4008 107.15 65.4008 117.706C65.4008 128.261 62.333 144.609 62.333 144.609C62.333 144.609 71.1484 142.678 76.926 144.609C82.7035 146.54 93.4772 143.064 93.4772 143.064L85.9662 95.7577L68.0727 94.5991Z" fill="#262626"/>
<path d="M73.4922 68.934C73.4922 68.934 75.3837 68.0816 75.3837 62.8691L79.1858 62.4628C79.1858 62.4628 78.4021 67.0688 80.1816 68.7048L73.4922 68.934Z" fill="#E98862"/>
<path d="M73.4161 60.6797C73.5525 62.2728 74.2534 63.8308 75.5348 64.4518C76.9279 65.1752 78.4685 65.5299 80.0223 65.4851C84.1496 65.4851 84.103 55.6367 82.3037 53.5697C80.5044 51.5026 74.6991 52.2144 73.756 55.3318C73.2693 56.9434 73.286 59.1639 73.4161 60.6797Z" fill="#E98862"/>
<path d="M81.9015 56.8469C80.2876 64.441 78.8013 66.4711 75.0592 64.9508C74.201 64.6021 72.1455 62.4638 71.9397 57.9142C71.8554 56.3949 72.304 54.8958 73.2009 53.6995C74.0978 52.5033 75.381 51.6926 76.8084 51.4205C84.2195 50.3394 84.4796 57.3586 84.4796 57.3586C80.7603 58.0275 75.6943 56.9224 75.6943 56.9224" fill="#0F1011"/>
<path d="M82.0752 61.1349C82.0777 61.3355 82.0421 61.5347 81.9706 61.7208C81.8991 61.9069 81.793 62.0763 81.6586 62.2191C81.5243 62.3619 81.3642 62.4752 81.1877 62.5526C81.0112 62.63 80.8218 62.6699 80.6305 62.6699C80.4392 62.6699 80.2498 62.63 80.0733 62.5526C79.8968 62.4752 79.7367 62.3619 79.6023 62.2191C79.4679 62.0763 79.3619 61.9069 79.2904 61.7208C79.2189 61.5347 79.1833 61.3355 79.1857 61.1349C79.1825 60.935 79.2177 60.7364 79.2892 60.551C79.3607 60.3656 79.467 60.1972 79.6018 60.0558C79.7366 59.9144 79.8972 59.8029 80.0739 59.7279C80.2507 59.653 80.44 59.6161 80.6306 59.6195C81.6596 59.6726 82.0752 60.2988 82.0752 61.1349Z" fill="#E98862"/>
<path d="M62.7302 103.489C62.7302 104.225 63.1001 106.683 62.5048 106.858C62.148 106.964 61.7266 105.131 61.7266 105.131" fill="#E98862"/>
<path d="M59.9201 103.103C59.9201 103.103 57.9764 108.066 60.1934 110.917C60.2499 110.989 60.326 111.042 60.4117 111.069C60.4974 111.095 60.5887 111.094 60.6737 111.065C60.7586 111.036 60.8334 110.981 60.8881 110.907C60.9428 110.833 60.975 110.744 60.9804 110.65C61.0881 108.728 61.4576 104.778 62.6659 105.241V102.141" fill="#E98862"/>
<path d="M103.748 76.6636C103.748 76.6636 106.463 74.4017 106.654 73.5892C106.846 72.7768 104.935 71.1787 104.935 71.1787C104.935 71.1787 107.477 68.4907 106.97 68.1011C106.372 67.641 103.422 71.5508 103.422 71.5508C103.422 71.5508 103.839 70.1445 103.32 70.052C103.106 70.0142 102.937 70.2338 102.603 71.2293C102.222 72.3642 101.462 74.0703 101.462 74.0703L103.748 76.6636Z" fill="#E98862"/>
<path d="M100.891 73.6564L92.8612 83.1322L86.5812 71.3404C85.9866 69.4774 84.6328 68.2295 81.8718 68.1054C80.9274 68.0627 76.3196 68.056 72.9458 68.056C70.6794 68.056 68.8184 68.7856 67.744 69.9129C67.2028 70.4721 66.7977 71.1596 66.5628 71.9175L66.5304 71.9049L61.132 87.3041C61.0715 87.4767 61.0281 87.6555 61.0024 87.8375L58.8232 103.237L63.8963 104.026L66.0367 88.9008L68.217 82.6817C68.4441 83.6376 68.5681 84.6172 68.5868 85.6022C68.5868 90.7833 66.3523 93.107 66.517 95.7659C66.7757 99.9466 86.1398 98.959 87.1262 96.5843C88.1423 94.1353 86.0805 92.6263 86.1708 84.6158C86.1805 83.7441 86.2447 82.832 86.3331 81.9036L90.1434 89.0585C90.3429 89.4332 90.6249 89.7524 90.966 89.9894C91.3071 90.2265 91.6974 90.3744 92.1041 90.4209C92.5108 90.4674 92.9223 90.4111 93.304 90.2567C93.6858 90.1023 94.0268 89.8543 94.2985 89.5334L104.856 76.5805L100.891 73.6564Z" fill="#367CFF"/>
<path d="M67.6176 59.2887C67.4765 55.6303 68.2719 53.413 69.4098 52.2352C70.5325 51.0731 74.1431 50.2106 75.6695 54.7458C76.6656 57.7065 76.3432 58.725 76.7496 63.3976C77.156 68.0703 78.2055 68.0639 78.4024 72.3635C78.6119 76.9353 76.8371 80.5073 72.1648 80.477C68.35 80.4523 65.9253 78.5293 65.5756 74.51C65.0739 68.7419 67.8944 66.458 67.6176 59.2887Z" fill="#0F1011"/>
<path d="M34.0368 160.593L26.1895 169.886L28.464 171.999L36.3114 162.706L34.0368 160.593Z" fill="#DEE8F5"/>
<path d="M27.8274 160.989L25.8125 163.375L34.6713 171.607L36.6862 169.221L27.8274 160.989Z" fill="#DEE8F5"/>
<path d="M20.1745 169.377C15.5161 167.862 10.9964 165.883 6.87826 160.345C6.03318 159.21 5.2389 157.756 5.70225 156.397C6.05082 155.375 7.05913 154.719 8.08345 154.552C8.46507 154.494 8.85186 154.483 9.23594 154.519C9.23782 154.519 9.23971 154.519 9.24041 154.519C9.83073 154.582 10.4143 154.702 10.9837 154.877L11.1465 154.927C13.8645 155.737 16.4536 156.964 18.8301 158.567C19.0455 158.711 19.301 158.774 19.5551 158.747C19.8091 158.719 20.0468 158.602 20.2294 158.415C20.4121 158.227 20.5289 157.981 20.561 157.715C20.593 157.449 20.5384 157.18 20.406 156.951C20.1635 156.535 19.8814 156.147 19.564 155.791C19.0958 155.277 18.5828 154.811 18.0318 154.397C17.2994 153.837 16.5181 153.336 15.7534 152.825C12.9107 150.926 10.2177 148.791 7.70006 146.441C5.90335 144.762 4.14591 142.898 3.29259 140.538C2.90027 139.452 2.72175 138.2 3.1898 137.148C3.96221 135.421 6.15031 134.937 7.9395 135.295C11.0745 135.925 13.5792 138.336 15.8002 140.739C17.6421 142.736 19.706 144.946 22.3523 145.069C22.8033 145.113 23.2568 145.018 23.6567 144.795C24.4117 144.315 24.6058 143.204 24.3367 142.322C24.0676 141.439 23.445 140.734 22.8441 140.057C19.3511 136.126 15.9138 132.037 13.6455 127.221C11.3772 122.404 10.3722 116.718 11.9481 111.604C12.41 110.109 13.1043 108.654 14.1877 107.568C15.271 106.482 16.7897 105.801 18.2767 106.009C20.3025 106.289 21.8283 108.081 22.8547 109.934C26.3827 116.288 26.1671 124.073 27.1608 131.351C27.4388 133.389 27.8429 135.479 29.0001 137.156C29.1068 137.317 29.2452 137.453 29.406 137.553C30.3581 138.131 31.2124 136.965 31.5699 135.976C32.9811 132.06 33.3339 127.583 35.8605 124.342C36.8248 123.109 38.189 122.078 39.7096 122.088C41.5677 122.101 43.1565 123.728 43.6984 125.591C44.2403 127.454 43.916 129.479 43.3355 131.329C42.2578 134.76 40.3261 137.842 38.05 140.551C36.8505 141.982 35.4931 143.427 35.1335 145.293C35.0232 145.927 35.0693 146.58 35.2674 147.191C35.4656 147.801 35.8091 148.348 36.2655 148.78C36.4789 148.975 36.7273 149.123 36.9962 149.215C37.265 149.307 37.5487 149.342 37.8306 149.317C38.4402 149.258 38.9915 148.932 39.5228 148.615C39.7458 148.482 39.9697 148.347 40.1948 148.214C41.0823 147.684 41.9699 147.153 42.8576 146.622C45.1143 145.271 47.8396 143.891 50.1903 145.055C51.3898 145.649 52.1756 146.818 52.5454 148.16C52.8762 149.377 52.8762 150.668 52.5454 151.885C51.8452 154.418 47.4318 161.464 45.6116 163.281C43.486 165.402 36.1138 174.559 20.1745 169.377Z" fill="#8DDBE0"/>
<path d="M206.779 144.398H204.2V171.007H206.779V144.398Z" fill="#C1D8ED"/>
<path d="M204.657 144.398H202.078V171.007H204.657V144.398Z" fill="#DEE8F5"/>
<path d="M238.896 144.398H236.317V171.007H238.896V144.398Z" fill="#C1D8ED"/>
<path d="M236.774 144.398H234.195V171.007H236.774V144.398Z" fill="#DEE8F5"/>
<path d="M213.851 144.398H211.272V171.007H213.851V144.398Z" fill="#C1D8ED"/>
<path d="M211.729 144.398H209.15V171.007H211.729V144.398Z" fill="#DEE8F5"/>
<path d="M245.968 144.398H243.39V171.007H245.968V144.398Z" fill="#C1D8ED"/>
<path d="M243.846 144.398H241.268V171.007H243.846V144.398Z" fill="#DEE8F5"/>
<path d="M245.968 127.366H211.288V145.036H245.968V127.366Z" fill="#C1D8ED"/>
<path d="M236.758 127.366H202.078V145.036H236.758V127.366Z" fill="#DEE8F5"/>
<g opacity="0.53">
<path opacity="0.53" d="M234.892 129.878H203.943V142.447H234.892V129.878Z" fill="#F3F5FD"/>
</g>
<path d="M219.418 137.604C220.177 137.604 220.792 136.959 220.792 136.162C220.792 135.366 220.177 134.721 219.418 134.721C218.659 134.721 218.043 135.366 218.043 136.162C218.043 136.959 218.659 137.604 219.418 137.604Z" fill="white"/>
<path d="M216.34 110.084L213.719 110.734L217.004 125.309L219.625 124.659L216.34 110.084Z" fill="#F0F6FF"/>
<path d="M219.223 108.954L216.973 121.747L218.428 122.029L220.678 109.236L219.223 108.954Z" fill="#C1D8ED"/>
<path d="M219.224 108.95L218.968 110.361L220.421 110.651L220.677 109.24L219.224 108.95Z" fill="#DEE8F5"/>
<path d="M214.719 112.203L213.911 112.537L218.625 125.089L219.433 124.755L214.719 112.203Z" fill="#0CBC8B"/>
<path d="M220.792 117.697H213.687V127.224H220.792V117.697Z" fill="#C1D8ED"/>
</svg>
