<svg width="95" height="70" viewBox="0 0 95 70" fill="none" xmlns="http://www.w3.org/2000/svg">
<g clip-path="url(#clip0_2_49364)">
<path d="M7.87898 69.9845C6.81494 69.9844 5.76192 69.7788 4.78344 69.3799C3.80497 68.981 2.9213 68.3971 2.18575 67.6635C1.4502 66.9299 0.878007 66.0617 0.503675 65.1114C0.129343 64.161 -0.0393675 63.1482 0.00771884 62.1339C0.266937 56.5398 3.99308 48.5226 14.1493 41.2818C28.241 31.2353 18.9501 8.29609 37.448 5.90012C67.8531 1.96287 62.1011 27.7125 80.8754 37.1003C92.8261 43.0761 94.999 54.7687 94.9998 62.4781C94.9979 64.4702 94.1668 66.38 92.6893 67.7876C91.2118 69.1951 89.2089 69.9852 87.1211 69.984L7.87898 69.9845Z" fill="#F3F5FD"/>
<path d="M3.39035 65.3499C0.913259 64.6171 -1.49152 63.6596 -3.68199 60.9799C-4.1315 60.4308 -4.55385 59.7273 -4.30752 59.07C-4.12224 58.5754 -3.58591 58.2583 -3.04095 58.1776C-2.83797 58.1494 -2.63223 58.144 -2.42793 58.1615C-2.42693 58.1615 -2.42593 58.1622 -2.42556 58.1615C-2.11151 58.1923 -1.80108 58.2504 -1.49815 58.3352L-1.41158 58.3591C0.0341654 58.7511 1.41136 59.3446 2.67549 60.1203C2.79005 60.19 2.92592 60.2206 3.06103 60.2072C3.19613 60.1938 3.32252 60.1373 3.41964 60.0467C3.51677 59.9561 3.57892 59.8368 3.596 59.7082C3.61308 59.5796 3.58407 59.4493 3.5137 59.3385C3.38479 59.1374 3.23472 58.9494 3.06582 58.7775C2.81685 58.5289 2.54401 58.3031 2.25089 58.1031C1.86143 57.8321 1.44571 57.5898 1.03912 57.3424C-0.47294 56.4236 -1.90543 55.3907 -3.24462 54.2536C-4.20043 53.4412 -5.13522 52.5396 -5.58947 51.3975C-5.79815 50.8723 -5.89323 50.2667 -5.64427 49.7577C-5.23342 48.9221 -4.06957 48.6878 -3.11789 48.8613C-1.45023 49.166 -0.117986 50.3324 1.06339 51.495C2.04309 52.4611 3.14076 53.5306 4.54832 53.5901C4.78828 53.6115 5.02955 53.5653 5.24228 53.4572C5.64375 53.2251 5.74696 52.6875 5.60396 52.2606C5.46097 51.8338 5.12969 51.4927 4.80992 51.1652C2.95198 49.2627 1.12356 47.2846 -0.0828314 44.954C-1.28922 42.6233 -1.82367 39.8723 -0.985343 37.3979C-0.73951 36.6746 -0.370199 35.9708 0.205912 35.4453C0.782023 34.9198 1.58995 34.5903 2.38087 34.6909C3.45841 34.8263 4.26996 35.6936 4.81592 36.5898C6.69251 39.664 6.57791 43.4307 7.10636 46.9521C7.25436 47.9379 7.46916 48.949 8.08468 49.7605C8.14149 49.8385 8.21511 49.904 8.30061 49.9526C8.80704 50.2324 9.26155 49.6682 9.45158 49.1894C10.2022 47.2951 10.3899 45.1288 11.7339 43.5611C12.2468 42.9642 12.9724 42.4655 13.7812 42.4704C14.7688 42.4768 15.6145 43.264 15.9028 44.1654C16.191 45.0669 16.0186 46.0462 15.7097 46.9413C15.1365 48.6013 14.1091 50.0927 12.8985 51.4033C12.2605 52.0957 11.5385 52.7946 11.3472 53.6974C11.2885 54.0042 11.3131 54.3203 11.4185 54.6156C11.5238 54.9109 11.7066 55.1756 11.9493 55.3845C12.0628 55.4787 12.195 55.5503 12.3379 55.5949C12.4809 55.6395 12.6319 55.6563 12.7818 55.6443C13.106 55.6159 13.3994 55.4582 13.6819 55.3048C13.8006 55.2403 13.9196 55.1749 14.0393 55.1107C14.5115 54.8543 14.9836 54.5976 15.4558 54.3405C16.6562 53.6871 18.1056 53.0195 19.3561 53.5822C19.9941 53.8699 20.4121 54.4354 20.6086 55.0845C20.7847 55.6736 20.7847 56.2979 20.6086 56.887C20.2361 58.1121 17.8886 61.5211 16.9204 62.4003C15.7906 63.4273 11.8685 67.8569 3.39035 65.3499Z" fill="#8DDBE0"/>
<path d="M26.349 68.9468H57.0498C59.4008 68.9468 61.3066 67.1283 61.3066 64.8851L61.3066 5.11491C61.3066 2.87173 59.4008 1.05328 57.0498 1.05328H26.349C23.9981 1.05328 22.0922 2.87173 22.0922 5.11491L22.0922 64.8851C22.0922 67.1283 23.9981 68.9468 26.349 68.9468Z" fill="white"/>
<path d="M20.9883 64.8851V5.11494C20.9899 3.75886 21.5553 2.45877 22.5602 1.49988C23.5652 0.540981 24.9278 0.0015796 26.3491 0H57.0499C58.4712 0.0015796 59.8338 0.540981 60.8388 1.49988C61.8437 2.45877 62.4091 3.75886 62.4107 5.11494V64.8851C62.4091 66.2411 61.8437 67.5412 60.8388 68.5001C59.8338 69.459 58.4712 69.9984 57.0499 70H26.3491C24.9278 69.9984 23.5652 69.459 22.5602 68.5001C21.5553 67.5412 20.9899 66.2411 20.9883 64.8851ZM26.3491 2.10638C25.5132 2.10739 24.712 2.42464 24.121 2.98854C23.5299 3.55245 23.1975 4.31698 23.1964 5.11447V64.8851C23.1974 65.6825 23.5299 66.4471 24.1209 67.011C24.7119 67.5749 25.5132 67.8922 26.3491 67.8931H57.0499C57.8858 67.8922 58.6871 67.5749 59.2781 67.011C59.8691 66.4471 60.2016 65.6825 60.2026 64.8851V5.11494C60.2015 4.31746 59.8691 3.55293 59.278 2.98902C58.687 2.42511 57.8858 2.10787 57.0499 2.10686L26.3491 2.10638Z" fill="#DEE8F5"/>
<path d="M46.4694 5.40503L36.9301 5.40503C36.4122 5.405 35.9156 5.2087 35.5495 4.85933C35.1834 4.50996 34.9777 4.03612 34.9777 3.54204V1.05333L48.4219 1.05333V3.54204C48.4219 3.91051 48.3074 4.2707 48.0928 4.57706C47.8783 4.88343 47.5733 5.12221 47.2166 5.26322C46.8598 5.40422 46.4672 5.44112 46.0884 5.36923C45.7097 5.29735 45.3618 5.11992 45.0887 4.85937C44.8156 4.59883 44.6297 4.26688 44.5543 3.90549C44.479 3.54411 44.5177 3.16953 44.6655 2.82911C44.8132 2.48869 45.0635 2.19774 45.3846 1.99303C45.7057 1.78832 46.0832 1.67906 46.4694 1.67906V5.40503Z" fill="#DEE8F5"/>
<path d="M82.1602 20.9441C82.1602 20.9441 81.17 20.4427 81.3911 17.8703L79.3451 17.5083C79.3451 17.5083 79.575 19.8151 78.54 20.5474L82.1602 20.9441Z" fill="#E98862"/>
<path opacity="0.15" d="M78.959 20.0657L80.6587 18.8243L79.3238 18.811C79.2852 19.2473 79.1615 19.6729 78.959 20.0657Z" fill="black"/>
<path d="M82.5516 16.8726C82.41 17.6531 81.9636 18.3924 81.2418 18.6445C80.4552 18.9424 79.6041 19.0521 78.7629 18.964C76.5235 18.7888 76.9662 13.9298 78.0296 12.9859C79.093 12.0421 82.2137 12.6398 82.5932 14.2184C82.7895 15.0349 82.6863 16.1296 82.5516 16.8726Z" fill="#E98862"/>
<path d="M81.2709 18.5513C81.3135 18.6811 81.3431 18.7377 81.4657 18.6682C81.9468 18.3956 82.9012 17.8022 83.27 15.579C83.6004 13.5871 82.3126 12.7655 81.2856 12.4725C80.4003 12.2198 78.3342 12.1677 77.3645 12.7254C76.529 13.206 77.3645 14.3238 77.3645 14.3238C77.7338 14.34 77.8083 14.6428 78.6795 14.6428C79.3531 14.6428 79.1174 14.619 79.7483 14.6237C80.8705 14.6325 80.5079 15.4198 80.4875 15.6347C80.429 16.2494 80.9123 16.5749 80.9855 17.0888C81.0421 17.5825 81.1375 18.0713 81.2709 18.5513Z" fill="#0F1011"/>
<path d="M80.3132 16.5276C80.3047 16.6258 80.3167 16.7247 80.3483 16.8185C80.3799 16.9124 80.4305 16.9993 80.4973 17.0745C80.5642 17.1497 80.6459 17.2115 80.7378 17.2566C80.8297 17.3016 80.9299 17.3289 81.0329 17.337C81.1359 17.3451 81.2395 17.3337 81.3378 17.3035C81.4362 17.2734 81.5274 17.225 81.6061 17.1613C81.6849 17.0975 81.7497 17.0196 81.7969 16.9319C81.8442 16.8442 81.8728 16.7485 81.8812 16.6503C81.8914 16.5517 81.8808 16.4522 81.8498 16.3577C81.8189 16.2631 81.7684 16.1755 81.7012 16.1C81.6341 16.0244 81.5517 15.9626 81.459 15.9181C81.3662 15.8736 81.2651 15.8473 81.1615 15.8408C80.6008 15.8234 80.3487 16.1147 80.3132 16.5276Z" fill="#E98862"/>
<path d="M80.659 14.1467L81.2382 14.3491C81.2382 14.3491 81.0328 17.1102 80.8708 17.8651C80.7088 18.6199 80.2551 19.1113 79.7412 19.1533C78.9519 19.2179 78.3801 19.223 77.8011 19.0256C77.1483 18.8029 77.2397 17.1311 77.2397 17.1311C77.2397 17.1311 79.3405 17.3482 79.9217 17.0819C80.503 16.8156 80.659 14.1467 80.659 14.1467Z" fill="#0F1011"/>
<path d="M79.3476 16.2715C79.4501 16.2715 79.5332 16.1923 79.5332 16.0945C79.5332 15.9967 79.4501 15.9175 79.3476 15.9175C79.2452 15.9175 79.1621 15.9967 79.1621 16.0945C79.1621 16.1923 79.2452 16.2715 79.3476 16.2715Z" fill="#0F1011"/>
<path d="M77.8838 16.1568C77.9862 16.1568 78.0693 16.0775 78.0693 15.9798C78.0693 15.882 77.9862 15.8027 77.8838 15.8027C77.7813 15.8027 77.6982 15.882 77.6982 15.9798C77.6982 16.0775 77.7813 16.1568 77.8838 16.1568Z" fill="#0F1011"/>
<path d="M78.054 15.5134L77.5625 15.5188" stroke="#0F1011" stroke-width="1.394" stroke-miterlimit="10" stroke-linecap="round"/>
<path d="M79.7483 15.6904L79.2637 15.5791" stroke="#0F1011" stroke-width="1.394" stroke-miterlimit="10" stroke-linecap="round"/>
<g opacity="0.15">
<path opacity="0.15" d="M78.5244 17.0762C78.518 17.0762 78.5117 17.0753 78.5056 17.0736L78.059 16.9423C78.0503 16.9397 78.0423 16.9355 78.0354 16.9297C78.0286 16.924 78.0231 16.917 78.0194 16.909C78.0156 16.9011 78.0137 16.8926 78.0137 16.8839C78.0137 16.8752 78.0156 16.8666 78.0193 16.8587L78.3131 16.2347C78.3203 16.2203 78.3331 16.2092 78.3488 16.2037C78.3645 16.1982 78.3818 16.1988 78.3971 16.2053C78.4123 16.2118 78.4243 16.2238 78.4304 16.2386C78.4366 16.2534 78.4364 16.27 78.4299 16.2847L78.1658 16.8457L78.5433 16.9562C78.5578 16.9606 78.5702 16.9698 78.5783 16.9822C78.5863 16.9945 78.5895 17.0092 78.5872 17.0236C78.5849 17.038 78.5774 17.0511 78.5658 17.0607C78.5543 17.0702 78.5396 17.0755 78.5244 17.0756V17.0762Z" fill="black"/>
</g>
<path d="M82.4012 13.0199C82.4012 13.0199 81.7963 13.7486 79.5504 12.2904C77.3045 10.8322 76.4628 11.8896 76.4628 12.535C76.4628 13.1804 76.094 14.6325 78.4194 14.6325" fill="#0F1011"/>
<path d="M79.1108 17.8456C79.1108 17.8456 78.4497 17.7263 77.9688 17.8456C77.9688 17.8456 78.0085 17.4268 78.5399 17.4268C79.0712 17.4268 79.1108 17.8456 79.1108 17.8456Z" fill="white"/>
<path d="M65.699 26.2503C65.699 26.2503 64.9634 25.4173 64.1808 25.2852C63.3981 25.1532 63.5935 25.5828 64.0585 25.9033C64.5236 26.2238 65.5723 26.8692 65.5723 26.8692" fill="#E98862"/>
<path d="M65.16 25.9975C65.16 25.9975 63.6998 25.4309 63.0739 25.6871C63.0739 25.6871 62.5283 26.1979 63.063 26.8689C63.5759 27.5124 64.9145 27.7514 64.9145 27.7514L65.16 25.9975Z" fill="#E98862"/>
<path d="M73.6007 68.693L76.2097 68.3969C76.0922 67.4548 75.9595 66.3231 75.9505 66.1375C75.9505 66.1494 75.9505 66.1592 75.9505 66.1668H73.3232C73.324 66.2419 73.324 66.4705 73.6007 68.693Z" fill="#E98862"/>
<path d="M84.0694 68.9925L86.6966 68.9843C86.6966 68.9843 86.6878 66.3958 86.6878 66.1672H84.0605C84.0605 66.3965 84.0694 68.9925 84.0694 68.9925Z" fill="#E98862"/>
<path d="M77.2601 67.9013L72.6318 67.8261C72.8242 63.1752 72.857 57.8555 72.9087 53.0417C72.923 51.8486 73.0175 50.6576 73.1914 49.476C73.9361 44.3762 74.4218 39.3058 75.4243 34.2351L75.4577 34.2445L75.5556 33.6083L85.0732 33.0479L85.5686 38.9805C85.5686 38.9805 86.8083 59.5055 87.3737 67.7584L82.7613 68.1303C81.9302 60.0388 80.644 48.2487 79.8531 39.7484C78.9447 43.8869 78.3268 48.172 77.5368 52.275C77.3787 57.4116 77.2454 62.7807 77.2601 67.9013Z" fill="#262626"/>
<path d="M80.8759 69.9618C80.8052 69.9615 80.7354 69.9473 80.6707 69.9201C80.6061 69.8929 80.548 69.8533 80.5001 69.8037C80.4523 69.7541 80.4156 69.6956 80.3925 69.6319C80.3694 69.5682 80.3603 69.5006 80.3658 69.4334C80.3734 69.3402 80.4088 69.2511 80.4677 69.1764C80.5266 69.1018 80.6067 69.0448 80.6985 69.0121L83.7563 68.0349C83.8156 68.0161 83.8784 68.0099 83.9404 68.0165C84.0024 68.023 84.0622 68.0424 84.1157 68.0731C84.5361 68.3513 85.039 68.4936 85.5504 68.4789C85.9488 68.4519 86.3311 68.3186 86.6539 68.0942C86.6823 68.072 86.7166 68.058 86.7531 68.0538C86.7895 68.0495 86.8264 68.0552 86.8595 68.0703C86.8926 68.0853 86.9206 68.1089 86.9402 68.1385C86.9597 68.1681 86.9701 68.2024 86.97 68.2374V69.6641C86.97 69.7062 86.9613 69.7479 86.9444 69.7868C86.9275 69.8256 86.9027 69.8609 86.8714 69.8906C86.8401 69.9203 86.8031 69.9439 86.7622 69.9599C86.7214 69.9758 86.6777 69.984 86.6336 69.9838L80.8759 69.9618Z" fill="#C1D8ED"/>
<path d="M70.4002 69.9618C70.3295 69.9615 70.2597 69.9473 70.195 69.9201C70.1304 69.8929 70.0723 69.8532 70.0245 69.8036C69.9766 69.7541 69.94 69.6956 69.9169 69.6319C69.8938 69.5682 69.8847 69.5006 69.8902 69.4334C69.8978 69.3402 69.9331 69.2511 69.9921 69.1764C70.051 69.1018 70.131 69.0448 70.2228 69.0121L73.2807 68.0348C73.34 68.0161 73.4027 68.0099 73.4647 68.0165C73.5268 68.0231 73.5865 68.0424 73.64 68.073C74.0604 68.3513 74.5633 68.4936 75.0747 68.4789C75.4731 68.4519 75.8554 68.3186 76.1782 68.0942C76.2065 68.072 76.2409 68.0579 76.2774 68.0537C76.3138 68.0494 76.3507 68.0551 76.3839 68.0701C76.417 68.0852 76.445 68.1089 76.4646 68.1385C76.4842 68.1681 76.4945 68.2024 76.4944 68.2374V69.6641C76.4944 69.7062 76.4857 69.7479 76.4688 69.7868C76.4519 69.8256 76.4271 69.8609 76.3958 69.8906C76.3646 69.9203 76.3275 69.9438 76.2867 69.9598C76.2458 69.9758 76.2021 69.984 76.158 69.9838L70.4002 69.9618Z" fill="#C1D8ED"/>
<path d="M72.134 30.3957C72.3624 30.3958 72.5869 30.339 72.7852 30.231C72.9836 30.1229 73.149 29.9674 73.2652 29.7798L77.7888 22.4752L75.5265 21.1997L71.547 27.6258L65.2579 25.5733L64.4072 27.945L71.7083 30.3279C71.8453 30.3728 71.9891 30.3957 72.134 30.3957Z" fill="#367CFF"/>
<path d="M74.9384 34.0082C75.4626 35.1577 85.7625 35.6351 85.9001 33.613C85.9877 32.3262 84.7992 31.203 84.7992 28.6951C84.7992 26.1871 87.2175 22.9845 85.2471 21.1044C84.6753 20.5589 83.6882 20.2068 82.4847 20.2056C82.3946 20.8752 78.1336 20.8776 78.101 20.2211C77.9384 20.2235 77.812 20.2259 77.7332 20.2294C73.5822 20.4001 75.4063 24.9075 75.4463 28.2188C75.4946 32.0934 74.3974 32.8239 74.9384 34.0082Z" fill="#367CFF"/>
<path d="M75.59 35.4467C75.7098 35.3347 75.8046 35.2007 75.8685 35.0527C75.9324 34.9047 75.9642 34.7459 75.9618 34.5859C75.9595 34.4258 75.9231 34.2679 75.8549 34.1217C75.7867 33.9755 75.688 33.844 75.565 33.7353L63.8139 23.3547C63.6881 23.2438 63.5397 23.1588 63.378 23.1049C63.2163 23.051 63.0447 23.0293 62.8739 23.0413C62.703 23.0532 62.5366 23.0985 62.3849 23.1744C62.2331 23.2502 62.0993 23.355 61.9918 23.4821C61.7943 23.726 61.7007 24.032 61.7298 24.3389C61.7589 24.6457 61.9085 24.9308 62.1486 25.1368L73.8835 35.4708C74.1169 35.6764 74.4242 35.7885 74.7418 35.7841C75.0594 35.7797 75.3631 35.659 75.5901 35.4469L75.59 35.4467Z" fill="#CA1000"/>
<path d="M75.1679 22.9733C75.0506 22.8589 74.9101 22.7685 74.755 22.7076C74.6 22.6466 74.4335 22.6163 74.2658 22.6185C74.0981 22.6208 73.9326 22.6555 73.7794 22.7205C73.6262 22.7856 73.4884 22.8797 73.3744 22.9971L62.4949 34.2094C62.3787 34.3295 62.2896 34.4711 62.2331 34.6254C62.1766 34.7797 62.1539 34.9434 62.1664 35.1064C62.179 35.2694 62.2264 35.4282 62.3059 35.573C62.3854 35.7177 62.4952 35.8454 62.6285 35.948C62.884 36.1365 63.2047 36.2259 63.5263 36.1982C63.8479 36.1705 64.1467 36.0278 64.3627 35.7987L75.1933 24.6019C75.4088 24.3792 75.5264 24.0861 75.5217 23.783C75.517 23.48 75.3905 23.1902 75.1683 22.9736L75.1679 22.9733Z" fill="#BC0C0C"/>
<path d="M78.1006 20.2211C78.1331 20.8776 78.5072 21.8433 79.6619 21.9161C81.2007 22.0128 82.3942 20.8752 82.4843 20.2056H82.4805C80.9655 20.2055 78.9838 20.2078 78.1006 20.2211Z" fill="#E98862"/>
<path d="M74.6016 29.4112C74.6016 29.4112 74.8912 27.839 73.7 27.709C72.9484 27.627 71.0592 26.6303 70.7008 27.4634C70.3897 28.1861 72.1941 29.0466 72.8401 29.2061C73.4184 29.3481 74.6016 29.4112 74.6016 29.4112Z" fill="#E98862"/>
<path d="M74.1062 27.8343C74.1062 27.8343 72.5713 27.0311 72.1513 27.0499C71.7795 27.0665 72.4119 27.7527 72.4119 27.7527L74.1062 27.8343Z" fill="#E98862"/>
<path d="M80.7903 31.9838C81.0537 31.9838 81.3115 31.911 81.5325 31.7742C81.7535 31.6374 81.9282 31.4425 82.0356 31.2129L85.8577 23.0481L83.367 21.9866L80.0369 29.1009L73.6259 27.2235L72.8252 29.7115L80.3897 31.9269C80.5195 31.9648 80.6545 31.984 80.7903 31.9838Z" fill="#367CFF"/>
<path d="M62.3272 25.9387C62.2945 25.8935 62.2789 25.8391 62.2828 25.7843C62.2868 25.7296 62.3102 25.6778 62.3491 25.6374C62.5388 25.4417 62.8908 25.1315 63.1225 25.2462C63.4529 25.4096 64.1138 26.0168 63.9302 26.3324C63.7465 26.6481 63.3672 26.9945 63.122 26.8894C62.9365 26.81 62.5389 26.2328 62.3272 25.9387Z" fill="#E98862"/>
<path d="M42.792 50.5894H54.9033V45.6415H42.792V50.5894Z" fill="#C1D8ED"/>
<path d="M28.4951 50.5894H40.6064V45.6415H28.4951V50.5894Z" fill="#0CBC8B"/>
<path d="M32.96 23.2171C32.9568 25.3731 33.8325 27.4458 35.402 28.9969C36.5805 26.4842 38.9588 24.7689 41.6973 24.7689C44.4384 24.7689 46.8167 26.4866 47.9952 28.9993C48.987 28.0162 49.7108 26.8159 50.103 25.5037C50.4953 24.1915 50.5441 22.8074 50.245 21.473C49.946 20.1386 49.3083 18.8946 48.3879 17.8502C47.4675 16.8058 46.2926 15.9929 44.9661 15.4828C43.6397 14.9726 42.2023 14.7809 40.7801 14.9244C39.3578 15.0679 37.9943 15.5423 36.809 16.3058C35.6237 17.0694 34.6529 18.0988 33.9819 19.3038C33.3108 20.5088 32.9599 21.8525 32.96 23.2171Z" fill="#C1D8ED"/>
<path d="M41.6991 24.0762C43.6098 24.0762 45.1588 22.5982 45.1588 20.775C45.1588 18.9518 43.6098 17.4739 41.6991 17.4739C39.7883 17.4739 38.2393 18.9518 38.2393 20.775C38.2393 22.5982 39.7883 24.0762 41.6991 24.0762Z" fill="#F3F5FD"/>
<path d="M35.4023 28.9968C36.2174 29.8055 37.1951 30.4489 38.277 30.8884C39.3588 31.328 40.5225 31.5547 41.6984 31.5549C42.8742 31.5551 44.038 31.3289 45.12 30.8897C46.2021 30.4506 47.1801 29.8076 47.9955 28.9992C46.817 26.4865 44.4387 24.7688 41.6976 24.7688C38.9591 24.7688 36.5808 26.4841 35.4023 28.9968Z" fill="#F3F5FD"/>
<path d="M28.4949 35.8611H54.9033V34.8549H28.4949V35.8611Z" fill="#DEE8F5"/>
<path d="M28.4949 38.6003H54.9033V37.5942H28.4949V38.6003Z" fill="#DEE8F5"/>
<path d="M42.792 41.4333H54.9033V40.4272H42.792V41.4333Z" fill="#DEE8F5"/>
</g>
<defs>
<clipPath id="clip0_2_49364">
<rect width="95" height="70" fill="white"/>
</clipPath>
</defs>
</svg>
