<svg width="30" height="30" viewBox="0 0 30 30" fill="none" xmlns="http://www.w3.org/2000/svg">
<path d="M20.4769 10.3418H19.1029C18.8041 10.3418 18.5199 10.4854 18.3441 10.7314L13.7387 17.1182L11.6527 14.2236C11.4769 13.9805 11.1957 13.834 10.8939 13.834H9.5199C9.32947 13.834 9.21814 14.0508 9.32947 14.2061L12.9799 19.2686C13.0661 19.3889 13.1798 19.487 13.3115 19.5546C13.4432 19.6223 13.5891 19.6576 13.7372 19.6576C13.8853 19.6576 14.0312 19.6223 14.1629 19.5546C14.2946 19.487 14.4083 19.3889 14.4945 19.2686L20.6644 10.7139C20.7787 10.5586 20.6674 10.3418 20.4769 10.3418Z" fill="#0CBC8B"/>
<path d="M15 1.875C7.75195 1.875 1.875 7.75195 1.875 15C1.875 22.248 7.75195 28.125 15 28.125C22.248 28.125 28.125 22.248 28.125 15C28.125 7.75195 22.248 1.875 15 1.875ZM15 25.8984C8.98242 25.8984 4.10156 21.0176 4.10156 15C4.10156 8.98242 8.98242 4.10156 15 4.10156C21.0176 4.10156 25.8984 8.98242 25.8984 15C25.8984 21.0176 21.0176 25.8984 15 25.8984Z" fill="#0CBC8B"/>
</svg>
