<svg width="108" height="69" viewBox="0 0 108 69" fill="none" xmlns="http://www.w3.org/2000/svg">
<g clip-path="url(#clip0_8_17548)">
<path d="M32.5747 7.2654C32.5747 3.83895 30.4867 1.09766 26.4735 1.09766C22.8523 1.09766 20.5581 3.87927 20.5581 7.2654" fill="#C1D8ED"/>
<path d="M26.4736 1.09814C30.4831 1.09814 32.5681 3.83471 32.5747 7.25616C32.5781 7.2809 32.5796 7.30578 32.5793 7.33068V40.0942C32.5748 40.9066 32.7605 41.7117 33.1257 42.4634C33.491 43.2151 34.0287 43.8984 34.7079 44.4742C35.3871 45.0501 36.1944 45.507 37.0835 45.8188C37.9726 46.1306 38.926 46.2911 39.8888 46.2911C40.8516 46.2911 41.805 46.1306 42.694 45.8188C43.5831 45.507 44.3905 45.0501 45.0697 44.4742C45.7489 43.8984 46.2866 43.2151 46.6518 42.4634C47.0171 41.7117 47.2028 40.9066 47.1983 40.0942H70.4792V7.95062C70.4792 4.28198 67.9692 1.25831 63.6214 1.09814H26.4736Z" fill="#D7E8F4"/>
<path d="M39.8892 46.2618H70.4791C71.4391 46.2619 72.3896 46.1024 73.2764 45.7924C74.1633 45.4825 74.9691 45.0282 75.6479 44.4554C76.3266 43.8827 76.8651 43.2028 77.2324 42.4545C77.5998 41.7062 77.7888 40.9042 77.7888 40.0942H47.1987C47.2027 40.9051 47.0164 41.7087 46.6505 42.4585C46.2845 43.2083 45.7463 43.8896 45.0667 44.4629C44.3872 45.0363 43.5798 45.4905 42.6911 45.7993C41.8025 46.108 40.8502 46.2652 39.8892 46.2618Z" fill="#C1D8ED"/>
<path d="M43.7569 14.3535L59.4487 14.3535C60.1563 14.3535 60.73 13.8695 60.73 13.2725C60.73 12.6754 60.1563 12.1914 59.4487 12.1914L43.7569 12.1914C43.0493 12.1914 42.4756 12.6754 42.4756 13.2725C42.4756 13.8695 43.0493 14.3535 43.7569 14.3535Z" fill="#FAFBFC"/>
<path d="M63.9314 19.6177H39.2739C38.9724 19.6177 38.728 19.8239 38.728 20.0783V20.0784C38.728 20.3328 38.9724 20.539 39.2739 20.539H63.9314C64.2329 20.539 64.4773 20.3328 64.4773 20.0784V20.0783C64.4773 19.8239 64.2329 19.6177 63.9314 19.6177Z" fill="#FAFBFC"/>
<path d="M63.9314 17.4053H39.2739C38.9724 17.4053 38.728 17.6115 38.728 17.8659V17.866C38.728 18.1204 38.9724 18.3266 39.2739 18.3266H63.9314C64.2329 18.3266 64.4773 18.1204 64.4773 17.866V17.8659C64.4773 17.6115 64.2329 17.4053 63.9314 17.4053Z" fill="#FAFBFC"/>
<path d="M63.9314 21.8301H39.2739C38.9724 21.8301 38.728 22.0363 38.728 22.2907V22.2908C38.728 22.5452 38.9724 22.7514 39.2739 22.7514H63.9314C64.2329 22.7514 64.4773 22.5452 64.4773 22.2908V22.2907C64.4773 22.0363 64.2329 21.8301 63.9314 21.8301Z" fill="#FAFBFC"/>
<path d="M63.9314 24.043H39.2739C38.9724 24.043 38.728 24.2492 38.728 24.5036V24.5037C38.728 24.7581 38.9724 24.9643 39.2739 24.9643H63.9314C64.2329 24.9643 64.4773 24.7581 64.4773 24.5037V24.5036C64.4773 24.2492 64.2329 24.043 63.9314 24.043Z" fill="#FAFBFC"/>
<path d="M63.9314 26.2554H39.2739C38.9724 26.2554 38.728 26.4616 38.728 26.716V26.7161C38.728 26.9705 38.9724 27.1767 39.2739 27.1767H63.9314C64.2329 27.1767 64.4773 26.9705 64.4773 26.7161V26.716C64.4773 26.4616 64.2329 26.2554 63.9314 26.2554Z" fill="#FAFBFC"/>
<path d="M63.9314 30.6802H39.2739C38.9724 30.6802 38.728 30.8864 38.728 31.1408V31.1409C38.728 31.3953 38.9724 31.6015 39.2739 31.6015H63.9314C64.2329 31.6015 64.4773 31.3953 64.4773 31.1409V31.1408C64.4773 30.8864 64.2329 30.6802 63.9314 30.6802Z" fill="#FAFBFC"/>
<path d="M63.9314 28.4678H39.2739C38.9724 28.4678 38.728 28.674 38.728 28.9284V28.9285C38.728 29.1829 38.9724 29.3892 39.2739 29.3892H63.9314C64.2329 29.3892 64.4773 29.1829 64.4773 28.9285V28.9284C64.4773 28.674 64.2329 28.4678 63.9314 28.4678Z" fill="#FAFBFC"/>
<path d="M56.5161 32.8931H46.689C46.3875 32.8931 46.1431 33.0993 46.1431 33.3537V33.3538C46.1431 33.6082 46.3875 33.8144 46.689 33.8144H56.5161C56.8176 33.8144 57.062 33.6082 57.062 33.3538V33.3537C57.062 33.0993 56.8176 32.8931 56.5161 32.8931Z" fill="#FAFBFC"/>
<path d="M17.4812 5.47185C17.5306 5.98196 16.9005 6.4569 16.7967 6.93767C16.6893 7.43513 17.0745 8.06689 16.823 8.51318C16.5681 8.96587 15.7416 9.11269 15.3595 9.49211C14.9774 9.87153 14.9387 10.5834 14.4503 10.8685C13.9688 11.1498 13.1677 10.9307 12.6033 11.1003C12.0578 11.2642 11.6038 11.865 10.9991 11.9067C10.3944 11.9484 9.83169 11.4166 9.2619 11.329C8.67234 11.2384 7.9236 11.5634 7.39468 11.3512C6.85817 11.1362 6.68417 10.4388 6.2345 10.1164C5.78484 9.79395 4.94119 9.76127 4.60324 9.34918C4.2699 8.94293 4.52959 8.26696 4.32856 7.79077C4.1343 7.33043 3.42231 6.9474 3.37287 6.43715C3.32344 5.9269 3.9537 5.45211 4.05751 4.97134C4.16494 4.47388 3.7797 3.84212 4.03115 3.39582C4.28605 2.94314 5.11256 2.79632 5.49467 2.4169C5.87678 2.03748 5.9155 1.32563 6.40389 1.04048C6.88536 0.759218 7.68649 0.978332 8.25084 0.808713C8.79641 0.644794 9.25036 0.0440362 9.85508 0.00232654C10.4598 -0.0393831 11.0225 0.492415 11.5923 0.580005C12.1819 0.670654 12.9306 0.345597 13.4595 0.55776C13.996 0.772843 14.1707 1.47023 14.6197 1.79264C15.0687 2.11506 15.913 2.14773 16.251 2.55982C16.5843 2.96608 16.3246 3.64205 16.5256 4.11824C16.7199 4.57857 17.4322 4.9616 17.4812 5.47185Z" fill="#0F1011"/>
<path d="M8.23682 11.0165C8.56307 10.5508 8.91239 9.64847 8.75091 7.97313L11.384 7.56299C11.384 7.56299 11.0874 10.1768 12.4072 11.0165H8.23682Z" fill="#E98862"/>
<path opacity="0.15" d="M11.8773 10.4731L9.69189 9.0598L11.4095 9.0459C11.4587 9.54206 11.6173 10.0261 11.8773 10.4731Z" fill="black"/>
<path d="M7.25851 6.83702C7.43976 7.72543 8.0135 8.56685 8.94167 8.85451C9.95344 9.19419 11.0483 9.31987 12.1309 9.22058C15.0129 9.0233 14.4487 3.49385 13.0816 2.41927C11.7145 1.34469 7.69845 2.02136 7.20808 3.81738C6.9545 4.74569 7.08533 5.99142 7.25851 6.83702Z" fill="#E98862"/>
<path d="M11.3823 6.15584C11.5142 6.15584 11.6211 6.06565 11.6211 5.95439C11.6211 5.84313 11.5142 5.75293 11.3823 5.75293C11.2504 5.75293 11.1436 5.84313 11.1436 5.95439C11.1436 6.06565 11.2504 6.15584 11.3823 6.15584Z" fill="#0F1011"/>
<path d="M13.2661 6.02694C13.398 6.02694 13.5049 5.93674 13.5049 5.82548C13.5049 5.71422 13.398 5.62402 13.2661 5.62402C13.1342 5.62402 13.0273 5.71422 13.0273 5.82548C13.0273 5.93674 13.1342 6.02694 13.2661 6.02694Z" fill="#0F1011"/>
<path d="M13.6801 5.39665H13.6786L13.0462 5.38942C13.0172 5.38833 12.9898 5.37781 12.9698 5.36005C12.9498 5.3423 12.9388 5.3187 12.939 5.2942C12.9392 5.26971 12.9506 5.24624 12.9709 5.22871C12.9911 5.21118 13.0187 5.20096 13.0477 5.2002H13.0492L13.6816 5.20729C13.7113 5.20745 13.7398 5.21759 13.7607 5.23546C13.7816 5.25333 13.7932 5.27748 13.793 5.30259C13.7928 5.3277 13.7808 5.35172 13.7596 5.36936C13.7385 5.387 13.7098 5.39681 13.6801 5.39665Z" fill="#0F1011"/>
<path d="M10.8671 5.58906C10.8397 5.58896 10.8133 5.5804 10.7928 5.56498C10.7724 5.54956 10.7593 5.52836 10.7561 5.50537C10.7529 5.48238 10.7598 5.45921 10.7755 5.44023C10.7912 5.42124 10.8146 5.40776 10.8413 5.40234L11.4649 5.27623C11.4794 5.27293 11.4946 5.27211 11.5094 5.27382C11.5243 5.27554 11.5386 5.27975 11.5515 5.28622C11.5644 5.29268 11.5757 5.30127 11.5846 5.31147C11.5935 5.32167 11.5999 5.33327 11.6034 5.34558C11.6069 5.3579 11.6074 5.37069 11.6049 5.38318C11.6025 5.39567 11.597 5.40762 11.589 5.41832C11.581 5.42902 11.5705 5.43825 11.5581 5.44546C11.5458 5.45267 11.5319 5.45772 11.5172 5.46031L10.8935 5.58641C10.8849 5.58818 10.876 5.58907 10.8671 5.58906Z" fill="#0F1011"/>
<path d="M11.4912 7.54108C11.4912 7.54108 12.3724 7.62019 12.9907 7.43848C12.9907 7.43848 12.9852 7.92829 12.2879 7.97597C11.5906 8.02366 11.4912 7.54108 11.4912 7.54108Z" fill="#F8FCFF"/>
<path d="M9.20011 4.53708C9.37306 6.61895 9.10149 8.71009 8.39832 10.7109C8.39832 10.7109 6.38923 7.7878 6.07847 5.35404C5.78715 3.07252 7.78108 1.72697 9.12745 1.47365C14.2438 0.512799 14.6121 3.66633 14.6121 3.66633C13.68 5.30176 8.64631 5.29453 8.64631 5.29453" fill="#0F1011"/>
<path d="M10.1757 6.82207C10.1942 7.04635 10.1072 7.26774 9.93347 7.43821C9.75975 7.60868 9.51337 7.71448 9.24779 7.73265C8.98222 7.75082 8.71886 7.6799 8.51485 7.53528C8.31085 7.39066 8.18266 7.184 8.15808 6.96013C8.14503 6.84798 8.15886 6.73475 8.19875 6.6272C8.23865 6.51965 8.30378 6.41997 8.39028 6.33411C8.47678 6.24824 8.58287 6.17794 8.70224 6.12739C8.82161 6.07684 8.95182 6.04708 9.0851 6.03988C9.80648 6.02041 10.1306 6.352 10.1757 6.82207Z" fill="#E98862"/>
<g opacity="0.15">
<path opacity="0.15" d="M12.4407 7.07271C12.4209 7.07269 12.4019 7.0667 12.387 7.05582C12.372 7.04495 12.3622 7.02992 12.3593 7.01346C12.3564 6.997 12.3606 6.98021 12.3711 6.96613C12.3816 6.95205 12.3978 6.94162 12.4166 6.93674L12.9022 6.81161L12.5634 6.17317C12.5545 6.15634 12.5538 6.1372 12.5616 6.11997C12.5694 6.10273 12.585 6.08881 12.605 6.08127C12.6249 6.07373 12.6476 6.07319 12.668 6.07976C12.6884 6.08633 12.7049 6.09948 12.7139 6.11631L13.091 6.82676C13.0958 6.83576 13.0982 6.8455 13.0982 6.85534C13.0982 6.86519 13.0956 6.87492 13.0908 6.88388C13.086 6.89285 13.079 6.90085 13.0702 6.90735C13.0614 6.91384 13.0511 6.9187 13.04 6.92158L12.4651 7.07007C12.4571 7.07198 12.4489 7.07287 12.4407 7.07271Z" fill="black"/>
</g>
<path d="M17.0236 30.3608C20.3108 42.5801 23.2875 54.8814 25.6365 67.2554L22.3344 67.8285C18.7043 55.6771 15.6845 43.383 12.9888 31.0611L17.0236 30.3608Z" fill="#E98862"/>
<path d="M10.2287 31.1177C10.5306 43.2569 10.5089 55.4234 9.85453 67.5544H6.48342C5.82943 55.4236 5.80785 43.2567 6.10938 31.1177H10.2287Z" fill="#E98862"/>
<path d="M14.2161 68.6761C14.3092 68.6757 14.4011 68.6591 14.4862 68.6274C14.5714 68.5956 14.6478 68.5495 14.7108 68.4917C14.7739 68.4339 14.8221 68.3658 14.8525 68.2916C14.883 68.2174 14.8949 68.1387 14.8877 68.0604C14.8778 67.9518 14.8313 67.8479 14.7536 67.7609C14.676 67.6739 14.5705 67.6074 14.4496 67.5694L10.4222 66.4312C10.3441 66.4094 10.2614 66.402 10.1797 66.4097C10.098 66.4173 10.0192 66.4398 9.94878 66.4756C9.39513 66.7997 8.73286 66.9654 8.05931 66.9483C7.53465 66.9168 7.03102 66.7616 6.60584 66.5003C6.56848 66.4744 6.52318 66.4581 6.47521 66.4531C6.42723 66.4481 6.37858 66.4548 6.33492 66.4723C6.29126 66.4898 6.2544 66.5174 6.22864 66.5519C6.20289 66.5864 6.18929 66.6264 6.18945 66.6672V68.3289C6.18943 68.3779 6.20089 68.4265 6.22317 68.4718C6.24545 68.517 6.27812 68.5582 6.31929 68.5928C6.36046 68.6274 6.40933 68.6547 6.46309 68.6734C6.51684 68.692 6.57443 68.7014 6.63253 68.7012L14.2161 68.6761Z" fill="#C1D8ED"/>
<path d="M29.6609 68.676C29.754 68.6757 29.846 68.6591 29.9311 68.6274C30.0162 68.5957 30.0927 68.5495 30.1557 68.4917C30.2188 68.4339 30.267 68.3658 30.2974 68.2916C30.3278 68.2174 30.3398 68.1387 30.3325 68.0604C30.3226 67.9518 30.2761 67.8479 30.1985 67.7609C30.1209 67.6739 30.0155 67.6075 29.8946 67.5693L25.867 66.4312C25.789 66.4094 25.7063 66.402 25.6246 66.4097C25.5429 66.4173 25.4642 66.4398 25.3938 66.4756C24.8401 66.7997 24.1777 66.9654 23.5041 66.9483C22.9795 66.9168 22.4759 66.7616 22.0508 66.5003C22.0135 66.4745 21.9681 66.4581 21.9202 66.4531C21.8722 66.4482 21.8235 66.4548 21.7799 66.4723C21.7362 66.4898 21.6993 66.5174 21.6736 66.5519C21.6478 66.5864 21.6342 66.6264 21.6343 66.6672V68.3289C21.6343 68.3779 21.6458 68.4265 21.668 68.4717C21.6903 68.517 21.723 68.5581 21.7642 68.5927C21.8053 68.6273 21.8542 68.6547 21.9079 68.6733C21.9617 68.6919 22.0193 68.7014 22.0774 68.7012L29.6609 68.676Z" fill="#C1D8ED"/>
<path d="M4.02049 25.877C4.02049 25.877 2.14865 32.9497 2.14865 38.8979C2.14865 44.8461 0 54.0585 0 54.0585C0 54.0585 6.0912 53.2271 10.2232 54.0585C17.343 55.4908 23.7275 52.3718 23.7275 52.3718L16.5565 26.5298L4.02049 25.877Z" fill="#262626"/>
<path d="M36.4233 19.2546C36.4233 19.2546 37.7759 18.7 38.7917 18.9129C39.8076 19.1258 39.3317 19.4946 38.5924 19.6259C37.853 19.7571 36.229 19.9705 36.229 19.9705" fill="#E98862"/>
<path d="M37.2135 19.2281C37.2135 19.2281 39.7211 19.0056 39.7471 19.5147C39.7471 19.5147 39.857 21.0851 39.5164 21.328C39.0022 21.6945 36.4551 21.4075 36.4551 21.4075L37.2135 19.2281Z" fill="#E98862"/>
<path d="M30.5847 21.8238H20.7841C20.4939 21.8238 20.2084 21.7622 19.9538 21.6448C19.6993 21.5273 19.4838 21.3576 19.3273 21.1515L13.1348 12.9947L16.0491 11.4199L21.7312 18.9042H30.5853L30.5847 21.8238Z" fill="#367CFF"/>
<path d="M17.3507 26.7994C16.6603 28.1383 3.09447 28.6944 2.91322 26.3392C2.79788 24.8403 4.36323 23.5322 4.36323 20.6111C4.36323 17.69 1.17848 13.9597 3.77334 11.7699C4.52636 11.1347 5.82642 10.7245 7.41155 10.7231C7.53019 11.503 13.1424 11.5059 13.1852 10.7412C13.3994 10.744 13.5659 10.7466 13.6697 10.751C19.1369 10.9498 16.7345 16.1996 16.6817 20.0564C16.6178 24.5694 18.0629 25.4202 17.3507 26.7994Z" fill="#367CFF"/>
<path d="M13.1858 10.7412C13.143 11.5059 12.6503 12.6305 11.1294 12.7155C9.10269 12.8281 7.53075 11.503 7.41211 10.7231H7.41705C9.41247 10.7231 12.0225 10.7259 13.1858 10.7412Z" fill="#E98862"/>
<path d="M29.1457 28.7058C34.6059 28.7058 39.0322 24.971 39.0322 20.3639C39.0322 15.7568 34.6059 12.022 29.1457 12.022C23.6856 12.022 19.2593 15.7568 19.2593 20.3639C19.2593 24.971 23.6856 28.7058 29.1457 28.7058Z" fill="#0CBC8B"/>
<g opacity="0.29">
<path opacity="0.29" d="M29.1459 25.7716C32.6855 25.7716 35.5549 23.3505 35.5549 20.3639C35.5549 17.3772 32.6855 14.9561 29.1459 14.9561C25.6062 14.9561 22.7368 17.3772 22.7368 20.3639C22.7368 23.3505 25.6062 25.7716 29.1459 25.7716Z" fill="white"/>
</g>
<path d="M27.0479 22.2958L27.6457 21.5135C28.1195 21.8193 28.5339 21.9762 28.9749 21.9762C29.5031 21.9762 29.7356 21.7912 29.7356 21.4332C29.7356 20.6239 27.2749 20.6385 27.2749 19.2191C27.2749 18.3067 28.024 17.7255 29.2052 17.7255C29.5407 17.7214 29.8732 17.779 30.1797 17.8943C30.4861 18.0095 30.7592 18.1796 30.9799 18.3929L30.2941 19.0556C29.9553 18.7957 29.6679 18.6587 29.2787 18.6587C28.8302 18.6587 28.5867 18.8116 28.5867 19.1646C28.5867 19.9154 31.0474 19.8492 31.0474 21.3527C31.0474 22.2564 30.3389 22.9099 28.9746 22.9099C28.2682 22.8963 27.5885 22.6797 27.0479 22.2958ZM28.6874 16.9546H29.5967V18.0874H28.6872L28.6874 16.9546ZM28.6874 22.437H29.5967V23.68H28.6872L28.6874 22.437Z" fill="white"/>
<path d="M39.5155 21.3294C39.4693 21.3604 39.4176 21.3852 39.3624 21.4028C39.0668 21.4543 38.3218 21.3038 38.2024 21.1295C38.0079 20.8457 38.1286 19.8205 38.3001 19.4485C38.4611 19.1009 39.2629 19.2464 39.3681 19.263C39.3714 19.264 39.3748 19.2647 39.3782 19.2652C39.5969 19.3158 39.7407 19.3948 39.7468 19.5162C39.7468 19.5162 39.8572 21.0858 39.5155 21.3294Z" fill="#E98862"/>
<path d="M17.686 22.2773C17.686 22.2773 18.083 20.4484 19.6164 20.7667C20.5838 20.9676 23.3953 20.6092 23.438 21.6573C23.475 22.5669 20.8345 22.8093 19.9612 22.7336C19.1774 22.6656 17.686 22.2773 17.686 22.2773Z" fill="#E98862"/>
<path d="M19.0547 20.7464C19.0547 20.7464 21.3357 20.4625 21.8451 20.6454C22.2963 20.8071 21.186 21.3127 21.186 21.3127L19.0547 20.7464Z" fill="#E98862"/>
<path d="M19.7845 23.2927L9.58827 23.0302C9.27003 23.022 8.96008 22.9426 8.69017 22.8001C8.42026 22.6576 8.2001 22.4571 8.05224 22.2192L3.01807 14.1199L6.19985 12.7119L10.7466 20.0271L19.8941 20.2626L19.7845 23.2927Z" fill="#367CFF"/>
<path d="M77.599 67.4956L81.0352 67.1508C80.8803 66.0534 80.7057 64.7352 80.6936 64.519C80.6936 64.5329 80.6936 64.5443 80.6936 64.5531H77.2334C77.2341 64.6407 77.2341 64.9071 77.599 67.4956Z" fill="#E98862"/>
<path d="M91.387 67.8447L94.8473 67.8352C94.8473 67.8352 94.8357 64.8203 94.8357 64.5532H91.3755C91.3755 64.8211 91.387 67.8447 91.387 67.8447Z" fill="#E98862"/>
<path d="M76.3228 66.4862C76.609 60.3676 76.6264 53.9412 76.7161 47.8064C77.9056 41.1893 78.5317 33.9319 80.0007 27.3615L80.0447 27.3724L80.1735 26.6315L92.7089 25.978L93.15 32.8879C93.7809 42.1447 95.0009 57.026 95.7389 66.4069L89.6638 66.8411C88.5788 57.6151 86.9744 42.9173 85.994 33.824C84.918 38.4574 83.7387 43.6753 82.7834 48.3637C82.5743 54.353 82.3995 60.5943 82.4184 66.5739L76.3228 66.4862Z" fill="#262626"/>
<path d="M87.1805 68.9739C87.0875 68.9735 86.9955 68.957 86.9103 68.9253C86.8252 68.8936 86.7487 68.8474 86.6857 68.7896C86.6227 68.7319 86.5744 68.6638 86.544 68.5895C86.5136 68.5153 86.5016 68.4366 86.5089 68.3584C86.5189 68.2499 86.5655 68.146 86.6431 68.0591C86.7207 67.9722 86.8262 67.9058 86.947 67.8677L90.9744 66.7295C91.0524 66.7077 91.1351 66.7004 91.2168 66.708C91.2985 66.7157 91.3772 66.7382 91.4477 66.774C92.0014 67.0981 92.6637 67.2637 93.3373 67.2467C93.8619 67.2152 94.3656 67.06 94.7908 66.7987C94.8281 66.7728 94.8734 66.7564 94.9214 66.7515C94.9694 66.7465 95.018 66.7532 95.0617 66.7707C95.1053 66.7882 95.1422 66.8158 95.168 66.8503C95.1937 66.8848 95.2073 66.9248 95.2072 66.9655V68.6277C95.2072 68.6767 95.1957 68.7252 95.1734 68.7705C95.1511 68.8158 95.1184 68.8569 95.0773 68.8915C95.0361 68.9261 94.9872 68.9535 94.9335 68.9721C94.8797 68.9907 94.8222 69.0002 94.7641 69L87.1805 68.9739Z" fill="#C1D8ED"/>
<path d="M73.3833 68.9739C73.2902 68.9735 73.1983 68.957 73.1131 68.9253C73.028 68.8936 72.9515 68.8474 72.8885 68.7896C72.8254 68.7319 72.7772 68.6638 72.7467 68.5896C72.7163 68.5154 72.7043 68.4367 72.7115 68.3584C72.7216 68.2499 72.7682 68.1461 72.8458 68.0591C72.9234 67.9722 73.0288 67.9058 73.1497 67.8677L77.1772 66.7295C77.2552 66.7077 77.3379 66.7004 77.4196 66.708C77.5013 66.7157 77.58 66.7382 77.6505 66.774C78.2042 67.0981 78.8665 67.2637 79.5401 67.2467C80.0647 67.2152 80.5683 67.06 80.9934 66.7987C81.0307 66.7728 81.0761 66.7564 81.124 66.7515C81.172 66.7465 81.2207 66.7532 81.2643 66.7707C81.308 66.7882 81.3448 66.8158 81.3706 66.8503C81.3963 66.8848 81.4099 66.9248 81.4098 66.9655V68.6277C81.4098 68.6767 81.3983 68.7252 81.376 68.7705C81.3537 68.8157 81.3211 68.8568 81.28 68.8914C81.2388 68.926 81.19 68.9534 81.1362 68.9721C81.0825 68.9907 81.0249 69.0002 80.9669 69L73.3833 68.9739Z" fill="#C1D8ED"/>
<path d="M87.8931 36.0699V45.1009C87.8931 45.4647 88.0643 45.8136 88.3692 46.0709C88.6741 46.3282 89.0876 46.4727 89.5187 46.4727H106.374C106.805 46.4727 107.219 46.3282 107.524 46.0709C107.829 45.8136 108 45.4647 108 45.1009V36.0699C108 35.7986 107.905 35.5334 107.726 35.3079C107.547 35.0823 107.293 34.9065 106.996 34.8027C106.699 34.6988 106.372 34.6717 106.057 34.7246C105.742 34.7775 105.452 34.9082 105.225 35.1C104.997 35.2918 104.843 35.5363 104.78 35.8023C104.717 36.0684 104.749 36.3442 104.872 36.5949C104.995 36.8455 105.204 37.0597 105.471 37.2105C105.738 37.3612 106.053 37.4416 106.374 37.4416L101.919 34.6982V33.7452C101.919 33.4052 101.759 33.0793 101.474 32.8389C101.189 32.5985 100.802 32.4633 100.4 32.4629H95.4933C95.0904 32.4633 94.7041 32.5985 94.4192 32.8389C94.1343 33.0793 93.974 33.4052 93.9736 33.7452V34.6982H89.5187V37.4416C89.8402 37.4416 90.1546 37.3612 90.4219 37.2105C90.6892 37.0597 90.8976 36.8455 91.0206 36.5949C91.1437 36.3442 91.1759 36.0684 91.1132 35.8023C91.0504 35.5363 90.8956 35.2918 90.6682 35.1C90.4409 34.9082 90.1512 34.7775 89.8359 34.7246C89.5205 34.6717 89.1937 34.6988 88.8966 34.8027C88.5996 34.9065 88.3457 35.0823 88.167 35.3079C87.9884 35.5334 87.8931 35.7986 87.8931 36.0699ZM100.931 34.6982H94.9622V33.7452C94.9624 33.6264 95.0184 33.5125 95.1179 33.4285C95.2175 33.3445 95.3525 33.2972 95.4933 33.2971H100.4C100.54 33.2972 100.675 33.3445 100.775 33.4285C100.874 33.5125 100.93 33.6264 100.931 33.7452V34.6982Z" fill="#0CBC8B"/>
<path d="M65.1517 23.0122C64.6739 23.1066 63.0161 23.2096 62.9971 23.5747C62.9856 23.7937 64.2442 23.8008 64.2442 23.8008" fill="#E98862"/>
<path d="M64.2172 25.6986C66.1935 25.308 67.6641 24.5178 67.5019 23.9337C67.3398 23.3496 65.6063 23.1927 63.63 23.5833C61.6538 23.9739 60.1832 24.764 60.3454 25.3482C60.5075 25.9323 62.241 26.0892 64.2172 25.6986Z" fill="#E98862"/>
<path d="M96.3897 30.7114C96.3897 31.1257 96.1304 32.5109 96.5474 32.6099C96.7974 32.6691 97.0928 31.6367 97.0928 31.6367" fill="#E98862"/>
<path d="M98.3581 30.494C98.3581 30.494 99.7685 31.7762 98.8098 33.2972C98.6768 33.5081 97.3809 33.632 97.3809 33.3735C97.3809 32.2891 97.281 31.4385 96.4346 31.6985V29.9517" fill="#E98862"/>
<path d="M73.753 19.9313L79.8888 12.1946L79.9251 12.215C80.4524 11.5364 81.3578 11.1027 82.8538 11.0488C82.9574 11.0446 83.1238 11.0419 83.3382 11.0391C83.3809 11.8037 88.9931 11.801 89.1119 11.021C90.6969 11.0224 91.9969 11.4325 92.7501 12.0679C93.1003 12.3604 93.3689 12.7151 93.5364 13.1061L93.5563 13.0986L97.5392 20.6652C97.6084 20.7967 97.6551 20.9358 97.6778 21.0783L99.2252 30.7868L95.6646 31.1908L94.152 21.6974L92.5825 18.7157C92.3309 19.4285 92.1892 20.1656 92.1607 20.909C92.1607 23.83 93.7261 25.1383 93.6107 26.6371C93.4295 28.9923 79.8636 28.4362 79.1734 27.0973C78.4614 25.7181 79.9065 24.8672 79.8422 20.3542C79.8163 19.5622 79.7419 18.7719 79.6191 17.9864L76.4105 22.0322C76.1968 22.3017 75.8864 22.5063 75.5248 22.6161L65.4807 25.6609L64.2661 22.8077L73.753 19.9313Z" fill="#367CFF"/>
<path d="M83.3389 11.0391C83.3815 11.8038 83.8744 12.9285 85.3952 13.0133C87.422 13.126 88.9937 11.801 89.1125 11.021H89.1074C87.1122 11.0207 84.5022 11.0235 83.3389 11.0391Z" fill="#E98862"/>
<path d="M87.7148 9.21663C87.7086 8.90298 87.7217 8.58927 87.7541 8.27677C87.3119 8.20725 85.5938 7.9392 85.1212 7.86523C85.2125 8.13788 85.1298 10.1996 84.6269 10.7724C84.5017 10.9779 84.3265 11.1589 84.1128 11.3035H88.2531C87.9963 10.9309 87.7327 10.2886 87.7148 9.21663Z" fill="#E98862"/>
<path opacity="0.15" d="M84.625 10.7744L86.8119 9.36267L85.0943 9.34766C85.0446 9.84376 84.8854 10.3276 84.625 10.7744Z" fill="black"/>
<path d="M89.2477 7.14181C88.9124 9.23063 86.5243 9.67762 84.3729 9.52163C81.491 9.32225 82.0611 3.7935 83.4292 2.71934C84.7974 1.64518 88.8136 2.32546 89.3014 4.12176C89.554 5.05077 89.4212 6.29636 89.2477 7.14181Z" fill="#E98862"/>
<path d="M81.4134 2.20579C81.4116 1.46892 82.5032 0.269213 85.3891 1.92912C86.9719 1.95345 87.8899 2.02449 89.0543 2.75761C91.6134 4.23205 89.3895 8.85779 87.85 9.18465C87.6925 9.26376 87.6542 9.19939 87.5995 9.0516C87.4277 8.50546 87.3047 7.94921 87.2316 7.38752C87.1375 6.80359 86.5156 6.43237 86.5908 5.73304C86.6171 5.48862 87.0836 4.59297 85.6397 4.58283C82.4879 4.76037 81.0603 4.34939 81.4134 2.20579Z" fill="#0F1011"/>
<path d="M86.3674 6.74906C86.241 7.852 88.2969 7.99437 88.3849 6.88809C88.5363 5.74942 86.3358 5.66864 86.3674 6.74906Z" fill="#E98862"/>
<path d="M86.8118 4.03955L87.5572 4.26979C87.3298 4.797 87.731 9.66841 85.631 9.73626C82.8124 10.0307 82.3067 9.31249 82.4121 7.43527C86.7295 7.84848 86.4062 7.32683 86.8118 4.03955Z" fill="#0F1011"/>
<path d="M84.8875 6.23943C84.8844 6.29172 84.9055 6.34299 84.9463 6.38238C84.9872 6.42177 85.0447 6.44618 85.1065 6.45045C85.1684 6.45471 85.2297 6.43849 85.2777 6.40523C85.3256 6.37196 85.3563 6.32426 85.3632 6.27224C85.3664 6.21995 85.3453 6.16868 85.3044 6.12929C85.2635 6.0899 85.2061 6.06548 85.1442 6.06122C85.0824 6.05695 85.021 6.07317 84.9731 6.10643C84.9252 6.1397 84.8945 6.1874 84.8875 6.23943Z" fill="#0F1011"/>
<path d="M83.0035 6.10938C82.9992 6.16219 83.0198 6.21429 83.0607 6.25442C83.1016 6.29454 83.1596 6.31946 83.2222 6.32379C83.2847 6.32812 83.3467 6.31151 83.3948 6.27755C83.443 6.2436 83.4733 6.19502 83.4793 6.14233C83.4836 6.08952 83.463 6.03742 83.4221 5.99729C83.3812 5.95717 83.3232 5.93225 83.2607 5.92792C83.1981 5.92359 83.1361 5.9402 83.088 5.97416C83.0398 6.00811 83.0095 6.05669 83.0035 6.10938Z" fill="#0F1011"/>
<path d="M82.828 5.69638C82.828 5.69638 83.461 5.68957 83.4617 5.68971C83.4907 5.68852 83.518 5.67787 83.538 5.66001C83.5579 5.64215 83.5688 5.61847 83.5684 5.59396C83.5681 5.56944 83.5564 5.546 83.536 5.52857C83.5156 5.51114 83.4879 5.50107 83.4589 5.50049L82.8265 5.50716C82.7975 5.50825 82.7701 5.51877 82.7501 5.53653C82.7301 5.55428 82.719 5.57788 82.7192 5.60238C82.7194 5.62687 82.7309 5.65034 82.7511 5.66787C82.7714 5.6854 82.7989 5.69562 82.828 5.69638Z" fill="#0F1011"/>
<path d="M85.6407 5.89107C86.0948 5.70504 85.143 5.61509 85.0432 5.57783C85.0145 5.57259 84.9846 5.57703 84.9597 5.59019C84.9349 5.60336 84.9172 5.6242 84.9103 5.64825C84.9035 5.67231 84.9081 5.69767 84.9231 5.71891C84.9381 5.74015 84.9624 5.75559 84.9908 5.76191C85.0219 5.76524 85.6084 5.89287 85.6407 5.89107Z" fill="#0F1011"/>
<g opacity="0.15">
<path opacity="0.15" d="M84.0651 7.37324C84.4039 7.2445 83.6697 7.14648 83.6037 7.11145L83.9433 6.47315C83.8807 6.03965 83.4564 7.10658 83.4161 7.1266C83.3385 7.26744 83.9913 7.3307 84.0651 7.37324Z" fill="black"/>
</g>
<path d="M85.0149 7.84249C85.0149 7.84249 84.1335 7.9209 83.5155 7.73877C83.4899 8.37804 84.9189 8.47453 85.0149 7.84249Z" fill="#F8FCFF"/>
<path d="M70.4793 12.0254C73.4003 12.0254 75.7683 10.0274 75.7683 7.56275C75.7683 5.0981 73.4003 3.1001 70.4793 3.1001C67.5584 3.1001 65.1904 5.0981 65.1904 7.56275C65.1904 10.0274 67.5584 12.0254 70.4793 12.0254Z" fill="#8DDBE0"/>
<path d="M69.6997 9.39235C69.6088 9.39234 69.5213 9.36305 69.4551 9.31046L67.7265 7.93404C67.6925 7.90695 67.6651 7.87447 67.646 7.83845C67.6268 7.80243 67.6162 7.76358 67.6149 7.72412C67.6135 7.68466 67.6214 7.64536 67.6381 7.60846C67.6547 7.57157 67.6798 7.5378 67.7119 7.50909C67.744 7.48038 67.7825 7.45729 67.8252 7.44113C67.8679 7.42498 67.9139 7.41607 67.9607 7.41493C68.0075 7.41379 68.054 7.42043 68.0978 7.43447C68.1415 7.44852 68.1815 7.46969 68.2155 7.49679L69.6801 8.66285L72.7254 5.83119C72.7896 5.77451 72.8775 5.74124 72.9704 5.73847C73.0632 5.7357 73.1537 5.76364 73.2224 5.81635C73.2912 5.86905 73.3329 5.94234 73.3385 6.02059C73.3442 6.09884 73.3134 6.17585 73.2527 6.23521L69.9631 9.29392C69.9313 9.3235 69.8927 9.34744 69.8498 9.36434C69.8069 9.38124 69.7604 9.39076 69.713 9.39235H69.6997Z" fill="white"/>
</g>
<defs>
<clipPath id="clip0_8_17548">
<rect width="108" height="69" fill="white"/>
</clipPath>
</defs>
</svg>
