<svg width="205" height="142" viewBox="0 0 205 142" fill="none" xmlns="http://www.w3.org/2000/svg">
<g clip-path="url(#clip0_9_24568)">
<path d="M205.001 141.97H0C2.24618 136.205 6.3945 131.315 12.2422 129.864C20.7965 127.745 29.8492 133.573 38.3844 131.381C43.2336 130.137 47.0512 126.513 51.0626 123.503C66.1973 112.148 86.9355 108.791 104.844 114.802C114.205 117.942 122.734 123.434 132.323 125.767C144.723 128.787 157.69 126.283 170.442 125.87C182.861 125.47 200.654 130.562 205.001 141.97Z" fill="#F3F5FD"/>
<path d="M171.657 98.9638C170.193 103.431 165.136 107.4 166.647 110.685C167.221 111.933 167.798 113.239 168.064 114.573C168.236 115.369 168.265 116.189 168.148 116.994C167.604 120.473 164.369 122.783 161.362 124.582C161.176 124.693 160.989 124.806 160.801 124.919C157.951 126.637 154.966 128.616 154.051 131.788C153.543 133.551 153.767 135.435 153.556 137.257C153.357 138.932 152.792 140.541 151.901 141.97H132.694C130.989 140.079 131.131 136.9 132.429 134.67C133.818 132.284 136.165 130.662 138.282 128.897C140.111 127.372 141.894 125.536 142.592 123.297C142.703 122.943 142.785 122.58 142.837 122.212C143.006 121 142.915 114.811 145.002 111C148.23 105.117 153.465 106.566 155.065 103.246C155.678 101.975 156.207 86.3492 166.404 89.2356C167.399 89.5033 168.328 89.9719 169.137 90.6129C169.946 91.2539 170.616 92.0538 171.107 92.964C171.599 93.8741 171.901 94.8755 171.996 95.907C172.09 96.9385 171.975 97.9786 171.657 98.9638Z" fill="#C1D8ED"/>
<path d="M190.31 123.396C190.018 123.599 189.703 123.767 189.372 123.898C186.62 124.937 178.968 124.822 177.849 127.556C177.323 128.842 177.197 130.261 176.746 131.576C175.723 134.559 173.022 136.796 170 137.637C168.913 137.939 167.787 138.079 166.711 138.415C164.633 139.067 162.911 140.378 161.398 141.97H136.593C136.582 140.314 136.986 138.683 137.769 137.227C138.552 135.771 139.687 134.537 141.07 133.64C143.828 131.889 147.312 131.562 150.02 129.733C151.805 128.526 153.089 126.782 154.108 124.854C154.756 123.593 155.328 122.293 155.822 120.963C156.58 118.984 157.372 116.86 159.093 115.635C159.937 115.083 160.873 114.688 161.856 114.469C164.342 113.815 166.253 114.2 168.064 114.573C170.261 115.024 172.312 115.455 175.066 113.983C179.95 111.371 187.092 98.3439 194.229 110.721C197.09 115.686 193.142 121.488 190.31 123.396Z" fill="#8DDBE0"/>
<path d="M34.7453 98.9638C36.2103 103.431 41.2666 107.4 39.7559 110.685C39.1814 111.933 38.6045 113.239 38.339 114.573C38.1667 115.369 38.1381 116.189 38.2543 116.994C38.7991 120.473 42.0334 122.783 45.0412 124.582C45.2266 124.693 45.4143 124.806 45.602 124.919C48.4517 126.637 51.4366 128.616 52.3522 131.788C52.8603 133.551 52.636 135.435 52.8466 137.257C53.0461 138.932 53.6112 140.541 54.5015 141.97H73.7084C75.4136 140.079 75.2717 136.9 73.9739 134.67C72.5845 132.284 70.2383 130.662 68.121 128.897C66.2921 127.372 64.5089 125.536 63.8108 123.297C63.6999 122.943 63.618 122.58 63.5659 122.212C63.3965 121 63.4881 114.811 61.4005 111C58.173 105.117 52.9381 106.566 51.3381 103.246C50.7247 101.975 50.1959 86.3492 39.9985 89.2356C39.0042 89.5033 38.0744 89.9719 37.2658 90.6129C36.4573 91.2539 35.7868 92.0538 35.2953 92.964C34.8039 93.8741 34.5016 94.8755 34.4071 95.907C34.3125 96.9385 34.4276 97.9786 34.7453 98.9638Z" fill="#C1D8ED"/>
<path d="M16.0917 123.396C16.3845 123.599 16.6994 123.767 17.0302 123.898C19.7816 124.937 27.4336 124.822 28.5529 127.556C29.0794 128.842 29.2053 130.261 29.6562 131.576C30.6794 134.559 33.3804 136.796 36.4018 137.637C37.4891 137.939 38.6153 138.079 39.6911 138.415C41.7695 139.067 43.4908 140.378 45.0038 141.97H69.8095C69.8205 140.314 69.4159 138.683 68.6332 137.227C67.8505 135.771 66.7151 134.537 65.3323 133.64C62.5741 131.889 59.0902 131.562 56.3824 129.733C54.597 128.526 53.3128 126.782 52.2942 124.854C51.6462 123.593 51.0737 122.293 50.5798 120.963C49.8221 118.984 49.0301 116.86 47.3088 115.635C46.4648 115.083 45.5289 114.688 44.546 114.469C42.0602 113.815 40.1489 114.2 38.3383 114.573C36.1409 115.024 34.09 115.455 31.3363 113.983C26.4516 111.371 19.31 98.3439 12.173 110.721C9.31267 115.686 13.2612 121.488 16.0917 123.396Z" fill="#8DDBE0"/>
<path d="M131.984 2.03247H75.8124C71.5109 2.03247 68.0239 5.54181 68.0239 9.87079V132.129C68.0239 136.458 71.5109 139.967 75.8124 139.967H131.984C136.285 139.967 139.772 136.458 139.772 132.129V9.87079C139.772 5.54181 136.285 2.03247 131.984 2.03247Z" fill="white"/>
<path d="M131.984 142H75.8122C73.2119 141.997 70.719 140.956 68.8804 139.105C67.0417 137.255 66.0074 134.746 66.0044 132.129V9.87105C66.0074 7.2541 67.0417 4.7452 68.8804 2.89469C70.719 1.04419 73.2119 0.00317029 75.8122 0L131.984 0C134.584 0.00317029 137.077 1.04419 138.916 2.89469C140.754 4.7452 141.789 7.2541 141.792 9.87105V132.129C141.789 134.746 140.754 137.255 138.916 139.105C137.077 140.956 134.584 141.997 131.984 142ZM75.8122 4.06521C74.2826 4.0668 72.8162 4.67898 71.7346 5.76742C70.6529 6.85587 70.0445 8.33169 70.0428 9.87105V132.129C70.0447 133.668 70.6531 135.143 71.7344 136.232C72.8157 137.32 74.2818 137.932 75.8111 137.934H131.983C133.512 137.932 134.978 137.32 136.059 136.232C137.141 135.143 137.749 133.668 137.751 132.129V9.87105C137.749 8.33201 137.141 6.85654 136.059 5.76828C134.978 4.68001 133.512 4.06779 131.983 4.0659L75.8122 4.06521Z" fill="#DEE8F5"/>
<path d="M91.5989 2.03247H116.197V6.83576C116.197 7.30789 116.105 7.77539 115.925 8.21158C115.745 8.64777 115.482 9.04409 115.151 9.37792C114.819 9.71176 114.425 9.97656 113.992 10.1572C113.558 10.3379 113.094 10.4308 112.625 10.4308H95.171C94.2236 10.4308 93.3149 10.052 92.645 9.37778C91.975 8.70353 91.5986 7.78906 91.5986 6.83553V2.03247H91.5989Z" fill="#DEE8F5"/>
<path d="M115.678 31.7253C115.678 34.0701 114.987 36.3622 113.692 38.3117C112.398 40.2612 110.558 41.7806 108.405 42.6777C106.252 43.5748 103.884 43.8094 101.599 43.3517C99.3135 42.894 97.2146 41.7647 95.5672 40.1065C93.9199 38.4483 92.7981 36.3357 92.3438 34.0359C91.8895 31.7361 92.123 29.3523 93.0148 27.1861C93.9067 25.0199 95.4167 23.1684 97.3541 21.8659C99.2915 20.5634 101.569 19.8683 103.899 19.8685C105.448 19.8626 106.982 20.1652 108.414 20.759C109.846 21.3528 111.147 22.226 112.242 23.3282C113.337 24.4304 114.204 25.7399 114.794 27.1811C115.384 28.6222 115.684 30.1667 115.678 31.7253Z" fill="#C1D8ED"/>
<path d="M103.898 32.9468C106.474 32.9468 108.562 30.8452 108.562 28.2527C108.562 25.6602 106.474 23.5586 103.898 23.5586C101.322 23.5586 99.2339 25.6602 99.2339 28.2527C99.2339 30.8452 101.322 32.9468 103.898 32.9468Z" fill="white"/>
<path d="M112.387 39.9448C111.288 41.0948 109.97 42.0097 108.511 42.6347C107.053 43.2598 105.484 43.582 103.898 43.5823C102.313 43.5825 100.744 43.2606 99.2854 42.636C97.8267 42.0114 96.5083 41.0968 95.4092 39.9471C96.9977 36.3742 100.205 33.9324 103.899 33.9324C107.593 33.9324 110.798 36.3717 112.387 39.9448Z" fill="white"/>
<path d="M128.717 52.1289H79.0786V63.0269H128.717V52.1289Z" fill="#0CBC8B"/>
<path d="M128.717 70.9641H79.0786V81.8621H128.717V70.9641Z" fill="#C1D8ED"/>
<path d="M163.767 46.4072C163.767 46.4072 161.926 45.6115 161.926 40.7446L158.226 40.3652C158.226 40.3652 158.988 44.6659 157.257 46.1934L163.767 46.4072Z" fill="#E98862"/>
<path d="M163.842 38.6992C163.709 40.1868 163.027 41.6413 161.78 42.2212C160.424 42.8966 158.925 43.2279 157.413 43.1862C153.396 43.1862 153.441 33.9905 155.191 32.0596C156.941 30.1287 162.592 30.7943 163.51 33.7047C163.984 35.2112 163.968 37.2833 163.842 38.6992Z" fill="#E98862"/>
<path d="M158.015 38.0414C158.198 38.0414 158.346 37.8919 158.346 37.7076C158.346 37.5232 158.198 37.3738 158.015 37.3738C157.832 37.3738 157.683 37.5232 157.683 37.7076C157.683 37.8919 157.832 38.0414 158.015 38.0414Z" fill="#367CFF"/>
<path d="M158.667 37.0465C158.658 37.0464 158.65 37.0458 158.642 37.0446L157.762 36.9064C157.741 36.9039 157.721 36.8972 157.703 36.8868C157.685 36.8763 157.669 36.8622 157.656 36.8454C157.644 36.8287 157.634 36.8095 157.629 36.789C157.624 36.7686 157.623 36.7474 157.626 36.7265C157.63 36.7057 157.637 36.6858 157.648 36.6679C157.659 36.65 157.674 36.6345 157.691 36.6224C157.708 36.6102 157.727 36.6017 157.748 36.5973C157.768 36.5928 157.789 36.5926 157.81 36.5966L158.69 36.7348C158.729 36.7408 158.764 36.7613 158.788 36.7922C158.813 36.823 158.825 36.862 158.822 36.9014C158.819 36.9407 158.801 36.9775 158.773 37.0044C158.744 37.0314 158.706 37.0465 158.667 37.0467L158.667 37.0465Z" fill="#367CFF"/>
<path d="M155.414 39.1243C155.414 39.4997 155.562 39.8596 155.826 40.125C156.09 40.3904 156.447 40.5395 156.82 40.5395C157.193 40.5395 157.551 40.3904 157.814 40.125C158.078 39.8596 158.226 39.4997 158.226 39.1243C158.233 38.7553 158.093 38.3989 157.838 38.1335C157.583 37.8682 157.234 37.7155 156.867 37.7092C156.852 37.7092 156.836 37.7092 156.82 37.7092C155.819 37.7588 155.414 38.3427 155.414 39.1243Z" fill="#E98862"/>
<path d="M155.402 35.7958C154.623 35.7896 153.845 35.7236 153.075 35.5984C153.075 35.5984 153.311 29.6267 159.612 29.9671C160.431 29.9295 161.25 29.9783 162.059 30.1125C163.953 30.4046 166.638 32.3535 167.071 37.2307C167.27 39.4682 168.036 41.5774 168.621 42.9128C168.69 43.0696 168.719 43.2413 168.706 43.4122C168.692 43.5832 168.637 43.7481 168.544 43.8919C168.451 44.0357 168.324 44.1539 168.174 44.2358C168.025 44.3177 167.857 44.3607 167.686 44.3609L154.186 44.2526C154.026 44.2527 153.869 44.2152 153.726 44.1431C153.584 44.071 153.46 43.9663 153.364 43.8374C153.269 43.7085 153.205 43.559 153.178 43.4007C153.15 43.2425 153.16 43.08 153.206 42.9262C153.94 40.4786 155.285 38.9785 155.402 35.7958Z" fill="#0F1011"/>
<path d="M131.692 61C131.692 61 128.442 60.0931 127.975 59.4679C127.508 58.8427 128.643 56.7383 128.643 56.7383C128.643 56.7383 125.393 55.3992 125.705 54.8705C126.075 54.2465 130.134 56.4801 130.134 56.4801C130.134 56.4801 129.251 55.4299 129.683 55.1523C129.86 55.0371 130.091 55.1626 130.751 55.8906C131.503 56.7199 132.802 57.8968 132.802 57.8968L131.692 61Z" fill="#E98862"/>
<path d="M147.864 139.479C147.357 135.19 147.357 134.749 147.357 134.604H152.164C152.164 134.589 152.164 134.57 152.164 134.547C152.181 134.905 152.424 137.089 152.639 138.908L147.864 139.479Z" fill="#E98862"/>
<path d="M167.017 140.057C167.017 140.057 167.001 135.047 167.001 134.604H171.808C171.808 135.046 171.824 140.04 171.824 140.04L167.017 140.057Z" fill="#E98862"/>
<path d="M173.979 78.9897C173.979 79.6762 173.619 81.9711 174.199 82.1351C174.546 82.2335 174.956 80.5226 174.956 80.5226" fill="#E98862"/>
<path d="M176.714 78.6294C176.714 78.6294 178.606 83.2629 176.448 85.9247C176.393 85.9926 176.319 86.0421 176.236 86.0669C176.152 86.0917 176.063 86.0905 175.981 86.0636C175.898 86.0367 175.825 85.9853 175.772 85.9161C175.719 85.8469 175.687 85.7631 175.682 85.6757C175.577 83.881 175.218 80.1945 174.042 80.625V77.731" fill="#E98862"/>
<path d="M171.127 108.609C170.662 101.38 169.86 89.2537 169.467 82.1387H169.532L168.854 70.6897L151.44 71.7713L151.261 72.9991L151.2 72.9809C149.159 83.8685 148.289 95.9091 146.634 106.875C146.518 117.036 146.486 127.67 146.091 137.806L154.56 137.951C154.534 128.05 154.777 117.698 155.067 107.779C156.395 100.005 158.259 91.3774 159.756 83.6879C161.11 98.6686 163.128 123.211 164.625 138.394L173.064 137.677L171.127 108.609Z" fill="#262626"/>
<path d="M161.174 141.928C161.051 141.927 160.928 141.902 160.815 141.854C160.701 141.806 160.597 141.736 160.51 141.647C160.424 141.559 160.355 141.454 160.308 141.339C160.261 141.224 160.238 141.101 160.238 140.977C160.238 140.954 160.239 140.931 160.241 140.908C160.255 140.728 160.32 140.556 160.427 140.412C160.535 140.268 160.682 140.158 160.849 140.095L166.444 138.209C166.553 138.173 166.668 138.161 166.781 138.173C166.895 138.186 167.004 138.223 167.102 138.282C167.871 138.819 168.791 139.094 169.727 139.066C170.456 139.014 171.155 138.756 171.746 138.323C171.798 138.28 171.861 138.253 171.927 138.245C171.994 138.237 172.061 138.248 172.122 138.277C172.183 138.306 172.234 138.352 172.27 138.409C172.306 138.466 172.325 138.532 172.324 138.6V141.353C172.324 141.517 172.26 141.674 172.145 141.789C172.03 141.905 171.874 141.97 171.711 141.97H171.709L161.174 141.928Z" fill="#C1D8ED"/>
<path d="M142.009 141.928C141.885 141.927 141.763 141.902 141.649 141.854C141.535 141.806 141.432 141.736 141.345 141.647C141.258 141.559 141.189 141.454 141.143 141.339C141.096 141.224 141.072 141.101 141.073 140.977C141.073 140.954 141.074 140.931 141.076 140.908C141.089 140.728 141.154 140.556 141.262 140.412C141.37 140.268 141.516 140.158 141.684 140.095L147.279 138.209C147.387 138.173 147.502 138.161 147.616 138.173C147.729 138.186 147.839 138.223 147.936 138.282C148.706 138.819 149.626 139.094 150.561 139.066C151.29 139.014 151.99 138.756 152.58 138.323C152.632 138.28 152.695 138.253 152.762 138.245C152.828 138.237 152.896 138.248 152.957 138.277C153.017 138.306 153.069 138.352 153.104 138.409C153.14 138.466 153.159 138.532 153.159 138.6V141.353C153.159 141.517 153.094 141.674 152.979 141.789C152.864 141.905 152.708 141.97 152.546 141.97H152.543L142.009 141.928Z" fill="#C1D8ED"/>
<path d="M175.661 64.3758C175.636 64.2059 175.594 64.039 175.535 63.8777L170.281 49.4999L170.249 49.5116C170.021 48.8036 169.627 48.1613 169.1 47.6388C168.054 46.5865 166.243 45.9053 164.038 45.9053C160.754 45.9053 156.27 45.9124 155.351 45.9513C152.543 46.0725 151.231 47.339 150.694 49.2096L144.129 61.0717L132.743 56.8086L131.067 61.3426L144.386 66.3304C144.924 66.5323 145.516 66.5334 146.055 66.3335C146.594 66.1335 147.044 65.7457 147.323 65.2405L150.987 58.6206C151.084 59.5616 151.157 60.4865 151.167 61.3681C151.255 68.8473 149.249 70.2562 150.237 72.5428C151.197 74.76 170.042 75.6824 170.294 71.7789C170.454 69.2961 168.28 67.1277 168.28 62.288C168.298 61.3683 168.419 60.4535 168.64 59.5609L170.762 65.3677L172.845 79.4903L177.782 78.7531L175.661 64.3758Z" fill="#367CFF"/>
<path d="M103.898 126.683C112.601 126.683 119.657 119.583 119.657 110.823C119.657 102.064 112.601 94.9634 103.898 94.9634C95.1943 94.9634 88.1387 102.064 88.1387 110.823C88.1387 119.583 95.1943 126.683 103.898 126.683Z" fill="#C1D8ED"/>
<path d="M94.0971 103.758C92.2897 118.141 104.148 122.061 104.148 122.061C104.148 122.061 115.036 117.892 113.785 103.794C113.785 103.794 107.431 105.14 104.148 100.319C104.148 100.32 101.735 104.993 94.0971 103.758Z" fill="white"/>
<path d="M107.242 109.416H106.765V108.346C106.759 107.585 106.454 106.857 105.917 106.322C105.38 105.786 104.654 105.486 103.898 105.486C103.142 105.486 102.417 105.786 101.88 106.322C101.343 106.857 101.038 107.585 101.031 108.346V109.416H100.555V111.068C100.717 111.068 100.876 111.02 101.011 110.929C101.146 110.838 101.251 110.709 101.313 110.558C101.375 110.407 101.391 110.241 101.36 110.081C101.328 109.921 101.25 109.774 101.135 109.658C101.02 109.543 100.874 109.464 100.715 109.432C100.556 109.4 100.391 109.417 100.241 109.479C100.091 109.542 99.9628 109.648 99.8727 109.783C99.7825 109.919 99.7344 110.079 99.7344 110.242V115.626C99.7344 115.845 99.8208 116.055 99.9747 116.21C100.129 116.365 100.337 116.452 100.555 116.452H107.242C107.46 116.452 107.668 116.365 107.822 116.21C107.976 116.055 108.063 115.845 108.063 115.626V110.242C108.063 110.134 108.041 110.026 108 109.926C107.959 109.826 107.898 109.735 107.822 109.658C107.746 109.581 107.655 109.52 107.556 109.479C107.456 109.438 107.349 109.416 107.242 109.416ZM101.963 108.346C101.968 107.833 102.175 107.343 102.537 106.982C102.899 106.621 103.389 106.419 103.898 106.419C104.408 106.419 104.897 106.621 105.259 106.982C105.621 107.343 105.828 107.833 105.833 108.346V109.416H101.963V108.346Z" fill="#0CBC8B"/>
<path d="M83.9887 59.3354C84.9532 59.3354 85.7352 58.5485 85.7352 57.5777C85.7352 56.607 84.9532 55.8201 83.9887 55.8201C83.0241 55.8201 82.2422 56.607 82.2422 57.5777C82.2422 58.5485 83.0241 59.3354 83.9887 59.3354Z" fill="white"/>
<path d="M89.2323 59.3354C90.1969 59.3354 90.9788 58.5485 90.9788 57.5777C90.9788 56.607 90.1969 55.8201 89.2323 55.8201C88.2678 55.8201 87.4858 56.607 87.4858 57.5777C87.4858 58.5485 88.2678 59.3354 89.2323 59.3354Z" fill="white"/>
<path d="M94.476 59.3354C95.4405 59.3354 96.2225 58.5485 96.2225 57.5777C96.2225 56.607 95.4405 55.8201 94.476 55.8201C93.5114 55.8201 92.7295 56.607 92.7295 57.5777C92.7295 58.5485 93.5114 59.3354 94.476 59.3354Z" fill="white"/>
<path d="M99.7201 59.3354C100.685 59.3354 101.467 58.5485 101.467 57.5777C101.467 56.607 100.685 55.8201 99.7201 55.8201C98.7556 55.8201 97.9736 56.607 97.9736 57.5777C97.9736 58.5485 98.7556 59.3354 99.7201 59.3354Z" fill="white"/>
<path d="M104.964 59.3354C105.928 59.3354 106.71 58.5485 106.71 57.5777C106.71 56.607 105.928 55.8201 104.964 55.8201C103.999 55.8201 103.217 56.607 103.217 57.5777C103.217 58.5485 103.999 59.3354 104.964 59.3354Z" fill="white"/>
<path d="M110.207 59.3354C111.172 59.3354 111.954 58.5485 111.954 57.5777C111.954 56.607 111.172 55.8201 110.207 55.8201C109.243 55.8201 108.461 56.607 108.461 57.5777C108.461 58.5485 109.243 59.3354 110.207 59.3354Z" fill="white"/>
<path d="M115.264 59.3354C116.229 59.3354 117.011 58.5485 117.011 57.5777C117.011 56.607 116.229 55.8201 115.264 55.8201C114.3 55.8201 113.518 56.607 113.518 57.5777C113.518 58.5485 114.3 59.3354 115.264 59.3354Z" fill="white"/>
<path d="M83.9887 78.1709C84.9532 78.1709 85.7352 77.3839 85.7352 76.4132C85.7352 75.4425 84.9532 74.6555 83.9887 74.6555C83.0241 74.6555 82.2422 75.4425 82.2422 76.4132C82.2422 77.3839 83.0241 78.1709 83.9887 78.1709Z" fill="white"/>
<path d="M89.2323 78.1709C90.1969 78.1709 90.9788 77.3839 90.9788 76.4132C90.9788 75.4425 90.1969 74.6555 89.2323 74.6555C88.2678 74.6555 87.4858 75.4425 87.4858 76.4132C87.4858 77.3839 88.2678 78.1709 89.2323 78.1709Z" fill="white"/>
<path d="M94.476 78.1709C95.4405 78.1709 96.2225 77.3839 96.2225 76.4132C96.2225 75.4425 95.4405 74.6555 94.476 74.6555C93.5114 74.6555 92.7295 75.4425 92.7295 76.4132C92.7295 77.3839 93.5114 78.1709 94.476 78.1709Z" fill="white"/>
<path d="M99.7201 78.1709C100.685 78.1709 101.467 77.3839 101.467 76.4132C101.467 75.4425 100.685 74.6555 99.7201 74.6555C98.7556 74.6555 97.9736 75.4425 97.9736 76.4132C97.9736 77.3839 98.7556 78.1709 99.7201 78.1709Z" fill="white"/>
<path d="M104.964 78.1709C105.928 78.1709 106.71 77.3839 106.71 76.4132C106.71 75.4425 105.928 74.6555 104.964 74.6555C103.999 74.6555 103.217 75.4425 103.217 76.4132C103.217 77.3839 103.999 78.1709 104.964 78.1709Z" fill="white"/>
<path d="M110.207 78.1709C111.172 78.1709 111.954 77.3839 111.954 76.4132C111.954 75.4425 111.172 74.6555 110.207 74.6555C109.243 74.6555 108.461 75.4425 108.461 76.4132C108.461 77.3839 109.243 78.1709 110.207 78.1709Z" fill="white"/>
</g>
<defs>
<clipPath id="clip0_9_24568">
<rect width="205" height="142" fill="white"/>
</clipPath>
</defs>
</svg>
