<svg width="89" height="71" viewBox="0 0 89 71" fill="none" xmlns="http://www.w3.org/2000/svg">
<g clip-path="url(#clip0_33_52940)">
<path d="M25.3736 29.0166L62.0209 29.0166C62.9208 29.0166 63.6504 28.3147 63.6504 27.4488V1.63249C63.6504 0.766596 62.9208 0.0646515 62.0209 0.0646515L25.3736 0.0646515C24.4737 0.0646515 23.7442 0.766596 23.7442 1.63249V27.4488C23.7442 28.3147 24.4737 29.0166 25.3736 29.0166Z" fill="white"/>
<path d="M62.0211 29.0812H25.3739C24.9241 29.0807 24.4928 28.9086 24.1747 28.6025C23.8567 28.2965 23.6777 27.8815 23.6772 27.4487V1.63246C23.6777 1.19965 23.8567 0.784708 24.1747 0.478665C24.4928 0.172622 24.9241 0.000477475 25.3739 0L62.0211 0C62.4709 0.000477436 62.9022 0.172619 63.2203 0.47866C63.5384 0.784701 63.7173 1.19965 63.7178 1.63246V27.4487C63.7173 27.8816 63.5384 28.2965 63.2203 28.6025C62.9022 28.9086 62.4709 29.0807 62.0211 29.0812ZM25.3739 0.129254C24.9597 0.129711 24.5626 0.288231 24.2697 0.570038C23.9768 0.851846 23.8121 1.23393 23.8116 1.63246V27.4487C23.8121 27.8473 23.9768 28.2294 24.2697 28.5112C24.5626 28.793 24.9597 28.9515 25.3739 28.952H62.0211C62.4353 28.9515 62.8324 28.793 63.1253 28.5112C63.4182 28.2294 63.583 27.8473 63.5835 27.4487V1.63246C63.583 1.23392 63.4182 0.851839 63.1253 0.570034C62.8324 0.288228 62.4353 0.129711 62.0211 0.129254H25.3739Z" fill="#292A2E"/>
<path d="M28.4933 2.4966L25.8741 2.73558C25.6036 2.76026 25.4051 2.99128 25.4307 3.25157L25.6791 5.7717C25.7048 6.03199 25.9449 6.22299 26.2154 6.19831L28.8346 5.95933C29.1051 5.93465 29.3036 5.70363 29.278 5.44334L29.0296 2.92321C29.004 2.66292 28.7639 2.47192 28.4933 2.4966Z" fill="#292A2E"/>
<path d="M35.9522 7.96354L33.3364 7.69273C33.0662 7.66476 32.8236 7.85283 32.7945 8.11278L32.5131 10.6297C32.484 10.8897 32.6795 11.1231 32.9497 11.151L35.5655 11.4218C35.8357 11.4498 36.0783 11.2617 36.1074 11.0018L36.3888 8.48487C36.4179 8.22492 36.2224 7.9915 35.9522 7.96354Z" fill="white"/>
<path d="M35.619 11.5033C35.5982 11.5033 35.5774 11.5022 35.5567 11.5001L32.9408 11.2292C32.7897 11.2134 32.6512 11.1406 32.5558 11.0266C32.4604 10.9127 32.4158 10.767 32.4319 10.6215L32.7134 8.10471C32.7215 8.03265 32.7442 7.96281 32.7803 7.8992C32.8164 7.83558 32.8652 7.77943 32.9238 7.73396C32.9825 7.68848 33.0499 7.65457 33.1221 7.63415C33.1944 7.61374 33.2702 7.60723 33.3451 7.61499L35.9609 7.88581C36.1121 7.90151 36.2507 7.97435 36.3461 8.08832C36.4416 8.20229 36.486 8.34805 36.4698 8.49357L36.1883 11.0103C36.1732 11.1455 36.1068 11.2706 36.0017 11.3616C35.8967 11.4526 35.7604 11.503 35.6191 11.5033H35.619ZM35.574 11.3441C35.6823 11.3553 35.7907 11.3247 35.8755 11.2589C35.9603 11.1932 36.0145 11.0978 36.0261 10.9936L36.3077 8.47679C36.3193 8.37262 36.2875 8.26827 36.2191 8.18669C36.1508 8.10511 36.0516 8.05296 35.9434 8.04173L33.3275 7.77099C33.2739 7.76544 33.2197 7.7701 33.1679 7.78471C33.1162 7.79932 33.068 7.8236 33.026 7.85615C32.984 7.88869 32.9491 7.92888 32.9232 7.97441C32.8974 8.01994 32.8811 8.06992 32.8754 8.1215L32.5939 10.6383C32.5824 10.7424 32.6143 10.8467 32.6826 10.9283C32.7509 11.0098 32.8501 11.062 32.9583 11.0733L35.574 11.3441Z" fill="#292A2E"/>
<path d="M47.5594 11.9543C47.546 11.9543 47.5329 11.9511 47.5211 11.9451C47.5092 11.939 47.4992 11.9303 47.4917 11.9196C45.8319 9.54424 43.314 9.11177 41.4935 9.16667C40.2624 9.21177 39.0469 9.44763 37.8939 9.86518C37.8739 9.87295 37.8516 9.87283 37.8318 9.86485C37.812 9.85686 37.7962 9.84167 37.788 9.82257C37.7797 9.80347 37.7797 9.782 37.7878 9.76285C37.7959 9.7437 37.8116 9.72842 37.8313 9.72032C39.0027 9.29586 40.2376 9.05597 41.4883 9.00989C43.3493 8.95358 45.9255 9.39718 47.627 11.832C47.6352 11.8438 47.64 11.8575 47.6408 11.8717C47.6415 11.8859 47.6383 11.9 47.6313 11.9126C47.6244 11.9252 47.614 11.9357 47.6014 11.943C47.5887 11.9503 47.5742 11.9542 47.5594 11.9542V11.9543Z" fill="#292A2E"/>
<path d="M47.5898 11.9864C47.5823 11.9864 47.5748 11.9854 47.5675 11.9834L45.8973 11.5295C45.8765 11.5239 45.8588 11.5105 45.8483 11.4924C45.8377 11.4742 45.8351 11.4528 45.841 11.4327C45.8468 11.4127 45.8607 11.3958 45.8796 11.3856C45.8984 11.3754 45.9207 11.3729 45.9415 11.3785L47.5334 11.811L47.9829 10.2794C47.9892 10.2598 48.0032 10.2434 48.0219 10.2336C48.0406 10.2239 48.0625 10.2215 48.083 10.2271C48.1035 10.2327 48.1209 10.2457 48.1315 10.2635C48.1421 10.2812 48.1451 10.3022 48.1398 10.3221L47.6681 11.9291C47.6633 11.9456 47.6531 11.9601 47.6389 11.9704C47.6248 11.9807 47.6075 11.9863 47.5898 11.9864Z" fill="#292A2E"/>
<path d="M50.2092 12.69L47.5899 12.9289C47.3194 12.9536 47.1209 13.1846 47.1465 13.4449L47.3949 15.9651C47.4206 16.2254 47.6607 16.4163 47.9312 16.3917L50.5504 16.1527C50.8209 16.128 51.0195 15.897 50.9938 15.6367L50.7454 13.1166C50.7198 12.8563 50.4797 12.6653 50.2092 12.69Z" fill="#367CFF"/>
<path d="M58.7694 4.94232L56.1438 4.77989C55.8727 4.76311 55.6387 4.96103 55.6213 5.22195L55.4524 7.74817C55.435 8.00909 55.6407 8.2342 55.9119 8.25098L58.5374 8.41341C58.8086 8.43019 59.0426 8.23227 59.06 7.97136L59.2288 5.44513C59.2463 5.18422 59.0406 4.9591 58.7694 4.94232Z" fill="#292A2E"/>
<path d="M60.253 13.1862L57.6372 12.9154C57.367 12.8874 57.1244 13.0755 57.0953 13.3354L56.8139 15.8524C56.7848 16.1123 56.9803 16.3457 57.2504 16.3737L59.8663 16.6445C60.1365 16.6725 60.3791 16.4844 60.4081 16.2244L60.6896 13.7075C60.7187 13.4476 60.5232 13.2142 60.253 13.1862Z" fill="#0CBC8B"/>
<path d="M45.8937 21.3853L43.2745 21.6243C43.004 21.6489 42.8055 21.88 42.8311 22.1402L43.0795 24.6604C43.1051 24.9207 43.3452 25.1117 43.6158 25.087L46.235 24.848C46.5055 24.8233 46.704 24.5923 46.6784 24.332L46.43 21.8119C46.4044 21.5516 46.1643 21.3606 45.8937 21.3853Z" fill="white"/>
<path d="M43.569 25.1675C43.4264 25.1673 43.289 25.116 43.1835 25.0236C43.0781 24.9312 43.0121 24.8044 42.9984 24.6678L42.7501 22.1476C42.7359 22.0019 42.7824 21.8568 42.8793 21.7441C42.9762 21.6313 43.1156 21.5601 43.2669 21.5461L45.886 21.3072C45.961 21.3003 46.0367 21.3077 46.1087 21.329C46.1807 21.3503 46.2476 21.3851 46.3057 21.4312C46.3637 21.4774 46.4117 21.5341 46.447 21.5982C46.4823 21.6622 46.5041 21.7323 46.5112 21.8045L46.7595 24.3246C46.7737 24.4702 46.7273 24.6154 46.6304 24.7281C46.5335 24.8409 46.3941 24.9121 46.2427 24.926L43.6237 25.165C43.6052 25.1667 43.587 25.1675 43.569 25.1675ZM45.9411 21.4615C45.9281 21.4615 45.9149 21.4621 45.9018 21.4633L43.2823 21.7021C43.1739 21.712 43.0741 21.763 43.0047 21.8437C42.9353 21.9244 42.902 22.0283 42.9122 22.1326L43.1606 24.6527C43.1711 24.7569 43.2241 24.8529 43.3079 24.9196C43.3918 24.9863 43.4997 25.0183 43.6081 25.0086L46.2272 24.7697C46.3356 24.7596 46.4354 24.7087 46.5048 24.628C46.5741 24.5472 46.6074 24.4433 46.5972 24.3391L46.3489 21.819C46.3392 21.7212 46.292 21.6305 46.2166 21.5643C46.1412 21.4982 46.0428 21.4615 45.9408 21.4613L45.9411 21.4615Z" fill="#292A2E"/>
<path d="M29.005 20.5327L26.3858 20.7717C26.1153 20.7964 25.9168 21.0274 25.9424 21.2877L26.1908 23.8078C26.2165 24.0681 26.4566 24.2591 26.7271 24.2344L29.3463 23.9955C29.6168 23.9708 29.8153 23.7398 29.7897 23.4795L29.5413 20.9593C29.5157 20.6991 29.2756 20.5081 29.005 20.5327Z" fill="#367CFF"/>
<path d="M49.9605 11.4059C49.9573 11.4059 49.9542 11.4058 49.9511 11.4055C49.9405 11.4043 49.9302 11.4011 49.9208 11.3961C49.9115 11.3911 49.9032 11.3844 49.8966 11.3763C49.8899 11.3682 49.885 11.359 49.882 11.3491C49.8791 11.3392 49.8782 11.3288 49.8794 11.3186C50.0019 10.5267 50.2564 9.75911 50.633 9.04525C51.4481 7.52503 52.7264 6.65311 54.3289 6.52323C54.3504 6.52148 54.3718 6.52804 54.3883 6.54146C54.4048 6.55488 54.4151 6.57407 54.4169 6.59479C54.4188 6.61552 54.4119 6.6361 54.398 6.65199C54.384 6.66788 54.3641 6.67779 54.3426 6.67954C50.6052 6.98197 50.0467 11.293 50.0413 11.3365C50.039 11.3556 50.0295 11.3732 50.0146 11.386C49.9997 11.3988 49.9804 11.4059 49.9605 11.4059Z" fill="#292A2E"/>
<path d="M53.5538 7.45673C53.5377 7.45674 53.522 7.45216 53.5085 7.44355C53.4951 7.43495 53.4847 7.42272 53.4785 7.4084C53.4723 7.39408 53.4707 7.37832 53.4738 7.3631C53.4769 7.34789 53.4847 7.33391 53.496 7.32293L54.2492 6.59501L53.4928 5.87031C53.485 5.86309 53.4788 5.85444 53.4745 5.84488C53.4702 5.83532 53.4679 5.82504 53.4678 5.81463C53.4677 5.80421 53.4697 5.79388 53.4738 5.78423C53.4779 5.77459 53.4839 5.76582 53.4915 5.75844C53.4992 5.75106 53.5083 5.74522 53.5183 5.74126C53.5283 5.73729 53.539 5.73529 53.5498 5.73535C53.5606 5.73542 53.5713 5.73756 53.5813 5.74165C53.5913 5.74574 53.6003 5.75169 53.6078 5.75917L54.422 6.53924C54.4372 6.55395 54.4458 6.5739 54.4458 6.59469C54.4458 6.61549 54.4372 6.63544 54.422 6.65015L53.6113 7.43359C53.6038 7.44091 53.5948 7.44672 53.585 7.45069C53.5751 7.45466 53.5645 7.45671 53.5538 7.45673Z" fill="#292A2E"/>
<path d="M44.6612 20.2138C44.6437 20.2138 44.6268 20.2084 44.6127 20.1984C44.5987 20.1884 44.5884 20.1744 44.5833 20.1583C44.5711 20.12 43.3988 16.3109 46.4337 14.7309C46.4431 14.7257 46.4535 14.7225 46.4643 14.7212C46.475 14.72 46.4859 14.7209 46.4963 14.7238C46.5068 14.7266 46.5165 14.7315 46.5249 14.738C46.5334 14.7446 46.5404 14.7527 46.5455 14.7618C46.5507 14.771 46.5539 14.7811 46.5549 14.7915C46.556 14.8018 46.5549 14.8123 46.5517 14.8223C46.5485 14.8322 46.5433 14.8415 46.5363 14.8495C46.5294 14.8575 46.5208 14.8641 46.5112 14.8688C43.5947 16.387 44.7276 20.0749 44.7394 20.112C44.7431 20.1238 44.7439 20.1362 44.7418 20.1483C44.7396 20.1603 44.7346 20.1718 44.727 20.1816C44.7194 20.1915 44.7095 20.1995 44.6981 20.205C44.6868 20.2106 44.6742 20.2134 44.6614 20.2134L44.6612 20.2138Z" fill="#292A2E"/>
<path d="M46.1239 15.7771C46.1106 15.7771 46.0976 15.7739 46.0859 15.768C46.0742 15.762 46.0641 15.7534 46.0567 15.7429C46.0492 15.7323 46.0445 15.7202 46.043 15.7075C46.0415 15.6949 46.0432 15.682 46.048 15.6702L46.3881 14.8296L45.5145 14.5021C45.4947 14.4943 45.4789 14.4794 45.4705 14.4605C45.4621 14.4416 45.4617 14.4203 45.4694 14.4011C45.4771 14.3819 45.4924 14.3665 45.5118 14.358C45.5313 14.3496 45.5535 14.3488 45.5735 14.3559L46.5232 14.7115C46.5331 14.7152 46.5422 14.7208 46.55 14.728C46.5577 14.7351 46.5639 14.7436 46.5682 14.753C46.5725 14.7625 46.5749 14.7726 46.5751 14.7829C46.5753 14.7932 46.5734 14.8035 46.5695 14.8131L46.1999 15.7267C46.194 15.7415 46.1836 15.7542 46.17 15.7632C46.1564 15.7722 46.1404 15.777 46.1239 15.7771Z" fill="#292A2E"/>
<path d="M34.523 7.25842C34.5013 7.25842 34.4806 7.25016 34.4653 7.23545C34.45 7.22074 34.4414 7.20079 34.4414 7.17999C34.4414 5.98855 34.076 5.07906 33.355 4.47687C32.0752 3.40809 30.0847 3.66573 30.0647 3.66848C30.0433 3.67142 30.0216 3.66606 30.0043 3.65358C29.987 3.6411 29.9756 3.62252 29.9725 3.60193C29.9694 3.58134 29.975 3.56042 29.988 3.54377C30.001 3.52713 30.0203 3.51613 30.0417 3.51318C30.126 3.5015 32.1245 3.24213 33.4611 4.35773C34.2199 4.99106 34.6046 5.94063 34.6045 7.17999C34.6045 7.19029 34.6024 7.20049 34.5983 7.21001C34.5942 7.21952 34.5882 7.22817 34.5806 7.23545C34.573 7.24273 34.564 7.24851 34.5542 7.25245C34.5443 7.25639 34.5337 7.25842 34.523 7.25842Z" fill="#292A2E"/>
<path d="M34.527 7.28658C34.5245 7.28658 34.5219 7.28658 34.5194 7.28658C34.5087 7.28562 34.4984 7.28264 34.4889 7.27782C34.4794 7.27301 34.471 7.26644 34.4642 7.2585L33.7311 6.40682C33.7173 6.39079 33.7107 6.37015 33.7128 6.34943C33.7148 6.32871 33.7253 6.30962 33.7419 6.29635C33.7586 6.28308 33.7801 6.27672 33.8016 6.27867C33.8231 6.28061 33.843 6.29071 33.8568 6.30674L34.5381 7.09834L35.3605 6.44329C35.3687 6.43672 35.3782 6.43178 35.3884 6.42875C35.3987 6.42573 35.4094 6.42467 35.4201 6.42563C35.4307 6.4266 35.4411 6.42958 35.4506 6.4344C35.46 6.43922 35.4684 6.44578 35.4752 6.45372C35.4821 6.46166 35.4872 6.47081 35.4903 6.48065C35.4935 6.4905 35.4946 6.50084 35.4936 6.5111C35.4926 6.52135 35.4895 6.53131 35.4845 6.54042C35.4795 6.54952 35.4726 6.55759 35.4644 6.56415L34.5789 7.26885C34.5643 7.28036 34.5459 7.28663 34.527 7.28658Z" fill="#292A2E"/>
<path d="M36.3291 15.9106H33.6981C33.4263 15.9106 33.2061 16.1226 33.2061 16.3841V18.9155C33.2061 19.1769 33.4263 19.3889 33.6981 19.3889H36.3291C36.6008 19.3889 36.8211 19.1769 36.8211 18.9155V16.3841C36.8211 16.1226 36.6008 15.9106 36.3291 15.9106Z" fill="#0CBC8B"/>
<path d="M43.0296 20.537C43.0115 20.537 42.9938 20.5311 42.9796 20.5204C42.9653 20.5096 42.9551 20.4946 42.9507 20.4776C42.0419 16.9796 37.5982 17.225 37.554 17.2279C37.5433 17.2285 37.5326 17.2272 37.5224 17.2239C37.5122 17.2206 37.5028 17.2154 37.4947 17.2086C37.4867 17.2018 37.4801 17.1936 37.4753 17.1843C37.4705 17.1751 37.4677 17.165 37.467 17.1547C37.4663 17.1444 37.4677 17.1341 37.4711 17.1243C37.4745 17.1145 37.4799 17.1055 37.487 17.0977C37.494 17.0899 37.5026 17.0836 37.5122 17.079C37.5218 17.0744 37.5323 17.0717 37.543 17.071C38.3614 17.0443 39.1789 17.1479 39.9623 17.3773C41.1257 17.7271 42.6159 18.5422 43.1088 20.4392C43.1114 20.4492 43.1119 20.4596 43.1103 20.4698C43.1087 20.48 43.1051 20.4898 43.0996 20.4986C43.0941 20.5074 43.0868 20.5151 43.0782 20.5213C43.0696 20.5274 43.0598 20.5318 43.0494 20.5343C43.043 20.536 43.0363 20.5369 43.0296 20.537Z" fill="#292A2E"/>
<path d="M43.0411 20.5634C43.0242 20.5634 43.0077 20.5583 42.9939 20.5489L42.0714 19.919C42.0538 19.9069 42.0418 19.8887 42.0382 19.8681C42.0346 19.8476 42.0397 19.8266 42.0522 19.8096C42.0647 19.7927 42.0837 19.7812 42.1051 19.7777C42.1264 19.7743 42.1482 19.7791 42.1659 19.7912L43.0209 20.375L43.6304 19.5247C43.6427 19.5077 43.6615 19.4961 43.6827 19.4924C43.7039 19.4888 43.7257 19.4933 43.7434 19.5051C43.7611 19.5169 43.7733 19.5349 43.7773 19.5552C43.7812 19.5756 43.7766 19.5966 43.7645 19.6137L43.1082 20.5295C43.102 20.5381 43.0942 20.5454 43.0851 20.551C43.0761 20.5566 43.0659 20.5604 43.0553 20.5622C43.0506 20.563 43.0458 20.5634 43.0411 20.5634Z" fill="#292A2E"/>
<path d="M83.1155 70.9999L83.2756 70.9703L80.7734 47.0464L80.6133 47.076L83.1155 70.9999Z" fill="#494949"/>
<path d="M73.7985 70.9999L73.9586 70.9703L71.4565 47.0464L71.2964 47.076L73.7985 70.9999Z" fill="#494949"/>
<path d="M53.204 70.9999L53.0439 70.9703L55.5461 47.0464L55.7062 47.076L53.204 70.9999Z" fill="#494949"/>
<path d="M62.5209 70.9999L62.3608 70.9703L64.863 47.0464L65.023 47.076L62.5209 70.9999Z" fill="#494949"/>
<path d="M65.8387 36.5167L64.377 47.0503L64.5386 47.0711L66.0003 36.5374L65.8387 36.5167Z" fill="#494949"/>
<path d="M82.616 36.5167L81.1543 47.0503L81.3159 47.0711L82.7776 36.5375L82.616 36.5167Z" fill="#494949"/>
<path d="M64.3917 47.8325H80.8023C81.2451 47.8325 81.604 47.4872 81.604 47.0611V47.0611C81.604 46.6351 81.2451 46.2897 80.8023 46.2897H64.3917C63.9489 46.2897 63.59 46.6351 63.59 47.0611V47.0611C63.59 47.4872 63.9489 47.8325 64.3917 47.8325Z" fill="#292A2E"/>
<path opacity="0.8" d="M64.3917 47.8325H80.8023C81.2451 47.8325 81.604 47.4872 81.604 47.0611V47.0611C81.604 46.6351 81.2451 46.2897 80.8023 46.2897H64.3917C63.9489 46.2897 63.59 46.6351 63.59 47.0611V47.0611C63.59 47.4872 63.9489 47.8325 64.3917 47.8325Z" fill="white"/>
<path d="M63.5083 47.0611C63.5086 46.8359 63.6017 46.6199 63.7673 46.4606C63.9329 46.3013 64.1574 46.2117 64.3915 46.2114H80.8021V47.911Cnan nan nan nan 80.8021 47.911H64.3915C64.1573 47.9108 63.9328 47.8211 63.7673 47.6618C63.6017 47.5025 63.5086 47.2865 63.5083 47.0611ZM64.3915 47.7541Cnan nan nan nan 64.3915 47.7541H80.8021Cnan nan nan nan 80.8021 47.7541H64.3915Z" fill="#292A2E"/>
<path d="M55.3844 47.8325H71.795C72.2377 47.8325 72.5967 47.4872 72.5967 47.0611V47.0611C72.5967 46.6351 72.2377 46.2897 71.795 46.2897H55.3844C54.9416 46.2897 54.5827 46.6351 54.5827 47.0611V47.0611C54.5827 47.4872 54.9416 47.8325 55.3844 47.8325Z" fill="white"/>
<path d="M54.501 47.0611C54.5013 46.8358 54.5945 46.6198 54.7601 46.4605C54.9258 46.3012 55.1504 46.2116 55.3846 46.2114H71.7952V47.911Cnan nan nan nan 71.7952 47.911H55.3846C55.1504 47.9108 54.9258 47.8213 54.7601 47.6619C54.5945 47.5026 54.5013 47.2865 54.501 47.0611ZM55.3846 46.3683C55.29 46.3683 55.1964 46.3862 55.109 46.421C55.0216 46.4559 54.9422 46.5069 54.8754 46.5712C54.8085 46.6356 54.7554 46.712 54.7192 46.796C54.683 46.8801 54.6644 46.9702 54.6644 47.0612C54.6644 47.1522 54.683 47.2423 54.7192 47.3264C54.7554 47.4105 54.8085 47.4869 54.8754 47.5512C54.9422 47.6156 55.0216 47.6666 55.109 47.7014C55.1964 47.7362 55.29 47.7542 55.3846 47.7542H71.7952C71.9862 47.7542 72.1694 47.6812 72.3044 47.5512C72.4395 47.4213 72.5154 47.245 72.5154 47.0612C72.5154 46.8774 72.4395 46.7012 72.3044 46.5712C72.1694 46.4413 71.9862 46.3683 71.7952 46.3683H55.3846Z" fill="#292A2E"/>
<path d="M66.7383 36.5274H82.6539C82.9141 36.5274 83.1655 36.4363 83.361 36.2711C83.5565 36.1058 83.6828 35.8778 83.7165 35.6295L84.7691 27.8506C84.7888 27.7052 84.7761 27.5574 84.7317 27.4172C84.6873 27.2769 84.6123 27.1473 84.5118 27.0372C84.4112 26.927 84.2874 26.8387 84.1485 26.7783C84.0097 26.7178 83.8591 26.6865 83.7067 26.6865H67.7911C67.5308 26.6865 67.2794 26.7776 67.0838 26.9428C66.8882 27.1081 66.7618 27.3362 66.7282 27.5846L65.6755 35.3633C65.6558 35.5088 65.6686 35.6566 65.713 35.7969C65.7574 35.9372 65.8324 36.0667 65.933 36.1769C66.0336 36.2871 66.1575 36.3753 66.2964 36.4358C66.4352 36.4962 66.5859 36.5275 66.7383 36.5274Z" fill="#292A2E"/>
<path opacity="0.8" d="M66.7383 36.5274H82.6539C82.9141 36.5274 83.1655 36.4363 83.361 36.2711C83.5565 36.1058 83.6828 35.8778 83.7165 35.6295L84.7691 27.8506C84.7888 27.7052 84.7761 27.5574 84.7317 27.4172C84.6873 27.2769 84.6123 27.1473 84.5118 27.0372C84.4112 26.927 84.2874 26.8387 84.1485 26.7783C84.0097 26.7178 83.8591 26.6865 83.7067 26.6865H67.7911C67.5308 26.6865 67.2794 26.7776 67.0838 26.9428C66.8882 27.1081 66.7618 27.3362 66.7282 27.5846L65.6755 35.3633C65.6558 35.5088 65.6686 35.6566 65.713 35.7969C65.7574 35.9372 65.8324 36.0667 65.933 36.1769C66.0336 36.2871 66.1575 36.3753 66.2964 36.4358C66.4352 36.4962 66.5859 36.5275 66.7383 36.5274Z" fill="white"/>
<path d="M65.8722 36.2287C65.764 36.1101 65.6833 35.9707 65.6355 35.8198C65.5877 35.6689 65.5739 35.5098 65.5951 35.3534L66.6478 27.5746C66.6846 27.3077 66.8207 27.0626 67.031 26.8849C67.2412 26.7073 67.5113 26.609 67.7912 26.6084H83.7067C83.8707 26.6084 84.0328 26.642 84.1822 26.7071C84.3316 26.7722 84.4649 26.8672 84.5731 26.9857C84.6813 27.1043 84.762 27.2437 84.8097 27.3947C84.8575 27.5456 84.8712 27.7046 84.85 27.8611L83.7974 35.6398C83.7606 35.9067 83.6245 36.1518 83.4143 36.3295C83.204 36.5071 82.9339 36.6054 82.654 36.606H66.7382C66.5743 36.6059 66.4123 36.5723 66.2629 36.5072C66.1136 36.4421 65.9804 36.3472 65.8722 36.2287ZM67.791 26.7653C67.5508 26.7658 67.3189 26.8502 67.1385 27.0028C66.958 27.1553 66.8412 27.3657 66.8097 27.5948L65.7569 35.3736C65.7387 35.508 65.7505 35.6445 65.7915 35.7741C65.8326 35.9037 65.9018 36.0234 65.9947 36.1252C66.0877 36.2269 66.2021 36.3085 66.3303 36.3644C66.4586 36.4202 66.5978 36.4491 66.7386 36.4491H82.6541C82.8944 36.4486 83.1263 36.3643 83.3069 36.2117C83.4874 36.0592 83.6043 35.8488 83.6358 35.6196L84.6885 27.8408C84.7067 27.7064 84.6949 27.5699 84.6539 27.4403C84.6129 27.3107 84.5436 27.191 84.4507 27.0892C84.3578 26.9875 84.2434 26.9059 84.1151 26.85C83.9869 26.7942 83.8477 26.7653 83.7069 26.7653H67.791Z" fill="#292A2E"/>
<path d="M65.8384 36.5274H81.754C82.0142 36.5274 82.2655 36.4363 82.461 36.2711C82.6565 36.1058 82.7829 35.8778 82.8165 35.6295L83.8693 27.8506C83.8889 27.7052 83.8762 27.5574 83.8318 27.4172C83.7874 27.2769 83.7124 27.1473 83.6118 27.0372C83.5113 26.927 83.3874 26.8387 83.2486 26.7783C83.1098 26.7178 82.9591 26.6865 82.8067 26.6865H66.8913C66.6311 26.6865 66.3798 26.7776 66.1843 26.9428C65.9888 27.108 65.8625 27.3361 65.8289 27.5843L64.7761 35.3631C64.7564 35.5085 64.7691 35.6563 64.8135 35.7966C64.8578 35.9369 64.9328 36.0664 65.0333 36.1766C65.1339 36.2868 65.2577 36.3751 65.3965 36.4356C65.5354 36.4961 65.686 36.5274 65.8384 36.5274Z" fill="white"/>
<path d="M64.9718 36.2287C64.8636 36.1101 64.7829 35.9707 64.7351 35.8198C64.6873 35.6689 64.6735 35.5098 64.6947 35.3534L65.7474 27.5746C65.7842 27.3076 65.9204 27.0625 66.1307 26.8849C66.341 26.7072 66.6112 26.6089 66.8911 26.6084H82.8067C82.9707 26.6084 83.1328 26.642 83.2822 26.7071C83.4316 26.7722 83.5648 26.8672 83.673 26.9857C83.7813 27.1043 83.8619 27.2437 83.9097 27.3947C83.9575 27.5456 83.9712 27.7046 83.95 27.8611L82.8973 35.6398C82.8606 35.9067 82.7244 36.1518 82.5141 36.3295C82.3039 36.5071 82.0338 36.6054 81.7539 36.606H65.8382C65.6742 36.606 65.5121 36.5723 65.3627 36.5072C65.2133 36.4422 65.0801 36.3472 64.9718 36.2287ZM66.8911 26.7653C66.6508 26.7658 66.4189 26.8502 66.2384 27.0027C66.0579 27.1553 65.941 27.3657 65.9094 27.5948L64.8566 35.3736C64.8385 35.508 64.8503 35.6445 64.8913 35.7741C64.9323 35.9037 65.0016 36.0234 65.0945 36.1252C65.1874 36.2269 65.3018 36.3085 65.4301 36.3644C65.5584 36.4202 65.6975 36.4491 65.8383 36.4491H81.7537C81.994 36.4486 82.2259 36.3643 82.4065 36.2117C82.587 36.0592 82.7039 35.8488 82.7354 35.6196L83.7882 27.8409C83.8064 27.7065 83.7946 27.57 83.7535 27.4404C83.7125 27.3108 83.6433 27.1911 83.5504 27.0893C83.4574 26.9875 83.343 26.9059 83.2148 26.8501C83.0865 26.7942 82.9473 26.7653 82.8065 26.7653H66.8911Z" fill="#292A2E"/>
<path d="M53.8095 66.8555C53.8095 66.8555 53.3725 69.0354 51.2512 69.1569C49.13 69.2784 49.5899 70.9042 49.5899 70.9042H57.6962V67.0075L53.8095 66.8555Z" fill="#367CFF"/>
<path d="M61.0828 65.4796C61.0828 65.4796 61.6907 67.6212 59.8431 68.6312C57.9955 69.6411 59.154 70.9047 59.154 70.9047L66.4278 67.4615L64.6401 63.9653L61.0828 65.4796Z" fill="#367CFF"/>
<path d="M65.5882 64.8745L59.4542 46.2558H70.5729C72.8064 46.2558 73.7374 44.4334 73.7374 42.2846C73.7374 40.1357 71.5418 38.252 69.3084 38.252H54.3022C52.9401 38.252 51.4127 39.0535 50.665 40.1492C49.9174 41.2449 50.1195 42.9428 50.6611 44.1453L60.4837 67.0995" fill="#262626"/>
<path opacity="0.8" d="M65.5882 64.8745L59.4542 46.2558H70.5729C72.8064 46.2558 73.7374 44.4334 73.7374 42.2846C73.7374 40.1357 71.5418 38.252 69.3084 38.252H54.3022C52.9401 38.252 51.4127 39.0535 50.665 40.1492C49.9174 41.2449 50.1195 42.9428 50.6611 44.1453L60.4837 67.0995" fill="#0A0A0A"/>
<path d="M58.3298 68.4183L60.2699 46.2557L73.7369 46.2548C76.8925 46.0169 78.3376 44.3529 78.2917 42.2045C78.2463 40.0833 77.1301 37.9883 74.9354 37.9883H56.7848C55.161 38.0204 53.2811 39.4982 53.2811 41.198L52.3379 68.1609" fill="#262626"/>
<path d="M79.2109 38.0142C79.2109 38.0142 79.809 41.7669 78.8609 43.8532C77.6774 46.4579 73.2407 46.2549 73.2407 46.2549L73.4907 37.9883L79.2109 38.0142Z" fill="#262626"/>
<path d="M79.8696 37.5901L79.8869 37.5911C79.8869 37.5911 79.8744 37.2714 79.8696 37.5901Z" fill="#333333"/>
<path d="M79.8481 37.5901L79.8654 37.5911C79.8654 37.5911 79.853 37.2714 79.8481 37.5901Z" fill="#333333"/>
<path d="M50.9766 22.3763C51.0083 22.3159 51.0587 22.2664 51.1209 22.2347C51.1832 22.203 51.2541 22.1907 51.3239 22.1994C51.3233 22.1934 51.3247 22.1874 51.3278 22.1822C51.331 22.1782 51.3353 22.1751 51.3402 22.1732C51.3451 22.1713 51.3504 22.1706 51.3557 22.1713L51.1201 22.0088C51.0497 21.9624 50.9992 21.893 50.9778 21.8135C50.9564 21.7341 50.9656 21.6498 51.0037 21.5763C51.0438 21.5049 51.1101 21.4504 51.1897 21.4233C51.2692 21.3962 51.3564 21.3985 51.4343 21.4298C51.4337 21.4265 51.4359 21.4235 51.4364 21.4202L51.3396 21.3534C51.2735 21.3095 51.2251 21.2449 51.2028 21.1706C51.1804 21.0962 51.1854 21.0168 51.2169 20.9456C51.2376 20.9013 51.2683 20.8621 51.3068 20.8306C51.3452 20.7991 51.3905 20.7763 51.4392 20.7637C51.4879 20.751 51.539 20.749 51.5887 20.7577C51.6383 20.7663 51.6854 20.7855 51.7264 20.8138L51.9498 20.9678C51.9505 20.9665 51.9498 20.9651 51.9507 20.9639C51.9516 20.9627 51.954 20.9622 51.9553 20.961C51.904 20.9054 51.8739 20.8348 51.8698 20.7606C51.8657 20.6864 51.8879 20.6131 51.9328 20.5527C52.0383 20.3894 52.2817 20.4228 52.4261 20.5224L53.741 21.3963L53.5062 21.0148C53.4589 20.9415 53.4422 20.8537 53.4596 20.7691C53.4769 20.6844 53.5271 20.6093 53.5998 20.5589C53.6383 20.5341 53.6816 20.5171 53.7271 20.509C53.7726 20.5009 53.8194 20.5017 53.8645 20.5116C53.9097 20.5214 53.9523 20.54 53.9898 20.5662C54.0272 20.5924 54.0587 20.6257 54.0823 20.664L55.3656 22.7424C55.5162 22.9862 55.562 23.277 55.4933 23.5528C55.4246 23.8286 55.2468 24.0678 54.9978 24.2195C54.7089 24.3955 54.372 24.4845 54.0303 24.4751C53.6886 24.4656 53.3576 24.3582 53.0797 24.1665L51.094 22.7971C51.0281 22.7499 50.9806 22.6827 50.9593 22.6064C50.938 22.53 50.944 22.449 50.9766 22.3763Z" fill="#E98862"/>
<g opacity="0.25">
<path opacity="0.25" d="M53.2509 21.8307C53.246 21.8371 53.2388 21.8414 53.2307 21.8428C53.2226 21.8441 53.2142 21.8423 53.2075 21.8378L51.9582 21.0052C51.9514 21.0006 51.9468 20.9936 51.9453 20.9858C51.9439 20.9779 51.9457 20.9698 51.9504 20.9633C51.9551 20.9567 51.9624 20.9522 51.9705 20.9507C51.9787 20.9492 51.9871 20.9509 51.994 20.9554L53.2434 21.7881C53.2468 21.7904 53.2497 21.7932 53.252 21.7966C53.2542 21.7999 53.2558 21.8036 53.2565 21.8076C53.2573 21.8115 53.2572 21.8155 53.2564 21.8194C53.2555 21.8233 53.2539 21.827 53.2515 21.8303L53.2509 21.8307Z" fill="#0C0C0C"/>
</g>
<g opacity="0.25">
<path opacity="0.25" d="M52.8845 22.371C52.8797 22.3774 52.8724 22.3817 52.8643 22.3831C52.8562 22.3844 52.8479 22.3826 52.8411 22.3781L51.4472 21.4489C51.4404 21.4444 51.4357 21.4374 51.4341 21.4295C51.4326 21.4216 51.4344 21.4134 51.4391 21.4068C51.444 21.4004 51.4512 21.396 51.4594 21.3946C51.4675 21.3931 51.4759 21.3947 51.4829 21.399L52.8772 22.3281C52.8806 22.3304 52.8835 22.3333 52.8858 22.3366C52.888 22.3399 52.8896 22.3437 52.8903 22.3476C52.8911 22.3515 52.891 22.3555 52.8902 22.3594C52.8893 22.3633 52.8877 22.367 52.8853 22.3702L52.8845 22.371Z" fill="#0C0C0C"/>
</g>
<g opacity="0.25">
<path opacity="0.25" d="M52.4912 22.9582C52.4863 22.9646 52.4791 22.9689 52.471 22.9703C52.4629 22.9716 52.4545 22.9698 52.4478 22.9653L51.3356 22.2241C51.329 22.2194 51.3245 22.2125 51.3232 22.2047C51.3218 22.1969 51.3237 22.1889 51.3284 22.1824C51.333 22.176 51.3402 22.1715 51.3482 22.17C51.3563 22.1685 51.3646 22.1701 51.3715 22.1744L52.4837 22.9156C52.4871 22.9178 52.49 22.9207 52.4922 22.924C52.4945 22.9273 52.496 22.9311 52.4968 22.935C52.4976 22.9389 52.4975 22.9429 52.4967 22.9468C52.4958 22.9507 52.4941 22.9544 52.4918 22.9577L52.4912 22.9582Z" fill="#0C0C0C"/>
</g>
<path d="M56.1228 22.269L59.8914 28.4446L64.4899 22.6413L68.3087 25.954L61.7867 34.0807L61.744 34.1385C61.483 34.4825 61.1352 34.7569 60.7335 34.9358C60.3317 35.1148 59.8893 35.1924 59.4478 35.1613C59.0062 35.1302 58.5802 34.9915 58.2099 34.7582C57.8395 34.5248 57.5369 34.2047 57.3307 33.8277L51.9717 24.4901L56.1228 22.269Z" fill="#367CFF"/>
<path d="M60.2604 29.1872C60.2686 29.1872 60.2767 29.1852 60.2838 29.1813C60.2909 29.1775 60.2969 29.1719 60.3012 29.1652C60.3055 29.1585 60.3079 29.1508 60.3082 29.1429C60.3086 29.1351 60.3068 29.1272 60.303 29.1202L59.9336 28.4237C59.9276 28.4132 59.9176 28.4054 59.9057 28.4019C59.8938 28.3984 59.881 28.3995 59.8699 28.4049C59.8588 28.4104 59.8504 28.4197 59.8463 28.431C59.8423 28.4423 59.843 28.4547 59.8483 28.4656L60.2178 29.1621C60.2218 29.1697 60.2279 29.176 60.2354 29.1805C60.2429 29.1849 60.2516 29.1872 60.2604 29.1872Z" fill="#0C0C0C"/>
<path d="M64.7547 28.4098L64.6592 28.415L64.7742 30.3655L64.8698 30.3603L64.7547 28.4098Z" fill="#0C0C0C"/>
<path d="M76.898 14.2932C76.898 14.2932 77.0747 16.4644 77.5922 17.247C79.0821 19.5001 79.5366 22.0485 78.0879 23.3985C76.6392 24.7486 67.2972 24.8713 66.5526 21.8116C65.9256 19.2354 67.201 18.9435 67.4865 16.8093C67.6157 15.8437 67.9786 13.8179 67.9786 13.8179" fill="#0A0A0A"/>
<path d="M68.9307 21.322C68.947 21.3199 69.1257 24.1769 72.5755 23.9281C74.9639 23.7559 75.8153 21.3179 75.8701 21.3179C75.6125 21.2653 75.179 21.1887 75.0646 21.1297C74.6885 20.9352 74.2232 20.7329 74.102 20.0303C74.0321 19.6253 74.1509 17.5534 74.1141 17.1436L70.4482 17.9308C70.4994 18.7963 70.8579 20.8025 69.6014 21.1576C69.3923 21.2166 69.1671 21.2707 68.9307 21.322Z" fill="#E98862"/>
<path opacity="0.52" d="M70.397 20.3384C70.4544 20.1603 70.4914 19.9767 70.5073 19.7909C70.5476 19.3669 70.5395 18.94 70.4833 18.5177C71.2284 18.4209 71.9304 18.125 72.5094 17.6636C72.5775 17.9055 72.9519 18.9624 72.8482 19.1923C72.6523 19.6269 71.7315 20.3384 70.397 20.3384Z" fill="#0C0C0C"/>
<path d="M70.8831 19.439C72.3299 19.5574 74.1931 18.9803 74.5582 17.1242L74.8876 15.4494C75.2527 13.5933 74.5355 11.9043 72.7194 11.5733C70.903 11.2426 69.2494 12.5001 68.8843 14.3562L68.7385 15.0976C68.5982 15.8099 68.3016 19.2276 70.8831 19.439Z" fill="#E98862"/>
<path d="M69.256 15.1783C69.3817 15.1783 69.4837 15.0803 69.4837 14.9593C69.4837 14.8383 69.3817 14.7402 69.256 14.7402C69.1302 14.7402 69.0283 14.8383 69.0283 14.9593C69.0283 15.0803 69.1302 15.1783 69.256 15.1783Z" fill="#0C0C0C"/>
<path d="M71.5885 15.4782C71.7142 15.4782 71.8162 15.3801 71.8162 15.2591C71.8162 15.1381 71.7142 15.04 71.5885 15.04C71.4628 15.04 71.3608 15.1381 71.3608 15.2591C71.3608 15.3801 71.4628 15.4782 71.5885 15.4782Z" fill="#0C0C0C"/>
<path d="M70.3082 16.8653C70.307 16.8652 70.3058 16.8651 70.3046 16.8648C70.2311 16.8509 70.1584 16.833 70.0868 16.8114C69.98 16.7784 69.8401 16.7237 69.8586 16.631C69.8793 16.5253 70.4047 15.4389 70.4647 15.3155C70.47 15.3047 70.4794 15.2964 70.4911 15.2923C70.5027 15.2882 70.5155 15.2887 70.5267 15.2937C70.538 15.2988 70.5466 15.3079 70.5509 15.3191C70.5551 15.3302 70.5546 15.3426 70.5494 15.3534C70.3252 15.8161 69.9642 16.5769 69.9503 16.6475C69.9623 16.6805 70.1396 16.7432 70.3222 16.7765C70.3341 16.7786 70.3448 16.785 70.3519 16.7945C70.3589 16.804 70.3619 16.8158 70.3601 16.8273C70.3583 16.8389 70.3519 16.8493 70.3423 16.8564C70.3326 16.8635 70.3205 16.8666 70.3084 16.8652L70.3082 16.8653Z" fill="#0C0C0C"/>
<path d="M70.5772 17.6668C70.2809 17.6298 69.9978 17.5263 69.7507 17.3647C69.7403 17.3582 69.733 17.348 69.7305 17.3364C69.7279 17.3247 69.7303 17.3126 69.7371 17.3026C69.7438 17.2926 69.7544 17.2856 69.7665 17.2832C69.7786 17.2807 69.7913 17.283 69.8016 17.2895C70.3363 17.6247 70.8677 17.6789 71.3381 17.4464C71.3476 17.4414 71.3573 17.4369 71.3674 17.433C71.379 17.4289 71.3918 17.4295 71.403 17.4345C71.4142 17.4396 71.4229 17.4487 71.4271 17.4599C71.4313 17.4711 71.4307 17.4834 71.4254 17.4942C71.4202 17.505 71.4107 17.5133 71.3991 17.5173C71.3954 17.5188 71.3892 17.522 71.3807 17.5262C71.1334 17.649 70.8536 17.6979 70.5772 17.6668Z" fill="#0C0C0C"/>
<path d="M76.3404 16.0331L74.7121 15.7459C73.4791 15.2658 73.1063 13.2118 73.1063 13.2118C73.1063 13.2118 71.6085 14.6165 67.979 13.8176C67.979 13.8176 68.7068 8.94704 74.0694 10.3632C75.7985 10.8199 77.0395 12.4965 76.8849 14.7371C76.776 16.3074 76.3404 16.0331 76.3404 16.0331Z" fill="#0A0A0A"/>
<path d="M74.334 17.6692C74.8859 17.7697 75.4451 17.283 75.5496 16.7516C75.6541 16.2201 75.2643 15.8461 74.7122 15.7456L74.3578 16.0497L73.8594 17.5825L74.334 17.6692Z" fill="#E98862"/>
<path d="M70.132 14.4277C69.971 14.3276 69.7849 14.2711 69.5934 14.2641C69.4991 14.26 69.4048 14.2696 69.3135 14.2926C69.223 14.3149 69.1358 14.3481 69.054 14.3915C69.0435 14.3975 69.0358 14.4071 69.0323 14.4183C69.0288 14.4296 69.0298 14.4417 69.0351 14.4523C69.0405 14.4628 69.0497 14.4711 69.061 14.4755C69.0723 14.4799 69.085 14.48 69.0964 14.4758L69.0998 14.4744C69.1755 14.4387 69.2555 14.4124 69.3379 14.3959C69.4194 14.3791 69.5031 14.3743 69.5861 14.3817C69.7508 14.3949 69.909 14.4498 70.0444 14.5409L70.0488 14.544C70.0565 14.5502 70.0655 14.5548 70.0752 14.5575C70.0848 14.5603 70.0949 14.561 70.1049 14.5598C70.1149 14.5586 70.1245 14.5555 70.1331 14.5506C70.1418 14.5456 70.1493 14.5391 70.1552 14.5312C70.1611 14.5234 70.1653 14.5145 70.1675 14.505C70.1696 14.4956 70.1698 14.4858 70.1678 14.4763C70.1659 14.4668 70.162 14.4578 70.1563 14.4498C70.1506 14.4419 70.1433 14.4351 70.1347 14.43L70.132 14.4277Z" fill="#0C0C0C"/>
<path d="M71.5842 14.7565C71.7447 14.7187 71.9128 14.7225 72.0713 14.7673C72.1515 14.7893 72.2277 14.8229 72.2975 14.8669C72.3681 14.9111 72.4328 14.9635 72.4898 15.0232L72.4924 15.0257C72.5015 15.0335 72.5134 15.0378 72.5256 15.0377C72.5378 15.0375 72.5495 15.033 72.5584 15.025C72.5673 15.017 72.5728 15.0061 72.5738 14.9944C72.5748 14.9827 72.5712 14.971 72.5637 14.9618C72.5036 14.893 72.4349 14.8317 72.3589 14.7794C72.2824 14.7263 72.198 14.6845 72.1086 14.6555C71.9273 14.5955 71.7326 14.5835 71.5449 14.6209C71.527 14.6258 71.5117 14.6371 71.5022 14.6525C71.4926 14.6678 71.4894 14.6861 71.4933 14.7036C71.4972 14.7211 71.5079 14.7365 71.5232 14.7468C71.5385 14.757 71.5572 14.7612 71.5757 14.7586L71.5787 14.7579L71.5842 14.7565Z" fill="#0C0C0C"/>
<path d="M70.5141 18.0883C70.4605 18.0824 70.4074 18.0721 70.3555 18.0576C70.3436 18.0543 70.3336 18.0466 70.3276 18.0362C70.3216 18.0258 70.3202 18.0135 70.3236 18.0021C70.327 17.9906 70.335 17.981 70.3459 17.9752C70.3567 17.9694 70.3695 17.9681 70.3814 17.9714C70.6936 18.0576 70.8711 17.9433 70.8786 17.9383C70.8887 17.9315 70.9013 17.9288 70.9135 17.9308C70.9256 17.9329 70.9365 17.9395 70.9436 17.9493C70.9507 17.959 70.9535 17.9711 70.9514 17.9828C70.9492 17.9945 70.9424 18.005 70.9322 18.0118C70.8062 18.083 70.6585 18.11 70.5141 18.0883Z" fill="#0C0C0C"/>
<path d="M74.7088 15.7258L74.7251 15.6825C72.6622 14.9699 73.1667 13.022 73.172 13.0024L73.1257 12.9907C73.1201 13.0107 72.6041 14.9988 74.7088 15.7258Z" fill="#0C0C0C"/>
<path opacity="0.1" d="M72.2374 16.7425C72.2561 16.5744 72.0783 16.4181 71.8401 16.3934C71.602 16.3688 71.3937 16.4851 71.3749 16.6532C71.3561 16.8213 71.5339 16.9775 71.7721 17.0022C72.0102 17.0268 72.2186 16.9105 72.2374 16.7425Z" fill="#0C0C0C"/>
<path opacity="0.1" d="M69.2513 16.3589C69.2319 16.5268 69.0238 16.6429 68.7856 16.6185C68.7444 16.6143 68.7038 16.6059 68.6644 16.5936C68.651 16.3938 68.6481 16.2014 68.652 16.0235C68.7178 16.0069 68.7863 16.0023 68.8539 16.0099C69.0918 16.0342 69.2698 16.1905 69.2513 16.3589Z" fill="#0C0C0C"/>
<path d="M64.6448 27.6124C64.7534 28.8408 65.282 36.4752 65.3866 37.9884L79.2103 38.0166C79.2919 36.6519 80.2314 30.6855 80.5399 28.0172C80.8343 25.471 81.4121 24.1961 80.9882 23.4434C80.2963 22.2131 78.4056 21.5022 77.1162 21.3342C76.329 21.2317 75.145 21.1582 75.145 21.1582C75.145 21.1582 75.0448 23.1095 72.6543 23.2181C69.4001 23.3658 69.6174 21.1582 69.6013 21.1582C69.0741 21.1582 66.0626 21.4792 65.3257 21.8995C63.3184 23.0431 64.4141 25.0096 64.6448 27.6124Z" fill="#367CFF"/>
<path d="M55.6717 28.4705L57.0042 34.7021C57.0313 34.8286 57.1026 34.9424 57.2063 35.0245C57.31 35.1065 57.4398 35.1519 57.5741 35.153L66.7495 35.2281C66.837 35.2289 66.9236 35.2107 67.0029 35.1751C67.0822 35.1394 67.1523 35.0872 67.2079 35.0221C67.2635 34.9571 67.3032 34.8809 67.3243 34.7991C67.3453 34.7174 67.347 34.6321 67.3294 34.5496L65.9969 28.3181C65.9698 28.1915 65.8985 28.0778 65.7948 27.9957C65.6911 27.9137 65.5613 27.8683 65.427 27.8672L56.2516 27.792C56.1641 27.7913 56.0775 27.8094 55.9982 27.8451C55.9189 27.8807 55.8489 27.933 55.7933 27.998C55.7377 28.0631 55.6979 28.1393 55.6769 28.221C55.6558 28.3028 55.6541 28.388 55.6717 28.4705Z" fill="#292A2E"/>
<path d="M64.2278 32.8968C64.2229 32.9789 64.249 33.0598 64.3013 33.1248C64.3535 33.1898 64.4285 33.2345 64.5122 33.2505L64.7947 33.3105C64.7896 33.3121 64.785 33.3148 64.7814 33.3185C64.7777 33.3222 64.775 33.3267 64.7735 33.3316C64.7729 33.3374 64.7742 33.3432 64.7774 33.3482C64.7095 33.3665 64.6492 33.4048 64.6049 33.4576C64.5607 33.5105 64.5346 33.5753 64.5304 33.643C64.53 33.722 64.5573 33.7987 64.6078 33.8609C64.6584 33.9231 64.7293 33.9671 64.809 33.9858L67.1941 34.4956C67.3161 34.5218 67.4407 34.5349 67.5657 34.5348C67.8441 34.5347 68.1183 34.4696 68.3646 34.3449C68.611 34.2201 68.8222 34.0396 68.9799 33.8189C69.1472 33.5854 69.2131 33.2983 69.1638 33.0187C69.1144 32.7391 68.9536 32.4891 68.7156 32.3218L66.6867 30.8944C66.642 30.8629 66.5901 30.8424 66.5354 30.8345L66.7221 31.7069L66.6724 31.6959L66.6618 31.6941L65.1058 31.3896C64.9325 31.3527 64.695 31.4131 64.6644 31.6033C64.6479 31.676 64.6575 31.7518 64.6916 31.8186C64.7256 31.8853 64.7821 31.939 64.8519 31.9709C64.8509 31.9718 64.8489 31.9727 64.8489 31.9746C64.8489 31.9765 64.8499 31.9774 64.8499 31.9792L64.5809 31.9221C64.5317 31.9116 64.4807 31.9118 64.4316 31.9225C64.3825 31.9333 64.3365 31.9544 64.2968 31.9843C64.2572 32.0143 64.2249 32.0523 64.2024 32.0956C64.1799 32.139 64.1676 32.1866 64.1665 32.2351C64.1665 32.3125 64.1944 32.3876 64.2453 32.4475C64.2963 32.5075 64.3672 32.5486 64.4461 32.564L64.5619 32.5888C64.5629 32.5925 64.5619 32.5962 64.5639 32.599C64.4794 32.5996 64.3982 32.6304 64.3361 32.6855C64.274 32.7405 64.2354 32.8159 64.2278 32.8968Z" fill="#E98862"/>
<g opacity="0.25">
<path opacity="0.25" d="M66.3993 32.2817C66.3975 32.2894 66.3926 32.2961 66.3857 32.3003C66.3788 32.3046 66.3705 32.3061 66.3624 32.3046L64.8736 32.0108C64.8695 32.0101 64.8655 32.0086 64.862 32.0064C64.8585 32.0042 64.8555 32.0013 64.8531 31.998C64.8507 31.9946 64.8491 31.9909 64.8483 31.9869C64.8474 31.9829 64.8475 31.9788 64.8483 31.9749C64.8491 31.9709 64.8508 31.9672 64.8532 31.9638C64.8556 31.9605 64.8586 31.9576 64.8621 31.9555C64.8657 31.9533 64.8696 31.9518 64.8738 31.9511C64.8779 31.9504 64.8822 31.9506 64.8863 31.9515L66.375 32.2453C66.3791 32.2461 66.3829 32.2476 66.3863 32.2499C66.3898 32.2521 66.3927 32.2549 66.395 32.2582C66.3972 32.2616 66.3988 32.2653 66.3996 32.2692C66.4004 32.2731 66.4003 32.2771 66.3995 32.281L66.3993 32.2817Z" fill="#0C0C0C"/>
</g>
<g opacity="0.25">
<path opacity="0.25" d="M66.2827 32.9169C66.2808 32.9246 66.2759 32.9313 66.269 32.9356C66.2621 32.9398 66.2537 32.9413 66.2457 32.9398L64.5842 32.6119C64.5801 32.6111 64.5763 32.6096 64.5729 32.6073C64.5695 32.6051 64.5665 32.6023 64.5643 32.5989C64.562 32.5956 64.5604 32.5919 64.5596 32.588C64.5589 32.5841 64.5589 32.5801 64.5597 32.5762C64.5617 32.5685 64.5666 32.5618 64.5735 32.5574C64.5804 32.553 64.5888 32.5514 64.5969 32.5527L66.2583 32.8805C66.2665 32.8822 66.2736 32.8869 66.2782 32.8936C66.2828 32.9003 66.2844 32.9084 66.2828 32.9163L66.2827 32.9169Z" fill="#0C0C0C"/>
</g>
<g opacity="0.25">
<path opacity="0.25" d="M66.1605 33.6056C66.1586 33.6133 66.1537 33.62 66.1468 33.6242C66.1399 33.6285 66.1315 33.63 66.1235 33.6285L64.7981 33.367C64.79 33.3653 64.783 33.3605 64.7785 33.3539C64.774 33.3472 64.7724 33.3391 64.7741 33.3313C64.7758 33.3235 64.7805 33.3166 64.7874 33.3122C64.7943 33.3078 64.8027 33.3062 64.8108 33.3077L66.1361 33.5692C66.1443 33.5708 66.1514 33.5755 66.156 33.5821C66.1606 33.5888 66.1622 33.597 66.1606 33.6049L66.1605 33.6056Z" fill="#0C0C0C"/>
</g>
<path d="M67.3418 35.4033L80.2821 37.6533C80.6859 37.6956 81.0944 37.6473 81.4755 37.5122C81.8566 37.3771 82.2 37.1588 82.4788 36.8745C82.7575 36.5902 82.964 36.2477 83.082 35.8737C83.2 35.4997 83.2264 35.1046 83.159 34.7192L81.3474 24.3584C81.291 24.0301 81.1679 23.7157 80.985 23.4332C80.8021 23.1507 80.5631 22.9057 80.2816 22.7123C80.0001 22.5189 79.6818 22.3808 79.3447 22.306C79.0077 22.2311 78.6587 22.2211 78.3176 22.2763C77.9765 22.3315 77.6501 22.4509 77.357 22.6277C77.064 22.8045 76.8101 23.0352 76.6099 23.3066C76.4097 23.578 76.2671 23.8847 76.1904 24.2092C76.1136 24.5337 76.1041 24.8696 76.1625 25.1976L77.3982 32.3301L67.9107 31.1836L67.3418 35.4033Z" fill="#367CFF"/>
<path d="M80.2817 37.6995C80.2936 37.6994 80.305 37.695 80.3137 37.6872C80.3225 37.6794 80.3278 37.6688 80.3289 37.6574C80.3299 37.6459 80.3264 37.6346 80.3192 37.6255C80.312 37.6164 80.3016 37.6102 80.2899 37.6081L67.3942 35.3659L67.9512 31.2352L77.3906 32.3759C77.3981 32.3768 77.4057 32.3761 77.4127 32.3737C77.4198 32.3713 77.4262 32.3673 77.4314 32.3621C77.4365 32.3569 77.4403 32.3507 77.4425 32.3439C77.4447 32.3371 77.4453 32.3299 77.4441 32.3228L76.6594 27.7647C76.6584 27.7587 76.6562 27.7529 76.6529 27.7477C76.6496 27.7426 76.6453 27.7381 76.6401 27.7346C76.635 27.731 76.6292 27.7285 76.6231 27.7272C76.6169 27.7259 76.6105 27.7257 76.6043 27.7268C76.5918 27.7288 76.5806 27.7355 76.5733 27.7455C76.5659 27.7554 76.5629 27.7677 76.565 27.7798L77.3394 32.277L67.9162 31.1385C67.9037 31.137 67.891 31.1404 67.881 31.1478C67.871 31.1553 67.8645 31.1662 67.8627 31.1782L67.2939 35.3978C67.2923 35.4095 67.2954 35.4214 67.3027 35.4309C67.3099 35.4405 67.3207 35.447 67.3328 35.4491L80.2732 37.6987C80.276 37.6992 80.2789 37.6995 80.2817 37.6995Z" fill="#0C0C0C"/>
<path d="M77.4058 32.2849L77.3906 32.376L78.223 32.5042L78.2381 32.4131L77.4058 32.2849Z" fill="#0C0C0C"/>
<path d="M88.9428 70.9536H0.0571289Cnan nan nan nan 0.0571289 70.9536L88.9427 70.8438V70.9536Cnan nan nan nan 88.9427 70.9536H88.9428Z" fill="#292A2E"/>
<g opacity="0.65">
<path opacity="0.65" d="M88.9428 70.9536H0.0571289Cnan nan nan nan 0.0571289 70.9536L88.9427 70.8438V70.9536Cnan nan nan nan 88.9427 70.9536H88.9428Z" fill="#292A2E"/>
</g>
<path d="M5.52338 70.9999L5.36328 70.9703L7.86547 47.0464L8.02556 47.076L5.52338 70.9999Z" fill="#494949"/>
<path d="M14.8403 70.9999L14.6802 70.9703L17.1823 47.0464L17.3424 47.076L14.8403 70.9999Z" fill="#494949"/>
<path d="M35.4348 70.9999L35.5949 70.9703L33.0927 47.0464L32.9326 47.076L35.4348 70.9999Z" fill="#494949"/>
<path d="M26.1178 70.9999L26.2779 70.9703L23.7758 47.0464L23.6157 47.076L26.1178 70.9999Z" fill="#494949"/>
<path d="M22.7998 36.5173L22.6382 36.5381L24.0999 47.0717L24.2615 47.0509L22.7998 36.5173Z" fill="#494949"/>
<path d="M6.02195 36.5173L5.86035 36.5381L7.32207 47.0717L7.48367 47.0509L6.02195 36.5173Z" fill="#494949"/>
<path d="M24.2475 46.29H7.83686C7.39409 46.29 7.03516 46.6354 7.03516 47.0614V47.0615C7.03516 47.4875 7.39409 47.8329 7.83686 47.8329H24.2475C24.6902 47.8329 25.0492 47.4875 25.0492 47.0615V47.0614C25.0492 46.6354 24.6902 46.29 24.2475 46.29Z" fill="#292A2E"/>
<path opacity="0.8" d="M24.2475 46.29H7.83686C7.39409 46.29 7.03516 46.6354 7.03516 47.0614V47.0615C7.03516 47.4875 7.39409 47.8329 7.83686 47.8329H24.2475C24.6902 47.8329 25.0492 47.4875 25.0492 47.0615V47.0614C25.0492 46.6354 24.6902 46.29 24.2475 46.29Z" fill="white"/>
<path d="M24.2474 47.911H7.83683C7.72084 47.911 7.60599 47.8891 7.49884 47.8463C7.39168 47.8036 7.29431 47.741 7.2123 47.6621C7.13029 47.5832 7.06523 47.4895 7.02084 47.3864C6.97646 47.2833 6.95361 47.1728 6.95361 47.0612C6.95361 46.9496 6.97646 46.8391 7.02084 46.736C7.06523 46.6329 7.13029 46.5392 7.2123 46.4603C7.29431 46.3814 7.39168 46.3188 7.49884 46.2761C7.60599 46.2334 7.72084 46.2114 7.83683 46.2114H24.2474C24.4817 46.2114 24.7063 46.301 24.872 46.4603C25.0376 46.6197 25.1306 46.8358 25.1306 47.0612C25.1306 47.2866 25.0376 47.5028 24.872 47.6621C24.7063 47.8215 24.4817 47.911 24.2474 47.911ZM7.83683 46.3684C7.74225 46.3684 7.6486 46.3863 7.56123 46.4211C7.47385 46.4559 7.39446 46.507 7.32758 46.5713C7.2607 46.6357 7.20766 46.7121 7.17146 46.7961C7.13527 46.8802 7.11664 46.9703 7.11664 47.0613C7.11664 47.1523 7.13527 47.2424 7.17146 47.3265C7.20766 47.4106 7.2607 47.4869 7.32758 47.5513C7.39446 47.6156 7.47385 47.6667 7.56123 47.7015C7.6486 47.7363 7.74225 47.7542 7.83683 47.7542H24.2474C24.4384 47.7542 24.6216 47.6812 24.7567 47.5513C24.8917 47.4213 24.9676 47.2451 24.9676 47.0613C24.9676 46.8775 24.8917 46.7013 24.7567 46.5713C24.6216 46.4414 24.4384 46.3684 24.2474 46.3684H7.83683Z" fill="#292A2E"/>
<path d="M33.2543 46.29H16.8437C16.4009 46.29 16.042 46.6354 16.042 47.0614V47.0615C16.042 47.4875 16.4009 47.8329 16.8437 47.8329H33.2543C33.6971 47.8329 34.056 47.4875 34.056 47.0615V47.0614C34.056 46.6354 33.6971 46.29 33.2543 46.29Z" fill="white"/>
<path d="M33.2543 47.911H16.8437C16.7277 47.911 16.6128 47.8891 16.5057 47.8463C16.3985 47.8036 16.3012 47.741 16.2191 47.6621C16.1371 47.5832 16.0721 47.4895 16.0277 47.3864C15.9833 47.2833 15.9604 47.1728 15.9604 47.0612C15.9604 46.9496 15.9833 46.8391 16.0277 46.736C16.0721 46.6329 16.1371 46.5392 16.2191 46.4603C16.3012 46.3814 16.3985 46.3188 16.5057 46.2761C16.6128 46.2334 16.7277 46.2114 16.8437 46.2114H33.2543C33.3702 46.2114 33.4851 46.2334 33.5923 46.2761C33.6994 46.3188 33.7968 46.3814 33.8788 46.4603C33.9608 46.5392 34.0259 46.6329 34.0702 46.736C34.1146 46.8391 34.1375 46.9496 34.1375 47.0612C34.1375 47.1728 34.1146 47.2833 34.0702 47.3864C34.0259 47.4895 33.9608 47.5832 33.8788 47.6621C33.7968 47.741 33.6994 47.8036 33.5923 47.8463C33.4851 47.8891 33.3702 47.911 33.2543 47.911ZM16.8437 46.3684C16.7491 46.3684 16.6554 46.3863 16.5681 46.4211C16.4807 46.4559 16.4013 46.507 16.3344 46.5713C16.2675 46.6357 16.2145 46.7121 16.1783 46.7961C16.1421 46.8802 16.1235 46.9703 16.1235 47.0613C16.1235 47.1523 16.1421 47.2424 16.1783 47.3265C16.2145 47.4106 16.2675 47.4869 16.3344 47.5513C16.4013 47.6156 16.4807 47.6667 16.5681 47.7015C16.6554 47.7363 16.7491 47.7542 16.8437 47.7542H33.2543C33.3488 47.7542 33.4425 47.7363 33.5299 47.7015C33.6172 47.6667 33.6966 47.6156 33.7635 47.5513C33.8304 47.4869 33.8834 47.4106 33.9196 47.3265C33.9558 47.2424 33.9744 47.1523 33.9744 47.0613C33.9744 46.9703 33.9558 46.8802 33.9196 46.7961C33.8834 46.7121 33.8304 46.6357 33.7635 46.5713C33.6966 46.507 33.6172 46.4559 33.5299 46.4211C33.4425 46.3863 33.3488 46.3684 33.2543 46.3684H16.8437Z" fill="#292A2E"/>
<path d="M21.9007 36.5274H5.98512C5.7249 36.5274 5.47358 36.4363 5.27806 36.2711C5.08254 36.1058 4.95618 35.8778 4.92257 35.6295L3.86981 27.8506C3.85013 27.7052 3.86292 27.5574 3.90732 27.4172C3.95171 27.2769 4.02669 27.1473 4.12726 27.0372C4.22782 26.927 4.35165 26.8387 4.49048 26.7783C4.62932 26.7178 4.77996 26.6865 4.93235 26.6865H20.8479C21.1081 26.6865 21.3594 26.7776 21.555 26.9428C21.7505 27.108 21.8768 27.3361 21.9105 27.5843L22.9631 35.3631C22.9829 35.5085 22.9701 35.6563 22.9257 35.7966C22.8814 35.9369 22.8064 36.0665 22.7059 36.1767C22.6053 36.2869 22.4815 36.3752 22.3426 36.4357C22.2038 36.4961 22.0531 36.5274 21.9007 36.5274Z" fill="#292A2E"/>
<path opacity="0.8" d="M21.9007 36.5274H5.98512C5.7249 36.5274 5.47358 36.4363 5.27806 36.2711C5.08254 36.1058 4.95618 35.8778 4.92257 35.6295L3.86981 27.8506C3.85013 27.7052 3.86292 27.5574 3.90732 27.4172C3.95171 27.2769 4.02669 27.1473 4.12726 27.0372C4.22782 26.927 4.35165 26.8387 4.49048 26.7783C4.62932 26.7178 4.77996 26.6865 4.93235 26.6865H20.8479C21.1081 26.6865 21.3594 26.7776 21.555 26.9428C21.7505 27.108 21.8768 27.3361 21.9105 27.5843L22.9631 35.3631C22.9829 35.5085 22.9701 35.6563 22.9257 35.7966C22.8814 35.9369 22.8064 36.0665 22.7059 36.1767C22.6053 36.2869 22.4815 36.3752 22.3426 36.4357C22.2038 36.4961 22.0531 36.5274 21.9007 36.5274Z" fill="white"/>
<path d="M21.9006 36.606H5.98506C5.70521 36.6054 5.4351 36.5071 5.22483 36.3295C5.01456 36.1518 4.87841 35.9067 4.84165 35.6398L3.78897 27.8611C3.76777 27.7046 3.78151 27.5456 3.82927 27.3947C3.87703 27.2437 3.95771 27.1043 4.06592 26.9857C4.17413 26.8672 4.30739 26.7722 4.45679 26.7071C4.60619 26.642 4.7683 26.6084 4.9323 26.6084H20.8479C21.1277 26.609 21.3978 26.7073 21.6081 26.8849C21.8183 27.0626 21.9545 27.3077 21.9912 27.5746L23.0439 35.3534C23.0651 35.5098 23.0514 35.6688 23.0036 35.8198C22.9559 35.9707 22.8752 36.1101 22.767 36.2287C22.6587 36.3472 22.5255 36.4422 22.3761 36.5073C22.2267 36.5724 22.0646 36.606 21.9006 36.606ZM4.9323 26.7653C4.7915 26.7653 4.65232 26.7942 4.52405 26.85C4.39578 26.9059 4.28137 26.9875 4.18846 27.0892C4.09555 27.191 4.02628 27.3107 3.98526 27.4403C3.94425 27.5699 3.93243 27.7064 3.95061 27.8408L5.00338 35.6196C5.03491 35.8488 5.15179 36.0592 5.33233 36.2117C5.51286 36.3643 5.74479 36.4486 5.98506 36.4491H21.9006C22.0414 36.4491 22.1806 36.4202 22.3089 36.3644C22.4371 36.3085 22.5515 36.2269 22.6445 36.1252C22.7374 36.0234 22.8066 35.9037 22.8477 35.7741C22.8887 35.6445 22.9005 35.508 22.8823 35.3736L21.8299 27.5948C21.7984 27.3656 21.6815 27.1553 21.501 27.0027C21.3204 26.8502 21.0885 26.7658 20.8483 26.7653H4.9323Z" fill="#292A2E"/>
<path d="M22.8005 36.5274H6.88494C6.62473 36.5274 6.37342 36.4363 6.17791 36.2711C5.98241 36.1058 5.85607 35.8778 5.82248 35.6295L4.76971 27.8506C4.75004 27.7052 4.76282 27.5574 4.80722 27.4172C4.85161 27.2769 4.92659 27.1473 5.02716 27.0372C5.12772 26.927 5.25155 26.8387 5.39039 26.7783C5.52922 26.7178 5.67986 26.6865 5.83226 26.6865H21.7478C22.008 26.6865 22.2593 26.7776 22.4548 26.9428C22.6503 27.108 22.7767 27.3361 22.8103 27.5843L23.863 35.3631C23.8828 35.5085 23.87 35.6563 23.8256 35.7966C23.7812 35.9369 23.7063 36.0665 23.6057 36.1767C23.5051 36.2869 23.3813 36.3752 23.2424 36.4357C23.1036 36.4961 22.9529 36.5274 22.8005 36.5274Z" fill="white"/>
<path d="M22.8005 36.606H6.88494C6.6051 36.6054 6.335 36.5071 6.12474 36.3294C5.91448 36.1518 5.77835 35.9067 5.74161 35.6398L4.68885 27.8611C4.66768 27.7046 4.68144 27.5456 4.72921 27.3947C4.77699 27.2437 4.85768 27.1043 4.96589 26.9858C5.07411 26.8672 5.20736 26.7722 5.35676 26.7071C5.50616 26.6421 5.66826 26.6084 5.83226 26.6084H21.7477C22.0276 26.609 22.2977 26.7073 22.508 26.8849C22.7182 27.0626 22.8544 27.3077 22.8911 27.5746L23.9439 35.3534C23.9651 35.5098 23.9513 35.6688 23.9035 35.8198C23.8557 35.9707 23.775 36.1101 23.6668 36.2287C23.5586 36.3472 23.4254 36.4422 23.276 36.5073C23.1266 36.5723 22.9645 36.606 22.8005 36.606ZM5.83226 26.7653C5.69143 26.7652 5.55223 26.7941 5.42393 26.85C5.29563 26.9059 5.18119 26.9874 5.08826 27.0892C4.99532 27.191 4.92603 27.3107 4.885 27.4403C4.84397 27.57 4.83215 27.7065 4.85033 27.8409L5.90301 35.6196C5.93459 35.8488 6.05151 36.0592 6.23209 36.2118C6.41267 36.3643 6.64463 36.4487 6.88494 36.4491H22.8005C22.9413 36.4491 23.0805 36.4202 23.2087 36.3644C23.337 36.3085 23.4514 36.2269 23.5443 36.1252C23.6372 36.0234 23.7065 35.9037 23.7475 35.7741C23.7885 35.6445 23.8004 35.508 23.7822 35.3736L22.7294 27.5948C22.6979 27.3656 22.581 27.1552 22.4005 27.0027C22.2199 26.8501 21.988 26.7658 21.7477 26.7653H5.83226Z" fill="#292A2E"/>
<path d="M21.0463 14.6855C21.0463 14.6855 22.1039 13.9174 22.366 12.1495C22.5689 10.7805 21.2565 11.6674 21.2565 11.6674C21.2565 11.6674 21.3926 10.6804 20.6452 10.7783C19.8977 10.8763 19.4795 11.9131 19.4795 11.9131" fill="#0C0C0C"/>
<path d="M16.782 10.894C16.782 10.894 13.0736 11.2766 14.4142 16.1117L14.7423 16.1328L15.4084 16.1758" fill="#0C0C0C"/>
<path d="M20.4253 21.161C20.409 21.159 20.2281 24.0473 16.7404 23.7957C14.3259 23.6217 13.4649 21.1569 13.4097 21.1569C13.6699 21.1037 13.9917 21.0229 14.1195 20.9951C14.3982 20.9329 14.6505 20.7905 14.843 20.5869C15.0355 20.3833 15.159 20.1281 15.1971 19.8554C15.2677 19.4459 15.1482 17.3512 15.1848 16.937L18.8911 17.7336C18.8392 18.6085 18.4768 20.6368 19.747 20.9957C19.9586 21.0547 20.1863 21.1094 20.4253 21.161Z" fill="#E98862"/>
<path opacity="0.52" d="M18.9428 20.1661C18.8847 19.9861 18.8474 19.8005 18.8314 19.6126C18.7907 19.184 18.7989 18.7523 18.8558 18.3254C18.1025 18.2275 17.3929 17.9284 16.8074 17.4619C16.7385 17.7065 16.3601 18.7749 16.4651 19.0074C16.6627 19.4467 17.5936 20.1661 18.9428 20.1661Z" fill="#0C0C0C"/>
<path d="M18.178 19.5946C16.7159 19.4685 14.9659 18.5795 14.9406 16.6699L14.9174 14.9468C14.8922 13.0371 15.9142 11.4762 17.7829 11.4534C19.6517 11.4305 21.069 12.9615 21.0942 14.8712L21.1043 15.6341C21.103 15.896 21.0832 16.1576 21.0449 16.417C20.9491 17.1032 20.8004 18.1466 20.3163 18.8525C19.8595 19.5188 19.112 19.6752 18.178 19.5946Z" fill="#E98862"/>
<path d="M18.8564 17.849C19.1581 17.8622 19.4589 17.8069 19.7344 17.6877C19.7401 17.6854 19.7452 17.682 19.7495 17.6777C19.7539 17.6734 19.7573 17.6684 19.7596 17.6629C19.7619 17.6574 19.7631 17.6514 19.763 17.6455C19.7629 17.6395 19.7617 17.6336 19.7592 17.6282C19.7568 17.6227 19.7533 17.6177 19.7488 17.6136C19.7444 17.6094 19.7392 17.6061 19.7334 17.6039C19.7277 17.6017 19.7215 17.6005 19.7154 17.6006C19.7092 17.6007 19.703 17.6019 19.6974 17.6042C19.1038 17.8474 18.5649 17.8121 18.1389 17.5012C18.1304 17.4946 18.1214 17.4885 18.1122 17.4828C18.1015 17.478 18.0893 17.4772 18.078 17.4806C18.0667 17.484 18.0571 17.4914 18.0512 17.5013C18.0453 17.5111 18.0435 17.5228 18.0461 17.5339C18.0487 17.545 18.0555 17.5548 18.0653 17.5613C18.0687 17.5634 18.0742 17.5675 18.0816 17.5732C18.3055 17.7373 18.5753 17.8334 18.8564 17.849Z" fill="#0C0C0C"/>
<path d="M18.8425 18.2794C18.897 18.2826 18.9517 18.2813 19.006 18.2756C19.0182 18.274 19.0293 18.2679 19.0369 18.2586C19.0444 18.2493 19.048 18.2375 19.0467 18.2258C19.0453 18.214 19.0393 18.2032 19.0299 18.1956C19.0204 18.1881 19.0083 18.1844 18.996 18.1853C18.6695 18.2187 18.5135 18.0747 18.5069 18.0686C18.498 18.0605 18.4861 18.056 18.4739 18.0562C18.4616 18.0563 18.4498 18.0611 18.4411 18.0694C18.4324 18.0777 18.4274 18.089 18.4273 18.1008C18.4271 18.1127 18.4317 18.1241 18.4401 18.1327C18.5526 18.2248 18.6948 18.2766 18.8425 18.2794Z" fill="#0C0C0C"/>
<path d="M20.4773 16.0011C20.6044 16.0011 20.7075 15.9019 20.7075 15.7796C20.7075 15.6573 20.6044 15.5581 20.4773 15.5581C20.3501 15.5581 20.2471 15.6573 20.2471 15.7796C20.2471 15.9019 20.3501 16.0011 20.4773 16.0011Z" fill="#0C0C0C"/>
<path d="M18.2287 15.8653C18.3559 15.8653 18.4589 15.7662 18.4589 15.6439C18.4589 15.5215 18.3559 15.4224 18.2287 15.4224C18.1016 15.4224 17.9985 15.5215 17.9985 15.6439C17.9985 15.7662 18.1016 15.8653 18.2287 15.8653Z" fill="#0C0C0C"/>
<path d="M15.0645 17.2502C14.4966 17.2572 14.0285 16.6782 14.0211 16.1319C14.0137 15.5855 14.4703 15.2785 15.0382 15.2715L15.3357 15.6341L15.5526 17.2443L15.0645 17.2502Z" fill="#E98862"/>
<path d="M15.6296 16.372C15.6296 16.372 15.8213 13.6698 16.673 13.503C17.2402 13.3918 18.6156 14.1659 19.8896 13.9321C20.4469 13.8302 20.976 13.9626 21.0298 14.2159C21.0511 14.3162 21.3983 12.8747 20.5255 11.781C19.8306 10.9104 17.5566 10.6642 16.522 10.9496C13.6572 11.7403 14.9214 15.3902 14.9214 15.3902L15.0491 16.3218L15.6296 16.372Z" fill="#0C0C0C"/>
<path d="M19.2001 17.211H19.2037C19.3867 17.2092 19.6935 17.1866 19.6923 17.0548C19.6911 16.9458 19.3682 15.7705 19.3314 15.6369C19.3282 15.6254 19.3204 15.6156 19.3097 15.6096C19.299 15.6036 19.2863 15.602 19.2743 15.605C19.2624 15.6081 19.2522 15.6156 19.246 15.6258C19.2397 15.6361 19.238 15.6484 19.2412 15.6599C19.3847 16.1803 19.5982 16.9816 19.5991 17.0559C19.5814 17.0873 19.3923 17.1196 19.2029 17.1214C19.1908 17.1214 19.1791 17.126 19.1704 17.1341C19.1617 17.1422 19.1566 17.1533 19.1563 17.165C19.1559 17.1766 19.1603 17.188 19.1685 17.1966C19.1767 17.2052 19.188 17.2104 19.2001 17.2111V17.211Z" fill="#0C0C0C"/>
<path d="M19.8245 14.5787C20.0168 14.5278 20.2199 14.5278 20.4122 14.5787C20.5067 14.6032 20.5968 14.6411 20.6796 14.6913C20.7614 14.7405 20.8364 14.7994 20.9029 14.8667C20.9151 14.8787 20.9221 14.8947 20.9224 14.9115C20.9226 14.9284 20.9161 14.9446 20.9042 14.9569C20.8924 14.9693 20.876 14.9767 20.8585 14.9777C20.8411 14.9787 20.8239 14.9732 20.8106 14.9624L20.8065 14.9589C20.745 14.9041 20.6765 14.857 20.6027 14.8186C20.5303 14.7805 20.4524 14.7531 20.3715 14.7374C20.2122 14.7053 20.047 14.7142 19.8924 14.7632L19.886 14.7653C19.8733 14.7696 19.86 14.7715 19.8466 14.7708C19.8332 14.7701 19.8201 14.7669 19.808 14.7614C19.7959 14.7558 19.7851 14.748 19.7762 14.7385C19.7672 14.7289 19.7603 14.7177 19.7558 14.7055C19.7514 14.6934 19.7494 14.6805 19.7501 14.6677C19.7509 14.6548 19.7542 14.6422 19.76 14.6306C19.7657 14.6189 19.7738 14.6085 19.7838 14.5999C19.7937 14.5913 19.8054 14.5846 19.818 14.5803C19.8202 14.5799 19.8225 14.5792 19.8245 14.5787Z" fill="#0C0C0C"/>
<path d="M18.4624 14.6903C18.3161 14.6219 18.1535 14.5919 17.9912 14.6034C17.9089 14.6085 17.8278 14.6257 17.7508 14.6542C17.6725 14.6828 17.5982 14.7208 17.5297 14.7672L17.5253 14.77C17.5106 14.7795 17.4926 14.7832 17.4751 14.7801C17.4577 14.7771 17.4421 14.7675 17.4319 14.7536C17.4216 14.7397 17.4175 14.7224 17.4203 14.7056C17.4231 14.6887 17.4327 14.6736 17.4469 14.6634C17.5221 14.6053 17.6046 14.5565 17.6925 14.5182C17.7815 14.4791 17.8761 14.453 17.9731 14.4409C18.1708 14.415 18.372 14.441 18.5556 14.516C18.5805 14.5264 18.6 14.5459 18.61 14.5701C18.6199 14.5944 18.6194 14.6215 18.6086 14.6454C18.5978 14.6693 18.5776 14.6881 18.5523 14.6977C18.5271 14.7073 18.499 14.7068 18.4741 14.6964C18.4721 14.6956 18.4703 14.6947 18.4684 14.6938L18.4624 14.6903Z" fill="#0C0C0C"/>
<path d="M19.5505 12.7186C19.9709 12.6341 20.2069 12.083 20.0776 11.4877C19.9484 10.8924 19.5028 10.4783 19.0824 10.5628C18.6621 10.6473 18.4261 11.1984 18.5553 11.7937C18.6846 12.389 19.1302 12.8031 19.5505 12.7186Z" fill="#0C0C0C"/>
<path d="M42.995 66.8555C42.995 66.8555 43.4321 69.0354 45.5534 69.1569C47.6746 69.2783 47.2146 70.9042 47.2146 70.9042H39.1084V67.0075L42.995 66.8555Z" fill="#367CFF"/>
<path d="M27.5735 65.4794C27.5735 65.4794 26.9653 67.621 28.8132 68.631C30.6612 69.6409 29.5023 70.9045 29.5023 70.9045L22.2285 67.4614L24.0162 63.9648L27.5735 65.4794Z" fill="#367CFF"/>
<path d="M23.0687 64.8745L29.2026 46.2558H18.0839C15.8504 46.2558 14.9194 44.4334 14.9194 42.2846C14.9194 40.1357 17.115 38.252 19.3484 38.252H34.3545C35.7167 38.252 37.2441 39.0535 37.9918 40.1492C38.7394 41.2449 38.5373 42.9428 37.9957 44.1453L28.1731 67.0995" fill="#262626"/>
<path opacity="0.8" d="M23.0687 64.8745L29.2026 46.2558H18.0839C15.8504 46.2558 14.9194 44.4334 14.9194 42.2846C14.9194 40.1357 17.115 38.252 19.3484 38.252H34.3545C35.7167 38.252 37.2441 39.0535 37.9918 40.1492C38.7394 41.2449 38.5373 42.9428 37.9957 44.1453L28.1731 67.0995" fill="#0A0A0A"/>
<path d="M38.6423 68.8801L28.3862 46.2557L14.9192 46.2548C11.7635 46.0169 10.3184 44.3529 10.3643 42.2045C10.4097 40.0833 11.5259 37.9883 13.7206 37.9883H31.8714C33.4952 38.0204 34.7727 39.7469 35.3751 41.198L43.9016 67.495" fill="#262626"/>
<path d="M9.44589 38.0142C9.44589 38.0142 8.84782 41.7669 9.79584 43.8532C10.9794 46.4579 15.416 46.2549 15.416 46.2549L15.166 37.9883L9.44589 38.0142Z" fill="#262626"/>
<path d="M35.7609 37.9407L26.2481 36.044C25.8517 35.9649 25.4825 35.791 25.1745 35.5382C24.8665 35.2855 24.6297 34.9621 24.486 34.5979L20.7445 25.1114C20.6323 24.827 20.5795 24.5242 20.589 24.2202C20.5985 23.9162 20.6701 23.6169 20.7998 23.3396C20.9294 23.0622 21.1146 22.8121 21.3447 22.6036C21.5749 22.3951 21.8454 22.2322 22.141 22.1243C22.4365 22.0164 22.7512 21.9656 23.0672 21.9747C23.3832 21.9838 23.6942 22.0527 23.9825 22.1775C24.2707 22.3022 24.5307 22.4804 24.7474 22.7018C24.9641 22.9233 25.1333 23.1836 25.2455 23.4679L28.5185 31.7659L36.738 33.4047C36.738 33.4047 35.926 37.9734 35.7609 37.9407Z" fill="#367CFF"/>
<path d="M24.7583 27.5204C24.6484 28.7621 23.8698 36.5094 23.7638 38.0389H9.45192C9.36967 36.6594 9.10271 30.8024 8.79091 28.1047C8.49322 25.5305 8.3853 24.0615 8.72815 23.2615C9.33283 21.8506 10.846 21.343 12.1493 21.1732C12.9452 21.0695 14.1423 20.9951 14.1423 20.9951C14.1423 20.9951 14.2436 22.9679 16.6604 23.0777C19.9503 23.2267 19.7306 20.9951 19.7469 20.9951C20.2799 20.9951 23.181 21.3681 23.9064 21.823C24.931 22.4655 25.2338 23.3412 25.2458 24.1457C25.2595 25.072 24.8831 26.112 24.7583 27.5204Z" fill="#367CFF"/>
<path d="M24.1956 33.8508C24.1945 33.8509 24.1933 33.8509 24.1922 33.8508C24.1814 33.8499 24.1714 33.845 24.1645 33.8371C24.1575 33.8291 24.154 33.8189 24.1549 33.8085L24.5265 29.514C24.5268 29.5088 24.5282 29.5038 24.5306 29.4991C24.533 29.4945 24.5364 29.4904 24.5405 29.487C24.5446 29.4837 24.5494 29.4812 24.5545 29.4797C24.5597 29.4782 24.5651 29.4777 24.5705 29.4783C24.5812 29.4791 24.5912 29.4841 24.5981 29.492C24.6051 29.4999 24.6085 29.5102 24.6077 29.5205L24.2362 33.815C24.2353 33.8248 24.2306 33.8339 24.2231 33.8405C24.2156 33.8471 24.2058 33.8508 24.1956 33.8508Z" fill="#0C0C0C"/>
<path d="M31.0126 36.4281L34.153 27.1401C34.2082 26.9769 34.3156 26.8347 34.46 26.7338C34.6043 26.6329 34.7781 26.5786 34.9565 26.5786H47.7504C47.8838 26.5786 48.0152 26.609 48.1341 26.6673C48.2529 26.7255 48.3557 26.81 48.434 26.9139C48.5124 27.0177 48.5641 27.1379 48.585 27.2646C48.6058 27.3914 48.5952 27.5211 48.5539 27.6431L45.4135 36.9311C45.3584 37.0943 45.2509 37.2366 45.1066 37.3374C44.9622 37.4383 44.7884 37.4926 44.6101 37.4926H31.8159C31.6825 37.4926 31.5511 37.4621 31.4323 37.4039C31.3135 37.3456 31.2108 37.2611 31.1324 37.1573C31.0541 37.0534 31.0024 36.9333 30.9816 36.8065C30.9607 36.6798 30.9714 36.5501 31.0126 36.4281Z" fill="#292A2E"/>
<path d="M31.0126 36.4281L34.153 27.1401C34.2082 26.9769 34.3156 26.8347 34.46 26.7338C34.6043 26.6329 34.7781 26.5786 34.9565 26.5786H47.7504C47.8838 26.5786 48.0152 26.609 48.1341 26.6673C48.2529 26.7255 48.3557 26.81 48.434 26.9139C48.5124 27.0177 48.5641 27.1379 48.585 27.2646C48.6058 27.3914 48.5952 27.5211 48.5539 27.6431L45.4135 36.9311C45.3584 37.0943 45.2509 37.2366 45.1066 37.3374C44.9622 37.4383 44.7884 37.4926 44.6101 37.4926H31.8159C31.6825 37.4926 31.5511 37.4621 31.4323 37.4039C31.3135 37.3456 31.2108 37.2611 31.1324 37.1573C31.0541 37.0534 31.0024 36.9333 30.9816 36.8065C30.9607 36.6798 30.9714 36.5501 31.0126 36.4281Z" fill="#292A2E"/>
<path d="M33.5742 36.7397H25.0099C24.7965 36.7397 24.6235 36.9062 24.6235 37.1115V37.1211C24.6235 37.3264 24.7965 37.4928 25.0099 37.4928H33.5742C33.7876 37.4928 33.9606 37.3264 33.9606 37.1211V37.1115C33.9606 36.9062 33.7876 36.7397 33.5742 36.7397Z" fill="#292A2E"/>
<path d="M33.5742 36.7397H25.0099C24.7965 36.7397 24.6235 36.9062 24.6235 37.1115V37.1211C24.6235 37.3264 24.7965 37.4928 25.0099 37.4928H33.5742C33.7876 37.4928 33.9606 37.3264 33.9606 37.1211V37.1115C33.9606 36.9062 33.7876 36.7397 33.5742 36.7397Z" fill="#292A2E"/>
<path d="M39.7832 33.7799C40.5243 33.7799 41.125 33.2018 41.125 32.4888C41.125 31.7758 40.5243 31.1978 39.7832 31.1978C39.0422 31.1978 38.4414 31.7758 38.4414 32.4888C38.4414 33.2018 39.0422 33.7799 39.7832 33.7799Z" fill="white"/>
<path d="M30.2966 34.2523L28.1592 33.5315L28.4661 33.5111C28.565 33.5026 28.6568 33.4583 28.7231 33.3871C28.7894 33.316 28.8251 33.2233 28.823 33.1278C28.8202 33.0785 28.8069 33.0303 28.7841 32.9861C28.7613 32.942 28.7293 32.9027 28.6902 32.8708C28.6511 32.8389 28.6056 32.815 28.5566 32.8006C28.5076 32.7861 28.456 32.7815 28.405 32.7868L24.6235 33.1734L24.7214 34.3427C24.7519 34.7058 24.8944 35.0519 25.1307 35.3366C25.367 35.6214 25.6863 35.8317 26.0476 35.9407L27.6852 36.4315C27.7697 36.4586 27.8614 36.4567 27.9448 36.4262C28.0281 36.3957 28.0979 36.3384 28.1424 36.2641C28.1811 36.1962 28.1962 36.1182 28.1855 36.0414C28.1749 35.9647 28.139 35.8932 28.0831 35.8375C28.0867 35.835 28.0898 35.8318 28.0921 35.8282C28.0944 35.8245 28.0959 35.8205 28.0965 35.8162C28.0971 35.812 28.0968 35.8077 28.0956 35.8036C28.0944 35.7995 28.0924 35.7956 28.0896 35.7923L28.3912 35.8833C28.4854 35.9138 28.588 35.9086 28.6784 35.869C28.7688 35.8294 28.8402 35.7583 28.8781 35.67C28.9091 35.5899 28.9098 35.5019 28.88 35.4214C28.8501 35.3408 28.7918 35.273 28.7151 35.2299C28.7186 35.228 28.7218 35.2256 28.7244 35.2226L28.8485 35.2601C28.933 35.2872 29.0247 35.2853 29.1081 35.2548C29.1914 35.2243 29.2612 35.1671 29.3057 35.0928C29.3526 35.0103 29.3646 34.9136 29.339 34.8229C29.3135 34.7321 29.2524 34.6545 29.1686 34.6061C29.1693 34.6037 29.1697 34.6012 29.1699 34.5987L30.0599 34.899C30.1491 34.929 30.2469 34.9238 30.332 34.8844C30.4172 34.845 30.4825 34.7747 30.5138 34.689C30.545 34.6032 30.5396 34.509 30.4986 34.4271C30.4577 34.3453 30.3846 34.2824 30.2955 34.2523H30.2966Z" fill="#E98862"/>
<path opacity="0.2" d="M29.1362 34.6323C29.132 34.6323 29.1279 34.6316 29.124 34.6302L28.263 34.3294C28.2542 34.3262 28.247 34.3199 28.243 34.3116C28.2391 34.3034 28.2387 34.294 28.2419 34.2856C28.2452 34.2771 28.2518 34.2701 28.2603 34.2663C28.2689 34.2625 28.2786 34.2622 28.2874 34.2653L29.1484 34.5664C29.1562 34.5692 29.1628 34.5745 29.167 34.5814C29.1712 34.5884 29.1727 34.5965 29.1713 34.6044C29.1698 34.6123 29.1655 34.6195 29.1591 34.6246C29.1528 34.6298 29.1447 34.6326 29.1363 34.6326L29.1362 34.6323Z" fill="#0A0A0A"/>
<path opacity="0.2" d="M28.7004 35.2345C28.6964 35.2345 28.6924 35.2338 28.6886 35.2325L28.0099 35.0008C28.0055 34.9994 28.0015 34.997 27.998 34.994C27.9946 34.991 27.9918 34.9874 27.9898 34.9834C27.9878 34.9793 27.9866 34.9749 27.9864 34.9705C27.9861 34.966 27.9868 34.9615 27.9884 34.9573C27.9899 34.9531 27.9923 34.9492 27.9955 34.9458C27.9986 34.9425 28.0023 34.9398 28.0065 34.9379C28.0108 34.936 28.0153 34.9348 28.02 34.9346C28.0246 34.9344 28.0293 34.935 28.0337 34.9365L28.7123 35.1682C28.7202 35.1709 28.7269 35.1762 28.7311 35.1831C28.7353 35.1901 28.7369 35.1983 28.7354 35.2062C28.734 35.2141 28.7297 35.2213 28.7233 35.2265C28.7169 35.2317 28.7088 35.2345 28.7004 35.2345Z" fill="#0A0A0A"/>
<path opacity="0.2" d="M28.0614 35.8456C28.0571 35.8456 28.0528 35.8448 28.0487 35.8433L27.7308 35.7267C27.7263 35.7252 27.7221 35.7229 27.7185 35.7198C27.7149 35.7168 27.712 35.713 27.71 35.7089C27.7079 35.7047 27.7068 35.7002 27.7066 35.6956C27.7064 35.691 27.7072 35.6864 27.7089 35.6821C27.7106 35.6778 27.7132 35.6739 27.7165 35.6706C27.7198 35.6673 27.7238 35.6646 27.7282 35.6628C27.7326 35.661 27.7374 35.6601 27.7422 35.6602C27.747 35.6602 27.7517 35.6611 27.7561 35.663L28.074 35.7796C28.0817 35.7824 28.0882 35.7878 28.0922 35.7948C28.0962 35.8017 28.0976 35.8098 28.0961 35.8176C28.0946 35.8254 28.0903 35.8325 28.084 35.8376C28.0776 35.8427 28.0696 35.8455 28.0614 35.8456H28.0614Z" fill="#0A0A0A"/>
<path d="M26.2969 32.4817L17.3303 32.4759L13.9382 24.5142L8.87793 26.5612L13.1103 36.0105L13.1517 36.1046C13.3587 36.5639 13.7075 36.9509 14.1508 37.2131C14.594 37.4753 15.1103 37.6002 15.6297 37.5706L26.4327 36.9565L26.2969 32.4817Z" fill="#367CFF"/>
<path d="M15.4808 37.6139C14.9781 37.6131 14.4866 37.4713 14.0663 37.2061C13.6459 36.9408 13.3151 36.5634 13.114 36.1201L13.0725 36.026L9.46631 27.9744L9.54114 27.9434L13.1889 36.0892C13.3936 36.5404 13.737 36.9205 14.1729 37.1783C14.6088 37.4361 15.1163 37.5593 15.6271 37.5314L26.3906 36.9196L26.2573 32.521L17.3029 32.5153L14.6944 26.3935L14.7698 26.3638L17.3574 32.4368L26.3362 32.4426L26.4742 36.9935L26.4347 36.9957L15.6318 37.6098C15.5813 37.6126 15.531 37.6139 15.4808 37.6139Z" fill="#0C0C0C"/>
<path d="M69.3692 38.244L69.207 38.2598L72.6435 70.9929L72.8057 70.9771L69.3692 38.244Z" fill="#494949"/>
<path d="M5.50767 38.2442L2.06885 70.9771L2.23105 70.9928L5.66988 38.2599L5.50767 38.2442Z" fill="#494949"/>
<path d="M19.7157 38.2442L16.2769 70.9771L16.4391 70.9928L19.8779 38.2599L19.7157 38.2442Z" fill="#494949"/>
<path d="M83.5772 38.2435L83.415 38.2593L86.8515 70.9924L87.0137 70.9767L83.5772 38.2435Z" fill="#494949"/>
<path d="M86.6759 37.6094H2.63375C2.26486 37.6094 1.96582 37.8971 1.96582 38.252C1.96582 38.6069 2.26486 38.8946 2.63375 38.8946H86.6759C87.0448 38.8946 87.3439 38.6069 87.3439 38.252C87.3439 37.8971 87.0448 37.6094 86.6759 37.6094Z" fill="#292A2E"/>
<path opacity="0.8" d="M86.6759 37.6094H2.63375C2.26486 37.6094 1.96582 37.8971 1.96582 38.252C1.96582 38.6069 2.26486 38.8946 2.63375 38.8946H86.6759C87.0448 38.8946 87.3439 38.6069 87.3439 38.252C87.3439 37.8971 87.0448 37.6094 86.6759 37.6094Z" fill="white"/>
<path d="M86.6761 38.9729H2.63422C2.53515 38.9739 2.43685 38.956 2.34502 38.9202C2.2532 38.8844 2.16965 38.8315 2.09923 38.7644C2.02881 38.6973 1.97291 38.6175 1.93475 38.5295C1.8966 38.4416 1.87695 38.3472 1.87695 38.2519C1.87695 38.1565 1.8966 38.0621 1.93475 37.9742C1.97291 37.8862 2.02881 37.8064 2.09923 37.7393C2.16965 37.6723 2.2532 37.6193 2.34502 37.5835C2.43685 37.5477 2.53515 37.5298 2.63422 37.5308H86.6761C86.8736 37.5328 87.0622 37.6096 87.201 37.7446C87.3399 37.8796 87.4178 38.0619 87.4178 38.2519C87.4178 38.4418 87.3399 38.6241 87.201 38.7591C87.0622 38.8941 86.8736 38.9709 86.6761 38.9729ZM2.63422 37.6877C2.55663 37.6868 2.47964 37.7007 2.40769 37.7287C2.33575 37.7566 2.27028 37.7981 2.21509 37.8505C2.15991 37.903 2.11609 37.9655 2.08619 38.0344C2.05628 38.1033 2.04089 38.1772 2.04089 38.2519C2.04089 38.3265 2.05628 38.4004 2.08619 38.4693C2.11609 38.5382 2.15991 38.6007 2.21509 38.6532C2.27028 38.7056 2.33575 38.7471 2.40769 38.775C2.47964 38.803 2.55663 38.8169 2.63422 38.816H86.6761C86.8305 38.8143 86.9778 38.7541 87.0863 38.6485C87.1948 38.5428 87.2557 38.4003 87.2557 38.2519C87.2557 38.1034 87.1948 37.9609 87.0863 37.8552C86.9778 37.7496 86.8305 37.6894 86.6761 37.6877H2.63422Z" fill="#292A2E"/>
<path d="M86.6759 37.6094H17.3847C17.0158 37.6094 16.7168 37.8971 16.7168 38.252C16.7168 38.6069 17.0158 38.8946 17.3847 38.8946H86.6759C87.0448 38.8946 87.3438 38.6069 87.3438 38.252C87.3438 37.8971 87.0448 37.6094 86.6759 37.6094Z" fill="white"/>
<path d="M86.676 38.9729H17.3847C17.1873 38.9709 16.9987 38.894 16.8598 38.759C16.721 38.624 16.6431 38.4418 16.6431 38.2518C16.6431 38.0619 16.721 37.8796 16.8598 37.7446C16.9987 37.6096 17.1873 37.5327 17.3847 37.5308H86.676C86.8734 37.5327 87.062 37.6096 87.2009 37.7446C87.3398 37.8796 87.4176 38.0619 87.4176 38.2518C87.4176 38.4418 87.3398 38.624 87.2009 38.759C87.062 38.894 86.8734 38.9709 86.676 38.9729ZM17.3847 37.6876C17.2304 37.6894 17.083 37.7496 16.9745 37.8552C16.866 37.9608 16.8052 38.1033 16.8052 38.2518C16.8052 38.4003 16.866 38.5428 16.9745 38.6484C17.083 38.754 17.2304 38.8143 17.3847 38.816H86.676C86.8303 38.8143 86.9777 38.754 87.0862 38.6484C87.1947 38.5428 87.2555 38.4003 87.2555 38.2518C87.2555 38.1033 87.1947 37.9608 87.0862 37.8552C86.9777 37.7496 86.8303 37.6894 86.676 37.6876H17.3847Z" fill="#292A2E"/>
</g>
<defs>
<clipPath id="clip0_33_52940">
<rect width="89" height="71" fill="white"/>
</clipPath>
</defs>
</svg>
