<svg width="30" height="30" viewBox="0 0 30 30" fill="none" xmlns="http://www.w3.org/2000/svg">
<path d="M18.2375 10L15 13.2375L11.7625 10L10 11.7625L13.2375 15L10 18.2375L11.7625 20L15 16.7625L18.2375 20L20 18.2375L16.7625 15L20 11.7625L18.2375 10ZM15 2.5C8.0875 2.5 2.5 8.0875 2.5 15C2.5 21.9125 8.0875 27.5 15 27.5C21.9125 27.5 27.5 21.9125 27.5 15C27.5 8.0875 21.9125 2.5 15 2.5ZM15 25C9.4875 25 5 20.5125 5 15C5 9.4875 9.4875 5 15 5C20.5125 5 25 9.4875 25 15C25 20.5125 20.5125 25 15 25Z" fill="#AA3737"/>
</svg>
