<svg width="240" height="152" viewBox="0 0 240 152" fill="none" xmlns="http://www.w3.org/2000/svg">
<path d="M19.517 152C12.6746 152.006 6.56178 148.027 4.24148 142.054C-0.734183 129.195 -5.11704 105.375 14.3634 79.611C35.9034 51.123 78.9958 21.6724 109.306 18.6555C156.789 13.9323 170.061 65.291 191.367 77.2428C209.775 87.569 236.433 103.054 239.917 135.415C240.815 143.7 234.302 151.09 225.373 151.923C224.836 151.974 224.296 151.999 223.756 151.999L19.517 152Z" fill="#F3F5FD"/>
<path d="M152.417 48.6253C152.417 48.6253 151.603 46.3297 149.973 45.4139C148.343 44.498 148.347 45.5293 149.071 46.5631C149.795 47.597 151.503 49.7722 151.503 49.7722" fill="#E98862"/>
<path d="M151.459 47.6672C151.459 47.6672 148.606 44.4663 146.937 44.4663C146.937 44.4663 144.248 45.5682 144.286 46.2801C144.343 47.3529 148.89 51.3561 148.89 51.3561L151.459 47.6672Z" fill="#E98862"/>
<path d="M171.797 148.544C171.118 143.65 171.118 143.147 171.118 142.981H177.561C177.561 142.964 177.561 142.943 177.561 142.917C177.584 143.325 177.909 145.817 178.197 147.892L171.797 148.544Z" fill="#E98862"/>
<path d="M197.472 149.204C197.472 149.204 197.45 143.487 197.45 142.98H203.894C203.894 143.485 203.915 149.186 203.915 149.186L197.472 149.204Z" fill="#E98862"/>
<path d="M180.771 146.801L169.418 146.635C169.89 136.393 169.971 124.678 170.097 114.078C170.133 111.45 170.364 108.828 170.791 106.225C172.617 94.995 173.809 83.8292 176.267 72.6628L176.349 72.6836L176.589 71.2825L199.932 70.0483L201.148 83.1128C201.148 83.1128 204.188 128.312 205.575 146.486L194.262 147.305C192.225 129.488 189.071 103.524 187.131 84.8052C184.903 93.9188 183.388 103.355 181.45 112.391C181.063 123.701 180.735 135.524 180.771 146.801Z" fill="#262626"/>
<path d="M189.64 151.339C189.466 151.339 189.295 151.307 189.136 151.247C188.978 151.187 188.836 151.1 188.718 150.991C188.601 150.882 188.511 150.753 188.454 150.613C188.397 150.472 188.375 150.324 188.389 150.176C188.407 149.971 188.494 149.774 188.639 149.61C188.783 149.446 188.979 149.32 189.204 149.248L196.704 147.096C196.85 147.055 197.004 147.041 197.156 147.055C197.308 147.07 197.454 147.112 197.586 147.18C198.617 147.793 199.85 148.106 201.104 148.074C202.081 148.014 203.019 147.721 203.811 147.227C203.88 147.178 203.965 147.147 204.054 147.137C204.143 147.128 204.234 147.14 204.315 147.174C204.397 147.207 204.465 147.259 204.513 147.324C204.561 147.389 204.586 147.465 204.586 147.542V150.684C204.586 150.776 204.565 150.868 204.523 150.954C204.482 151.039 204.421 151.117 204.344 151.182C204.268 151.248 204.177 151.3 204.077 151.335C203.977 151.37 203.87 151.388 203.761 151.388L189.64 151.339Z" fill="#C1D8ED"/>
<path d="M163.947 151.339C163.774 151.339 163.602 151.307 163.444 151.247C163.285 151.187 163.143 151.1 163.026 150.991C162.908 150.882 162.818 150.753 162.762 150.613C162.705 150.472 162.683 150.324 162.696 150.176C162.715 149.971 162.801 149.774 162.946 149.61C163.09 149.446 163.287 149.32 163.512 149.248L171.012 147.096C171.157 147.055 171.311 147.041 171.463 147.055C171.615 147.07 171.762 147.112 171.893 147.18C172.924 147.793 174.157 148.106 175.412 148.074C176.389 148.014 177.327 147.721 178.118 147.227C178.188 147.178 178.272 147.147 178.362 147.137C178.451 147.128 178.542 147.14 178.623 147.174C178.704 147.207 178.773 147.259 178.821 147.324C178.869 147.389 178.894 147.465 178.894 147.542V150.684C178.894 150.776 178.872 150.868 178.831 150.954C178.789 151.039 178.729 151.117 178.652 151.183C178.575 151.248 178.484 151.3 178.384 151.335C178.284 151.37 178.177 151.388 178.069 151.388L163.947 151.339Z" fill="#C1D8ED"/>
<path d="M168.2 64.2083C167.468 64.2084 166.758 63.9952 166.187 63.6037L147.937 51.0939L151.963 46.7829L167.314 57.3054L176.519 43.957L182.067 46.7655L170.974 62.8519C170.689 63.265 170.283 63.6072 169.797 63.845C169.31 64.0828 168.76 64.2078 168.2 64.2078V64.2083Z" fill="#367CFF"/>
<path d="M175.076 72.1629C176.362 74.6943 201.624 75.7458 201.961 71.2928C202.176 68.4591 199.261 65.9855 199.261 60.4627C199.261 54.9399 205.192 47.8871 200.359 43.747C198.957 42.5457 196.536 41.7702 193.584 41.7676C193.363 43.2423 182.913 43.2475 182.833 41.8017C182.434 41.807 182.124 41.8123 181.931 41.8202C171.75 42.1961 176.224 52.1219 176.322 59.4138C176.441 67.9465 173.75 69.555 175.076 72.1629Z" fill="#367CFF"/>
<path d="M182.833 41.8017C182.913 43.2475 183.83 45.3741 186.662 45.5345C190.436 45.7474 193.364 43.2423 193.585 41.7676H193.575C189.86 41.7676 184.999 41.7728 182.833 41.8017Z" fill="#E98862"/>
<path d="M177.32 56.7824C177.32 56.7824 178.031 53.3202 175.109 53.0339C173.266 52.8533 168.632 50.6584 167.753 52.4929C166.991 54.0846 171.416 55.9794 173 56.3308C174.419 56.6434 177.32 56.7824 177.32 56.7824Z" fill="#E98862"/>
<path d="M176.106 53.3096C176.106 53.3096 172.341 51.541 171.311 51.5823C170.399 51.6188 171.95 53.13 171.95 53.13L176.106 53.3096Z" fill="#E98862"/>
<path d="M189.429 67.7051C188.695 67.705 187.981 67.4982 187.398 67.1165L171.914 56.9804L175.976 52.4259L188.1 60.3621L195.749 45.6899L201.858 48.0274L192.484 66.0075C192.22 66.5127 191.791 66.9418 191.249 67.2429C190.707 67.544 190.075 67.7044 189.429 67.7045V67.7051Z" fill="#367CFF"/>
<path d="M192.684 43.2944C192.684 43.2944 190.311 42.2166 190.841 36.6814L185.938 35.9028C185.938 35.9028 186.489 40.8652 184.009 42.4409L192.684 43.2944Z" fill="#E98862"/>
<g opacity="0.15">
<path opacity="0.15" d="M185.015 41.4043L189.087 38.7354L185.889 38.707C185.796 39.6449 185.499 40.5597 185.015 41.4043Z" fill="black"/>
</g>
<path d="M193.623 34.5357C193.284 36.2151 192.214 37.8052 190.485 38.3472C188.6 38.9881 186.561 39.2241 184.545 39.0346C179.179 38.6577 180.24 28.2045 182.788 26.1736C185.336 24.1427 192.813 25.4289 193.723 28.8251C194.193 30.5821 193.946 32.9372 193.623 34.5357Z" fill="#E98862"/>
<path d="M179.576 29.999C179.576 29.999 180.627 22.5691 190.153 24.3939C191.693 24.7438 193.064 25.5031 194.069 26.5626C194.448 25.902 195.049 25.3536 195.795 24.9884C196.541 24.6231 197.397 24.4575 198.254 24.5131C199.111 24.5687 199.928 24.8429 200.601 25.3002C201.274 25.7576 201.772 26.3772 202.03 27.0791C202.289 27.7811 202.295 28.5332 202.05 29.2386C201.805 29.9439 201.318 30.5701 200.654 31.0364C199.989 31.5028 199.177 31.7878 198.321 31.8549C197.465 31.922 196.606 31.768 195.854 31.4127C195.845 31.5179 195.836 31.6257 195.823 31.7345C195.24 36.3347 190.771 38.6379 190.771 38.6379C190.771 38.6379 189.571 37.8596 189.998 30.4273C187.93 30.5781 183.197 30.7963 179.576 29.999Z" fill="#0F1011"/>
<path d="M185.946 33.2423C186.192 33.2423 186.391 33.0717 186.391 32.8614C186.391 32.651 186.192 32.4805 185.946 32.4805C185.701 32.4805 185.501 32.651 185.501 32.8614C185.501 33.0717 185.701 33.2423 185.946 33.2423Z" fill="#0F1011"/>
<path d="M182.439 32.9957C182.684 32.9957 182.883 32.8251 182.883 32.6148C182.883 32.4044 182.684 32.2339 182.439 32.2339C182.193 32.2339 181.994 32.4044 181.994 32.6148C181.994 32.8251 182.193 32.9957 182.439 32.9957Z" fill="#0F1011"/>
<path d="M181.668 31.8035C181.612 31.8038 181.559 31.7852 181.52 31.7518C181.48 31.7184 181.458 31.673 181.458 31.6255C181.457 31.578 181.479 31.5324 181.518 31.4986C181.557 31.4649 181.61 31.4457 181.665 31.4455L182.843 31.4331H182.845C182.899 31.4345 182.951 31.4539 182.988 31.487C183.026 31.5202 183.047 31.5645 183.048 31.6108C183.048 31.6572 183.028 31.7018 182.99 31.7353C182.953 31.7689 182.902 31.7888 182.848 31.7909L181.67 31.8035H181.668Z" fill="#0F1011"/>
<path d="M186.905 32.171C186.889 32.171 186.873 32.1694 186.857 32.1663L185.695 31.9268C185.642 31.9148 185.597 31.8857 185.569 31.8455C185.541 31.8054 185.533 31.7574 185.545 31.7119C185.558 31.6664 185.591 31.627 185.637 31.6021C185.684 31.5773 185.739 31.5689 185.793 31.5788L186.954 31.818C187.004 31.8282 187.047 31.8538 187.077 31.8897C187.106 31.9257 187.119 31.9695 187.113 32.013C187.107 32.0565 187.082 32.0966 187.044 32.1257C187.006 32.1548 186.956 32.171 186.905 32.171Z" fill="#0F1011"/>
<path d="M185.74 35.8611C185.74 35.8611 184.099 36.0094 182.948 35.665C182.948 35.665 182.957 36.5911 184.255 36.6823C185.554 36.7735 185.74 35.8611 185.74 35.8611Z" fill="white"/>
<path d="M188.259 33.7934C188.225 34.2167 188.388 34.6343 188.711 34.9558C189.034 35.2773 189.492 35.4769 189.986 35.5114C190.48 35.546 190.969 35.4127 191.349 35.1404C191.729 34.868 191.968 34.4786 192.016 34.0562C192.04 33.8442 192.015 33.6301 191.941 33.4267C191.866 33.2233 191.745 33.0348 191.584 32.8723C191.424 32.7098 191.226 32.5767 191.004 32.481C190.782 32.3853 190.539 32.3288 190.291 32.315C188.948 32.2785 188.344 32.9046 188.259 33.7934Z" fill="#E98862"/>
<g opacity="0.15">
<path opacity="0.15" d="M183.972 34.9738C184.008 34.9738 184.044 34.9625 184.072 34.942C184.1 34.9215 184.118 34.893 184.124 34.8619C184.129 34.8308 184.121 34.799 184.102 34.7723C184.082 34.7457 184.052 34.726 184.017 34.7167L183.113 34.4788L183.745 33.2723C183.754 33.2565 183.758 33.2394 183.759 33.222C183.76 33.2046 183.757 33.1873 183.75 33.171C183.743 33.1547 183.732 33.1398 183.718 33.1271C183.704 33.1144 183.687 33.1041 183.669 33.097C183.65 33.0899 183.63 33.086 183.61 33.0855C183.59 33.085 183.569 33.088 183.55 33.0943C183.532 33.1006 183.514 33.11 183.5 33.1221C183.485 33.1341 183.473 33.1485 183.465 33.1645L182.762 34.507C182.753 34.524 182.748 34.5424 182.748 34.561C182.748 34.5796 182.753 34.5981 182.762 34.615C182.771 34.632 182.784 34.6472 182.8 34.6595C182.816 34.6718 182.836 34.681 182.856 34.6865L183.927 34.968C183.941 34.9719 183.956 34.9738 183.972 34.9738Z" fill="black"/>
</g>
<path d="M55.7871 45.1721H125.306L137.552 53.2422V0H55.7871V45.1721Z" fill="#C1D8ED"/>
<path d="M65.8727 13.3682L127.467 13.3682V9.68645L65.8727 9.68645V13.3682Z" fill="white"/>
<path d="M65.8727 24.1309L127.467 24.1309V20.4491L65.8727 20.4491V24.1309Z" fill="white"/>
<path d="M65.8727 34.8931L127.467 34.8931V31.2113L65.8727 31.2113V34.8931Z" fill="white"/>
<path d="M82.8898 89.5241H28.6417L19.085 95.8214V54.2744H82.8898V89.5241Z" fill="#DEE8F5"/>
<path d="M75.02 61.833H26.9556V64.7059H75.02V61.833Z" fill="white"/>
<path d="M75.02 70.2314H26.9556V73.1043H75.02V70.2314Z" fill="white"/>
<path d="M75.02 78.6299H26.9556V81.5028H75.02V78.6299Z" fill="white"/>
<path d="M19.517 152C12.6746 152.006 6.56178 148.027 4.24148 142.054C-0.734183 129.195 -5.11704 105.375 14.3634 79.611C35.9034 51.123 78.9958 21.6724 109.306 18.6555C156.789 13.9323 170.061 65.291 191.367 77.2428C209.775 87.569 236.433 103.054 239.917 135.415C240.815 143.7 234.302 151.09 225.373 151.923C224.836 151.974 224.296 151.999 223.756 151.999L19.517 152Z" fill="#F3F5FD"/>
<path d="M152.417 48.6253C152.417 48.6253 151.603 46.3297 149.973 45.4139C148.343 44.498 148.347 45.5293 149.071 46.5631C149.795 47.597 151.503 49.7722 151.503 49.7722" fill="#E98862"/>
<path d="M151.459 47.6672C151.459 47.6672 148.606 44.4663 146.937 44.4663C146.937 44.4663 144.248 45.5682 144.286 46.2801C144.343 47.3529 148.89 51.3561 148.89 51.3561L151.459 47.6672Z" fill="#E98862"/>
<path d="M171.797 148.544C171.118 143.65 171.118 143.147 171.118 142.981H177.561C177.561 142.964 177.561 142.943 177.561 142.917C177.584 143.325 177.909 145.817 178.197 147.892L171.797 148.544Z" fill="#E98862"/>
<path d="M197.472 149.204C197.472 149.204 197.45 143.487 197.45 142.98H203.894C203.894 143.485 203.915 149.186 203.915 149.186L197.472 149.204Z" fill="#E98862"/>
<path d="M180.771 146.801L169.418 146.635C169.89 136.393 169.971 124.678 170.097 114.078C170.133 111.45 170.364 108.828 170.791 106.225C172.617 94.995 173.809 83.8292 176.267 72.6628L176.349 72.6836L176.589 71.2825L199.932 70.0483L201.148 83.1128C201.148 83.1128 204.188 128.312 205.575 146.486L194.262 147.305C192.225 129.488 189.071 103.524 187.131 84.8052C184.903 93.9188 183.388 103.355 181.45 112.391C181.063 123.701 180.735 135.524 180.771 146.801Z" fill="#262626"/>
<path d="M189.64 151.339C189.466 151.339 189.295 151.307 189.136 151.247C188.978 151.187 188.836 151.1 188.718 150.991C188.601 150.882 188.511 150.753 188.454 150.613C188.397 150.472 188.375 150.324 188.389 150.176C188.407 149.971 188.494 149.774 188.639 149.61C188.783 149.446 188.979 149.32 189.204 149.248L196.704 147.096C196.85 147.055 197.004 147.041 197.156 147.055C197.308 147.07 197.454 147.112 197.586 147.18C198.617 147.793 199.85 148.106 201.104 148.074C202.081 148.014 203.019 147.721 203.811 147.227C203.88 147.178 203.965 147.147 204.054 147.137C204.143 147.128 204.234 147.14 204.315 147.174C204.397 147.207 204.465 147.259 204.513 147.324C204.561 147.389 204.586 147.465 204.586 147.542V150.684C204.586 150.776 204.565 150.868 204.523 150.954C204.482 151.039 204.421 151.117 204.344 151.182C204.268 151.248 204.177 151.3 204.077 151.335C203.977 151.37 203.87 151.388 203.761 151.388L189.64 151.339Z" fill="#C1D8ED"/>
<path d="M163.947 151.339C163.774 151.339 163.602 151.307 163.444 151.247C163.285 151.187 163.143 151.1 163.026 150.991C162.908 150.882 162.818 150.753 162.762 150.613C162.705 150.472 162.683 150.324 162.696 150.176C162.715 149.971 162.801 149.774 162.946 149.61C163.09 149.446 163.287 149.32 163.512 149.248L171.012 147.096C171.157 147.055 171.311 147.041 171.463 147.055C171.615 147.07 171.762 147.112 171.893 147.18C172.924 147.793 174.157 148.106 175.412 148.074C176.389 148.014 177.327 147.721 178.118 147.227C178.188 147.178 178.272 147.147 178.362 147.137C178.451 147.128 178.542 147.14 178.623 147.174C178.704 147.207 178.773 147.259 178.821 147.324C178.869 147.389 178.894 147.465 178.894 147.542V150.684C178.894 150.776 178.872 150.868 178.831 150.954C178.789 151.039 178.729 151.117 178.652 151.183C178.575 151.248 178.484 151.3 178.384 151.335C178.284 151.37 178.177 151.388 178.069 151.388L163.947 151.339Z" fill="#C1D8ED"/>
<path d="M168.2 64.2083C167.468 64.2084 166.758 63.9952 166.187 63.6037L147.937 51.0939L151.963 46.7829L167.314 57.3054L176.519 43.957L182.067 46.7655L170.974 62.8519C170.689 63.265 170.283 63.6072 169.797 63.845C169.31 64.0828 168.76 64.2078 168.2 64.2078V64.2083Z" fill="#367CFF"/>
<path d="M175.076 72.1629C176.362 74.6943 201.624 75.7458 201.961 71.2928C202.176 68.4591 199.261 65.9855 199.261 60.4627C199.261 54.9399 205.192 47.8871 200.359 43.747C198.957 42.5457 196.536 41.7702 193.584 41.7676C193.363 43.2423 182.913 43.2475 182.833 41.8017C182.434 41.807 182.124 41.8123 181.931 41.8202C171.75 42.1961 176.224 52.1219 176.322 59.4138C176.441 67.9465 173.75 69.555 175.076 72.1629Z" fill="#367CFF"/>
<path d="M182.833 41.8017C182.913 43.2475 183.83 45.3741 186.662 45.5345C190.436 45.7474 193.364 43.2423 193.585 41.7676H193.575C189.86 41.7676 184.999 41.7728 182.833 41.8017Z" fill="#E98862"/>
<path d="M177.32 56.7824C177.32 56.7824 178.031 53.3202 175.109 53.0339C173.266 52.8533 168.632 50.6584 167.753 52.4929C166.991 54.0846 171.416 55.9794 173 56.3308C174.419 56.6434 177.32 56.7824 177.32 56.7824Z" fill="#E98862"/>
<path d="M176.106 53.3096C176.106 53.3096 172.341 51.541 171.311 51.5823C170.399 51.6188 171.95 53.13 171.95 53.13L176.106 53.3096Z" fill="#E98862"/>
<path d="M189.429 67.7051C188.695 67.705 187.981 67.4982 187.398 67.1165L171.914 56.9804L175.976 52.4259L188.1 60.3621L195.749 45.6899L201.858 48.0274L192.484 66.0075C192.22 66.5127 191.791 66.9418 191.249 67.2429C190.707 67.544 190.075 67.7044 189.429 67.7045V67.7051Z" fill="#367CFF"/>
<path d="M192.684 43.2944C192.684 43.2944 190.311 42.2166 190.841 36.6814L185.938 35.9028C185.938 35.9028 186.489 40.8652 184.009 42.4409L192.684 43.2944Z" fill="#E98862"/>
<g opacity="0.15">
<path opacity="0.15" d="M185.015 41.4043L189.087 38.7354L185.889 38.707C185.796 39.6449 185.499 40.5597 185.015 41.4043Z" fill="black"/>
</g>
<path d="M193.623 34.5357C193.284 36.2151 192.214 37.8052 190.485 38.3472C188.6 38.9881 186.561 39.2241 184.545 39.0346C179.179 38.6577 180.24 28.2045 182.788 26.1736C185.336 24.1427 192.813 25.4289 193.723 28.8251C194.193 30.5821 193.946 32.9372 193.623 34.5357Z" fill="#E98862"/>
<path d="M179.576 29.999C179.576 29.999 180.627 22.5691 190.153 24.3939C191.693 24.7438 193.064 25.5031 194.069 26.5626C194.448 25.902 195.049 25.3536 195.795 24.9884C196.541 24.6231 197.397 24.4575 198.254 24.5131C199.111 24.5687 199.928 24.8429 200.601 25.3002C201.274 25.7576 201.772 26.3772 202.03 27.0791C202.289 27.7811 202.295 28.5332 202.05 29.2386C201.805 29.9439 201.318 30.5701 200.654 31.0364C199.989 31.5028 199.177 31.7878 198.321 31.8549C197.465 31.922 196.606 31.768 195.854 31.4127C195.845 31.5179 195.836 31.6257 195.823 31.7345C195.24 36.3347 190.771 38.6379 190.771 38.6379C190.771 38.6379 189.571 37.8596 189.998 30.4273C187.93 30.5781 183.197 30.7963 179.576 29.999Z" fill="#0F1011"/>
<path d="M185.946 33.2423C186.192 33.2423 186.391 33.0717 186.391 32.8614C186.391 32.651 186.192 32.4805 185.946 32.4805C185.701 32.4805 185.501 32.651 185.501 32.8614C185.501 33.0717 185.701 33.2423 185.946 33.2423Z" fill="#0F1011"/>
<path d="M182.439 32.9957C182.684 32.9957 182.883 32.8251 182.883 32.6148C182.883 32.4044 182.684 32.2339 182.439 32.2339C182.193 32.2339 181.994 32.4044 181.994 32.6148C181.994 32.8251 182.193 32.9957 182.439 32.9957Z" fill="#0F1011"/>
<path d="M181.668 31.8035C181.612 31.8038 181.559 31.7852 181.52 31.7518C181.48 31.7184 181.458 31.673 181.458 31.6255C181.457 31.578 181.479 31.5324 181.518 31.4986C181.557 31.4649 181.61 31.4457 181.665 31.4455L182.843 31.4331H182.845C182.899 31.4345 182.951 31.4539 182.988 31.487C183.026 31.5202 183.047 31.5645 183.048 31.6108C183.048 31.6572 183.028 31.7018 182.99 31.7353C182.953 31.7689 182.902 31.7888 182.848 31.7909L181.67 31.8035H181.668Z" fill="#0F1011"/>
<path d="M186.905 32.171C186.889 32.171 186.873 32.1694 186.857 32.1663L185.695 31.9268C185.642 31.9148 185.597 31.8857 185.569 31.8455C185.541 31.8054 185.533 31.7574 185.545 31.7119C185.558 31.6664 185.591 31.627 185.637 31.6021C185.684 31.5773 185.739 31.5689 185.793 31.5788L186.954 31.818C187.004 31.8282 187.047 31.8538 187.077 31.8897C187.106 31.9257 187.119 31.9695 187.113 32.013C187.107 32.0565 187.082 32.0966 187.044 32.1257C187.006 32.1548 186.956 32.171 186.905 32.171Z" fill="#0F1011"/>
<path d="M185.74 35.8611C185.74 35.8611 184.099 36.0094 182.948 35.665C182.948 35.665 182.957 36.5911 184.255 36.6823C185.554 36.7735 185.74 35.8611 185.74 35.8611Z" fill="white"/>
<path d="M188.259 33.7934C188.225 34.2167 188.388 34.6343 188.711 34.9558C189.034 35.2773 189.492 35.4769 189.986 35.5114C190.48 35.546 190.969 35.4127 191.349 35.1404C191.729 34.868 191.968 34.4786 192.016 34.0562C192.04 33.8442 192.015 33.6301 191.941 33.4267C191.866 33.2233 191.745 33.0348 191.584 32.8723C191.424 32.7098 191.226 32.5767 191.004 32.481C190.782 32.3853 190.539 32.3288 190.291 32.315C188.948 32.2785 188.344 32.9046 188.259 33.7934Z" fill="#E98862"/>
<g opacity="0.15">
<path opacity="0.15" d="M183.972 34.9738C184.008 34.9738 184.044 34.9625 184.072 34.942C184.1 34.9215 184.118 34.893 184.124 34.8619C184.129 34.8308 184.121 34.799 184.102 34.7723C184.082 34.7457 184.052 34.726 184.017 34.7167L183.113 34.4788L183.745 33.2723C183.754 33.2565 183.758 33.2394 183.759 33.222C183.76 33.2046 183.757 33.1873 183.75 33.171C183.743 33.1547 183.732 33.1398 183.718 33.1271C183.704 33.1144 183.687 33.1041 183.669 33.097C183.65 33.0899 183.63 33.086 183.61 33.0855C183.59 33.085 183.569 33.088 183.55 33.0943C183.532 33.1006 183.514 33.11 183.5 33.1221C183.485 33.1341 183.473 33.1485 183.465 33.1645L182.762 34.507C182.753 34.524 182.748 34.5424 182.748 34.561C182.748 34.5796 182.753 34.5981 182.762 34.615C182.771 34.632 182.784 34.6472 182.8 34.6595C182.816 34.6718 182.836 34.681 182.856 34.6865L183.927 34.968C183.941 34.9719 183.956 34.9738 183.972 34.9738Z" fill="black"/>
</g>
<path d="M55.7871 45.1721H125.306L137.552 53.2422V0H55.7871V45.1721Z" fill="#C1D8ED"/>
<path d="M65.8727 13.3682L127.467 13.3682V9.68645L65.8727 9.68645V13.3682Z" fill="white"/>
<path d="M65.8727 24.1309L127.467 24.1309V20.4491L65.8727 20.4491V24.1309Z" fill="white"/>
<path d="M65.8727 34.8931L127.467 34.8931V31.2113L65.8727 31.2113V34.8931Z" fill="white"/>
<path d="M82.8898 89.5241H28.6417L19.085 95.8214V54.2744H82.8898V89.5241Z" fill="#DEE8F5"/>
<path d="M75.02 61.833H26.9556V64.7059H75.02V61.833Z" fill="white"/>
<path d="M75.02 70.2314H26.9556V73.1043H75.02V70.2314Z" fill="white"/>
<path d="M75.02 78.6299H26.9556V81.5028H75.02V78.6299Z" fill="white"/>
</svg>
