<svg width="268" height="189" viewBox="0 0 268 189" fill="none" xmlns="http://www.w3.org/2000/svg">
<g clip-path="url(#clip0_2_39301)">
<path d="M66.3973 41.163C66.3076 42.3455 67.4522 43.4465 67.6407 44.561C67.8358 45.7142 67.1362 47.1787 67.5925 48.2132C68.0554 49.2626 69.5564 49.603 70.2504 50.4825C70.9443 51.3621 71.015 53.0122 71.9019 53.6733C72.776 54.3253 74.2309 53.8173 75.2561 54.2105C76.2469 54.5905 77.0713 55.9832 78.1692 56.0798C79.2672 56.1765 80.2897 54.9438 81.3242 54.7407C82.3948 54.5306 83.7546 55.2841 84.7152 54.7923C85.6895 54.2937 86.0058 52.677 86.8221 51.9296C87.6385 51.1822 89.1709 51.1065 89.7846 50.1512C90.3897 49.2095 89.9184 47.6428 90.2835 46.5386C90.6363 45.4715 91.9293 44.5836 92.0191 43.4007C92.1089 42.2179 90.9642 41.1173 90.7757 40.0028C90.5806 38.8496 91.2803 37.3851 90.8239 36.3505C90.361 35.3011 88.86 34.9608 88.166 34.0812C87.4721 33.2017 87.4015 31.5515 86.5145 30.8905C85.6401 30.2385 84.1855 30.7464 83.1603 30.3532C82.1695 29.9732 81.3451 28.5806 80.2472 28.4839C79.1493 28.3872 78.1267 29.6197 77.0923 29.8227C76.0216 30.0329 74.6615 29.2793 73.7013 29.7712C72.7269 30.2698 72.4106 31.8864 71.594 32.6338C70.7774 33.3812 69.2452 33.4569 68.6315 34.4122C68.0264 35.354 68.4977 36.921 68.1327 38.0248C67.7798 39.0923 66.4865 39.9802 66.3973 41.163Z" fill="#0F1011"/>
<path d="M84.0572 55.0679C84.0572 55.0679 81.7422 53.7488 82.253 46.9619L77.4714 46.0117C77.4714 46.0117 78.0137 52.0957 75.5967 54.0298L84.0572 55.0679Z" fill="#E98862"/>
<g opacity="0.15">
<path opacity="0.15" d="M76.574 52.7566L80.5431 49.4805L77.4235 49.4482C77.3342 50.5984 77.0461 51.7205 76.574 52.7566Z" fill="black"/>
</g>
<path d="M84.9624 44.3276C84.6332 46.387 83.5915 48.3376 81.9059 49.0044C80.0684 49.7919 78.0798 50.0833 76.1138 49.853C70.8797 49.3956 71.9043 36.5776 74.3871 34.0857C76.87 31.5937 84.1634 33.1632 85.0539 37.3267C85.5145 39.4812 85.2757 42.3677 84.9624 44.3276Z" fill="#E98862"/>
<path d="M77.4741 42.749C77.7136 42.749 77.9077 42.5399 77.9077 42.2819C77.9077 42.024 77.7136 41.8149 77.4741 41.8149C77.2347 41.8149 77.0405 42.024 77.0405 42.2819C77.0405 42.5399 77.2347 42.749 77.4741 42.749Z" fill="#0F1011"/>
<path d="M74.053 42.4499C74.2925 42.4499 74.4866 42.2408 74.4866 41.9829C74.4866 41.725 74.2925 41.5159 74.053 41.5159C73.8135 41.5159 73.6194 41.725 73.6194 41.9829C73.6194 42.2408 73.8135 42.4499 74.053 42.4499Z" fill="#0F1011"/>
<path d="M73.3006 40.9886C73.2465 40.989 73.1946 40.9662 73.1561 40.9253C73.1176 40.8845 73.0958 40.8288 73.0955 40.7706C73.0951 40.7124 73.1162 40.6564 73.1542 40.615C73.1922 40.5735 73.2439 40.55 73.2979 40.5496L74.4464 40.5332H74.4494C74.5021 40.535 74.5521 40.5587 74.5889 40.5993C74.6257 40.6399 74.6465 40.6944 74.6468 40.7511C74.6472 40.8079 74.6271 40.8626 74.5908 40.9038C74.5545 40.9449 74.5048 40.9693 74.4521 40.9718L73.3036 40.9886H73.3006Z" fill="#0F1011"/>
<path d="M78.409 41.4347C78.393 41.4347 78.377 41.4326 78.3614 41.4286L77.2288 41.1362C77.2021 41.1302 77.1768 41.1185 77.1544 41.1018C77.132 41.0851 77.1129 41.0637 77.0983 41.0389C77.0837 41.0141 77.0739 40.9864 77.0694 40.9574C77.0649 40.9285 77.0659 40.8988 77.0722 40.8703C77.0786 40.8417 77.0902 40.8148 77.1064 40.7912C77.1225 40.7676 77.143 40.7477 77.1664 40.7327C77.1898 40.7177 77.2158 40.7079 77.2428 40.7039C77.2698 40.7 77.2973 40.7019 77.3236 40.7095L78.4563 41.0018C78.5047 41.0144 78.5472 41.0457 78.5757 41.0897C78.6042 41.1338 78.6167 41.1875 78.6109 41.2409C78.6051 41.2942 78.5813 41.3433 78.5441 41.379C78.5069 41.4148 78.4588 41.4346 78.409 41.4347Z" fill="#0F1011"/>
<path d="M77.2766 45.9593C77.2766 45.9593 75.6759 46.1427 74.5535 45.7214C74.5535 45.7214 74.5633 46.8569 75.83 46.9674C77.0967 47.078 77.2766 45.9593 77.2766 45.9593Z" fill="white"/>
<path d="M81.4363 38.9979C81.1224 43.824 81.6157 48.6715 82.8927 53.3098C82.8927 53.3098 86.5414 46.5335 87.1054 40.8917C87.6345 35.6029 84.0137 32.484 81.5695 31.8974C72.2774 29.6691 71.6089 36.9794 71.6089 36.9794C73.3014 40.7706 82.4415 40.7541 82.4415 40.7541" fill="#0F1011"/>
<path d="M79.6651 44.2926C79.6426 44.5534 79.6685 44.8164 79.7411 45.0664C79.8137 45.3163 79.9316 45.5483 80.088 45.7488C80.2445 45.9493 80.4363 46.1144 80.6524 46.2345C80.8684 46.3547 81.1045 46.4274 81.3469 46.4486C81.5893 46.4698 81.8331 46.4389 82.0643 46.3579C82.2956 46.2768 82.5096 46.1472 82.694 45.9764C82.8783 45.8056 83.0294 45.5972 83.1385 45.3631C83.2475 45.129 83.3124 44.8739 83.3293 44.6127C83.353 44.3527 83.3278 44.0902 83.2554 43.8409C83.183 43.5916 83.0647 43.3605 82.9076 43.1615C82.7505 42.9624 82.5578 42.7994 82.341 42.6823C82.1242 42.5651 81.8878 42.4961 81.6457 42.4794C80.3357 42.4346 79.7479 43.203 79.6651 44.2926Z" fill="#E98862"/>
<g opacity="0.15">
<path opacity="0.15" d="M75.5512 44.8739C75.5871 44.8739 75.6217 44.8601 75.6489 44.8349C75.6761 44.8097 75.694 44.7749 75.6993 44.7367C75.7046 44.6985 75.697 44.6595 75.6779 44.6269C75.6588 44.5942 75.6295 44.57 75.5952 44.5587L74.713 44.2686L75.3286 42.7886C75.3369 42.7693 75.3416 42.7483 75.3424 42.727C75.3432 42.7057 75.34 42.6844 75.3331 42.6645C75.3262 42.6445 75.3157 42.6262 75.3021 42.6106C75.2886 42.595 75.2723 42.5825 75.2543 42.5737C75.2362 42.565 75.2167 42.5602 75.1969 42.5596C75.1771 42.5591 75.1574 42.5627 75.1389 42.5704C75.1204 42.5781 75.1036 42.5897 75.0893 42.6045C75.075 42.6192 75.0636 42.6369 75.0557 42.6565L74.3704 44.3034C74.3618 44.3243 74.3573 44.3469 74.3574 44.3697C74.3575 44.3926 74.3621 44.4151 74.3709 44.4359C74.3797 44.4567 74.3925 44.4752 74.4085 44.4903C74.4244 44.5053 74.4432 44.5166 74.4635 44.5232L75.5075 44.8674C75.5217 44.8719 75.5365 44.8741 75.5512 44.8739Z" fill="black"/>
</g>
<path d="M268.001 187.733H0C2.93647 179.668 8.35964 172.826 16.0044 170.796C27.1877 167.83 39.0224 175.984 50.1806 172.918C56.52 171.178 61.5108 166.107 66.755 161.896C86.5409 146.009 113.652 141.314 137.064 149.723C149.302 154.116 160.453 161.799 172.988 165.064C189.199 169.289 206.151 165.785 222.821 165.208C239.057 164.648 262.319 171.773 268.001 187.733Z" fill="#F3F5FD"/>
<path d="M231.592 127.565C229.677 133.814 223.067 139.367 225.042 143.963C225.793 145.71 226.547 147.537 226.894 149.404C227.119 150.516 227.157 151.664 227.005 152.791C226.293 157.658 222.064 160.89 218.132 163.407C217.89 163.562 217.645 163.72 217.399 163.878C213.674 166.282 209.771 169.051 208.575 173.489C207.91 175.954 208.203 178.591 207.928 181.14C207.667 183.483 206.929 185.735 205.765 187.734H180.655C178.426 185.088 178.611 180.64 180.308 177.521C182.125 174.182 185.192 171.913 187.96 169.444C190.351 167.31 192.682 164.742 193.594 161.609C193.739 161.113 193.847 160.605 193.915 160.091C194.136 158.396 194.016 149.735 196.745 144.405C200.965 136.173 207.808 138.201 209.9 133.556C210.702 131.777 211.393 109.916 224.725 113.954C226.025 114.329 227.24 114.984 228.297 115.881C229.354 116.778 230.231 117.897 230.873 119.17C231.516 120.444 231.911 121.845 232.034 123.288C232.158 124.731 232.008 126.186 231.592 127.565Z" fill="#C1D8ED"/>
<path d="M255.977 161.747C255.595 162.031 255.183 162.266 254.751 162.449C251.154 163.903 241.15 163.742 239.687 167.568C238.998 169.366 238.834 171.351 238.244 173.192C236.907 177.365 233.376 180.495 229.426 181.671C228.004 182.093 226.532 182.29 225.126 182.761C222.408 183.673 220.158 185.506 218.18 187.734H185.751C185.737 185.417 186.266 183.135 187.289 181.097C188.312 179.06 189.797 177.334 191.604 176.079C195.21 173.63 199.765 173.172 203.305 170.613C205.639 168.924 207.318 166.485 208.649 163.787C209.496 162.022 210.245 160.204 210.891 158.343C211.881 155.575 212.916 152.603 215.167 150.889C216.27 150.116 217.494 149.564 218.779 149.258C222.028 148.343 224.527 148.881 226.894 149.403C229.767 150.035 232.448 150.637 236.048 148.578C242.434 144.923 251.77 126.697 261.1 144.014C264.841 150.96 259.679 159.078 255.977 161.747Z" fill="#8DDBE0"/>
<path d="M52.6045 127.565C54.5196 133.814 61.1299 139.367 59.1549 143.963C58.4038 145.71 57.6494 147.537 57.3026 149.404C57.0772 150.516 57.0397 151.664 57.1919 152.791C57.9041 157.658 62.1324 160.89 66.0644 163.407C66.3068 163.562 66.5519 163.72 66.7976 163.878C70.5231 166.282 74.4252 169.051 75.6222 173.489C76.2865 175.954 75.9933 178.591 76.2686 181.14C76.5294 183.483 77.2682 185.735 78.4321 187.734H103.542C105.771 185.088 105.585 180.64 103.889 177.521C102.072 174.182 99.005 171.913 96.237 169.444C93.8458 167.31 91.5147 164.742 90.6023 161.609C90.4573 161.113 90.3502 160.605 90.2821 160.091C90.0607 158.396 90.1801 149.735 87.4513 144.405C83.232 136.173 76.3883 138.201 74.2966 133.556C73.4946 131.777 72.8034 109.916 59.4721 113.954C58.1722 114.329 56.9567 114.984 55.8996 115.881C54.8426 116.778 53.9661 117.897 53.3235 119.17C52.681 120.444 52.2859 121.845 52.1623 123.288C52.0387 124.731 52.1891 126.186 52.6045 127.565Z" fill="#C1D8ED"/>
<path d="M28.2184 161.747C28.6012 162.031 29.0129 162.266 29.4453 162.449C33.0425 163.903 43.0462 163.742 44.5095 167.568C45.1978 169.366 45.3623 171.351 45.9519 173.192C47.2895 177.365 50.8205 180.495 54.7705 181.671C56.1919 182.093 57.6642 182.29 59.0703 182.761C61.7878 183.673 64.0378 185.506 66.0158 187.734H98.4456C98.4599 185.417 97.9309 183.135 96.9077 181.097C95.8845 179.06 94.4002 177.334 92.5924 176.079C88.9865 173.63 84.4317 173.172 80.892 170.613C78.5579 168.924 76.8795 166.485 75.5478 163.787C74.7006 162.022 73.9521 160.204 73.3065 158.343C72.316 155.575 71.2806 152.603 69.0303 150.889C67.9267 150.116 66.7032 149.564 65.4182 149.258C62.1687 148.343 59.6697 148.881 57.303 149.403C54.4303 150.035 51.7491 150.637 48.1489 148.578C41.7634 144.923 32.4267 126.697 23.0966 144.014C19.3558 150.96 24.5177 159.078 28.2184 161.747Z" fill="#8DDBE0"/>
<path d="M178.473 2.84351H105.04C99.4163 2.84351 94.8577 7.75335 94.8577 13.8099V175.19C94.8577 181.246 99.4163 186.156 105.04 186.156H178.473C184.097 186.156 188.655 181.246 188.655 175.19V13.8099C188.655 7.75335 184.097 2.84351 178.473 2.84351Z" fill="white"/>
<path d="M178.474 189H105.04C101.641 188.996 98.3814 187.54 95.9775 184.951C93.5737 182.362 92.2215 178.851 92.2175 175.19V13.81C92.2216 10.1487 93.5738 6.63851 95.9776 4.04956C98.3815 1.46061 101.641 0.00426475 105.04 0L178.474 0C181.874 0.00435003 185.133 1.46073 187.536 4.04967C189.94 6.63862 191.292 10.1487 191.296 13.81V175.19C191.292 178.851 189.94 182.362 187.536 184.951C185.132 187.54 181.873 188.996 178.474 189ZM105.04 5.68723C103.041 5.68996 101.124 6.54653 99.7106 8.06908C98.297 9.59163 97.5017 11.6559 97.4992 13.8091V175.189C97.5016 177.342 98.2969 179.407 99.7105 180.929C101.124 182.452 103.041 183.308 105.04 183.311H178.474C180.473 183.308 182.39 182.452 183.804 180.929C185.217 179.407 186.013 177.342 186.015 175.189V13.81C186.013 11.6568 185.217 9.5926 183.804 8.07005C182.39 6.54749 180.473 5.69093 178.474 5.6882L105.04 5.68723Z" fill="#DEE8F5"/>
<path d="M125.678 2.84351H157.836V9.56337C157.836 10.2239 157.715 10.878 157.48 11.4883C157.245 12.0986 156.901 12.6531 156.468 13.1202C156.034 13.5872 155.519 13.9578 154.952 14.2105C154.386 14.4633 153.779 14.5934 153.165 14.5934H130.348C129.109 14.5934 127.921 14.0635 127.046 13.1202C126.17 12.1768 125.678 10.8974 125.678 9.56337V2.84351H125.678Z" fill="#DEE8F5"/>
<path d="M177.693 156.923H113.071L105.821 163.478V113.51H177.693V156.923Z" fill="#C1D8ED"/>
<path d="M207.948 98.7501L199.756 92.0622H123.57V37.9719H207.948V98.7501Z" fill="#DEE8F5"/>
<path d="M61.017 63.5566C61.017 63.5566 57.8917 60.5254 57.7176 59.4999C57.5434 58.4744 59.9721 56.6421 59.9721 56.6421C59.9721 56.6421 59.3503 55.8776 58.7479 55.0142C58.0527 54.0176 57.3842 52.8893 57.7278 52.6518C58.0593 52.4226 58.8763 53.2702 59.6905 54.2955C60.7378 55.6136 61.7774 57.2258 61.7774 57.2258C61.7774 57.2258 61.3731 55.4432 62.0084 55.3706C62.2697 55.341 62.4573 55.6285 62.7918 56.8922C63.1716 58.3332 63.9706 60.5164 63.9706 60.5164L61.017 63.5566Z" fill="#E98862"/>
<path d="M67.2718 80.3618C66.6227 80.3619 65.9884 80.1533 65.45 79.7629C64.9116 79.3725 64.4936 78.818 64.2494 78.1702L58.3843 62.614L64.429 59.9712L66.2047 64.6809L67.5986 57.1785L73.9967 58.5569L70.4701 77.5401C70.3325 78.2811 69.9768 78.9545 69.4558 79.4605C68.9347 79.9665 68.2761 80.2781 67.5776 80.349C67.4768 80.357 67.3738 80.3618 67.2718 80.3618Z" fill="#367CFF"/>
<path d="M56.6839 67.7501L60.3114 67.1268C60.4539 67.1022 60.59 67.0456 60.7108 66.9605C60.8317 66.8754 60.9344 66.7638 61.0124 66.633C61.0904 66.5021 61.1419 66.3551 61.1634 66.2013C61.185 66.0476 61.1762 65.8907 61.1376 65.7409L58.8555 56.9174C58.7879 56.656 58.6334 56.4306 58.4213 56.2841C58.2093 56.1376 57.9546 56.0802 57.7059 56.1229L54.0784 56.7466C53.9359 56.7711 53.7998 56.8277 53.6789 56.9128C53.5581 56.9979 53.4554 57.1095 53.3774 57.2404C53.2994 57.3712 53.2479 57.5183 53.2263 57.672C53.2048 57.8257 53.2136 57.9826 53.2522 58.1324L55.5346 66.9547C55.6019 67.2162 55.7563 67.4419 55.9683 67.5886C56.1803 67.7353 56.4351 67.7928 56.6839 67.7501Z" fill="#C1D8ED"/>
<path d="M89.5503 147.07C84.111 145.591 83.5756 145.37 83.3997 145.298L85.6464 138.977C85.6287 138.969 85.6057 138.96 85.5775 138.95C86.0198 139.107 88.7827 139.881 91.089 140.508L89.5503 147.07Z" fill="#E98862"/>
<path d="M89.3057 155.91C89.2513 156.083 89.1644 156.241 89.0505 156.376C88.9367 156.51 88.7983 156.618 88.644 156.692C88.4897 156.767 88.3228 156.806 88.1538 156.808C87.9848 156.809 87.8172 156.774 87.6617 156.702C87.446 156.604 87.261 156.441 87.1285 156.233C86.996 156.025 86.9214 155.78 86.9136 155.528L86.9178 147.22C86.9183 147.059 86.9511 146.901 87.0139 146.755C87.0767 146.609 87.168 146.48 87.2816 146.375C88.263 145.588 88.9839 144.482 89.3383 143.22C89.5772 142.224 89.5513 141.176 89.2638 140.194C89.2326 140.106 89.2254 140.01 89.243 139.917C89.2607 139.825 89.3024 139.739 89.3634 139.671C89.4244 139.603 89.502 139.555 89.5874 139.533C89.6727 139.511 89.7621 139.515 89.8452 139.546L93.236 140.77C93.336 140.806 93.4283 140.863 93.5078 140.938C93.5873 141.013 93.6523 141.104 93.6991 141.206C93.7459 141.307 93.7736 141.418 93.7805 141.531C93.7874 141.645 93.7735 141.759 93.7396 141.866L89.3057 155.91Z" fill="#C1D8ED"/>
<path d="M74.6611 184.919C74.6611 184.919 74.6401 177.91 74.6401 177.289H80.9242C80.9242 177.908 80.9452 184.895 80.9452 184.895L74.6611 184.919Z" fill="#E98862"/>
<path d="M91.125 87.8677C87.093 83.5251 68.3595 89.3825 68.3595 89.3825L68.3425 89.5085L67.9579 89.2758C63.194 99.5893 56.4473 115.027 51.7782 125.542C51.4216 126.265 51.2068 127.059 51.1471 127.875C51.0873 128.691 51.1839 129.512 51.4308 130.286C51.6777 131.06 52.0697 131.771 52.5825 132.376C53.0952 132.98 53.7178 133.464 54.4115 133.798L74.8049 143.571C73.7576 155.959 72.5555 168.338 71.5542 180.707L82.5409 182.184C84.5375 167.427 86.5906 152.688 88.424 137.913L88.7233 137.188L88.5264 137.094C89.6506 127.991 90.689 118.875 91.5766 109.731C91.7477 107.872 91.8976 105.85 91.9718 103.884C91.9712 103.885 93.2942 90.204 91.125 87.8677ZM64.6229 125.641C68.5543 118.583 73.1794 110.264 77.1839 103.204C76.9786 112.475 76.4684 121.738 75.7981 130.996L64.6229 125.641Z" fill="#262626"/>
<path d="M62.5259 65.438L60.3863 68.5642C60.3863 68.5642 54.6364 67.3227 54.0969 62.5518C54.0346 62.0039 54.0888 60.4826 54.7202 60.6867C56.366 61.2178 58.4143 63.9377 59.8504 64.2996C59.5227 63.6673 59.1229 62.7748 59.3809 62.6117C60.0581 62.1824 61.8834 64.7727 62.5259 65.438Z" fill="#E98862"/>
<path d="M91.4455 55.6195C90.0776 54.1466 87.7166 53.1958 84.8382 53.1926C84.6224 55.0004 74.4302 55.0068 74.3527 53.2342C73.9637 53.2406 73.6615 53.2474 73.473 53.2571C66.5551 53.5794 66.5754 59.5834 67.2559 66.2198L61.564 63.5161L58.9307 69.9456L67.9896 74.2488C67.9956 74.4422 68.0004 74.6356 68.0022 74.829C68.1192 85.291 65.4948 87.2635 66.7876 90.4603C68.0411 93.5643 92.6777 94.8535 93.0072 89.3938C93.2167 85.9195 90.3739 82.8864 90.3739 76.1153C90.3739 69.3442 96.1585 60.6957 91.4455 55.6195Z" fill="#367CFF"/>
<path d="M67.0279 187.673C66.8589 187.672 66.6919 187.633 66.5373 187.56C66.3826 187.486 66.2437 187.379 66.1292 187.246C66.0147 187.112 65.9271 186.954 65.8718 186.782C65.8165 186.61 65.7948 186.427 65.8079 186.246C65.8261 185.994 65.9107 185.754 66.0516 185.552C66.1926 185.351 66.3841 185.197 66.6036 185.108L73.9177 182.47C74.0594 182.419 74.2096 182.402 74.358 182.42C74.5064 182.438 74.6495 182.49 74.7774 182.573C75.783 183.324 76.9858 183.708 78.2091 183.669C79.1619 183.596 80.0765 183.236 80.8484 182.63C80.9163 182.57 80.9986 182.532 81.0857 182.521C81.1727 182.509 81.261 182.525 81.3403 182.565C81.4195 182.606 81.4864 182.67 81.5332 182.75C81.58 182.83 81.6048 182.922 81.6046 183.017V186.87C81.6046 186.984 81.5838 187.096 81.5433 187.201C81.5028 187.306 81.4435 187.401 81.3688 187.482C81.294 187.562 81.2053 187.625 81.1077 187.669C81.01 187.712 80.9055 187.734 80.8 187.733L67.0279 187.673Z" fill="#C1D8ED"/>
<path d="M74.3528 53.2345C74.4303 55.0071 75.3253 57.6145 78.0873 57.8111C81.768 58.0722 84.6225 55.0007 84.8382 53.1926H84.829C81.2054 53.1926 76.4654 53.1991 74.3528 53.2345Z" fill="#E98862"/>
<path d="M165.759 86.243C176.849 86.243 185.839 76.5603 185.839 64.616C185.839 52.6718 176.849 42.989 165.759 42.989C154.669 42.989 145.679 52.6718 145.679 64.616C145.679 76.5603 154.669 86.243 165.759 86.243Z" fill="#F3F5FD"/>
<path d="M173.531 60.7848H172.423V58.1217C172.412 56.2264 171.704 54.413 170.456 53.0773C169.207 51.7416 167.519 50.9919 165.759 50.9919C163.999 50.9919 162.311 51.7416 161.063 53.0773C159.814 54.413 159.107 56.2264 159.095 58.1217V60.7848H157.988V64.8934C158.365 64.8934 158.734 64.773 159.047 64.5472C159.361 64.3215 159.605 64.0007 159.75 63.6253C159.894 63.2499 159.932 62.8369 159.858 62.4384C159.785 62.0399 159.603 61.6738 159.336 61.3865C159.07 61.0992 158.73 60.9036 158.36 60.8243C157.99 60.745 157.606 60.7857 157.258 60.9412C156.909 61.0967 156.611 61.36 156.402 61.6978C156.192 62.0357 156.08 62.4328 156.08 62.8391V76.2308C156.08 76.7757 156.281 77.2982 156.639 77.6835C156.997 78.0687 157.482 78.2852 157.988 78.2852H173.531C174.037 78.2852 174.522 78.0687 174.879 77.6835C175.237 77.2982 175.438 76.7757 175.438 76.2308V62.8404C175.438 62.5705 175.389 62.3033 175.293 62.0539C175.197 61.8045 175.057 61.5779 174.88 61.387C174.703 61.1961 174.492 61.0446 174.261 60.9413C174.029 60.838 173.781 60.7848 173.531 60.7848ZM161.262 58.1217C161.271 56.8438 161.75 55.6217 162.592 54.7217C163.434 53.8218 164.573 53.3168 165.759 53.3168C166.946 53.3168 168.085 53.8218 168.927 54.7217C169.769 55.6217 170.248 56.8438 170.257 58.1217V60.7848H161.262V58.1217Z" fill="#0CBC8B"/>
<path d="M165.759 72.6469C167.283 72.6469 168.519 71.3159 168.519 69.674C168.519 68.0322 167.283 66.7012 165.759 66.7012C164.235 66.7012 162.999 68.0322 162.999 69.674C162.999 71.3159 164.235 72.6469 165.759 72.6469Z" fill="white"/>
<path d="M141.181 151.281C149.41 151.281 156.081 144.096 156.081 135.234C156.081 126.371 149.41 119.187 141.181 119.187C132.953 119.187 126.282 126.371 126.282 135.234C126.282 144.096 132.953 151.281 141.181 151.281Z" fill="#DEE8F5"/>
<path d="M146.947 132.392H146.126V130.416C146.126 129.003 145.605 127.648 144.678 126.65C143.751 125.651 142.493 125.09 141.181 125.09C139.87 125.09 138.612 125.651 137.685 126.65C136.757 127.648 136.236 129.003 136.236 130.416V132.392H135.415V135.44C135.695 135.44 135.969 135.351 136.202 135.184C136.434 135.016 136.616 134.778 136.723 134.499C136.83 134.221 136.858 133.914 136.803 133.619C136.749 133.323 136.614 133.051 136.416 132.838C136.218 132.625 135.966 132.48 135.691 132.421C135.417 132.362 135.132 132.392 134.874 132.508C134.615 132.623 134.394 132.818 134.238 133.069C134.083 133.32 134 133.614 134 133.916V143.853C134 144.053 134.036 144.251 134.108 144.436C134.179 144.621 134.283 144.789 134.414 144.931C134.546 145.072 134.702 145.184 134.874 145.261C135.045 145.337 135.229 145.377 135.415 145.377H146.947C147.323 145.377 147.683 145.216 147.948 144.93C148.214 144.645 148.363 144.257 148.363 143.853V133.916C148.363 133.614 148.28 133.32 148.124 133.069C147.969 132.818 147.748 132.623 147.489 132.508C147.23 132.392 146.946 132.362 146.671 132.421C146.397 132.48 146.144 132.625 145.946 132.838C145.749 133.051 145.614 133.323 145.559 133.619C145.504 133.914 145.533 134.221 145.64 134.499C145.747 134.778 145.928 135.016 146.161 135.184C146.394 135.351 146.667 135.44 146.947 135.44V132.392ZM137.844 130.416C137.844 129.462 138.195 128.548 138.821 127.874C139.447 127.2 140.296 126.821 141.181 126.821C142.066 126.821 142.915 127.2 143.541 127.874C144.167 128.548 144.519 129.462 144.519 130.416V132.392H137.844V130.416Z" fill="#0CBC8B"/>
<path d="M141.181 141.192C142.312 141.192 143.229 140.205 143.229 138.987C143.229 137.768 142.312 136.781 141.181 136.781C140.05 136.781 139.133 137.768 139.133 138.987C139.133 140.205 140.05 141.192 141.181 141.192Z" fill="white"/>
</g>
<defs>
<clipPath id="clip0_2_39301">
<rect width="268" height="189" fill="white"/>
</clipPath>
</defs>
</svg>
