<svg width="188" height="169" viewBox="0 0 188 169" fill="none" xmlns="http://www.w3.org/2000/svg">
<g clip-path="url(#clip0_312_34322)">
<path d="M136.258 117.766L146.826 95.1512L162.915 88.2515L188 98.8389L172.087 132.887L136.258 117.766Z" fill="#F4F4F4"/>
<path opacity="0.05" d="M175.112 113.907L149.463 103.013C149.213 102.907 148.92 103.014 148.809 103.251L148.808 103.251C148.697 103.489 148.809 103.767 149.059 103.873L174.707 114.767C174.957 114.873 175.25 114.766 175.362 114.529L175.362 114.529C175.474 114.291 175.361 114.013 175.112 113.907Z" fill="#292A2E"/>
<path opacity="0.05" d="M172.956 118.796L147.308 107.902C147.058 107.796 146.765 107.903 146.653 108.14L146.653 108.14C146.542 108.378 146.654 108.656 146.903 108.762L172.552 119.656C172.802 119.762 173.095 119.656 173.207 119.418L173.207 119.418C173.318 119.181 173.206 118.902 172.956 118.796Z" fill="#292A2E"/>
<path opacity="0.05" d="M160.057 119.208L145.107 112.904C144.987 112.853 144.851 112.849 144.728 112.894C144.605 112.938 144.506 113.027 144.452 113.141C144.426 113.198 144.411 113.259 144.409 113.32C144.408 113.382 144.419 113.444 144.442 113.502C144.465 113.559 144.5 113.612 144.545 113.657C144.59 113.702 144.643 113.738 144.703 113.763L159.652 120.068C159.772 120.119 159.908 120.123 160.031 120.078C160.154 120.033 160.253 119.944 160.307 119.83C160.36 119.716 160.364 119.587 160.317 119.47C160.27 119.353 160.176 119.259 160.057 119.208Z" fill="#292A2E"/>
<path opacity="0.4" d="M162.915 88.2515L157.717 99.7357L146.826 95.1512L162.915 88.2515Z" fill="white"/>
<path d="M8.42396 62.286L2.55859 38.1779L11.0478 23.4708L37.7902 17.5955L46.6193 53.8935L8.42396 62.286Z" fill="#F4F4F4"/>
<path opacity="0.05" d="M37.0265 36.9993L9.6403 42.9524C9.37351 43.0104 9.2067 43.2629 9.26772 43.5165L9.26777 43.5166C9.3288 43.7702 9.59455 43.9287 9.86134 43.8707L37.2475 37.9177C37.5143 37.8597 37.6811 37.6071 37.6201 37.3536L37.62 37.3534C37.559 37.0998 37.2933 36.9413 37.0265 36.9993Z" fill="#292A2E"/>
<path opacity="0.05" d="M38.3985 42.1375L11.0124 48.0905C10.7456 48.1485 10.5788 48.4011 10.6398 48.6546L10.6398 48.6548C10.7009 48.9084 10.9666 49.0669 11.2334 49.0089L38.6196 43.0558C38.8864 42.9979 39.0532 42.7453 38.9921 42.4918L38.9921 42.4916C38.9311 42.238 38.6653 42.0795 38.3985 42.1375Z" fill="#292A2E"/>
<path opacity="0.05" d="M28.3514 49.839L12.4177 53.3449C12.2895 53.3727 12.1782 53.4477 12.1082 53.5535C12.0383 53.6593 12.0154 53.7872 12.0446 53.909C12.0591 53.9693 12.0859 54.0264 12.1236 54.0769C12.1613 54.1274 12.2091 54.1703 12.2642 54.2032C12.3194 54.2361 12.3808 54.2584 12.445 54.2688C12.5092 54.2791 12.5749 54.2773 12.6384 54.2635L28.5721 50.7576C28.7003 50.7298 28.8117 50.6547 28.8816 50.5488C28.9516 50.443 28.9744 50.3151 28.9452 50.1933C28.9159 50.0715 28.8368 49.9658 28.7255 49.8993C28.6141 49.8329 28.4796 49.8112 28.3514 49.839Z" fill="#292A2E"/>
<path opacity="0.4" d="M11.0478 23.4707L14.1615 35.6171L2.55859 38.1778L11.0478 23.4707Z" fill="white"/>
<path d="M135.756 136.189H28.6008C27.1545 136.189 25.7675 135.643 24.7448 134.671C23.7221 133.699 23.1475 132.381 23.1475 131.007L26.8781 16.0535H144.733L141.209 131.007C141.209 131.687 141.068 132.361 140.794 132.99C140.52 133.619 140.118 134.19 139.612 134.672C139.105 135.153 138.504 135.534 137.843 135.795C137.181 136.055 136.472 136.189 135.756 136.189Z" fill="#292A2E"/>
<path opacity="0.9" d="M135.756 136.189H28.6008C27.1545 136.189 25.7675 135.643 24.7448 134.671C23.7221 133.699 23.1475 132.381 23.1475 131.007L26.8781 16.0535H144.733L141.209 131.007C141.209 131.687 141.068 132.361 140.794 132.99C140.52 133.619 140.118 134.19 139.612 134.672C139.105 135.153 138.504 135.534 137.843 135.795C137.181 136.055 136.472 136.189 135.756 136.189Z" fill="white"/>
<path d="M135.756 136.386H28.6012C27.1004 136.384 25.6616 135.817 24.6003 134.809C23.5391 133.8 22.9421 132.433 22.9404 131.007L26.6711 15.8564H144.94L141.417 131.007C141.415 132.433 140.818 133.8 139.757 134.809C138.696 135.817 137.257 136.384 135.756 136.386ZM27.0854 16.2504L23.3547 131.007C23.3563 132.328 23.9096 133.596 24.8932 134.53C25.8768 135.465 27.2103 135.991 28.6012 135.992H135.756C137.147 135.991 138.48 135.465 139.464 134.53C140.447 133.596 141 132.328 141.002 131.007L144.525 16.2504H27.0854Z" fill="#292A2E"/>
<path d="M139.694 4.65527H32.539C31.0381 4.65684 29.5992 5.22412 28.538 6.23265C27.4767 7.24118 26.8798 8.6086 26.8782 10.0349L26.6709 16.2504H144.94L145.354 10.0349C145.353 8.6086 144.756 7.24118 143.695 6.23265C142.633 5.22412 141.194 4.65684 139.694 4.65527Z" fill="#0C0C0C"/>
<path d="M141.766 4.65527H33.3678C31.867 4.65684 30.4281 5.22412 29.3669 6.23265C28.3056 7.24118 27.7087 8.6086 27.707 10.0349V16.2504H147.427V10.0349C147.425 8.6086 146.828 7.24118 145.767 6.23265C144.706 5.22412 143.267 4.65684 141.766 4.65527Z" fill="#292A2E"/>
<path d="M27.9141 16.0525H147.219V132.976C147.219 134.351 146.645 135.669 145.622 136.641C144.599 137.613 143.212 138.159 141.766 138.159H33.3678C31.9215 138.159 30.5344 137.613 29.5117 136.641C28.489 135.669 27.9145 134.351 27.9145 132.976V16.0525H27.9141Z" fill="white"/>
<path d="M141.766 138.356H33.3678C31.867 138.354 30.4282 137.787 29.3669 136.778C28.3057 135.77 27.7087 134.402 27.707 132.976V15.8564H147.427V132.976C147.425 134.402 146.828 135.77 145.767 136.778C144.706 137.787 143.267 138.354 141.766 138.356ZM28.1213 16.2504V132.976C28.1229 134.298 28.6762 135.565 29.6598 136.5C30.6434 137.435 31.9769 137.96 33.3678 137.962H141.766C143.157 137.96 144.49 137.434 145.474 136.5C146.457 135.565 147.011 134.298 147.012 132.976V16.2504H28.1213Z" fill="#292A2E"/>
<path d="M49.0472 40.3346H37.1384C36.4747 40.334 35.8383 40.0831 35.3689 39.6371C34.8996 39.1911 34.6355 38.5863 34.6348 37.9555V26.6381C34.6355 26.0073 34.8996 25.4026 35.3689 24.9566C35.8383 24.5106 36.4747 24.2597 37.1384 24.259H49.0472C49.7109 24.2598 50.3472 24.5107 50.8166 24.9567C51.2859 25.4027 51.5499 26.0074 51.5507 26.6381V37.9555C51.5499 38.5863 51.2859 39.191 50.8166 39.637C50.3472 40.083 49.7109 40.3339 49.0472 40.3346ZM37.1384 24.653C36.5846 24.6535 36.0536 24.8629 35.6619 25.235C35.2703 25.6072 35.0499 26.1118 35.0493 26.6381V37.9555C35.0499 38.4819 35.2703 38.9865 35.6619 39.3586C36.0536 39.7308 36.5846 39.9401 37.1384 39.9407H49.0472C49.601 39.9401 50.132 39.7307 50.5236 39.3586C50.9152 38.9864 51.1355 38.4818 51.1361 37.9555V26.6381C51.1355 26.1118 50.9152 25.6072 50.5236 25.2351C50.132 24.8629 49.601 24.6536 49.0472 24.653H37.1384Z" fill="#292A2E"/>
<path d="M49.0472 62.7563H37.1384C36.4747 62.7556 35.8383 62.5048 35.3689 62.0588C34.8996 61.6128 34.6355 61.008 34.6348 60.3772V49.06C34.6353 48.4291 34.8992 47.8241 35.3686 47.3779C35.838 46.9317 36.4745 46.6807 37.1384 46.6799H49.0472C49.711 46.6807 50.3473 46.9316 50.8166 47.3776C51.286 47.8237 51.5499 48.4284 51.5507 49.0592V60.3764C51.5501 61.0073 51.2862 61.6122 50.8169 62.0584C50.3475 62.5046 49.7111 62.7556 49.0472 62.7563ZM37.1384 47.0739C36.5846 47.0745 36.0536 47.2839 35.6619 47.656C35.2703 48.0282 35.0499 48.5329 35.0493 49.0592V60.3764C35.0499 60.9028 35.2703 61.4074 35.6619 61.7795C36.0536 62.1517 36.5846 62.361 37.1384 62.3616H49.0472C49.601 62.361 50.132 62.1517 50.5236 61.7795C50.9153 61.4074 51.1355 60.9028 51.1361 60.3764V49.06C51.1358 48.5335 50.9156 48.0287 50.5239 47.6563C50.1323 47.284 49.6012 47.0745 49.0472 47.0739H37.1384Z" fill="#292A2E"/>
<path d="M49.0472 85.1779H37.1384C36.4747 85.1773 35.8383 84.9264 35.3689 84.4804C34.8996 84.0344 34.6355 83.4296 34.6348 82.7988V71.4816C34.6355 70.8509 34.8996 70.2461 35.3689 69.8001C35.8383 69.3541 36.4747 69.1032 37.1384 69.1025H49.0472C49.7109 69.1033 50.3472 69.3542 50.8166 69.8002C51.2859 70.2462 51.5499 70.8509 51.5507 71.4816V82.7988C51.5499 83.4296 51.2859 84.0343 50.8166 84.4803C50.3472 84.9263 49.7109 85.1772 49.0472 85.1779ZM37.1384 69.4965C36.5846 69.497 36.0536 69.7064 35.6619 70.0785C35.2703 70.4507 35.0499 70.9553 35.0493 71.4816V82.7988C35.0499 83.3252 35.2703 83.8298 35.6619 84.202C36.0536 84.5741 36.5846 84.7834 37.1384 84.784H49.0472C49.601 84.7834 50.132 84.5741 50.5236 84.2019C50.9153 83.8298 51.1355 83.3252 51.1361 82.7988V71.4816C51.1355 70.9553 50.9153 70.4507 50.5236 70.0785C50.132 69.7064 49.601 69.497 49.0472 69.4965H37.1384Z" fill="#292A2E"/>
<path d="M49.0472 107.292H37.1384C36.4747 107.291 35.8383 107.04 35.3689 106.594C34.8996 106.148 34.6355 105.543 34.6348 104.913V93.5961C34.6355 92.9653 34.8996 92.3605 35.3689 91.9145C35.8383 91.4684 36.4747 91.2175 37.1384 91.2168H49.0472C49.711 91.2175 50.3473 91.4684 50.8166 91.9145C51.286 92.3605 51.5499 92.9653 51.5507 93.5961V104.913C51.5497 105.544 51.2856 106.148 50.8163 106.594C50.347 107.04 49.7108 107.291 49.0472 107.292ZM37.1384 91.6099C36.5845 91.6105 36.0535 91.8199 35.6618 92.1921C35.2702 92.5643 35.0499 93.0689 35.0493 93.5953V104.913C35.0499 105.439 35.2703 105.943 35.6619 106.316C36.0536 106.688 36.5846 106.897 37.1384 106.898H49.0472C49.601 106.897 50.132 106.688 50.5236 106.316C50.9152 105.943 51.1355 105.439 51.1361 104.913V93.5961C51.1356 93.0697 50.9153 92.5651 50.5237 92.1929C50.1321 91.8207 49.6011 91.6113 49.0472 91.6107L37.1384 91.6099Z" fill="#292A2E"/>
<path d="M49.0472 129.405H37.1384C36.4747 129.405 35.8383 129.154 35.3689 128.708C34.8996 128.262 34.6355 127.657 34.6348 127.026V115.709C34.6355 115.078 34.8996 114.473 35.3689 114.027C35.8383 113.581 36.4747 113.33 37.1384 113.33H49.0472C49.711 113.33 50.3473 113.581 50.8166 114.027C51.286 114.473 51.5499 115.078 51.5507 115.709V127.026C51.5499 127.657 51.286 128.262 50.8166 128.708C50.3473 129.154 49.711 129.405 49.0472 129.405ZM37.1384 113.724C36.5846 113.724 36.0536 113.934 35.6619 114.306C35.2703 114.678 35.0499 115.183 35.0493 115.709V127.026C35.0499 127.552 35.2703 128.057 35.6619 128.429C36.0536 128.801 36.5846 129.011 37.1384 129.011H49.0472C49.6011 129.011 50.132 128.801 50.5237 128.429C50.9153 128.057 51.1355 127.552 51.1361 127.026V115.709C51.1355 115.183 50.9153 114.678 50.5237 114.306C50.132 113.934 49.6011 113.724 49.0472 113.724H37.1384Z" fill="#292A2E"/>
<path d="M40.9746 36.8246C40.7604 36.8248 40.5544 36.7459 40.4003 36.6045L36.9291 33.4335C36.8495 33.3621 36.7855 33.2763 36.7408 33.1813C36.6962 33.0862 36.6719 32.9837 36.6692 32.8796C36.6665 32.7756 36.6856 32.672 36.7252 32.575C36.7649 32.478 36.8244 32.3894 36.9003 32.3143C36.9762 32.2393 37.067 32.1793 37.1675 32.1378C37.2679 32.0963 37.376 32.0741 37.4856 32.0726C37.5951 32.071 37.7038 32.0901 37.8056 32.1287C37.9073 32.1674 37.9999 32.2247 38.0782 32.2976L40.9605 34.9304L48.1871 28.0025C48.2635 27.9277 48.3546 27.8682 48.4553 27.8271C48.5561 27.7861 48.6644 27.7645 48.7739 27.7635C48.8835 27.7625 48.9922 27.7821 49.0937 27.8213C49.1953 27.8605 49.2876 27.9184 49.3655 27.9917C49.4433 28.065 49.5051 28.1522 49.5472 28.2484C49.5893 28.3445 49.611 28.4476 49.6109 28.5518C49.6109 28.6559 49.5891 28.759 49.5468 28.8551C49.5046 28.9512 49.4427 29.0383 49.3648 29.1115L41.5648 36.5912C41.4877 36.6653 41.3957 36.7242 41.2944 36.7643C41.1931 36.8043 41.0843 36.8248 40.9746 36.8246Z" fill="#367CFF"/>
<path d="M40.9738 59.246C40.7596 59.2462 40.5537 59.1673 40.3995 59.026L36.9284 55.8549C36.7699 55.7101 36.6783 55.5114 36.674 55.3025C36.6696 55.0936 36.7528 54.8916 36.9052 54.7409C37.0575 54.5903 37.2666 54.5033 37.4865 54.4992C37.7063 54.495 37.9189 54.574 38.0774 54.7188L40.9597 57.3516L48.1864 50.4241C48.3417 50.2782 48.5513 50.1964 48.7697 50.1965C48.9881 50.1967 49.1976 50.2787 49.3528 50.4248C49.5079 50.5709 49.5961 50.7692 49.5982 50.9768C49.6003 51.1843 49.5161 51.3843 49.364 51.5332L41.5641 59.0128C41.4869 59.0869 41.395 59.1458 41.2936 59.1858C41.1923 59.2258 41.0836 59.2463 40.9738 59.246Z" fill="#367CFF"/>
<path d="M40.9738 81.6681C40.7596 81.6683 40.5537 81.5895 40.3995 81.4483L36.9284 78.2772C36.7699 78.1324 36.6783 77.9337 36.674 77.7248C36.6696 77.5158 36.7528 77.3138 36.9052 77.1632C37.0575 77.0125 37.2666 76.9256 37.4865 76.9214C37.7063 76.9173 37.9189 76.9963 38.0774 77.1411L40.9597 79.7739L48.1864 72.846C48.3417 72.7001 48.5513 72.6183 48.7697 72.6184C48.9881 72.6185 49.1976 72.7006 49.3528 72.8467C49.5079 72.9928 49.5961 73.1911 49.5982 73.3987C49.6003 73.6062 49.5161 73.8062 49.364 73.9551L41.5641 81.4347C41.4869 81.5089 41.395 81.5677 41.2937 81.6078C41.1923 81.6479 41.0836 81.6684 40.9738 81.6681Z" fill="#367CFF"/>
<path opacity="0.5" d="M138.266 28.7927H58.0599C57.7404 28.7927 57.4814 29.0388 57.4814 29.3424C57.4814 29.646 57.7404 29.8922 58.0599 29.8922H138.266C138.585 29.8922 138.844 29.646 138.844 29.3424C138.844 29.0388 138.585 28.7927 138.266 28.7927Z" fill="#262626"/>
<path opacity="0.5" d="M105.105 34.7017H58.0599C57.7404 34.7017 57.4814 34.9478 57.4814 35.2514C57.4814 35.555 57.7404 35.8011 58.0599 35.8011H105.105C105.424 35.8011 105.683 35.555 105.683 35.2514C105.683 34.9478 105.424 34.7017 105.105 34.7017Z" fill="#262626"/>
<path opacity="0.5" d="M138.266 51.2144H58.0599C57.7404 51.2144 57.4814 51.4605 57.4814 51.7641C57.4814 52.0677 57.7404 52.3138 58.0599 52.3138H138.266C138.585 52.3138 138.844 52.0677 138.844 51.7641C138.844 51.4605 138.585 51.2144 138.266 51.2144Z" fill="#262626"/>
<path opacity="0.5" d="M105.105 57.1233H58.0599C57.7404 57.1233 57.4814 57.3694 57.4814 57.673C57.4814 57.9766 57.7404 58.2227 58.0599 58.2227H105.105C105.424 58.2227 105.683 57.9766 105.683 57.673C105.683 57.3694 105.424 57.1233 105.105 57.1233Z" fill="#262626"/>
<path opacity="0.5" d="M138.266 73.636H58.0599C57.7404 73.636 57.4814 73.8821 57.4814 74.1857C57.4814 74.4893 57.7404 74.7354 58.0599 74.7354H138.266C138.585 74.7354 138.844 74.4893 138.844 74.1857C138.844 73.8821 138.585 73.636 138.266 73.636Z" fill="#262626"/>
<path opacity="0.5" d="M105.105 79.5449H58.0599C57.7404 79.5449 57.4814 79.791 57.4814 80.0946C57.4814 80.3982 57.7404 80.6444 58.0599 80.6444H105.105C105.424 80.6444 105.683 80.3982 105.683 80.0946C105.683 79.791 105.424 79.5449 105.105 79.5449Z" fill="#262626"/>
<path opacity="0.5" d="M138.266 95.7498H58.0599C57.7404 95.7498 57.4814 95.9959 57.4814 96.2995C57.4814 96.6031 57.7404 96.8492 58.0599 96.8492H138.266C138.585 96.8492 138.844 96.6031 138.844 96.2995C138.844 95.9959 138.585 95.7498 138.266 95.7498Z" fill="#262626"/>
<path opacity="0.5" d="M105.105 101.658H58.0599C57.7404 101.658 57.4814 101.905 57.4814 102.208C57.4814 102.512 57.7404 102.758 58.0599 102.758H105.105C105.424 102.758 105.683 102.512 105.683 102.208C105.683 101.905 105.424 101.658 105.105 101.658Z" fill="#262626"/>
<path opacity="0.5" d="M138.266 117.863H58.0599C57.7404 117.863 57.4814 118.109 57.4814 118.413C57.4814 118.717 57.7404 118.963 58.0599 118.963H138.266C138.585 118.963 138.844 118.717 138.844 118.413C138.844 118.109 138.585 117.863 138.266 117.863Z" fill="#262626"/>
<path opacity="0.5" d="M105.105 123.772H58.0599C57.7404 123.772 57.4814 124.018 57.4814 124.322C57.4814 124.625 57.7404 124.871 58.0599 124.871H105.105C105.424 124.871 105.683 124.625 105.683 124.322C105.683 124.018 105.424 123.772 105.105 123.772Z" fill="#262626"/>
<path d="M42.2501 1.17454e-07C40.9514 0.00140762 39.7063 0.492315 38.7879 1.36503C37.8696 2.23774 37.353 3.42098 37.3516 4.65518H37.7661C37.766 3.83744 38.0135 3.03694 38.479 2.34921C38.9446 1.66149 39.6085 1.11559 40.3916 0.776663C41.1747 0.437738 42.0439 0.320102 42.8954 0.437794C43.747 0.555487 44.5449 0.903537 45.1939 1.44041C45.843 1.97728 46.3158 2.68029 46.5559 3.46555C46.7961 4.25081 46.7934 5.08514 46.5482 5.86898C46.303 6.65282 45.8256 7.35306 45.1731 7.88612C44.5205 8.41919 43.7204 8.76257 42.8681 8.87528C42.7963 8.73463 42.6739 8.62304 42.5231 8.56071C42.3722 8.49837 42.2029 8.48941 42.0457 8.53543C41.8885 8.58146 41.7538 8.67943 41.666 8.81164C41.5782 8.94384 41.5431 9.10153 41.5671 9.25619C41.591 9.41085 41.6724 9.55225 41.7965 9.65483C41.9207 9.7574 42.0793 9.81436 42.2438 9.81541C42.4083 9.81646 42.5678 9.76153 42.6933 9.66055C42.8189 9.55956 42.9023 9.41921 42.9284 9.26487C44.1569 9.10188 45.2746 8.50203 46.0558 7.58642C46.837 6.6708 47.2236 5.50762 47.1375 4.33169C47.0514 3.15575 46.499 2.05466 45.5919 1.25068C44.6848 0.446707 43.4905 -0.000264529 42.2501 1.17454e-07Z" fill="#F4F4F4"/>
<path d="M137.782 4.65518C137.782 3.42055 137.266 2.23649 136.348 1.36347C135.429 0.490455 134.183 0 132.884 0C131.585 0 130.339 0.490455 129.42 1.36347C128.501 2.23649 127.985 3.42055 127.985 4.65518H128.4C128.4 3.83744 128.647 3.03694 129.113 2.34921C129.578 1.66149 130.242 1.11559 131.025 0.776663C131.809 0.437738 132.678 0.320101 133.529 0.437794C134.381 0.555486 135.179 0.903537 135.828 1.44041C136.477 1.97728 136.95 2.68029 137.19 3.46555C137.43 4.25081 137.427 5.08514 137.182 5.86898C136.937 6.65282 136.459 7.35306 135.807 7.88612C135.154 8.41919 134.354 8.76257 133.502 8.87528C133.43 8.73463 133.308 8.62304 133.157 8.56071C133.006 8.49837 132.837 8.48941 132.679 8.53543C132.522 8.58146 132.388 8.67943 132.3 8.81164C132.212 8.94384 132.177 9.10153 132.201 9.25619C132.225 9.41085 132.306 9.55225 132.43 9.65483C132.554 9.7574 132.713 9.81436 132.878 9.81541C133.042 9.81646 133.202 9.76153 133.327 9.66055C133.453 9.55956 133.536 9.41921 133.562 9.26487C134.732 9.10808 135.803 8.55552 136.578 7.7087C137.353 6.86187 137.781 5.77765 137.782 4.65518Z" fill="#F4F4F4"/>
<path d="M124.834 4.65513C124.826 3.42572 124.306 2.24938 123.388 1.38287C122.471 0.516358 121.229 0.0300293 119.936 0.0300293C118.642 0.0300293 117.401 0.516358 116.483 1.38287C115.565 2.24938 115.046 3.42572 115.037 4.65513H115.452C115.451 3.83733 115.699 3.03676 116.164 2.34897C116.63 1.66118 117.294 1.11522 118.077 0.77625C118.86 0.437281 119.73 0.31962 120.581 0.43731C121.433 0.555 122.231 0.90307 122.88 1.43998C123.529 1.97688 124.002 2.67995 124.242 3.46527C124.482 4.25058 124.479 5.08498 124.234 5.86887C123.989 6.65275 123.511 7.35302 122.859 7.8861C122.206 8.41918 121.406 8.76255 120.554 8.87522C120.482 8.73457 120.359 8.62299 120.209 8.56065C120.058 8.49832 119.888 8.48935 119.731 8.53538C119.574 8.5814 119.439 8.67938 119.352 8.81158C119.264 8.94378 119.229 9.10147 119.253 9.25613C119.277 9.41079 119.358 9.5522 119.482 9.65477C119.606 9.75735 119.765 9.81431 119.929 9.81536C120.094 9.81641 120.253 9.76147 120.379 9.66049C120.504 9.55951 120.588 9.41915 120.614 9.26481C121.784 9.10807 122.854 8.55553 123.63 7.7087C124.405 6.86187 124.833 5.77762 124.834 4.65513Z" fill="#F4F4F4"/>
<path d="M111.887 4.65513C111.879 3.42572 111.359 2.24938 110.441 1.38287C109.523 0.516358 108.282 0.0300293 106.988 0.0300293C105.695 0.0300293 104.454 0.516358 103.536 1.38287C102.618 2.24938 102.098 3.42572 102.09 4.65513H102.504C102.504 3.83738 102.752 3.03686 103.217 2.34911C103.683 1.66136 104.347 1.11542 105.13 0.776448C105.913 0.437473 106.782 0.319777 107.634 0.437406C108.485 0.555034 109.283 0.903019 109.932 1.43983C110.581 1.97665 111.054 2.67962 111.294 3.46486C111.535 4.2501 111.532 5.08444 111.287 5.86832C111.042 6.6522 110.565 7.35251 109.912 7.88568C109.26 8.41885 108.46 8.76237 107.607 8.87522C107.536 8.73457 107.413 8.62299 107.262 8.56065C107.112 8.49832 106.942 8.48935 106.785 8.53538C106.628 8.5814 106.493 8.67938 106.405 8.81158C106.318 8.94378 106.282 9.10147 106.306 9.25613C106.33 9.41079 106.412 9.5522 106.536 9.65477C106.66 9.75735 106.819 9.81431 106.983 9.81536C107.148 9.81641 107.307 9.76147 107.433 9.66049C107.558 9.55951 107.642 9.41915 107.668 9.26481C108.837 9.10785 109.908 8.55522 110.683 7.70841C111.458 6.8616 111.886 5.77747 111.887 4.65513Z" fill="#F4F4F4"/>
<path d="M98.9396 4.65518C98.9396 3.42055 98.4235 2.23649 97.5049 1.36347C96.5862 0.490455 95.3403 0 94.0411 0C92.7419 0 91.496 0.490455 90.5773 1.36347C89.6587 2.23649 89.1426 3.42055 89.1426 4.65518H89.5571C89.557 3.83744 89.8045 3.03694 90.27 2.34921C90.7356 1.66149 91.3995 1.11559 92.1826 0.776663C92.9657 0.437738 93.8349 0.320101 94.6864 0.437794C95.538 0.555486 96.3359 0.903537 96.985 1.44041C97.634 1.97728 98.1068 2.68029 98.347 3.46555C98.5871 4.25081 98.5844 5.08514 98.3392 5.86898C98.094 6.65282 97.6166 7.35306 96.9641 7.88612C96.3116 8.41919 95.5114 8.76257 94.6591 8.87528C94.5874 8.73454 94.465 8.62284 94.3142 8.5604C94.1633 8.49797 93.9939 8.4889 93.8366 8.53486C93.6793 8.58082 93.5446 8.67876 93.4567 8.81096C93.3688 8.94317 93.3336 9.1009 93.3575 9.25562C93.3813 9.41035 93.4627 9.55184 93.5868 9.6545C93.7109 9.75716 93.8696 9.81422 94.0342 9.81533C94.1987 9.81645 94.3583 9.76156 94.4839 9.66059C94.6096 9.55963 94.693 9.41925 94.7192 9.26487C95.8888 9.10812 96.9596 8.55559 97.7349 7.70876C98.5103 6.86193 98.938 5.77768 98.9396 4.65518Z" fill="#F4F4F4"/>
<path d="M85.9916 4.65513C85.9832 3.42572 85.4633 2.24938 84.5456 1.38287C83.6278 0.516358 82.3867 0.0300293 81.093 0.0300293C79.7993 0.0300293 78.5581 0.516358 77.6403 1.38287C76.7226 2.24938 76.2028 3.42572 76.1943 4.65513H76.6088C76.6087 3.83733 76.8562 3.03676 77.3217 2.34897C77.7873 1.66118 78.4513 1.11522 79.2344 0.77625C80.0176 0.437281 80.8868 0.31962 81.7384 0.43731C82.59 0.555 83.3879 0.90307 84.0371 1.43998C84.6862 1.97688 85.159 2.67995 85.3991 3.46527C85.6393 4.25058 85.6366 5.08498 85.3913 5.86887C85.1461 6.65275 84.6687 7.35302 84.0161 7.8861C83.3635 8.41918 82.5632 8.76255 81.7109 8.87522C81.6391 8.73457 81.5167 8.62299 81.3659 8.56065C81.215 8.49832 81.0457 8.48935 80.8885 8.53538C80.7313 8.5814 80.5966 8.67938 80.5088 8.81158C80.421 8.94378 80.3859 9.10147 80.4098 9.25613C80.4338 9.41079 80.5152 9.5522 80.6393 9.65477C80.7635 9.75735 80.9221 9.81431 81.0866 9.81536C81.2511 9.81641 81.4106 9.76147 81.5361 9.66049C81.6617 9.55951 81.7451 9.41915 81.7712 9.26481C82.9408 9.10807 84.0116 8.55553 84.7869 7.7087C85.5622 6.86187 85.99 5.77762 85.9916 4.65513Z" fill="#F4F4F4"/>
<path d="M73.0441 4.65518C73.0441 3.42055 72.528 2.23649 71.6094 1.36347C70.6907 0.490456 69.4448 0 68.1456 0C66.8464 0 65.6005 0.490456 64.6818 1.36347C63.7632 2.23649 63.2471 3.42055 63.2471 4.65518H63.6616C63.6615 3.83744 63.909 3.03694 64.3745 2.34921C64.8401 1.66149 65.504 1.11559 66.2871 0.776663C67.0702 0.437737 67.9394 0.320101 68.7909 0.437794C69.6425 0.555486 70.4404 0.903536 71.0894 1.44041C71.7385 1.97728 72.2113 2.68029 72.4515 3.46555C72.6916 4.25081 72.6889 5.08514 72.4437 5.86898C72.1985 6.65282 71.7211 7.35306 71.0686 7.88613C70.4161 8.41919 69.6159 8.76257 68.7636 8.87528C68.6919 8.73454 68.5695 8.62285 68.4187 8.56041C68.2678 8.49797 68.0984 8.48891 67.9411 8.53486C67.7838 8.58082 67.6491 8.67876 67.5612 8.81097C67.4733 8.94317 67.4381 9.1009 67.462 9.25562C67.4858 9.41035 67.5672 9.55184 67.6913 9.6545C67.8154 9.75717 67.9741 9.81422 68.1387 9.81533C68.3032 9.81645 68.4628 9.76156 68.5884 9.66059C68.7141 9.55963 68.7975 9.41925 68.8237 9.26487C69.9933 9.10813 71.0641 8.55559 71.8394 7.70876C72.6148 6.86193 73.0425 5.77768 73.0441 4.65518Z" fill="#F4F4F4"/>
<path d="M60.0961 4.65513C60.0877 3.42572 59.5678 2.24938 58.6501 1.38287C57.7323 0.516358 56.4912 0.0300293 55.1975 0.0300293C53.9037 0.0300293 52.6626 0.516358 51.7448 1.38287C50.8271 2.24938 50.3072 3.42572 50.2988 4.65513H50.7133C50.7132 3.83733 50.9607 3.03676 51.4262 2.34897C51.8918 1.66118 52.5558 1.11522 53.3389 0.77625C54.122 0.437281 54.9913 0.31962 55.8429 0.43731C56.6945 0.555 57.4924 0.90307 58.1416 1.43998C58.7907 1.97688 59.2635 2.67995 59.5036 3.46527C59.7438 4.25058 59.7411 5.08498 59.4958 5.86887C59.2506 6.65275 58.7732 7.35302 58.1206 7.8861C57.468 8.41918 56.6677 8.76255 55.8154 8.87522C55.7436 8.73457 55.6212 8.62299 55.4703 8.56065C55.3195 8.49832 55.1502 8.48935 54.993 8.53538C54.8357 8.5814 54.7011 8.67938 54.6133 8.81158C54.5255 8.94378 54.4904 9.10147 54.5143 9.25613C54.5383 9.41079 54.6197 9.5522 54.7438 9.65477C54.8679 9.75735 55.0266 9.81431 55.1911 9.81536C55.3556 9.81641 55.515 9.76147 55.6406 9.66049C55.7662 9.55951 55.8496 9.41915 55.8757 9.26481C57.0453 9.10807 58.1161 8.55553 58.8914 7.7087C59.6667 6.86187 60.0945 5.77762 60.0961 4.65513Z" fill="#F4F4F4"/>
<g opacity="0.6">
<path opacity="0.6" d="M42.2501 1.17454e-07C40.9514 0.00140762 39.7063 0.492315 38.7879 1.36503C37.8696 2.23774 37.353 3.42098 37.3516 4.65518H37.7661C37.766 3.83744 38.0135 3.03694 38.479 2.34921C38.9446 1.66149 39.6085 1.11559 40.3916 0.776663C41.1747 0.437738 42.0439 0.320102 42.8954 0.437794C43.747 0.555487 44.5449 0.903537 45.1939 1.44041C45.843 1.97728 46.3158 2.68029 46.5559 3.46555C46.7961 4.25081 46.7934 5.08514 46.5482 5.86898C46.303 6.65282 45.8256 7.35306 45.1731 7.88612C44.5205 8.41919 43.7204 8.76257 42.8681 8.87528C42.7963 8.73463 42.6739 8.62304 42.5231 8.56071C42.3722 8.49837 42.2029 8.48941 42.0457 8.53543C41.8885 8.58146 41.7538 8.67943 41.666 8.81164C41.5782 8.94384 41.5431 9.10153 41.5671 9.25619C41.591 9.41085 41.6724 9.55225 41.7965 9.65483C41.9207 9.7574 42.0793 9.81436 42.2438 9.81541C42.4083 9.81646 42.5678 9.76153 42.6933 9.66055C42.8189 9.55956 42.9023 9.41921 42.9284 9.26487C44.1569 9.10188 45.2746 8.50203 46.0558 7.58642C46.837 6.6708 47.2236 5.50762 47.1375 4.33169C47.0514 3.15575 46.499 2.05466 45.5919 1.25068C44.6848 0.446707 43.4905 -0.000264529 42.2501 1.17454e-07Z" fill="#292A2E"/>
<path opacity="0.6" d="M137.782 4.65518C137.782 3.42055 137.266 2.23649 136.348 1.36347C135.429 0.490455 134.183 0 132.884 0C131.585 0 130.339 0.490455 129.42 1.36347C128.501 2.23649 127.985 3.42055 127.985 4.65518H128.4C128.4 3.83744 128.647 3.03694 129.113 2.34921C129.578 1.66149 130.242 1.11559 131.025 0.776663C131.809 0.437738 132.678 0.320101 133.529 0.437794C134.381 0.555486 135.179 0.903537 135.828 1.44041C136.477 1.97728 136.95 2.68029 137.19 3.46555C137.43 4.25081 137.427 5.08514 137.182 5.86898C136.937 6.65282 136.459 7.35306 135.807 7.88612C135.154 8.41919 134.354 8.76257 133.502 8.87528C133.43 8.73463 133.308 8.62304 133.157 8.56071C133.006 8.49837 132.837 8.48941 132.679 8.53543C132.522 8.58146 132.388 8.67943 132.3 8.81164C132.212 8.94384 132.177 9.10153 132.201 9.25619C132.225 9.41085 132.306 9.55225 132.43 9.65483C132.554 9.7574 132.713 9.81436 132.878 9.81541C133.042 9.81646 133.202 9.76153 133.327 9.66055C133.453 9.55956 133.536 9.41921 133.562 9.26487C134.732 9.10808 135.803 8.55552 136.578 7.7087C137.353 6.86187 137.781 5.77765 137.782 4.65518Z" fill="#292A2E"/>
<path opacity="0.6" d="M124.834 4.65513C124.826 3.42572 124.306 2.24938 123.388 1.38287C122.471 0.516358 121.229 0.0300293 119.936 0.0300293C118.642 0.0300293 117.401 0.516358 116.483 1.38287C115.565 2.24938 115.046 3.42572 115.037 4.65513H115.452C115.451 3.83733 115.699 3.03676 116.164 2.34897C116.63 1.66118 117.294 1.11522 118.077 0.77625C118.86 0.437281 119.73 0.31962 120.581 0.43731C121.433 0.555 122.231 0.90307 122.88 1.43998C123.529 1.97688 124.002 2.67995 124.242 3.46527C124.482 4.25058 124.479 5.08498 124.234 5.86887C123.989 6.65275 123.511 7.35302 122.859 7.8861C122.206 8.41918 121.406 8.76255 120.554 8.87522C120.482 8.73457 120.359 8.62299 120.209 8.56065C120.058 8.49832 119.888 8.48935 119.731 8.53538C119.574 8.5814 119.439 8.67938 119.352 8.81158C119.264 8.94378 119.229 9.10147 119.253 9.25613C119.277 9.41079 119.358 9.5522 119.482 9.65477C119.606 9.75735 119.765 9.81431 119.929 9.81536C120.094 9.81641 120.253 9.76147 120.379 9.66049C120.504 9.55951 120.588 9.41915 120.614 9.26481C121.784 9.10807 122.854 8.55553 123.63 7.7087C124.405 6.86187 124.833 5.77762 124.834 4.65513Z" fill="#292A2E"/>
<path opacity="0.6" d="M111.887 4.65513C111.879 3.42572 111.359 2.24938 110.441 1.38287C109.523 0.516358 108.282 0.0300293 106.988 0.0300293C105.695 0.0300293 104.454 0.516358 103.536 1.38287C102.618 2.24938 102.098 3.42572 102.09 4.65513H102.504C102.504 3.83738 102.752 3.03686 103.217 2.34911C103.683 1.66136 104.347 1.11542 105.13 0.776448C105.913 0.437473 106.782 0.319777 107.634 0.437406C108.485 0.555034 109.283 0.903019 109.932 1.43983C110.581 1.97665 111.054 2.67962 111.294 3.46486C111.535 4.2501 111.532 5.08444 111.287 5.86832C111.042 6.6522 110.565 7.35251 109.912 7.88568C109.26 8.41885 108.46 8.76237 107.607 8.87522C107.536 8.73457 107.413 8.62299 107.262 8.56065C107.112 8.49832 106.942 8.48935 106.785 8.53538C106.628 8.5814 106.493 8.67938 106.405 8.81158C106.318 8.94378 106.282 9.10147 106.306 9.25613C106.33 9.41079 106.412 9.5522 106.536 9.65477C106.66 9.75735 106.819 9.81431 106.983 9.81536C107.148 9.81641 107.307 9.76147 107.433 9.66049C107.558 9.55951 107.642 9.41915 107.668 9.26481C108.837 9.10785 109.908 8.55522 110.683 7.70841C111.458 6.8616 111.886 5.77747 111.887 4.65513Z" fill="#292A2E"/>
<path opacity="0.6" d="M98.9396 4.65518C98.9396 3.42055 98.4235 2.23649 97.5049 1.36347C96.5862 0.490455 95.3403 0 94.0411 0C92.7419 0 91.496 0.490455 90.5773 1.36347C89.6587 2.23649 89.1426 3.42055 89.1426 4.65518H89.5571C89.557 3.83744 89.8045 3.03694 90.27 2.34921C90.7356 1.66149 91.3995 1.11559 92.1826 0.776663C92.9657 0.437738 93.8349 0.320101 94.6864 0.437794C95.538 0.555486 96.3359 0.903537 96.985 1.44041C97.634 1.97728 98.1068 2.68029 98.347 3.46555C98.5871 4.25081 98.5844 5.08514 98.3392 5.86898C98.094 6.65282 97.6166 7.35306 96.9641 7.88612C96.3116 8.41919 95.5114 8.76257 94.6591 8.87528C94.5874 8.73454 94.465 8.62284 94.3142 8.5604C94.1633 8.49797 93.9939 8.4889 93.8366 8.53486C93.6793 8.58082 93.5446 8.67876 93.4567 8.81096C93.3688 8.94317 93.3336 9.1009 93.3575 9.25562C93.3813 9.41035 93.4627 9.55184 93.5868 9.6545C93.7109 9.75716 93.8696 9.81422 94.0342 9.81533C94.1987 9.81645 94.3583 9.76156 94.4839 9.66059C94.6096 9.55963 94.693 9.41925 94.7192 9.26487C95.8888 9.10812 96.9596 8.55559 97.7349 7.70876C98.5103 6.86193 98.938 5.77768 98.9396 4.65518Z" fill="#292A2E"/>
<path opacity="0.6" d="M85.9916 4.65513C85.9832 3.42572 85.4633 2.24938 84.5456 1.38287C83.6278 0.516358 82.3867 0.0300293 81.093 0.0300293C79.7993 0.0300293 78.5581 0.516358 77.6403 1.38287C76.7226 2.24938 76.2028 3.42572 76.1943 4.65513H76.6088C76.6087 3.83733 76.8562 3.03676 77.3217 2.34897C77.7873 1.66118 78.4513 1.11522 79.2344 0.77625C80.0176 0.437281 80.8868 0.31962 81.7384 0.43731C82.59 0.555 83.3879 0.90307 84.0371 1.43998C84.6862 1.97688 85.159 2.67995 85.3991 3.46527C85.6393 4.25058 85.6366 5.08498 85.3913 5.86887C85.1461 6.65275 84.6687 7.35302 84.0161 7.8861C83.3635 8.41918 82.5632 8.76255 81.7109 8.87522C81.6391 8.73457 81.5167 8.62299 81.3659 8.56065C81.215 8.49832 81.0457 8.48935 80.8885 8.53538C80.7313 8.5814 80.5966 8.67938 80.5088 8.81158C80.421 8.94378 80.3859 9.10147 80.4098 9.25613C80.4338 9.41079 80.5152 9.5522 80.6393 9.65477C80.7635 9.75735 80.9221 9.81431 81.0866 9.81536C81.2511 9.81641 81.4106 9.76147 81.5361 9.66049C81.6617 9.55951 81.7451 9.41915 81.7712 9.26481C82.9408 9.10807 84.0116 8.55553 84.7869 7.7087C85.5622 6.86187 85.99 5.77762 85.9916 4.65513Z" fill="#292A2E"/>
<path opacity="0.6" d="M73.0441 4.65518C73.0441 3.42055 72.528 2.23649 71.6094 1.36347C70.6907 0.490456 69.4448 0 68.1456 0C66.8464 0 65.6005 0.490456 64.6818 1.36347C63.7632 2.23649 63.2471 3.42055 63.2471 4.65518H63.6616C63.6615 3.83744 63.909 3.03694 64.3745 2.34921C64.8401 1.66149 65.504 1.11559 66.2871 0.776663C67.0702 0.437737 67.9394 0.320101 68.7909 0.437794C69.6425 0.555486 70.4404 0.903536 71.0894 1.44041C71.7385 1.97728 72.2113 2.68029 72.4515 3.46555C72.6916 4.25081 72.6889 5.08514 72.4437 5.86898C72.1985 6.65282 71.7211 7.35306 71.0686 7.88613C70.4161 8.41919 69.6159 8.76257 68.7636 8.87528C68.6919 8.73454 68.5695 8.62285 68.4187 8.56041C68.2678 8.49797 68.0984 8.48891 67.9411 8.53486C67.7838 8.58082 67.6491 8.67876 67.5612 8.81097C67.4733 8.94317 67.4381 9.1009 67.462 9.25562C67.4858 9.41035 67.5672 9.55184 67.6913 9.6545C67.8154 9.75717 67.9741 9.81422 68.1387 9.81533C68.3032 9.81645 68.4628 9.76156 68.5884 9.66059C68.7141 9.55963 68.7975 9.41925 68.8237 9.26487C69.9933 9.10813 71.0641 8.55559 71.8394 7.70876C72.6148 6.86193 73.0425 5.77768 73.0441 4.65518Z" fill="#292A2E"/>
<path opacity="0.6" d="M60.0961 4.65513C60.0877 3.42572 59.5678 2.24938 58.6501 1.38287C57.7323 0.516358 56.4912 0.0300293 55.1975 0.0300293C53.9037 0.0300293 52.6626 0.516358 51.7448 1.38287C50.8271 2.24938 50.3072 3.42572 50.2988 4.65513H50.7133C50.7132 3.83733 50.9607 3.03676 51.4262 2.34897C51.8918 1.66118 52.5558 1.11522 53.3389 0.77625C54.122 0.437281 54.9913 0.31962 55.8429 0.43731C56.6945 0.555 57.4924 0.90307 58.1416 1.43998C58.7907 1.97688 59.2635 2.67995 59.5036 3.46527C59.7438 4.25058 59.7411 5.08498 59.4958 5.86887C59.2506 6.65275 58.7732 7.35302 58.1206 7.8861C57.468 8.41918 56.6677 8.76255 55.8154 8.87522C55.7436 8.73457 55.6212 8.62299 55.4703 8.56065C55.3195 8.49832 55.1502 8.48935 54.993 8.53538C54.8357 8.5814 54.7011 8.67938 54.6133 8.81158C54.5255 8.94378 54.4904 9.10147 54.5143 9.25613C54.5383 9.41079 54.6197 9.5522 54.7438 9.65477C54.8679 9.75735 55.0266 9.81431 55.1911 9.81536C55.3556 9.81641 55.515 9.76147 55.6406 9.66049C55.7662 9.55951 55.8496 9.41915 55.8757 9.26481C57.0453 9.10807 58.1161 8.55553 58.8914 7.7087C59.6667 6.86187 60.0945 5.77762 60.0961 4.65513Z" fill="#292A2E"/>
</g>
<path d="M15.7103 142.758C15.6831 142.758 15.6561 142.753 15.6309 142.743C15.6058 142.733 15.5829 142.718 15.5637 142.7C15.2717 142.423 14.7957 137.331 13.5136 122.172C12.989 115.969 12.4934 110.111 12.1318 106.55C12.1061 106.296 12.0022 106.266 11.9683 106.257C11.4731 106.115 9.96781 107.243 9.12739 108.231C9.11027 108.251 9.08915 108.267 9.06523 108.28C9.04131 108.292 9.01506 108.3 8.98798 108.303C8.9609 108.305 8.93352 108.303 8.90741 108.296C8.88129 108.288 8.85695 108.276 8.83578 108.26C8.8146 108.244 8.79701 108.224 8.78399 108.201C8.77098 108.178 8.76281 108.153 8.75994 108.127C8.75707 108.102 8.75957 108.076 8.76728 108.051C8.77499 108.026 8.78778 108.003 8.8049 107.983C9.36076 107.33 11.1722 105.618 12.0874 105.879C12.2719 105.932 12.5009 106.085 12.5434 106.512C12.9053 110.076 13.401 115.936 13.9258 122.141C14.7049 131.352 15.5874 141.789 15.8775 142.446C15.8997 142.475 15.9129 142.51 15.9158 142.546C15.9187 142.582 15.9111 142.618 15.8938 142.65C15.8765 142.682 15.8503 142.709 15.8179 142.728C15.7855 142.747 15.7483 142.757 15.7103 142.758Z" fill="#494949"/>
<path d="M11.5993 113.083C15.0385 110.463 16.1784 106.385 14.1453 103.975C12.1123 101.565 7.67613 101.735 4.23695 104.355C0.79777 106.974 -0.342112 111.052 1.69095 113.462C3.72401 115.873 8.16013 115.703 11.5993 113.083Z" fill="#0CBC8B"/>
<path opacity="0.2" d="M11.5993 113.083C15.0385 110.463 16.1784 106.385 14.1453 103.975C12.1123 101.565 7.67613 101.735 4.23695 104.355C0.79777 106.974 -0.342112 111.052 1.69095 113.462C3.72401 115.873 8.16013 115.703 11.5993 113.083Z" fill="white"/>
<path d="M2.65498 114.075C2.63081 114.075 2.60739 114.067 2.58886 114.052C2.56794 114.036 2.55478 114.012 2.55222 113.986C2.54965 113.96 2.55791 113.935 2.57518 113.915L12.3766 102.682C12.3853 102.672 12.3959 102.664 12.408 102.658C12.42 102.652 12.4332 102.648 12.4468 102.647C12.4603 102.646 12.474 102.647 12.487 102.651C12.5 102.655 12.5121 102.661 12.5226 102.669C12.5331 102.677 12.5417 102.688 12.5481 102.699C12.5544 102.71 12.5583 102.723 12.5596 102.736C12.5609 102.749 12.5594 102.762 12.5554 102.774C12.5514 102.787 12.5448 102.798 12.5362 102.808L2.73581 114.04C2.72595 114.051 2.71358 114.06 2.6996 114.066C2.68562 114.072 2.67038 114.075 2.65498 114.075Z" fill="white"/>
<path d="M17.8478 140.349C17.8147 140.349 17.7822 140.341 17.7528 140.327C17.7234 140.312 17.6981 140.292 17.6789 140.266C17.6598 140.24 17.6473 140.211 17.6427 140.18C17.638 140.149 17.6413 140.117 17.6522 140.087L21.3339 130.025C21.4423 129.729 21.627 129.464 21.8711 129.254C22.1152 129.044 22.4109 128.895 22.7312 128.822C23.0514 128.748 23.3859 128.752 23.704 128.834C24.0222 128.915 24.3138 129.071 24.5522 129.287L26.4987 131.054C26.5385 131.09 26.5615 131.139 26.5628 131.192C26.5641 131.244 26.5434 131.294 26.5054 131.332C26.4675 131.37 26.4152 131.392 26.3603 131.393C26.3053 131.394 26.252 131.375 26.2123 131.339L24.2659 129.572C24.0777 129.401 23.8475 129.278 23.5964 129.214C23.3452 129.15 23.0811 129.146 22.8283 129.204C22.5755 129.262 22.342 129.38 22.1493 129.546C21.9566 129.712 21.8108 129.921 21.7252 130.154L18.0437 140.217C18.0295 140.256 18.003 140.289 17.9679 140.313C17.9328 140.336 17.8908 140.349 17.8478 140.349Z" fill="#494949"/>
<path d="M31.9364 136.624C34.4852 134.707 34.3337 130.49 31.5981 127.206C28.8625 123.922 24.5787 122.813 22.03 124.73C19.4812 126.648 19.6327 130.864 22.3683 134.149C25.1039 137.433 29.3877 138.541 31.9364 136.624Z" fill="#0CBC8B"/>
<path d="M14.0375 142.115C13.9909 142.115 13.9457 142.1 13.9091 142.073C13.8726 142.045 13.8468 142.007 13.836 141.964L7.65749 117.414C7.61522 117.246 7.52523 117.093 7.39742 116.972C7.26962 116.85 7.10893 116.764 6.93303 116.723C6.75713 116.682 6.57282 116.688 6.40036 116.741C6.2279 116.793 6.07398 116.89 5.95549 117.02L4.0508 119.111C4.03308 119.131 4.01139 119.148 3.987 119.159C3.96261 119.171 3.93599 119.178 3.90868 119.18C3.88137 119.182 3.85392 119.179 3.82791 119.171C3.8019 119.163 3.77785 119.15 3.75715 119.133C3.73644 119.116 3.7195 119.095 3.70729 119.072C3.69508 119.048 3.68785 119.023 3.68601 118.997C3.68418 118.971 3.68778 118.945 3.6966 118.92C3.70543 118.896 3.71931 118.873 3.73743 118.854L5.64191 116.762C5.81034 116.577 6.02919 116.44 6.27438 116.365C6.51957 116.291 6.78161 116.282 7.03166 116.34C7.28171 116.398 7.51009 116.521 7.69166 116.694C7.87323 116.868 8.00097 117.085 8.06081 117.323L14.2385 141.872C14.2513 141.923 14.2423 141.977 14.2135 142.021C14.1848 142.066 14.1386 142.098 14.0851 142.11C14.0695 142.113 14.0535 142.115 14.0375 142.115Z" fill="#494949"/>
<path d="M11.758 124.565C12.509 120.438 10.5213 116.665 7.31828 116.139C4.11525 115.612 0.909818 118.532 0.158753 122.659C-0.592313 126.787 1.3954 130.559 4.59843 131.086C7.80147 131.612 11.0069 128.693 11.758 124.565Z" fill="#0CBC8B"/>
<path d="M15.7105 142.758C15.702 142.758 15.6935 142.757 15.685 142.756C15.658 142.753 15.6319 142.745 15.6082 142.732C15.5845 142.72 15.5636 142.703 15.5469 142.682C15.5301 142.662 15.5177 142.638 15.5105 142.613C15.5032 142.589 15.5012 142.562 15.5045 142.537L19.45 112.094C19.493 111.762 19.6359 111.45 19.8614 111.193C20.087 110.937 20.3856 110.748 20.7215 110.649C21.0573 110.55 21.4161 110.546 21.7546 110.636C22.0931 110.726 22.397 110.907 22.6298 111.158L27.1393 116.012C27.1573 116.031 27.1711 116.054 27.1799 116.078C27.1888 116.103 27.1924 116.128 27.1908 116.154C27.1891 116.18 27.182 116.205 27.1701 116.229C27.1581 116.252 27.1414 116.273 27.121 116.29C27.1006 116.307 27.0768 116.32 27.0511 116.328C27.0253 116.337 26.9981 116.34 26.9709 116.339C26.9437 116.337 26.9172 116.33 26.8927 116.319C26.8683 116.308 26.8464 116.292 26.8284 116.272L22.3189 111.419C22.139 111.225 21.9042 111.085 21.6425 111.015C21.3809 110.945 21.1036 110.949 20.8441 111.025C20.5845 111.102 20.3537 111.248 20.1794 111.446C20.005 111.644 19.8946 111.886 19.8614 112.142L15.9161 142.584C15.9102 142.632 15.886 142.676 15.8481 142.708C15.8102 142.74 15.7612 142.758 15.7105 142.758Z" fill="#494949"/>
<path d="M31.7644 118.709C33.3377 116.006 31.4865 112.171 27.6296 110.143C23.7726 108.116 19.3705 108.663 17.7971 111.367C16.2237 114.07 18.0749 117.905 21.9319 119.932C25.7888 121.96 30.191 121.412 31.7644 118.709Z" fill="#0CBC8B"/>
<path opacity="0.2" d="M31.9364 136.624C34.4852 134.707 34.3337 130.49 31.5981 127.206C28.8625 123.922 24.5787 122.813 22.03 124.73C19.4812 126.648 19.6327 130.864 22.3683 134.149C25.1039 137.433 29.3877 138.541 31.9364 136.624Z" fill="white"/>
<path opacity="0.5" d="M11.758 124.565C12.509 120.438 10.5213 116.665 7.31828 116.139C4.11525 115.612 0.909818 118.532 0.158753 122.659C-0.592313 126.787 1.3954 130.559 4.59843 131.086C7.80147 131.612 11.0069 128.693 11.758 124.565Z" fill="white"/>
<path opacity="0.5" d="M31.7644 118.709C33.3377 116.006 31.4865 112.171 27.6296 110.143C23.7726 108.116 19.3705 108.663 17.7971 111.367C16.2237 114.07 18.0749 117.905 21.9319 119.932C25.7888 121.96 30.191 121.412 31.7644 118.709Z" fill="white"/>
<path d="M20.7564 168.587H10.6636L8.99121 137.899H22.4287L20.7564 168.587Z" fill="#292A2E"/>
<path opacity="0.3" d="M20.7564 168.587H10.6636L8.99121 137.899H22.4287L20.7564 168.587Z" fill="white"/>
<path d="M31.9373 136.722C31.9216 136.722 31.9062 136.719 31.8921 136.712C31.8781 136.706 31.8657 136.696 31.856 136.685L21.9492 124.791C21.9407 124.781 21.9344 124.769 21.9307 124.757C21.927 124.744 21.9259 124.731 21.9274 124.718C21.929 124.706 21.9332 124.693 21.9399 124.682C21.9465 124.671 21.9554 124.661 21.966 124.653C21.9767 124.645 21.9889 124.639 22.002 124.635C22.0151 124.632 22.0288 124.631 22.0423 124.632C22.0559 124.633 22.0689 124.638 22.0808 124.644C22.0927 124.65 22.1032 124.659 22.1116 124.669L32.0185 136.562C32.0306 136.577 32.0382 136.594 32.0404 136.613C32.0425 136.631 32.0392 136.65 32.0307 136.667C32.0222 136.683 32.0089 136.697 31.9924 136.707C31.9759 136.717 31.9568 136.722 31.9373 136.722Z" fill="white"/>
<path d="M31.105 119.662C31.0825 119.662 31.0607 119.655 31.0428 119.642L18.3668 110.846C18.3558 110.839 18.3465 110.829 18.3394 110.818C18.3323 110.807 18.3276 110.795 18.3255 110.782C18.3234 110.769 18.3239 110.756 18.3271 110.744C18.3304 110.731 18.3361 110.719 18.3442 110.709C18.3522 110.698 18.3623 110.689 18.3739 110.683C18.3856 110.676 18.3985 110.671 18.4119 110.669C18.4254 110.667 18.4391 110.668 18.4523 110.671C18.4656 110.674 18.478 110.68 18.489 110.687L31.1661 119.484C31.1834 119.496 31.1963 119.514 31.2028 119.533C31.2093 119.553 31.2092 119.574 31.2024 119.594C31.1957 119.613 31.1826 119.63 31.1652 119.642C31.1477 119.654 31.1266 119.661 31.105 119.661V119.662Z" fill="white"/>
<path d="M4.0831 130.957C4.07408 130.957 4.0651 130.956 4.05637 130.954C4.02982 130.947 4.00718 130.931 3.99342 130.908C3.97966 130.886 3.97591 130.859 3.983 130.833L8.0185 116.465C8.02617 116.44 8.04362 116.419 8.06715 116.407C8.09068 116.394 8.11842 116.391 8.14449 116.397C8.17057 116.404 8.1929 116.42 8.20676 116.442C8.22062 116.464 8.22491 116.49 8.21871 116.515L4.18424 130.884C4.17831 130.905 4.16515 130.924 4.14684 130.937C4.12853 130.951 4.10611 130.958 4.0831 130.957Z" fill="white"/>
<path d="M174.58 58.4604L175.162 58.0042C175.346 57.8548 175.462 57.6448 175.489 57.4167C175.516 57.1886 175.45 56.9594 175.306 56.7754C175.228 56.6829 175.131 56.6065 175.021 56.5508C174.911 56.4951 174.79 56.4613 174.665 56.4515C174.541 56.4417 174.416 56.456 174.298 56.4937C174.18 56.5313 174.071 56.5914 173.978 56.6704L167.062 62.505L168.973 64.6588C169.567 65.3277 170.358 65.8128 171.244 66.0519C172.129 66.2911 173.07 66.2734 173.945 66.0011L177.907 64.7612C178.114 64.7006 178.293 64.5738 178.413 64.4022C178.534 64.2307 178.588 64.025 178.567 63.8199C178.512 63.416 174.58 58.4604 174.58 58.4604Z" fill="#E98862"/>
<path d="M170.446 58.5056L151.367 64.1237L139.733 45.394L129.793 50.9174L144.46 73.4433L144.553 73.556C145.322 74.4624 146.369 75.1185 147.549 75.4327C148.729 75.7469 149.982 75.7036 151.135 75.3089L173.877 67.4805L170.446 58.5056Z" fill="#367CFF"/>
<path d="M182.089 157.069L166.182 157.779L160.047 58.5279L175.954 57.8176L182.089 157.069Z" fill="#367CFF"/>
<path opacity="0.5" d="M182.089 157.069L166.182 157.779L160.047 58.5279L175.954 57.8176L182.089 157.069Z" fill="white"/>
<path d="M175.414 46.881L159.507 47.5916L160.048 58.5266L175.955 57.8161L175.414 46.881Z" fill="#262626"/>
<path d="M182.09 157.068C182.09 157.068 179.907 160.67 177.94 163.891C176.38 166.445 174.955 168.759 174.864 168.846C174.769 168.935 172.991 166.689 171.069 164.198C168.732 161.17 166.182 157.779 166.182 157.779L182.09 157.068Z" fill="#367CFF"/>
<path opacity="0.9" d="M182.09 157.068C182.09 157.068 179.907 160.67 177.94 163.891C176.38 166.445 174.955 168.759 174.864 168.846C174.769 168.935 172.991 166.689 171.069 164.198C168.732 161.17 166.182 157.779 166.182 157.779L182.09 157.068Z" fill="white"/>
<path d="M177.941 163.892C176.38 166.446 174.956 168.76 174.864 168.847C174.77 168.937 172.992 166.69 171.069 164.199L177.941 163.892Z" fill="#262626"/>
<path d="M177.135 157.261L170.72 58.071L171.446 58.0364L177.861 157.226L177.135 157.261Z" fill="white"/>
<path d="M170.912 157.541L164.496 58.3513L165.222 58.3167L171.637 157.506L170.912 157.541Z" fill="white"/>
<path d="M173.562 63.0884C173.562 62.8978 173.627 62.7124 173.748 62.5603C173.869 62.4083 174.038 62.2979 174.231 62.246C174.225 62.232 174.198 62.2026 174.224 62.1928L173.468 62.0656C173.245 62.0327 173.041 61.924 172.895 61.7597C172.75 61.5953 172.672 61.3864 172.675 61.1715C172.686 60.9595 172.78 60.7588 172.938 60.6085C173.095 60.4582 173.306 60.3689 173.529 60.3579C173.524 60.351 173.526 60.3414 173.523 60.3331L173.212 60.2807C173.002 60.2489 172.809 60.1489 172.667 59.9978C172.526 59.8467 172.443 59.6536 172.434 59.4513C172.431 59.3243 172.457 59.1983 172.512 59.0823C172.566 58.9663 172.647 58.8632 172.749 58.7805C172.85 58.6978 172.969 58.6375 173.098 58.604C173.227 58.5705 173.362 58.5645 173.494 58.5866L174.211 58.7072C174.211 58.7034 174.208 58.7007 174.208 58.6969C174.209 58.6932 174.214 58.6894 174.216 58.6851C174.027 58.6099 173.871 58.476 173.773 58.3054C173.675 58.1349 173.641 57.9377 173.677 57.7464C173.735 57.2469 174.356 57.061 174.819 57.139L176.258 57.4935C176.48 57.5481 176.685 57.654 176.853 57.8017C177.022 57.9495 177.15 58.1345 177.225 58.3404C177.876 60.1229 179.461 64.8167 177.982 64.5678L174.342 63.9548C174.129 63.9132 173.937 63.8054 173.796 63.6486C173.654 63.4917 173.572 63.2946 173.562 63.0884Z" fill="#E98862"/>
<path d="M113.066 27.0022C113.066 27.0022 110.921 25.2378 110.624 21.4717C110.395 18.5567 113.066 20.6051 113.066 20.6051C113.066 20.6051 112.922 18.5039 114.504 18.8127C116.085 19.1216 116.825 21.3657 116.825 21.3657" fill="#0C0C0C"/>
<path d="M122.74 19.582C122.74 19.582 130.606 20.8936 127.022 30.913H124.889" fill="#0C0C0C"/>
<path d="M128.356 156.65C128.356 156.65 130.873 160.69 127.654 163.745C124.434 166.8 127.571 168.752 127.571 168.752L140.56 157.813L134.808 151.646L128.356 156.65Z" fill="#367CFF"/>
<path d="M106.257 77.0207C106.257 77.0207 104.794 117.096 104.98 119.052C105.684 126.451 128.595 159.976 128.595 159.976L137.126 153.053L126.232 132.082L119.344 117.468C119.344 117.468 120.53 104.899 123.726 93.2271C125.361 87.2368 126.345 81.103 126.662 74.9219L106.257 77.0207Z" fill="#262626"/>
<path d="M127.937 160.199C127.937 160.199 127.001 164.808 122.46 165.066C117.918 165.324 118.904 168.761 118.904 168.761H136.259V160.521L127.937 160.199Z" fill="#367CFF"/>
<path d="M137.435 76.1101C137.435 76.1101 137.38 74.7245 137.392 77.8678C137.435 89.5927 137.024 163.141 137.024 163.141L125.619 163.05L118.711 75.6331L137.435 76.1101Z" fill="#262626"/>
<path d="M121.053 105.432L120.118 91.8403C120.118 91.8403 119.157 97.491 119.157 102.361C119.157 104.742 119.673 114.168 119.673 114.168L121.053 105.432Z" fill="#0A0A0A"/>
<path d="M122.574 124.322L124.946 154.536L122.726 151.141L120.456 119.828L122.574 124.322Z" fill="#0A0A0A"/>
<path d="M113.882 41.3296C113.917 41.3253 114.304 47.4336 121.771 46.9013C126.941 46.5331 128.784 41.3209 128.902 41.3209C128.345 41.2085 127.656 41.0375 127.382 40.979C126.786 40.8474 126.245 40.5463 125.833 40.1158C125.421 39.6852 125.157 39.1456 125.075 38.5688C124.924 37.7022 125.181 33.2733 125.102 32.3972L117.167 34.0804C117.277 35.9305 118.053 40.2197 115.334 40.979C114.881 41.1045 114.394 41.2199 113.882 41.3296Z" fill="#E98862"/>
<path opacity="0.52" d="M117.056 39.2259C117.18 38.8452 117.26 38.4528 117.294 38.0556C117.382 37.1491 117.364 36.2362 117.242 35.3334C118.855 35.1264 120.375 34.4938 121.628 33.5073C121.776 34.0245 122.586 36.2845 122.361 36.7755C121.937 37.7046 119.944 39.2259 117.056 39.2259Z" fill="#0C0C0C"/>
<path d="M118.464 37.7502C121.606 37.6828 125.477 36.0455 125.815 32.0196L126.12 28.387C126.458 24.3611 124.507 20.9289 120.518 20.6267C116.529 20.3242 113.274 23.3617 112.936 27.3876L112.801 28.9958C112.765 29.5487 112.768 30.1033 112.811 30.6558C112.915 32.1169 113.076 34.339 114.006 35.8936C114.882 37.3614 116.456 37.7931 118.464 37.7502Z" fill="#E98862"/>
<path opacity="0.52" d="M117.274 33.9759C116.628 33.9626 115.994 33.805 115.423 33.516C115.411 33.5105 115.4 33.5027 115.391 33.4932C115.382 33.4836 115.375 33.4724 115.371 33.4603C115.366 33.4481 115.365 33.4353 115.365 33.4225C115.366 33.4097 115.37 33.3972 115.376 33.3858C115.382 33.3744 115.391 33.3642 115.401 33.3559C115.411 33.3477 115.423 33.3414 115.436 33.3376C115.449 33.3338 115.463 33.3325 115.476 33.3338C115.49 33.3351 115.503 33.3389 115.514 33.345C116.746 33.9394 117.902 33.9377 118.859 33.3395C118.878 33.3268 118.898 33.3151 118.919 33.3044C118.943 33.2932 118.97 33.2916 118.996 33.2999C119.021 33.3082 119.042 33.3257 119.054 33.3485C119.066 33.3714 119.067 33.3978 119.059 33.4219C119.05 33.446 119.031 33.4658 119.007 33.477C119 33.4809 118.987 33.489 118.97 33.4998C118.467 33.8153 117.877 33.981 117.274 33.9759Z" fill="#0C0C0C"/>
<path opacity="0.52" d="M117.241 34.8845C117.124 34.8839 117.008 34.8738 116.893 34.8544C116.867 34.85 116.843 34.8358 116.828 34.815C116.813 34.7942 116.806 34.7684 116.811 34.7434C116.816 34.7183 116.831 34.696 116.852 34.6813C116.874 34.6667 116.901 34.6609 116.928 34.6653C117.62 34.7803 117.975 34.4977 117.99 34.4854C118.01 34.4687 118.036 34.4602 118.063 34.4619C118.09 34.4636 118.115 34.4753 118.132 34.4944C118.15 34.5136 118.159 34.5386 118.157 34.564C118.155 34.5894 118.143 34.613 118.123 34.6298C117.869 34.8091 117.557 34.8991 117.241 34.8845Z" fill="#0C0C0C"/>
<path d="M114.119 29.2656C114.391 29.2656 114.612 29.0559 114.612 28.7972C114.612 28.5386 114.391 28.3289 114.119 28.3289C113.847 28.3289 113.626 28.5386 113.626 28.7972C113.626 29.0559 113.847 29.2656 114.119 29.2656Z" fill="#0C0C0C"/>
<path d="M118.687 29.2951C118.959 29.2951 119.18 29.0854 119.18 28.8268C119.18 28.5681 118.959 28.3584 118.687 28.3584C118.415 28.3584 118.194 28.5681 118.194 28.8268C118.194 29.0854 118.415 29.2951 118.687 29.2951Z" fill="#0C0C0C"/>
<path d="M125.464 33.2273C126.676 33.3191 127.762 32.1613 127.859 31.0093C127.956 29.8573 127.026 29.1476 125.814 29.0557L125.125 29.7805L124.422 33.1485L125.464 33.2273Z" fill="#E98862"/>
<path d="M104.604 54.7775C104.839 57.4034 105.984 73.7863 106.21 77.0208H137.376C137.551 74.1036 138.342 61.3474 139.01 55.6428C139.647 50.1992 140.897 47.2768 139.981 45.6675C138.483 43.0373 134.391 41.7143 131.6 41.3552C129.896 41.1362 127.333 40.979 127.333 40.979C127.333 40.979 127.117 45.1506 121.942 45.3829C114.898 45.698 115.369 40.979 115.334 40.979C112.777 40.979 107.937 41.5604 106.079 42.7607C101.903 45.4597 104.105 49.2128 104.604 54.7775Z" fill="#367CFF"/>
<path d="M124.387 31.2971C124.387 31.2971 124.38 25.5697 122.584 25.1017C121.389 24.7901 118.336 26.2362 115.649 25.5697C114.474 25.278 113.324 25.4862 113.171 26.0132C113.111 26.222 112.584 23.1336 114.611 20.9444C116.225 19.2015 121.119 18.9919 123.287 19.7353C129.289 21.7933 126.046 29.3222 126.046 29.3222L125.634 31.2705L124.387 31.2971Z" fill="#0C0C0C"/>
<g opacity="0.52">
<path opacity="0.52" d="M116.635 32.5826H116.628C116.237 32.5541 115.585 32.4645 115.607 32.1868C115.626 31.9567 116.491 29.5211 116.589 29.2442C116.593 29.2324 116.6 29.2215 116.609 29.2121C116.617 29.2027 116.628 29.1951 116.639 29.1895C116.651 29.184 116.664 29.1807 116.677 29.1799C116.69 29.1791 116.703 29.1807 116.716 29.1847C116.728 29.1887 116.739 29.1949 116.749 29.2031C116.759 29.2113 116.767 29.2213 116.773 29.2324C116.779 29.2436 116.782 29.2557 116.783 29.2681C116.784 29.2806 116.782 29.293 116.778 29.3048C116.394 30.3836 115.819 32.0451 115.806 32.2013C115.839 32.2699 116.238 32.3638 116.643 32.3936C116.668 32.3957 116.692 32.4071 116.709 32.4254C116.726 32.4436 116.734 32.4674 116.733 32.4917C116.733 32.516 116.722 32.539 116.704 32.556C116.685 32.573 116.661 32.5827 116.635 32.583V32.5826Z" fill="#0C0C0C"/>
</g>
<path d="M115.503 27.3595C115.35 27.2981 115.188 27.2567 115.023 27.2364C114.851 27.2138 114.677 27.2138 114.506 27.2364C114.334 27.2568 114.166 27.3021 114.008 27.3705C113.846 27.4394 113.695 27.5273 113.557 27.6321L113.546 27.6399C113.51 27.665 113.465 27.676 113.421 27.6707C113.377 27.6654 113.337 27.6441 113.309 27.6113C113.281 27.5786 113.267 27.5368 113.271 27.4948C113.275 27.4527 113.295 27.4135 113.328 27.3855C113.481 27.2502 113.652 27.1339 113.836 27.0392C114.022 26.9422 114.223 26.8725 114.431 26.8322C114.857 26.7471 115.298 26.7732 115.709 26.9076C115.741 26.9184 115.771 26.9351 115.796 26.9567C115.822 26.9783 115.842 27.0045 115.857 27.0337C115.872 27.0629 115.88 27.0946 115.882 27.1269C115.884 27.1593 115.879 27.1916 115.868 27.2222C115.856 27.2527 115.839 27.2808 115.816 27.305C115.793 27.3291 115.766 27.3487 115.735 27.3627C115.704 27.3766 115.671 27.3848 115.637 27.3865C115.603 27.3882 115.569 27.3836 115.537 27.3728C115.531 27.3707 115.525 27.3685 115.519 27.366L115.503 27.3595Z" fill="#0C0C0C"/>
<path d="M118.397 26.9466C118.604 26.8776 118.82 26.837 119.039 26.8261C119.252 26.8135 119.466 26.8286 119.675 26.8712C119.883 26.9115 120.084 26.9813 120.27 27.0782C120.454 27.173 120.625 27.2895 120.778 27.4248C120.812 27.4527 120.833 27.4919 120.837 27.5343C120.841 27.5766 120.827 27.6188 120.799 27.6519C120.771 27.685 120.73 27.7063 120.686 27.7115C120.641 27.7166 120.597 27.7052 120.561 27.6795L120.549 27.6712C120.411 27.5665 120.26 27.4786 120.098 27.4097C119.941 27.3413 119.773 27.296 119.601 27.2753C119.43 27.2528 119.256 27.2528 119.085 27.2753C118.919 27.2957 118.757 27.3371 118.604 27.3984L118.589 27.4046C118.558 27.4177 118.524 27.4248 118.49 27.4256C118.456 27.4263 118.422 27.4207 118.391 27.409C118.359 27.3974 118.33 27.3798 118.305 27.3575C118.28 27.3352 118.261 27.3084 118.247 27.2788C118.233 27.2492 118.225 27.2173 118.225 27.1849C118.224 27.1525 118.23 27.1203 118.242 27.0901C118.254 27.0599 118.273 27.0323 118.296 27.0089C118.32 26.9854 118.348 26.9666 118.379 26.9535C118.385 26.9511 118.391 26.9486 118.397 26.9466Z" fill="#0C0C0C"/>
<path d="M118.819 21.2394C119.183 20.0009 118.761 18.806 117.876 18.5705C116.991 18.335 115.977 19.1481 115.613 20.3866C115.248 21.6251 115.67 22.82 116.555 23.0555C117.441 23.291 118.454 22.4779 118.819 21.2394Z" fill="#0C0C0C"/>
<path d="M103.39 81.3005C103.519 81.2586 103.636 81.1901 103.733 81.0999C103.831 81.0097 103.906 80.9002 103.953 80.7791C104.001 80.658 104.019 80.5284 104.007 80.3996C103.996 80.2709 103.954 80.1462 103.886 80.0346L104.487 81.0117C104.604 81.2122 104.797 81.3627 105.027 81.433C105.257 81.5033 105.507 81.4881 105.725 81.3905C105.836 81.3363 105.934 81.2612 106.013 81.1698C106.093 81.0784 106.152 80.9726 106.187 80.8588C106.222 80.745 106.232 80.6257 106.217 80.508C106.201 80.3904 106.161 80.277 106.098 80.1746L106.37 80.617C106.476 80.7966 106.644 80.9359 106.846 81.0113C107.047 81.0867 107.27 81.0935 107.477 81.0306C107.605 80.9887 107.723 80.9202 107.82 80.83C107.917 80.7398 107.993 80.6302 108.04 80.5091C108.087 80.388 108.106 80.2584 108.094 80.1296C108.083 80.0009 108.041 79.8762 107.973 79.7646L107.496 78.9899C107.619 79.1897 107.82 79.3349 108.055 79.3937C108.291 79.4525 108.541 79.4199 108.751 79.3033C109.233 79.0752 109.201 78.4465 108.96 78.0536L108.064 76.4678L108.656 76.9131C108.848 77.0519 109.089 77.1162 109.329 77.0929C109.569 77.0697 109.791 76.9607 109.95 76.7879C110.029 76.696 110.087 76.5898 110.121 76.4758C110.155 76.3618 110.165 76.2424 110.149 76.1248C110.133 76.0073 110.092 75.8941 110.028 75.7922C109.964 75.6902 109.88 75.6016 109.779 75.5319L104.394 72.3044L100.508 72.5642C99.9449 73.2567 99.6123 74.0932 99.5527 74.9665C99.4931 75.8397 99.7092 76.71 100.173 77.4658L102.283 80.8859C102.389 81.0656 102.557 81.2051 102.759 81.2807C102.96 81.3562 103.183 81.3632 103.39 81.3005Z" fill="#E98862"/>
<path d="M106.889 78.0209C106.887 78.002 106.892 77.9828 106.903 77.9669C106.914 77.9509 106.93 77.9391 106.95 77.9335C106.969 77.9279 106.99 77.9289 107.008 77.9363C107.027 77.9436 107.042 77.9569 107.051 77.9739L107.645 79.0479C107.65 79.0575 107.653 79.0679 107.654 79.0786C107.655 79.0893 107.654 79.1001 107.651 79.1104C107.647 79.1207 107.642 79.1302 107.635 79.1385C107.627 79.1468 107.618 79.1536 107.608 79.1586C107.598 79.1636 107.587 79.1667 107.576 79.1677C107.565 79.1686 107.553 79.1675 107.543 79.1643C107.532 79.1611 107.522 79.1559 107.513 79.149C107.504 79.1421 107.497 79.1337 107.492 79.1241L106.899 78.0501C106.894 78.041 106.891 78.0311 106.889 78.0209Z" fill="#E98862"/>
<path d="M105.291 78.8207C105.289 78.8018 105.294 78.7829 105.305 78.7671C105.316 78.7512 105.333 78.7395 105.352 78.7339C105.371 78.7283 105.391 78.7291 105.41 78.7363C105.428 78.7434 105.444 78.7564 105.453 78.7731L106.279 80.2406C106.285 80.2501 106.288 80.2605 106.289 80.2712C106.29 80.2819 106.289 80.2928 106.286 80.3031C106.283 80.3134 106.277 80.323 106.27 80.3313C106.263 80.3396 106.254 80.3465 106.244 80.3516C106.234 80.3567 106.223 80.3599 106.212 80.3609C106.201 80.362 106.189 80.3609 106.178 80.3578C106.168 80.3547 106.157 80.3496 106.149 80.3427C106.14 80.3359 106.133 80.3275 106.127 80.318L105.301 78.8505C105.296 78.8412 105.293 78.8311 105.291 78.8207Z" fill="#E98862"/>
<path d="M103.555 79.6774C103.553 79.6583 103.558 79.6391 103.569 79.6231C103.58 79.607 103.597 79.5953 103.616 79.5898C103.636 79.5843 103.657 79.5855 103.675 79.5931C103.694 79.6008 103.709 79.6143 103.718 79.6315L104.091 80.3333C104.101 80.3527 104.103 80.3752 104.096 80.3959C104.089 80.4165 104.073 80.4337 104.053 80.4435C104.033 80.4533 104.009 80.455 103.987 80.4482C103.965 80.4415 103.947 80.4267 103.937 80.4073L103.564 79.7054C103.559 79.6966 103.556 79.6871 103.555 79.6774Z" fill="#E98862"/>
<path opacity="0.2" d="M106.889 78.0209C106.887 78.002 106.892 77.9828 106.903 77.9669C106.914 77.9509 106.93 77.9391 106.95 77.9335C106.969 77.9279 106.99 77.9289 107.008 77.9363C107.027 77.9436 107.042 77.9569 107.051 77.9739L107.645 79.0479C107.65 79.0575 107.653 79.0679 107.654 79.0786C107.655 79.0893 107.654 79.1001 107.651 79.1104C107.647 79.1207 107.642 79.1302 107.635 79.1385C107.627 79.1468 107.618 79.1536 107.608 79.1586C107.598 79.1636 107.587 79.1667 107.576 79.1677C107.565 79.1686 107.553 79.1675 107.543 79.1643C107.532 79.1611 107.522 79.1559 107.513 79.149C107.504 79.1421 107.497 79.1337 107.492 79.1241L106.899 78.0501C106.894 78.041 106.891 78.0311 106.889 78.0209Z" fill="#0C0C0C"/>
<path opacity="0.2" d="M105.291 78.8207C105.289 78.8018 105.294 78.7829 105.305 78.7671C105.316 78.7512 105.333 78.7395 105.352 78.7339C105.371 78.7283 105.391 78.7291 105.41 78.7363C105.428 78.7434 105.444 78.7564 105.453 78.7731L106.279 80.2406C106.285 80.2501 106.288 80.2605 106.289 80.2712C106.29 80.2819 106.289 80.2928 106.286 80.3031C106.283 80.3134 106.277 80.323 106.27 80.3313C106.263 80.3396 106.254 80.3465 106.244 80.3516C106.234 80.3567 106.223 80.3599 106.212 80.3609C106.201 80.362 106.189 80.3609 106.178 80.3578C106.168 80.3547 106.157 80.3496 106.149 80.3427C106.14 80.3359 106.133 80.3275 106.127 80.318L105.301 78.8505C105.296 78.8412 105.293 78.8311 105.291 78.8207Z" fill="#0C0C0C"/>
<path opacity="0.2" d="M103.555 79.6774C103.553 79.6583 103.558 79.6391 103.569 79.6231C103.58 79.607 103.597 79.5953 103.616 79.5898C103.636 79.5843 103.657 79.5855 103.675 79.5931C103.694 79.6008 103.709 79.6143 103.718 79.6315L104.091 80.3333C104.101 80.3527 104.103 80.3752 104.096 80.3959C104.089 80.4165 104.073 80.4337 104.053 80.4435C104.033 80.4533 104.009 80.455 103.987 80.4482C103.965 80.4415 103.947 80.4267 103.937 80.4073L103.564 79.7054C103.559 79.6966 103.556 79.6871 103.555 79.6774Z" fill="#0C0C0C"/>
<path d="M111.594 52.8733C111.594 52.8733 109.093 41.7286 106.255 42.6567C104.003 43.393 87.0865 56.641 86.5731 57.1214C85.4423 58.1792 84.7999 59.6205 84.7873 61.1284C84.7747 62.6363 85.3929 64.0872 86.5059 65.1619L99.673 79.479L107.272 72.7099L97.2796 62.4482L111.594 52.8733Z" fill="#367CFF"/>
<path d="M104.777 57.7002C104.757 57.7001 104.737 57.6928 104.722 57.6798C104.708 57.6667 104.699 57.6488 104.697 57.6297L104.363 53.2235C104.362 53.2135 104.363 53.2035 104.366 53.194C104.37 53.1845 104.375 53.1757 104.382 53.1682C104.389 53.1606 104.397 53.1544 104.406 53.1499C104.416 53.1454 104.426 53.1427 104.436 53.1419C104.447 53.141 104.457 53.1421 104.468 53.1452C104.478 53.1482 104.487 53.1531 104.495 53.1597C104.503 53.1662 104.51 53.1742 104.514 53.1832C104.519 53.1922 104.522 53.202 104.523 53.212L104.857 57.6183C104.858 57.6282 104.856 57.6383 104.853 57.6478C104.85 57.6573 104.845 57.666 104.838 57.6736C104.831 57.6812 104.823 57.6874 104.813 57.6919C104.804 57.6964 104.794 57.6991 104.783 57.6998L104.777 57.7002Z" fill="#0C0C0C"/>
<path d="M138.304 64.4188H138.298C138.277 64.4178 138.257 64.409 138.243 64.3942C138.228 64.3795 138.221 64.36 138.222 64.34L138.775 53.7872C138.777 53.7673 138.786 53.7487 138.802 53.7354C138.818 53.722 138.838 53.7147 138.859 53.7151C138.87 53.7156 138.88 53.718 138.889 53.7223C138.899 53.7266 138.907 53.7326 138.914 53.74C138.922 53.7474 138.927 53.7561 138.931 53.7655C138.934 53.7749 138.936 53.7849 138.935 53.7949L138.382 64.3471C138.381 64.3662 138.372 64.3842 138.358 64.3975C138.343 64.4108 138.324 64.4184 138.304 64.4188Z" fill="#0C0C0C"/>
<path d="M183.058 169H4.5127Cnan nan nan nan 4.5127 169L183.058 168.696V169Cnan nan nan nan 183.058 169Z" fill="#3F3F3F"/>
</g>
<defs>
<clipPath id="clip0_312_34322">
<rect width="188" height="169" fill="white"/>
</clipPath>
</defs>
</svg>
