<svg width="184" height="137" viewBox="0 0 184 137" fill="none" xmlns="http://www.w3.org/2000/svg">
<path d="M184 137H0C2.01615 130.828 5.73945 125.594 10.988 124.041C18.6661 121.772 26.7914 128.01 34.4523 125.665C38.8048 124.334 42.2313 120.453 45.8318 117.233C59.4155 105.077 78.0303 101.484 94.1039 107.918C102.506 111.28 110.162 117.158 118.769 119.658C129.899 122.891 141.537 120.21 152.982 119.768C164.129 119.337 180.1 124.789 184 137Z" fill="#F3F5FD"/>
<path d="M109.409 100.969H86.147V132.574H109.409V100.969Z" fill="#DEE8F5"/>
<path d="M154.395 0H41.1616C38.682 0 36.6719 2.41259 36.6719 5.38866V111.039C36.6719 114.015 38.682 116.428 41.1616 116.428H154.395C156.874 116.428 158.885 114.015 158.885 111.039V5.38866C158.885 2.41259 156.874 0 154.395 0Z" fill="#DEE8F5"/>
<path d="M154.116 3.67517H41.4401C40.3438 3.67517 39.4551 4.74182 39.4551 6.05759V98.4801C39.4551 99.7958 40.3438 100.862 41.4401 100.862H154.116C155.212 100.862 156.1 99.7958 156.1 98.4801V6.05759C156.1 4.74182 155.212 3.67517 154.116 3.67517Z" fill="white"/>
<path d="M116.754 129.741H78.8023C77.1322 129.741 75.7783 131.366 75.7783 133.371C75.7783 135.375 77.1322 137 78.8023 137H116.754C118.424 137 119.778 135.375 119.778 133.371C119.778 131.366 118.424 129.741 116.754 129.741Z" fill="#DEE8F5"/>
<path d="M121.961 22.7789H73.5952V66.5226H121.961V22.7789Z" fill="#DEE8F5"/>
<path d="M108.206 75.7351H87.3511V82.0534H108.206V75.7351Z" fill="#DEE8F5"/>
<path d="M98.453 34.7616H97.103V54.54H98.453V34.7616Z" fill="white"/>
<path d="M106.017 43.8408H89.5386V45.4609H106.017V43.8408Z" fill="white"/>
<path d="M17.9507 55.9327C17.9507 55.9327 19.2634 55.256 19.2634 51.1168L21.9022 50.7941C21.9022 50.7941 21.3583 54.4516 22.5932 55.7509L17.9507 55.9327Z" fill="#E98862"/>
<path d="M17.8974 49.3772C17.9922 50.6424 18.4787 51.8795 19.368 52.3726C20.3348 52.9471 21.404 53.2289 22.4824 53.1934C25.3469 53.1934 25.3146 45.3725 24.0666 43.7303C22.8187 42.0881 18.7888 42.6541 18.1342 45.1294C17.7957 46.4105 17.8073 48.173 17.8974 49.3772Z" fill="#E98862"/>
<path d="M23.7863 46.3338C22.6662 52.3643 21.6347 53.9763 19.0377 52.7689C18.4421 52.492 17.0155 50.7942 16.8727 47.1812C16.8142 45.9747 17.1256 44.7842 17.748 43.8343C18.3705 42.8843 19.261 42.2406 20.2517 42.0245C25.3952 41.1659 25.5756 46.7399 25.5756 46.7399C22.9943 47.2711 19.4785 46.3935 19.4785 46.3935" fill="#0F1011"/>
<path d="M23.9074 49.7389C23.904 50.0554 23.7969 50.3576 23.6092 50.58C23.4215 50.8024 23.1684 50.9271 22.9047 50.9271C22.641 50.9271 22.3878 50.8024 22.2002 50.58C22.0125 50.3576 21.9054 50.0554 21.902 49.7389C21.8997 49.5801 21.9241 49.4224 21.9737 49.2752C22.0233 49.1279 22.0971 48.9942 22.1906 48.8819C22.2842 48.7696 22.3956 48.681 22.5183 48.6215C22.6409 48.5619 22.7723 48.5326 22.9046 48.5353C23.6188 48.5774 23.9074 49.0741 23.9074 49.7389Z" fill="#E98862"/>
<path d="M29.1057 134.88L25.7017 134.394C25.8548 132.848 26.0281 130.99 26.0399 130.686C26.0399 130.705 26.0399 130.721 26.0399 130.734H29.4679C29.4666 130.857 29.4666 131.232 29.1057 134.88Z" fill="#E98862"/>
<path d="M15.4461 135.372L12.0181 135.359C12.0181 135.359 12.0295 131.11 12.0295 130.735H15.4575C15.4575 131.111 15.4461 135.372 15.4461 135.372Z" fill="#E98862"/>
<path d="M30.3696 133.458C30.0859 124.835 30.0687 115.779 29.9799 107.134C28.801 97.8094 28.1812 87.5822 26.7259 78.3237L26.6824 78.3391L26.5547 77.2949L14.1365 76.375C14.1365 76.375 13.8127 83.6784 13.6997 86.1124C13.0944 99.1585 11.8659 120.128 11.1348 133.347L17.1532 133.958C18.2279 120.956 19.6543 100.244 20.6256 87.4298C21.6914 93.9593 23.0231 101.312 23.9695 107.919C24.1767 116.359 24.3499 125.154 24.3311 133.581L30.3696 133.458Z" fill="#262626"/>
<path d="M19.6129 136.963C19.7051 136.963 19.7962 136.939 19.8806 136.895C19.9649 136.85 20.0406 136.785 20.1031 136.704C20.1655 136.622 20.2133 136.526 20.2434 136.422C20.2736 136.317 20.2855 136.206 20.2783 136.096C20.2684 135.943 20.2223 135.797 20.1454 135.674C20.0685 135.552 19.964 135.458 19.8443 135.404L15.8544 133.8C15.7771 133.77 15.6952 133.759 15.6143 133.77C15.5334 133.781 15.4554 133.813 15.3856 133.863C14.8371 134.32 14.1809 134.553 13.5136 134.529C12.9938 134.485 12.4949 134.266 12.0736 133.898C12.0366 133.861 11.9917 133.838 11.9442 133.831C11.8967 133.824 11.8485 133.834 11.8052 133.858C11.762 133.883 11.7255 133.922 11.7 133.971C11.6744 134.019 11.661 134.075 11.6611 134.133V136.475C11.6611 136.544 11.6725 136.612 11.6945 136.676C11.7166 136.74 11.749 136.798 11.7898 136.846C11.8305 136.895 11.879 136.934 11.9322 136.96C11.9855 136.986 12.0425 137 12.1001 136.999L19.6129 136.963Z" fill="#C1D8ED"/>
<path d="M33.2814 136.963C33.3736 136.963 33.4647 136.939 33.549 136.895C33.6334 136.85 33.7091 136.785 33.7716 136.704C33.834 136.622 33.8818 136.526 33.912 136.422C33.9422 136.317 33.9541 136.206 33.9469 136.096C33.937 135.943 33.8908 135.797 33.8139 135.674C33.737 135.552 33.6326 135.458 33.5129 135.405L29.5228 133.801C29.4456 133.77 29.3637 133.76 29.2828 133.77C29.2018 133.781 29.1238 133.813 29.054 133.863C28.5055 134.32 27.8493 134.553 27.182 134.529C26.6623 134.485 26.1634 134.266 25.7423 133.898C25.7052 133.862 25.6603 133.838 25.6128 133.831C25.5653 133.824 25.5171 133.834 25.4738 133.859C25.4306 133.883 25.394 133.922 25.3685 133.971C25.343 134.019 25.3295 134.076 25.3296 134.133V136.475C25.3296 136.544 25.3409 136.612 25.363 136.676C25.3851 136.74 25.4174 136.798 25.4582 136.847C25.499 136.895 25.5474 136.934 25.6007 136.96C25.6539 136.986 25.711 137 25.7685 136.999L33.2814 136.963Z" fill="#C1D8ED"/>
<path d="M32.6411 62.6091L32.717 62.6483L31.7676 62.8322L32.6997 64.9678C32.6997 64.9678 36.1559 65.9386 37.7729 63.7548C37.8141 63.6992 37.8403 63.63 37.8481 63.5561C37.8559 63.4823 37.845 63.4074 37.8168 63.3412C37.7886 63.2749 37.7444 63.2205 37.69 63.1849C37.6355 63.1492 37.5734 63.1342 37.5118 63.1416C36.5798 63.2551 34.9177 63.3902 34.1693 63.0358C34.4984 62.8418 34.935 62.5448 34.8665 62.3673C34.6859 61.9008 33.121 62.516 32.6411 62.6091Z" fill="#E98862"/>
<path d="M29.4717 63.804L29.7786 64.0332H29.4717V63.804Z" fill="#FD5D76"/>
<path d="M71.2459 26.2495V64.0332H31.1498L29.4717 61.4216V26.2495H71.2459Z" fill="#0CBC8B"/>
<path d="M34.5356 52.6464L41.9019 44.9529L50.2491 52.6464H34.5356Z" fill="white"/>
<path d="M43.2095 52.6464L56.3149 41.3505L66.1828 52.6464H43.2095Z" fill="white"/>
<path d="M47.4794 41.5458C48.3789 41.5458 49.1082 40.6706 49.1082 39.5909C49.1082 38.5112 48.3789 37.636 47.4794 37.636C46.5798 37.636 45.8506 38.5112 45.8506 39.5909C45.8506 40.6706 46.5798 41.5458 47.4794 41.5458Z" fill="white"/>
<path d="M42.8849 62.6091L42.9608 62.6483L42.0112 62.8322L42.9433 64.9678C42.9433 64.9678 46.3996 65.9386 48.0167 63.7548C48.0579 63.6992 48.0841 63.63 48.0919 63.5561C48.0997 63.4823 48.0888 63.4074 48.0606 63.3412C48.0324 63.2749 47.9882 63.2205 47.9338 63.1849C47.8794 63.1492 47.8172 63.1342 47.7556 63.1416C46.8235 63.2551 45.1616 63.3902 44.4131 63.0358C44.7422 62.8418 45.1789 62.5448 45.1103 62.3673C44.9298 61.9008 43.3651 62.516 42.8849 62.6091Z" fill="#E98862"/>
<path d="M42.3906 62.1234L33.7463 65.4829L33.1396 64.033H31.1504L26.8246 57.3031C26.3349 56.1612 25.4093 55.4203 23.7661 55.3358C23.1109 55.3021 19.9128 55.2966 17.5714 55.2966C15.9983 55.2966 14.7069 55.8758 13.9613 56.7709C11.3901 59.8569 14.546 65.1155 14.546 69.2316C14.546 73.3478 12.9952 75.1912 13.1095 77.3037C13.289 80.6236 26.7281 79.8391 27.4129 77.9533C28.0423 76.2173 26.9703 75.0733 26.7774 70.3231L29.6022 68.6198L30.3624 69.8004C30.5864 70.149 30.8947 70.406 31.245 70.5362C31.5954 70.6664 31.9707 70.6635 32.3197 70.5279L43.4868 66.1876L42.3906 62.1234ZM26.9383 65.4431C26.9651 65.1636 26.9927 64.8835 27.0211 64.603L27.3869 65.1723L26.9383 65.4431Z" fill="#367CFF"/>
<path d="M19.0098 46.9389C19.0098 46.9389 18.8048 44.5557 17.06 44.5557C14.988 44.5557 16.4028 51.3891 17.3094 55.5676C17.4061 56.0144 17.4231 56.4807 17.3595 56.936C17.2958 57.3913 17.1528 57.8253 16.9399 58.2097C16.727 58.5942 16.4489 58.9204 16.1237 59.1671C15.7986 59.4138 15.4338 59.5754 15.0531 59.6414C14.6862 59.7055 14.3122 59.6793 13.954 59.5646C13.5957 59.4498 13.2607 59.2488 12.9691 58.9738C12.6776 58.6988 12.4357 58.3555 12.2581 57.9649C12.0805 57.5742 11.971 57.1442 11.9361 56.7012C11.5167 51.3431 11.6144 41.4568 16.3109 41.6472C19.3623 41.7709 19.3623 45.4217 19.3623 45.4217L19.0098 46.9389Z" fill="#0F1011"/>
<path d="M18.2917 45.8956C18.1958 45.8957 18.103 45.8553 18.0295 45.7814C17.9559 45.7075 17.9064 45.605 17.8896 45.4917C17.8728 45.3784 17.8898 45.2616 17.9375 45.1618C17.9853 45.062 18.0608 44.9856 18.1508 44.946C18.2842 44.9011 18.4087 44.8247 18.5171 44.7213C18.6256 44.6179 18.7157 44.4895 18.7822 44.3437C18.8647 44.0914 18.8697 43.8122 18.7963 43.5559C18.7577 43.4356 18.7603 43.3018 18.8034 43.1837C18.8465 43.0656 18.9266 42.9727 19.0264 42.925C19.1263 42.8774 19.2377 42.8789 19.3366 42.9293C19.4355 42.9797 19.5138 43.0748 19.5547 43.194C19.7098 43.6922 19.7014 44.2424 19.5312 44.7334C19.4228 45.0027 19.2693 45.2422 19.0803 45.4369C18.8912 45.6317 18.6707 45.7775 18.4326 45.8653C18.3875 45.8853 18.3398 45.8956 18.2917 45.8956Z" fill="#262626"/>
<path d="M163.784 136.299C167.091 135.433 170.328 134.189 173.489 130.1C174.138 129.262 174.77 128.168 174.526 127.061C174.343 126.227 173.683 125.637 172.984 125.432C172.723 125.358 172.457 125.322 172.189 125.323C172.188 125.323 172.186 125.323 172.186 125.323C171.774 125.331 171.364 125.385 170.96 125.483L170.845 125.51C168.92 125.957 167.06 126.743 165.326 127.842C165.169 127.941 164.988 127.973 164.814 127.934C164.64 127.894 164.482 127.784 164.366 127.623C164.25 127.462 164.183 127.258 164.176 127.045C164.169 126.832 164.222 126.623 164.327 126.451C164.518 126.14 164.735 125.853 164.975 125.594C165.328 125.221 165.709 124.889 166.113 124.601C166.652 124.209 167.22 123.87 167.778 123.519C169.852 122.219 171.835 120.722 173.709 119.042C175.047 117.841 176.367 116.492 177.091 114.685C177.424 113.854 177.618 112.877 177.354 112.011C176.918 110.589 175.432 110.05 174.175 110.207C171.971 110.481 170.103 112.21 168.431 113.953C167.043 115.402 165.493 117.004 163.655 116.912C163.341 116.915 163.033 116.807 162.769 116.602C162.274 116.169 162.203 115.275 162.438 114.597C162.674 113.918 163.145 113.404 163.599 112.912C166.236 110.051 168.845 107.06 170.686 103.411C172.527 99.7619 173.543 95.3341 172.743 91.1758C172.508 89.9611 172.11 88.7597 171.422 87.8232C170.735 86.8867 169.723 86.2395 168.683 86.2981C167.266 86.3753 166.11 87.6858 165.295 89.0773C162.496 93.8533 162.205 100.028 161.106 105.716C160.798 107.308 160.4 108.933 159.506 110.178C159.423 110.298 159.32 110.395 159.203 110.463C158.512 110.853 157.987 109.869 157.796 109.061C157.041 105.862 157.051 102.295 155.487 99.5507C154.89 98.5063 154.005 97.5931 152.953 97.4935C151.668 97.3719 150.477 98.5458 149.996 99.9818C149.516 101.418 149.626 103.042 149.923 104.547C150.474 107.338 151.635 109.914 153.055 112.22C153.805 113.437 154.661 114.677 154.804 116.179C154.845 116.689 154.776 117.203 154.604 117.671C154.433 118.14 154.165 118.548 153.825 118.858C153.666 118.997 153.486 119.096 153.295 119.15C153.104 119.204 152.906 119.211 152.712 119.171C152.294 119.081 151.931 118.784 151.582 118.495C151.435 118.374 151.288 118.251 151.14 118.13C150.556 117.648 149.972 117.165 149.388 116.681C147.905 115.451 146.098 114.165 144.407 114.917C143.543 115.302 142.934 116.171 142.603 117.206C142.305 118.146 142.232 119.167 142.392 120.153C142.733 122.206 145.386 128.096 146.542 129.663C147.889 131.494 152.469 139.263 163.784 136.299Z" fill="#8DDBE0"/>
</svg>
