<svg width="113" height="59" viewBox="0 0 113 59" fill="none" xmlns="http://www.w3.org/2000/svg">
<path d="M113 58.9999H0C1.23818 56.3421 3.52477 54.0878 6.74809 53.419C11.4634 52.4419 16.4534 55.1283 21.1582 54.1183C23.8312 53.5451 25.9355 51.874 28.1467 50.4869C36.4889 45.2521 47.9208 43.7049 57.7921 46.4757C62.9519 47.9232 67.6539 50.4548 72.9398 51.5314C79.7747 52.9236 86.9224 51.7691 93.951 51.5788C100.796 51.393 110.605 53.7409 113 58.9999Z" fill="#F3F5FD"/>
<path d="M67.1913 43.4832H52.9053V57.0938H67.1913V43.4832Z" fill="#DEE8F5"/>
<path d="M94.8183 0H25.2783C23.7555 0 22.521 1.039 22.521 2.32066V47.8197C22.521 49.1013 23.7555 50.1403 25.2783 50.1403H94.8183C96.3411 50.1403 97.5755 49.1013 97.5755 47.8197V2.32066C97.5755 1.039 96.3411 0 94.8183 0Z" fill="#DEE8F5"/>
<path d="M94.6469 1.58276H25.4495C24.7762 1.58276 24.2305 2.04212 24.2305 2.60877V42.4112C24.2305 42.9778 24.7762 43.4372 25.4495 43.4372H94.6469C95.3202 43.4372 95.866 42.9778 95.866 42.4112V2.60877C95.866 2.04212 95.3202 1.58276 94.6469 1.58276Z" fill="white"/>
<path d="M71.7017 55.8738H48.3942C47.3686 55.8738 46.5371 56.5736 46.5371 57.4368C46.5371 58.3001 47.3686 58.9999 48.3942 58.9999H71.7017C72.7274 58.9999 73.5588 58.3001 73.5588 57.4368C73.5588 56.5736 72.7274 55.8738 71.7017 55.8738Z" fill="#DEE8F5"/>
<path d="M66.4521 32.616H53.6445V35.337H66.4521V32.616Z" fill="#DEE8F5"/>
<path d="M65.1085 7.86607V9.05019C65.1085 9.25159 65.0134 9.44475 64.8442 9.58716C64.675 9.72957 64.4455 9.80957 64.2063 9.80957H46.0995V11.3283C46.278 11.3283 46.4524 11.2838 46.6008 11.2004C46.7491 11.1169 46.8648 10.9983 46.9331 10.8596C47.0014 10.7208 47.0192 10.5681 46.9844 10.4208C46.9496 10.2735 46.8637 10.1382 46.7375 10.032C46.6113 9.92579 46.4505 9.85347 46.2755 9.82417C46.1005 9.79486 45.9191 9.8099 45.7542 9.86738C45.5894 9.92485 45.4485 10.0222 45.3493 10.1471C45.2502 10.2719 45.1973 10.4188 45.1973 10.569V27.8887C45.1973 28.0901 45.2923 28.2833 45.4615 28.4257C45.6307 28.5681 45.8602 28.6481 46.0995 28.6481H73.9973C74.2366 28.6481 74.4661 28.5681 74.6353 28.4257C74.8045 28.2833 74.8995 28.0901 74.8995 27.8887V7.86607C74.8995 7.71588 74.8466 7.56906 74.7475 7.44418C74.6484 7.3193 74.5074 7.22197 74.3426 7.16449C74.1777 7.10702 73.9963 7.09198 73.8213 7.12128C73.6463 7.15058 73.4855 7.22291 73.3593 7.32911C73.2331 7.43531 73.1472 7.57062 73.1124 7.71792C73.0776 7.86523 73.0954 8.01791 73.1637 8.15667C73.232 8.29543 73.3477 8.41403 73.496 8.49747C73.6444 8.58091 73.8189 8.62545 73.9973 8.62545L66.0111 7.10669C65.8926 7.10665 65.7753 7.12625 65.6657 7.1644C65.5562 7.20254 65.4567 7.25847 65.3729 7.32899C65.2891 7.39951 65.2226 7.48324 65.1772 7.57539C65.1318 7.66754 65.1085 7.76632 65.1085 7.86607Z" fill="#DEE8F5"/>
<path d="M60.4628 14.9702H59.6338V23.4879H60.4628V14.9702Z" fill="white"/>
<path d="M65.1085 18.8804H54.9883V19.5782H65.1085V18.8804Z" fill="white"/>
<path d="M28.676 58.0872L26.5854 57.8778C26.6796 57.2119 26.7859 56.4119 26.7933 56.2808C26.7933 56.2892 26.7933 56.296 26.7933 56.3014H28.8985C28.898 56.3544 28.898 56.5163 28.676 58.0872Z" fill="#E98862"/>
<path d="M20.2874 58.2988L18.1821 58.293C18.1821 58.293 18.1891 56.4634 18.1891 56.3018H20.2944C20.2944 56.464 20.2874 58.2988 20.2874 58.2988Z" fill="#E98862"/>
<path d="M29.4525 57.4743C29.2783 53.7611 29.2678 49.861 29.2132 46.1379C28.4892 42.1222 28.1086 37.7178 27.2148 33.7306L27.1881 33.7372L27.1097 33.2875L19.483 32.8914C19.483 32.8914 19.2841 36.0366 19.2148 37.0848C18.8431 42.7032 18.0887 51.7337 17.6396 57.4268L21.3356 57.6897C21.9958 52.0905 22.8717 43.1707 23.4681 37.6522C24.1228 40.4641 24.9406 43.6308 25.5218 46.4761C25.6491 50.1108 25.7553 53.8986 25.7438 57.5274L29.4525 57.4743Z" fill="#262626"/>
<path d="M22.8468 58.9843C22.9034 58.9841 22.9594 58.974 23.0112 58.9548C23.063 58.9355 23.1095 58.9075 23.1479 58.8725C23.1862 58.8374 23.2156 58.7961 23.2341 58.751C23.2526 58.706 23.2599 58.6583 23.2555 58.6108C23.2494 58.5449 23.2211 58.4819 23.1739 58.4291C23.1266 58.3764 23.0625 58.3361 22.989 58.313L20.5386 57.6222C20.4911 57.609 20.4408 57.6046 20.3911 57.6092C20.3414 57.6139 20.2935 57.6275 20.2507 57.6491C19.9138 57.8459 19.5108 57.9464 19.101 57.936C18.7818 57.9169 18.4755 57.8227 18.2168 57.6642C18.1941 57.6485 18.1665 57.6385 18.1373 57.6355C18.1081 57.6325 18.0785 57.6366 18.052 57.6472C18.0254 57.6578 18.003 57.6745 17.9873 57.6955C17.9716 57.7164 17.9633 57.7407 17.9634 57.7654V58.7738C17.9634 58.8036 17.9703 58.8331 17.9839 58.8605C17.9974 58.888 18.0173 58.913 18.0424 58.934C18.0674 58.955 18.0972 58.9716 18.1299 58.9829C18.1626 58.9942 18.1976 58.9999 18.233 58.9998L22.8468 58.9843Z" fill="#C1D8ED"/>
<path d="M31.2409 58.9843C31.2975 58.984 31.3534 58.974 31.4052 58.9548C31.457 58.9355 31.5035 58.9075 31.5419 58.8724C31.5802 58.8374 31.6096 58.7961 31.6281 58.751C31.6466 58.706 31.6539 58.6583 31.6495 58.6107C31.6434 58.5449 31.6151 58.4819 31.5679 58.4291C31.5207 58.3764 31.4565 58.3361 31.383 58.313L28.9326 57.6222C28.8852 57.609 28.8349 57.6046 28.7852 57.6092C28.7355 57.6139 28.6876 57.6275 28.6447 57.6491C28.3079 57.8459 27.9049 57.9464 27.4951 57.936C27.1758 57.9169 26.8694 57.8227 26.6108 57.6642C26.588 57.6485 26.5605 57.6385 26.5313 57.6355C26.5021 57.6325 26.4725 57.6365 26.4459 57.6471C26.4194 57.6578 26.3969 57.6745 26.3813 57.6955C26.3656 57.7164 26.3573 57.7407 26.3574 57.7654V58.7738C26.3574 58.8036 26.3644 58.8331 26.3779 58.8605C26.3915 58.888 26.4114 58.913 26.4364 58.934C26.4615 58.955 26.4912 58.9716 26.5239 58.9829C26.5566 58.9942 26.5916 58.9999 26.627 58.9998L31.2409 58.9843Z" fill="#C1D8ED"/>
<path d="M30.8476 26.963L30.8942 26.9799L30.311 27.0591L30.8835 27.9788C30.8835 27.9788 33.006 28.3969 33.9992 27.4564C34.0245 27.4325 34.0406 27.4026 34.0454 27.3708C34.0502 27.3391 34.0435 27.3068 34.0262 27.2783C34.0088 27.2497 33.9817 27.2263 33.9483 27.2109C33.9148 27.1956 33.8767 27.1891 33.8388 27.1923C33.2664 27.2412 32.2457 27.2994 31.7861 27.1468C31.9882 27.0632 32.2564 26.9353 32.2143 26.8589C32.1034 26.658 31.1425 26.9229 30.8476 26.963Z" fill="#E98862"/>
<path d="M28.9009 27.4778L29.0892 27.5765H28.9009V27.4778Z" fill="#FD5D76"/>
<path d="M41.4333 27.5471H30.311V15.4619H39.0662L41.4333 17.5673V27.5471Z" fill="#C1D8ED"/>
<path d="M39.0664 15.4619V17.5673H41.4335L39.0664 15.4619Z" fill="#DEE8F5"/>
<path d="M40.1717 20.6702H31.5728V21.0726H40.1717V20.6702Z" fill="#DEE8F5"/>
<path d="M40.1717 21.9824H31.5728V22.3849H40.1717V21.9824Z" fill="#DEE8F5"/>
<path d="M40.1717 23.2949H31.5728V23.6974H40.1717V23.2949Z" fill="#DEE8F5"/>
<path d="M40.1717 24.6072H31.5728V25.0096H40.1717V24.6072Z" fill="#DEE8F5"/>
<path d="M40.1717 25.9197H31.5728V26.3221H40.1717V25.9197Z" fill="#DEE8F5"/>
<path d="M37.1386 26.963L37.1852 26.9799L36.6021 27.0591L37.1745 27.9788C37.1745 27.9788 39.2971 28.3969 40.2902 27.4564C40.3155 27.4325 40.3316 27.4026 40.3364 27.3708C40.3412 27.3391 40.3345 27.3068 40.3172 27.2783C40.2998 27.2497 40.2727 27.2263 40.2393 27.2109C40.2058 27.1956 40.1677 27.1891 40.1298 27.1923C39.5574 27.2412 38.5368 27.2994 38.0771 27.1468C38.2792 27.0632 38.5474 26.9353 38.5052 26.8589C38.3944 26.658 37.4331 26.9229 37.1386 26.963Z" fill="#E98862"/>
<path d="M21.8032 24.3171C21.8032 24.3171 22.5784 23.9712 22.4053 22.1945L24.0069 21.9446C24.0069 21.9446 23.8265 23.5374 24.6373 24.0432L21.8032 24.3171Z" fill="#E98862"/>
<path d="M21.4964 21.5054C21.6073 22.0445 21.9567 22.5549 22.5217 22.7289C23.1923 22.9358 23.6886 22.9501 24.4623 22.9501C25.5174 22.9501 25.4825 22.024 25.5122 21.0907C25.5423 20.1541 25.4534 19.1485 25.0364 18.822C24.2043 18.1702 21.7609 18.5829 21.4637 19.6731C21.31 20.2364 21.3908 20.9926 21.4964 21.5054Z" fill="#E98862"/>
<path d="M24.3425 22.6406C24.1821 22.8769 22.7106 22.8653 22.3275 22.6744C21.9506 22.4865 21.1034 22.1607 20.8148 20.6256C20.5561 19.2503 21.5643 18.6828 22.3682 18.4803C23.0613 18.3058 24.6787 18.2699 25.4377 18.655C26.0919 18.9868 25.4377 19.7587 25.4377 19.7587C25.3149 19.7833 25.1893 19.7965 25.0632 19.7982C24.6108 19.7982 24.5184 20.0461 24.5343 20.1948C24.6317 21.0959 24.538 22.3523 24.3425 22.6406Z" fill="#0F1011"/>
<path d="M25.2509 21.2673C25.2587 21.3356 25.2503 21.4046 25.2261 21.4702C25.202 21.5358 25.1626 21.5967 25.1102 21.6494C25.0578 21.7021 24.9935 21.7455 24.921 21.777C24.8486 21.8086 24.7694 21.8278 24.688 21.8334C24.6067 21.8389 24.5249 21.8309 24.4473 21.8096C24.3697 21.7884 24.2979 21.7543 24.236 21.7095C24.1742 21.6647 24.1236 21.61 24.0871 21.5485C24.0506 21.4871 24.029 21.4202 24.0235 21.3516C24.0154 21.2836 24.0238 21.2148 24.048 21.1496C24.0722 21.0843 24.1117 21.0237 24.1643 20.9716C24.2169 20.9194 24.2814 20.8767 24.354 20.846C24.4266 20.8153 24.5058 20.7971 24.5869 20.7927C25.0258 20.781 25.2232 20.982 25.2509 21.2673Z" fill="#E98862"/>
<path d="M36.8348 26.7539L31.5261 28.2007L31.1533 27.5764H29.9317L27.2751 24.6781C26.9737 24.1863 26.4059 23.8672 25.3968 23.8308C24.9943 23.8163 23.0303 23.814 21.5923 23.814C20.6263 23.814 19.8333 24.0634 19.3752 24.4489C17.7963 25.7779 19.7344 28.0425 19.7344 29.8152C19.7344 31.5878 18.782 32.3817 18.8522 33.2915C18.9625 34.7212 27.2159 34.3834 27.6365 33.5712C28.0229 32.8236 27.3647 32.3309 27.2462 30.2852L28.9805 29.5517L29.4474 30.061C29.5849 30.2111 29.7743 30.3218 29.9894 30.3778C30.2046 30.4339 30.4351 30.4327 30.6494 30.3743L37.5078 28.5051L36.8348 26.7539ZM27.345 28.1836C27.3615 28.0632 27.3784 27.9426 27.3958 27.8218L27.6205 28.067L27.345 28.1836Z" fill="#367CFF"/>
<path d="M14.1396 51.926C13.6383 51.7878 13.1238 51.9428 12.6316 52.2579C13.2799 50.88 13.5476 49.6355 12.4391 49.5794C11.6637 49.5402 11.0695 50.0409 10.6182 50.7529C10.4596 49.5012 10.05 48.5675 9.13271 48.8771C8.12561 49.2169 7.97233 50.3815 8.12511 51.6C7.68151 50.9777 7.20372 50.6305 6.77004 50.9956C5.47552 52.0852 8.65292 55.1553 8.65292 55.1553H9.44208L9.89241 55.5669C9.80128 55.7291 9.75135 55.8257 9.75135 55.8257L10.3234 56.8055C10.3234 56.8055 16.2198 52.499 14.1396 51.926Z" fill="#8DDBE0"/>
<path d="M12.7244 59H8.2583L7.51074 54.6118H13.4721L12.7244 59Z" fill="#C1D8ED"/>
<path d="M100.585 58.6981C102.616 58.325 104.604 57.7894 106.545 56.0285C106.943 55.6677 107.331 55.1966 107.182 54.7196C107.069 54.3606 106.664 54.1065 106.235 54.018C106.075 53.9865 105.911 53.9708 105.747 53.9713C105.746 53.9713 105.745 53.9713 105.745 53.9713C105.492 53.9749 105.24 53.9979 104.992 54.0401L104.921 54.0517C103.738 54.2444 102.596 54.5829 101.531 55.0562C101.435 55.0988 101.324 55.1127 101.217 55.0955C101.11 55.0783 101.013 55.0312 100.942 54.9617C100.871 54.8922 100.83 54.8046 100.826 54.7129C100.821 54.6213 100.854 54.5312 100.918 54.4572C101.036 54.3231 101.169 54.1994 101.316 54.088C101.533 53.9274 101.767 53.7842 102.015 53.6603C102.346 53.4915 102.695 53.3454 103.038 53.1943C104.311 52.6345 105.529 51.9897 106.68 51.2662C107.502 50.7492 108.312 50.1682 108.757 49.39C108.961 49.0321 109.081 48.6111 108.918 48.2383C108.65 47.6258 107.738 47.394 106.966 47.4613C105.612 47.5794 104.465 48.3243 103.438 49.0749C102.586 49.6987 101.634 50.3887 100.505 50.3489C100.312 50.3502 100.123 50.3037 99.961 50.2154C99.6571 50.0288 99.6133 49.6442 99.7582 49.3519C99.9031 49.0595 100.192 48.8384 100.471 48.6262C102.091 47.3944 103.693 46.1062 104.823 44.5347C105.954 42.9632 106.578 41.0563 106.086 39.2655C105.942 38.7424 105.698 38.225 105.276 37.8217C104.853 37.4184 104.232 37.1397 103.593 37.1649C102.723 37.1982 102.013 37.7625 101.513 38.3618C99.7936 40.4186 99.6147 43.0779 98.9398 45.5274C98.7508 46.2131 98.5063 46.9127 97.9573 47.4488C97.9064 47.5005 97.8429 47.5423 97.7712 47.5716C97.3467 47.7394 97.0244 47.3159 96.9069 46.9678C96.4436 45.5904 96.4495 44.0539 95.4891 42.8722C95.1226 42.4224 94.5787 42.0292 93.9329 41.9863C93.1439 41.9339 92.4121 42.4395 92.1172 43.0579C91.8223 43.6763 91.8897 44.3757 92.0719 45.0238C92.4103 46.2259 93.1235 47.3352 93.9959 48.3283C94.4559 48.8525 94.9817 49.3866 95.0698 50.0335C95.0947 50.253 95.0524 50.4742 94.9472 50.676C94.8419 50.8779 94.6771 51.0538 94.4683 51.187C94.371 51.2468 94.2603 51.2896 94.143 51.3128C94.0256 51.336 93.9039 51.3391 93.785 51.322C93.5282 51.2833 93.3055 51.1553 93.0908 51.0309C93.0006 50.9787 92.9104 50.9258 92.8193 50.8737C92.4609 50.666 92.1024 50.4578 91.7439 50.2494C90.8325 49.72 89.7231 49.1662 88.6845 49.49C88.1539 49.6557 87.7801 50.03 87.5765 50.4757C87.3938 50.8804 87.3491 51.3199 87.4473 51.7448C87.6567 52.6291 89.286 55.1653 89.9958 55.8404C90.8232 56.6288 93.6358 59.9747 100.585 58.6981Z" fill="#8DDBE0"/>
</svg>
