<svg width="153" height="163" viewBox="0 0 153 163" fill="none" xmlns="http://www.w3.org/2000/svg">
<path d="M60.7691 149.247C60.7691 149.247 57.5687 153.435 61.0594 156.919C64.55 160.402 60.7882 162.308 60.7882 162.308L46.5996 149.745L53.6898 143.468L60.7691 149.247Z" fill="#367CFF"/>
<path d="M61.5225 63.0893C61.5225 63.0893 61.5854 61.5965 61.5709 64.9827C61.5489 70.6058 62.1531 85.4652 61.7286 104.617C61.39 119.926 49.3535 146.196 49.3535 146.196L60.2087 153.095C60.2087 153.095 76.5376 129.644 79.129 106.429C80.4554 94.5453 83.1682 62.5757 83.1682 62.5757L61.5225 63.0893Z" fill="#262626"/>
<path d="M95.0193 153.672C95.0193 153.672 96.1012 158.637 101.352 158.914C106.603 159.191 105.464 162.895 105.464 162.895H85.3984V154.018L95.0193 153.672Z" fill="#367CFF"/>
<path d="M97.5699 64.0704C97.5699 64.0704 99.217 107.238 99.0453 109.348L97.4973 156.514L84.5299 156.726L82.4389 107.642C82.4389 107.642 81.0692 94.1021 77.3734 81.5291C75.483 75.0764 74.3454 68.4689 73.9785 61.8105L97.5699 64.0704Z" fill="#262626"/>
<path d="M80.4629 94.6757L81.544 80.0342C81.544 80.0342 82.6547 86.1212 82.6547 91.3678C82.6547 93.9322 82.0583 104.086 82.0583 104.086L80.4629 94.6757Z" fill="#0A0A0A"/>
<path d="M61.3815 63.0884L61.3379 63.0906C61.3379 63.0906 61.3684 62.3543 61.3815 63.0884Z" fill="#333333"/>
<path d="M61.434 63.0884L61.3906 63.0906C61.3906 63.0906 61.4218 62.3543 61.434 63.0884Z" fill="#333333"/>
<path d="M69.9253 8.55615C69.9253 8.55615 68.8807 13.4854 67.3748 15.1546C63.0392 19.9596 61.1979 25.6865 64.4259 29.1222C67.6539 32.5578 90.8638 35.0575 93.5698 28.228C95.8478 22.4781 92.7562 21.5067 92.6408 16.5522C92.5888 14.3105 92.2504 9.58564 92.2504 9.58564" fill="#0A0A0A"/>
<path d="M88.7548 25.623C88.7144 25.6185 88.2664 32.1978 79.6333 31.6249C73.6567 31.2285 71.5258 25.6138 71.3887 25.6138C72.033 25.4925 73.1183 25.3161 73.4044 25.1809C74.3455 24.7331 75.5099 24.2673 75.8132 22.6489C75.9881 21.7162 75.6923 16.9446 75.7827 16.001L84.9569 17.8141C84.829 19.8071 83.9316 24.4275 87.0762 25.2456C87.6003 25.3805 88.1631 25.505 88.7548 25.623Z" fill="#E98862"/>
<path opacity="0.52" d="M85.0839 23.3568C84.9402 22.9468 84.8476 22.5241 84.8079 22.0962C84.7071 21.1197 84.7272 20.1363 84.8679 19.1637C83.0035 18.9407 81.2472 18.2593 79.7983 17.1968C79.629 17.7536 78.691 20.188 78.9517 20.7174C79.4408 21.7182 81.7461 23.3568 85.0839 23.3568Z" fill="#0C0C0C"/>
<path d="M83.4574 21.7669C79.8245 21.6945 75.3494 19.9307 74.9586 15.5938L74.6059 11.6808C74.215 7.34399 76.4707 3.64666 81.0822 3.3207C85.6937 2.99496 89.4575 6.26696 89.8484 10.6038L90.0044 12.3362C90.1543 14.0002 89.9393 21.8963 83.4574 21.7669Z" fill="#E98862"/>
<path d="M87.3589 12.6249C87.6736 12.6249 87.9288 12.399 87.9288 12.1203C87.9288 11.8416 87.6736 11.6157 87.3589 11.6157C87.0442 11.6157 86.7891 11.8416 86.7891 12.1203C86.7891 12.399 87.0442 12.6249 87.3589 12.6249Z" fill="#0C0C0C"/>
<path d="M82.1714 12.6249C82.4861 12.6249 82.7412 12.399 82.7412 12.1203C82.7412 11.8416 82.4861 11.6157 82.1714 11.6157C81.8567 11.6157 81.6016 11.8416 81.6016 12.1203C81.6016 12.399 81.8567 12.6249 82.1714 12.6249Z" fill="#0C0C0C"/>
<path opacity="0.52" d="M85.6037 16.0109H85.6129C85.7996 15.9964 85.9853 15.9729 86.1692 15.9404C86.4442 15.8901 86.8074 15.798 86.7878 15.5813C86.7658 15.3341 85.7611 12.7219 85.6465 12.4249C85.636 12.3995 85.6147 12.3787 85.5871 12.367C85.5596 12.3554 85.5279 12.3537 85.499 12.3625C85.4701 12.3712 85.4462 12.3896 85.4324 12.4138C85.4187 12.438 85.4162 12.4659 85.4254 12.4917C85.8542 13.6041 86.5402 15.4313 86.5552 15.5971C86.516 15.6699 86.0574 15.7714 85.5938 15.8042C85.5639 15.8066 85.5362 15.8191 85.5165 15.839C85.4967 15.859 85.4864 15.8849 85.4876 15.9114C85.4888 15.9379 85.5015 15.963 85.523 15.9815C85.5445 16 85.5732 16.0104 85.6032 16.0107L85.6037 16.0109Z" fill="#0C0C0C"/>
<path opacity="0.52" d="M84.8498 17.043C84.1023 17.0553 83.3685 17.2229 82.7075 17.5324C82.6932 17.5381 82.6802 17.5464 82.6696 17.5566C82.6589 17.5669 82.6507 17.579 82.6454 17.5922C82.6401 17.6053 82.6379 17.6193 82.6389 17.6332C82.6399 17.6472 82.6441 17.6608 82.6511 17.6732C82.6582 17.6857 82.6681 17.6968 82.6802 17.7058C82.6922 17.7148 82.7062 17.7215 82.7213 17.7256C82.7363 17.7297 82.7522 17.7311 82.7679 17.7296C82.7836 17.7281 82.7987 17.7238 82.8125 17.717C84.2395 17.0805 85.5756 17.0863 86.6791 17.7335C86.7013 17.7472 86.7244 17.7599 86.7482 17.7714C86.7758 17.7821 86.807 17.783 86.8353 17.7739C86.8636 17.7647 86.8868 17.7463 86.9001 17.7224C86.9134 17.6984 86.9157 17.6709 86.9066 17.6455C86.8975 17.6201 86.8777 17.5987 86.8513 17.5859C86.8423 17.5817 86.8271 17.5729 86.8082 17.5611C86.2282 17.2197 85.5463 17.0393 84.8498 17.043Z" fill="#0C0C0C"/>
<path d="M70.827 12.6722L74.9584 12.4013C78.1605 11.5949 79.661 6.98119 79.661 6.98119C79.661 6.98119 82.9962 10.5532 92.2502 9.58629C92.2502 9.58629 91.7976 -1.73894 78.0601 0.229875C73.6305 0.864872 70.0752 4.40886 69.8351 9.57622C69.6667 13.1967 70.827 12.6722 70.827 12.6722Z" fill="#0A0A0A"/>
<path d="M75.3629 16.8952C73.9615 16.9941 72.7059 15.7468 72.594 14.506C72.482 13.2651 73.5566 12.5005 74.958 12.4014L75.7562 13.182L76.5689 16.8099L75.3629 16.8952Z" fill="#E98862"/>
<path d="M86.7233 10.4721C87.1518 10.2812 87.6304 10.196 88.109 10.2254C88.3446 10.2386 88.5768 10.2829 88.7976 10.3571C89.0161 10.4293 89.2235 10.5255 89.4148 10.6435C89.4423 10.6586 89.4618 10.6828 89.4691 10.7107C89.4765 10.7386 89.471 10.7679 89.4539 10.7922C89.4368 10.8165 89.4095 10.8338 89.378 10.8403C89.3465 10.8468 89.3134 10.8419 89.2859 10.8268L89.2777 10.8225C89.0996 10.7225 88.908 10.6429 88.7073 10.5854C88.5093 10.5277 88.3026 10.4967 88.0942 10.4935C87.6805 10.4852 87.2716 10.5738 86.909 10.7505L86.8972 10.7565C86.855 10.7779 86.805 10.7835 86.7581 10.7722C86.7112 10.7609 86.6713 10.7336 86.6472 10.6962C86.6231 10.6589 86.6167 10.6146 86.6295 10.5731C86.6423 10.5316 86.6731 10.4963 86.7153 10.4749L86.7233 10.4721Z" fill="#0C0C0C"/>
<path d="M83.0171 10.8793C82.6282 10.7545 82.209 10.7231 81.8019 10.788C81.5963 10.8196 81.3973 10.8785 81.2115 10.9626C81.0234 11.0469 80.848 11.1517 80.6893 11.2746L80.6823 11.28C80.6702 11.2892 80.6561 11.2963 80.6409 11.3008C80.6257 11.3053 80.6096 11.307 80.5937 11.306C80.5777 11.305 80.5621 11.3012 80.5478 11.2948C80.5335 11.2885 80.5207 11.2797 80.5102 11.2689C80.4997 11.2582 80.4917 11.2457 80.4867 11.2323C80.4816 11.2188 80.4796 11.2046 80.4808 11.1905C80.4819 11.1763 80.4862 11.1625 80.4934 11.1498C80.5006 11.1371 80.5105 11.1258 80.5227 11.1166C80.6913 10.9733 80.8796 10.8493 81.0831 10.7475C81.2883 10.6442 81.5099 10.5687 81.7405 10.5235C82.2081 10.4292 82.6959 10.4479 83.1525 10.5779C83.1974 10.5923 83.2341 10.6216 83.255 10.6596C83.2758 10.6976 83.2791 10.7413 83.2642 10.7814C83.2492 10.8216 83.2172 10.8549 83.1749 10.8745C83.1326 10.894 83.0833 10.8982 83.0376 10.8861L83.0304 10.8838L83.0171 10.8793Z" fill="#0C0C0C"/>
<path d="M74.9734 12.3567L74.9453 12.2535C80.2768 11.1122 79.565 6.53232 79.557 6.48606L79.6756 6.47021C79.6835 6.51733 80.413 11.1921 74.9734 12.3567Z" fill="#0C0C0C"/>
<path opacity="0.1" d="M81.9234 15.976C82.5229 15.976 83.0089 15.6603 83.0089 15.271C83.0089 14.8816 82.5229 14.5659 81.9234 14.5659C81.3239 14.5659 80.8379 14.8816 80.8379 15.271C80.8379 15.6603 81.3239 15.976 81.9234 15.976Z" fill="#0C0C0C"/>
<path opacity="0.1" d="M88.375 15.1023C88.375 15.4913 88.8621 15.8067 89.4615 15.8076C89.5651 15.8075 89.6685 15.7979 89.7699 15.7791C89.8589 15.3248 89.9201 14.8854 89.9597 14.4768C89.8006 14.423 89.6314 14.3961 89.461 14.3975C88.8616 14.3967 88.3757 14.7123 88.375 15.1023Z" fill="#0C0C0C"/>
<path d="M99.4809 40.1094C99.2088 42.9381 97.886 60.5861 97.6248 64.0704H61.5926C61.3889 60.9277 60.4749 47.1867 59.7031 41.0415C58.9663 35.1774 57.5207 32.2417 58.5803 30.508C60.3119 27.6746 65.0433 26.0375 68.2694 25.6507C70.2397 25.4152 73.2036 25.2451 73.2036 25.2451C73.2036 25.2451 73.4544 29.7391 79.4368 29.9893C87.5804 30.3294 87.0366 25.2451 87.0768 25.2451C88.3962 25.2451 95.9326 25.9846 97.7767 26.9524C102.8 29.5869 100.058 34.1158 99.4809 40.1094Z" fill="#367CFF"/>
<path d="M126.868 45.2816C126.909 45.1803 126.974 45.0876 127.057 45.0091C127.14 44.9305 127.241 44.8679 127.352 44.8249C127.464 44.7819 127.584 44.7595 127.706 44.7591C127.827 44.7587 127.948 44.7802 128.06 44.8224C128.273 44.9106 128.441 45.0672 128.529 45.2607C128.617 45.4542 128.619 45.67 128.534 45.8646L128.123 46.8711L130.713 44.5322C131.035 44.2324 131.647 44.048 132.002 44.3898C132.31 44.6494 133.021 44.7295 133.137 45.2159C133.141 45.2184 133.134 49.6705 132.835 49.9489C131.568 51.1268 128.506 51.3549 126.797 50.7567L124.107 49.8144L126.868 45.2816Z" fill="#E98862"/>
<g opacity="0.1">
<path opacity="0.1" d="M126.868 45.2816C126.909 45.1803 126.974 45.0876 127.057 45.0091C127.14 44.9305 127.241 44.8679 127.352 44.8249C127.464 44.7819 127.584 44.7595 127.706 44.7591C127.827 44.7587 127.948 44.7802 128.06 44.8224C128.273 44.9106 128.441 45.0672 128.529 45.2607C128.617 45.4542 128.619 45.67 128.534 45.8646L128.123 46.8711L130.713 44.5322C131.035 44.2324 131.647 44.048 132.002 44.3898C132.31 44.6494 133.021 44.7295 133.137 45.2159C133.141 45.2184 133.134 49.6705 132.835 49.9489C131.568 51.1268 128.506 51.3549 126.797 50.7567L124.107 49.8144L126.868 45.2816Z" fill="#0C0C0C"/>
</g>
<path d="M138.028 63.4265L91.8132 69.5428C90.9339 69.6592 90.0355 69.5644 89.2117 69.2684C88.3879 68.9723 87.6689 68.4859 87.1299 67.8598C86.5909 67.2338 86.2517 66.4911 86.1475 65.7093C86.0433 64.9275 86.1781 64.1353 86.5378 63.4154L104.196 28.0714C104.534 27.3937 105.061 26.8029 105.726 26.3537C106.392 25.9045 107.175 25.6115 108.003 25.5019C108.83 25.3924 109.676 25.4698 110.461 25.7271C111.245 25.9843 111.944 26.413 112.492 26.9733L141.05 56.201C141.631 56.7964 142.022 57.519 142.18 58.2936C142.339 59.0682 142.26 59.8663 141.951 60.6045C141.642 61.3427 141.116 61.994 140.426 62.4904C139.736 62.9868 138.908 63.3101 138.028 63.4265Z" fill="#367CFF"/>
<path opacity="0.48" d="M138.028 63.4265L91.8132 69.5428C90.9339 69.6592 90.0355 69.5644 89.2117 69.2684C88.3879 68.9723 87.6689 68.4859 87.1299 67.8598C86.5909 67.2338 86.2517 66.4911 86.1475 65.7093C86.0433 64.9275 86.1781 64.1353 86.5378 63.4154L104.196 28.0714C104.534 27.3937 105.061 26.8029 105.726 26.3537C106.392 25.9045 107.175 25.6115 108.003 25.5019C108.83 25.3924 109.676 25.4698 110.461 25.7271C111.245 25.9843 111.944 26.413 112.492 26.9733L141.05 56.201C141.631 56.7964 142.022 57.519 142.18 58.2936C142.339 59.0682 142.26 59.8663 141.951 60.6045C141.642 61.3427 141.116 61.994 140.426 62.4904C139.736 62.9868 138.908 63.3101 138.028 63.4265Z" fill="white"/>
<path d="M91.0505 69.7004C90.2061 69.6958 89.3763 69.5052 88.6358 69.1458C87.8952 68.7865 87.2673 68.2696 86.8086 67.6418C86.3499 67.0141 86.0748 66.2951 86.0081 65.5497C85.9414 64.8044 86.0852 64.056 86.4265 63.3721L104.084 28.0283C104.431 27.334 104.97 26.7287 105.652 26.2684C106.334 25.8081 107.136 25.5079 107.984 25.3957C108.832 25.2835 109.698 25.3628 110.502 25.6264C111.306 25.89 112.022 26.3292 112.583 26.9033L141.141 56.1308C141.736 56.7407 142.136 57.481 142.299 58.2746C142.461 59.0681 142.38 59.8857 142.064 60.6419C141.747 61.3981 141.207 62.0653 140.5 62.5737C139.794 63.0822 138.945 63.4132 138.045 63.5323L91.8294 69.6488C91.5715 69.6831 91.3112 69.7003 91.0505 69.7004ZM108.746 25.5594C108.503 25.5595 108.261 25.5756 108.02 25.6074C107.212 25.7125 106.447 25.9977 105.797 26.4363C105.148 26.8749 104.634 27.4525 104.306 28.1148L86.6492 63.4586C86.2983 64.161 86.1669 64.9339 86.2685 65.6967C86.3702 66.4594 86.7012 67.1841 87.2271 67.7949C87.7529 68.4057 88.4543 68.8803 89.2581 69.1691C90.0618 69.458 90.9383 69.5505 91.7962 69.437L138.011 63.3207C138.869 63.2071 139.677 62.8918 140.35 62.4075C141.023 61.9232 141.537 61.2877 141.839 60.5675C142.14 59.8472 142.217 59.0685 142.062 58.3128C141.908 57.557 141.527 56.8519 140.959 56.271L112.4 27.0434C111.948 26.5776 111.387 26.2039 110.756 25.9478C110.126 25.6917 109.44 25.5592 108.746 25.5594Z" fill="#0C0C0C"/>
<path d="M107.958 42.0747L106.953 37.3342L112.924 36.5439L113.529 41.3374L114.551 52.4193L110.641 52.9367L107.958 42.0747ZM109.914 58.5697C109.597 56.691 110.883 55.0398 112.947 54.7665C115.011 54.4933 116.787 55.7393 117.104 57.6181C117.419 59.4844 116.133 61.1352 114.068 61.4089C112.004 61.6826 110.229 60.4368 109.914 58.5697Z" fill="white"/>
<path d="M130.162 48.7765C130.129 48.6381 130.147 48.4938 130.214 48.3654C130.281 48.237 130.394 48.1316 130.535 48.0652C130.527 48.0562 130.501 48.0389 130.52 48.0277L129.909 48.0479C129.729 48.0572 129.551 48.0086 129.408 47.9109C129.266 47.8133 129.168 47.6733 129.133 47.5167C129.104 47.3612 129.141 47.2016 129.238 47.069C129.334 46.9364 129.482 46.8402 129.654 46.7991C129.649 46.7948 129.649 46.7875 129.645 46.7819L129.394 46.7901C129.224 46.7983 129.057 46.7543 128.919 46.6656C128.782 46.577 128.684 46.449 128.641 46.3035C128.616 46.2118 128.615 46.1163 128.636 46.024C128.658 45.9317 128.703 45.8449 128.768 45.7698C128.832 45.6946 128.914 45.6331 129.009 45.5896C129.103 45.5461 129.208 45.5217 129.314 45.5182L129.895 45.4991C129.895 45.4963 129.891 45.4948 129.891 45.492C129.89 45.4893 129.894 45.4858 129.895 45.4824C129.734 45.4558 129.589 45.3818 129.483 45.2725C129.376 45.1633 129.315 45.0252 129.309 44.881C129.265 44.5097 129.716 44.2814 130.091 44.27L131.277 44.3129C131.459 44.3195 131.637 44.366 131.795 44.4482C131.952 44.5304 132.084 44.6457 132.179 44.784C133.002 45.9812 135.067 49.153 133.87 49.1926L130.925 49.289C130.752 49.2908 130.583 49.2415 130.444 49.1486C130.306 49.0558 130.207 48.9248 130.162 48.7765Z" fill="#E98862"/>
<path d="M99.7675 53.9971C99.7562 53.8413 99.6906 53.6926 99.5797 53.5713C99.4688 53.45 99.3182 53.3623 99.1485 53.3201C99.1561 53.3079 99.1591 53.294 99.1572 53.2802C99.1539 53.2689 99.1472 53.2586 99.1379 53.2502C99.1286 53.2419 99.117 53.2358 99.1043 53.2327L99.8125 53.0937C100.022 53.0567 100.21 52.9537 100.34 52.8039C100.471 52.654 100.536 52.4673 100.523 52.2784C100.503 52.0921 100.407 51.9189 100.251 51.7923C100.096 51.6657 99.8928 51.5947 99.6816 51.5931C99.6862 51.5866 99.684 51.5783 99.6864 51.5716L99.9767 51.5145C100.174 51.479 100.352 51.3842 100.479 51.246C100.607 51.1078 100.677 50.9348 100.677 50.7563C100.674 50.6445 100.644 50.5345 100.587 50.4344C100.531 50.3343 100.45 50.2465 100.351 50.1774C100.251 50.1082 100.136 50.0595 100.013 50.0346C99.8898 50.0097 99.7619 50.0093 99.6385 50.0335L98.9671 50.1657C98.9671 50.1622 98.9698 50.1597 98.9691 50.1564C98.9683 50.1532 98.963 50.1502 98.9616 50.1462C99.1363 50.0732 99.2779 49.9498 99.363 49.7963C99.4481 49.6427 99.4718 49.4681 99.4301 49.3011C99.3541 48.8635 98.7598 48.7228 98.3254 48.8085L94.4071 49.5152L95.3369 48.9134C95.5207 48.7995 95.6487 48.628 95.6951 48.4336C95.7416 48.2392 95.7029 48.0365 95.587 47.8664C95.5237 47.7804 95.4414 47.7068 95.3449 47.6499C95.2485 47.5931 95.14 47.5543 95.026 47.5358C94.9121 47.5173 94.795 47.5196 94.6821 47.5425C94.5692 47.5654 94.4627 47.6084 94.3692 47.6689L89.2921 50.9546C88.6967 51.3401 88.2946 51.9159 88.171 52.5597C88.0474 53.2035 88.212 53.8646 88.6301 54.4027C89.1151 55.0267 89.7996 55.5083 90.5958 55.7856C91.392 56.0629 92.2636 56.1234 93.0988 55.9592L99.0675 54.7862C99.2675 54.7437 99.4454 54.6426 99.5724 54.4994C99.6995 54.3562 99.7682 54.1792 99.7675 53.9971Z" fill="#E98862"/>
<g opacity="0.25">
<path opacity="0.25" d="M95.0898 50.8633C95.0944 50.881 95.1067 50.8965 95.124 50.9063C95.1413 50.9161 95.1622 50.9196 95.1824 50.916L98.9072 50.2394C98.9173 50.2376 98.9269 50.234 98.9355 50.2289C98.944 50.2237 98.9514 50.2172 98.957 50.2095C98.9627 50.2019 98.9666 50.1933 98.9686 50.1843C98.9705 50.1754 98.9705 50.1661 98.9684 50.1572C98.9663 50.1482 98.9623 50.1397 98.9565 50.1321C98.9507 50.1246 98.9433 50.1181 98.9346 50.113C98.926 50.108 98.9163 50.1045 98.9062 50.1028C98.8961 50.1011 98.8856 50.1011 98.8755 50.103L95.1507 50.7793C95.1303 50.7831 95.1123 50.7939 95.1008 50.8093C95.0894 50.8248 95.0853 50.8437 95.0895 50.8618L95.0898 50.8633Z" fill="#0C0C0C"/>
</g>
<g opacity="0.25">
<path opacity="0.25" d="M95.3808 52.3253C95.3854 52.343 95.3977 52.3584 95.415 52.3683C95.4323 52.3781 95.4533 52.3816 95.4734 52.3779L99.6311 51.623C99.6516 51.6192 99.6696 51.6085 99.6811 51.593C99.6926 51.5776 99.6967 51.5587 99.6926 51.5406C99.6877 51.5228 99.6753 51.5073 99.6581 51.4972C99.6408 51.4872 99.6198 51.4833 99.5995 51.4864L95.4417 52.2413C95.4213 52.2451 95.4033 52.2559 95.3919 52.2713C95.3804 52.2868 95.3763 52.3056 95.3805 52.3238L95.3808 52.3253Z" fill="#0C0C0C"/>
</g>
<g opacity="0.25">
<path opacity="0.25" d="M95.6877 53.912C95.6922 53.9297 95.7045 53.9452 95.7217 53.955C95.739 53.9649 95.7599 53.9683 95.78 53.9647L99.0968 53.3625C99.1173 53.3587 99.1352 53.348 99.1467 53.3326C99.1581 53.3171 99.1622 53.2983 99.158 53.2802C99.1538 53.2621 99.1417 53.2463 99.1243 53.2361C99.1068 53.2259 99.0856 53.2223 99.0651 53.226L95.7484 53.8283C95.7382 53.8301 95.7286 53.8337 95.7201 53.8388C95.7115 53.8439 95.7042 53.8505 95.6985 53.8582C95.6928 53.8658 95.6889 53.8743 95.687 53.8833C95.685 53.8923 95.6851 53.9015 95.6872 53.9105L95.6877 53.912Z" fill="#0C0C0C"/>
</g>
<path d="M92.7307 58.0517L60.3473 63.2345C59.3368 63.3318 58.3145 63.2206 57.3607 62.9093C56.4069 62.5981 55.5475 62.0954 54.85 61.4407C54.1525 60.786 53.6358 59.9971 53.3404 59.1359C53.0451 58.2746 52.9792 57.3645 53.1478 56.4769L57.6814 32.6166C57.8202 31.8586 58.1269 31.1324 58.5838 30.4797C59.0408 29.827 59.6389 29.2608 60.3439 28.8136C61.0489 28.3663 61.8468 28.0469 62.6917 27.8737C63.5366 27.7005 64.4119 27.677 65.2671 27.8044C66.1223 27.9318 66.9407 28.2077 67.6751 28.6162C68.4094 29.0246 69.0454 29.5576 69.5462 30.1845C70.0471 30.8114 70.4031 31.5198 70.5936 32.2689C70.7842 33.0181 70.8056 33.7932 70.6566 34.5497L67.5652 50.974L91.307 48.334L92.7307 58.0517Z" fill="#367CFF"/>
<path d="M60.3464 63.3396C60.3177 63.3377 60.2908 63.3269 60.2704 63.309C60.25 63.2912 60.2374 63.2675 60.2348 63.2422C60.2323 63.2169 60.24 63.1916 60.2566 63.1709C60.2732 63.1502 60.2975 63.1353 60.3253 63.129L92.5967 57.9653L91.2025 48.4524L67.5793 51.0793C67.5607 51.0815 67.5419 51.0797 67.5243 51.0742C67.5067 51.0687 67.4908 51.0596 67.4779 51.0476C67.465 51.0356 67.4554 51.0212 67.4499 51.0054C67.4443 50.9896 67.443 50.9729 67.446 50.9566L69.4112 40.4589C69.4199 40.4342 69.4384 40.4132 69.4632 40.3997C69.4881 40.3861 69.5176 40.381 69.5464 40.3852C69.5752 40.3895 69.6012 40.4027 69.6198 40.4227C69.6384 40.4426 69.6482 40.4678 69.6475 40.4936L67.7087 50.851L91.2911 48.2286C91.3225 48.2253 91.3541 48.233 91.3792 48.2502C91.4043 48.2673 91.4207 48.2924 91.4251 48.3202L92.8489 58.0379C92.8527 58.0648 92.8448 58.092 92.8269 58.1139C92.8089 58.1358 92.7822 58.1509 92.7522 58.1561L60.3688 63.3389C60.3614 63.3396 60.3539 63.3398 60.3464 63.3396Z" fill="#0C0C0C"/>
<path d="M67.546 50.8693L65.4629 51.1646L65.5008 51.3743L67.5839 51.0791L67.546 50.8693Z" fill="#0C0C0C"/>
<path d="M134.346 163H27.5684Cnan nan nan nan 27.5684 163L134.346 162.669V163Cnan nan nan nan 134.346 163Z" fill="#3F3F3F"/>
<path d="M34.648 110.73L3.3258 110.711C2.72992 110.71 2.1451 110.568 1.6324 110.3C1.11969 110.031 0.697899 109.645 0.411052 109.182C0.124206 108.72 -0.0171768 108.198 0.00166478 107.67C0.0205064 107.143 0.198881 106.63 0.518167 106.184L16.1957 84.3122C16.4964 83.8928 16.9119 83.5475 17.4036 83.3083C17.8953 83.0692 18.4473 82.944 19.0083 82.9443C19.5693 82.9447 20.1211 83.0706 20.6125 83.3103C21.1038 83.55 21.5188 83.8958 21.8188 84.3156L37.4632 106.206C37.7818 106.652 37.9594 107.166 37.9774 107.693C37.9954 108.221 37.8531 108.743 37.5655 109.205C37.2779 109.667 36.8554 110.052 36.3423 110.32C35.8291 110.589 35.244 110.73 34.648 110.73Z" fill="#F4F4F4"/>
<path d="M16.5605 105.034C16.5605 103.76 17.6006 102.779 18.9991 102.78C20.3976 102.781 21.4352 103.763 21.4342 105.037C21.4342 106.301 20.3942 107.282 18.9959 107.281C17.5977 107.28 16.5596 106.298 16.5605 105.034ZM17.1183 93.927L16.985 90.6963L21.0318 90.6989L20.8929 93.9293L20.325 101.365L17.6761 101.364L17.1183 93.927Z" fill="white"/>
<path d="M46.8798 38.9374L21.6713 38.9224C21.1916 38.9221 20.7209 38.8078 20.3082 38.5915C19.8955 38.3751 19.556 38.0646 19.3251 37.6924C19.0941 37.3201 18.9803 36.8999 18.9955 36.4754C19.0106 36.0509 19.1542 35.6378 19.4112 35.2793L32.0289 17.6762C32.2708 17.3387 32.6052 17.0607 33.0009 16.8682C33.3966 16.6757 33.8409 16.5749 34.2924 16.5752C34.7439 16.5755 35.188 16.6768 35.5835 16.8697C35.9789 17.0627 36.3129 17.341 36.5543 17.6788L49.1451 35.2971C49.4016 35.6559 49.5446 36.0691 49.5592 36.4936C49.5737 36.9181 49.4593 37.3382 49.2278 37.7102C48.9963 38.0822 48.6563 38.3923 48.2433 38.6081C47.8303 38.824 47.3594 38.9377 46.8798 38.9374Z" fill="#F4F4F4"/>
<path d="M32.3219 34.3539C32.3377 34.0134 32.4662 33.6846 32.6913 33.4083C32.9165 33.132 33.2284 32.9205 33.5883 32.7999C33.9482 32.6793 34.3402 32.6551 34.7155 32.7302C35.0909 32.8054 35.433 32.9765 35.6993 33.2225C35.9656 33.4684 36.1444 33.7782 36.2135 34.1134C36.2825 34.4486 36.2387 34.7944 36.0876 35.1077C35.9365 35.421 35.6847 35.6881 35.3635 35.8757C35.0423 36.0634 34.6658 36.1632 34.2811 36.1629C34.0168 36.1625 33.7553 36.1149 33.5123 36.0229C33.2693 35.9309 33.0497 35.7964 32.8668 35.6275C32.6839 35.4586 32.5413 35.2587 32.4477 35.0399C32.3541 34.821 32.3113 34.5877 32.3219 34.3539ZM32.7708 25.4164L32.6632 22.8164L35.9197 22.8185L35.8087 25.4181L35.3518 31.4023L33.2188 31.401L32.7708 25.4164Z" fill="white"/>
<path d="M149.383 131.391L121.873 131.374C121.35 131.374 120.836 131.249 120.386 131.013C119.935 130.777 119.565 130.438 119.312 130.032C119.06 129.626 118.936 129.167 118.953 128.704C118.969 128.24 119.126 127.79 119.406 127.398L133.176 108.188C133.44 107.819 133.805 107.516 134.237 107.306C134.669 107.096 135.154 106.986 135.646 106.986C136.139 106.987 136.624 107.097 137.056 107.308C137.487 107.518 137.852 107.822 138.115 108.191L151.855 127.417C152.135 127.809 152.291 128.26 152.307 128.723C152.323 129.187 152.198 129.645 151.946 130.051C151.693 130.457 151.322 130.796 150.871 131.031C150.42 131.267 149.906 131.391 149.383 131.391Z" fill="#F4F4F4"/>
<path d="M133.497 126.388C133.497 125.27 134.409 124.408 135.638 124.409C136.867 124.41 137.777 125.272 137.777 126.391C137.786 126.645 137.738 126.898 137.634 127.136C137.531 127.373 137.374 127.59 137.175 127.772C136.975 127.955 136.735 128.1 136.471 128.2C136.206 128.299 135.922 128.35 135.634 128.35C135.347 128.349 135.063 128.298 134.798 128.199C134.534 128.099 134.295 127.954 134.095 127.771C133.896 127.588 133.74 127.371 133.637 127.133C133.534 126.896 133.486 126.642 133.495 126.388H133.497ZM133.986 116.634L133.869 113.797L137.423 113.799L137.302 116.636L136.803 123.167L134.474 123.165L133.986 116.634Z" fill="white"/>
</svg>
