<svg width="230" height="153" fill="none" xmlns="http://www.w3.org/2000/svg"><g clip-path="url('#clip0_8_18042')"><path d="M210.924 152.966c2.576 0 5.126-.449 7.495-1.321 2.369-.872 4.509-2.148 6.29-3.751 1.781-1.604 3.166-3.501 4.072-5.579a14.374 14.374 0 0 0 1.201-6.508c-.627-12.227-9.649-29.75-34.237-45.577-34.118-21.958-11.625-72.097-56.409-77.334C65.723 4.29 79.65 60.572 34.196 81.091 5.262 94.152.002 119.709 0 136.56c.005 4.355 2.017 8.529 5.594 11.606 3.577 3.076 8.426 4.803 13.48 4.8h191.85Z" fill="#F3F5FD"/><path d="M166.208 2.302H91.88c-5.692 0-10.306 3.974-10.306 8.877V141.82c0 4.903 4.614 8.878 10.306 8.878h74.328c5.692 0 10.306-3.975 10.306-8.878V11.18c0-4.904-4.614-8.878-10.306-8.878Z" fill="#fff"/><path d="M166.208 153H91.881c-3.441-.003-6.74-1.182-9.173-3.278s-3.802-4.938-3.806-7.902V11.18c.004-2.964 1.373-5.806 3.806-7.902S88.44.003 91.88 0h74.328c3.441.003 6.74 1.182 9.173 3.278s3.802 4.938 3.806 7.902v130.64c-.004 2.964-1.373 5.806-3.806 7.902s-5.733 3.275-9.174 3.278ZM91.881 4.604c-2.024.002-3.964.696-5.395 1.928-1.43 1.233-2.236 2.904-2.238 4.647V141.82c.002 1.743.807 3.414 2.238 4.647 1.431 1.232 3.371 1.926 5.395 1.928h74.328c2.024-.002 3.964-.696 5.395-1.928 1.43-1.233 2.235-2.904 2.238-4.647V11.18c-.003-1.743-.808-3.414-2.239-4.647-1.43-1.232-3.37-1.926-5.394-1.928l-74.328-.001Z" fill="#DEE8F5"/><path d="M112.77 2.302h32.549v5.44c0 .534-.122 1.064-.36 1.558a4.082 4.082 0 0 1-1.025 1.32 4.84 4.84 0 0 1-1.533.884 5.394 5.394 0 0 1-1.809.31h-23.095c-1.254 0-2.456-.43-3.343-1.193-.886-.764-1.384-1.8-1.384-2.88v-5.44Z" fill="#DEE8F5"/><path d="M26.53 34.853c-.046-3.88 1.734-6.283 4.147-7.603 2.382-1.303 9.85-2.436 12.68 2.292 1.848 3.085 1.118 4.188 1.642 9.129.523 4.941 2.534 5.46 4.573 11.45 1.6 4.697-7.36 7.191-15.117 6.976-7.757-.216-12.676-1.696-13.126-5.945-.647-6.1 5.293-8.697 5.202-16.299Z" fill="#0F1011"/><path d="M31.153 45.58s2.33-1.088 1.75-6.577l4.83-.812s-.491 4.931 1.973 6.474l-8.553.915Z" fill="#E98862"/><path opacity=".15" d="m38.704 43.642-4.048-2.617 3.157-.052c.101.93.403 1.835.89 2.67Z" fill="#000"/><path d="M30.134 36.892c.353 1.664 1.426 3.235 3.138 3.759 1.867.621 3.883.84 5.87.636 5.294-.416 4.135-10.783 1.599-12.778-2.536-1.996-9.904-.661-10.766 2.716-.445 1.748-.176 4.084.16 5.667Z" fill="#E98862"/><path d="M37.694 35.55c.242 0 .439-.17.439-.379s-.197-.378-.44-.378c-.242 0-.438.17-.438.378 0 .209.196.378.439.378ZM41.154 35.277c.242 0 .439-.17.439-.378 0-.209-.197-.378-.44-.378-.242 0-.438.17-.438.378 0 .209.196.378.439.378ZM36.737 34.493a.236.236 0 0 0 .05-.005l1.144-.246a.205.205 0 0 0 .124-.082.156.156 0 0 0 .022-.133.182.182 0 0 0-.092-.108.235.235 0 0 0-.154-.022l-1.143.247a.209.209 0 0 0-.12.071.159.159 0 0 0-.035.122c.006.043.03.083.068.112a.226.226 0 0 0 .136.044Z" fill="#0F1011"/><path d="M37.929 38.147s1.621.134 2.753-.217c0 0 0 .92-1.28 1.02-1.28.1-1.473-.803-1.473-.803Z" fill="#fff"/><path d="M33.653 32.546c-.116 7.528-.958 10.452-.958 10.452s-4.138-4.307-4.762-8.87c-.586-4.277 3.05-6.834 5.519-7.33 9.383-1.885 10.035 4.01 10.035 4.01-.606 2.012-10.85 3.26-10.85 3.26" fill="#0F1011"/><path d="M35.495 36.818a1.46 1.46 0 0 1-.426 1.167 1.97 1.97 0 0 1-1.258.568 2.07 2.07 0 0 1-1.357-.363c-.379-.27-.618-.659-.665-1.08a1.37 1.37 0 0 1 .068-.626c.07-.203.188-.39.346-.553a1.81 1.81 0 0 1 .568-.393c.219-.097.457-.155.702-.17 1.326-.048 1.929.568 2.022 1.45Z" fill="#E98862"/><path opacity=".15" d="M39.663 37.253a.167.167 0 0 1-.098-.032.127.127 0 0 1-.051-.079.116.116 0 0 1 .02-.088.15.15 0 0 1 .083-.056l.89-.243-.636-1.193a.116.116 0 0 1 .024-.146.153.153 0 0 1 .049-.03.173.173 0 0 1 .168.024.13.13 0 0 1 .034.043l.71 1.327a.115.115 0 0 1 0 .107.133.133 0 0 1-.036.044.157.157 0 0 1-.055.028l-1.054.286a.171.171 0 0 1-.048.008Z" fill="#000"/><path d="M70.94 57.376s1.782-1.821 3.677-2.11c1.894-.288 1.421.65.295 1.351-1.125.7-3.664 2.111-3.664 2.111" fill="#E98862"/><path d="M72.244 56.823s3.536-1.239 5.051-.678c0 0 1.321 1.116.026 2.582-1.241 1.407-4.482 1.93-4.482 1.93l-.595-3.834ZM51.808 150.143l-6.316-.647c.284-2.059.605-4.533.627-4.938v.064h6.36c0 .164 0 .664-.67 5.521ZM26.464 150.798l-6.361-.018s.021-5.657.021-6.157h6.36c0 .501-.02 6.175-.02 6.175Z" fill="#E98862"/><path d="m42.95 148.413 11.206-.164c-.465-10.166-.545-21.793-.67-32.315a52.745 52.745 0 0 0-.684-7.793c-1.803-11.147-2.98-22.23-5.406-33.313l-.082.021-.236-1.39-23.043-1.226-1.2 12.967s-3 44.862-4.37 62.901l11.168.813c2.012-17.686 5.125-43.456 7.04-62.035 2.2 9.045 3.696 18.411 5.608 27.38.38 11.227.704 22.962.669 34.154Z" fill="#262626"/><path d="M34.196 152.917c.171-.001.34-.032.497-.091.156-.06.297-.147.413-.255a1.05 1.05 0 0 0 .26-.375.935.935 0 0 0 .065-.434.989.989 0 0 0-.247-.562 1.243 1.243 0 0 0-.559-.359l-7.403-2.136a1.194 1.194 0 0 0-.87.083 6.468 6.468 0 0 1-3.473.888 5.708 5.708 0 0 1-2.672-.841.537.537 0 0 0-.498-.053.46.46 0 0 0-.195.149.365.365 0 0 0-.073.217v3.118c0 .092.021.183.063.268.04.085.1.162.176.227a.829.829 0 0 0 .264.151.935.935 0 0 0 .312.053l13.94-.048ZM59.558 152.917c.17-.001.34-.032.496-.091.157-.06.297-.147.413-.255.116-.108.205-.236.26-.375a.935.935 0 0 0 .065-.434.987.987 0 0 0-.246-.562 1.244 1.244 0 0 0-.559-.359l-7.403-2.136a1.194 1.194 0 0 0-.87.083 6.468 6.468 0 0 1-3.474.888 5.71 5.71 0 0 1-2.671-.841.537.537 0 0 0-.498-.053.454.454 0 0 0-.195.15.36.36 0 0 0-.073.216v3.118c0 .092.021.183.062.268a.703.703 0 0 0 .177.227.83.83 0 0 0 .264.151.935.935 0 0 0 .312.053l13.94-.048Z" fill="#C1D8ED"/><path d="M55.36 66.437a3.585 3.585 0 0 1-1.576-.36 3.01 3.01 0 0 1-1.162-.987L41.67 49.124l5.476-2.787 9.635 14.045 15.226-4.486 2.06 5.184L56.39 66.29a3.64 3.64 0 0 1-1.03.148Z" fill="#367CFF"/><path d="M48.572 74.332c-1.269 2.513-26.206 3.556-26.539-.863-.212-2.813 2.665-5.268 2.665-10.75 0-5.481-5.854-12.482-1.084-16.59 1.384-1.193 3.774-1.963 6.688-1.965.218 1.463 10.534 1.468 10.613.033.394.006.7.01.89.019 10.05.373 5.634 10.225 5.537 17.462-.118 8.469 2.538 10.066 1.23 12.654Z" fill="#367CFF"/><path d="M64.306 68.971c-.773 0-1.517-.254-2.079-.71L47.53 56.313a2.66 2.66 0 0 1-.691-.83 2.288 2.288 0 0 1-.073-2.002c.141-.32.355-.615.629-.865.273-.25.602-.45.966-.591a3.468 3.468 0 0 1 2.324-.053c.372.123.713.308 1.002.545l12.451 10.12L90.03 38.063a3.03 3.03 0 0 1 .95-.62 3.48 3.48 0 0 1 2.332-.11 3.16 3.16 0 0 1 1.021.527c.297.233.537.513.707.826a2.281 2.281 0 0 1 .1 2.01c-.139.323-.35.62-.624.873L66.55 68.116c-.27.257-.598.464-.963.611a3.435 3.435 0 0 1-1.28.244Z" fill="#0CBC8B"/><path d="M40.915 44.197c-.079 1.435-.984 3.546-3.78 3.705-3.726.212-6.615-2.275-6.833-3.738h.009c3.668 0 8.465.005 10.604.033ZM49.385 64.285s-.701-3.436 2.183-3.72c1.82-.18 6.393-2.358 7.261-.537.753 1.58-3.615 3.46-5.18 3.809-1.4.31-4.264.448-4.264.448Z" fill="#E98862"/><path d="M50.584 60.838s3.717-1.755 4.733-1.714c.9.036-.63 1.536-.63 1.536l-4.102.178Z" fill="#E98862"/><path d="M34.403 69.908c-.638 0-1.262-.16-1.797-.458a3.01 3.01 0 0 1-1.218-1.227l-9.253-17.846 6.03-2.32 8.062 15.55 15.521-4.104 1.939 5.438-18.315 4.841a3.79 3.79 0 0 1-.97.126Z" fill="#367CFF"/><path d="M79.102 56.695a.476.476 0 0 0 .108-.338.496.496 0 0 0-.16-.32c-.46-.429-1.312-1.107-1.873-.856-.8.357-2.4 1.684-1.956 2.374.444.69 1.363 1.447 1.957 1.218.449-.174 1.411-1.436 1.924-2.078Z" fill="#E98862"/><path d="M126.399 99.76H97.077v10.814h29.322V99.759Z" fill="#0CBC8B"/><path d="M161.013 99.76H131.69v10.814h29.323V99.759ZM206.72 152.966h-52.111c-2.858-6.406 5.729-9.566 8.459-5.414-1.628-2.477-2.062-5.616 1.321-7.636 3.546-1.602 7.815.229 8.467 3.126-.869-3.858 3.271-7.702 7.878-8.577 11.827-2.242 14.463 7.806 13.391 9.386 3.124-4.603 16.038 1.078 12.595 9.115ZM150.201 50.746c.008 4.712-2.112 9.243-5.912 12.633a17.158 17.158 0 0 0-15.241-9.241 17.165 17.165 0 0 0-15.247 9.246c-2.402-2.148-4.154-4.772-5.104-7.64a15.786 15.786 0 0 1-.344-8.81c.724-2.917 2.268-5.636 4.497-7.918 2.228-2.283 5.073-4.06 8.284-5.175a24.288 24.288 0 0 1 10.135-1.22c3.443.313 6.744 1.35 9.614 3.019 2.869 1.669 5.22 3.919 6.844 6.553 1.625 2.634 2.475 5.57 2.474 8.553Z" fill="#C1D8ED"/><path d="M129.044 52.624c4.626 0 8.377-3.23 8.377-7.216 0-3.985-3.751-7.215-8.377-7.215-4.626 0-8.376 3.23-8.376 7.215s3.75 7.216 8.376 7.216ZM144.289 63.379c-1.973 1.768-4.34 3.174-6.96 4.134a24.115 24.115 0 0 1-8.283 1.457c-2.847 0-5.665-.494-8.284-1.454-2.62-.96-4.988-2.365-6.962-4.132a17.165 17.165 0 0 1 15.248-9.246c6.63 0 12.388 3.749 15.241 9.241Z" fill="#F3F5FD"/><path d="M161.013 76.183H97.077v2.2h63.936v-2.2ZM161.013 82.17H97.077v2.2h63.936v-2.2ZM126.399 88.363H97.077v2.199h29.322v-2.2Z" fill="#DEE8F5"/></g><defs><clipPath id="clip0_8_18042"><path fill="#fff" d="M0 0h230v153H0z"/></clipPath></defs></svg>