<svg width="98" height="67" fill="none" xmlns="http://www.w3.org/2000/svg"><g clip-path="url('#clip0_2_49248')"><path d="M55.128 3.632c-18.002-8.674-39.592 6.24-44.59 18.541-12 29.54 8.97 43.174 18.196 38.187 3.851-2.082 6.997-5.637 10.037-9.096 4.497-5.115 10.682-8.15 16.956-8.318 4.885-.131 9.746 1.4 14.617.95 4.872-.45 9.174-8.298 9.042-14.005-.202-8.71-4.955-16.957-24.258-26.259Z" fill="#F4F4F4"/><path d="m7.061 42.013-.182.023 2.254 24.068.183-.023L7.06 42.013ZM12.899 52.52 11.79 65.338l.183.022 1.109-12.818-.183-.022Z" fill="#292A2E"/><path d="M14.806 63.789H6.578v3.12h8.228v-3.12Z" fill="#292A2E"/><path opacity=".2" d="M14.806 63.789H6.578v3.12h8.228v-3.12Z" fill="#fff"/><path d="M19.767 58.044c1.559-2.42.816-6.147-1.66-8.323-2.475-2.176-5.745-1.978-7.304.443-1.559 2.42-.816 6.146 1.66 8.323 2.475 2.176 5.745 1.978 7.304-.443Z" fill="#0CBC8B"/><path opacity=".2" d="M19.767 58.044c1.559-2.42.816-6.147-1.66-8.323-2.475-2.176-5.745-1.978-7.304.443-1.559 2.42-.816 6.146 1.66 8.323 2.475 2.176 5.745 1.978 7.304-.443Z" fill="#fff"/><path opacity=".5" d="M19.766 58.044a4.283 4.283 0 0 1-.341.463c-1.716 1.281-4.249 1.08-6.258-.687-2.475-2.176-3.218-5.902-1.66-8.323a4.51 4.51 0 0 1 .342-.463c1.717-1.281 4.248-1.079 6.258.687 2.475 2.177 3.218 5.903 1.66 8.323Z" fill="#fff"/><path d="M8.283 48.86c2.453-2.212 3.12-6.005 1.49-8.472-1.631-2.467-4.94-2.675-7.392-.463C-.072 42.137-.74 45.93.89 48.397c1.63 2.468 4.94 2.675 7.392.463Z" fill="#0CBC8B"/><path opacity=".2" d="M7.507 48.226c-1.9 1.714-4.313 1.975-6.062.86a4.732 4.732 0 0 1-.553-.69c-1.63-2.466-.964-6.26 1.488-8.47 1.9-1.713 4.313-1.976 6.062-.86.203.207.388.438.553.688 1.63 2.467.964 6.26-1.488 8.472Z" fill="#fff"/><path d="M65.42 2.858H16.688c-1.616 0-2.926 1.531-2.926 3.42v44.806c0 1.888 1.31 3.419 2.926 3.419h48.73c1.616 0 2.926-1.53 2.926-3.419V6.277c0-1.888-1.31-3.419-2.926-3.419Z" fill="#fff"/><path d="M65.42 54.61H16.688c-.8 0-1.568-.373-2.133-1.034-.566-.66-.884-1.557-.885-2.492V6.277c0-.935.319-1.831.885-2.492.566-.661 1.333-1.033 2.133-1.034h48.73c.8.001 1.568.373 2.133 1.034.566.661.884 1.557.885 2.492v44.807c0 .935-.319 1.831-.885 2.492-.565.661-1.332 1.033-2.133 1.034ZM16.688 2.966c-.752 0-1.472.35-2.004.97-.53.621-.83 1.463-.83 2.341v44.807c0 .878.3 1.72.83 2.34.532.622 1.252.97 2.004.972h48.73c.752-.001 1.472-.35 2.004-.971.531-.621.83-1.463.83-2.34V6.276c0-.878-.299-1.72-.83-2.34-.532-.621-1.252-.97-2.004-.971H16.69Z" fill="#292A2E"/><path opacity=".7" d="M64.068 12.143h-2.992c-.631 0-1.142.597-1.142 1.334v3.496c0 .737.51 1.334 1.142 1.334h2.992c.63 0 1.142-.597 1.142-1.334v-3.496c0-.737-.512-1.334-1.142-1.334ZM64.056 19.807h-2.969c-.637 0-1.153.604-1.153 1.348v3.47c0 .743.516 1.347 1.153 1.347h2.97c.636 0 1.153-.604 1.153-1.348v-3.47c0-.744-.517-1.347-1.154-1.347ZM64.056 28.48h-2.969c-.637 0-1.153.603-1.153 1.347v3.47c0 .744.516 1.347 1.153 1.347h2.97c.636 0 1.153-.603 1.153-1.347v-3.47c0-.744-.517-1.348-1.154-1.348ZM64.056 36.83h-2.969c-.637 0-1.153.603-1.153 1.348v3.47c0 .743.516 1.347 1.153 1.347h2.97c.636 0 1.153-.604 1.153-1.348v-3.47c0-.744-.517-1.347-1.154-1.347Z" fill="#367CFF"/><g opacity=".2" fill="#367CFF"><path opacity=".2" d="M42.553 12.143h-2.992c-.63 0-1.142.597-1.142 1.334v3.496c0 .737.511 1.334 1.142 1.334h2.992c.63 0 1.142-.597 1.142-1.334v-3.496c0-.737-.511-1.334-1.142-1.334ZM35.382 12.143H32.39c-.63 0-1.142.597-1.142 1.334v3.496c0 .737.511 1.334 1.142 1.334h2.992c.63 0 1.142-.597 1.142-1.334v-3.496c0-.737-.511-1.334-1.142-1.334ZM49.725 12.143h-2.992c-.63 0-1.142.597-1.142 1.334v3.496c0 .737.511 1.334 1.142 1.334h2.992c.63 0 1.142-.597 1.142-1.334v-3.496c0-.737-.511-1.334-1.142-1.334ZM56.896 12.143h-2.992c-.631 0-1.142.597-1.142 1.334v3.496c0 .737.511 1.334 1.142 1.334h2.992c.63 0 1.142-.597 1.142-1.334v-3.496c0-.737-.511-1.334-1.142-1.334ZM42.542 19.807h-2.97c-.637 0-1.153.604-1.153 1.348v3.47c0 .743.516 1.347 1.153 1.347h2.97c.637 0 1.153-.604 1.153-1.348v-3.47c0-.744-.516-1.347-1.153-1.347ZM49.714 19.807h-2.97c-.637 0-1.153.604-1.153 1.348v3.47c0 .743.516 1.347 1.153 1.347h2.97c.636 0 1.153-.604 1.153-1.348v-3.47c0-.744-.517-1.347-1.153-1.347ZM56.884 19.807h-2.969c-.637 0-1.153.604-1.153 1.348v3.47c0 .743.516 1.347 1.153 1.347h2.97c.636 0 1.153-.604 1.153-1.348v-3.47c0-.744-.517-1.347-1.154-1.347ZM21.028 19.807h-2.97c-.636 0-1.153.604-1.153 1.348v3.47c0 .743.517 1.347 1.154 1.347h2.969c.637 0 1.153-.604 1.153-1.348v-3.47c0-.744-.516-1.347-1.153-1.347ZM28.2 19.807h-2.97c-.637 0-1.153.604-1.153 1.348v3.47c0 .743.516 1.347 1.153 1.347h2.97c.637 0 1.153-.604 1.153-1.348v-3.47c0-.744-.516-1.347-1.153-1.347ZM35.37 19.807h-2.969c-.637 0-1.153.604-1.153 1.348v3.47c0 .743.516 1.347 1.153 1.347h2.97c.637 0 1.153-.604 1.153-1.348v-3.47c0-.744-.516-1.347-1.153-1.347ZM42.542 28.48h-2.97c-.637 0-1.153.603-1.153 1.347v3.47c0 .744.516 1.347 1.153 1.347h2.97c.637 0 1.153-.603 1.153-1.347v-3.47c0-.744-.516-1.348-1.153-1.348ZM49.714 28.48h-2.97c-.637 0-1.153.603-1.153 1.347v3.47c0 .744.516 1.347 1.153 1.347h2.97c.636 0 1.153-.603 1.153-1.347v-3.47c0-.744-.517-1.348-1.153-1.348ZM56.884 28.48h-2.969c-.637 0-1.153.603-1.153 1.347v3.47c0 .744.516 1.347 1.153 1.347h2.97c.636 0 1.153-.603 1.153-1.347v-3.47c0-.744-.517-1.348-1.154-1.348ZM21.028 28.48h-2.97c-.636 0-1.153.603-1.153 1.347v3.47c0 .744.517 1.347 1.154 1.347h2.969c.637 0 1.153-.603 1.153-1.347v-3.47c0-.744-.516-1.348-1.153-1.348ZM28.2 28.48h-2.97c-.637 0-1.153.603-1.153 1.347v3.47c0 .744.516 1.347 1.153 1.347h2.97c.637 0 1.153-.603 1.153-1.347v-3.47c0-.744-.516-1.348-1.153-1.348ZM35.37 28.48h-2.969c-.637 0-1.153.603-1.153 1.347v3.47c0 .744.516 1.347 1.153 1.347h2.97c.637 0 1.153-.603 1.153-1.347v-3.47c0-.744-.516-1.348-1.153-1.348ZM42.542 36.83h-2.97c-.637 0-1.153.603-1.153 1.348v3.47c0 .743.516 1.347 1.153 1.347h2.97c.637 0 1.153-.604 1.153-1.348v-3.47c0-.744-.516-1.347-1.153-1.347ZM49.714 36.83h-2.97c-.637 0-1.153.603-1.153 1.348v3.47c0 .743.516 1.347 1.153 1.347h2.97c.636 0 1.153-.604 1.153-1.348v-3.47c0-.744-.517-1.347-1.153-1.347ZM56.884 36.83h-2.969c-.637 0-1.153.603-1.153 1.348v3.47c0 .743.516 1.347 1.153 1.347h2.97c.636 0 1.153-.604 1.153-1.348v-3.47c0-.744-.517-1.347-1.154-1.347ZM21.028 36.83h-2.97c-.636 0-1.153.603-1.153 1.348v3.47c0 .743.517 1.347 1.154 1.347h2.969c.637 0 1.153-.604 1.153-1.348v-3.47c0-.744-.516-1.347-1.153-1.347ZM28.2 36.83h-2.97c-.637 0-1.153.603-1.153 1.348v3.47c0 .743.516 1.347 1.153 1.347h2.97c.637 0 1.153-.604 1.153-1.348v-3.47c0-.744-.516-1.347-1.153-1.347ZM35.37 36.83h-2.969c-.637 0-1.153.603-1.153 1.348v3.47c0 .743.516 1.347 1.153 1.347h2.97c.637 0 1.153-.604 1.153-1.348v-3.47c0-.744-.516-1.347-1.153-1.347ZM42.542 44.516h-2.97c-.637 0-1.153.603-1.153 1.347v3.47c0 .744.516 1.347 1.153 1.347h2.97c.637 0 1.153-.603 1.153-1.347v-3.47c0-.744-.516-1.347-1.153-1.347ZM21.028 44.516h-2.97c-.636 0-1.153.603-1.153 1.347v3.47c0 .744.517 1.347 1.154 1.347h2.969c.637 0 1.153-.603 1.153-1.347v-3.47c0-.744-.516-1.347-1.153-1.347ZM28.2 44.516h-2.97c-.637 0-1.153.603-1.153 1.347v3.47c0 .744.516 1.347 1.153 1.347h2.97c.637 0 1.153-.603 1.153-1.347v-3.47c0-.744-.516-1.347-1.153-1.347ZM35.37 44.516h-2.969c-.637 0-1.153.603-1.153 1.347v3.47c0 .744.516 1.347 1.153 1.347h2.97c.637 0 1.153-.603 1.153-1.347v-3.47c0-.744-.516-1.347-1.153-1.347Z"/></g><path d="M68.346 6.277V8.47H13.764V6.277c0-.449.075-.893.222-1.308.147-.415.363-.792.634-1.11.272-.317.595-.569.95-.74.355-.173.735-.261 1.12-.261h48.73c.776 0 1.52.36 2.069 1.002.549.641.857 1.51.857 2.417Z" fill="#292A2E"/><path d="M23.675 2.751c0-.544.138-1.076.396-1.528A2.476 2.476 0 0 1 25.128.209c.43-.208.904-.262 1.36-.156.457.106.877.368 1.206.753.33.384.554.875.644 1.408.091.534.045 1.087-.134 1.59-.178.502-.48.932-.867 1.234a2.122 2.122 0 0 1-1.308.464M35.694 2.751c0-.544.138-1.076.397-1.528A2.476 2.476 0 0 1 37.148.209c.43-.208.903-.262 1.36-.156.457.106.876.368 1.206.753.329.384.553.875.644 1.408.09.534.044 1.087-.134 1.59-.178.502-.48.932-.867 1.234a2.121 2.121 0 0 1-1.308.464M47.714 2.751c0-.544.138-1.076.397-1.528A2.476 2.476 0 0 1 49.167.209c.43-.208.904-.262 1.36-.156.457.106.877.368 1.206.753.33.384.554.875.645 1.408.09.534.044 1.087-.134 1.59-.179.502-.48.932-.868 1.234a2.121 2.121 0 0 1-1.308.464M53.724 2.751c0-.544.138-1.076.396-1.528A2.476 2.476 0 0 1 55.177.209c.43-.208.904-.262 1.36-.156.457.106.877.368 1.206.753.33.384.553.875.644 1.408.091.534.044 1.087-.134 1.59-.178.502-.48.932-.867 1.234a2.121 2.121 0 0 1-1.308.464M17.665 2.751c0-.544.138-1.076.397-1.528A2.476 2.476 0 0 1 19.118.209c.43-.208.904-.262 1.36-.156.457.106.877.368 1.206.753.33.384.554.875.645 1.408.09.534.044 1.087-.134 1.59-.178.502-.48.932-.867 1.234a2.121 2.121 0 0 1-1.308.464M29.685 2.751c0-.544.138-1.076.396-1.528A2.476 2.476 0 0 1 31.138.209c.43-.208.904-.262 1.36-.156.457.106.877.368 1.206.753.33.384.553.875.644 1.408.091.534.044 1.087-.134 1.59-.178.502-.48.932-.867 1.234a2.121 2.121 0 0 1-1.308.464M41.704 2.751c0-.544.138-1.076.397-1.528A2.476 2.476 0 0 1 43.157.209c.43-.208.904-.262 1.36-.156.458.106.877.368 1.206.753.33.384.554.875.645 1.408.09.534.044 1.087-.134 1.59-.178.502-.48.932-.867 1.234a2.121 2.121 0 0 1-1.308.464M59.733 2.751c0-.544.139-1.076.397-1.528A2.476 2.476 0 0 1 61.187.209c.43-.208.903-.262 1.36-.156.457.106.876.368 1.206.753.329.384.553.875.644 1.408.09.534.044 1.087-.134 1.59-.178.502-.48.932-.867 1.234a2.121 2.121 0 0 1-1.308.464" fill="#E5E5E5"/><path d="m25.684 41.607-.025-.001a.25.25 0 0 1-.11-.04.296.296 0 0 1-.086-.087l-.84-1.292a.377.377 0 0 1-.019-.36.315.315 0 0 1 .071-.096.265.265 0 0 1 .098-.055.239.239 0 0 1 .211.033c.032.022.06.05.081.085l.656 1.008 2.518-2.685a.256.256 0 0 1 .2-.085.264.264 0 0 1 .194.106.36.36 0 0 1 .072.234.35.35 0 0 1-.09.225l-2.743 2.925a.257.257 0 0 1-.188.085ZM35.304 45.197h-2.836c-.351 0-.636.333-.636.744v3.314c0 .41.285.743.636.743h2.836c.352 0 .637-.333.637-.743V45.94c0-.41-.285-.744-.637-.744Z" fill="#367CFF"/><path d="M53.772 17.464a.25.25 0 0 1-.153-.054.32.32 0 0 1-.103-.144.376.376 0 0 1-.017-.186.347.347 0 0 1 .073-.166l3.235-3.935a.285.285 0 0 1 .09-.074.245.245 0 0 1 .214-.007.276.276 0 0 1 .093.068.33.33 0 0 1 .062.106.372.372 0 0 1-.057.358l-3.236 3.934a.28.28 0 0 1-.091.074.243.243 0 0 1-.11.026Z" fill="#0A0A0A"/><path d="M57.074 17.387a.258.258 0 0 1-.193-.09l-3.367-3.78a.328.328 0 0 1-.065-.105.37.37 0 0 1 .053-.36.283.283 0 0 1 .09-.072.244.244 0 0 1 .215-.003c.035.016.066.04.092.07l3.367 3.78c.04.045.068.103.08.167a.376.376 0 0 1-.014.19.32.32 0 0 1-.103.148.251.251 0 0 1-.155.055ZM87.22 22.846s.25 3.451.935 4.691c1.97 3.57 2.586 7.619.7 9.78-1.886 2.16-14.12 2.443-15.121-2.417-.843-4.091.825-4.567 1.181-7.964.161-1.537.62-4.763.62-4.763" fill="#0A0A0A"/><path d="M76.781 34.068c.021-.003.256 4.54 4.774 4.145 3.128-.274 4.243-4.152 4.316-4.152-.338-.084-.906-.205-1.055-.299-.493-.31-1.102-.63-1.261-1.748-.092-.644.063-3.94.016-4.592l-4.802 1.253c.067 1.376.536 4.567-1.11 5.132-.273.093-.568.18-.878.26Z" fill="#E98862"/><path opacity=".5" d="M78.702 32.503a4.68 4.68 0 0 0 .145-.87c.052-.675.042-1.354-.032-2.026.976-.154 1.895-.625 2.654-1.358.089.384.58 2.065.443 2.43-.256.692-1.462 1.824-3.21 1.824Z" fill="#0C0C0C"/><path d="M79.385 31.086c1.896.175 4.332-.76 4.795-3.716l.417-2.667c.463-2.955-.49-5.635-2.872-6.144-2.382-.509-4.537 1.507-5 4.462l-.185 1.18c-.177 1.135-.537 6.574 2.845 6.885Z" fill="#E98862"/><path opacity=".5" d="m78.612 26.999-.005-.001a2.337 2.337 0 0 1-.286-.083c-.14-.052-.324-.137-.3-.285.026-.168.705-1.901.782-2.098a.065.065 0 0 1 .035-.036.053.053 0 0 1 .046.002.068.068 0 0 1 .031.04.083.083 0 0 1 0 .053c-.29.738-.757 1.951-.774 2.065.016.052.249.15.488.201.015.004.03.014.038.029.01.015.013.033.011.052a.075.075 0 0 1-.023.046.055.055 0 0 1-.043.015ZM78.97 28.27a2.29 2.29 0 0 1-1.084-.472.074.074 0 0 1-.023-.044.081.081 0 0 1 .009-.051.063.063 0 0 1 .036-.03.053.053 0 0 1 .044.005c.703.528 1.4.61 2.013.235a.37.37 0 0 1 .039-.021.053.053 0 0 1 .045.003.069.069 0 0 1 .03.04.082.082 0 0 1 0 .053.066.066 0 0 1-.033.038l-.024.014a1.609 1.609 0 0 1-1.051.23Z" fill="#0C0C0C"/><path d="m86.505 25.619-2.134-.442c-1.62-.752-2.125-4.015-2.125-4.015s-1.95 2.248-6.71 1.011c0 0 .912-7.753 7.947-5.551 2.268.71 3.908 3.365 3.724 6.93-.128 2.498-.701 2.067-.701 2.067Z" fill="#0A0A0A"/><path d="M83.89 28.239c.725.155 1.453-.625 1.585-1.47.133-.846-.381-1.438-1.105-1.592l-.461.487-.64 2.442.622.133Z" fill="#E98862"/><path d="M78.271 23.173a1.14 1.14 0 0 0-.616-.25.95.95 0 0 0-.33.028c-.11.028-.215.073-.315.132l-.003.002a.04.04 0 0 1-.036.002.05.05 0 0 1-.027-.027.063.063 0 0 1-.002-.042.053.053 0 0 1 .024-.031 1.32 1.32 0 0 1 .335-.156c.117-.036.24-.051.36-.045.247.011.486.099.693.255.016.012.027.03.03.052a.094.094 0 0 1-.01.061.07.07 0 0 1-.044.035.062.062 0 0 1-.052-.011l-.002-.002-.005-.003ZM80.22 23.446a1.188 1.188 0 0 1 1.05.234c.098.081.188.176.267.283a.06.06 0 0 1 .012.039.059.059 0 0 1-.014.038.043.043 0 0 1-.033.015.044.044 0 0 1-.033-.017l-.002-.003a1.41 1.41 0 0 0-.256-.252 1.078 1.078 0 0 0-.953-.18l-.005.003a.06.06 0 0 1-.055-.008.074.074 0 0 1-.02-.021.095.095 0 0 1-.004-.092.08.08 0 0 1 .018-.024.066.066 0 0 1 .025-.014h.002Z" fill="#0C0C0C"/><path opacity=".52" d="M78.891 28.942a1.089 1.089 0 0 1-.208-.048.064.064 0 0 1-.037-.034.083.083 0 0 1-.005-.054.07.07 0 0 1 .029-.043.054.054 0 0 1 .046-.006c.41.134.641-.05.651-.057a.054.054 0 0 1 .045-.01c.016.003.03.013.038.028a.08.08 0 0 1-.012.098.73.73 0 0 1-.547.126Z" fill="#0C0C0C"/><path d="M84.368 25.136c-1.44-.593-1.931-1.737-2.09-2.593a4.88 4.88 0 0 1 0-1.731l.044.013a4.82 4.82 0 0 0 .001 1.709c.157.841.642 1.967 2.061 2.551l-.016.05Z" fill="#0C0C0C"/><path opacity=".1" d="M81.137 26.785c.023-.268-.21-.515-.523-.552-.312-.037-.584.15-.607.418-.023.267.21.514.523.551.312.037.584-.15.607-.417ZM77.222 26.203c-.023.267-.295.454-.607.418a.683.683 0 0 1-.16-.04c-.019-.317-.024-.622-.02-.906a.615.615 0 0 1 .264-.023c.312.036.546.283.523.551Z" fill="#0C0C0C"/><path d="m90.975 61.069.818 5.824H71.4l.763-5.86 18.812.036Z" fill="#262626"/><path d="M81.659 37.083c3.13-.172 3.262-3.276 3.262-3.276s1.55.117 2.582.28c1.688.267 2.804.85 3.69 1.886.825.963 1.324 2.09.793 8.743-.385 4.818-1.011 16.353-1.011 16.353l-18.813-.036s-.837-14.792-.995-16.96c-.3-4.14-.777-9.975.233-10.267 1.177-.339 5.018.219 6.26 0 .02-.003-.264 3.512 3.999 3.277Z" fill="#367CFF"/><path d="M47.4 20.856a.588.588 0 0 0-.117-.19.49.49 0 0 0-.172-.122.431.431 0 0 0-.392.03.591.591 0 0 0-.241.341.697.697 0 0 0 .023.443l.273.717-1.75-1.804c-.19-.205-.538-.313-.72-.047a.655.655 0 0 0-.042.722.036.036 0 0 0-.006.006l-.003.006-.295-.316a.486.486 0 0 0-.19-.126.43.43 0 0 0-.217-.02.458.458 0 0 0-.204.09.553.553 0 0 0-.151.185.682.682 0 0 0-.061.393c.019.136.077.26.165.35l.126.135a.065.065 0 0 0-.002.019.436.436 0 0 0-.336-.065.49.49 0 0 0-.293.202.678.678 0 0 0 .07.82l.309.33a.04.04 0 0 0-.022.003.046.046 0 0 0-.018.014.059.059 0 0 0-.01.027.431.431 0 0 0-.31.027.53.53 0 0 0-.235.237.682.682 0 0 0-.062.393c.02.136.078.26.166.35l2.633 2.814c.368.394.829.65 1.322.736.494.085.998-.003 1.449-.255l1.45-.809-2.137-5.636Z" fill="#E98862"/><path opacity=".2" d="M45.985 22.742a.043.043 0 0 1-.031.017.042.042 0 0 1-.033-.013l-1.661-1.719a.058.058 0 0 1-.016-.037.06.06 0 0 1 .012-.038.044.044 0 0 1 .031-.018c.012-.001.024.004.034.013l1.66 1.719c.005.004.009.01.012.016a.06.06 0 0 1-.007.059v.001ZM45.358 23.62a.043.043 0 0 1-.032.017.042.042 0 0 1-.033-.014l-1.854-1.918a.06.06 0 0 1-.004-.076.045.045 0 0 1 .032-.017c.012 0 .024.004.033.013l1.854 1.918c.005.005.008.01.011.017a.063.063 0 0 1 .002.04.054.054 0 0 1-.009.018v.002ZM44.68 24.574a.043.043 0 0 1-.03.017.042.042 0 0 1-.033-.013l-1.48-1.53a.057.057 0 0 1-.015-.037.06.06 0 0 1 .012-.04.044.044 0 0 1 .031-.017c.012 0 .024.004.033.013l1.48 1.53c.004.005.008.01.01.017a.061.061 0 0 1-.006.059l-.001.001Z" fill="#0C0C0C"/><path d="m49.077 22.846 9.97 9.542 14.719 1.455c.885.086 1.707.57 2.294 1.347.588.779.895 1.792.858 2.829-.037 1.037-.415 2.017-1.056 2.735-.64.719-1.494 1.12-2.383 1.12-.097 0-.195-.004-.293-.014l-15.804-1.561c-.705-.07-1.374-.392-1.917-.922L45.023 28.554l4.053-5.708Z" fill="#367CFF"/><path d="m46.357 24.591-7.326-1.702 1.154-6.78 1.886-1.413 5.743 1.335-1.457 8.56Z" fill="#0CBC8B"/><path opacity=".29" d="m42.07 14.697-1.885 1.412 1.587.4.299-1.813Z" fill="#FFFFFA"/><g opacity=".88" fill="#fff"><path opacity=".88" d="M46.455 19.071c-.006 0-.012 0-.018-.002l-5.648-1.339a.086.086 0 0 1-.033-.016.102.102 0 0 1-.025-.03.122.122 0 0 1-.013-.08.11.11 0 0 1 .039-.068.081.081 0 0 1 .069-.016l5.648 1.339c.022.005.042.02.055.041a.12.12 0 0 1-.012.144.085.085 0 0 1-.062.027ZM46.247 20.326c-.006 0-.012 0-.018-.002l-5.648-1.339a.093.093 0 0 1-.058-.046.122.122 0 0 1-.013-.08.11.11 0 0 1 .039-.069.081.081 0 0 1 .069-.015l5.648 1.339c.022.005.042.02.055.041a.12.12 0 0 1-.012.143.085.085 0 0 1-.062.028ZM46.023 21.71a.08.08 0 0 1-.018-.002l-5.647-1.339a.085.085 0 0 1-.033-.016.103.103 0 0 1-.026-.03c-.013-.023-.018-.052-.013-.08a.11.11 0 0 1 .04-.068.081.081 0 0 1 .068-.016l5.648 1.339c.022.005.042.02.055.042a.122.122 0 0 1-.012.143.085.085 0 0 1-.062.027ZM42.69 22.208c-.005 0-.011 0-.018-.002l-2.505-.594a.085.085 0 0 1-.033-.016.101.101 0 0 1-.026-.03.12.12 0 0 1-.014-.081.117.117 0 0 1 .014-.04.103.103 0 0 1 .026-.029.084.084 0 0 1 .034-.015.078.078 0 0 1 .036 0l2.505.595c.022.005.042.02.056.041a.12.12 0 0 1-.013.143.085.085 0 0 1-.061.028Z"/></g><path d="m46.865 22.344-.364-.986a.698.698 0 0 1-.024-.442.592.592 0 0 1 .242-.342.444.444 0 0 1 .392-.03.491.491 0 0 1 .172.122c.05.053.089.118.116.19M79.846 47.675l-2.421-2.344a.479.479 0 0 0-.177-.11.428.428 0 0 0-.39.055.532.532 0 0 0-.15.156.685.685 0 0 0-.086.432c.02.151.087.288.19.383l.517.501 2.435 1.474.082-.547Z" fill="#E98862"/><path d="m77.329 46.748-2.254-.706c-.25-.083-.602 0-.663.334a.674.674 0 0 0 .019.382.56.56 0 0 0 .218.286.047.047 0 0 0-.003.008v.007l-.385-.129a.429.429 0 0 0-.218-.015.46.46 0 0 0-.202.096.558.558 0 0 0-.148.188.655.655 0 0 0 .03.628.516.516 0 0 0 .282.227l.164.055c0 .006.002.012.005.018a.45.45 0 0 0-.325.116.598.598 0 0 0-.185.334.69.69 0 0 0 .07.435.53.53 0 0 0 .305.263l.402.134a.046.046 0 0 0-.018.014.058.058 0 0 0-.011.022.06.06 0 0 0 .001.03.49.49 0 0 0-.267.185.635.635 0 0 0-.12.335.67.67 0 0 0 .095.384.517.517 0 0 0 .282.227l3.429 1.149c.48.16.99.15 1.465-.03.474-.18.892-.522 1.2-.981l.99-1.48-4.158-2.516Z" fill="#E98862"/><path opacity=".2" d="M76.877 47.755a.053.053 0 0 1-.021.032.04.04 0 0 1-.035.005l-2.142-.675a.042.042 0 0 1-.017-.009.058.058 0 0 1-.018-.036.061.061 0 0 1 .01-.04.048.048 0 0 1 .014-.013.04.04 0 0 1 .035-.005l2.142.674a.047.047 0 0 1 .028.025.061.061 0 0 1 .004.04v.002ZM76.65 48.867a.053.053 0 0 1-.023.032.04.04 0 0 1-.034.005l-2.391-.752a.048.048 0 0 1-.028-.025.061.061 0 0 1-.004-.04.055.055 0 0 1 .021-.033.042.042 0 0 1 .035-.006l2.391.752a.045.045 0 0 1 .016.01c.005.004.009.01.012.015a.061.061 0 0 1 .004.04v.002ZM76.407 50.074a.053.053 0 0 1-.021.032.04.04 0 0 1-.035.005l-1.907-.6a.044.044 0 0 1-.017-.01.052.052 0 0 1-.012-.015.063.063 0 0 1-.005-.041.058.058 0 0 1 .008-.02.05.05 0 0 1 .014-.014.04.04 0 0 1 .036-.004l1.907.6a.043.043 0 0 1 .016.01c.005.004.009.009.012.015a.06.06 0 0 1 .004.04v.002Z" fill="#0C0C0C"/><path d="m78.095 52.795 15.578 5.254c.627.195 1.289.178 1.909-.048a3.455 3.455 0 0 0 1.593-1.229 4.366 4.366 0 0 0 .788-2.032 4.641 4.641 0 0 0-.26-2.21l-5.31-14.783a4.084 4.084 0 0 0-.774-1.283 3.425 3.425 0 0 0-1.136-.84 3.004 3.004 0 0 0-1.323-.268c-.452.013-.898.13-1.311.345a3.5 3.5 0 0 0-1.098.904 4.165 4.165 0 0 0-.719 1.326 4.633 4.633 0 0 0 .066 3.078l3.193 7.774-9.712-2.624-1.484 6.636Z" fill="#367CFF"/><path d="M91.19 57.266a.04.04 0 0 1-.012-.003l-13.096-4.417a.048.048 0 0 1-.027-.025.062.062 0 0 1-.005-.04l1.484-6.636a.053.053 0 0 1 .021-.032.04.04 0 0 1 .034-.006l9.62 2.598-3.152-7.673a.06.06 0 0 1-.004-.042.057.057 0 0 1 .01-.02.047.047 0 0 1 .014-.012.04.04 0 0 1 .036-.002.045.045 0 0 1 .016.011.056.056 0 0 1 .01.018l3.194 7.774a.063.063 0 0 1-.006.057.047.047 0 0 1-.02.017.04.04 0 0 1-.026.001l-9.67-2.61-1.46 6.534 13.052 4.402c.011.004.02.012.026.023.006.01.009.024.007.036a.057.057 0 0 1-.015.033.042.042 0 0 1-.03.014Z" fill="#0C0C0C"/><path d="M90.895 49.244h-.01l-1.603-.409a.047.047 0 0 1-.029-.023.062.062 0 0 1-.006-.04.055.055 0 0 1 .02-.034.04.04 0 0 1 .034-.007l1.604.407c.01.003.02.01.027.021a.06.06 0 0 1-.006.072.043.043 0 0 1-.03.013ZM70.992 41.697a.043.043 0 0 1-.032-.014.058.058 0 0 1-.014-.035l-.205-3.094c0-.007 0-.014.002-.02a.059.059 0 0 1 .01-.02.05.05 0 0 1 .013-.012.04.04 0 0 1 .035-.003.044.044 0 0 1 .016.01c.005.005.009.01.011.017a.06.06 0 0 1 .005.02l.205 3.094a.06.06 0 0 1-.011.039.044.044 0 0 1-.035.018ZM77.251 24.188c.165 0 .299-.156.299-.349 0-.192-.134-.348-.299-.348-.164 0-.298.156-.298.348 0 .193.134.349.298.349ZM80.274 24.784c.165 0 .298-.156.298-.348 0-.193-.133-.349-.298-.349-.165 0-.298.156-.298.349 0 .192.133.348.298.348Z" fill="#0C0C0C"/><path d="M92.55 67H2.924" fill="#292A2E"/></g><defs><clipPath id="clip0_2_49248"><path fill="#fff" d="M0 0h98v67H0z"/></clipPath></defs></svg>