<svg width="30" height="30" fill="none" xmlns="http://www.w3.org/2000/svg"><path d="M20.477 10.342h-1.374a.933.933 0 0 0-.759.39l-4.605 6.386-2.086-2.894a.937.937 0 0 0-.76-.39H9.52a.235.235 0 0 0-.19.372l3.65 5.063a.931.931 0 0 0 1.514 0l6.17-8.555a.233.233 0 0 0-.187-.372Z" fill="#0CBC8B"/><path d="M15 1.875C7.752 1.875 1.875 7.752 1.875 15S7.752 28.125 15 28.125 28.125 22.248 28.125 15 22.248 1.875 15 1.875Zm0 24.023c-6.018 0-10.898-4.88-10.898-10.898S8.982 4.102 15 4.102 25.898 8.982 25.898 15 21.018 25.898 15 25.898Z" fill="#0CBC8B"/></svg>