<svg width="89" height="71" fill="none" xmlns="http://www.w3.org/2000/svg"><g clip-path="url('#clip0_33_52940')"><path d="M25.374 29.017H62.02c.9 0 1.63-.702 1.63-1.568V1.632c0-.865-.73-1.567-1.63-1.567H25.374c-.9 0-1.63.702-1.63 1.567V27.45c0 .866.73 1.568 1.63 1.568Z" fill="#fff"/><path d="M62.021 29.081H25.374c-.45 0-.881-.172-1.2-.479a1.604 1.604 0 0 1-.497-1.153V1.632c0-.432.18-.847.498-1.153.318-.306.75-.479 1.199-.479H62.02c.45 0 .881.173 1.2.479.317.306.496.72.497 1.153V27.45c0 .433-.18.848-.498 1.153-.318.307-.75.479-1.199.48ZM25.374.13c-.414 0-.811.16-1.104.441a1.477 1.477 0 0 0-.458 1.062V27.45c0 .398.165.78.458 1.062.293.282.69.44 1.104.441H62.02c.414 0 .811-.159 1.104-.44.293-.283.458-.665.459-1.063V1.632c-.001-.398-.166-.78-.459-1.062a1.596 1.596 0 0 0-1.104-.44H25.374Z" fill="#292A2E"/><path d="m28.493 2.497-2.619.239a.479.479 0 0 0-.443.516l.248 2.52c.026.26.266.451.536.426l2.62-.239a.479.479 0 0 0 .443-.516l-.248-2.52a.487.487 0 0 0-.537-.426Z" fill="#292A2E"/><path d="m35.952 7.964-2.616-.271a.488.488 0 0 0-.541.42l-.282 2.517c-.029.26.166.493.437.521l2.615.27c.27.029.513-.16.542-.42l.282-2.516a.478.478 0 0 0-.437-.521Z" fill="#fff"/><path d="M35.619 11.503a.617.617 0 0 1-.062-.003l-2.616-.27a.58.58 0 0 1-.385-.203.538.538 0 0 1-.124-.405l.281-2.517a.538.538 0 0 1 .21-.371.583.583 0 0 1 .422-.119l2.616.27a.58.58 0 0 1 .385.203c.096.114.14.26.124.406l-.282 2.516a.545.545 0 0 1-.186.352.586.586 0 0 1-.383.141Zm-.045-.159a.422.422 0 0 0 .302-.085.39.39 0 0 0 .15-.265l.282-2.517a.385.385 0 0 0-.089-.29.415.415 0 0 0-.276-.145l-2.615-.271a.426.426 0 0 0-.302.085.4.4 0 0 0-.15.265l-.282 2.517a.385.385 0 0 0 .089.29.416.416 0 0 0 .275.145l2.616.271ZM47.56 11.954a.084.084 0 0 1-.068-.034c-1.66-2.376-4.178-2.808-5.998-2.753a11.85 11.85 0 0 0-3.6.698.085.085 0 0 1-.062 0 .08.08 0 0 1-.044-.042.076.076 0 0 1 0-.06.08.08 0 0 1 .043-.043 12.04 12.04 0 0 1 3.657-.71c1.861-.056 4.438.387 6.139 2.822a.076.076 0 0 1 .004.08.08.08 0 0 1-.03.031.084.084 0 0 1-.042.011Z" fill="#292A2E"/><path d="M47.59 11.986a.084.084 0 0 1-.023-.003l-1.67-.454a.08.08 0 0 1-.049-.037.076.076 0 0 1-.007-.06.079.079 0 0 1 .039-.046.084.084 0 0 1 .061-.007l1.592.432.45-1.532a.08.08 0 0 1 .039-.045.085.085 0 0 1 .061-.007c.02.006.038.019.049.037.01.017.013.038.008.058l-.472 1.607a.078.078 0 0 1-.03.041.084.084 0 0 1-.048.016Z" fill="#292A2E"/><path d="m50.21 12.69-2.62.239a.479.479 0 0 0-.444.516l.249 2.52c.026.26.266.451.536.427l2.62-.24a.479.479 0 0 0 .443-.515l-.249-2.52a.487.487 0 0 0-.536-.427Z" fill="#367CFF"/><path d="m58.77 4.942-2.626-.162a.486.486 0 0 0-.523.442l-.169 2.526a.48.48 0 0 0 .46.503l2.625.162a.486.486 0 0 0 .523-.442l.169-2.526a.48.48 0 0 0-.46-.503Z" fill="#292A2E"/><path d="m60.253 13.186-2.616-.27a.488.488 0 0 0-.542.42l-.281 2.516c-.03.26.166.494.436.522l2.616.27c.27.029.513-.16.542-.42l.282-2.517a.478.478 0 0 0-.437-.52Z" fill="#0CBC8B"/><path d="m45.894 21.385-2.62.24a.479.479 0 0 0-.443.515l.248 2.52c.026.26.266.452.537.427l2.619-.239a.479.479 0 0 0 .443-.516l-.248-2.52a.487.487 0 0 0-.536-.427Z" fill="#fff"/><path d="M43.569 25.168a.587.587 0 0 1-.386-.144.546.546 0 0 1-.185-.356l-.248-2.52a.538.538 0 0 1 .13-.404.581.581 0 0 1 .387-.198l2.619-.239a.594.594 0 0 1 .42.124.558.558 0 0 1 .205.373l.248 2.52a.538.538 0 0 1-.129.404.58.58 0 0 1-.387.198l-2.62.239a.597.597 0 0 1-.054.003Zm2.372-3.706-.04.001-2.619.24a.416.416 0 0 0-.277.14.385.385 0 0 0-.093.29l.249 2.52c.01.104.063.2.147.267a.422.422 0 0 0 .3.089l2.62-.24a.417.417 0 0 0 .277-.141.386.386 0 0 0 .092-.289l-.248-2.52a.39.39 0 0 0-.132-.255.42.42 0 0 0-.276-.103Z" fill="#292A2E"/><path d="m29.005 20.533-2.62.239a.479.479 0 0 0-.443.516l.249 2.52c.026.26.266.451.536.426l2.62-.239a.479.479 0 0 0 .443-.515l-.249-2.52a.487.487 0 0 0-.536-.427Z" fill="#367CFF"/><path d="M49.96 11.406h-.009a.085.085 0 0 1-.054-.03.078.078 0 0 1-.018-.057c.123-.792.377-1.56.754-2.274.815-1.52 2.093-2.392 3.696-2.522a.084.084 0 0 1 .06.018.076.076 0 0 1 .01.11.083.083 0 0 1-.056.029c-3.738.302-4.296 4.613-4.302 4.656a.078.078 0 0 1-.026.05.083.083 0 0 1-.054.02Z" fill="#292A2E"/><path d="M53.554 7.457a.084.084 0 0 1-.046-.013.08.08 0 0 1-.03-.036.076.076 0 0 1 .018-.085l.753-.728-.756-.725a.079.079 0 0 1-.025-.055.076.076 0 0 1 .023-.057.083.083 0 0 1 .059-.023.085.085 0 0 1 .058.024l.814.78a.077.077 0 0 1 .024.056c0 .02-.009.04-.024.055l-.81.784a.082.082 0 0 1-.058.023ZM44.661 20.214a.084.084 0 0 1-.048-.016.078.078 0 0 1-.03-.04c-.012-.038-1.184-3.847 1.85-5.427a.084.084 0 0 1 .112.03.075.075 0 0 1 .007.061.078.078 0 0 1-.04.047c-2.917 1.518-1.784 5.206-1.773 5.243a.077.077 0 0 1-.04.093.083.083 0 0 1-.038.008Z" fill="#292A2E"/><path d="M46.124 15.777a.08.08 0 0 1-.067-.034.077.077 0 0 1-.009-.073l.34-.84-.873-.328a.08.08 0 0 1-.044-.042.076.076 0 0 1-.002-.059.08.08 0 0 1 .043-.043.085.085 0 0 1 .062-.002l.95.355a.082.082 0 0 1 .044.042.076.076 0 0 1 .002.06l-.37.914a.079.079 0 0 1-.03.036.084.084 0 0 1-.046.014ZM34.523 7.258a.083.083 0 0 1-.058-.023.077.077 0 0 1-.024-.055c0-1.191-.365-2.1-1.086-2.703-1.28-1.069-3.27-.811-3.29-.809a.084.084 0 0 1-.06-.014.076.076 0 0 1-.016-.11.082.082 0 0 1 .053-.03c.084-.012 2.082-.272 3.42.844.758.633 1.143 1.583 1.142 2.822a.076.076 0 0 1-.023.055.083.083 0 0 1-.058.023Z" fill="#292A2E"/><path d="M34.527 7.287h-.008a.084.084 0 0 1-.055-.029l-.733-.851a.076.076 0 0 1 .01-.11.084.084 0 0 1 .116.01l.681.791.823-.655a.082.082 0 0 1 .06-.017.085.085 0 0 1 .054.028.076.076 0 0 1 .01.086.08.08 0 0 1-.02.024l-.886.705a.084.084 0 0 1-.052.018Z" fill="#292A2E"/><path d="M36.33 15.91h-2.632a.483.483 0 0 0-.492.474v2.532c0 .26.22.473.492.473h2.631a.483.483 0 0 0 .492-.473v-2.532a.483.483 0 0 0-.492-.473Z" fill="#0CBC8B"/><path d="M43.03 20.537a.083.083 0 0 1-.05-.017.078.078 0 0 1-.03-.042c-.908-3.498-5.352-3.253-5.396-3.25a.087.087 0 0 1-.06-.02.08.08 0 0 1-.027-.053.077.077 0 0 1 .02-.057.08.08 0 0 1 .056-.027 7.718 7.718 0 0 1 2.42.306c1.163.35 2.653 1.165 3.146 3.062a.075.075 0 0 1-.01.06.081.081 0 0 1-.05.035.082.082 0 0 1-.02.003Z" fill="#292A2E"/><path d="M43.041 20.563a.084.084 0 0 1-.047-.014l-.923-.63a.076.076 0 0 1-.02-.11.084.084 0 0 1 .114-.018l.856.584.61-.85a.082.082 0 0 1 .052-.033.084.084 0 0 1 .06.013.076.076 0 0 1 .021.109l-.656.915a.08.08 0 0 1-.053.033.085.085 0 0 1-.014.001Z" fill="#292A2E"/><path d="m83.115 71 .16-.03-2.502-23.924-.16.03L83.115 71ZM73.799 71l.16-.03-2.502-23.924-.16.03L73.798 71ZM53.204 71l-.16-.03 2.502-23.924.16.03L53.204 71ZM62.52 71l-.16-.03 2.503-23.924.16.03L62.521 71ZM65.839 36.517 64.377 47.05l.162.021L66 36.537l-.161-.02ZM82.616 36.517 81.154 47.05l.162.021 1.462-10.533-.162-.021Z" fill="#494949"/><path d="M64.392 47.833h16.41c.443 0 .802-.346.802-.772 0-.426-.359-.771-.802-.771h-16.41c-.443 0-.802.345-.802.771 0 .426.359.772.802.772Z" fill="#292A2E"/><path opacity=".8" d="M64.392 47.833h16.41c.443 0 .802-.346.802-.772 0-.426-.359-.771-.802-.771h-16.41c-.443 0-.802.345-.802.771 0 .426.359.772.802.772Z" fill="#fff"/><path d="M63.508 47.061c0-.225.094-.441.26-.6a.902.902 0 0 1 .623-.25h16.411v1.7" fill="#292A2E"/><path d="M55.384 47.833h16.411c.443 0 .802-.346.802-.772 0-.426-.36-.771-.802-.771h-16.41c-.443 0-.802.345-.802.771 0 .426.359.772.801.772Z" fill="#fff"/><path d="M54.501 47.061c0-.225.093-.441.26-.6a.903.903 0 0 1 .624-.25h16.41v1.7M66.738 36.527h15.916c.26 0 .511-.09.707-.256a1.02 1.02 0 0 0 .355-.642l1.053-7.778a.993.993 0 0 0-.257-.814 1.106 1.106 0 0 0-.805-.35H67.79c-.26 0-.512.09-.707.256a1.02 1.02 0 0 0-.356.642l-1.052 7.778a.994.994 0 0 0 .257.814c.1.11.224.198.363.259.14.06.29.092.442.091Z" fill="#292A2E"/><path opacity=".8" d="M66.738 36.527h15.916c.26 0 .511-.09.707-.256a1.02 1.02 0 0 0 .355-.642l1.053-7.778a.993.993 0 0 0-.257-.814 1.106 1.106 0 0 0-.805-.35H67.79c-.26 0-.512.09-.707.256a1.02 1.02 0 0 0-.356.642l-1.052 7.778a.994.994 0 0 0 .257.814c.1.11.224.198.363.259.14.06.29.092.442.091Z" fill="#fff"/><path d="M65.872 36.229a1.1 1.1 0 0 1-.237-.41 1.068 1.068 0 0 1-.04-.466l1.053-7.778a1.1 1.1 0 0 1 .383-.69c.21-.178.48-.276.76-.277h15.916c.164 0 .326.034.475.1.15.064.283.16.391.278a1.068 1.068 0 0 1 .277.875l-1.053 7.779a1.101 1.101 0 0 1-.383.69c-.21.177-.48.275-.76.276H66.738c-.164 0-.326-.034-.475-.099a1.152 1.152 0 0 1-.39-.278Zm1.919-9.464c-.24 0-.472.085-.653.238a.944.944 0 0 0-.328.592l-1.053 7.779a.918.918 0 0 0 .238.751.992.992 0 0 0 .335.24c.129.055.268.084.409.084h15.915c.24 0 .472-.085.653-.237a.944.944 0 0 0 .329-.592l1.053-7.78a.918.918 0 0 0-.238-.75.99.99 0 0 0-.336-.24 1.024 1.024 0 0 0-.408-.085H67.79Z" fill="#292A2E"/><path d="M65.838 36.527h15.916c.26 0 .511-.09.707-.256a1.02 1.02 0 0 0 .356-.642l1.052-7.778a.994.994 0 0 0-.257-.814c-.1-.11-.225-.198-.363-.259a1.107 1.107 0 0 0-.442-.091H66.89c-.26 0-.511.09-.707.256a1.02 1.02 0 0 0-.355.641l-1.053 7.78a.993.993 0 0 0 .257.813 1.107 1.107 0 0 0 .805.35Z" fill="#fff"/><path d="M64.972 36.229a1.1 1.1 0 0 1-.237-.41 1.068 1.068 0 0 1-.04-.466l1.052-7.778a1.1 1.1 0 0 1 .384-.69c.21-.178.48-.276.76-.277h15.916c.164 0 .326.034.475.1.15.064.283.16.391.278a1.068 1.068 0 0 1 .277.875l-1.053 7.779a1.1 1.1 0 0 1-.383.69c-.21.177-.48.275-.76.276H65.838c-.164 0-.326-.034-.475-.099a1.152 1.152 0 0 1-.391-.278Zm1.92-9.464c-.241 0-.473.085-.654.238a.945.945 0 0 0-.329.592l-1.052 7.779a.92.92 0 0 0 .237.751.99.99 0 0 0 .336.24c.128.055.267.084.408.084h15.916c.24 0 .472-.085.652-.237a.944.944 0 0 0 .33-.592l1.052-7.78a.917.917 0 0 0-.238-.75.989.989 0 0 0-.335-.24 1.023 1.023 0 0 0-.409-.085H66.892Z" fill="#292A2E"/><path d="M53.81 66.856s-.438 2.18-2.559 2.3c-2.121.122-1.661 1.748-1.661 1.748h8.106v-3.897l-3.886-.151ZM61.083 65.48s.608 2.141-1.24 3.151c-1.848 1.01-.689 2.274-.689 2.274l7.274-3.444-1.788-3.496-3.557 1.515Z" fill="#367CFF"/><path d="m65.588 64.874-6.134-18.618h11.119c2.233 0 3.164-1.823 3.164-3.971 0-2.15-2.195-4.033-4.429-4.033H54.302c-1.362 0-2.89.801-3.637 1.897-.748 1.096-.545 2.794-.004 3.996L60.484 67.1" fill="#262626"/><path opacity=".8" d="m65.588 64.874-6.134-18.618h11.119c2.233 0 3.164-1.823 3.164-3.971 0-2.15-2.195-4.033-4.429-4.033H54.302c-1.362 0-2.89.801-3.637 1.897-.748 1.096-.545 2.794-.004 3.996L60.484 67.1" fill="#0A0A0A"/><path d="m58.33 68.418 1.94-22.162 13.467-.001c3.156-.238 4.6-1.902 4.555-4.05-.046-2.122-1.162-4.217-3.357-4.217h-18.15c-1.624.032-3.504 1.51-3.504 3.21l-.943 26.963" fill="#262626"/><path d="M79.21 38.014s.599 3.753-.35 5.84c-1.183 2.604-5.62 2.4-5.62 2.4l.25-8.266 5.72.026Z" fill="#262626"/><path d="m79.87 37.59.017.001s-.013-.32-.017 0ZM79.848 37.59l.017.001s-.012-.32-.017 0Z" fill="#333"/><path d="M50.977 22.376a.333.333 0 0 1 .144-.141.352.352 0 0 1 .203-.036c0-.006 0-.012.004-.017a.03.03 0 0 1 .012-.009c.005-.002.01-.002.016-.002l-.236-.162a.34.34 0 0 1-.142-.195.329.329 0 0 1 .026-.238.337.337 0 0 1 .186-.153.353.353 0 0 1 .244.007l.002-.01-.096-.067a.336.336 0 0 1-.137-.182.324.324 0 0 1 .014-.225.345.345 0 0 1 .372-.188c.05.008.096.027.137.056l.224.154v-.004l.005-.003a.322.322 0 0 1-.022-.408c.105-.164.349-.13.493-.03l1.315.873-.235-.381a.33.33 0 0 1 .221-.506.353.353 0 0 1 .263.057c.037.026.069.06.092.098l1.284 2.078c.15.244.196.535.127.81a1.092 1.092 0 0 1-.495.668 1.768 1.768 0 0 1-1.918-.053l-1.986-1.37a.351.351 0 0 1-.135-.19.339.339 0 0 1 .018-.23Z" fill="#E98862"/><path opacity=".25" d="M53.25 21.83a.032.032 0 0 1-.042.008l-1.25-.833a.03.03 0 0 1-.008-.042.032.032 0 0 1 .044-.008l1.25.833a.032.032 0 0 1 .008.009.03.03 0 0 1 0 .034h-.001ZM52.885 22.371a.032.032 0 0 1-.044.007l-1.394-.93a.03.03 0 0 1-.008-.042.033.033 0 0 1 .044-.008l1.394.93a.03.03 0 0 1 .008.042v.001ZM52.491 22.958a.032.032 0 0 1-.043.007l-1.112-.74a.03.03 0 0 1-.013-.02.03.03 0 0 1 .005-.023.032.032 0 0 1 .02-.012.033.033 0 0 1 .023.004l1.113.742a.03.03 0 0 1 .013.019.03.03 0 0 1-.005.023Z" fill="#0C0C0C"/><path d="m56.123 22.269 3.768 6.176 4.599-5.804 3.819 3.313-6.522 8.127-.043.057a2.588 2.588 0 0 1-1.01.798 2.697 2.697 0 0 1-2.524-.178 2.547 2.547 0 0 1-.88-.93l-5.358-9.338 4.15-2.221Z" fill="#367CFF"/><path d="M60.26 29.187a.049.049 0 0 0 .041-.022.044.044 0 0 0 .002-.045l-.37-.696a.047.047 0 0 0-.027-.022.05.05 0 0 0-.036.003.047.047 0 0 0-.024.026.045.045 0 0 0 .002.035l.37.696a.047.047 0 0 0 .042.025ZM64.755 28.41l-.096.005.115 1.95.096-.005-.115-1.95Z" fill="#0C0C0C"/><path d="M76.898 14.293s.177 2.171.694 2.954c1.49 2.253 1.945 4.802.496 6.151-1.449 1.35-10.79 1.473-11.535-1.586-.627-2.577.648-2.869.934-5.003.129-.965.492-2.991.492-2.991" fill="#0A0A0A"/><path d="M68.93 21.322c.017-.002.196 2.855 3.645 2.606 2.389-.172 3.24-2.61 3.295-2.61-.258-.053-.691-.13-.805-.188-.376-.195-.842-.397-.963-1.1-.07-.405.049-2.477.012-2.886l-3.666.787c.051.865.41 2.871-.847 3.227-.209.059-.434.113-.67.164Z" fill="#E98862"/><path opacity=".52" d="M70.397 20.338c.057-.178.094-.361.11-.547.04-.424.032-.851-.024-1.273a4.099 4.099 0 0 0 2.026-.854c.069.241.443 1.298.34 1.528-.197.435-1.118 1.146-2.452 1.146Z" fill="#0C0C0C"/><path d="M70.883 19.439c1.447.118 3.31-.459 3.675-2.315l.33-1.675c.365-1.856-.353-3.545-2.169-3.876-1.816-.33-3.47.927-3.835 2.783l-.145.742c-.14.712-.437 4.13 2.144 4.341Z" fill="#E98862"/><path d="M69.256 15.178a.223.223 0 0 0 .228-.219.224.224 0 0 0-.228-.219.223.223 0 0 0-.228.22c0 .12.102.218.228.218ZM71.588 15.478a.224.224 0 0 0 .228-.219.224.224 0 0 0-.228-.219.224.224 0 0 0-.227.22c0 .12.102.218.227.218ZM70.308 16.865h-.003a2.115 2.115 0 0 1-.218-.054c-.107-.033-.247-.087-.228-.18.02-.106.546-1.192.606-1.316a.046.046 0 0 1 .026-.023.048.048 0 0 1 .036.002.044.044 0 0 1 .023.06c-.225.462-.586 1.223-.6 1.293.012.034.19.096.372.13a.047.047 0 0 1 .03.017.044.044 0 0 1-.01.062.048.048 0 0 1-.034.01ZM70.577 17.667a1.953 1.953 0 0 1-.826-.302.045.045 0 0 1-.02-.029.043.043 0 0 1 .006-.033.048.048 0 0 1 .064-.013c.535.335 1.067.389 1.537.156.01-.005.02-.01.03-.013a.048.048 0 0 1 .035.002c.011.005.02.014.024.025a.043.043 0 0 1-.002.034.046.046 0 0 1-.026.023l-.018.01a1.446 1.446 0 0 1-.804.14Z" fill="#0C0C0C"/><path d="m76.34 16.033-1.628-.287c-1.233-.48-1.606-2.534-1.606-2.534s-1.497 1.405-5.127.606c0 0 .728-4.871 6.09-3.455 1.73.457 2.97 2.133 2.816 4.374-.109 1.57-.545 1.296-.545 1.296Z" fill="#0A0A0A"/><path d="M74.334 17.67c.552.1 1.111-.387 1.216-.918.104-.532-.286-.906-.838-1.006l-.354.304-.499 1.532.475.087Z" fill="#E98862"/><path d="M70.132 14.428a1.097 1.097 0 0 0-.819-.135c-.09.022-.177.055-.259.099a.047.047 0 0 0-.022.026.046.046 0 0 0 .003.034.05.05 0 0 0 .026.024.05.05 0 0 0 .035 0l.004-.002c.076-.035.156-.062.238-.078a.959.959 0 0 1 .706.145l.005.003a.074.074 0 0 0 .056.016.075.075 0 0 0 .05-.029.07.07 0 0 0 .013-.055.069.069 0 0 0-.033-.046l-.003-.002ZM71.584 14.757a.973.973 0 0 1 .487.01c.08.022.157.056.227.1.07.044.135.096.192.156l.002.003a.05.05 0 0 0 .066-.001.045.045 0 0 0 .005-.063 1.1 1.1 0 0 0-.204-.183.957.957 0 0 0-.25-.123 1.108 1.108 0 0 0-.564-.035.073.073 0 0 0-.043.031.068.068 0 0 0-.009.052.07.07 0 0 0 .03.043c.016.01.034.014.053.012l.003-.001.005-.001ZM70.514 18.088a.994.994 0 0 1-.158-.03.046.046 0 0 1-.028-.022.043.043 0 0 1-.004-.034.045.045 0 0 1 .022-.027.048.048 0 0 1 .035-.004c.313.087.49-.028.498-.033a.049.049 0 0 1 .034-.007.047.047 0 0 1 .03.018.044.044 0 0 1-.01.063.654.654 0 0 1-.419.076ZM74.709 15.726l.016-.044c-2.063-.712-1.558-2.66-1.553-2.68l-.046-.011c-.006.02-.522 2.008 1.583 2.735Z" fill="#0C0C0C"/><path opacity=".1" d="M72.237 16.742c.02-.168-.159-.324-.397-.349-.238-.024-.446.092-.465.26-.019.168.159.325.397.35.238.024.447-.093.465-.26ZM69.251 16.359c-.02.168-.227.284-.465.26a.617.617 0 0 1-.122-.025 6.442 6.442 0 0 1-.012-.57.567.567 0 0 1 .202-.014c.238.024.416.18.397.349Z" fill="#0C0C0C"/><path d="M64.645 27.612c.108 1.229.637 8.863.742 10.376l13.823.029c.082-1.365 1.021-7.332 1.33-10 .294-2.546.872-3.82.448-4.574-.692-1.23-2.582-1.94-3.872-2.109a37.018 37.018 0 0 0-1.971-.176s-.1 1.951-2.49 2.06c-3.255.148-3.038-2.06-3.054-2.06-.527 0-3.538.321-4.275.741-2.008 1.144-.912 3.11-.681 5.713Z" fill="#367CFF"/><path d="m55.672 28.47 1.332 6.232c.027.127.099.24.202.323a.601.601 0 0 0 .368.128l9.175.075a.606.606 0 0 0 .459-.206.557.557 0 0 0 .121-.472l-1.332-6.232a.562.562 0 0 0-.202-.322.601.601 0 0 0-.368-.129l-9.175-.075a.606.606 0 0 0-.459.206.557.557 0 0 0-.121.473Z" fill="#292A2E"/><path d="M64.228 32.897a.332.332 0 0 0 .073.228c.052.065.127.11.211.126l.283.06a.032.032 0 0 0-.022.02c0 .006.001.012.004.017a.34.34 0 0 0-.172.11.32.32 0 0 0-.075.185c0 .079.027.156.078.218.05.062.121.106.201.125l2.385.51a1.763 1.763 0 0 0 1.786-.677c.167-.234.233-.52.184-.8-.05-.28-.21-.53-.448-.697l-2.03-1.428a.35.35 0 0 0-.15-.06l.186.873-.05-.011-.01-.002-1.556-.304c-.173-.037-.411.023-.442.213a.318.318 0 0 0 .028.216c.034.066.09.12.16.152-.001 0-.003.002-.003.004v.004l-.268-.057a.354.354 0 0 0-.284.062.332.332 0 0 0-.13.251c0 .078.027.153.078.212.051.06.122.102.201.117l.116.025c0 .004 0 .007.002.01a.347.347 0 0 0-.228.087.323.323 0 0 0-.108.21Z" fill="#E98862"/><path opacity=".25" d="M66.4 32.282a.03.03 0 0 1-.014.018.033.033 0 0 1-.024.005l-1.488-.294a.032.032 0 0 1-.02-.013.029.029 0 0 1-.006-.023.03.03 0 0 1 .014-.02.033.033 0 0 1 .024-.003l1.489.293a.03.03 0 0 1 .011.005.03.03 0 0 1 .014.02.03.03 0 0 1 0 .011ZM66.283 32.917a.03.03 0 0 1-.014.019.033.033 0 0 1-.023.004l-1.662-.328a.03.03 0 0 1-.011-.005.029.029 0 0 1-.009-.008.03.03 0 0 1-.004-.023.032.032 0 0 1 .013-.019.034.034 0 0 1 .024-.004l1.661.328a.032.032 0 0 1 .02.013.03.03 0 0 1 .005.022ZM66.16 33.606a.03.03 0 0 1-.013.018c-.007.005-.016.006-.023.005l-1.326-.262a.032.032 0 0 1-.02-.013.03.03 0 0 1-.004-.023.03.03 0 0 1 .013-.019.033.033 0 0 1 .024-.004l1.325.261a.032.032 0 0 1 .02.013.03.03 0 0 1 .005.023Z" fill="#0C0C0C"/><path d="m67.342 35.403 12.94 2.25c.404.043.812-.006 1.194-.14a2.64 2.64 0 0 0 1.003-.639c.278-.284.485-.626.603-1s.144-.77.077-1.155l-1.812-10.36a2.472 2.472 0 0 0-.362-.926 2.571 2.571 0 0 0-.703-.72 2.68 2.68 0 0 0-.937-.407 2.728 2.728 0 0 0-1.988.322 2.59 2.59 0 0 0-.747.679c-.2.271-.343.578-.42.902-.076.325-.086.66-.028.989l1.236 7.132-9.487-1.146-.57 4.22Z" fill="#367CFF"/><path d="M80.282 37.7a.049.049 0 0 0 .032-.013.045.045 0 0 0 .005-.062.048.048 0 0 0-.03-.017l-12.895-2.242.557-4.13 9.44 1.14a.05.05 0 0 0 .04-.014.046.046 0 0 0 .013-.04l-.785-4.557a.046.046 0 0 0-.036-.038.05.05 0 0 0-.05.018.044.044 0 0 0-.008.035l.774 4.497-9.423-1.139a.05.05 0 0 0-.035.01.047.047 0 0 0-.018.03l-.57 4.22a.044.044 0 0 0 .01.033c.007.01.018.016.03.018l12.94 2.25h.009Z" fill="#0C0C0C"/><path d="m77.406 32.285-.015.091.832.128.015-.09-.832-.13Z" fill="#0C0C0C"/><path d="M88.943 70.954H.057" fill="#292A2E"/><path opacity=".65" d="M88.943 70.954H.057" fill="#292A2E"/><path d="m5.523 71-.16-.03 2.502-23.924.16.03L5.524 71ZM14.84 71l-.16-.03 2.502-23.924.16.03L14.84 71ZM35.435 71l.16-.03-2.502-23.924-.16.03L35.435 71ZM26.118 71l.16-.03-2.502-23.924-.16.03L26.118 71ZM22.8 36.517l-.162.021L24.1 47.072l.162-.021L22.8 36.517ZM6.022 36.517l-.162.021 1.462 10.534.162-.021-1.462-10.534Z" fill="#494949"/><path d="M24.247 46.29H7.837c-.443 0-.802.345-.802.771 0 .426.36.772.802.772h16.41c.443 0 .802-.346.802-.771 0-.427-.359-.772-.802-.772Z" fill="#292A2E"/><path opacity=".8" d="M24.247 46.29H7.837c-.443 0-.802.345-.802.771 0 .426.36.772.802.772h16.41c.443 0 .802-.346.802-.771 0-.427-.359-.772-.802-.772Z" fill="#fff"/><path d="M24.247 47.911H7.837a.912.912 0 0 1-.625-.249.848.848 0 0 1-.258-.6.822.822 0 0 1 .258-.602.886.886 0 0 1 .625-.249h16.41c.235 0 .46.09.625.25.166.159.259.375.259.6a.834.834 0 0 1-.259.601.901.901 0 0 1-.625.249Zm-16.41-1.543a.745.745 0 0 0-.51.203.693.693 0 0 0-.21.49.67.67 0 0 0 .21.49.723.723 0 0 0 .51.203h16.41a.735.735 0 0 0 .51-.203.68.68 0 0 0 .21-.49.68.68 0 0 0-.21-.49.735.735 0 0 0-.51-.203H7.837Z" fill="#292A2E"/><path d="M33.254 46.29h-16.41c-.443 0-.802.345-.802.771 0 .426.359.772.802.772h16.41c.443 0 .802-.346.802-.771 0-.427-.359-.772-.802-.772Z" fill="#fff"/><path d="M33.254 47.911h-16.41a.911.911 0 0 1-.625-.249.849.849 0 0 1-.259-.6.822.822 0 0 1 .26-.602.887.887 0 0 1 .624-.249h16.41a.914.914 0 0 1 .625.25.847.847 0 0 1 .259.6.822.822 0 0 1-.26.601.887.887 0 0 1-.624.249Zm-16.41-1.543a.745.745 0 0 0-.51.203.693.693 0 0 0-.21.49.67.67 0 0 0 .21.49.723.723 0 0 0 .51.203h16.41a.746.746 0 0 0 .51-.203.692.692 0 0 0 .21-.49.67.67 0 0 0-.21-.49.724.724 0 0 0-.51-.203h-16.41ZM21.9 36.527H5.986c-.26 0-.511-.09-.707-.256a1.02 1.02 0 0 1-.355-.642L3.87 27.852a.993.993 0 0 1 .257-.814c.1-.11.225-.198.363-.259.14-.06.29-.091.442-.091h15.916c.26 0 .511.09.707.256.195.165.322.393.355.641l1.053 7.78a.992.992 0 0 1-.037.433c-.045.14-.12.27-.22.38-.1.11-.224.198-.363.259-.14.06-.29.091-.442.091Z" fill="#292A2E"/><path opacity=".8" d="M21.9 36.527H5.986c-.26 0-.511-.09-.707-.256a1.02 1.02 0 0 1-.355-.642L3.87 27.852a.993.993 0 0 1 .257-.814c.1-.11.225-.198.363-.259.14-.06.29-.091.442-.091h15.916c.26 0 .511.09.707.256.195.165.322.393.355.641l1.053 7.78a.992.992 0 0 1-.037.433c-.045.14-.12.27-.22.38-.1.11-.224.198-.363.259-.14.06-.29.091-.442.091Z" fill="#fff"/><path d="M21.9 36.606H5.986c-.28 0-.55-.099-.76-.276a1.1 1.1 0 0 1-.383-.69L3.789 27.86a1.069 1.069 0 0 1 .277-.875c.108-.119.241-.214.39-.279.15-.065.312-.099.476-.099h15.916c.28.001.55.1.76.277a1.1 1.1 0 0 1 .383.69l1.053 7.778a1.068 1.068 0 0 1-.277.876 1.153 1.153 0 0 1-.39.278c-.15.065-.312.099-.476.099Zm-16.968-9.84a.99.99 0 0 0-.744.324.918.918 0 0 0-.238.752l1.053 7.778c.032.229.149.44.33.592.18.152.412.237.652.237h15.916c.14 0 .28-.029.408-.085a.992.992 0 0 0 .335-.239.918.918 0 0 0 .238-.752l-1.052-7.778a.945.945 0 0 0-.329-.592 1.016 1.016 0 0 0-.653-.238H4.932Z" fill="#292A2E"/><path d="M22.8 36.527H6.886c-.26 0-.512-.09-.707-.256a1.02 1.02 0 0 1-.356-.642L4.77 27.852a.993.993 0 0 1 .257-.814c.1-.11.225-.198.363-.259.14-.06.29-.091.442-.091h15.916c.26 0 .511.09.707.256.195.165.322.393.355.641l1.053 7.78a.992.992 0 0 1-.037.433c-.045.14-.12.27-.22.38-.1.11-.225.198-.364.259-.138.06-.29.091-.442.091Z" fill="#fff"/><path d="M22.8 36.606H6.886c-.28 0-.55-.099-.76-.277a1.1 1.1 0 0 1-.383-.69l-1.053-7.778a1.07 1.07 0 0 1 .277-.875c.108-.119.241-.214.39-.279.15-.065.312-.099.476-.099h15.916c.28.001.55.1.76.277a1.1 1.1 0 0 1 .383.69l1.053 7.778c.021.157.007.316-.04.467a1.1 1.1 0 0 1-.237.409 1.152 1.152 0 0 1-.391.278c-.15.065-.311.099-.476.099Zm-16.968-9.84a1.021 1.021 0 0 0-.744.323.919.919 0 0 0-.238.752l1.053 7.779c.032.229.149.44.33.592.18.152.412.237.652.237H22.8c.141 0 .28-.029.409-.085a.99.99 0 0 0 .335-.239.918.918 0 0 0 .238-.752l-1.053-7.778a.944.944 0 0 0-.328-.592 1.015 1.015 0 0 0-.653-.238H5.832Z" fill="#292A2E"/><path d="M21.046 14.685s1.058-.768 1.32-2.536c.203-1.368-1.11-.482-1.11-.482s.137-.987-.61-.889c-.748.098-1.166 1.135-1.166 1.135M16.782 10.894s-3.708.383-2.368 5.218l.328.02.666.044" fill="#0C0C0C"/><path d="M20.425 21.161c-.016-.002-.197 2.886-3.685 2.635-2.414-.174-3.275-2.64-3.33-2.64.26-.052.582-.133.71-.16a1.42 1.42 0 0 0 .723-.41c.193-.203.316-.458.354-.73.07-.41-.049-2.505-.012-2.919l3.706.797c-.052.874-.414 2.903.856 3.262.212.059.44.113.678.165Z" fill="#E98862"/><path opacity=".52" d="M18.943 20.166a2.489 2.489 0 0 1-.112-.553c-.04-.429-.032-.86.025-1.288a4.145 4.145 0 0 1-2.049-.863c-.069.244-.447 1.313-.342 1.545.198.44 1.129 1.16 2.478 1.16Z" fill="#0C0C0C"/><path d="M18.178 19.595c-1.462-.127-3.212-1.015-3.237-2.925l-.024-1.723c-.025-1.91.997-3.47 2.866-3.494 1.869-.022 3.286 1.508 3.311 3.418l.01.763a5.548 5.548 0 0 1-.06.783c-.095.686-.244 1.73-.728 2.435-.456.667-1.204.823-2.138.743Z" fill="#E98862"/><path d="M18.856 17.849c.302.013.603-.042.878-.161a.045.045 0 0 0 .015-.01.045.045 0 0 0 .014-.033.043.043 0 0 0-.004-.017.046.046 0 0 0-.026-.024.048.048 0 0 0-.036 0c-.593.243-1.132.208-1.558-.103a.308.308 0 0 0-.027-.018.05.05 0 0 0-.034-.002.047.047 0 0 0-.027.02.044.044 0 0 0-.005.033c.003.011.01.02.02.027a1.447 1.447 0 0 0 .791.288ZM18.843 18.28c.054.003.109.001.163-.004a.048.048 0 0 0 .03-.017.045.045 0 0 0-.006-.063.049.049 0 0 0-.034-.01c-.326.033-.482-.111-.49-.117a.048.048 0 0 0-.032-.013.048.048 0 0 0-.033.013.044.044 0 0 0 0 .064.655.655 0 0 0 .402.146ZM20.477 16.001c.127 0 .23-.1.23-.221a.226.226 0 0 0-.23-.222c-.127 0-.23.1-.23.222s.103.221.23.221ZM18.229 15.865c.127 0 .23-.099.23-.221a.226.226 0 0 0-.23-.222c-.127 0-.23.1-.23.222s.103.221.23.221Z" fill="#0C0C0C"/><path d="M15.065 17.25c-.568.007-1.037-.572-1.044-1.118-.007-.547.45-.854 1.017-.86l.298.362.217 1.61-.489.006Z" fill="#E98862"/><path d="M15.63 16.372s.191-2.702 1.043-2.869c.567-.111 1.943.663 3.217.43.557-.103 1.086.03 1.14.283.021.1.368-1.341-.505-2.435-.694-.87-2.968-1.117-4.003-.831-2.865.79-1.6 4.44-1.6 4.44l.127.932.58.05ZM19.2 17.211h.004c.183-.002.49-.024.488-.156 0-.11-.324-1.284-.36-1.418a.045.045 0 0 0-.022-.027.048.048 0 0 0-.036-.005.047.047 0 0 0-.028.02.043.043 0 0 0-.005.035c.144.52.357 1.322.358 1.396-.018.031-.207.064-.396.065a.048.048 0 0 0-.033.013.044.044 0 0 0-.002.063c.009.008.02.013.032.014Z" fill="#0C0C0C"/><path d="M19.825 14.579c.192-.051.395-.051.587 0a1 1 0 0 1 .268.112c.081.05.156.108.223.176.012.012.02.028.02.044a.064.064 0 0 1-.019.046.07.07 0 0 1-.094.006l-.004-.004a1 1 0 0 0-.203-.14.84.84 0 0 0-.232-.082.96.96 0 0 0-.479.026l-.006.002a.105.105 0 0 1-.11-.027.098.098 0 0 1-.026-.07.096.096 0 0 1 .034-.068.103.103 0 0 1 .034-.02l.006-.001ZM18.462 14.69a.955.955 0 0 0-.711-.036 1.016 1.016 0 0 0-.221.113l-.005.003a.07.07 0 0 1-.093-.016.063.063 0 0 1-.012-.048.065.065 0 0 1 .027-.043c.075-.058.158-.107.245-.145.09-.039.184-.065.281-.077.198-.026.399 0 .583.075a.1.1 0 0 1 .054.054c.01.024.01.051-.001.075a.1.1 0 0 1-.057.053.106.106 0 0 1-.078-.002l-.006-.002-.006-.004ZM19.55 12.719c.42-.085.657-.636.528-1.231-.13-.596-.575-1.01-.996-.925-.42.084-.656.635-.527 1.23.13.596.575 1.01.995.926Z" fill="#0C0C0C"/><path d="M42.995 66.856s.437 2.18 2.558 2.3c2.122.122 1.662 1.748 1.662 1.748h-8.107v-3.897l3.887-.151ZM27.573 65.48s-.608 2.141 1.24 3.151c1.848 1.01.69 2.273.69 2.273l-7.274-3.443 1.787-3.496 3.558 1.514Z" fill="#367CFF"/><path d="m23.069 64.874 6.134-18.618h-11.12c-2.233 0-3.164-1.823-3.164-3.971 0-2.15 2.196-4.033 4.43-4.033h15.006c1.362 0 2.89.801 3.637 1.897.747 1.096.545 2.794.004 3.996L28.173 67.1" fill="#262626"/><path opacity=".8" d="m23.069 64.874 6.134-18.618h-11.12c-2.233 0-3.164-1.823-3.164-3.971 0-2.15 2.196-4.033 4.43-4.033h15.006c1.362 0 2.89.801 3.637 1.897.747 1.096.545 2.794.004 3.996L28.173 67.1" fill="#0A0A0A"/><path d="M38.642 68.88 28.386 46.256l-13.467-.001c-3.155-.238-4.6-1.902-4.555-4.05.046-2.122 1.162-4.217 3.357-4.217h18.15c1.624.032 2.902 1.759 3.504 3.21l8.527 26.297" fill="#262626"/><path d="M9.446 38.014s-.598 3.753.35 5.84c1.183 2.604 5.62 2.4 5.62 2.4l-.25-8.266-5.72.026Z" fill="#262626"/><path d="m35.76 37.94-9.512-1.896a2.446 2.446 0 0 1-1.074-.506 2.319 2.319 0 0 1-.688-.94l-3.742-9.487a2.236 2.236 0 0 1 .056-1.771c.13-.278.315-.528.545-.736.23-.209.5-.372.796-.48a2.493 2.493 0 0 1 1.842.053c.288.125.548.303.764.525.217.221.386.482.498.766l3.273 8.298 8.22 1.639s-.812 4.568-.977 4.536Z" fill="#367CFF"/><path d="M24.758 27.52c-.11 1.242-.888 8.99-.994 10.519H9.452c-.082-1.38-.35-7.237-.661-9.934-.298-2.575-.406-4.044-.063-4.843.605-1.411 2.118-1.919 3.421-2.089a37.422 37.422 0 0 1 1.993-.178s.102 1.973 2.518 2.083c3.29.149 3.07-2.083 3.087-2.083.533 0 3.434.373 4.16.828 1.024.642 1.327 1.518 1.339 2.323.014.926-.363 1.966-.488 3.374Z" fill="#367CFF"/><path d="M24.196 33.85a.041.041 0 0 1-.031-.014.038.038 0 0 1-.01-.027l.371-4.295a.037.037 0 0 1 .015-.027.04.04 0 0 1 .03-.009c.01.001.02.006.027.014.007.008.01.018.01.028l-.372 4.295c0 .01-.005.019-.013.026a.042.042 0 0 1-.027.01Z" fill="#0C0C0C"/><path d="m31.013 36.428 3.14-9.288a.815.815 0 0 1 .307-.406.867.867 0 0 1 .496-.155H47.75c.134 0 .265.03.384.088a.835.835 0 0 1 .3.247.797.797 0 0 1 .12.73l-3.14 9.287a.815.815 0 0 1-.307.406.868.868 0 0 1-.497.156H31.816a.873.873 0 0 1-.384-.09.838.838 0 0 1-.3-.246.797.797 0 0 1-.12-.729Z" fill="#292A2E"/><path d="m31.013 36.428 3.14-9.288a.815.815 0 0 1 .307-.406.867.867 0 0 1 .496-.155H47.75c.134 0 .265.03.384.088a.835.835 0 0 1 .3.247.797.797 0 0 1 .12.73l-3.14 9.287a.815.815 0 0 1-.307.406.868.868 0 0 1-.497.156H31.816a.873.873 0 0 1-.384-.09.838.838 0 0 1-.3-.246.797.797 0 0 1-.12-.729Z" fill="#292A2E"/><path d="M33.574 36.74H25.01a.38.38 0 0 0-.387.371v.01a.38.38 0 0 0 .387.372h8.564a.38.38 0 0 0 .387-.372v-.01a.38.38 0 0 0-.387-.371Z" fill="#292A2E"/><path d="M33.574 36.74H25.01a.38.38 0 0 0-.387.371v.01a.38.38 0 0 0 .387.372h8.564a.38.38 0 0 0 .387-.372v-.01a.38.38 0 0 0-.387-.371Z" fill="#292A2E"/><path d="M39.783 33.78c.741 0 1.342-.578 1.342-1.291s-.6-1.291-1.342-1.291c-.74 0-1.342.578-1.342 1.29 0 .714.601 1.292 1.342 1.292Z" fill="#fff"/><path d="m30.297 34.252-2.138-.72.307-.02a.397.397 0 0 0 .257-.125.368.368 0 0 0 .1-.26.353.353 0 0 0-.133-.256.382.382 0 0 0-.285-.084l-3.782.386.098 1.17c.03.363.173.709.41.994.236.284.555.495.917.604l1.637.49a.4.4 0 0 0 .26-.005.383.383 0 0 0 .197-.162.351.351 0 0 0-.059-.427.03.03 0 0 0 .006-.045l.302.091c.094.03.197.026.287-.014.09-.04.162-.11.2-.199a.35.35 0 0 0 .002-.249.366.366 0 0 0-.165-.191.033.033 0 0 0 .01-.007l.123.037a.4.4 0 0 0 .26-.005.383.383 0 0 0 .198-.162.352.352 0 0 0 .033-.27.365.365 0 0 0-.17-.217V34.6l.89.3a.37.37 0 0 0 .273-.015c.085-.039.15-.11.182-.195a.33.33 0 0 0-.015-.262.352.352 0 0 0-.203-.175Z" fill="#E98862"/><path opacity=".2" d="M29.136 34.632c-.004 0-.008 0-.012-.002l-.861-.3a.035.035 0 0 1-.02-.018.033.033 0 0 1-.001-.026.035.035 0 0 1 .018-.02.037.037 0 0 1 .027 0l.861.3a.036.036 0 0 1 .019.015.033.033 0 0 1-.008.044.036.036 0 0 1-.023.008ZM28.7 35.234c-.004 0-.008 0-.011-.002l-.68-.231a.034.034 0 0 1-.023-.03c0-.005 0-.01.002-.014a.035.035 0 0 1 .018-.02.037.037 0 0 1 .028 0l.678.231a.035.035 0 0 1 .02.015.033.033 0 0 1 .003.023.034.034 0 0 1-.012.02.036.036 0 0 1-.023.008ZM28.061 35.846l-.012-.003-.318-.116a.036.036 0 0 1-.021-.018.033.033 0 0 1-.001-.027.036.036 0 0 1 .047-.02l.318.118a.035.035 0 0 1 .018.015.033.033 0 0 1-.008.043.037.037 0 0 1-.023.008Z" fill="#0A0A0A"/><path d="m26.297 32.482-8.967-.006-3.392-7.962-5.06 2.047 4.232 9.45.042.094c.207.459.556.846.999 1.108.443.262.96.387 1.479.358l10.803-.614-.136-4.475Z" fill="#367CFF"/><path d="M15.48 37.614a2.66 2.66 0 0 1-1.414-.408 2.517 2.517 0 0 1-.952-1.086l-.042-.094-3.606-8.052.075-.03 3.648 8.145c.205.451.548.831.984 1.09.436.257.943.38 1.454.352l10.764-.611-.134-4.399-8.954-.006-2.609-6.122.076-.03 2.587 6.074 8.98.006.137 4.55-.04.003-10.802.614c-.05.003-.101.004-.151.004Z" fill="#0C0C0C"/><path d="m69.37 38.244-.163.016 3.437 32.733.162-.016-3.437-32.733ZM5.508 38.244l-3.44 32.733.163.016L5.67 38.26l-.162-.016ZM19.716 38.244l-3.44 32.733.163.016 3.439-32.733-.162-.016ZM83.577 38.243l-.162.016 3.436 32.733.163-.015-3.437-32.734Z" fill="#494949"/><path d="M86.676 37.61H2.634a.656.656 0 0 0-.668.642c0 .355.299.643.668.643h84.042a.656.656 0 0 0 .668-.643c0-.355-.3-.643-.668-.643Z" fill="#292A2E"/><path opacity=".8" d="M86.676 37.61H2.634a.656.656 0 0 0-.668.642c0 .355.299.643.668.643h84.042a.656.656 0 0 0 .668-.643c0-.355-.3-.643-.668-.643Z" fill="#fff"/><path d="M86.676 38.973H2.634a.775.775 0 0 1-.535-.209.72.72 0 0 1-.222-.512.697.697 0 0 1 .222-.513.754.754 0 0 1 .535-.208h84.042a.764.764 0 0 1 .525.214.707.707 0 0 1 .217.507c0 .19-.078.372-.217.507a.764.764 0 0 1-.525.214ZM2.634 37.688a.606.606 0 0 0-.419.162.564.564 0 0 0-.174.402.546.546 0 0 0 .174.401.59.59 0 0 0 .42.163h84.041a.598.598 0 0 0 .41-.168.554.554 0 0 0 .17-.396.554.554 0 0 0-.17-.397.598.598 0 0 0-.41-.167H2.634Z" fill="#292A2E"/><path d="M86.676 37.61H17.385a.656.656 0 0 0-.668.642c0 .355.299.643.668.643h69.29a.656.656 0 0 0 .669-.643.656.656 0 0 0-.668-.643Z" fill="#fff"/><path d="M86.676 38.973H17.385a.765.765 0 0 1-.525-.214.707.707 0 0 1-.217-.507c0-.19.078-.372.217-.507a.764.764 0 0 1 .525-.214h69.291a.764.764 0 0 1 .525.214.707.707 0 0 1 .217.507c0 .19-.078.372-.217.507a.765.765 0 0 1-.525.214Zm-69.291-1.285a.598.598 0 0 0-.41.167.553.553 0 0 0-.17.397c0 .148.061.29.17.396a.598.598 0 0 0 .41.168h69.291a.598.598 0 0 0 .41-.168.553.553 0 0 0 .17-.396.553.553 0 0 0-.17-.397.598.598 0 0 0-.41-.167H17.385Z" fill="#292A2E"/></g><defs><clipPath id="clip0_33_52940"><path fill="#fff" d="M0 0h89v71H0z"/></clipPath></defs></svg>