<svg width="268" height="189" fill="none" xmlns="http://www.w3.org/2000/svg"><g clip-path="url('#clip0_2_39301')"><path d="M66.397 41.163c-.09 1.183 1.055 2.284 1.244 3.398.195 1.153-.505 2.618-.049 3.652.463 1.05 1.964 1.39 2.658 2.27.694.88.765 2.53 1.652 3.19.874.652 2.329.144 3.354.538.99.38 1.815 1.772 2.913 1.869 1.098.096 2.12-1.136 3.155-1.34 1.07-.21 2.43.544 3.391.052.974-.498 1.29-2.115 2.107-2.862.816-.748 2.349-.824 2.963-1.779.605-.942.133-2.508.499-3.612.352-1.068 1.645-1.955 1.735-3.138.09-1.183-1.055-2.284-1.243-3.398-.195-1.153.504-2.618.048-3.653-.463-1.049-1.964-1.39-2.658-2.269-.694-.88-.764-2.53-1.651-3.19-.875-.652-2.33-.145-3.355-.538-.99-.38-1.815-1.772-2.913-1.87-1.098-.096-2.12 1.137-3.155 1.34-1.07.21-2.43-.544-3.39-.052-.975.499-1.291 2.115-2.108 2.863-.817.747-2.349.823-2.962 1.778-.606.942-.134 2.509-.5 3.613-.352 1.067-1.645 1.955-1.735 3.138Z" fill="#0F1011"/><path d="M84.057 55.068s-2.315-1.32-1.804-8.106l-4.782-.95s.543 6.084-1.874 8.018l8.46 1.038Z" fill="#E98862"/><path opacity=".15" d="m76.574 52.757 3.97-3.276-3.12-.033a9.818 9.818 0 0 1-.85 3.309Z" fill="#000"/><path d="M84.962 44.328c-.329 2.059-1.37 4.01-3.056 4.676a11.33 11.33 0 0 1-5.792.849c-5.234-.457-4.21-13.275-1.727-15.767 2.483-2.492 9.776-.923 10.667 3.24.46 2.155.222 5.042-.092 7.002Z" fill="#E98862"/><path d="M77.474 42.749c.24 0 .434-.21.434-.467 0-.258-.194-.467-.434-.467s-.434.209-.434.467.195.467.434.467ZM74.053 42.45c.24 0 .434-.21.434-.467 0-.258-.194-.467-.434-.467s-.434.209-.434.467.195.467.434.467ZM73.3 40.989a.196.196 0 0 1-.144-.064.227.227 0 0 1-.06-.154c0-.059.02-.115.058-.156a.197.197 0 0 1 .144-.065l1.148-.017h.003a.198.198 0 0 1 .14.066c.037.04.058.095.058.152 0 .057-.02.112-.056.153a.198.198 0 0 1-.139.068l-1.148.017H73.3ZM78.409 41.435a.192.192 0 0 1-.048-.006l-1.132-.293a.197.197 0 0 1-.075-.034.213.213 0 0 1-.056-.063.23.23 0 0 1-.026-.169.228.228 0 0 1 .034-.079.21.21 0 0 1 .06-.058.194.194 0 0 1 .158-.023l1.132.292c.049.012.091.044.12.088a.233.233 0 0 1-.032.289.195.195 0 0 1-.135.056Z" fill="#0F1011"/><path d="M77.277 45.96s-1.601.183-2.724-.239c0 0 .01 1.136 1.277 1.246a1.26 1.26 0 0 0 1.447-1.008Z" fill="#fff"/><path d="M81.436 38.998a43.368 43.368 0 0 0 1.457 14.312s3.648-6.777 4.212-12.418c.53-5.29-3.091-8.408-5.535-8.995-9.293-2.228-9.961 5.082-9.961 5.082 1.692 3.792 10.833 3.775 10.833 3.775" fill="#0F1011"/><path d="M79.665 44.293c-.022.26.003.523.076.773s.19.482.347.683c.157.2.348.365.564.485a1.715 1.715 0 0 0 1.412.123c.232-.08.446-.21.63-.38.184-.171.335-.38.444-.614a2.1 2.1 0 0 0 .191-.75 2.09 2.09 0 0 0-.074-.772c-.072-.25-.19-.48-.347-.68-.157-.199-.35-.362-.567-.479a1.708 1.708 0 0 0-.695-.203c-1.31-.044-1.898.724-1.98 1.814Z" fill="#E98862"/><path opacity=".15" d="M75.551 44.874c.036 0 .07-.014.098-.04a.171.171 0 0 0 .029-.208.151.151 0 0 0-.083-.067l-.882-.29.616-1.48a.173.173 0 0 0-.027-.178.142.142 0 0 0-.213-.006.16.16 0 0 0-.033.052l-.686 1.646a.173.173 0 0 0 0 .133.16.16 0 0 0 .038.054.146.146 0 0 0 .055.033l1.044.344a.139.139 0 0 0 .044.007Z" fill="#000"/><path d="M268.001 187.733H0c2.936-8.065 8.36-14.907 16.004-16.937 11.184-2.966 23.018 5.188 34.177 2.122 6.339-1.74 11.33-6.811 16.574-11.022 19.786-15.887 46.897-20.582 70.309-12.173 12.238 4.393 23.389 12.076 35.924 15.341 16.211 4.225 33.163.721 49.833.144 16.236-.56 39.498 6.565 45.18 22.525Z" fill="#F3F5FD"/><path d="M231.592 127.565c-1.915 6.249-8.525 11.802-6.55 16.398.751 1.747 1.505 3.574 1.852 5.441.225 1.112.263 2.26.111 3.387-.712 4.867-4.941 8.099-8.873 10.616l-.733.471c-3.725 2.404-7.628 5.173-8.824 9.611-.665 2.465-.372 5.102-.647 7.651a16.812 16.812 0 0 1-2.163 6.594h-25.11c-2.229-2.646-2.044-7.094-.347-10.213 1.817-3.339 4.884-5.608 7.652-8.077 2.391-2.134 4.722-4.702 5.634-7.835.145-.496.253-1.004.321-1.518.221-1.695.101-10.356 2.83-15.686 4.22-8.232 11.063-6.204 13.155-10.849.802-1.779 1.493-23.64 14.825-19.602a9.66 9.66 0 0 1 3.572 1.927 10.52 10.52 0 0 1 2.576 3.289 11.436 11.436 0 0 1 .719 8.395Z" fill="#C1D8ED"/><path d="M255.977 161.747a5.935 5.935 0 0 1-1.226.702c-3.597 1.454-13.601 1.293-15.064 5.119-.689 1.798-.853 3.783-1.443 5.624-1.337 4.173-4.868 7.303-8.818 8.479-1.422.422-2.894.619-4.3 1.09-2.718.912-4.968 2.745-6.946 4.973h-32.429a14.617 14.617 0 0 1 1.538-6.637c1.023-2.037 2.508-3.763 4.315-5.018 3.606-2.449 8.161-2.907 11.701-5.466 2.334-1.689 4.013-4.128 5.344-6.826a51.993 51.993 0 0 0 2.242-5.444c.99-2.768 2.025-5.74 4.276-7.454a10.554 10.554 0 0 1 3.612-1.631c3.249-.915 5.748-.377 8.115.145 2.873.632 5.554 1.234 9.154-.825 6.386-3.655 15.722-21.881 25.052-4.564 3.741 6.946-1.421 15.064-5.123 17.733Z" fill="#8DDBE0"/><path d="M52.605 127.565c1.915 6.249 8.525 11.802 6.55 16.398-.751 1.747-1.506 3.574-1.852 5.441a10.2 10.2 0 0 0-.111 3.387c.712 4.867 4.94 8.099 8.872 10.616l.734.471c3.725 2.404 7.627 5.173 8.824 9.611.665 2.465.371 5.102.647 7.651.26 2.343 1 4.595 2.163 6.594h25.11c2.229-2.646 2.043-7.094.347-10.213-1.817-3.339-4.884-5.608-7.652-8.077-2.391-2.134-4.722-4.702-5.635-7.835a10.176 10.176 0 0 1-.32-1.518c-.221-1.695-.102-10.356-2.83-15.686-4.22-8.232-11.064-6.204-13.155-10.849-.802-1.779-1.494-23.64-14.825-19.602a9.664 9.664 0 0 0-3.572 1.927 10.529 10.529 0 0 0-2.576 3.289 11.293 11.293 0 0 0-1.162 4.118 11.457 11.457 0 0 0 .443 4.277Z" fill="#C1D8ED"/><path d="M28.218 161.747c.383.284.795.519 1.227.702 3.597 1.454 13.601 1.293 15.065 5.119.688 1.798.852 3.783 1.442 5.624 1.337 4.173 4.869 7.303 8.819 8.479 1.42.422 2.893.619 4.3 1.09 2.717.912 4.967 2.745 6.945 4.973h32.43a14.61 14.61 0 0 0-1.538-6.637c-1.023-2.037-2.508-3.763-4.316-5.018-3.605-2.449-8.16-2.907-11.7-5.466-2.334-1.689-4.013-4.128-5.344-6.826a51.859 51.859 0 0 1-2.242-5.444c-.99-2.768-2.025-5.74-4.276-7.454a10.56 10.56 0 0 0-3.612-1.631c-3.25-.915-5.748-.377-8.115.145-2.873.632-5.554 1.234-9.154-.825-6.386-3.655-15.722-21.881-25.052-4.564-3.741 6.946 1.42 15.064 5.121 17.733Z" fill="#8DDBE0"/><path d="M178.473 2.844H105.04c-5.624 0-10.182 4.91-10.182 10.966v161.38c0 6.056 4.558 10.966 10.182 10.966h73.433c5.624 0 10.182-4.91 10.182-10.966V13.81c0-6.057-4.558-10.966-10.182-10.966Z" fill="#fff"/><path d="M178.474 189H105.04c-3.399-.004-6.659-1.46-9.063-4.049-2.403-2.589-3.755-6.1-3.76-9.761V13.81c.005-3.661 1.357-7.171 3.76-9.76C98.382 1.46 101.642.004 105.04 0h73.434c3.4.004 6.659 1.46 9.062 4.05 2.404 2.589 3.756 6.099 3.76 9.76v161.38c-.004 3.661-1.356 7.172-3.76 9.761-2.404 2.589-5.663 4.045-9.062 4.049ZM105.04 5.687c-1.999.003-3.916.86-5.33 2.382-1.413 1.523-2.208 3.587-2.21 5.74v161.38c.002 2.153.797 4.218 2.21 5.74 1.414 1.523 3.331 2.379 5.33 2.382h73.434c1.999-.003 3.916-.859 5.33-2.382 1.413-1.522 2.209-3.587 2.211-5.74V13.81c-.002-2.153-.798-4.217-2.211-5.74-1.414-1.523-3.331-2.38-5.33-2.382H105.04Z" fill="#DEE8F5"/><path d="M125.678 2.844h32.158v6.72c0 .66-.121 1.314-.356 1.924a5.088 5.088 0 0 1-1.012 1.632 4.666 4.666 0 0 1-1.516 1.09 4.376 4.376 0 0 1-1.787.383h-22.817c-1.239 0-2.427-.53-3.302-1.473-.876-.943-1.368-2.223-1.368-3.557v-6.72Z" fill="#DEE8F5"/><path d="M177.693 156.923h-64.622l-7.25 6.555V113.51h71.872v43.413Z" fill="#C1D8ED"/><path d="m207.948 98.75-8.192-6.688H123.57v-54.09h84.378V98.75Z" fill="#DEE8F5"/><path d="M61.017 63.557s-3.125-3.032-3.3-4.057c-.174-1.026 2.255-2.858 2.255-2.858s-.622-.764-1.224-1.628c-.695-.996-1.364-2.125-1.02-2.362.331-.23 1.148.618 1.962 1.643 1.048 1.319 2.087 2.93 2.087 2.93s-.404-1.782.231-1.854c.262-.03.45.258.784 1.521.38 1.441 1.179 3.624 1.179 3.624l-2.954 3.04Z" fill="#E98862"/><path d="M67.272 80.362c-.65 0-1.284-.209-1.822-.6a3.474 3.474 0 0 1-1.2-1.592l-5.866-15.556 6.045-2.643 1.776 4.71 1.394-7.502 6.398 1.378L70.47 77.54a3.587 3.587 0 0 1-1.014 1.92 3.155 3.155 0 0 1-1.878.889c-.101.008-.204.013-.306.013Z" fill="#367CFF"/><path d="m56.684 67.75 3.627-.623a.984.984 0 0 0 .4-.166c.12-.086.223-.197.301-.328a1.186 1.186 0 0 0 .125-.892l-2.281-8.824a1.102 1.102 0 0 0-.435-.633.967.967 0 0 0-.715-.161l-3.628.624a.983.983 0 0 0-.4.166c-.12.085-.223.197-.3.327a1.188 1.188 0 0 0-.125.892l2.282 8.823c.067.261.221.487.433.634a.966.966 0 0 0 .716.161Z" fill="#C1D8ED"/><path d="M89.55 147.07c-5.439-1.479-5.974-1.7-6.15-1.772l2.246-6.321a.917.917 0 0 0-.069-.027c.443.157 3.206.931 5.512 1.558l-1.539 6.562Z" fill="#E98862"/><path d="M89.306 155.91a1.349 1.349 0 0 1-.255.466 1.237 1.237 0 0 1-.407.316 1.15 1.15 0 0 1-.982.01 1.248 1.248 0 0 1-.534-.469 1.395 1.395 0 0 1-.214-.705l.004-8.308c0-.161.033-.319.096-.465.063-.146.154-.275.268-.38a6.172 6.172 0 0 0 2.056-3.155 5.899 5.899 0 0 0-.074-3.026.534.534 0 0 1 .1-.523.454.454 0 0 1 .223-.138.429.429 0 0 1 .258.013l3.391 1.224c.1.036.192.093.272.168a.907.907 0 0 1 .232.928l-4.434 14.044Z" fill="#C1D8ED"/><path d="M74.661 184.919s-.02-7.009-.02-7.63h6.283c0 .619.021 7.606.021 7.606l-6.284.024Z" fill="#E98862"/><path d="M91.125 87.868c-4.032-4.343-22.766 1.514-22.766 1.514l-.016.126-.385-.232c-4.764 10.313-11.51 25.751-16.18 36.266a6.405 6.405 0 0 0-.347 4.744 6.095 6.095 0 0 0 1.151 2.09 5.578 5.578 0 0 0 1.83 1.422l20.393 9.773c-1.047 12.388-2.25 24.767-3.25 37.136l10.986 1.477c1.996-14.757 4.05-29.496 5.883-44.271l.3-.725-.198-.094c1.125-9.103 2.163-18.219 3.05-27.363.172-1.859.322-3.881.396-5.847 0 .001 1.322-13.68-.847-16.016ZM64.623 125.64c3.931-7.058 8.556-15.377 12.56-22.437-.204 9.271-.715 18.534-1.385 27.792l-11.175-5.355Z" fill="#262626"/><path d="m62.526 65.438-2.14 3.126s-5.75-1.241-6.29-6.012c-.061-.548-.007-2.07.624-1.865 1.646.53 3.694 3.25 5.13 3.613-.327-.633-.727-1.525-.47-1.688.678-.43 2.503 2.16 3.146 2.826Z" fill="#E98862"/><path d="M91.445 55.62c-1.367-1.473-3.728-2.424-6.607-2.427-.216 1.807-10.408 1.814-10.485.041-.39.007-.691.013-.88.023-6.918.322-6.898 6.326-6.217 12.963l-5.692-2.704-2.633 6.43 9.059 4.303c.006.193.01.387.012.58.117 10.462-2.507 12.434-1.214 15.631 1.253 3.104 25.89 4.394 26.22-1.066.209-3.475-2.634-6.508-2.634-13.279 0-6.77 5.785-15.42 1.072-20.495Z" fill="#367CFF"/><path d="M67.028 187.673a1.165 1.165 0 0 1-.49-.113 1.253 1.253 0 0 1-.409-.314 1.35 1.35 0 0 1-.257-.464 1.42 1.42 0 0 1 .18-1.23c.14-.201.332-.355.552-.444l7.314-2.638a.957.957 0 0 1 .44-.05c.148.018.291.07.42.153a5.437 5.437 0 0 0 3.431 1.096 4.875 4.875 0 0 0 2.64-1.039.442.442 0 0 1 .491-.065.48.48 0 0 1 .193.185c.047.08.072.172.072.267v3.853a.919.919 0 0 1-.236.612.816.816 0 0 1-.261.187.746.746 0 0 1-.308.064l-13.772-.06Z" fill="#C1D8ED"/><path d="M74.353 53.234c.077 1.773.972 4.38 3.734 4.577 3.681.261 6.535-2.81 6.751-4.618h-.009c-3.624 0-8.364.006-10.476.041Z" fill="#E98862"/><path d="M165.759 86.243c11.09 0 20.08-9.683 20.08-21.627 0-11.944-8.99-21.627-20.08-21.627-11.09 0-20.08 9.683-20.08 21.627 0 11.944 8.99 21.627 20.08 21.627Z" fill="#F3F5FD"/><path d="M173.531 60.785h-1.108v-2.663c-.011-1.896-.719-3.709-1.967-5.045-1.249-1.335-2.937-2.085-4.697-2.085-1.76 0-3.448.75-4.696 2.085-1.249 1.336-1.956 3.15-1.968 5.045v2.663h-1.107v4.108c.377 0 .746-.12 1.059-.346.314-.225.558-.546.703-.922.144-.375.182-.788.108-1.187a2.101 2.101 0 0 0-.522-1.052 1.865 1.865 0 0 0-.976-.562 1.78 1.78 0 0 0-1.102.117 1.94 1.94 0 0 0-.856.757c-.21.338-.322.735-.322 1.141v13.392c0 .545.201 1.067.559 1.453.358.385.843.601 1.349.601h15.543c.506 0 .991-.216 1.348-.602.358-.385.559-.907.559-1.452V62.84c0-.27-.049-.538-.145-.787a2.077 2.077 0 0 0-.413-.667 1.909 1.909 0 0 0-.619-.446 1.793 1.793 0 0 0-.73-.156Zm-12.269-2.663c.009-1.278.488-2.5 1.33-3.4.842-.9 1.981-1.405 3.167-1.405 1.187 0 2.326.505 3.168 1.405.842.9 1.321 2.122 1.33 3.4v2.663h-8.995v-2.663Z" fill="#0CBC8B"/><path d="M165.759 72.647c1.524 0 2.76-1.331 2.76-2.973s-1.236-2.973-2.76-2.973c-1.524 0-2.76 1.331-2.76 2.973s1.236 2.973 2.76 2.973Z" fill="#fff"/><path d="M141.181 151.281c8.229 0 14.9-7.185 14.9-16.047 0-8.863-6.671-16.047-14.9-16.047-8.228 0-14.899 7.184-14.899 16.047 0 8.862 6.671 16.047 14.899 16.047Z" fill="#DEE8F5"/><path d="M146.947 132.392h-.821v-1.976c0-1.413-.521-2.768-1.448-3.766-.927-.999-2.185-1.56-3.497-1.56-1.311 0-2.569.561-3.496 1.56-.928.998-1.449 2.353-1.449 3.766v1.976h-.821v3.048c.28 0 .554-.089.787-.256.232-.168.414-.406.521-.685.107-.278.135-.585.08-.88a1.558 1.558 0 0 0-.387-.781 1.389 1.389 0 0 0-.725-.417 1.314 1.314 0 0 0-.817.087 1.44 1.44 0 0 0-.636.561 1.613 1.613 0 0 0-.238.847v9.937a1.608 1.608 0 0 0 .414 1.078c.132.141.288.253.46.33.171.076.355.116.541.116h11.532c.376 0 .736-.161 1.001-.447a1.58 1.58 0 0 0 .415-1.077v-9.937c0-.302-.083-.596-.239-.847a1.433 1.433 0 0 0-.635-.561 1.317 1.317 0 0 0-.818-.087 1.393 1.393 0 0 0-.725.417 1.574 1.574 0 0 0-.387.781c-.055.295-.026.602.081.88.107.279.288.517.521.685.233.167.506.256.786.256v-3.048Zm-9.103-1.976c0-.954.351-1.868.977-2.542a3.222 3.222 0 0 1 2.36-1.053c.885 0 1.734.379 2.36 1.053.626.674.978 1.588.978 2.542v1.976h-6.675v-1.976Z" fill="#0CBC8B"/><path d="M141.181 141.192c1.131 0 2.048-.987 2.048-2.205 0-1.219-.917-2.206-2.048-2.206s-2.048.987-2.048 2.206c0 1.218.917 2.205 2.048 2.205Z" fill="#fff"/></g><defs><clipPath id="clip0_2_39301"><path fill="#fff" d="M0 0h268v189H0z"/></clipPath></defs></svg>