<svg width="188" height="169" fill="none" xmlns="http://www.w3.org/2000/svg"><g clip-path="url('#clip0_312_34322')"><path d="m136.258 117.766 10.568-22.615 16.089-6.9L188 98.84l-15.913 34.048-35.829-15.121Z" fill="#F4F4F4"/><path opacity=".05" d="m175.112 113.907-25.649-10.894a.506.506 0 0 0-.654.238h-.001a.462.462 0 0 0 .251.622l25.648 10.894a.507.507 0 0 0 .655-.238.462.462 0 0 0-.25-.622ZM172.956 118.796l-25.648-10.894a.507.507 0 0 0-.655.238.463.463 0 0 0 .25.622l25.649 10.894c.25.106.543 0 .655-.238a.463.463 0 0 0-.251-.622ZM160.057 119.208l-14.95-6.304a.517.517 0 0 0-.379-.01.47.47 0 0 0-.319.426.473.473 0 0 0 .136.337.488.488 0 0 0 .158.106l14.949 6.305c.12.051.256.055.379.01a.49.49 0 0 0 .276-.248.45.45 0 0 0 .01-.36.484.484 0 0 0-.26-.262Z" fill="#292A2E"/><path opacity=".4" d="m162.915 88.251-5.198 11.485-10.891-4.585 16.089-6.9Z" fill="#fff"/><path d="M8.424 62.286 2.559 38.178l8.489-14.707 26.742-5.875 8.83 36.297-38.196 8.393Z" fill="#F4F4F4"/><path opacity=".05" d="M37.026 37 9.64 42.951a.47.47 0 0 0-.372.565.497.497 0 0 0 .593.354l27.387-5.953a.471.471 0 0 0 .372-.564.497.497 0 0 0-.593-.355ZM38.398 42.138 11.012 48.09a.471.471 0 0 0-.372.564.497.497 0 0 0 .593.354l27.387-5.953a.47.47 0 0 0 .372-.564.497.497 0 0 0-.593-.354ZM28.351 49.839l-15.933 3.506a.496.496 0 0 0-.31.209.452.452 0 0 0 .016.523.486.486 0 0 0 .321.192c.064.01.13.008.193-.005l15.934-3.506a.495.495 0 0 0 .31-.21.452.452 0 0 0 .063-.355.473.473 0 0 0-.22-.294.518.518 0 0 0-.374-.06Z" fill="#292A2E"/><path opacity=".4" d="m11.048 23.47 3.114 12.147-11.603 2.56 8.489-14.706Z" fill="#fff"/><path d="M135.756 136.189H28.601a5.6 5.6 0 0 1-3.856-1.518 5.055 5.055 0 0 1-1.598-3.664l3.731-114.954h117.855l-3.524 114.954c0 .68-.141 1.354-.415 1.983a5.186 5.186 0 0 1-1.182 1.682 5.505 5.505 0 0 1-1.769 1.123 5.713 5.713 0 0 1-2.087.394Z" fill="#292A2E"/><path opacity=".9" d="M135.756 136.189H28.601a5.6 5.6 0 0 1-3.856-1.518 5.055 5.055 0 0 1-1.598-3.664l3.731-114.954h117.855l-3.524 114.954c0 .68-.141 1.354-.415 1.983a5.186 5.186 0 0 1-1.182 1.682 5.505 5.505 0 0 1-1.769 1.123 5.713 5.713 0 0 1-2.087.394Z" fill="#fff"/><path d="M135.756 136.386H28.601a5.825 5.825 0 0 1-4-1.577c-1.062-1.009-1.659-2.376-1.66-3.802l3.73-115.15H144.94l-3.523 115.15c-.002 1.426-.599 2.793-1.66 3.802a5.824 5.824 0 0 1-4.001 1.577ZM27.086 16.25l-3.731 114.757a4.868 4.868 0 0 0 1.538 3.523 5.391 5.391 0 0 0 3.708 1.462h107.155a5.392 5.392 0 0 0 3.708-1.462 4.871 4.871 0 0 0 1.538-3.523l3.523-114.757H27.085Z" fill="#292A2E"/><path d="M139.694 4.655H32.539a5.82 5.82 0 0 0-4.001 1.578c-1.061 1.008-1.658 2.376-1.66 3.802l-.207 6.215H144.94l.414-6.215c-.001-1.426-.598-2.794-1.659-3.802a5.824 5.824 0 0 0-4.001-1.578Z" fill="#0C0C0C"/><path d="M141.766 4.655H33.368a5.82 5.82 0 0 0-4.001 1.578c-1.061 1.008-1.658 2.376-1.66 3.802v6.215h119.72v-6.215c-.002-1.426-.599-2.794-1.66-3.802a5.82 5.82 0 0 0-4.001-1.578Z" fill="#292A2E"/><path d="M27.914 16.052H147.22v116.924a5.054 5.054 0 0 1-1.597 3.665 5.602 5.602 0 0 1-3.856 1.518H33.368a5.601 5.601 0 0 1-3.856-1.518 5.056 5.056 0 0 1-1.598-3.665V16.052Z" fill="#fff"/><path d="M141.766 138.356H33.368a5.821 5.821 0 0 1-4.001-1.578 5.253 5.253 0 0 1-1.66-3.802V15.856h119.72v117.12a5.255 5.255 0 0 1-1.66 3.802 5.82 5.82 0 0 1-4.001 1.578ZM28.121 16.25v116.726a4.87 4.87 0 0 0 1.539 3.524 5.396 5.396 0 0 0 3.708 1.462h108.398a5.4 5.4 0 0 0 3.708-1.462 4.87 4.87 0 0 0 1.538-3.524V16.25H28.122Z" fill="#292A2E"/><path d="M49.047 40.335H37.138c-.663-.001-1.3-.252-1.77-.698a2.324 2.324 0 0 1-.733-1.681V26.638c0-.63.265-1.235.734-1.681a2.575 2.575 0 0 1 1.77-.698h11.908c.664 0 1.3.252 1.77.698.469.446.733 1.05.734 1.681v11.317c-.001.631-.265 1.236-.734 1.682a2.574 2.574 0 0 1-1.77.698ZM37.138 24.653c-.553 0-1.084.21-1.476.582a1.939 1.939 0 0 0-.613 1.403v11.317c0 .527.221 1.032.613 1.404.392.372.923.581 1.476.582h11.91c.553 0 1.084-.21 1.476-.582.391-.373.611-.877.612-1.404V26.639c0-.526-.22-1.03-.612-1.403a2.148 2.148 0 0 0-1.477-.582H37.138ZM49.047 62.756H37.138c-.663 0-1.3-.251-1.77-.697a2.324 2.324 0 0 1-.733-1.682V49.06c0-.63.264-1.236.734-1.682a2.575 2.575 0 0 1 1.77-.698h11.908c.664 0 1.3.252 1.77.698.469.446.733 1.05.734 1.681v11.317c0 .631-.265 1.236-.734 1.682a2.574 2.574 0 0 1-1.77.698ZM37.138 47.074c-.553 0-1.084.21-1.476.582a1.94 1.94 0 0 0-.613 1.403v11.317c0 .527.221 1.031.613 1.404.392.372.923.581 1.476.582h11.91c.553-.001 1.084-.21 1.476-.583.391-.372.611-.876.612-1.403V49.06c0-.527-.22-1.031-.612-1.404a2.148 2.148 0 0 0-1.477-.582H37.138ZM49.047 85.178H37.138c-.663 0-1.3-.252-1.77-.698a2.324 2.324 0 0 1-.733-1.681V71.482c0-.631.265-1.236.734-1.682a2.575 2.575 0 0 1 1.77-.697h11.908c.664 0 1.3.251 1.77.697.469.446.733 1.05.734 1.682v11.317c-.001.63-.265 1.235-.734 1.681a2.574 2.574 0 0 1-1.77.698ZM37.138 69.497c-.553 0-1.084.21-1.476.582a1.939 1.939 0 0 0-.613 1.403v11.317c0 .526.221 1.03.613 1.403.392.372.923.581 1.476.582h11.91c.553 0 1.084-.21 1.476-.582.391-.372.611-.877.612-1.403V71.482c0-.527-.22-1.031-.612-1.403a2.148 2.148 0 0 0-1.477-.582H37.138ZM49.047 107.292H37.138a2.576 2.576 0 0 1-1.77-.698 2.324 2.324 0 0 1-.733-1.681V93.596c0-.63.265-1.236.734-1.681a2.574 2.574 0 0 1 1.77-.698h11.908c.664 0 1.3.251 1.77.698.469.445.733 1.05.734 1.681v11.317a2.323 2.323 0 0 1-.735 1.681 2.575 2.575 0 0 1-1.769.698ZM37.138 91.61c-.553 0-1.084.21-1.476.582a1.939 1.939 0 0 0-.613 1.403v11.318c0 .526.221 1.03.613 1.403a2.15 2.15 0 0 0 1.476.582h11.91a2.15 2.15 0 0 0 1.476-.582 1.94 1.94 0 0 0 .612-1.403V93.596c0-.526-.22-1.03-.612-1.403a2.148 2.148 0 0 0-1.477-.582l-11.909-.001ZM49.047 129.405H37.138a2.57 2.57 0 0 1-1.77-.697 2.324 2.324 0 0 1-.733-1.682v-11.317c0-.631.265-1.236.734-1.682a2.57 2.57 0 0 1 1.77-.697h11.908c.664 0 1.3.251 1.77.697.469.446.733 1.051.734 1.682v11.317c-.001.631-.265 1.236-.734 1.682a2.57 2.57 0 0 1-1.77.697Zm-11.909-15.681c-.553 0-1.084.21-1.476.582a1.939 1.939 0 0 0-.613 1.403v11.317c0 .526.221 1.031.613 1.403.392.372.923.582 1.476.582h11.91c.553 0 1.084-.21 1.476-.582.391-.372.611-.877.612-1.403v-11.317c0-.526-.22-1.031-.612-1.403a2.146 2.146 0 0 0-1.477-.582H37.138Z" fill="#292A2E"/><path d="M40.975 36.825a.849.849 0 0 1-.575-.22l-3.47-3.171a.756.756 0 0 1-.029-1.12.864.864 0 0 1 1.178-.017l2.882 2.633 7.226-6.927a.867.867 0 0 1 1.178-.01.754.754 0 0 1 0 1.12l-7.8 7.478a.832.832 0 0 1-.27.173.867.867 0 0 1-.32.06ZM40.974 59.246a.85.85 0 0 1-.574-.22l-3.472-3.171a.77.77 0 0 1-.254-.552.767.767 0 0 1 .231-.562.85.85 0 0 1 .581-.242.853.853 0 0 1 .591.22l2.883 2.633 7.226-6.928a.852.852 0 0 1 .584-.227c.218 0 .428.082.583.228a.769.769 0 0 1 .245.552.768.768 0 0 1-.234.556l-7.8 7.48a.865.865 0 0 1-.59.233ZM40.974 81.668a.85.85 0 0 1-.574-.22l-3.472-3.17a.77.77 0 0 1-.254-.553.767.767 0 0 1 .231-.562.85.85 0 0 1 .581-.242.853.853 0 0 1 .591.22l2.883 2.633 7.226-6.928a.852.852 0 0 1 .584-.228c.218 0 .428.083.583.229a.769.769 0 0 1 .245.552.768.768 0 0 1-.234.556l-7.8 7.48a.864.864 0 0 1-.59.233Z" fill="#367CFF"/><path opacity=".5" d="M138.266 28.793H58.06c-.32 0-.579.246-.579.55 0 .303.26.55.579.55h80.206a.565.565 0 0 0 .578-.55.565.565 0 0 0-.578-.55ZM105.105 34.702H58.06c-.32 0-.579.246-.579.55 0 .303.26.55.579.55h47.045a.565.565 0 0 0 .578-.55.565.565 0 0 0-.578-.55ZM138.266 51.214H58.06c-.32 0-.579.247-.579.55 0 .304.26.55.579.55h80.206a.565.565 0 0 0 .578-.55.565.565 0 0 0-.578-.55ZM105.105 57.123H58.06c-.32 0-.579.246-.579.55 0 .304.26.55.579.55h47.045a.565.565 0 0 0 .578-.55.565.565 0 0 0-.578-.55ZM138.266 73.636H58.06c-.32 0-.579.246-.579.55 0 .303.26.55.579.55h80.206a.565.565 0 0 0 .578-.55.565.565 0 0 0-.578-.55ZM105.105 79.545H58.06c-.32 0-.579.246-.579.55 0 .303.26.55.579.55h47.045a.565.565 0 0 0 .578-.55.565.565 0 0 0-.578-.55ZM138.266 95.75H58.06c-.32 0-.579.246-.579.55 0 .303.26.55.579.55h80.206a.565.565 0 0 0 .578-.55.565.565 0 0 0-.578-.55ZM105.105 101.658H58.06c-.32 0-.579.247-.579.55 0 .304.26.55.579.55h47.045a.565.565 0 0 0 .578-.55.565.565 0 0 0-.578-.55ZM138.266 117.863H58.06a.565.565 0 0 0-.579.55c0 .304.26.55.579.55h80.206a.565.565 0 0 0 .578-.55.565.565 0 0 0-.578-.55ZM105.105 123.772H58.06a.565.565 0 0 0-.579.55c0 .303.26.549.579.549h47.045c.319 0 .578-.246.578-.549a.565.565 0 0 0-.578-.55Z" fill="#262626"/><path d="M42.25 0a5.037 5.037 0 0 0-3.462 1.365 4.546 4.546 0 0 0-1.436 3.29h.414c0-.818.248-1.618.713-2.306A4.426 4.426 0 0 1 40.392.777a4.696 4.696 0 0 1 2.503-.34c.852.118 1.65.467 2.299 1.003a4.243 4.243 0 0 1 1.362 2.026c.24.785.237 1.62-.008 2.403a4.247 4.247 0 0 1-1.375 2.017 4.597 4.597 0 0 1-2.305.99.675.675 0 0 0-.345-.315.722.722 0 0 0-.477-.026.686.686 0 0 0-.38.277.628.628 0 0 0 .13.843.71.71 0 0 0 .448.16.71.71 0 0 0 .45-.154.647.647 0 0 0 .234-.396 4.965 4.965 0 0 0 3.128-1.679 4.502 4.502 0 0 0 1.082-3.254 4.566 4.566 0 0 0-1.546-3.081A5.04 5.04 0 0 0 42.25 0ZM137.782 4.655a4.543 4.543 0 0 0-1.434-3.292A5.033 5.033 0 0 0 132.884 0c-1.299 0-2.545.49-3.464 1.363a4.54 4.54 0 0 0-1.435 3.292h.415c0-.818.247-1.618.713-2.306a4.422 4.422 0 0 1 1.912-1.572 4.698 4.698 0 0 1 2.504-.34c.852.118 1.65.467 2.299 1.003a4.243 4.243 0 0 1 1.362 2.026c.24.785.237 1.62-.008 2.403a4.25 4.25 0 0 1-1.375 2.017 4.6 4.6 0 0 1-2.305.99.675.675 0 0 0-.345-.315.724.724 0 0 0-.478-.026.685.685 0 0 0-.379.277.627.627 0 0 0-.099.444.646.646 0 0 0 .229.399.71.71 0 0 0 .448.16.71.71 0 0 0 .449-.154.645.645 0 0 0 .235-.396 4.982 4.982 0 0 0 3.016-1.556 4.527 4.527 0 0 0 1.204-3.054ZM124.834 4.655a4.54 4.54 0 0 0-1.446-3.272A5.03 5.03 0 0 0 119.936.03a5.033 5.033 0 0 0-3.453 1.353 4.545 4.545 0 0 0-1.446 3.272h.415a4.106 4.106 0 0 1 .712-2.306 4.43 4.43 0 0 1 1.913-1.573 4.697 4.697 0 0 1 2.504-.339c.852.118 1.65.466 2.299 1.003a4.243 4.243 0 0 1 1.362 2.025c.24.786.237 1.62-.008 2.404a4.25 4.25 0 0 1-1.375 2.017 4.599 4.599 0 0 1-2.305.99.679.679 0 0 0-.345-.315.724.724 0 0 0-.478-.026.682.682 0 0 0-.379.277.627.627 0 0 0-.099.444.646.646 0 0 0 .229.399.712.712 0 0 0 .897.006.65.65 0 0 0 .235-.396 4.984 4.984 0 0 0 3.016-1.556 4.527 4.527 0 0 0 1.204-3.054ZM111.887 4.655a4.54 4.54 0 0 0-1.446-3.272A5.033 5.033 0 0 0 106.988.03a5.033 5.033 0 0 0-3.452 1.353 4.54 4.54 0 0 0-1.446 3.272h.414c0-.818.248-1.618.713-2.306A4.43 4.43 0 0 1 105.13.776a4.696 4.696 0 0 1 2.504-.339 4.593 4.593 0 0 1 2.298 1.003 4.243 4.243 0 0 1 1.362 2.025c.241.785.238 1.62-.007 2.403a4.243 4.243 0 0 1-1.375 2.018 4.593 4.593 0 0 1-2.305.99.671.671 0 0 0-.345-.315.72.72 0 0 0-.477-.026.688.688 0 0 0-.38.277.632.632 0 0 0 .131.843.712.712 0 0 0 .897.006.65.65 0 0 0 .235-.396 4.983 4.983 0 0 0 3.015-1.557 4.527 4.527 0 0 0 1.204-3.053ZM98.94 4.655a4.541 4.541 0 0 0-1.435-3.292A5.032 5.032 0 0 0 94.04 0c-1.3 0-2.545.49-3.464 1.363a4.541 4.541 0 0 0-1.434 3.292h.414c0-.818.248-1.618.713-2.306A4.426 4.426 0 0 1 92.183.777a4.696 4.696 0 0 1 2.503-.34c.852.118 1.65.467 2.299 1.003a4.244 4.244 0 0 1 1.362 2.026c.24.785.237 1.62-.008 2.403a4.247 4.247 0 0 1-1.375 2.017 4.596 4.596 0 0 1-2.305.99.675.675 0 0 0-.345-.316.723.723 0 0 0-.477-.025.686.686 0 0 0-.38.276.628.628 0 0 0 .13.844.71.71 0 0 0 .897.006.647.647 0 0 0 .235-.396 4.983 4.983 0 0 0 3.016-1.556 4.529 4.529 0 0 0 1.205-3.054ZM85.992 4.655a4.544 4.544 0 0 0-1.446-3.272A5.033 5.033 0 0 0 81.093.03a5.033 5.033 0 0 0-3.453 1.353 4.544 4.544 0 0 0-1.446 3.272h.415c0-.818.247-1.618.713-2.306A4.427 4.427 0 0 1 79.234.776a4.696 4.696 0 0 1 2.504-.339c.852.118 1.65.466 2.3 1.003a4.243 4.243 0 0 1 1.361 2.025c.24.786.238 1.62-.008 2.404a4.247 4.247 0 0 1-1.375 2.017 4.597 4.597 0 0 1-2.305.99.675.675 0 0 0-.345-.315.722.722 0 0 0-.478-.026.686.686 0 0 0-.38.277.628.628 0 0 0 .131.843.71.71 0 0 0 .897.006.647.647 0 0 0 .235-.396 4.983 4.983 0 0 0 3.016-1.556 4.53 4.53 0 0 0 1.205-3.054ZM73.044 4.655a4.541 4.541 0 0 0-1.435-3.292A5.032 5.032 0 0 0 68.146 0c-1.3 0-2.546.49-3.464 1.363a4.541 4.541 0 0 0-1.435 3.292h.415c0-.818.247-1.618.712-2.306A4.426 4.426 0 0 1 66.287.777a4.696 4.696 0 0 1 2.504-.34c.852.118 1.65.467 2.298 1.003a4.244 4.244 0 0 1 1.362 2.026c.24.785.238 1.62-.007 2.403a4.247 4.247 0 0 1-1.375 2.017 4.596 4.596 0 0 1-2.305.99.675.675 0 0 0-.345-.316.723.723 0 0 0-.478-.025.686.686 0 0 0-.38.276.628.628 0 0 0 .13.844.71.71 0 0 0 .897.006.647.647 0 0 0 .236-.396 4.983 4.983 0 0 0 3.015-1.556 4.529 4.529 0 0 0 1.205-3.054ZM60.096 4.655a4.544 4.544 0 0 0-1.446-3.272A5.033 5.033 0 0 0 55.197.03a5.033 5.033 0 0 0-3.452 1.353 4.544 4.544 0 0 0-1.446 3.272h.414c0-.818.248-1.618.713-2.306A4.427 4.427 0 0 1 53.34.776a4.696 4.696 0 0 1 2.504-.339c.851.118 1.65.466 2.299 1.003a4.243 4.243 0 0 1 1.362 2.025c.24.786.237 1.62-.008 2.404a4.247 4.247 0 0 1-1.375 2.017 4.597 4.597 0 0 1-2.306.99.675.675 0 0 0-.345-.315.722.722 0 0 0-.477-.026.685.685 0 0 0-.38.277.628.628 0 0 0 .13.843.71.71 0 0 0 .897.006.647.647 0 0 0 .236-.396 4.983 4.983 0 0 0 3.015-1.556 4.53 4.53 0 0 0 1.205-3.054Z" fill="#F4F4F4"/><g opacity=".6" fill="#292A2E"><path opacity=".6" d="M42.25 0a5.037 5.037 0 0 0-3.462 1.365 4.546 4.546 0 0 0-1.436 3.29h.414c0-.818.248-1.618.713-2.306A4.426 4.426 0 0 1 40.392.777a4.696 4.696 0 0 1 2.503-.34c.852.118 1.65.467 2.299 1.003a4.243 4.243 0 0 1 1.362 2.026c.24.785.237 1.62-.008 2.403a4.247 4.247 0 0 1-1.375 2.017 4.597 4.597 0 0 1-2.305.99.675.675 0 0 0-.345-.315.722.722 0 0 0-.477-.026.686.686 0 0 0-.38.277.628.628 0 0 0 .13.843.71.71 0 0 0 .448.16.71.71 0 0 0 .45-.154.647.647 0 0 0 .234-.396 4.965 4.965 0 0 0 3.128-1.679 4.502 4.502 0 0 0 1.082-3.254 4.566 4.566 0 0 0-1.546-3.081A5.04 5.04 0 0 0 42.25 0ZM137.782 4.655a4.543 4.543 0 0 0-1.434-3.292A5.033 5.033 0 0 0 132.884 0c-1.299 0-2.545.49-3.464 1.363a4.54 4.54 0 0 0-1.435 3.292h.415c0-.818.247-1.618.713-2.306a4.422 4.422 0 0 1 1.912-1.572 4.698 4.698 0 0 1 2.504-.34c.852.118 1.65.467 2.299 1.003a4.243 4.243 0 0 1 1.362 2.026c.24.785.237 1.62-.008 2.403a4.25 4.25 0 0 1-1.375 2.017 4.6 4.6 0 0 1-2.305.99.675.675 0 0 0-.345-.315.724.724 0 0 0-.478-.026.685.685 0 0 0-.379.277.627.627 0 0 0-.099.444.646.646 0 0 0 .229.399.71.71 0 0 0 .448.16.71.71 0 0 0 .449-.154.645.645 0 0 0 .235-.396 4.982 4.982 0 0 0 3.016-1.556 4.527 4.527 0 0 0 1.204-3.054ZM124.834 4.655a4.54 4.54 0 0 0-1.446-3.272A5.03 5.03 0 0 0 119.936.03a5.033 5.033 0 0 0-3.453 1.353 4.545 4.545 0 0 0-1.446 3.272h.415a4.106 4.106 0 0 1 .712-2.306 4.43 4.43 0 0 1 1.913-1.573 4.697 4.697 0 0 1 2.504-.339c.852.118 1.65.466 2.299 1.003a4.243 4.243 0 0 1 1.362 2.025c.24.786.237 1.62-.008 2.404a4.25 4.25 0 0 1-1.375 2.017 4.599 4.599 0 0 1-2.305.99.679.679 0 0 0-.345-.315.724.724 0 0 0-.478-.026.682.682 0 0 0-.379.277.627.627 0 0 0-.099.444.646.646 0 0 0 .229.399.712.712 0 0 0 .897.006.65.65 0 0 0 .235-.396 4.984 4.984 0 0 0 3.016-1.556 4.527 4.527 0 0 0 1.204-3.054ZM111.887 4.655a4.54 4.54 0 0 0-1.446-3.272A5.033 5.033 0 0 0 106.988.03a5.033 5.033 0 0 0-3.452 1.353 4.54 4.54 0 0 0-1.446 3.272h.414c0-.818.248-1.618.713-2.306A4.43 4.43 0 0 1 105.13.776a4.696 4.696 0 0 1 2.504-.339 4.593 4.593 0 0 1 2.298 1.003 4.243 4.243 0 0 1 1.362 2.025c.241.785.238 1.62-.007 2.403a4.243 4.243 0 0 1-1.375 2.018 4.593 4.593 0 0 1-2.305.99.671.671 0 0 0-.345-.315.72.72 0 0 0-.477-.026.688.688 0 0 0-.38.277.632.632 0 0 0 .131.843.712.712 0 0 0 .897.006.65.65 0 0 0 .235-.396 4.983 4.983 0 0 0 3.015-1.557 4.527 4.527 0 0 0 1.204-3.053ZM98.94 4.655a4.541 4.541 0 0 0-1.435-3.292A5.032 5.032 0 0 0 94.04 0c-1.3 0-2.545.49-3.464 1.363a4.541 4.541 0 0 0-1.434 3.292h.414c0-.818.248-1.618.713-2.306A4.426 4.426 0 0 1 92.183.777a4.696 4.696 0 0 1 2.503-.34c.852.118 1.65.467 2.299 1.003a4.244 4.244 0 0 1 1.362 2.026c.24.785.237 1.62-.008 2.403a4.247 4.247 0 0 1-1.375 2.017 4.596 4.596 0 0 1-2.305.99.675.675 0 0 0-.345-.316.723.723 0 0 0-.477-.025.686.686 0 0 0-.38.276.628.628 0 0 0 .13.844.71.71 0 0 0 .897.006.647.647 0 0 0 .235-.396 4.983 4.983 0 0 0 3.016-1.556 4.529 4.529 0 0 0 1.205-3.054ZM85.992 4.655a4.544 4.544 0 0 0-1.446-3.272A5.033 5.033 0 0 0 81.093.03a5.033 5.033 0 0 0-3.453 1.353 4.544 4.544 0 0 0-1.446 3.272h.415c0-.818.247-1.618.713-2.306A4.427 4.427 0 0 1 79.234.776a4.696 4.696 0 0 1 2.504-.339c.852.118 1.65.466 2.3 1.003a4.243 4.243 0 0 1 1.361 2.025c.24.786.238 1.62-.008 2.404a4.247 4.247 0 0 1-1.375 2.017 4.597 4.597 0 0 1-2.305.99.675.675 0 0 0-.345-.315.722.722 0 0 0-.478-.026.686.686 0 0 0-.38.277.628.628 0 0 0 .131.843.71.71 0 0 0 .897.006.647.647 0 0 0 .235-.396 4.983 4.983 0 0 0 3.016-1.556 4.53 4.53 0 0 0 1.205-3.054ZM73.044 4.655a4.541 4.541 0 0 0-1.435-3.292A5.032 5.032 0 0 0 68.146 0c-1.3 0-2.546.49-3.464 1.363a4.541 4.541 0 0 0-1.435 3.292h.415c0-.818.247-1.618.712-2.306A4.426 4.426 0 0 1 66.287.777a4.696 4.696 0 0 1 2.504-.34c.852.118 1.65.467 2.298 1.003a4.244 4.244 0 0 1 1.362 2.026c.24.785.238 1.62-.007 2.403a4.247 4.247 0 0 1-1.375 2.017 4.596 4.596 0 0 1-2.305.99.675.675 0 0 0-.345-.316.723.723 0 0 0-.478-.025.686.686 0 0 0-.38.276.628.628 0 0 0 .13.844.71.71 0 0 0 .897.006.647.647 0 0 0 .236-.396 4.983 4.983 0 0 0 3.015-1.556 4.529 4.529 0 0 0 1.205-3.054ZM60.096 4.655a4.544 4.544 0 0 0-1.446-3.272A5.033 5.033 0 0 0 55.197.03a5.033 5.033 0 0 0-3.452 1.353 4.544 4.544 0 0 0-1.446 3.272h.414c0-.818.248-1.618.713-2.306A4.427 4.427 0 0 1 53.34.776a4.696 4.696 0 0 1 2.504-.339c.851.118 1.65.466 2.299 1.003a4.243 4.243 0 0 1 1.362 2.025c.24.786.237 1.62-.008 2.404a4.247 4.247 0 0 1-1.375 2.017 4.597 4.597 0 0 1-2.306.99.675.675 0 0 0-.345-.315.722.722 0 0 0-.477-.026.685.685 0 0 0-.38.277.628.628 0 0 0 .13.843.71.71 0 0 0 .897.006.647.647 0 0 0 .236-.396 4.983 4.983 0 0 0 3.015-1.556 4.53 4.53 0 0 0 1.205-3.054Z"/></g><path d="M15.71 142.758a.215.215 0 0 1-.146-.058c-.292-.277-.768-5.369-2.05-20.528-.525-6.203-1.02-12.061-1.382-15.622-.026-.254-.13-.284-.164-.293-.495-.142-2 .986-2.84 1.974a.217.217 0 0 1-.14.072.243.243 0 0 1-.08-.007.23.23 0 0 1-.072-.036.193.193 0 0 1-.069-.209.19.19 0 0 1 .038-.068c.556-.653 2.367-2.365 3.282-2.104.185.053.414.206.456.633.362 3.564.858 9.424 1.383 15.629.779 9.211 1.661 19.648 1.951 20.305a.19.19 0 0 1-.06.282.224.224 0 0 1-.107.03Z" fill="#494949"/><path d="M11.6 113.083c3.439-2.62 4.578-6.698 2.545-9.108-2.033-2.41-6.469-2.24-9.908.38-3.44 2.619-4.58 6.697-2.546 9.107 2.033 2.411 6.47 2.241 9.908-.379Z" fill="#0CBC8B"/><path opacity=".2" d="M11.6 113.083c3.439-2.62 4.578-6.698 2.545-9.108-2.033-2.41-6.469-2.24-9.908.38-3.44 2.619-4.58 6.697-2.546 9.107 2.033 2.411 6.47 2.241 9.908-.379Z" fill="#fff"/><path d="M2.655 114.075a.105.105 0 0 1-.066-.023.095.095 0 0 1-.014-.137l9.802-11.233a.104.104 0 0 1 .07-.035.11.11 0 0 1 .076.022c.01.008.019.019.025.03a.094.094 0 0 1-.012.109l-9.8 11.232a.104.104 0 0 1-.036.026.113.113 0 0 1-.045.009Z" fill="#fff"/><path d="M17.848 140.349a.207.207 0 0 1-.169-.083.192.192 0 0 1-.027-.179l3.682-10.062c.108-.296.293-.561.537-.771a2.051 2.051 0 0 1 2.681.033l1.947 1.767a.19.19 0 0 1 .007.278.214.214 0 0 1-.293.007l-1.947-1.767a1.572 1.572 0 0 0-.67-.358 1.635 1.635 0 0 0-.768-.01 1.583 1.583 0 0 0-.679.342 1.475 1.475 0 0 0-.424.608l-3.681 10.063a.199.199 0 0 1-.076.096.22.22 0 0 1-.12.036Z" fill="#494949"/><path d="M31.936 136.624c2.55-1.917 2.398-6.134-.338-9.418-2.735-3.284-7.02-4.393-9.568-2.476-2.549 1.918-2.397 6.134.338 9.419 2.736 3.284 7.02 4.392 9.568 2.475Z" fill="#0CBC8B"/><path d="M14.037 142.115a.217.217 0 0 1-.128-.042.199.199 0 0 1-.073-.109l-6.179-24.55a.917.917 0 0 0-.26-.442 1.024 1.024 0 0 0-1.442.048l-1.904 2.091a.212.212 0 0 1-.223.06.208.208 0 0 1-.12-.099.195.195 0 0 1-.011-.152.193.193 0 0 1 .04-.066l1.905-2.092c.168-.185.387-.322.632-.397.246-.074.508-.083.758-.025s.478.181.66.354c.181.174.309.391.369.629l6.178 24.549a.188.188 0 0 1-.026.149.205.205 0 0 1-.175.094Z" fill="#494949"/><path d="M11.758 124.565c.751-4.127-1.237-7.9-4.44-8.426-3.203-.527-6.408 2.393-7.16 6.52-.75 4.128 1.237 7.9 4.44 8.427 3.203.526 6.409-2.393 7.16-6.521Z" fill="#0CBC8B"/><path d="m15.71 142.758-.025-.002a.207.207 0 0 1-.175-.143.184.184 0 0 1-.005-.076l3.945-30.443c.043-.332.186-.644.411-.901.226-.256.525-.445.86-.544a1.918 1.918 0 0 1 1.034-.013c.338.09.642.271.875.522l4.51 4.854a.193.193 0 0 1 .05.142.197.197 0 0 1-.139.174.218.218 0 0 1-.08.011.233.233 0 0 1-.078-.02.194.194 0 0 1-.065-.047l-4.51-4.853a1.422 1.422 0 0 0-.676-.404 1.483 1.483 0 0 0-.798.01c-.26.077-.49.223-.665.421-.174.198-.284.44-.318.696l-3.945 30.442a.193.193 0 0 1-.068.124.214.214 0 0 1-.138.05Z" fill="#494949"/><path d="M31.764 118.709c1.574-2.703-.277-6.538-4.134-8.566-3.857-2.027-8.26-1.48-9.833 1.224-1.573 2.703.278 6.538 4.135 8.565 3.857 2.028 8.259 1.48 9.832-1.223Z" fill="#0CBC8B"/><path opacity=".2" d="M31.936 136.624c2.55-1.917 2.398-6.134-.338-9.418-2.735-3.284-7.02-4.393-9.568-2.476-2.549 1.918-2.397 6.134.338 9.419 2.736 3.284 7.02 4.392 9.568 2.475Z" fill="#fff"/><path opacity=".5" d="M11.758 124.565c.751-4.127-1.237-7.9-4.44-8.426-3.203-.527-6.408 2.393-7.16 6.52-.75 4.128 1.237 7.9 4.44 8.427 3.203.526 6.409-2.393 7.16-6.521ZM31.764 118.709c1.574-2.703-.277-6.538-4.134-8.566-3.857-2.027-8.26-1.48-9.833 1.224-1.573 2.703.278 6.538 4.135 8.565 3.857 2.028 8.259 1.48 9.832-1.223Z" fill="#fff"/><path d="M20.756 168.587H10.664L8.99 137.899H22.43l-1.673 30.688Z" fill="#292A2E"/><path opacity=".3" d="M20.756 168.587H10.664L8.99 137.899H22.43l-1.673 30.688Z" fill="#fff"/><path d="M31.937 136.722a.1.1 0 0 1-.045-.01.104.104 0 0 1-.036-.027l-9.907-11.894a.098.098 0 0 1-.022-.073.095.095 0 0 1 .039-.065.117.117 0 0 1 .036-.018.136.136 0 0 1 .04-.003.104.104 0 0 1 .07.037l9.907 11.893c.012.015.02.032.021.051a.097.097 0 0 1-.01.054.105.105 0 0 1-.093.055ZM31.105 119.662a.106.106 0 0 1-.062-.02l-12.676-8.796a.093.093 0 0 1-.028-.028.093.093 0 0 1 .005-.109.086.086 0 0 1 .03-.026.105.105 0 0 1 .115.004l12.677 8.797a.096.096 0 0 1 0 .158.107.107 0 0 1-.061.019v.001ZM4.083 130.957a.103.103 0 0 1-.09-.049.094.094 0 0 1-.01-.075l4.035-14.368a.097.097 0 0 1 .05-.058.105.105 0 0 1 .14.035.094.094 0 0 1 .01.073l-4.034 14.369a.098.098 0 0 1-.037.053.098.098 0 0 1-.064.02Z" fill="#fff"/><path d="m174.58 58.46.582-.456a.873.873 0 0 0 .144-1.229.91.91 0 0 0-.285-.224.953.953 0 0 0-1.043.12l-6.916 5.834 1.911 2.154a4.656 4.656 0 0 0 2.271 1.393c.885.24 1.826.221 2.701-.05l3.962-1.24a.937.937 0 0 0 .506-.36.856.856 0 0 0 .154-.582c-.055-.404-3.987-5.36-3.987-5.36Z" fill="#E98862"/><path d="m170.446 58.506-19.079 5.618-11.634-18.73-9.94 5.523 14.667 22.526.093.113a5.92 5.92 0 0 0 2.996 1.877c1.18.314 2.433.27 3.586-.124l22.742-7.828-3.431-8.975Z" fill="#367CFF"/><path d="m182.089 157.069-15.907.71-6.135-99.251 15.907-.71 6.135 99.251Z" fill="#367CFF"/><path opacity=".5" d="m182.089 157.069-15.907.71-6.135-99.251 15.907-.71 6.135 99.251Z" fill="#fff"/><path d="m175.414 46.881-15.907.71.541 10.936 15.907-.71-.541-10.936Z" fill="#262626"/><path d="M182.09 157.068s-2.183 3.602-4.15 6.823c-1.56 2.554-2.985 4.868-3.076 4.955-.095.089-1.873-2.157-3.795-4.648-2.337-3.028-4.887-6.419-4.887-6.419l15.908-.711Z" fill="#367CFF"/><path opacity=".9" d="M182.09 157.068s-2.183 3.602-4.15 6.823c-1.56 2.554-2.985 4.868-3.076 4.955-.095.089-1.873-2.157-3.795-4.648-2.337-3.028-4.887-6.419-4.887-6.419l15.908-.711Z" fill="#fff"/><path d="M177.941 163.892c-1.561 2.554-2.985 4.868-3.077 4.955-.094.09-1.872-2.157-3.795-4.648l6.872-.307Z" fill="#262626"/><path d="m177.135 157.261-6.415-99.19.726-.035 6.415 99.19-.726.035ZM170.912 157.541l-6.416-99.19.726-.034 6.415 99.189-.725.035Z" fill="#fff"/><path d="M173.562 63.088c0-.19.065-.376.186-.528a.922.922 0 0 1 .483-.314c-.006-.014-.033-.043-.007-.053l-.756-.127a.953.953 0 0 1-.573-.306.87.87 0 0 1-.22-.588.838.838 0 0 1 .263-.563.92.92 0 0 1 .591-.251c-.005-.007-.003-.017-.006-.025l-.311-.052a.942.942 0 0 1-.545-.283.858.858 0 0 1-.233-.547.814.814 0 0 1 .078-.369.853.853 0 0 1 .237-.301.912.912 0 0 1 .349-.177.951.951 0 0 1 .396-.017l.717.12c0-.004-.003-.006-.003-.01.001-.004.006-.008.008-.012a.887.887 0 0 1-.443-.38.816.816 0 0 1-.096-.559c.058-.5.679-.685 1.142-.607l1.439.354c.222.055.427.161.595.309.169.148.297.333.372.538.651 1.783 2.236 6.477.757 6.228l-3.64-.613a.988.988 0 0 1-.546-.306.899.899 0 0 1-.234-.56Z" fill="#E98862"/><path d="M113.066 27.002s-2.145-1.764-2.442-5.53c-.229-2.915 2.442-.867 2.442-.867s-.144-2.101 1.438-1.792c1.581.309 2.321 2.553 2.321 2.553M122.74 19.582s7.866 1.312 4.282 11.331h-2.133" fill="#0C0C0C"/><path d="M128.356 156.65s2.517 4.04-.702 7.095c-3.22 3.055-.083 5.007-.083 5.007l12.989-10.939-5.752-6.167-6.452 5.004Z" fill="#367CFF"/><path d="M106.257 77.02s-1.463 40.076-1.277 42.032c.704 7.399 23.615 40.924 23.615 40.924l8.531-6.923-10.894-20.971-6.888-14.614s1.186-12.569 4.382-24.24a86.288 86.288 0 0 0 2.936-18.306l-20.405 2.099Z" fill="#262626"/><path d="M127.937 160.199s-.936 4.609-5.477 4.867c-4.542.258-3.556 3.695-3.556 3.695h17.355v-8.24l-8.322-.322Z" fill="#367CFF"/><path d="M137.435 76.11s-.055-1.385-.043 1.758c.043 11.725-.368 85.273-.368 85.273l-11.405-.091-6.908-87.417 18.724.477Z" fill="#262626"/><path d="m121.053 105.432-.935-13.592s-.961 5.651-.961 10.521c0 2.381.516 11.807.516 11.807l1.38-8.736ZM122.574 124.322l2.372 30.214-2.22-3.395-2.27-31.313 2.118 4.494Z" fill="#0A0A0A"/><path d="M113.882 41.33c.035-.005.422 6.104 7.889 5.571 5.17-.368 7.013-5.58 7.131-5.58-.557-.112-1.246-.283-1.52-.342a3.055 3.055 0 0 1-1.549-.863 2.81 2.81 0 0 1-.758-1.547c-.151-.867.106-5.296.027-6.172l-7.935 1.683c.11 1.85.886 6.14-1.833 6.899-.453.126-.94.24-1.452.35Z" fill="#E98862"/><path opacity=".52" d="M117.056 39.226c.124-.38.204-.773.238-1.17.088-.907.07-1.82-.052-2.723a8.93 8.93 0 0 0 4.386-1.826c.148.518.958 2.778.733 3.269-.424.929-2.417 2.45-5.305 2.45Z" fill="#0C0C0C"/><path d="M118.464 37.75c3.142-.067 7.013-1.705 7.351-5.73l.305-3.633c.338-4.026-1.613-7.458-5.602-7.76-3.989-.303-7.244 2.735-7.582 6.76l-.135 1.609c-.036.553-.033 1.107.01 1.66.104 1.46.265 3.683 1.195 5.238.876 1.467 2.45 1.9 4.458 1.856Z" fill="#E98862"/><path opacity=".52" d="M117.274 33.976a4.298 4.298 0 0 1-1.851-.46.104.104 0 0 1-.032-.023.098.098 0 0 1-.026-.07.095.095 0 0 1 .036-.067.1.1 0 0 1 .035-.018c.013-.004.027-.005.04-.004a.097.097 0 0 1 .038.011c1.232.594 2.388.593 3.345-.005a.59.59 0 0 1 .06-.036.105.105 0 0 1 .077-.004.102.102 0 0 1 .058.049c.012.022.013.049.005.073a.1.1 0 0 1-.052.055 3.144 3.144 0 0 1-1.733.499ZM117.241 34.885c-.117-.001-.233-.011-.348-.03a.101.101 0 0 1-.065-.04.092.092 0 0 1-.017-.072.1.1 0 0 1 .041-.062.106.106 0 0 1 .076-.016c.692.115 1.047-.167 1.062-.18a.103.103 0 0 1 .073-.023.1.1 0 0 1 .069.032c.018.02.027.045.025.07a.095.095 0 0 1-.034.066c-.254.18-.566.27-.882.255Z" fill="#0C0C0C"/><path d="M114.119 29.266c.272 0 .493-.21.493-.469a.481.481 0 0 0-.493-.468.481.481 0 0 0-.493.468c0 .259.221.469.493.469ZM118.687 29.295c.272 0 .493-.21.493-.468a.481.481 0 0 0-.493-.469.481.481 0 0 0-.493.469c0 .258.221.468.493.468Z" fill="#0C0C0C"/><path d="M125.464 33.227c1.212.092 2.298-1.066 2.395-2.218.097-1.152-.833-1.861-2.045-1.953l-.689.724-.703 3.368 1.042.08Z" fill="#E98862"/><path d="M104.604 54.778c.235 2.625 1.38 19.008 1.606 22.243h31.166c.175-2.917.966-15.674 1.634-21.378.637-5.444 1.887-8.366.971-9.976-1.498-2.63-5.59-3.953-8.381-4.312-1.704-.219-4.267-.376-4.267-.376s-.216 4.172-5.391 4.404c-7.044.315-6.573-4.404-6.608-4.404-2.557 0-7.397.581-9.255 1.782-4.176 2.699-1.974 6.452-1.475 12.017Z" fill="#367CFF"/><path d="M124.387 31.297s-.007-5.727-1.803-6.195c-1.195-.312-4.248 1.134-6.935.468-1.175-.292-2.325-.084-2.478.443-.06.209-.587-2.88 1.44-5.069 1.614-1.742 6.508-1.952 8.676-1.209 6.002 2.058 2.759 9.587 2.759 9.587l-.412 1.948-1.247.027Z" fill="#0C0C0C"/><path opacity=".52" d="M116.635 32.583h-.007c-.391-.029-1.043-.118-1.021-.396.019-.23.884-2.666.982-2.943a.088.088 0 0 1 .02-.032.098.098 0 0 1 .068-.032.103.103 0 0 1 .096.052.09.09 0 0 1 .005.073c-.384 1.079-.959 2.74-.972 2.896.033.069.432.163.837.193a.102.102 0 0 1 .066.031.09.09 0 0 1 .024.067.09.09 0 0 1-.029.064.104.104 0 0 1-.069.027Z" fill="#0C0C0C"/><path d="M115.503 27.36a1.92 1.92 0 0 0-.48-.124 1.98 1.98 0 0 0-1.466.396l-.011.008a.182.182 0 0 1-.125.03.174.174 0 0 1-.112-.059.157.157 0 0 1-.038-.116.163.163 0 0 1 .057-.11 2.48 2.48 0 0 1 .508-.346c.186-.097.387-.167.595-.207a2.525 2.525 0 0 1 1.278.076.261.261 0 0 1 .148.126.235.235 0 0 1-.041.271.259.259 0 0 1-.179.082.27.27 0 0 1-.118-.021l-.016-.006ZM118.397 26.947c.207-.07.423-.11.642-.12.213-.014.427.002.636.044.208.04.409.11.595.207.184.095.355.212.508.347a.161.161 0 0 1 .059.11.16.16 0 0 1-.038.117.18.18 0 0 1-.238.028l-.012-.009a2.114 2.114 0 0 0-.451-.261 1.98 1.98 0 0 0-1.013-.134c-.166.02-.328.061-.481.122l-.015.007a.272.272 0 0 1-.284-.047.244.244 0 0 1-.08-.173.237.237 0 0 1 .071-.176.267.267 0 0 1 .083-.056l.018-.006ZM118.819 21.24c.364-1.24-.058-2.434-.943-2.67-.885-.235-1.899.578-2.263 1.817-.365 1.238.057 2.433.942 2.668.886.236 1.899-.577 2.264-1.816Z" fill="#0C0C0C"/><path d="M103.39 81.3a.92.92 0 0 0 .343-.2.858.858 0 0 0 .274-.7.84.84 0 0 0-.121-.365l.601.977c.117.2.31.35.54.421a1 1 0 0 0 .698-.043.905.905 0 0 0 .462-.531.833.833 0 0 0-.089-.684l.272.442c.106.18.274.319.476.394a.986.986 0 0 0 .631.02.929.929 0 0 0 .343-.201.87.87 0 0 0 .22-.32.834.834 0 0 0-.067-.745l-.477-.775c.123.2.324.345.559.404a.96.96 0 0 0 .696-.09c.482-.229.45-.858.209-1.25l-.896-1.586.592.445a.989.989 0 0 0 1.294-.125.852.852 0 0 0 .199-.663.837.837 0 0 0-.121-.333.89.89 0 0 0-.249-.26l-5.385-3.228-3.886.26a4.267 4.267 0 0 0-.955 2.403c-.06.873.156 1.743.62 2.499l2.11 3.42c.106.18.274.32.476.395a.986.986 0 0 0 .631.02Z" fill="#E98862"/><path d="M106.889 78.02a.083.083 0 0 1 .061-.087.089.089 0 0 1 .058.003.08.08 0 0 1 .043.038l.594 1.074a.083.083 0 0 1 .006.062.098.098 0 0 1-.016.028.09.09 0 0 1-.092.026.09.09 0 0 1-.03-.015.075.075 0 0 1-.021-.025l-.593-1.074a.1.1 0 0 1-.01-.03ZM105.291 78.82a.08.08 0 0 1 .014-.053.09.09 0 0 1 .105-.03c.018.006.034.02.043.036l.826 1.468c.006.01.009.02.01.03.001.01 0 .022-.003.032a.084.084 0 0 1-.042.049.089.089 0 0 1-.095-.01.091.091 0 0 1-.022-.024l-.826-1.468a.104.104 0 0 1-.01-.03ZM103.555 79.677a.08.08 0 0 1 .014-.054.086.086 0 0 1 .047-.033.09.09 0 0 1 .059.003.083.083 0 0 1 .043.038l.373.702a.08.08 0 0 1 .005.063.084.084 0 0 1-.043.047.09.09 0 0 1-.066.005.083.083 0 0 1-.05-.04l-.373-.703a.071.071 0 0 1-.009-.028Z" fill="#E98862"/><path opacity=".2" d="M106.889 78.02a.083.083 0 0 1 .061-.087.089.089 0 0 1 .058.003.08.08 0 0 1 .043.038l.594 1.074a.083.083 0 0 1 .006.062.098.098 0 0 1-.016.028.09.09 0 0 1-.092.026.09.09 0 0 1-.03-.015.075.075 0 0 1-.021-.025l-.593-1.074a.1.1 0 0 1-.01-.03ZM105.291 78.82a.08.08 0 0 1 .014-.053.09.09 0 0 1 .105-.03c.018.006.034.02.043.036l.826 1.468c.006.01.009.02.01.03.001.01 0 .022-.003.032a.084.084 0 0 1-.042.049.089.089 0 0 1-.095-.01.091.091 0 0 1-.022-.024l-.826-1.468a.104.104 0 0 1-.01-.03ZM103.555 79.677a.08.08 0 0 1 .014-.054.086.086 0 0 1 .047-.033.09.09 0 0 1 .059.003.083.083 0 0 1 .043.038l.373.702a.08.08 0 0 1 .005.063.084.084 0 0 1-.043.047.09.09 0 0 1-.066.005.083.083 0 0 1-.05-.04l-.373-.703a.071.071 0 0 1-.009-.028Z" fill="#0C0C0C"/><path d="M111.594 52.873s-2.501-11.144-5.339-10.216c-2.252.736-19.168 13.984-19.682 14.464-1.13 1.058-1.773 2.5-1.786 4.007-.012 1.508.606 2.96 1.719 4.034l13.167 14.317 7.599-6.77-9.992-10.26 14.314-9.576Z" fill="#367CFF"/><path d="M104.777 57.7a.086.086 0 0 1-.055-.02.08.08 0 0 1-.025-.05l-.334-4.407c-.001-.01 0-.02.003-.029a.086.086 0 0 1 .04-.044.09.09 0 0 1 .062-.005.077.077 0 0 1 .046.038.074.074 0 0 1 .009.029l.334 4.406a.074.074 0 0 1-.019.056.076.076 0 0 1-.025.018.077.077 0 0 1-.03.008h-.006ZM138.304 64.419h-.006a.081.081 0 0 1-.055-.025.07.07 0 0 1-.021-.054l.553-10.553a.076.076 0 0 1 .027-.052.086.086 0 0 1 .057-.02c.011 0 .021.003.03.007.01.005.018.01.025.018a.071.071 0 0 1 .017.026c.003.009.005.019.004.029l-.553 10.552a.076.076 0 0 1-.024.05.084.084 0 0 1-.054.022Z" fill="#0C0C0C"/><path d="M183.058 169H4.513" fill="#3F3F3F"/></g><defs><clipPath id="clip0_312_34322"><path fill="#fff" d="M0 0h188v169H0z"/></clipPath></defs></svg>