<svg width="184" height="137" fill="none" xmlns="http://www.w3.org/2000/svg"><path d="M184 137H0c2.016-6.172 5.74-11.406 10.988-12.959 7.678-2.269 15.803 3.969 23.464 1.624 4.353-1.331 7.78-5.212 11.38-8.432 13.584-12.156 32.198-15.749 48.272-9.315 8.402 3.362 16.058 9.24 24.665 11.74 11.13 3.233 22.768.552 34.213.11C164.129 119.337 180.1 124.789 184 137Z" fill="#F3F5FD"/><path d="M109.409 100.969H86.147v31.605h23.262v-31.605Z" fill="#DEE8F5"/><path d="M154.395 0H41.162c-2.48 0-4.49 2.413-4.49 5.389v105.65c0 2.976 2.01 5.389 4.49 5.389h113.233c2.479 0 4.49-2.413 4.49-5.389V5.389c0-2.976-2.011-5.389-4.49-5.389Z" fill="#DEE8F5"/><path d="M154.116 3.675H41.44c-1.096 0-1.985 1.067-1.985 2.383V98.48c0 1.316.889 2.382 1.985 2.382h112.676c1.096 0 1.984-1.066 1.984-2.382V6.058c0-1.316-.888-2.383-1.984-2.383Z" fill="#fff"/><path d="M116.754 129.741H78.802c-1.67 0-3.024 1.625-3.024 3.63 0 2.004 1.354 3.629 3.024 3.629h37.952c1.67 0 3.024-1.625 3.024-3.629 0-2.005-1.354-3.63-3.024-3.63ZM121.961 22.779H73.595v43.744h48.366V22.779ZM108.206 75.735H87.351v6.318h20.855v-6.318Z" fill="#DEE8F5"/><path d="M98.453 34.762h-1.35V54.54h1.35V34.762Z" fill="#fff"/><path d="M106.017 43.84H89.539v1.62h16.478v-1.62Z" fill="#fff"/><path d="M17.95 55.933s1.313-.677 1.313-4.816l2.64-.323s-.545 3.658.69 4.957l-4.642.182Z" fill="#E98862"/><path d="M17.897 49.377c.095 1.265.582 2.502 1.471 2.996a5.708 5.708 0 0 0 3.114.82c2.865 0 2.833-7.82 1.585-9.463-1.248-1.642-5.278-1.076-5.933 1.4-.338 1.28-.327 3.043-.237 4.247Z" fill="#E98862"/><path d="M23.786 46.334c-1.12 6.03-2.151 7.642-4.748 6.435-.596-.277-2.023-1.975-2.165-5.588-.059-1.206.253-2.397.875-3.347.622-.95 1.513-1.593 2.504-1.81 5.143-.858 5.324 4.716 5.324 4.716-2.582.531-6.098-.346-6.098-.346" fill="#0F1011"/><path d="M23.907 49.739c-.003.316-.11.619-.298.841a.925.925 0 0 1-.704.347.925.925 0 0 1-.705-.347 1.332 1.332 0 0 1-.298-.841 1.393 1.393 0 0 1 .072-.464c.05-.147.123-.28.217-.393a.993.993 0 0 1 .327-.26.842.842 0 0 1 .387-.087c.714.042 1.002.54 1.002 1.204ZM29.106 134.88l-3.404-.486c.153-1.546.326-3.404.338-3.708v.048h3.428c-.001.123-.001.498-.362 4.146ZM15.446 135.372l-3.428-.013.011-4.624h3.428l-.01 4.637Z" fill="#E98862"/><path d="M30.37 133.458c-.284-8.623-.301-17.679-.39-26.324-1.179-9.325-1.799-19.552-3.254-28.81l-.044.015-.127-1.044-12.418-.92s-.324 7.303-.437 9.737c-.606 13.047-1.834 34.016-2.565 47.235l6.018.611c1.075-13.002 2.501-33.714 3.473-46.528 1.065 6.53 2.397 13.882 3.343 20.489.208 8.44.38 17.235.362 25.662l6.039-.123Z" fill="#262626"/><path d="M19.613 136.963a.579.579 0 0 0 .268-.068.698.698 0 0 0 .222-.191.861.861 0 0 0 .14-.282.957.957 0 0 0 .035-.326.908.908 0 0 0-.133-.422.703.703 0 0 0-.3-.27l-3.99-1.604a.482.482 0 0 0-.47.063c-.548.457-1.204.69-1.871.666a2.512 2.512 0 0 1-1.44-.631.22.22 0 0 0-.268-.04.276.276 0 0 0-.106.113.344.344 0 0 0-.039.162v2.342c0 .069.011.137.034.201a.529.529 0 0 0 .095.17c.04.049.089.088.142.114.053.026.11.04.168.039l7.513-.036ZM33.281 136.963a.578.578 0 0 0 .268-.068.697.697 0 0 0 .223-.191.863.863 0 0 0 .14-.282.957.957 0 0 0 .035-.326.908.908 0 0 0-.133-.422.694.694 0 0 0-.301-.269l-3.99-1.604a.482.482 0 0 0-.469.062c-.548.457-1.205.69-1.872.666a2.511 2.511 0 0 1-1.44-.631.238.238 0 0 0-.13-.067.214.214 0 0 0-.138.028.268.268 0 0 0-.105.112.348.348 0 0 0-.04.162v2.342c0 .069.012.137.034.201a.545.545 0 0 0 .095.171c.041.048.09.087.143.113.053.026.11.04.168.039l7.512-.036Z" fill="#C1D8ED"/><path d="m32.641 62.61.076.038-.95.184.933 2.136s3.456.97 5.073-1.213a.435.435 0 0 0 .044-.414.347.347 0 0 0-.127-.156.265.265 0 0 0-.178-.043c-.932.113-2.594.248-3.343-.106.33-.194.766-.491.698-.669-.181-.466-1.746.149-2.226.242Z" fill="#E98862"/><path d="m29.472 63.804.307.23h-.307v-.23Z" fill="#FD5D76"/><path d="M71.246 26.25v37.783H31.15l-1.678-2.611V26.25h41.774Z" fill="#0CBC8B"/><path d="m34.536 52.646 7.366-7.693 8.347 7.693H34.536Z" fill="#fff"/><path d="M43.21 52.646 56.314 41.35l9.868 11.296H43.209ZM47.48 41.546c.899 0 1.628-.875 1.628-1.955s-.73-1.955-1.629-1.955c-.9 0-1.628.875-1.628 1.955s.729 1.955 1.628 1.955Z" fill="#fff"/><path d="m42.885 62.61.076.038-.95.184.932 2.136s3.457.97 5.074-1.213a.435.435 0 0 0 .044-.414.347.347 0 0 0-.127-.156.265.265 0 0 0-.178-.043c-.932.113-2.594.248-3.343-.106.33-.194.766-.491.697-.669-.18-.466-1.745.149-2.225.242Z" fill="#E98862"/><path d="m42.39 62.123-8.644 3.36-.606-1.45h-1.99l-4.325-6.73c-.49-1.142-1.416-1.883-3.059-1.967-.655-.034-3.853-.04-6.195-.04-1.573 0-2.864.58-3.61 1.475-2.57 3.086.585 8.344.585 12.46 0 4.117-1.55 5.96-1.436 8.073.179 3.32 13.618 2.535 14.303.65.63-1.737-.443-2.88-.636-7.63l2.825-1.704.76 1.18c.224.349.533.606.883.736s.726.127 1.075-.008l11.167-4.34-1.096-4.065Zm-15.452 3.32.083-.84.366.57-.449.27Z" fill="#367CFF"/><path d="M19.01 46.939s-.205-2.383-1.95-2.383c-2.072 0-.657 6.833.25 11.012.096.446.113.913.05 1.368-.064.455-.207.89-.42 1.274s-.491.71-.816.957a2.47 2.47 0 0 1-1.07.474c-.368.065-.742.038-1.1-.076a2.592 2.592 0 0 1-.985-.591 3.209 3.209 0 0 1-.71-1.01 3.777 3.777 0 0 1-.323-1.263c-.42-5.358-.322-15.244 4.375-15.054 3.051.124 3.051 3.775 3.051 3.775l-.352 1.517Z" fill="#0F1011"/><path d="M18.292 45.896a.37.37 0 0 1-.263-.115.518.518 0 0 1-.14-.29.575.575 0 0 1 .049-.33.437.437 0 0 1 .213-.215.99.99 0 0 0 .366-.225c.109-.103.199-.231.265-.377.083-.253.088-.532.014-.788a.58.58 0 0 1 .007-.372.453.453 0 0 1 .223-.259.346.346 0 0 1 .31.004.46.46 0 0 1 .219.265 2.49 2.49 0 0 1-.024 1.54c-.108.269-.262.508-.45.703-.19.195-.41.34-.648.428a.347.347 0 0 1-.141.03Z" fill="#262626"/><path d="M163.784 136.299c3.307-.866 6.544-2.11 9.705-6.199.649-.838 1.281-1.932 1.037-3.039-.183-.834-.843-1.424-1.542-1.629a2.866 2.866 0 0 0-.795-.109h-.003a5.661 5.661 0 0 0-1.226.16l-.115.027a17.854 17.854 0 0 0-5.519 2.332.676.676 0 0 1-.512.092.773.773 0 0 1-.448-.311 1.052 1.052 0 0 1-.19-.578 1.077 1.077 0 0 1 .151-.594c.191-.311.408-.598.648-.857a7.81 7.81 0 0 1 1.138-.993c.539-.392 1.107-.731 1.665-1.082a43.511 43.511 0 0 0 5.931-4.477c1.338-1.201 2.658-2.55 3.382-4.357.333-.831.527-1.808.263-2.674-.436-1.422-1.922-1.961-3.179-1.804-2.204.274-4.072 2.003-5.744 3.746-1.388 1.449-2.938 3.051-4.776 2.959a1.42 1.42 0 0 1-.886-.31c-.495-.433-.566-1.327-.331-2.005.236-.679.707-1.193 1.161-1.685 2.637-2.861 5.246-5.852 7.087-9.501 1.841-3.65 2.857-8.077 2.057-12.235-.235-1.215-.633-2.416-1.321-3.353-.687-.936-1.699-1.583-2.739-1.525-1.417.077-2.573 1.388-3.388 2.78-2.799 4.775-3.09 10.95-4.189 16.638-.308 1.592-.706 3.217-1.6 4.462a.954.954 0 0 1-.303.285c-.691.39-1.216-.594-1.407-1.402-.755-3.199-.745-6.766-2.309-9.51-.597-1.045-1.482-1.958-2.534-2.058-1.285-.121-2.476 1.053-2.957 2.489-.48 1.436-.37 3.06-.073 4.565.551 2.791 1.712 5.367 3.132 7.673.75 1.217 1.606 2.457 1.749 3.959a3.526 3.526 0 0 1-.2 1.492 2.982 2.982 0 0 1-.779 1.187 1.374 1.374 0 0 1-.53.292 1.224 1.224 0 0 1-.583.021c-.418-.09-.781-.387-1.13-.676l-.442-.365-1.752-1.449c-1.483-1.23-3.29-2.516-4.981-1.764-.864.385-1.473 1.254-1.804 2.289a6.41 6.41 0 0 0-.211 2.947c.341 2.053 2.994 7.943 4.15 9.51 1.347 1.831 5.927 9.6 17.242 6.636Z" fill="#8DDBE0"/></svg>