<svg width="153" height="163" fill="none" xmlns="http://www.w3.org/2000/svg"><path d="M60.77 149.247s-3.201 4.188.29 7.672c3.49 3.483-.272 5.389-.272 5.389L46.6 149.745l7.09-6.277 7.08 5.779Z" fill="#367CFF"/><path d="M61.523 63.09s.062-1.494.048 1.893c-.022 5.623.582 20.482.158 39.634-.339 15.309-12.376 41.579-12.376 41.579l10.856 6.899s16.329-23.451 18.92-46.666c1.326-11.884 4.04-43.853 4.04-43.853l-21.646.513Z" fill="#262626"/><path d="M95.02 153.672s1.081 4.965 6.332 5.242c5.251.277 4.112 3.981 4.112 3.981H85.398v-8.877l9.621-.346Z" fill="#367CFF"/><path d="M97.57 64.07s1.647 43.168 1.475 45.278l-1.548 47.166-12.967.212-2.091-49.084s-1.37-13.54-5.066-26.113a87.151 87.151 0 0 1-3.395-19.718l23.592 2.26Z" fill="#262626"/><path d="m80.463 94.676 1.081-14.642s1.11 6.087 1.11 11.334c0 2.564-.596 12.718-.596 12.718l-1.595-9.41Z" fill="#0A0A0A"/><path d="m61.382 63.088-.044.003s.03-.737.044-.003ZM61.434 63.088l-.043.003s.03-.737.043-.003Z" fill="#333"/><path d="M69.925 8.556s-1.044 4.93-2.55 6.599c-4.336 4.805-6.177 10.531-2.95 13.967 3.229 3.436 26.439 5.935 29.145-.894 2.278-5.75-.814-6.721-.93-11.676-.051-2.242-.39-6.966-.39-6.966" fill="#0A0A0A"/><path d="M88.755 25.623c-.04-.005-.489 6.575-9.122 6.002-5.976-.396-8.107-6.011-8.244-6.011.644-.122 1.73-.298 2.015-.433.942-.448 2.106-.914 2.41-2.532.174-.933-.122-5.704-.031-6.648l9.174 1.813c-.128 1.993-1.025 6.613 2.12 7.432.523.135 1.086.259 1.678.377Z" fill="#E98862"/><path opacity=".52" d="M85.084 23.357a5.285 5.285 0 0 1-.276-1.26c-.1-.977-.08-1.96.06-2.933-1.864-.223-3.62-.905-5.07-1.967-.169.557-1.107 2.991-.846 3.52.489 1.001 2.794 2.64 6.132 2.64Z" fill="#0C0C0C"/><path d="M83.457 21.767c-3.632-.072-8.108-1.836-8.498-6.173l-.353-3.913c-.391-4.337 1.865-8.034 6.476-8.36 4.612-.326 8.376 2.946 8.766 7.283l.156 1.732c.15 1.664-.065 9.56-6.547 9.43Z" fill="#E98862"/><path d="M87.359 12.625c.315 0 .57-.226.57-.505 0-.278-.255-.504-.57-.504-.315 0-.57.226-.57.504 0 .279.255.505.57.505ZM82.171 12.625c.315 0 .57-.226.57-.505 0-.278-.255-.504-.57-.504-.314 0-.57.226-.57.504 0 .279.256.505.57.505Z" fill="#0C0C0C"/><path opacity=".52" d="M85.604 16.01h.009a5.76 5.76 0 0 0 .556-.07c.275-.05.638-.142.619-.359-.022-.247-1.027-2.86-1.141-3.156a.11.11 0 0 0-.06-.058.13.13 0 0 0-.088-.005.114.114 0 0 0-.067.052.093.093 0 0 0-.007.078c.43 1.112 1.115 2.94 1.13 3.105-.039.073-.498.174-.961.207a.123.123 0 0 0-.078.035.097.097 0 0 0-.028.072.099.099 0 0 0 .035.07c.022.019.05.03.08.03ZM84.85 17.043a5.267 5.267 0 0 0-2.142.49.118.118 0 0 0-.038.024.102.102 0 0 0-.025.035.092.092 0 0 0 .006.081.106.106 0 0 0 .03.033.13.13 0 0 0 .132.011c1.427-.636 2.763-.63 3.866.017a.768.768 0 0 0 .07.037c.027.011.058.012.086.003a.113.113 0 0 0 .065-.052.093.093 0 0 0 .007-.077.108.108 0 0 0-.056-.06 3.832 3.832 0 0 0-2.001-.543Z" fill="#0C0C0C"/><path d="m70.827 12.672 4.131-.27c3.203-.807 4.703-5.42 4.703-5.42s3.335 3.571 12.59 2.604c0 0-.453-11.325-14.19-9.356-4.43.635-7.986 4.179-8.226 9.346-.168 3.62.992 3.096.992 3.096Z" fill="#0A0A0A"/><path d="M75.363 16.895c-1.401.1-2.657-1.148-2.769-2.389-.112-1.24.963-2.005 2.364-2.105l.798.781.813 3.628-1.206.085Z" fill="#E98862"/><path d="M86.723 10.472c.429-.19.907-.276 1.386-.247.236.014.468.058.689.132.218.072.425.168.617.287a.11.11 0 0 1 .054.067.097.097 0 0 1-.015.081.123.123 0 0 1-.076.048.136.136 0 0 1-.092-.013l-.008-.005c-.178-.1-.37-.18-.57-.237a2.321 2.321 0 0 0-.614-.092 2.594 2.594 0 0 0-1.185.258l-.012.006a.204.204 0 0 1-.139.015.181.181 0 0 1-.11-.076.146.146 0 0 1-.019-.123.167.167 0 0 1 .086-.098l.008-.003ZM83.017 10.88a2.634 2.634 0 0 0-1.215-.092c-.206.032-.405.09-.59.175-.189.084-.364.189-.523.312l-.007.005a.129.129 0 0 1-.088.026.133.133 0 0 1-.084-.037.105.105 0 0 1-.023-.037.095.095 0 0 1 .006-.082.109.109 0 0 1 .03-.033c.168-.144.357-.268.56-.37.205-.103.427-.178.657-.223a3.006 3.006 0 0 1 1.413.054.178.178 0 0 1 .102.082c.02.038.024.081.01.121a.17.17 0 0 1-.09.093.205.205 0 0 1-.137.012l-.008-.002-.013-.005ZM74.973 12.357l-.028-.103c5.332-1.142 4.62-5.722 4.612-5.768l.119-.016c.007.047.737 4.722-4.703 5.887Z" fill="#0C0C0C"/><path opacity=".1" d="M81.923 15.976c.6 0 1.086-.316 1.086-.705 0-.39-.486-.705-1.086-.705-.6 0-1.085.316-1.085.705 0 .39.486.705 1.085.705ZM88.375 15.102c0 .39.487.705 1.087.706.103 0 .206-.01.308-.029.089-.454.15-.894.19-1.302a1.52 1.52 0 0 0-.499-.08c-.6 0-1.085.315-1.086.705Z" fill="#0C0C0C"/><path d="M99.48 40.11c-.271 2.828-1.594 20.476-1.855 23.96H61.593c-.204-3.142-1.118-16.883-1.89-23.028-.737-5.865-2.182-8.8-1.123-10.534 1.732-2.833 6.463-4.47 9.69-4.857 1.97-.236 4.934-.406 4.934-.406s.25 4.494 6.233 4.744c8.143.34 7.6-4.744 7.64-4.744 1.32 0 8.856.74 10.7 1.707 5.023 2.635 2.281 7.164 1.704 13.157Z" fill="#367CFF"/><path d="M126.868 45.282a.78.78 0 0 1 .189-.273.904.904 0 0 1 .295-.184.997.997 0 0 1 .708-.003.876.876 0 0 1 .469.439c.088.193.09.409.005.604l-.411 1.006 2.59-2.339c.322-.3.934-.484 1.289-.142.308.26 1.019.34 1.135.826.004.002-.003 4.454-.302 4.733-1.267 1.178-4.329 1.406-6.038.808l-2.69-.943 2.761-4.532Z" fill="#E98862"/><path opacity=".1" d="M126.868 45.282a.78.78 0 0 1 .189-.273.904.904 0 0 1 .295-.184.997.997 0 0 1 .708-.003.876.876 0 0 1 .469.439c.088.193.09.409.005.604l-.411 1.006 2.59-2.339c.322-.3.934-.484 1.289-.142.308.26 1.019.34 1.135.826.004.002-.003 4.454-.302 4.733-1.267 1.178-4.329 1.406-6.038.808l-2.69-.943 2.761-4.532Z" fill="#0C0C0C"/><path d="m138.028 63.426-46.215 6.117a5.562 5.562 0 0 1-2.601-.275 4.945 4.945 0 0 1-2.082-1.408 4.134 4.134 0 0 1-.983-2.15 3.946 3.946 0 0 1 .39-2.295l17.659-35.344a4.525 4.525 0 0 1 1.53-1.717 5.326 5.326 0 0 1 2.277-.852 5.571 5.571 0 0 1 2.458.225 5.028 5.028 0 0 1 2.031 1.246l28.558 29.228a4.207 4.207 0 0 1 1.13 2.093c.159.774.08 1.572-.229 2.31a4.457 4.457 0 0 1-1.525 1.886 5.3 5.3 0 0 1-2.398.936Z" fill="#367CFF"/><path opacity=".48" d="m138.028 63.426-46.215 6.117a5.562 5.562 0 0 1-2.601-.275 4.945 4.945 0 0 1-2.082-1.408 4.134 4.134 0 0 1-.983-2.15 3.946 3.946 0 0 1 .39-2.295l17.659-35.344a4.525 4.525 0 0 1 1.53-1.717 5.326 5.326 0 0 1 2.277-.852 5.571 5.571 0 0 1 2.458.225 5.028 5.028 0 0 1 2.031 1.246l28.558 29.228a4.207 4.207 0 0 1 1.13 2.093c.159.774.08 1.572-.229 2.31a4.457 4.457 0 0 1-1.525 1.886 5.3 5.3 0 0 1-2.398.936Z" fill="#fff"/><path d="M91.05 69.7a5.613 5.613 0 0 1-2.414-.554 4.902 4.902 0 0 1-1.827-1.504 4.174 4.174 0 0 1-.8-2.092 4.053 4.053 0 0 1 .418-2.178l17.657-35.344c.347-.694.886-1.3 1.568-1.76a5.45 5.45 0 0 1 2.332-.872 5.705 5.705 0 0 1 2.518.23c.804.264 1.52.703 2.081 1.277l28.558 29.228a4.32 4.32 0 0 1 1.158 2.144 4.025 4.025 0 0 1-.235 2.367 4.571 4.571 0 0 1-1.564 1.932 5.424 5.424 0 0 1-2.455.958L91.829 69.65a5.926 5.926 0 0 1-.778.051Zm17.696-44.14c-.243 0-.485.016-.726.047a5.171 5.171 0 0 0-2.223.83 4.396 4.396 0 0 0-1.491 1.678L86.649 63.459a3.851 3.851 0 0 0-.38 2.238c.101.762.432 1.487.958 2.098a4.823 4.823 0 0 0 2.031 1.374c.804.289 1.68.382 2.538.268l46.215-6.116a5.17 5.17 0 0 0 2.339-.913 4.357 4.357 0 0 0 1.489-1.84c.301-.72.378-1.5.223-2.255a4.096 4.096 0 0 0-1.103-2.042L112.4 27.043a4.803 4.803 0 0 0-1.644-1.095 5.345 5.345 0 0 0-2.01-.389Z" fill="#0C0C0C"/><path d="m107.958 42.075-1.005-4.74 5.971-.791.605 4.793 1.022 11.082-3.91.518-2.683-10.862Zm1.956 16.495c-.317-1.879.969-3.53 3.033-3.803 2.064-.274 3.84.972 4.157 2.851.315 1.866-.971 3.517-3.036 3.79-2.064.275-3.839-.971-4.154-2.838Z" fill="#fff"/><path d="M130.162 48.776a.589.589 0 0 1 .052-.41.69.69 0 0 1 .321-.3c-.008-.01-.034-.027-.015-.038l-.611.02a.817.817 0 0 1-.501-.137.656.656 0 0 1-.275-.394.575.575 0 0 1 .105-.448.716.716 0 0 1 .416-.27c-.005-.004-.005-.011-.009-.017l-.251.008a.808.808 0 0 1-.475-.124.656.656 0 0 1-.278-.362.575.575 0 0 1 .127-.534.695.695 0 0 1 .241-.18.792.792 0 0 1 .305-.072l.581-.019c0-.003-.004-.004-.004-.007-.001-.003.003-.006.004-.01a.74.74 0 0 1-.412-.21.594.594 0 0 1-.174-.391c-.044-.371.407-.6.782-.611l1.186.043c.182.006.36.053.518.135.157.082.289.198.384.336.823 1.197 2.888 4.369 1.691 4.409l-2.945.096a.852.852 0 0 1-.481-.14.695.695 0 0 1-.282-.373ZM99.767 53.997a.707.707 0 0 0-.187-.426.866.866 0 0 0-.431-.25.06.06 0 0 0 .008-.04.065.065 0 0 0-.02-.03.079.079 0 0 0-.033-.018l.709-.14a.906.906 0 0 0 .527-.29.721.721 0 0 0 .183-.525.727.727 0 0 0-.272-.486.914.914 0 0 0-.57-.199c.005-.006.003-.015.005-.021l.29-.058a.897.897 0 0 0 .503-.268.72.72 0 0 0 .198-.49.685.685 0 0 0-.09-.322.78.78 0 0 0-.236-.257.911.911 0 0 0-.338-.142.961.961 0 0 0-.375-.002l-.67.133c0-.004.002-.006.001-.01 0-.003-.006-.006-.007-.01a.813.813 0 0 0 .401-.35.677.677 0 0 0 .067-.495c-.076-.438-.67-.578-1.105-.492l-3.918.706.93-.602a.784.784 0 0 0 .358-.48.708.708 0 0 0-.108-.567.81.81 0 0 0-.242-.216.96.96 0 0 0-.663-.107.909.909 0 0 0-.313.126l-5.077 3.286c-.595.385-.997.96-1.121 1.605a2.285 2.285 0 0 0 .46 1.843 4.248 4.248 0 0 0 1.965 1.383 4.818 4.818 0 0 0 2.503.173l5.968-1.173a.932.932 0 0 0 .505-.287.751.751 0 0 0 .195-.502Z" fill="#E98862"/><path opacity=".25" d="M95.09 50.863a.07.07 0 0 0 .034.043c.017.01.038.014.058.01l3.725-.677a.085.085 0 0 0 .029-.01.074.074 0 0 0 .021-.02.062.062 0 0 0 0-.077.076.076 0 0 0-.022-.019.085.085 0 0 0-.06-.01l-3.724.676a.08.08 0 0 0-.05.03.064.064 0 0 0-.011.053v.001ZM95.38 52.325a.07.07 0 0 0 .035.043c.017.01.038.014.058.01l4.158-.755a.08.08 0 0 0 .05-.03.064.064 0 0 0 .012-.052.074.074 0 0 0-.035-.044.09.09 0 0 0-.058-.01l-4.158.754a.08.08 0 0 0-.05.03.063.063 0 0 0-.011.053v.001ZM95.688 53.912a.07.07 0 0 0 .034.043c.017.01.038.013.058.01l3.317-.603a.08.08 0 0 0 .05-.03.064.064 0 0 0 .011-.052.07.07 0 0 0-.034-.044.087.087 0 0 0-.059-.01l-3.317.602a.083.083 0 0 0-.028.01.073.073 0 0 0-.022.02.064.064 0 0 0-.01.053v.001Z" fill="#0C0C0C"/><path d="m92.73 58.052-32.383 5.182a7.373 7.373 0 0 1-2.986-.325 6.7 6.7 0 0 1-2.511-1.468 5.712 5.712 0 0 1-1.51-2.305 5.187 5.187 0 0 1-.192-2.66l4.533-23.86a5.432 5.432 0 0 1 .903-2.136 6.183 6.183 0 0 1 1.76-1.666 7.013 7.013 0 0 1 2.348-.94 7.413 7.413 0 0 1 2.575-.07 7.115 7.115 0 0 1 2.408.812c.734.409 1.37.942 1.871 1.569.501.626.857 1.335 1.048 2.084.19.75.212 1.524.063 2.28l-3.092 16.425 23.742-2.64 1.424 9.718Z" fill="#367CFF"/><path d="M60.346 63.34a.128.128 0 0 1-.076-.031.098.098 0 0 1-.014-.138.122.122 0 0 1 .07-.042l32.27-5.164-1.394-9.513L67.58 51.08a.133.133 0 0 1-.055-.005.121.121 0 0 1-.046-.026.105.105 0 0 1-.028-.043.094.094 0 0 1-.004-.048l1.965-10.498a.11.11 0 0 1 .052-.06.134.134 0 0 1 .083-.014.125.125 0 0 1 .074.038.1.1 0 0 1 .027.07L67.71 50.852l23.582-2.622a.132.132 0 0 1 .088.021.105.105 0 0 1 .046.07l1.424 9.718a.098.098 0 0 1-.022.076.124.124 0 0 1-.075.042L60.37 63.34h-.023Z" fill="#0C0C0C"/><path d="m67.546 50.87-2.083.295.038.21 2.083-.296-.038-.21Z" fill="#0C0C0C"/><path d="M134.346 163H27.568" fill="#3F3F3F"/><path d="m34.648 110.73-31.322-.019a3.679 3.679 0 0 1-1.694-.411 3.146 3.146 0 0 1-1.22-1.118 2.677 2.677 0 0 1-.41-1.512c.019-.527.197-1.04.516-1.486l15.678-21.872c.3-.42.716-.764 1.208-1.004a3.674 3.674 0 0 1 1.604-.364c.561 0 1.113.127 1.605.366a3.2 3.2 0 0 1 1.206 1.006l15.644 21.89c.319.446.496.96.514 1.487a2.68 2.68 0 0 1-.411 1.512c-.288.462-.71.847-1.224 1.115a3.658 3.658 0 0 1-1.694.41Z" fill="#F4F4F4"/><path d="M16.56 105.034c0-1.274 1.04-2.255 2.44-2.254 1.398.001 2.435.983 2.434 2.257 0 1.264-1.04 2.245-2.438 2.244-1.398-.001-2.436-.983-2.435-2.247Zm.558-11.107-.133-3.23 4.047.002-.14 3.23-.567 7.436-2.649-.001-.558-7.437Z" fill="#fff"/><path d="m46.88 38.937-25.209-.015c-.48 0-.95-.114-1.363-.33a2.533 2.533 0 0 1-.983-.9 2.156 2.156 0 0 1-.33-1.217c.016-.424.16-.837.416-1.196L32.03 17.676c.242-.337.576-.615.972-.808.396-.192.84-.293 1.291-.293.452 0 .896.102 1.291.295.396.193.73.471.971.809l12.591 17.618c.257.359.4.772.414 1.197.015.424-.1.844-.331 1.216a2.534 2.534 0 0 1-.985.898c-.413.216-.884.33-1.363.33Z" fill="#F4F4F4"/><path d="M32.322 34.354c.016-.34.144-.67.37-.946.224-.276.536-.488.896-.608s.752-.145 1.127-.07c.376.075.718.247.984.492.267.246.445.556.515.891.069.336.025.681-.126.995-.151.313-.403.58-.724.768a2.185 2.185 0 0 1-1.851.147 1.988 1.988 0 0 1-.646-.395 1.727 1.727 0 0 1-.42-.588 1.561 1.561 0 0 1-.125-.686Zm.449-8.938-.108-2.6 3.257.003-.111 2.6-.457 5.983-2.133-.001-.448-5.985Z" fill="#fff"/><path d="m149.383 131.391-27.51-.017a3.212 3.212 0 0 1-1.487-.361 2.77 2.77 0 0 1-1.074-.981 2.349 2.349 0 0 1-.359-1.328c.016-.464.173-.914.453-1.306l13.77-19.21a2.805 2.805 0 0 1 1.061-.882c.432-.21.917-.32 1.409-.32.493.001.978.111 1.41.322.431.21.796.514 1.059.883l13.74 19.226c.28.392.436.843.452 1.306.016.464-.109.922-.361 1.328a2.763 2.763 0 0 1-1.075.98c-.451.236-.965.36-1.488.36Z" fill="#F4F4F4"/><path d="M133.497 126.388c0-1.118.912-1.98 2.141-1.979 1.229.001 2.139.863 2.139 1.982.009.254-.039.507-.143.745-.103.237-.26.454-.459.636-.2.183-.44.328-.704.428a2.393 2.393 0 0 1-1.673-.001 2.187 2.187 0 0 1-.703-.428 1.889 1.889 0 0 1-.458-.638 1.715 1.715 0 0 1-.142-.745h.002Zm.489-9.754-.117-2.837 3.554.002-.121 2.837-.499 6.531-2.329-.002-.488-6.531Z" fill="#fff"/></svg>