<svg width="224" height="165" fill="none" xmlns="http://www.w3.org/2000/svg"><path d="M29.026 140.9a.235.235 0 0 1-.15-.053c-.302-.255-.794-4.926-2.117-18.835-.541-5.69-1.053-11.066-1.426-14.333-.026-.233-.133-.26-.169-.269-.51-.13-2.064.905-2.931 1.811a.243.243 0 0 1-.301.027.176.176 0 0 1-.079-.121.162.162 0 0 1 .047-.133c.573-.599 2.443-2.17 3.387-1.93.191.048.428.188.472.581.374 3.269.885 8.646 1.427 14.339.804 8.451 1.715 18.027 2.014 18.63a.16.16 0 0 1 .017.188.197.197 0 0 1-.08.071.236.236 0 0 1-.11.027Z" fill="#494949"/><path d="M24.784 113.674c3.55-2.404 4.726-6.145 2.628-8.357-2.098-2.211-6.677-2.055-10.226.348-3.55 2.404-4.726 6.145-2.627 8.357 2.098 2.211 6.676 2.055 10.225-.348Z" fill="#0CBC8B"/><path opacity=".2" d="M24.784 113.674c3.55-2.404 4.726-6.145 2.628-8.357-2.098-2.211-6.677-2.055-10.226.348-3.55 2.404-4.726 6.145-2.627 8.357 2.098 2.211 6.676 2.055 10.225-.348Z" fill="#fff"/><path d="M15.553 114.583a.123.123 0 0 1-.057-.014.107.107 0 0 1-.04-.038.08.08 0 0 1-.009-.05.083.083 0 0 1 .024-.046l10.115-10.306a.114.114 0 0 1 .073-.031.116.116 0 0 1 .077.021.086.086 0 0 1 .038.06.083.083 0 0 1-.023.066L15.635 114.55a.117.117 0 0 1-.082.033Z" fill="#fff"/><path d="M31.233 138.691a.235.235 0 0 1-.175-.076.168.168 0 0 1-.037-.08.156.156 0 0 1 .01-.085l3.8-9.232c.111-.271.302-.514.554-.707.252-.193.557-.329.887-.397a2.41 2.41 0 0 1 1.005.011c.328.075.629.218.875.416l2.009 1.621a.171.171 0 0 1 .066.127.167.167 0 0 1-.06.129.232.232 0 0 1-.15.056.238.238 0 0 1-.152-.05l-2.009-1.621a1.698 1.698 0 0 0-.69-.329 1.907 1.907 0 0 0-.793-.008c-.261.053-.502.161-.701.313-.199.152-.35.344-.438.558l-3.8 9.232a.185.185 0 0 1-.078.088.24.24 0 0 1-.123.034Z" fill="#494949"/><path d="M45.773 135.272c2.63-1.759 2.474-5.627-.35-8.641-2.822-3.013-7.244-4.03-9.874-2.271-2.63 1.759-2.474 5.628.35 8.641 2.822 3.014 7.244 4.03 9.874 2.271Z" fill="#0CBC8B"/><path d="M27.3 140.31a.241.241 0 0 1-.132-.039.178.178 0 0 1-.075-.1l-6.377-22.524a.833.833 0 0 0-.268-.406 1.071 1.071 0 0 0-.48-.228 1.188 1.188 0 0 0-.55.016 1.05 1.05 0 0 0-.459.256l-1.965 1.919a.244.244 0 0 1-.302.019.2.2 0 0 1-.051-.056.157.157 0 0 1 .03-.199l1.965-1.919c.174-.17.4-.296.653-.364.253-.069.523-.076.781-.023s.494.165.681.324c.188.159.32.359.381.577l6.377 22.525a.158.158 0 0 1-.026.137.219.219 0 0 1-.183.085Z" fill="#494949"/><path d="M24.947 124.208c.775-3.787-1.276-7.248-4.582-7.731-3.305-.483-6.614 2.196-7.389 5.983-.775 3.786 1.277 7.248 4.582 7.731 3.306.483 6.614-2.196 7.39-5.983Z" fill="#0CBC8B"/><path d="m29.027 140.899-.027-.001a.226.226 0 0 1-.143-.068.173.173 0 0 1-.037-.063.157.157 0 0 1-.006-.071l4.072-27.93c.044-.304.192-.591.425-.826.232-.235.54-.409.887-.5.347-.09.717-.095 1.066-.012.35.083.663.249.904.479l4.654 4.453a.183.183 0 0 1 .042.061.156.156 0 0 1-.01.139.194.194 0 0 1-.051.056.256.256 0 0 1-.236.027.222.222 0 0 1-.066-.043l-4.654-4.453a1.51 1.51 0 0 0-.698-.371 1.715 1.715 0 0 0-.824.01c-.268.07-.506.204-.686.386-.18.181-.294.403-.328.638l-4.072 27.931a.175.175 0 0 1-.07.113.238.238 0 0 1-.142.045Z" fill="#494949"/><path d="M45.595 118.836c1.624-2.48-.287-5.999-4.267-7.859-3.981-1.86-8.524-1.358-10.148 1.122-1.624 2.48.287 5.999 4.267 7.859 3.98 1.86 8.524 1.358 10.148-1.122Z" fill="#0CBC8B"/><path opacity=".2" d="M45.773 135.272c2.63-1.759 2.474-5.627-.35-8.641-2.822-3.013-7.244-4.03-9.874-2.271-2.63 1.759-2.474 5.628.35 8.641 2.822 3.014 7.244 4.03 9.874 2.271Z" fill="#fff"/><path opacity=".5" d="M24.947 124.208c.775-3.787-1.276-7.248-4.582-7.731-3.305-.483-6.614 2.196-7.389 5.983-.775 3.786 1.277 7.248 4.582 7.731 3.306.483 6.614-2.196 7.39-5.983ZM45.595 118.836c1.624-2.48-.287-5.999-4.267-7.859-3.981-1.86-8.524-1.358-10.148 1.122-1.624 2.48.287 5.999 4.267 7.859 3.98 1.86 8.524 1.358 10.148-1.122Z" fill="#fff"/><path d="M34.235 164.597H23.819l-1.727-28.156h13.869l-1.726 28.156Z" fill="#292A2E"/><path opacity=".3" d="M34.235 164.597H23.819l-1.727-28.156h13.869l-1.726 28.156Z" fill="#fff"/><path d="M45.773 135.363a.123.123 0 0 1-.046-.009.105.105 0 0 1-.038-.026l-10.224-10.912a.08.08 0 0 1-.022-.067.081.081 0 0 1 .012-.033.096.096 0 0 1 .027-.027.12.12 0 0 1 .08-.019.133.133 0 0 1 .039.011.097.097 0 0 1 .032.023l10.224 10.912c.013.014.02.03.023.046a.081.081 0 0 1-.01.05.099.099 0 0 1-.04.037.122.122 0 0 1-.056.014ZM44.915 119.709a.115.115 0 0 1-.063-.018l-13.083-8.071a.09.09 0 0 1-.043-.059.076.076 0 0 1 .002-.035.092.092 0 0 1 .048-.056.117.117 0 0 1 .08-.01.1.1 0 0 1 .039.014l13.083 8.072a.09.09 0 0 1 .038.045.076.076 0 0 1 0 .055.093.093 0 0 1-.04.045.122.122 0 0 1-.062.017l.001.001ZM17.027 130.073a.128.128 0 0 1-.027-.003.105.105 0 0 1-.065-.042.077.077 0 0 1-.011-.068l4.165-13.184a.084.084 0 0 1 .018-.033.113.113 0 0 1 .03-.025.124.124 0 0 1 .122.006.1.1 0 0 1 .028.028.079.079 0 0 1 .008.071l-4.165 13.183a.092.092 0 0 1-.038.049.12.12 0 0 1-.065.018Z" fill="#fff"/><path d="M95.75 138.976H59.57l-5.668 3.587v-18.986c0-.529.186-1.046.534-1.486.348-.44.842-.783 1.42-.985a3.716 3.716 0 0 1 1.83-.152 3.38 3.38 0 0 1 1.62.732c.443.374.745.85.867 1.369a2.29 2.29 0 0 1-.18 1.545 2.83 2.83 0 0 1-1.166 1.201 3.59 3.59 0 0 1-1.759.45l38.682-5.349v5.349a3.59 3.59 0 0 1-1.758-.45 2.83 2.83 0 0 1-1.166-1.201 2.29 2.29 0 0 1-.18-1.545c.121-.519.423-.995.866-1.369a3.38 3.38 0 0 1 1.62-.732 3.716 3.716 0 0 1 1.83.152 3.106 3.106 0 0 1 1.42.985c.348.44.534.957.534 1.486v12.724c0 .351-.082.699-.24 1.024-.16.324-.393.619-.687.867a3.237 3.237 0 0 1-1.027.58 3.662 3.662 0 0 1-1.212.204Z" fill="#F4F4F4"/><path d="M94.916 124.924H57.904a.132.132 0 0 1-.053-.007.123.123 0 0 1-.044-.024.116.116 0 0 1-.03-.036.098.098 0 0 1 0-.088.12.12 0 0 1 .03-.037.164.164 0 0 1 .044-.024.182.182 0 0 1 .053-.007h37.012c.017 0 .035.002.052.007a.16.16 0 0 1 .044.024.118.118 0 0 1 .03.037.098.098 0 0 1 0 .088.115.115 0 0 1-.03.036.122.122 0 0 1-.044.024.132.132 0 0 1-.052.007ZM94.916 128.524H57.904a.14.14 0 0 1-.097-.031.109.109 0 0 1-.03-.037.095.095 0 0 1 0-.087.123.123 0 0 1 .075-.061.153.153 0 0 1 .052-.007h37.012a.153.153 0 0 1 .052.007.122.122 0 0 1 .044.024c.013.01.024.023.03.037a.094.094 0 0 1 0 .087.108.108 0 0 1-.03.037.138.138 0 0 1-.044.024.153.153 0 0 1-.052.007ZM94.916 132.123H57.904M86.992 135.723H57.904a.153.153 0 0 1-.053-.007.123.123 0 0 1-.074-.061.091.091 0 0 1-.01-.043c0-.015.003-.03.01-.044a.12.12 0 0 1 .03-.037.164.164 0 0 1 .044-.024.153.153 0 0 1 .053-.007h29.088a.153.153 0 0 1 .052.007.16.16 0 0 1 .045.024.118.118 0 0 1 .03.037.1.1 0 0 1 .01.044c0 .015-.003.03-.01.043a.108.108 0 0 1-.03.037.122.122 0 0 1-.045.024.153.153 0 0 1-.052.007Z" fill="#fff"/><path d="M62.18 89.54H6.992L0 93.963V70.542c0-.875.412-1.714 1.144-2.333.733-.62 1.726-.967 2.762-.967H62.18v6.6a4.433 4.433 0 0 1-2.17-.556c-.642-.363-1.143-.878-1.438-1.481a2.828 2.828 0 0 1-.223-1.907c.151-.64.523-1.228 1.07-1.69a4.171 4.171 0 0 1 2-.902 4.576 4.576 0 0 1 2.256.187c.714.25 1.324.673 1.753 1.216.43.542.658 1.18.658 1.833V86.24c0 .875-.411 1.715-1.144 2.334-.732.618-1.726.966-2.762.966Z" fill="#F4F4F4"/><path d="M61.152 72.205H4.936M61.152 76.644H4.936a.19.19 0 0 1-.12-.038.14.14 0 0 1-.036-.045.12.12 0 0 1 0-.108.14.14 0 0 1 .037-.045.172.172 0 0 1 .055-.03.192.192 0 0 1 .064-.009h56.216a.178.178 0 0 1 .111.042c.03.026.046.06.046.096 0 .035-.017.07-.046.095a.178.178 0 0 1-.111.042ZM61.152 81.086H4.936a.192.192 0 0 1-.064-.01.172.172 0 0 1-.055-.029.14.14 0 0 1-.037-.045.12.12 0 0 1 0-.108.14.14 0 0 1 .037-.045.172.172 0 0 1 .055-.03.192.192 0 0 1 .064-.008h56.216a.178.178 0 0 1 .111.042c.03.025.046.06.046.095 0 .036-.017.07-.046.096a.178.178 0 0 1-.111.042ZM51.376 85.525H4.936" fill="#fff"/><path d="M97.273 104.618h65.799l8.337 5.277V81.969c0-1.043-.491-2.044-1.364-2.782-.874-.737-2.058-1.152-3.293-1.152h-69.48c-1.234 0-2.419.415-3.292 1.153-.873.737-1.364 1.738-1.364 2.78v18.716c0 1.043.491 2.044 1.364 2.781.873.738 2.058 1.153 3.293 1.153Z" fill="#F4F4F4"/><path d="M98.5 83.951h67.024a.215.215 0 0 0 .134-.05.151.151 0 0 0 .054-.114.151.151 0 0 0-.054-.114.216.216 0 0 0-.134-.05H98.501a.213.213 0 0 0-.134.05.152.152 0 0 0-.055.114c0 .043.02.084.055.114.035.031.083.049.133.05ZM98.5 89.244h67.024a.216.216 0 0 0 .134-.05.151.151 0 0 0 .054-.114.151.151 0 0 0-.054-.114.215.215 0 0 0-.134-.05H98.501a.212.212 0 0 0-.134.05.152.152 0 0 0-.055.114c0 .043.02.084.055.114.035.031.083.049.133.05ZM98.5 94.54h67.024a.215.215 0 0 0 .134-.05.151.151 0 0 0 .054-.115.151.151 0 0 0-.054-.114.216.216 0 0 0-.134-.05H98.501a.213.213 0 0 0-.134.05.152.152 0 0 0-.055.114c0 .043.02.084.055.114.035.031.083.049.133.05ZM110.155 99.832h55.369a.214.214 0 0 0 .134-.05.151.151 0 0 0 .054-.114.151.151 0 0 0-.054-.114.212.212 0 0 0-.134-.05h-55.369a.215.215 0 0 0-.134.05.151.151 0 0 0-.054.114c0 .043.019.084.054.114.036.03.083.049.134.05Z" fill="#fff"/><path d="M149.975 56.78h55.188l6.993 4.424V37.782c0-.875-.412-1.714-1.144-2.333-.732-.619-1.726-.966-2.761-.967h-58.276c-1.035 0-2.029.348-2.761.967-.733.619-1.144 1.458-1.144 2.333V53.48c0 .875.411 1.715 1.144 2.334.732.618 1.726.966 2.761.966Z" fill="#F4F4F4"/><path d="M151.005 39.445h56.215M151.005 43.885h56.215a.182.182 0 0 0 .112-.042.128.128 0 0 0 .045-.096.128.128 0 0 0-.045-.096.181.181 0 0 0-.112-.042h-56.215a.176.176 0 0 0-.111.042.129.129 0 0 0-.046.096c0 .036.017.07.046.096.029.025.069.04.111.042ZM151.005 48.326h56.215a.182.182 0 0 0 .112-.042.128.128 0 0 0 .045-.096.128.128 0 0 0-.045-.095.181.181 0 0 0-.112-.042h-56.215a.176.176 0 0 0-.111.042.129.129 0 0 0-.046.095c0 .036.017.07.046.096.029.026.069.04.111.042ZM160.78 52.766h46.44a.18.18 0 0 0 .112-.042.128.128 0 0 0 .045-.096.128.128 0 0 0-.045-.096.18.18 0 0 0-.112-.042h-46.44a.178.178 0 0 0-.119.038.127.127 0 0 0-.05.1.128.128 0 0 0 .05.1.178.178 0 0 0 .119.038ZM18.97 82.582h110.279c2.918 0 5.284-1.999 5.284-4.464V4.612c0-2.466-2.366-4.464-5.284-4.464H18.969c-2.918 0-5.284 1.998-5.284 4.464v73.506c0 2.465 2.366 4.464 5.284 4.464Z" fill="#fff"/><path d="M13.51 78.119V4.613c0-1.223.577-2.396 1.6-3.26C16.134.488 17.522 0 18.97 0h110.279c1.447.001 2.835.488 3.859 1.353s1.599 2.037 1.601 3.26v73.506c-.002 1.223-.577 2.395-1.601 3.26-1.024.865-2.412 1.352-3.859 1.353H18.969c-1.447-.001-2.835-.488-3.859-1.353-1.023-.865-1.6-2.037-1.6-3.26ZM18.97.298c-1.355 0-2.653.456-3.61 1.265-.958.809-1.497 1.906-1.498 3.05v73.506c.001 1.144.54 2.24 1.497 3.05.958.809 2.256 1.264 3.61 1.265h110.28c1.354-.001 2.652-.456 3.61-1.265.958-.81 1.496-1.906 1.498-3.05V4.613c-.002-1.144-.54-2.241-1.498-3.05-.958-.81-2.256-1.264-3.61-1.265H18.969Z" fill="#292A2E"/><path d="M13.685 4.612v4.492h120.847V4.612c0-.883-.31-1.746-.89-2.48-.581-.734-1.406-1.306-2.371-1.644a6.192 6.192 0 0 0-3.053-.254c-1.025.172-1.966.598-2.705 1.222-.739.624-1.242 1.42-1.446 2.285a3.823 3.823 0 0 0 .301 2.58c.4.815 1.077 1.512 1.946 2.002.868.49 1.89.753 2.935.753L18.969.148c-.693 0-1.38.116-2.021.34a5.435 5.435 0 0 0-1.715.968c-.49.414-.88.906-1.145 1.448a3.87 3.87 0 0 0-.402 1.708Z" fill="#292A2E"/><path d="M110.008 24.093a.804.804 0 0 1 .178-.307.987.987 0 0 1 .308-.221 1.177 1.177 0 0 1 .788-.065c.248.075.453.226.574.424a.759.759 0 0 1 .077.642l-.342 1.106 2.973-3.073c.323-.347.984-.598 1.419-.265a.84.84 0 0 1 .354.47.725.725 0 0 1-.07.555l.014.007.008.008.499-.535a.987.987 0 0 1 .341-.234 1.156 1.156 0 0 1 .859-.013c.135.052.255.128.351.223.15.155.232.349.232.549 0 .2-.082.394-.232.549l-.212.227a.067.067 0 0 1 .009.027c.184-.124.414-.19.649-.186.236.005.462.08.639.21a.834.834 0 0 1 .324.584.79.79 0 0 1-.235.614l-.522.56a.105.105 0 0 1 .069.004c.01.004.019.01.027.018a.072.072 0 0 1 .015.027c.197-.071.415-.087.624-.046.208.041.395.138.534.275a.792.792 0 0 1 .231.55c0 .2-.082.393-.231.548l-4.451 4.766c-.623.667-1.467 1.162-2.424 1.42a5.94 5.94 0 0 1-2.95.033l-3.108-.765 2.681-8.686Z" fill="#E98862"/><path opacity=".2" d="M113.343 26.416a.105.105 0 0 0 .067.015.102.102 0 0 0 .062-.028l2.823-2.926a.067.067 0 0 0 .02-.057.073.073 0 0 0-.033-.053.106.106 0 0 0-.068-.017.097.097 0 0 0-.062.028l-2.824 2.927a.073.073 0 0 0-.02.057c.003.02.015.04.034.053h.001ZM114.837 27.502a.104.104 0 0 0 .128-.012l3.152-3.266a.067.067 0 0 0 .02-.057.073.073 0 0 0-.033-.053.111.111 0 0 0-.068-.016.102.102 0 0 0-.062.027l-3.152 3.266a.07.07 0 0 0-.02.057c.002.02.014.04.033.053l.002.001ZM116.446 28.69a.107.107 0 0 0 .068.015.1.1 0 0 0 .061-.028l2.514-2.605a.07.07 0 0 0 .017-.056.077.077 0 0 0-.033-.051.106.106 0 0 0-.128.008l-2.514 2.605a.075.075 0 0 0-.016.027.063.063 0 0 0 .007.06c.005.009.013.017.023.023l.001.001Z" fill="#0C0C0C"/><path d="M52.051 17.676s-1.162 4.947-2.77 6.612c-4.628 4.792-6.64 10.536-3.28 14.02s27.792 6.213 30.729-.63c2.472-5.761-.775-6.767-.834-11.75-.028-2.256-.326-7.01-.326-7.01" fill="#0A0A0A"/><path d="M71.698 34.941c-.042-.004-.514 6.615-9.614 6.036-6.3-.398-8.546-6.045-8.69-6.045.679-.122 1.822-.3 2.124-.436.992-.45 2.22-.919 2.54-2.546.184-.938-.129-5.737-.033-6.686l9.67 1.823c-.135 2.005-1.08 6.652 2.234 7.474a33.58 33.58 0 0 0 1.77.38Z" fill="#E98862"/><path opacity=".5" d="M67.831 32.662a5.114 5.114 0 0 1-.29-1.268 11.434 11.434 0 0 1 .063-2.949c-1.965-.224-3.817-.91-5.344-1.978-.18.56-1.167 3.008-.894 3.54.516 1.007 2.945 2.655 6.465 2.655Z" fill="#0C0C0C"/><path d="M66.15 31.087c-3.828-.107-8.523-1.922-8.881-6.287l-.323-3.94c-.358-4.364 2.065-8.062 6.93-8.347 4.865-.285 8.792 3.04 9.15 7.406l.143 1.743c.136 1.676-.188 9.615-7.018 9.425Z" fill="#E98862"/><path d="M65.757 26.14c.534.223 1.646.523 3.19.07.168-.05.297.112.211.272-.327.615-1.075 1.324-2.389 1.081a1.69 1.69 0 0 1-.882-.4 1.261 1.261 0 0 1-.422-.765c-.036-.165.141-.322.291-.259Z" fill="#fff"/><path d="M71.815 22c.332 0 .6-.228.6-.508s-.268-.508-.6-.508c-.332 0-.6.228-.6.508s.268.507.6.507ZM65.65 22c.332 0 .6-.228.6-.508s-.268-.508-.6-.508c-.332 0-.6.228-.6.508s.268.507.6.507Z" fill="#0C0C0C"/><path opacity=".5" d="M68.485 25.318h.01c.197-.013.393-.035.587-.066.29-.048.675-.137.657-.355-.021-.249-1.047-2.885-1.164-3.185a.113.113 0 0 0-.062-.057.144.144 0 0 0-.092-.005.12.12 0 0 0-.07.05.09.09 0 0 0-.01.077c.439 1.123 1.139 2.967 1.153 3.134-.043.072-.527.17-1.017.199a.131.131 0 0 0-.081.034.095.095 0 0 0-.032.073.097.097 0 0 0 .037.07c.022.02.053.03.084.03v.001Z" fill="#0C0C0C"/><path d="m52.951 21.823 4.358-.235c3.385-.781 5.024-5.408 5.024-5.408s3.47 3.623 13.237 2.736c0 0-.337-11.393-14.841-9.54-4.677.597-8.468 4.128-8.785 9.323-.222 3.64 1.007 3.124 1.007 3.124Z" fill="#0A0A0A"/><path d="M57.68 26.113c-1.478.086-2.786-1.18-2.889-2.429-.102-1.249 1.04-2.008 2.518-2.094l.83.792.814 3.656-1.273.075Z" fill="#E98862"/><path d="M69.749 19.622a3.238 3.238 0 0 1 1.447-.236c.246.014.488.06.718.136.228.073.445.171.644.29.023.014.04.035.045.058a.08.08 0 0 1-.014.068.11.11 0 0 1-.067.04.127.127 0 0 1-.08-.01l-.008-.004a2.913 2.913 0 0 0-.602-.247 2.578 2.578 0 0 0-.652-.101c-.44-.015-.878.07-1.268.245l-.01.005a.19.19 0 0 1-.125.012.161.161 0 0 1-.098-.066.12.12 0 0 1-.014-.105.145.145 0 0 1 .078-.083l.006-.002ZM65.834 20.11a2.937 2.937 0 0 0-1.296-.1c-.22.031-.432.09-.63.174-.2.084-.388.19-.558.313l-.006.005a.127.127 0 0 1-.12.012.109.109 0 0 1-.033-.023.091.091 0 0 1-.02-.031.08.08 0 0 1 .006-.07.097.097 0 0 1 .027-.029 2.95 2.95 0 0 1 .592-.361c.216-.1.448-.173.69-.216.489-.088.997-.063 1.471.071a.158.158 0 0 1 .094.07.119.119 0 0 1 .008.106.15.15 0 0 1-.084.079.191.191 0 0 1-.124.006l-.006-.002-.011-.004Z" fill="#0C0C0C"/><path d="M62.291 15.676s.778 4.694-4.98 5.817" stroke="#0C0C0C" stroke-width=".5" stroke-miterlimit="10"/><path opacity=".1" d="M65.759 24.55c.005-.392-.503-.714-1.135-.72-.632-.005-1.148.308-1.153.7-.005.39.503.713 1.135.718.632.006 1.148-.307 1.153-.698ZM71.418 24.43c-.003.39.505.712 1.137.718.11.002.218-.007.325-.025.1-.456.17-.898.217-1.308a1.677 1.677 0 0 0-.525-.084c-.633-.007-1.149.307-1.154.698Z" fill="#0C0C0C"/><path d="m41.264 74.262-1.647 8.481h41.07l-1.535-8.532-37.889.051Z" fill="#262626"/><path d="M61.875 39.333c-6.304-.25-6.57-4.77-6.57-4.77s-3.122.17-5.2.407c-3.4.39-5.642 1.363-7.427 2.87-1.66 1.403-2.67 2.92-1.601 12.61.774 7.015.187 23.813.187 23.813l37.888-.051s3.536-21.54 3.854-24.7c.606-6.028-.687-11.125-2.168-12.376-3.046-2.574-8.29-2.574-10.91-2.573-.041-.001.533 5.112-8.053 4.77Z" fill="#367CFF"/><path d="M106.937 28.092 94.685 47.065l-14.62-10.47-8.99 8.96 21.129 15.132.15.11a7.361 7.361 0 0 0 2.74 1.175 8.051 8.051 0 0 0 3.071.043 7.45 7.45 0 0 0 2.783-1.1 6.066 6.066 0 0 0 1.93-2.02l14.965-26.058-10.906-4.745ZM44.925 66.44l2.307 15.994H33.33L31.01 65.442a5.08 5.08 0 0 1 .45-2.132l10.068-24.013 13.216 3.797-9.82 23.346Z" fill="#367CFF"/><path d="m47.126 82.445-2.31-16.017.01-.022 6.354-13.623.199.067-6.344 13.601 2.303 15.972-.212.022ZM83.062 48.8l-.767 5.15.183.019.767-5.15-.183-.019Z" fill="#0C0C0C"/><path d="M218.62 164.999H4.63a.163.163 0 0 1-.106-.037.118.118 0 0 1-.044-.089c0-.034.016-.066.044-.09a.163.163 0 0 1 .106-.037h213.99c.04 0 .078.013.106.037a.119.119 0 0 1 .044.09.118.118 0 0 1-.044.089.163.163 0 0 1-.106.037Z" fill="#292A2E"/><path opacity=".65" d="M218.62 164.999H4.63a.163.163 0 0 1-.106-.037.118.118 0 0 1-.044-.089c0-.034.016-.066.044-.09a.163.163 0 0 1 .106-.037h213.99c.04 0 .078.013.106.037a.119.119 0 0 1 .044.09.118.118 0 0 1-.044.089.163.163 0 0 1-.106.037Z" fill="#292A2E"/><path opacity=".49" d="M74.109 78.412c5.532 0 10.017-3.79 10.017-8.463 0-4.674-4.485-8.463-10.017-8.463-5.532 0-10.017 3.79-10.017 8.463 0 4.674 4.484 8.463 10.017 8.463Z" fill="#fff"/><path d="M74.109 76.216c4.097 0 7.418-2.806 7.418-6.267 0-3.462-3.321-6.267-7.418-6.267-4.097 0-7.418 2.805-7.418 6.267 0 3.46 3.321 6.267 7.418 6.267Z" fill="#fff"/><path d="M79.108 72.01a.346.346 0 0 1 .17.21.296.296 0 0 1-.048.25l-.486.683a.981.981 0 0 1-.58.38c-.808.187-2.587.225-5.44-2.185s-2.808-3.914-2.587-4.596a.872.872 0 0 1 .45-.49l.81-.41a.468.468 0 0 1 .295-.04c.101.018.19.07.247.143l1.29 1.635a.3.3 0 0 1 .063.243.336.336 0 0 1-.15.214l-.725.476a.338.338 0 0 0-.149.2.294.294 0 0 0 .042.234c.212.323.414.704 1.412 1.548.997.844 1.45 1.013 1.832 1.193.084.039.182.051.276.035a.415.415 0 0 0 .236-.126l.564-.612a.422.422 0 0 1 .254-.127c.1-.014.203.005.288.053l1.936 1.09Z" fill="#0CBC8B"/><path d="M188.299 89.44c-10.65 0-19.284 2.454-19.284 5.482v6.528h38.569v-6.528c0-3.028-8.634-5.483-19.285-5.483Z" fill="#367CFF"/><path opacity=".49" d="M188.299 89.44c-10.65 0-19.284 2.454-19.284 5.482v6.528h38.569v-6.528c0-3.028-8.634-5.483-19.285-5.483Z" fill="#fff"/><path opacity=".49" d="M202.329 94.924v6.526h-33.316v-6.526c0-2.776 7.251-5.07 16.658-5.432 9.408.362 16.658 2.656 16.658 5.432Z" fill="#fff"/><path d="m207.583 164.875.642-.547-.642-63.457-.642.547.458 44.709-22.847.328-.461-45.042-.642.005.461 45.046-13.792.198-.463-45.249-.642-.537.642 63.457.642.538-.174-17.667 13.792-.198.176 17.869.641-.004-.175-17.874 22.847-.328.179 18.206Z" fill="#292A2E"/><path d="M148.665 155.289s-1.147 5.023-6.713 5.303c-5.566.28-4.359 4.026-4.359 4.026h21.271v-8.979l-10.199-.35ZM160.801 140.183s1.595 4.934-3.253 7.261-1.808 5.239-1.808 5.239l19.087-7.934-4.691-8.056-9.335 3.49Z" fill="#367CFF"/><path d="M158.782 143.445 144.4 97.6c-1.091-5.064.552-7.26 3.082-9.392 4.446-3.747 22.87-11.722 22.87-11.722l22.102-.05c5.861 0 11.622 4.882 11.622 9.833 0 4.951-5.958 9.15-11.818 9.15l-27.217 2.295 7.377 41.977-13.636 3.754Z" fill="#262626"/><path d="m172.418 139.69-2.905-16.526-14.714 7.583 3.983 12.697 13.636-3.754ZM175.754 85.762s-9.291 1.75-18.493 9.523c-5.58 4.714-5.122 13.244-4.285 29.649l9.139-11.405 10.024-15.274 3.615-12.493Z" fill="#0C0C0C"/><path d="m207.924 76.429-15.01-.06-.006.167h-4.545s-11.385 8.851-20.551 14.428c-6.668 4.057-10.735 7.925-11.087 12.14-.858 10.275-10.534 54.1-10.534 54.1l14.562 1.863 12.78-52.373s19.983-7.782 24.605-10.491c4.353-2.55 7.427-3.536 8.867-6.32 2.488-4.808.919-13.454.919-13.454Z" fill="#262626"/><path d="M179.568 20.924s-2.357-2.159-2.175-6.27c.141-3.184 3.099-.655 3.099-.655s.128-2.292 2.009-1.775c1.881.517 2.46 3.034 2.46 3.034M192.42 14.012s9.391 2.33 3.58 12.764l-.858-.081-1.74-.166" fill="#0C0C0C"/><path d="M179.113 37.598c.043-.005.517 6.65 9.669 6.07 6.336-.4 8.595-6.08 8.74-6.08-.683-.123-1.527-.309-1.863-.372a3.886 3.886 0 0 1-1.898-.941c-.505-.47-.829-1.057-.929-1.685-.186-.944.128-5.77.032-6.725l-9.725 1.834c.136 2.016 1.087 6.69-2.246 7.517-.556.136-1.153.262-1.78.382Z" fill="#E98862"/><path opacity=".52" d="M183.003 35.307c.152-.415.25-.843.292-1.275.107-.988.086-1.983-.064-2.966 1.977-.226 3.839-.915 5.375-1.99.181.564 1.174 3.026.899 3.56-.519 1.013-2.962 2.67-6.502 2.67Z" fill="#0C0C0C"/><path d="M184.59 33.188c3.837.29 8.788-1.034 9.78-5.353l.896-3.898c.993-4.32-.888-8.262-5.702-9.052-4.814-.79-9.217 2.122-10.21 6.442l-.397 1.725c-.124.595-.2 1.196-.227 1.799-.085 1.594-.209 4.018.699 5.81.856 1.69 2.71 2.34 5.161 2.526Z" fill="#E98862"/><path d="M181.738 28.546c1.428.14 2.871-.128 4.1-.758a.301.301 0 0 1 .281.005.238.238 0 0 1 .094.095c.02.038.026.08.019.122-.137.712-.631 2.01-2.417 2.104-1.153.06-1.941-.717-2.332-1.229a.203.203 0 0 1-.042-.119c0-.042.014-.084.041-.12a.253.253 0 0 1 .111-.082.302.302 0 0 1 .145-.018Z" fill="#fff"/><path d="M180.506 24.14c.334 0 .604-.229.604-.51 0-.282-.27-.51-.604-.51-.334 0-.604.228-.604.51 0 .281.27.51.604.51ZM186.379 24.72c.334 0 .604-.229.604-.51 0-.282-.27-.51-.604-.51-.334 0-.604.228-.604.51 0 .281.27.51.604.51Z" fill="#0C0C0C"/><path d="M193.769 29.101c1.463.24 2.953-.888 3.237-2.124.284-1.236-.745-2.112-2.208-2.352l-.945.705-1.342 3.565 1.258.206Z" fill="#E98862"/><path d="M192.735 26.887s.817-6.202-1.301-6.917c-1.41-.476-5.338.736-8.513-.297-1.391-.452-2.82-.36-3.082.193-.104.22-.3-3.186 2.484-5.321 2.218-1.7 8.209-1.36 10.742-.304 7.013 2.924 1.976 10.7 1.976 10.7l-.783 2.062-1.523-.116Z" fill="#0C0C0C"/><path opacity=".52" d="m183.11 27.38-.01-.001c-.47-.077-1.252-.249-1.185-.547.056-.247 1.46-2.784 1.621-3.072a.108.108 0 0 1 .069-.056.14.14 0 0 1 .134.028c.011.01.019.022.025.035a.095.095 0 0 1 .006.04.095.095 0 0 1-.013.04c-.623 1.124-1.564 2.856-1.602 3.024.031.078.503.226.991.305a.13.13 0 0 1 .077.042.09.09 0 0 1 .02.075.099.099 0 0 1-.046.066.137.137 0 0 1-.087.021Z" fill="#0C0C0C"/><path d="M182.776 21.165a3.382 3.382 0 0 0-1.518-.231 2.964 2.964 0 0 0-.745.15 3.22 3.22 0 0 0-.662.31.154.154 0 0 0-.077.094.13.13 0 0 0 .024.113.18.18 0 0 0 .112.066.206.206 0 0 0 .134-.02l.012-.007c.186-.1.385-.18.594-.238a2.5 2.5 0 0 1 .636-.093c.427-.01.849.076 1.225.248l.016.007a.315.315 0 0 0 .296-.018.218.218 0 0 0 .102-.15.188.188 0 0 0-.008-.088.216.216 0 0 0-.046-.078.273.273 0 0 0-.095-.065ZM186.239 21.954a2.856 2.856 0 0 1 1.259-.011c.21.044.411.115.596.21.189.095.362.21.516.343l.01.008a.195.195 0 0 0 .125.044.2.2 0 0 0 .126-.043.143.143 0 0 0 .053-.105.137.137 0 0 0-.05-.106 2.918 2.918 0 0 0-.563-.427 2.804 2.804 0 0 0-.687-.286 3.426 3.426 0 0 0-1.54-.06.274.274 0 0 0-.167.101.199.199 0 0 0-.033.171.232.232 0 0 0 .119.14.312.312 0 0 0 .203.029l.016-.004.017-.004ZM187.406 15.352c.623-1.299.281-2.642-.763-3-1.044-.357-2.396.406-3.019 1.705-.623 1.298-.281 2.641.763 2.999 1.044.357 2.396-.406 3.019-1.704Z" fill="#0C0C0C"/><path d="M167.742 52.252c.289 2.86 2.332 20.71 2.61 24.235h37.555c.216-3.179 1.185-17.077 2.003-23.293.781-5.931 1.876-8.63.976-10.473-1.587-3.251-6.637-4.703-10.057-5.094-2.089-.24-5.23-.41-5.23-.41s-.266 4.545-6.608 4.798c-8.633.343-8.056-4.798-8.099-4.798-1.398 0-9.011.859-10.915 1.907-2.688 1.48-3.483 3.498-3.514 5.352-.036 2.134.952 4.53 1.279 7.776Z" fill="#367CFF"/><path d="M134.663 36.947a.876.876 0 0 0-.252-.267 1.07 1.07 0 0 0-.356-.16 1.182 1.182 0 0 0-.787.078.908.908 0 0 0-.453.519.759.759 0 0 0 .087.64l.614 1.02-3.683-2.467c-.404-.28-1.112-.405-1.455-.002a.772.772 0 0 0-.226.524.761.761 0 0 0 .208.53.12.12 0 0 0-.012.008.036.036 0 0 0-.005.01l-.623-.433a1.086 1.086 0 0 0-.393-.167 1.184 1.184 0 0 0-.44-.009 1.098 1.098 0 0 0-.401.151.89.89 0 0 0-.287.282.747.747 0 0 0-.087.578c.05.195.179.37.365.494l.265.183c-.003.01-.004.02-.003.029a1.17 1.17 0 0 0-.681-.065c-.229.047-.431.16-.57.32a.773.773 0 0 0-.169.63c.04.22.177.42.384.557l.651.452a.112.112 0 0 0-.043.006.091.091 0 0 0-.034.022.066.066 0 0 0-.018.04 1.17 1.17 0 0 0-.621.068.951.951 0 0 0-.452.366.747.747 0 0 0-.087.578c.051.195.18.37.365.494l5.553 3.853c.777.539 1.727.87 2.728.95a5.837 5.837 0 0 0 2.89-.5l2.842-1.309-4.814-8.003Z" fill="#E98862"/><path opacity=".2" d="M131.991 39.817a.096.096 0 0 1-.061.028.105.105 0 0 1-.067-.017l-3.499-2.349a.089.089 0 0 1-.023-.023.064.064 0 0 1-.011-.03.053.053 0 0 1 .003-.03.076.076 0 0 1 .016-.027.097.097 0 0 1 .062-.029.107.107 0 0 1 .068.017l3.499 2.35a.089.089 0 0 1 .023.022c.006.01.01.02.011.03.002.01.001.02-.003.03a.077.077 0 0 1-.016.027l-.002.001ZM130.808 41.15a.105.105 0 0 1-.129.011l-3.905-2.62a.09.09 0 0 1-.023-.024.063.063 0 0 1-.011-.029c-.002-.01 0-.02.003-.03a.076.076 0 0 1 .016-.027.102.102 0 0 1 .062-.028.107.107 0 0 1 .068.015l3.905 2.622a.077.077 0 0 1 .034.052c.002.01.001.02-.003.03a.076.076 0 0 1-.016.027l-.001.002ZM129.536 42.599a.1.1 0 0 1-.062.027.101.101 0 0 1-.066-.016l-3.116-2.092a.077.077 0 0 1-.034-.052.07.07 0 0 1 .019-.058.104.104 0 0 1 .13-.013l3.115 2.092a.074.074 0 0 1 .034.052.07.07 0 0 1-.019.058l-.001.002Z" fill="#0C0C0C"/><path d="M187.851 83.127a1.088 1.088 0 0 0-.367.144.915.915 0 0 0-.27.254.73.73 0 0 0-.096.664.932.932 0 0 0 .489.496c.231.106.502.135.757.08l1.318-.262-3.71 2.438c-.418.265-.73.816-.347 1.192.136.154.329.263.548.31.22.049.452.033.658-.045a.06.06 0 0 0 .008.012.169.169 0 0 0 .009.007l-.645.408a.909.909 0 0 0-.285.283.746.746 0 0 0-.114.359c-.007.125.02.25.078.366a.856.856 0 0 0 .256.302c.179.13.407.204.643.208.237.005.468-.06.655-.182l.274-.174c.01.005.021.008.032.009a.769.769 0 0 0-.235.543.769.769 0 0 0 .233.545c.176.165.42.268.683.288.263.02.524-.046.732-.184l.674-.427a.058.058 0 0 0-.003.037.067.067 0 0 0 .017.034c.011.011.026.02.042.024a.731.731 0 0 0-.069.525.831.831 0 0 0 .313.458c.18.13.407.204.644.208.236.005.468-.06.654-.182l5.748-3.644c.805-.51 1.41-1.21 1.74-2.013.329-.802.368-1.67.11-2.49l-.83-2.644-10.344 2.053Z" fill="#E98862"/><path opacity=".2" d="M190.518 86.002a.068.068 0 0 1 .017.057.076.076 0 0 1-.035.051l-3.532 2.314a.09.09 0 0 1-.032.014.108.108 0 0 1-.07-.008.08.08 0 0 1-.027-.02.065.065 0 0 1-.016-.027.063.063 0 0 1-.003-.03.078.078 0 0 1 .011-.03.094.094 0 0 1 .024-.022l3.532-2.314a.104.104 0 0 1 .13.014h.001ZM191.769 87.289c.014.016.02.037.017.057a.076.076 0 0 1-.035.051l-3.94 2.583a.108.108 0 0 1-.069.016.097.097 0 0 1-.061-.03.07.07 0 0 1-.018-.057.077.077 0 0 1 .034-.052l3.941-2.583a.104.104 0 0 1 .129.014h.002ZM193.133 88.676a.068.068 0 0 1 .017.058.073.073 0 0 1-.035.05l-3.144 2.06a.103.103 0 0 1-.067.015.098.098 0 0 1-.06-.03.07.07 0 0 1-.019-.056.075.075 0 0 1 .033-.052l3.144-2.06a.105.105 0 0 1 .13.014l.001.001Z" fill="#0C0C0C"/><path d="m223.331 64.599-.07-.124-12.492-21.817-12.516 5.115 10.344 18.067-17.852 15.132 8.618 7.608 22.445-17.304c1.07-.827 1.796-1.923 2.07-3.126.275-1.202.083-2.448-.547-3.551Z" fill="#367CFF"/><path d="M196.037 76.576a.122.122 0 0 1-.059-.015.093.093 0 0 1-.039-.04.08.08 0 0 1-.006-.053.085.085 0 0 1 .029-.046l12.717-10.6-9.454-16.02a.077.077 0 0 1-.014-.034.089.089 0 0 1 .004-.036.106.106 0 0 1 .021-.032.102.102 0 0 1 .034-.023.124.124 0 0 1 .121.016.09.09 0 0 1 .025.03l9.49 16.077c.01.017.013.037.009.055a.083.083 0 0 1-.031.05L196.112 76.55a.119.119 0 0 1-.075.026Z" fill="#0C0C0C"/><path d="m169.037 39.672-17.474 13.622-12.862-13.582L130.124 47l14.364 16.816c1.292 2.182 4.074 3.502 6.932 3.156a7.457 7.457 0 0 0 3.055-1.061l.325-.202 23.441-16.573-9.204-9.464Z" fill="#367CFF"/><path d="M168.247 56.207a.12.12 0 0 1-.071-.022.089.089 0 0 1-.036-.057l-.813-5.15a.083.083 0 0 1 .022-.066.113.113 0 0 1 .07-.034.123.123 0 0 1 .079.017.09.09 0 0 1 .041.059l.813 5.15a.084.084 0 0 1-.002.035.098.098 0 0 1-.05.055.124.124 0 0 1-.053.013ZM153.72 56.034a.12.12 0 0 1-.054-.013.094.094 0 0 1-.039-.034l-2.158-2.65a.08.08 0 0 1-.009-.069.098.098 0 0 1 .051-.054.126.126 0 0 1 .082-.007c.027.006.05.022.064.043l2.157 2.65a.08.08 0 0 1 .013.045.075.075 0 0 1-.015.044.099.099 0 0 1-.039.033.12.12 0 0 1-.053.012Z" fill="#0C0C0C"/></svg>