<svg width="176" height="145" fill="none" xmlns="http://www.w3.org/2000/svg"><path d="M146.002 0H60.094v72.871h85.908V0Z" fill="#F4F4F4"/><path d="M146.987 0h-.985v72.871h.985V0Z" fill="#F4F4F4"/><path opacity=".05" d="M146.987 0h-.985v72.871h.985V0ZM125.191 50.214V31.15h-18.412v11.076h-28.52v19.613H66.14v11.033h75.731V50.214h-16.679Z" fill="#292A2E"/><path opacity=".34" d="M122.55 33.219h-13.407v2.07h13.407v-2.07ZM122.55 37.509h-13.407v2.07h13.407v-2.07ZM122.55 41.798h-13.407v2.07h13.407v-2.07ZM139.493 52.224h-2.472v2.07h2.472v-2.07ZM139.493 56.513h-2.472v2.07h2.472v-2.07ZM139.493 60.803h-2.472v2.07h2.472v-2.07ZM134.92 52.224h-2.471v2.07h2.471v-2.07ZM134.92 56.514h-2.471v2.07h2.471v-2.07ZM134.92 60.803h-2.471v2.07h2.471v-2.07ZM130.473 52.224h-2.472v2.07h2.472v-2.07ZM130.473 56.514h-2.472v2.07h2.472v-2.07ZM130.473 60.803h-2.472v2.07h2.472v-2.07Z" fill="#FFFFFA"/><path d="M146.002 36.027h-17.286V0h-1.429v36.027H80.594V0h-1.429v36.027H60.094v1.212h19.071v35.632h1.43V37.24h46.692V72.87h1.429V37.24h17.286v-1.213Z" fill="#fff"/><path d="M149.425 72.784H56.671v2.423h92.754v-2.423Z" fill="#F4F4F4"/><path opacity=".1" d="M149.425 72.784H56.671v2.423h92.754v-2.423ZM150.764 72.784h-1.339v2.423h1.339v-2.423Z" fill="#292A2E"/><path opacity=".1" d="M150.764 72.784h-1.339v2.423h1.339v-2.423Z" fill="#292A2E"/><path d="M146.987 1.3H60.093v1.803h86.894V1.3ZM146.987 4.666H60.093v1.802h86.894V4.666ZM146.987 8.032H60.093v1.801h86.894V8.032ZM146.987 11.397H60.093V13.2h86.894v-1.802ZM146.987 14.763H60.093v1.801h86.894v-1.801Z" fill="#fff"/><path d="M137.758 0h-1.302v18.596h1.302V0Z" fill="#fff"/><path d="M137.217 21.267c.988 0 1.789-.68 1.789-1.517 0-.838-.801-1.518-1.789-1.518-.988 0-1.789.68-1.789 1.518s.801 1.517 1.789 1.517Z" fill="#fff"/><path d="M170.813 145H.139a.159.159 0 0 1-.053-.009.144.144 0 0 1-.045-.026.103.103 0 0 1-.03-.038.1.1 0 0 1 0-.09.122.122 0 0 1 .03-.038.144.144 0 0 1 .045-.026.159.159 0 0 1 .053-.009h170.674c.036 0 .072.013.098.035.026.022.04.052.04.083a.109.109 0 0 1-.04.083.149.149 0 0 1-.098.035Z" fill="#292A2E"/><path opacity=".65" d="M170.813 145H.139a.159.159 0 0 1-.053-.009.144.144 0 0 1-.045-.026.103.103 0 0 1-.03-.038.1.1 0 0 1 0-.09.122.122 0 0 1 .03-.038.144.144 0 0 1 .045-.026.159.159 0 0 1 .053-.009h170.674c.036 0 .072.013.098.035.026.022.04.052.04.083a.109.109 0 0 1-.04.083.149.149 0 0 1-.098.035Z" fill="#292A2E"/><path d="m12.021 144.793-.39-.064 6.09-51.324.39.064-6.09 51.324ZM34.694 144.793l-.39-.064 6.09-51.324.389.064-6.09 51.324ZM84.81 144.793l.389-.064-6.089-51.324-.39.064 6.09 51.324ZM62.137 144.793l.39-.064-6.09-51.324-.389.064 6.09 51.324ZM54.062 70.817l-.393.045 3.557 22.598.393-.045-3.557-22.598ZM13.235 70.817l-.393.045 3.557 22.598.393-.045-3.557-22.598Z" fill="#494949"/><path d="M57.585 91.782H17.651c-1.077 0-1.95.741-1.95 1.655s.873 1.655 1.95 1.655h39.934c1.078 0 1.951-.74 1.951-1.655 0-.914-.873-1.655-1.95-1.655Z" fill="#292A2E"/><path opacity=".8" d="M57.585 91.782H17.651c-1.077 0-1.95.741-1.95 1.655s.873 1.655 1.95 1.655h39.934c1.078 0 1.951-.74 1.951-1.655 0-.914-.873-1.655-1.95-1.655Z" fill="#fff"/><path d="M57.585 95.26H17.652a2.354 2.354 0 0 1-1.507-.54c-.398-.341-.622-.802-.622-1.283 0-.48.224-.942.622-1.283.399-.341.94-.535 1.507-.54h39.933a2.354 2.354 0 0 1 1.507.54c.398.341.622.803.622 1.283 0 .48-.224.942-.622 1.283-.4.341-.94.536-1.507.54Zm-39.933-3.31a1.919 1.919 0 0 0-1.228.441c-.324.279-.506.654-.506 1.046s.182.767.506 1.046c.325.278.766.436 1.228.44h39.933a1.919 1.919 0 0 0 1.227-.44c.325-.279.507-.654.507-1.046 0-.391-.182-.767-.507-1.046a1.919 1.919 0 0 0-1.227-.44H17.652Z" fill="#292A2E"/><path d="M79.504 91.782H39.569c-1.077 0-1.95.741-1.95 1.655s.873 1.655 1.95 1.655h39.934c1.078 0 1.951-.74 1.951-1.655 0-.914-.873-1.655-1.95-1.655Z" fill="#fff"/><path d="M79.504 95.26H39.569a2.488 2.488 0 0 1-.828-.134 2.216 2.216 0 0 1-.705-.394 1.838 1.838 0 0 1-.471-.593 1.587 1.587 0 0 1-.166-.702c0-.24.057-.48.166-.702.11-.222.27-.424.471-.593.202-.17.441-.304.705-.394.263-.09.544-.136.828-.134h39.934c.284-.002.566.043.83.134.263.09.502.224.704.394.201.17.362.371.471.593.11.223.166.461.166.702 0 .241-.057.48-.166.702-.11.222-.27.424-.471.594-.202.169-.442.303-.705.393-.263.091-.544.137-.828.134Zm-39.935-3.31a2.03 2.03 0 0 0-.676.109c-.215.074-.41.183-.575.321a1.501 1.501 0 0 0-.385.485c-.089.18-.135.376-.135.572 0 .197.046.391.135.573.09.181.22.346.385.484s.36.247.575.321c.215.074.445.11.676.109h39.934a2.03 2.03 0 0 0 .677-.109c.215-.074.41-.183.575-.321a1.5 1.5 0 0 0 .385-.484c.089-.182.135-.376.135-.573 0-.197-.046-.391-.135-.572a1.501 1.501 0 0 0-.385-.485 1.808 1.808 0 0 0-.575-.321 2.03 2.03 0 0 0-.677-.109H39.57ZM51.876 70.84h-38.73a2.892 2.892 0 0 1-1.72-.55c-.476-.355-.784-.844-.865-1.377L7.999 52.225a1.892 1.892 0 0 1 .091-.93c.108-.3.29-.578.535-.815.245-.236.546-.425.884-.555.338-.13.705-.197 1.075-.197h38.73c.633 0 1.244.196 1.72.55.476.355.783.844.865 1.376l2.562 16.688c.048.312.017.629-.091.93-.108.3-.29.579-.535.815a2.623 2.623 0 0 1-.884.555 3.01 3.01 0 0 1-1.075.197Z" fill="#292A2E"/><path opacity=".8" d="M51.876 70.84h-38.73a2.892 2.892 0 0 1-1.72-.55c-.476-.355-.784-.844-.865-1.377L7.999 52.225a1.892 1.892 0 0 1 .091-.93c.108-.3.29-.578.535-.815.245-.236.546-.425.884-.555.338-.13.705-.197 1.075-.197h38.73c.633 0 1.244.196 1.72.55.476.355.783.844.865 1.376l2.562 16.688c.048.312.017.629-.091.93-.108.3-.29.579-.535.815a2.623 2.623 0 0 1-.884.555 3.01 3.01 0 0 1-1.075.197Z" fill="#fff"/><path d="M51.875 71.008h-38.73a3.12 3.12 0 0 1-1.849-.593c-.511-.382-.843-.907-.932-1.48L7.802 52.247a2.035 2.035 0 0 1 .098-1c.116-.324.313-.623.576-.877.263-.255.587-.458.951-.598.364-.14.758-.212 1.157-.212h38.73a3.12 3.12 0 0 1 1.85.593c.511.382.842.907.932 1.48l2.562 16.688c.051.335.018.676-.099 1a2.308 2.308 0 0 1-.576.877 2.824 2.824 0 0 1-.95.598c-.364.14-.759.212-1.158.212ZM10.584 49.896c-.343 0-.681.062-.993.182-.313.12-.59.295-.817.514a1.981 1.981 0 0 0-.494.753c-.1.278-.129.57-.085.859l2.562 16.688c.077.491.361.943.8 1.27a2.68 2.68 0 0 0 1.589.51h38.73c.342 0 .68-.063.993-.183.312-.12.59-.295.816-.513.227-.219.395-.475.495-.754.1-.278.128-.57.084-.859l-2.562-16.687c-.077-.492-.361-.943-.8-1.27a2.678 2.678 0 0 0-1.589-.51H10.584Z" fill="#292A2E"/><path d="M54.065 70.84h-38.73a2.893 2.893 0 0 1-1.72-.55c-.476-.355-.783-.844-.865-1.377l-2.562-16.688a1.893 1.893 0 0 1 .092-.93c.108-.3.29-.578.535-.815.245-.236.546-.425.884-.555a3.01 3.01 0 0 1 1.075-.197h38.73c.633 0 1.244.196 1.72.55.476.354.783.844.865 1.376l2.562 16.688c.048.312.016.629-.092.93-.108.3-.29.579-.535.815a2.623 2.623 0 0 1-.884.555c-.337.13-.704.197-1.075.197Z" fill="#fff"/><path d="M54.065 71.008h-38.73a3.12 3.12 0 0 1-1.849-.593c-.512-.382-.843-.907-.932-1.48L9.992 52.247a2.036 2.036 0 0 1 .098-1c.116-.324.313-.623.576-.877.263-.255.587-.458.95-.598.364-.14.759-.212 1.158-.212h38.73a3.12 3.12 0 0 1 1.85.593c.51.382.842.907.931 1.48l2.562 16.688c.052.335.018.676-.098 1a2.307 2.307 0 0 1-.576.877 2.82 2.82 0 0 1-.95.598c-.364.14-.759.212-1.158.212ZM12.774 49.896c-.343 0-.681.062-.993.182-.313.12-.591.295-.817.514a1.981 1.981 0 0 0-.495.753c-.1.278-.128.57-.084.859l2.562 16.688c.077.491.361.943.8 1.27.44.327 1.004.508 1.589.51h38.73c.342 0 .68-.063.993-.183.312-.12.59-.295.817-.513.226-.219.394-.475.494-.754.1-.278.129-.57.084-.859l-2.562-16.687c-.076-.492-.36-.943-.8-1.27a2.678 2.678 0 0 0-1.588-.51h-38.73Z" fill="#292A2E"/><path d="M108.686 136.209s1.063 4.677 6.225 4.937c5.162.261 4.043 3.749 4.043 3.749H99.228v-8.36l9.458-.326ZM71.158 133.256s-1.479 4.595 3.017 6.762c4.497 2.166 1.677 4.877 1.677 4.877l-17.7-7.387 4.35-7.501 8.656 3.249Z" fill="#367CFF"/><path d="M55.275 24.288s2.574-1.648 3.212-5.44c.493-2.937-2.7-1.035-2.7-1.035s.33-2.117-1.488-1.907c-1.819.21-2.837 2.434-2.837 2.434M44.899 16.154s-9.025.82-5.762 11.193l.798.045 1.621.093" fill="#0C0C0C"/><path d="M53.764 38.18c-.04-.004-.48 6.192-8.968 5.652-5.875-.373-7.97-5.66-8.105-5.66.634-.115 1.417-.288 1.728-.348a3.598 3.598 0 0 0 1.76-.876 2.74 2.74 0 0 0 .862-1.569c.172-.878-.12-5.372-.03-6.26l9.019 1.707c-.126 1.877-1.008 6.228 2.083 6.998.515.128 1.069.245 1.65.356Z" fill="#E98862"/><path opacity=".52" d="M50.157 36.046a4.806 4.806 0 0 1-.272-1.187c-.099-.92-.079-1.846.06-2.762-1.833-.21-3.56-.852-4.985-1.853-.167.525-1.088 2.817-.833 3.316.481.942 2.746 2.486 6.03 2.486Z" fill="#0C0C0C"/><path d="M48.295 34.82c-3.558-.271-7.817-2.178-7.878-6.275l-.055-3.697c-.062-4.096 2.425-7.445 6.973-7.494 4.547-.05 7.996 3.235 8.057 7.332l.025 1.637a10.54 10.54 0 0 1-.145 1.68c-.233 1.472-.595 3.71-1.772 5.224-1.113 1.43-2.932 1.765-5.205 1.592Z" fill="#E98862"/><path d="M49.946 31.075a5.427 5.427 0 0 0 2.136-.346.118.118 0 0 0 .037-.022c.01-.009.019-.02.025-.032a.084.084 0 0 0-.001-.074.098.098 0 0 0-.026-.031.118.118 0 0 0-.037-.021.136.136 0 0 0-.088 0c-1.444.523-2.755.446-3.792-.22a.762.762 0 0 0-.065-.04.133.133 0 0 0-.083-.004.113.113 0 0 0-.065.044.085.085 0 0 0-.013.07.098.098 0 0 0 .047.058 3.833 3.833 0 0 0 1.925.617ZM49.912 31.998c.132.007.265.004.398-.009a.121.121 0 0 0 .077-.035.088.088 0 0 0 .024-.072.094.094 0 0 0-.041-.065.13.13 0 0 0-.085-.021c-.794.072-1.174-.237-1.19-.25a.127.127 0 0 0-.08-.027c-.03 0-.059.01-.08.028a.09.09 0 0 0-.034.068c0 .025.011.05.032.068.273.198.62.309.979.315ZM53.89 27.11c.31 0 .56-.212.56-.475 0-.262-.25-.475-.56-.475-.31 0-.56.213-.56.475 0 .263.25.475.56.475ZM48.418 26.82c.31 0 .56-.214.56-.476s-.25-.475-.56-.475c-.31 0-.56.213-.56.475s.25.475.56.475Z" fill="#0C0C0C"/><path d="M40.718 29.79c-1.382.015-2.52-1.227-2.539-2.4-.018-1.172 1.093-1.83 2.475-1.845l.724.778.528 3.454-1.188.013Z" fill="#E98862"/><path d="M42.092 27.906s.467-5.797 2.539-6.155c1.38-.238 4.727 1.422 7.827.921 1.356-.219 2.644.065 2.775.609.052.215.897-2.877-1.227-5.224-1.691-1.867-7.225-2.396-9.743-1.783-6.97 1.696-3.895 9.526-3.895 9.526l.311 1.999 1.413.107ZM50.78 29.706h.009c.445-.003 1.192-.052 1.189-.334-.003-.235-.789-2.756-.879-3.043a.104.104 0 0 0-.054-.051.132.132 0 0 0-.081-.008.114.114 0 0 0-.066.041.085.085 0 0 0-.017.068c.35 1.116.869 2.835.871 2.995-.043.067-.503.136-.964.14-.03 0-.057.01-.078.028a.09.09 0 0 0-.033.066c-.001.024.01.048.029.067.02.018.046.03.075.031Z" fill="#0C0C0C"/><path d="M52.3 24.059a3.16 3.16 0 0 1 1.43 0 2.747 2.747 0 0 1 1.194.618c.031.025.05.06.05.096a.128.128 0 0 1-.044.1.179.179 0 0 1-.113.044.184.184 0 0 1-.117-.035l-.01-.007a2.469 2.469 0 0 0-.496-.301 2.222 2.222 0 0 0-.563-.175c-.388-.069-.79-.05-1.166.056l-.016.004a.289.289 0 0 1-.19-.008.227.227 0 0 1-.126-.12.181.181 0 0 1 .01-.16c.028-.051.079-.09.141-.109l.016-.003ZM48.986 24.297a2.597 2.597 0 0 0-1.147-.186c-.2.01-.397.047-.585.109-.19.061-.371.143-.538.242l-.01.006a.191.191 0 0 1-.121.02.17.17 0 0 1-.103-.057.124.124 0 0 1-.03-.101.138.138 0 0 1 .063-.09c.183-.125.384-.23.597-.312a2.72 2.72 0 0 1 .683-.166c.237-.028.477-.029.713-.002.243.026.48.08.705.163.06.023.108.064.132.116a.182.182 0 0 1-.003.162.235.235 0 0 1-.137.112.29.29 0 0 1-.204-.008l-.015-.008ZM51.635 20.068c1.023-.181 1.597-1.363 1.282-2.64-.314-1.278-1.398-2.166-2.421-1.985-1.023.182-1.597 1.364-1.283 2.641.315 1.277 1.399 2.166 2.422 1.984Z" fill="#0C0C0C"/><path d="m60.196 131.959 14.926-39.943H48.066c-5.436 0-7.701-3.91-7.701-8.52 0-4.61 5.343-8.65 10.778-8.65h36.516c3.315 0 7.032 1.72 8.85 4.07 1.82 2.35 1.328 5.993.01 8.573l-23.902 49.243" fill="#262626"/><path opacity=".8" d="m60.196 131.959 14.926-39.943H48.066c-5.436 0-7.701-3.91-7.701-8.52 0-4.61 5.343-8.65 10.778-8.65h36.516c3.315 0 7.032 1.72 8.85 4.07 1.82 2.35 1.328 5.993.01 8.573l-23.902 49.243" fill="#0A0A0A"/><path d="M98.094 140.552 73.136 92.016l-32.771-.002c-7.68-.51-11.196-4.08-11.084-8.689.11-4.55 2.827-9.045 8.167-9.045h44.17c3.95.069 7.06 3.773 8.526 6.886l20.748 56.415" fill="#262626"/><path d="M27.046 74.336s-1.456 8.05.851 12.526c2.88 5.588 13.677 5.153 13.677 5.153l-.609-17.735-13.92.056Z" fill="#262626"/><path d="m91.082 74.177-23.148-4.069a6.33 6.33 0 0 1-2.613-1.085c-.75-.542-1.326-1.236-1.675-2.017L54.54 46.655a4.3 4.3 0 0 1-.39-1.917c.021-.654.194-1.298.509-1.896a5.07 5.07 0 0 1 1.326-1.585c.562-.45 1.222-.8 1.943-1.033a6.809 6.809 0 0 1 2.261-.32c.771.02 1.53.17 2.233.44.703.269 1.336.654 1.863 1.132.527.478.937 1.04 1.208 1.653l7.964 17.802 20.002 3.515s-1.976 9.802-2.378 9.731Z" fill="#367CFF"/><path d="M64.309 51.824c-.267 2.663-2.162 19.284-2.42 22.565H27.06c-.2-2.96-1.099-15.9-1.857-21.688-.725-5.523-1.74-8.036-.906-9.752 1.472-3.027 6.155-4.379 9.327-4.743 1.937-.222 4.85-.382 4.85-.382s.246 4.232 6.127 4.468c8.006.32 7.472-4.468 7.511-4.468 1.297 0 8.357.8 10.122 1.776 2.493 1.379 3.23 3.257 3.26 4.983.033 1.987-.883 4.218-1.186 7.24Z" fill="#367CFF"/><path d="M62.94 65.403h-.009a.114.114 0 0 1-.037-.009.098.098 0 0 1-.03-.02.082.082 0 0 1-.019-.03.073.073 0 0 1-.004-.032l.904-9.212c0-.012.004-.023.01-.032a.086.086 0 0 1 .024-.026.112.112 0 0 1 .073-.019c.013 0 .025.004.037.009a.098.098 0 0 1 .03.02.08.08 0 0 1 .019.029c.004.01.005.021.004.032l-.904 9.213a.08.08 0 0 1-.031.055.11.11 0 0 1-.067.022Z" fill="#0C0C0C"/><path d="m68.539 72.562 7.641-19.926a1.79 1.79 0 0 1 .747-.872 2.313 2.313 0 0 1 1.209-.333h31.133c.324 0 .644.066.934.19.289.126.539.307.73.53.19.222.316.48.367.752.05.272.025.55-.076.812l-7.642 19.926c-.134.35-.395.655-.747.871a2.313 2.313 0 0 1-1.208.333H70.494c-.324 0-.644-.065-.933-.19a2.004 2.004 0 0 1-.73-.529 1.613 1.613 0 0 1-.368-.752c-.05-.272-.024-.55.076-.812Z" fill="#292A2E"/><path opacity=".2" d="m68.539 72.562 7.641-19.926a1.79 1.79 0 0 1 .747-.872 2.313 2.313 0 0 1 1.209-.333h31.133c.324 0 .644.066.934.19.289.126.539.307.73.53.19.222.316.48.367.752.05.272.025.55-.076.812l-7.642 19.926c-.134.35-.395.655-.747.871a2.313 2.313 0 0 1-1.208.333H70.494c-.324 0-.644-.065-.933-.19a2.004 2.004 0 0 1-.73-.529 1.613 1.613 0 0 1-.368-.752c-.05-.272-.024-.55.076-.812Z" fill="#fff"/><path d="M74.772 73.23h-20.84c-.52 0-.94.357-.94.797v.02c0 .441.42.799.94.799h20.84c.52 0 .94-.358.94-.798v-.02c0-.441-.42-.798-.94-.798Z" fill="#292A2E"/><path opacity=".2" d="M74.772 73.23h-20.84c-.52 0-.94.357-.94.797v.02c0 .441.42.799.94.799h20.84c.52 0 .94-.358.94-.798v-.02c0-.441-.42-.798-.94-.798Z" fill="#fff"/><path d="M89.881 66.88c1.804 0 3.266-1.24 3.266-2.77 0-1.529-1.462-2.77-3.266-2.77-1.803 0-3.265 1.241-3.265 2.77 0 1.53 1.462 2.77 3.265 2.77ZM64.624 48.11h-8.278v8.611h8.278V48.11Z" fill="#fff"/><path d="M56.346 55.291c-.67 0-1.326-.169-1.884-.485-.557-.316-.992-.765-1.248-1.29a2.473 2.473 0 0 1-.193-1.662c.13-.557.453-1.07.928-1.472a3.613 3.613 0 0 1 1.735-.787 3.957 3.957 0 0 1 1.96.163c.619.218 1.148.587 1.52 1.06.373.473.572 1.029.572 1.597-.001.763-.359 1.494-.994 2.033-.636.539-1.497.842-2.396.843Zm0-4.573c-.396 0-.783.1-1.112.286-.33.186-.586.452-.738.762a1.46 1.46 0 0 0-.113.98c.077.33.267.633.547.87.28.238.637.4 1.025.465.389.065.791.032 1.157-.097s.678-.346.898-.625c.22-.28.337-.608.337-.944 0-.45-.211-.881-.587-1.2a2.198 2.198 0 0 0-1.414-.497Z" fill="#fff"/><path d="M56.823 53.691a.813.813 0 0 0-.401-.391 1.036 1.036 0 0 0-.604-.081.06.06 0 0 0 .006-.026l.278-.105a.877.877 0 0 0 .453-.354.674.674 0 0 0 .087-.517.717.717 0 0 0-.169-.301.883.883 0 0 0-.304-.212 1.026 1.026 0 0 0-.766-.014l-.655.248c0-.002 0-.004-.002-.007a.056.056 0 0 0-.01-.012.764.764 0 0 0 .328-.416.653.653 0 0 0-.049-.498c-.182-.417-.826-.45-1.252-.29l-1.713.587.517-.445a.73.73 0 0 0 .254-.536.726.726 0 0 0-.245-.54.92.92 0 0 0-.3-.17 1.037 1.037 0 0 0-.708.013.905.905 0 0 0-.292.18l-6.09 5.642 2.083 1.701a4.84 4.84 0 0 0 2.35 1.013 5.25 5.25 0 0 0 2.615-.275l3.712-1.411a.877.877 0 0 0 .453-.354.675.675 0 0 0 .086-.517.748.748 0 0 0-.286-.406.983.983 0 0 0-.515-.183.058.058 0 0 0-.011-.051.073.073 0 0 0-.023-.019.09.09 0 0 0-.029-.01l.686-.26a.876.876 0 0 0 .487-.405.679.679 0 0 0 .029-.578Z" fill="#E98862"/><path opacity=".2" d="M53.509 52.415a.094.094 0 0 1-.054-.016.07.07 0 0 1-.03-.042.062.062 0 0 1 .01-.047.081.081 0 0 1 .043-.032l1.158-.387a.097.097 0 0 1 .065 0c.01.004.019.01.027.016a.071.071 0 0 1 .017.024.062.062 0 0 1 0 .054.073.073 0 0 1-.02.023.087.087 0 0 1-.027.015l-1.159.387a.099.099 0 0 1-.03.005ZM54.155 53.805a.093.093 0 0 1-.053-.017.07.07 0 0 1-.03-.04.062.062 0 0 1 .01-.048.081.081 0 0 1 .042-.033l1.584-.54a.098.098 0 0 1 .063.002c.02.008.035.022.043.038a.062.062 0 0 1 0 .054.078.078 0 0 1-.043.038l-1.584.54a.101.101 0 0 1-.032.006ZM54.847 55.313a.094.094 0 0 1-.054-.016.07.07 0 0 1-.029-.042.062.062 0 0 1 .01-.048.082.082 0 0 1 .043-.032l.756-.24a.098.098 0 0 1 .064.002c.02.007.036.022.044.04a.061.061 0 0 1-.002.054.08.08 0 0 1-.047.038l-.755.24a.098.098 0 0 1-.03.005Z" fill="#0C0C0C"/><path d="M58.584 42.631a.225.225 0 0 1-.103-.024.183.183 0 0 1-.073-.067c-.452-.747-1.014-1.677-.95-2.651.05-.776.478-1.464.892-2.13.267-.401.495-.822.681-1.255a3.417 3.417 0 0 0 .168-1.855 3.695 3.695 0 0 0-.842-1.718.16.16 0 0 1-.035-.06.143.143 0 0 1 .02-.13.182.182 0 0 1 .053-.05.234.234 0 0 1 .224-.007.189.189 0 0 1 .057.047c.474.551.787 1.19.914 1.864a3.71 3.71 0 0 1-.18 2.014c-.193.452-.43.89-.707 1.308-.413.663-.803 1.288-.848 1.99-.058.884.455 1.732.907 2.48a.148.148 0 0 1-.007.164.188.188 0 0 1-.073.059.226.226 0 0 1-.096.021h-.002ZM61.77 45.258a.223.223 0 0 1-.122-.036.169.169 0 0 1-.07-.09.144.144 0 0 1 .01-.11.181.181 0 0 1 .086-.08c.735-.344.817-1.301.472-2.028a7.02 7.02 0 0 0-.6-.965c-.305-.4-.552-.83-.738-1.279a2.715 2.715 0 0 1-.034-1.682 3.1 3.1 0 0 1 .983-1.462.219.219 0 0 1 .14-.046c.053 0 .102.019.139.05a.156.156 0 0 1 .056.12.157.157 0 0 1-.059.117c-.425.36-.728.81-.876 1.304a2.421 2.421 0 0 0 .03 1.5c.177.424.412.83.7 1.206.239.323.448.661.627 1.011.404.851.314 1.998-.649 2.449a.225.225 0 0 1-.095.02Z" fill="#fff"/><path d="M52.169 59.924 22.96 70.178a6.838 6.838 0 0 1-3.326.28c-1.118-.182-2.148-.636-2.966-1.308-.818-.67-1.387-1.53-1.639-2.47a4.259 4.259 0 0 1 .221-2.83l8.712-20.183c1.126-2.573 4.299-4.052 7.332-3.096 1.456.459 2.638 1.39 3.285 2.587a4.28 4.28 0 0 1 .166 3.8l-3.973 9.553 17.118-5.598" fill="#367CFF"/><path d="M52.098 60.016a.09.09 0 0 1-.044-.012.071.071 0 0 1-.029-.03l-4.25-8.95-17.06 5.584a.091.091 0 0 1-.045.003.082.082 0 0 1-.04-.018.064.064 0 0 1-.02-.033.057.057 0 0 1 .003-.038l2.639-5.743a.072.072 0 0 1 .04-.037.09.09 0 0 1 .06 0c.02.006.035.018.044.034a.057.057 0 0 1 0 .05l-2.573 5.604 16.968-5.554a.092.092 0 0 1 .06 0c.018.008.033.02.04.037l4.28 9.012a.058.058 0 0 1-.002.05.074.074 0 0 1-.042.036.09.09 0 0 1-.03.005Z" fill="#0C0C0C"/><path d="M25.355 58.386a.088.088 0 0 1-.05-.015.065.065 0 0 1-.027-.04.058.058 0 0 1 .009-.044.076.076 0 0 1 .04-.03l5.344-1.783a.088.088 0 0 1 .06 0c.01.004.018.009.025.015a.067.067 0 0 1 .017.022.057.057 0 0 1-.001.051.067.067 0 0 1-.018.022.08.08 0 0 1-.026.013l-5.344 1.784a.092.092 0 0 1-.029.005ZM26.6 68.98a.087.087 0 0 1-.05-.014.065.065 0 0 1-.027-.039.057.057 0 0 1 .008-.044.075.075 0 0 1 .04-.03l25.498-8.965a.092.092 0 0 1 .06 0c.009.004.018.009.025.015a.064.064 0 0 1 .017.021.058.058 0 0 1 0 .051.066.066 0 0 1-.017.021.082.082 0 0 1-.026.015L26.63 68.975a.087.087 0 0 1-.03.006Z" fill="#0C0C0C"/><path d="M156.053 122.934a.213.213 0 0 1-.14-.049c-.28-.237-.735-4.586-1.962-17.536-.503-5.299-.977-10.304-1.323-13.346-.025-.217-.124-.242-.157-.25-.473-.122-1.914.842-2.719 1.686a.225.225 0 0 1-.279.025.163.163 0 0 1-.072-.113.15.15 0 0 1 .043-.124c.532-.558 2.266-2.02 3.141-1.797.177.045.397.175.438.541.346 3.044.821 8.051 1.323 13.351.746 7.869 1.59 16.785 1.868 17.346a.158.158 0 0 1 .037.086.15.15 0 0 1-.022.089.176.176 0 0 1-.073.067.214.214 0 0 1-.103.024Z" fill="#494949"/><path d="M152.119 97.585c3.291-2.238 4.382-5.722 2.436-7.781-1.946-2.06-6.191-1.914-9.483.324-3.291 2.238-4.382 5.722-2.437 7.78 1.946 2.06 6.192 1.915 9.484-.323Z" fill="#0CBC8B"/><path opacity=".2" d="M152.119 97.585c3.291-2.238 4.382-5.722 2.436-7.781-1.946-2.06-6.191-1.914-9.483.324-3.291 2.238-4.382 5.722-2.437 7.78 1.946 2.06 6.192 1.915 9.484-.323Z" fill="#fff"/><path d="M143.558 98.433a.111.111 0 0 1-.053-.014.09.09 0 0 1-.037-.035.076.076 0 0 1 .014-.09l9.381-9.595a.108.108 0 0 1 .067-.031.12.12 0 0 1 .039.003.1.1 0 0 1 .059.042c.006.01.01.02.011.032a.075.075 0 0 1-.005.033.075.075 0 0 1-.019.028l-9.38 9.596a.112.112 0 0 1-.077.03Z" fill="#fff"/><path d="M158.099 120.877a.23.23 0 0 1-.091-.018.198.198 0 0 1-.071-.052.168.168 0 0 1-.035-.074.152.152 0 0 1 .009-.079l3.524-8.596c.104-.253.281-.479.514-.659.234-.179.517-.306.824-.369.306-.063.626-.059.931.01.304.07.583.203.811.387l1.863 1.51c.038.031.06.073.062.118a.157.157 0 0 1-.055.12.22.22 0 0 1-.139.052.219.219 0 0 1-.142-.047l-1.863-1.509c-.18-.146-.4-.251-.64-.306a1.768 1.768 0 0 0-.735-.008c-.242.05-.466.15-.65.292-.185.141-.324.32-.406.52l-3.524 8.595a.172.172 0 0 1-.072.082.228.228 0 0 1-.115.031Z" fill="#494949"/><path d="M171.583 117.696c2.439-1.638 2.294-5.24-.324-8.046-2.618-2.805-6.718-3.752-9.157-2.114-2.44 1.638-2.295 5.24.324 8.045 2.618 2.806 6.718 3.753 9.157 2.115Z" fill="#0CBC8B"/><path d="M154.452 122.386a.217.217 0 0 1-.123-.036.164.164 0 0 1-.07-.093l-5.913-20.972a.783.783 0 0 0-.249-.378.986.986 0 0 0-.445-.212 1.1 1.1 0 0 0-.51.015.968.968 0 0 0-.425.238l-1.823 1.787a.196.196 0 0 1-.061.04.242.242 0 0 1-.075.018.21.21 0 0 1-.144-.041.155.155 0 0 1-.068-.115.154.154 0 0 1 .048-.122l1.823-1.787c.161-.158.37-.275.605-.338.234-.064.485-.071.724-.021.239.049.458.154.631.301.174.148.296.334.354.537l5.913 20.973a.146.146 0 0 1-.024.127.197.197 0 0 1-.123.075.228.228 0 0 1-.045.004Z" fill="#494949"/><path d="M152.271 107.394c.719-3.526-1.184-6.749-4.249-7.199-3.066-.45-6.133 2.045-6.852 5.57-.719 3.526 1.183 6.749 4.249 7.199 3.065.45 6.133-2.044 6.852-5.57Z" fill="#0CBC8B"/><path d="m156.053 122.934-.024-.001a.206.206 0 0 1-.132-.063.15.15 0 0 1-.041-.124l3.776-26.006c.041-.283.178-.55.394-.77.216-.219.502-.38.823-.465.322-.084.665-.088.989-.01.324.076.615.231.838.446l4.316 4.146a.154.154 0 0 1 .049.122.16.16 0 0 1-.067.116.221.221 0 0 1-.143.041.212.212 0 0 1-.137-.056l-4.316-4.147a1.4 1.4 0 0 0-.647-.345 1.583 1.583 0 0 0-.765.009c-.248.065-.469.19-.636.36-.167.17-.273.376-.304.595l-3.777 26.005a.163.163 0 0 1-.065.105.218.218 0 0 1-.131.042Z" fill="#494949"/><path d="M171.418 102.391c1.505-2.309-.266-5.585-3.958-7.317-3.691-1.732-7.904-1.264-9.41 1.045-1.506 2.31.266 5.585 3.957 7.317 3.692 1.732 7.905 1.264 9.411-1.045Z" fill="#0CBC8B"/><path opacity=".2" d="M171.583 117.696c2.439-1.638 2.294-5.24-.324-8.046-2.618-2.805-6.718-3.752-9.157-2.114-2.44 1.638-2.295 5.24.324 8.045 2.618 2.806 6.718 3.753 9.157 2.115Z" fill="#fff"/><path opacity=".5" d="M152.271 107.394c.719-3.526-1.184-6.749-4.249-7.199-3.066-.45-6.133 2.045-6.852 5.57-.719 3.526 1.183 6.749 4.249 7.199 3.065.45 6.133-2.044 6.852-5.57ZM171.418 102.391c1.505-2.309-.266-5.585-3.958-7.317-3.691-1.732-7.904-1.264-9.41 1.045-1.506 2.31.266 5.585 3.957 7.317 3.692 1.732 7.905 1.264 9.411-1.045Z" fill="#fff"/><path d="M160.883 145h-9.66l-1.6-26.215h12.86l-1.6 26.215Z" fill="#292A2E"/><path opacity=".3" d="M160.883 145h-9.66l-1.6-26.215h12.86l-1.6 26.215Z" fill="#fff"/><path d="M171.583 117.779a.13.13 0 0 1-.043-.008.105.105 0 0 1-.034-.024l-9.482-10.16a.078.078 0 0 1-.021-.062.08.08 0 0 1 .037-.056.11.11 0 0 1 .073-.018c.026.003.05.014.066.031l9.482 10.161a.075.075 0 0 1 .012.089.107.107 0 0 1-.09.047ZM170.787 103.205a.106.106 0 0 1-.058-.017l-12.133-7.514a.078.078 0 0 1-.026-.024.075.075 0 0 1-.014-.031.073.073 0 0 1 .002-.033.089.089 0 0 1 .016-.03.105.105 0 0 1 .065-.033.119.119 0 0 1 .039.001.119.119 0 0 1 .035.014l12.133 7.515a.089.089 0 0 1 .035.042.077.077 0 0 1 0 .052.089.089 0 0 1-.036.041.106.106 0 0 1-.058.016v.001ZM144.926 112.855a.115.115 0 0 1-.026-.003.098.098 0 0 1-.06-.04.071.071 0 0 1-.01-.063l3.862-12.275a.09.09 0 0 1 .046-.052.099.099 0 0 1 .037-.011.102.102 0 0 1 .039.002.1.1 0 0 1 .035.015.07.07 0 0 1 .026.025.07.07 0 0 1 .012.031.062.062 0 0 1-.003.033l-3.862 12.275a.083.083 0 0 1-.036.045.111.111 0 0 1-.06.018Z" fill="#fff"/></svg>