<svg width="211" height="145" fill="none" xmlns="http://www.w3.org/2000/svg"><path opacity=".2" d="m63.102 18.798-.15-.038-47.616 98.68 167.854 12.827.189.014 6.15-80.106.012-.157-126.44-31.22Zm48.219 63.46L15.997 116.94l47.096-97.603 48.228 62.92Zm.279.297 70.905 47.283-165.999-12.684 95.094-34.6Zm.088-.438L63.531 19.29l125.21 30.916-77.053 31.913Zm71.353 47.627-71.018-47.36 77.105-31.933-6.087 79.293Z" fill="#367CFF"/><path d="M210.982 51.843a23.367 23.367 0 0 1-3.143 10.801 23.663 23.663 0 0 1-7.844 8.129 24.008 24.008 0 0 1-21.974 1.861 23.523 23.523 0 0 1-4.696-2.612 23.716 23.716 0 0 1-6.804-7.52v-.003a23.366 23.366 0 0 1-3.039-10.344 23.335 23.335 0 0 1 1.936-10.6 23.553 23.553 0 0 1 6.503-8.636 23.872 23.872 0 0 1 9.71-4.863 24.01 24.01 0 0 1 10.881-.071 23.88 23.88 0 0 1 9.774 4.735 23.57 23.57 0 0 1 6.619 8.55 23.322 23.322 0 0 1 2.077 10.573Z" fill="#fff"/><path opacity=".09" d="M210.982 51.843a23.367 23.367 0 0 1-3.143 10.801 23.663 23.663 0 0 1-7.844 8.129 24.008 24.008 0 0 1-21.974 1.861 23.523 23.523 0 0 1-4.696-2.612 23.716 23.716 0 0 1-6.804-7.52v-.003a23.366 23.366 0 0 1-3.039-10.344 23.335 23.335 0 0 1 1.936-10.6 23.553 23.553 0 0 1 6.503-8.636 23.872 23.872 0 0 1 9.71-4.863 24.01 24.01 0 0 1 10.881-.071 23.88 23.88 0 0 1 9.774 4.735 23.57 23.57 0 0 1 6.619 8.55 23.322 23.322 0 0 1 2.077 10.573Z" fill="#367CFF"/><path d="M192.847 33.007s5.684.069 3.724 7.823l-.534.026-1.083.052" fill="#0C0C0C"/><path d="M186.5 48.964c.026-.002.131 4.834 5.81 4.631 3.932-.14 5.491-4.203 5.581-4.2-.419-.105-1.126-.262-1.309-.368-.605-.352-1.355-.723-1.508-1.918-.088-.688.244-4.18.211-4.874l-6.069 1.099c.026 1.464.482 4.875-1.604 5.396-.347.086-.721.163-1.112.234Z" fill="#E98862"/><path opacity=".52" d="M188.972 47.395a4.26 4.26 0 0 0 .217-.917 9.801 9.801 0 0 0 .045-2.152 6.64 6.64 0 0 0 3.382-1.315c.096.412.641 2.222.454 2.603-.349.722-1.908 1.866-4.098 1.782Z" fill="#0C0C0C"/><path d="M190.349 46.54c2.38-.168 5.25-1.602 5.35-4.793l.09-2.88c.099-3.19-1.514-5.83-4.548-5.923-3.035-.093-5.385 2.425-5.485 5.616l-.039 1.275c-.006.438.018.876.072 1.31.135 1.15.344 2.899 1.109 4.093.722 1.127 1.931 1.41 3.451 1.303Z" fill="#E98862"/><path d="M195.48 42.713c.922.029 1.7-.925 1.729-1.838.028-.913-.704-1.44-1.626-1.468l-.494.597-.402 2.685.793.024Z" fill="#E98862"/><path d="M185.912 42.109c.167.196.38.347.621.44.241.093.501.125.758.093.548-.068.912.154 1.37.11.385-.038.451-.214 1.107-.252 2.533-.148 4.433-.307 4.557-3.453l1.611-1.417s.721 8.718-4.043 9.877c-2.927.712-5.672.452-6.025-2.27-.287-2.21.044-3.128.044-3.128ZM187.112 40.288a.372.372 0 0 0 .374-.37.372.372 0 0 0-.374-.37.372.372 0 0 0-.374.37c0 .205.168.37.374.37Z" fill="#0C0C0C"/><path d="M190.454 40.22a.372.372 0 0 0 .374-.37.372.372 0 0 0-.374-.371.373.373 0 0 0-.374.37c0 .205.168.37.374.37Z" fill="#0C0C0C"/><path d="M194.589 41.23s-.228-4.522-1.607-4.826c-.918-.203-3.176 1.05-5.238.623-.903-.187-1.766.019-1.862.44-.037.168-.751-1.314.7-3.117 1.156-1.435 4.914-1.839 6.586-1.331 4.63 1.406 2.602 6.59 2.602 6.59l-.236 1.554-.945.067Z" fill="#0C0C0C"/><path d="M196.693 37.584c1.363 0 2.467-1.094 2.467-2.443s-1.104-2.442-2.467-2.442-2.467 1.093-2.467 2.442c0 1.349 1.104 2.443 2.467 2.443Z" fill="#0C0C0C"/><path opacity=".52" d="M188.707 42.607h-.006c-.297-.009-.795-.055-.789-.275.005-.183.566-2.138.63-2.36a.079.079 0 0 1 .036-.045.077.077 0 0 1 .058-.007.075.075 0 0 1 .052.093c-.249.866-.621 2.199-.624 2.322.027.053.333.112.641.121a.076.076 0 0 1 .077.074.076.076 0 0 1-.075.076Z" fill="#0C0C0C"/><path d="M187.802 38.66a1.802 1.802 0 0 0-.944-.018 1.59 1.59 0 0 0-.434.177 1.87 1.87 0 0 0-.366.283.092.092 0 0 0-.031.066.092.092 0 0 0 .024.068.097.097 0 0 0 .136.008l.005-.005c.103-.091.216-.17.338-.233.119-.063.248-.107.382-.132.263-.05.535-.032.788.055l.01.003a.148.148 0 0 0 .112-.003.148.148 0 0 0 .076-.08.175.175 0 0 0 .009-.057.148.148 0 0 0-.048-.1.154.154 0 0 0-.049-.028l-.008-.004ZM190.005 38.93c.244-.111.513-.156.78-.13.135.01.268.043.393.094.128.051.248.118.358.199l.006.004a.098.098 0 0 0 .07.014.095.095 0 0 0 .078-.106.094.094 0 0 0-.034-.061 1.876 1.876 0 0 0-.392-.247 1.589 1.589 0 0 0-.45-.134 1.803 1.803 0 0 0-.937.11.141.141 0 0 0-.076.077.14.14 0 0 0 0 .109.144.144 0 0 0 .187.078l.007-.003.01-.005Z" fill="#0C0C0C"/><path d="M205.158 61.042c-.212 1.58-.418 3.753-.603 5.998a23.74 23.74 0 0 1-3.911 3.317 23.963 23.963 0 0 1-9.96 3.854c-3.572.52-7.217.23-10.66-.849-.046-2.086-.11-4.9-.174-7.477-.073-2.973-.146-5.635-.186-6.51-.163-3.472-1.093-5.788-.39-7.682a3.89 3.89 0 0 1 .987-1.476c1.638-1.587 5.705-1.55 7.336-1.488.029.001-.475 3.728 4.892 3.683 3.945-.032 4.241-3.332 4.241-3.332s1.944.2 3.235.422c2.112.366 3.485 1.133 4.553 2.278.997 1.067 1.585 2.2.64 9.262Z" fill="#367CFF"/><path d="m173.603 49.097.162-3.977a.624.624 0 0 0-.407-.614.644.644 0 0 0-.259-.041.662.662 0 0 0-.427.202.647.647 0 0 0-.179.434l-.035.853-1.134-2.73c-.121-.307-.467-.606-.804-.449a.625.625 0 0 0-.398.678.049.049 0 0 0-.009.002.071.071 0 0 0-.006.004l-.186-.471a.639.639 0 0 0-.943-.298.647.647 0 0 0-.256.348.636.636 0 0 0 .022.43l.079.2a.089.089 0 0 0-.011.017.642.642 0 0 0-.795-.214.646.646 0 0 0-.31.827l.196.5a.059.059 0 0 0-.053-.006.059.059 0 0 0-.025.02.64.64 0 0 0-.771-.036.645.645 0 0 0-.221.769l1.66 4.206a3.175 3.175 0 0 0 1.162 1.454c.525.359 1.146.555 1.784.563.55.006 1.081-.2 1.481-.575.399-.375.634-.89.657-1.434l.026-.662Z" fill="#E98862"/><path opacity=".2" d="M171.232 46.162a.06.06 0 0 1-.045-.001.06.06 0 0 1-.031-.031l-1.075-2.6a.06.06 0 0 1-.006-.022.06.06 0 0 1 .004-.023.057.057 0 0 1 .033-.033.055.055 0 0 1 .023-.004.056.056 0 0 1 .042.019c.006.005.01.012.013.02l1.075 2.599a.056.056 0 0 1 .004.022.057.057 0 0 1-.004.022.069.069 0 0 1-.013.019.066.066 0 0 1-.019.012h-.001ZM170.087 46.663a.06.06 0 0 1-.076-.032l-1.2-2.9a.06.06 0 0 1 .001-.045.058.058 0 0 1 .031-.03.06.06 0 0 1 .044 0 .06.06 0 0 1 .032.031l1.2 2.9a.057.057 0 0 1-.032.076ZM168.85 47.213a.06.06 0 0 1-.045 0 .06.06 0 0 1-.031-.032l-.957-2.314a.057.057 0 0 1 .032-.076.06.06 0 0 1 .045 0 .056.056 0 0 1 .031.032l.958 2.313a.057.057 0 0 1-.032.076l-.001.001Z" fill="#0C0C0C"/><path d="m186.901 55.33-9.777 14.88a4.24 4.24 0 0 1-1.392 1.325 23.15 23.15 0 0 1-2.407-1.513 23.648 23.648 0 0 1-4.416-4.095l-2.054-15.761 8.219-1.304.937 7.587 3.755-5.714 7.135 4.596Z" fill="#367CFF"/><path d="M188.048 43.419a4.072 4.072 0 0 0 2.532-.678.165.165 0 0 1 .238.062.161.161 0 0 1 .016.089c-.06.524-.321 1.489-1.433 1.612-.717.079-1.237-.467-1.499-.83a.157.157 0 0 1-.01-.173.165.165 0 0 1 .156-.082Z" fill="#fff"/><path d="M207.809 62.714a23.71 23.71 0 0 1-7.165 7.643l-3.818-14.381 8.6-2.24 2.383 8.978Z" fill="#367CFF"/><path d="M200.728 70.3a3.724 3.724 0 0 0-.165.112l-2.911-10.955.184-.048 2.892 10.892ZM179.873 66.562a.095.095 0 0 1-.063-.027.097.097 0 0 1-.028-.062l-.187-4.083a.094.094 0 0 1 .025-.067.094.094 0 0 1 .164.059l.187 4.083a.089.089 0 0 1-.024.067.096.096 0 0 1-.066.03h-.008Z" fill="#0C0C0C"/><path d="M109.143 104.342c13.386 0 24.237-10.742 24.237-23.993 0-13.25-10.851-23.992-24.237-23.992-13.385 0-24.237 10.742-24.237 23.992s10.852 23.993 24.237 23.993Z" fill="#fff"/><path opacity=".09" d="M133.381 80.349a23.871 23.871 0 0 1-7.099 16.965 24.362 24.362 0 0 1-17.138 7.027V56.357a24.364 24.364 0 0 1 9.289 1.802 24.164 24.164 0 0 1 7.875 5.199 23.892 23.892 0 0 1 5.252 7.795 23.705 23.705 0 0 1 1.821 9.196Z" fill="#367CFF"/><path d="M98.415 66.198s-.244 3.622-1.067 4.936c-2.37 3.782-3.057 8.038-.683 10.262 2.373 2.224 17.509 2.254 18.656-2.86.965-4.305-1.106-4.768-1.61-8.32-.229-1.606-.856-4.976-.856-4.976" fill="#0A0A0A"/><path d="M111.403 77.786c-.026-.003-.316 4.76-5.905 4.345-3.869-.287-5.249-4.35-5.337-4.35.417-.089 1.119-.216 1.305-.314.609-.324 1.363-.661 1.559-1.833.114-.674-.078-4.128-.018-4.811l5.939 1.312c-.083 1.442-.664 4.787 1.372 5.378.337.098.702.188 1.085.273Z" fill="#E98862"/><path opacity=".5" d="M109.028 76.146a4.24 4.24 0 0 1-.179-.912 9.655 9.655 0 0 1 .039-2.123 6.546 6.546 0 0 1-3.283-1.423c-.11.403-.717 2.165-.548 2.548.318.724 1.808 1.91 3.971 1.91Z" fill="#0C0C0C"/><path d="M108.26 74.662c-2.342.225-5.372-.703-5.999-3.79l-.567-2.785c-.627-3.087.502-5.916 3.438-6.5 2.936-.586 5.639 1.479 6.267 4.566l.251 1.233c.24 1.185.788 6.876-3.39 7.276Z" fill="#E98862"/><path opacity=".1" d="M106.771 70.618c.385-.045.67-.31.637-.59-.034-.279-.374-.469-.759-.423-.385.045-.67.309-.637.589.034.28.374.47.759.424ZM110.843 69.499c.035.279.374.468.76.424a.972.972 0 0 0 .195-.044c.018-.333.019-.654.01-.95a.897.897 0 0 0-.328-.02c-.385.045-.67.309-.637.59Z" fill="#0C0C0C"/><path opacity=".5" d="M109.14 70.362h.006a3.28 3.28 0 0 0 .352-.093c.172-.057.397-.151.367-.306-.036-.175-.908-1.976-1.008-2.181a.076.076 0 0 0-.137.01.071.071 0 0 0 .001.055c.372.768.971 2.028.995 2.146-.019.055-.304.163-.6.222a.076.076 0 0 0-.046.031.078.078 0 0 0-.012.054.08.08 0 0 0 .029.047.075.075 0 0 0 .053.016Z" fill="#0C0C0C"/><path d="m99.351 69.087 2.633-.509c1.988-.824 2.552-4.253 2.552-4.253s2.454 2.313 8.319.914c0 0-1.274-8.104-9.934-5.644-2.792.793-4.77 3.61-4.476 7.342.206 2.616.906 2.15.906 2.15Z" fill="#0A0A0A"/><path d="M102.634 71.777c-.892.177-1.808-.623-1.987-1.507-.178-.883.445-1.514 1.337-1.692l.58.5.838 2.546-.768.153Z" fill="#E98862"/><path d="M109.49 66.346c.223-.157.484-.252.756-.276a1.39 1.39 0 0 1 .41.023c.135.027.267.071.392.13l.004.002a.056.056 0 0 0 .042 0 .06.06 0 0 0 .032-.028.056.056 0 0 0 .002-.043.055.055 0 0 0-.027-.032 1.775 1.775 0 0 0-.418-.156 1.514 1.514 0 0 0-.447-.039 1.714 1.714 0 0 0-.851.281.09.09 0 0 0-.025.024.074.074 0 0 0-.013.031.079.079 0 0 0-.001.034.091.091 0 0 0 .039.056.087.087 0 0 0 .098-.003l.002-.001.005-.003ZM107.085 66.675a1.72 1.72 0 0 0-.896.063 1.496 1.496 0 0 0-.397.206c-.121.086-.23.188-.326.302a.06.06 0 0 0-.013.04.054.054 0 0 0 .019.039c.011.01.025.015.04.015a.06.06 0 0 0 .04-.017l.003-.003c.092-.103.196-.194.311-.27.114-.077.238-.136.37-.176.26-.081.538-.092.805-.033l.007.002a.089.089 0 0 0 .034.002.088.088 0 0 0 .058-.034.072.072 0 0 0 .014-.03.078.078 0 0 0 .002-.035.09.09 0 0 0-.012-.032.092.092 0 0 0-.055-.038l-.004-.001ZM101.986 68.535c1.769-.652 2.356-1.861 2.537-2.761a4.35 4.35 0 0 0-.032-1.815l-.055.015c.136.589.147 1.198.031 1.79-.178.886-.757 2.076-2.501 2.719l.02.052Z" fill="#0C0C0C"/><path d="m124.357 76.838 1.059-3.558a.598.598 0 0 1 .309-.362.6.6 0 0 1 .478-.018.602.602 0 0 1 .342.74l-.227.763 1.826-2.074c.199-.234.594-.396.845-.157a.58.58 0 0 1 .146.716c.003 0 .005.002.008.004l.004.006.307-.362a.587.587 0 0 1 .464-.209.6.6 0 0 1 .457.226.6.6 0 0 1-.028.755l-.131.154a.041.041 0 0 1 .005.019.599.599 0 0 1 .767.047.603.603 0 0 1 .024.822l-.325.381a.057.057 0 0 1 .026 0 .048.048 0 0 1 .023.01.048.048 0 0 1 .016.027.6.6 0 0 1 .692.197.597.597 0 0 1-.038.744l-2.736 3.221a2.99 2.99 0 0 1-1.465.94 3.016 3.016 0 0 1-1.745-.032 1.967 1.967 0 0 1-1.133-.945 1.936 1.936 0 0 1-.146-1.46l.176-.595Z" fill="#E98862"/><path opacity=".2" d="M127.337 74.95a.056.056 0 0 0 .039.013.054.054 0 0 0 .036-.018l1.735-1.975a.056.056 0 0 0 .013-.04.055.055 0 0 0-.096-.032l-1.734 1.976a.047.047 0 0 0-.013.039c0 .007.002.014.005.02a.056.056 0 0 0 .013.017h.002ZM128.195 75.732a.055.055 0 0 0 .039.012.053.053 0 0 0 .037-.018l1.935-2.204a.063.063 0 0 0 .011-.019c.002-.007.003-.014.002-.02a.048.048 0 0 0-.005-.021.056.056 0 0 0-.013-.017.058.058 0 0 0-.078.006l-1.933 2.204a.047.047 0 0 0-.011.018.073.073 0 0 0-.003.021.056.056 0 0 0 .019.037ZM129.121 76.583a.055.055 0 0 0 .076-.006l1.543-1.758a.054.054 0 0 0 .012-.039.056.056 0 0 0-.057-.049.054.054 0 0 0-.037.016l-1.544 1.759a.063.063 0 0 0-.011.018.05.05 0 0 0-.002.021c0 .007.002.014.005.02a.08.08 0 0 0 .013.017h.002Z" fill="#0C0C0C"/><path d="m130.805 78.39-4.096 18.395c-.01.04-.019.084-.031.125a24.485 24.485 0 0 1-2.979 2.624c-.214.157-.428.313-.647.462a3.8 3.8 0 0 1-.409.023 4.19 4.19 0 0 1-2.079-.552 4.141 4.141 0 0 1-1.523-1.506l-7.806-13.37 7.208-4.122 2.443 4.184 1.789-8.036 8.13 1.774Z" fill="#0CBC8B"/><path d="M118.199 86.777c-.025.292-.074.813-.142 1.498a4097.12 4097.12 0 0 1-1.506 14.922 24.574 24.574 0 0 1-14.351.144h-.002a24.257 24.257 0 0 1-9.327-5.214c.015-3.226-.032-6.856-.251-9.19-.657-6.971-.036-8.063.983-9.072.084-.083.17-.163.258-.242 1.053-.948 2.376-1.566 4.303-1.824 1.276-.17 3.194-.294 3.194-.294s.163 3.255 4.035 3.434c5.273.246 4.921-3.434 4.947-3.434 1.326 0 4.278.082 6.139 1.02l.004.002c.375.181.716.424 1.008.718 2.132 2.236 1.081 3.192.708 7.532Z" fill="#0CBC8B"/><path d="M109.925 70.97a3.876 3.876 0 0 1-2.467.345.156.156 0 0 0-.184.142.153.153 0 0 0 .019.084c.251.436.843 1.18 1.86.877.656-.196.904-.864.996-1.278a.155.155 0 0 0-.224-.17Z" fill="#fff"/><path d="M109.973 67.621a.366.366 0 0 0 .368-.364c0-.2-.165-.363-.368-.363a.366.366 0 0 0-.368.363c0 .201.165.364.368.364ZM106.44 68.233a.366.366 0 0 0 .368-.364c0-.2-.165-.364-.368-.364a.365.365 0 0 0-.367.364c0 .201.164.364.367.364ZM117.386 94.632a.04.04 0 0 1-.007 0 .056.056 0 0 1-.048-.063l.649-6.482a.074.074 0 0 1 .007-.02.058.058 0 0 1 .095-.005.056.056 0 0 1 .011.04l-.65 6.482a.058.058 0 0 1-.019.034.058.058 0 0 1-.038.014Z" fill="#0C0C0C"/><path d="m113.453 94.32 3.552-1.57a.62.62 0 0 1 .832.358.625.625 0 0 1-.359.767l-.762.337 2.886.03c.322-.002.717.198.695.554a.615.615 0 0 1-.473.597.028.028 0 0 1 .002.01l-.002.006.495-.003a.62.62 0 0 1 .602.462c.022.088.024.18.006.268a.632.632 0 0 1-.622.487l-.21.001a.058.058 0 0 1-.012.017.616.616 0 0 1 .48.63.638.638 0 0 1-.64.573l-.523.004a.058.058 0 0 1 .025.046.062.062 0 0 1-.01.029.614.614 0 0 1 .27.285.599.599 0 0 1-.187.732.634.634 0 0 1-.392.13l-4.414.03a3.122 3.122 0 0 1-1.736-.511 3.069 3.069 0 0 1-1.151-1.386 2.008 2.008 0 0 1-.01-1.523c.198-.49.58-.884 1.066-1.099l.592-.26Z" fill="#E98862"/><path opacity=".2" d="M116.967 95.377a.058.058 0 0 0 .057.056l2.745.025a.057.057 0 0 0 .04-.016.054.054 0 0 0 .017-.04.059.059 0 0 0-.016-.04.058.058 0 0 0-.04-.016l-2.745-.025v.113a.057.057 0 0 0 .052-.035.06.06 0 0 0 .003-.032.054.054 0 0 0-.015-.03.057.057 0 0 0-.062-.011.064.064 0 0 0-.026.02.057.057 0 0 0-.009.031h-.001ZM116.923 96.576c0 .015.006.03.017.04.01.01.025.016.04.016l3.063.028a.058.058 0 0 0 .04-.017.055.055 0 0 0 .017-.04.059.059 0 0 0-.018-.039.056.056 0 0 0-.039-.017l-3.063-.027v.112a.055.055 0 0 0 .031-.01.05.05 0 0 0 .021-.024.052.052 0 0 0 .003-.033.053.053 0 0 0-.015-.028.057.057 0 0 0-.097.04ZM116.868 97.872c0 .015.006.03.016.04.011.01.025.017.04.017l2.444.022" fill="#0C0C0C"/><path d="m114.47 100.581-12.27 2.76h-.002a24.26 24.26 0 0 1-11.546-7.485l1.718-13.678a4.21 4.21 0 0 1 1.73-2.735 4.293 4.293 0 0 1 3.177-.723 4.263 4.263 0 0 1 2.762 1.712c.655.91.918 2.042.731 3.144L99.684 96.42l13.682-3.066 1.104 7.227Z" fill="#0CBC8B"/><path d="M96.916 96.924c-.007.001-.015 0-.022-.002a.056.056 0 0 1 .014-.11l2.743-.58a.057.057 0 0 1 .063.069.055.055 0 0 1-.047.042l-2.743.58a.037.037 0 0 1-.008.001Z" fill="#0C0C0C"/><path d="M114.47 100.58a.059.059 0 0 1-.041.068l-11.921 2.781c-.075-.021-.149-.041-.223-.064l12.06-2.811-1.074-7.116-13.6 2.904a.06.06 0 0 1-.05-.014.067.067 0 0 1-.012-.023c-.003-.009-.004-.018-.003-.026l.763-7.34a.056.056 0 0 1 .023-.036.053.053 0 0 1 .021-.008.056.056 0 0 1 .022 0c.015.002.028.01.037.022a.056.056 0 0 1 .01.041l-.75 7.265 13.564-2.91a.05.05 0 0 1 .022-.002.048.048 0 0 1 .021.009.055.055 0 0 1 .017.014.068.068 0 0 1 .01.02l1.104 7.226Z" fill="#0C0C0C"/><path d="M22.224 131.986c12.274 0 22.224-9.85 22.224-22s-9.95-22-22.224-22C9.95 87.986 0 97.836 0 109.986s9.95 22 22.224 22Z" fill="#fff"/><path opacity=".09" d="M22.224 131.986c12.274 0 22.224-9.85 22.224-22s-9.95-22-22.224-22C9.95 87.986 0 97.836 0 109.986s9.95 22 22.224 22Z" fill="#367CFF"/><path d="M16.104 97.51s.24 6.625 4.708 6.93l.757-8.738-5.465 1.807Z" fill="#0A0A0A"/><path d="M16.965 105.793c1.461 0 2.646-1.173 2.646-2.62s-1.185-2.62-2.646-2.62c-1.462 0-2.647 1.173-2.647 2.62s1.185 2.62 2.647 2.62Z" fill="#0A0A0A"/><path d="M27.32 107.514c-.023-.003-.285 4.294-5.327 3.919-3.49-.258-4.735-3.924-4.815-3.924.4-.066.793-.16 1.177-.283.55-.292 1.23-.596 1.407-1.653.102-.609-.07-3.724-.018-4.341l5.358 1.184c-.075 1.302-.598 4.318 1.238 4.852.305.089.635.17.98.246Z" fill="#E98862"/><path opacity=".5" d="M25.177 106.035a3.797 3.797 0 0 1-.16-.824 8.688 8.688 0 0 1 .034-1.914 5.908 5.908 0 0 1-2.961-1.285c-.1.364-.647 1.953-.495 2.299.286.654 1.632 1.724 3.582 1.724Z" fill="#0C0C0C"/><path d="M24.338 104.877c-2.122.027-4.775-1.033-5.104-3.855l-.297-2.547c-.329-2.821.902-5.28 3.586-5.586 2.684-.307 4.957 1.752 5.286 4.574l.131 1.127c.126 1.083.184 6.24-3.602 6.287Z" fill="#E98862"/><path d="M27.17 98.514a.331.331 0 0 0 .333-.33.331.331 0 0 0-.332-.328.331.331 0 0 0-.333.329c0 .182.149.33.333.33ZM23.77 98.9a.331.331 0 0 0 .333-.33.331.331 0 0 0-.333-.33.331.331 0 0 0-.333.33c0 .182.149.33.333.33Z" fill="#0C0C0C"/><path opacity=".5" d="M25.457 101.078h.006c.108-.013.216-.033.323-.058.16-.038.37-.105.353-.247-.019-.16-.666-1.844-.74-2.036a.067.067 0 0 0-.036-.037.067.067 0 0 0-.052-.002.068.068 0 0 0-.039.087c.276.717.719 1.896.731 2.004-.17.095-.36.148-.556.155a.067.067 0 0 0-.063.072c.002.018.01.035.024.046a.064.064 0 0 0 .05.016ZM24.978 102.252c.436-.025.86-.15 1.238-.367a.066.066 0 0 0 .023-.09.072.072 0 0 0-.039-.032.073.073 0 0 0-.05.004c-.817.447-1.597.473-2.257.075a.588.588 0 0 0-.042-.023.074.074 0 0 0-.05 0 .069.069 0 0 0-.037.035.07.07 0 0 0-.002.051.069.069 0 0 0 .034.037l.026.015c.347.21.75.313 1.156.295Z" fill="#0C0C0C"/><path d="m16.755 99.2 2.405-.261c1.85-.592 2.619-3.633 2.619-3.633s1.658 1.866 6.57 1.014c0 0-.19-6.27-7.662-5.387-2.6.307-4.563 2.89-4.583 6.267-.014 2.366.651 2 .651 2Z" fill="#0A0A0A"/><path d="M19.501 101.863c-.816.094-1.578-.695-1.672-1.502-.094-.808.516-1.329 1.331-1.422l.484.493.558 2.351-.701.08Z" fill="#E98862"/><path d="M25.994 97.362c.24-.131.513-.197.788-.189.135.003.27.026.399.069.127.041.25.099.363.17a.052.052 0 0 1-.013.094.052.052 0 0 1-.039-.004l-.003-.002a1.5 1.5 0 0 0-.343-.147 1.24 1.24 0 0 0-.366-.05 1.409 1.409 0 0 0-.701.19l-.006.003a.08.08 0 0 1-.06.011.076.076 0 0 1-.05-.035.076.076 0 0 1 .005-.088.079.079 0 0 1 .024-.02l.002-.002ZM23.838 97.755a1.406 1.406 0 0 0-.726-.03c-.122.026-.238.07-.346.13-.11.061-.21.135-.3.22l-.003.002a.053.053 0 0 1-.07-.006.051.051 0 0 1-.001-.068c.094-.096.2-.178.315-.247.116-.07.242-.123.374-.156.266-.068.546-.064.81.011a.078.078 0 0 1 .058.066.077.077 0 0 1-.042.078.079.079 0 0 1-.06.005h-.003l-.006-.005Z" fill="#0C0C0C"/><path opacity=".52" d="M25.023 102.89c.08-.003.158-.013.235-.029a.068.068 0 0 0 .05-.08.068.068 0 0 0-.078-.053.897.897 0 0 1-.721-.101.07.07 0 0 0-.05-.015.07.07 0 0 0-.046.025.065.065 0 0 0-.015.049.07.07 0 0 0 .024.046c.176.12.389.176.601.158Z" fill="#0C0C0C"/><path opacity=".1" d="M23.309 101.13c.35-.012.626-.228.617-.482-.009-.254-.3-.45-.65-.438-.35.012-.626.228-.617.482.009.254.3.45.65.438ZM27.053 100.429c.01.253.301.449.651.438a.982.982 0 0 0 .18-.025c.04-.298.066-.586.08-.854a.805.805 0 0 0-.293-.041c-.35.011-.626.226-.618.482Z" fill="#0C0C0C"/><path d="M34.85 112.039c-.014 1.5-.535 3.289-.72 5.45-.05.577-1.3 2.245-1.482 4.101-.229 2.363.28 6.049.349 7.643a22.43 22.43 0 0 1-11.508 2.74 22.395 22.395 0 0 1-11.298-3.489c-.091-4.094-.199-9.149-.337-10.36-.448-4-.327-6.53.32-7.714 1.057-1.933 2.94-2.523 4.909-2.789 1.203-.161 3.01-.275 3.01-.275s.153 3.066 3.804 3.236c4.97.232 4.639-3.236 4.664-3.236 1.802 0 5.22.427 6.528 1.311 1.389.935 1.779 2.043 1.762 3.382Z" fill="#FFC239"/><path d="m17.68 114.372-6.742 14.566a22.185 22.185 0 0 1-6.622-5.927l5.625-12.151 7.74 3.512ZM40.297 122.79a22.198 22.198 0 0 1-6.584 6.03l-6.92-15.06 7.749-3.491 5.755 12.521Z" fill="#FFC239"/><path d="M68.476 45.81c12.78 0 23.139-10.255 23.139-22.905S81.255 0 68.476 0 45.337 10.255 45.337 22.905s10.36 22.905 23.14 22.905Z" fill="#fff"/><path opacity=".09" d="M68.476 45.81c12.78 0 23.139-10.255 23.139-22.905S81.255 0 68.476 0 45.337 10.255 45.337 22.905s10.36 22.905 23.14 22.905Z" fill="#367CFF"/><path d="M72.95 9.19s1.466-1.573 1.352-4.567c-.087-2.318-1.925-.477-1.925-.477s-.08-1.668-1.249-1.292c-1.169.377-1.528 2.209-1.528 2.209M64.964 4.156s-5.836 1.698-2.225 9.295l.533-.06 1.082-.12" fill="#0C0C0C"/><path d="M73.233 21.33c-.027-.003-.322 4.843-6.01 4.42-3.936-.292-5.34-4.427-5.43-4.427.424-.09.949-.225 1.157-.271a2.302 2.302 0 0 0 1.18-.685c.314-.342.515-.77.577-1.228.116-.686-.08-4.2-.02-4.896l6.044 1.335c-.084 1.468-.675 4.871 1.396 5.474.345.1.716.191 1.106.279Z" fill="#E98862"/><path opacity=".52" d="M70.816 19.66a4.31 4.31 0 0 1-.182-.928 9.809 9.809 0 0 1 .04-2.16 6.66 6.66 0 0 1-3.34-1.448c-.113.41-.73 2.203-.56 2.593.324.737 1.842 1.944 4.042 1.944Z" fill="#0C0C0C"/><path d="M69.83 18.118c-2.384.212-5.461-.752-6.078-3.897l-.557-2.838c-.617-3.147.552-6.017 3.544-6.592 2.992-.575 5.728 1.545 6.345 4.69l.246 1.257c.077.433.124.87.141 1.31.053 1.161.13 2.926-.434 4.23-.532 1.232-1.684 1.705-3.207 1.84Z" fill="#E98862"/><path opacity=".5" d="M70.19 15.009a2.808 2.808 0 0 0 1.251-.32.066.066 0 0 0 .036-.04.068.068 0 0 0-.097-.08c-.833.415-1.614.411-2.258-.011a.462.462 0 0 0-.04-.025.07.07 0 0 0-.053-.003.066.066 0 0 0-.023.013.066.066 0 0 0-.023.046.067.067 0 0 0 .017.05.07.07 0 0 0 .021.016c.005.002.013.008.025.016.339.222.737.34 1.144.338Z" fill="#0C0C0C"/><path opacity=".52" d="M70.211 15.649c.079 0 .158-.008.236-.021a.065.065 0 0 0 .024-.01.066.066 0 0 0 .031-.068.066.066 0 0 0-.028-.044.07.07 0 0 0-.05-.011.892.892 0 0 1-.717-.128.068.068 0 0 0-.112.054.067.067 0 0 0 .022.047c.17.126.38.19.594.18Z" fill="#0C0C0C"/><path d="M72.368 11.53a.374.374 0 0 0 .375-.37.373.373 0 0 0-.375-.372.373.373 0 0 0-.376.371c0 .205.168.372.376.372ZM68.718 11.953a.373.373 0 0 0 .375-.371.373.373 0 0 0-.375-.372.373.373 0 0 0-.375.371c0 .206.168.372.375.372Z" fill="#0C0C0C"/><path d="M64.126 15.143c-.91.175-1.835-.646-2.012-1.546-.177-.9.463-1.538 1.372-1.713l.587.513.834 2.596-.781.15Z" fill="#E98862"/><path d="M64.767 13.532s-.507-4.516.809-5.037c.876-.346 3.317.536 5.29-.216.864-.33 1.753-.262 1.916.14.064.16.187-2.32-1.544-3.874-1.378-1.238-5.101-.99-6.675-.221-4.359 2.129-1.228 7.79-1.228 7.79l.486 1.501.947-.083Z" fill="#0C0C0C"/><path opacity=".52" d="M70.75 13.891h.005c.294-.056.78-.181.738-.398-.035-.18-.908-2.027-1.007-2.237a.076.076 0 0 0-.125-.02.074.074 0 0 0-.013.083c.388.818.972 2.08.996 2.202-.019.056-.313.164-.616.222a.075.075 0 0 0-.034.136.077.077 0 0 0 .056.014v-.002Z" fill="#0C0C0C"/><path d="M70.957 9.364c.293-.139.62-.197.943-.168.16.013.315.05.463.109.146.057.284.133.411.224a.11.11 0 0 1 .03.15.11.11 0 0 1-.149.035l-.008-.003a1.639 1.639 0 0 0-.37-.173 1.344 1.344 0 0 0-.395-.068 1.518 1.518 0 0 0-.76.18l-.01.006a.168.168 0 0 1-.227-.062.165.165 0 0 1 .013-.182.167.167 0 0 1 .049-.042l.01-.006ZM68.805 9.94a1.523 1.523 0 0 0-.782-.008c-.13.032-.255.084-.37.153-.118.07-.226.154-.322.25l-.006.006a.112.112 0 0 1-.155 0 .11.11 0 0 1-.003-.153c.103-.118.22-.222.35-.31a1.765 1.765 0 0 1 .897-.294 1.75 1.75 0 0 1 .487.042.166.166 0 0 1 .125.197.168.168 0 0 1-.2.123l-.01-.002-.01-.004ZM69.956 6.372c.649-.26.861-1.238.474-2.184-.387-.945-1.227-1.5-1.876-1.24-.649.26-.861 1.238-.474 2.183.387.946 1.227 1.501 1.876 1.24Z" fill="#0C0C0C"/><path d="M81.094 26.338c.022 1.552-.59 3.298-.795 5.661-.042.48-.14 1.536-.27 2.912-.214 2.28-.517 5.431-.782 8.272a23.367 23.367 0 0 1-24.43-1.786c-.222-3.212-.483-6.583-.722-8.712-.448-3.976-1.06-5.956-.717-7.293.028-.114.064-.225.11-.333.986-2.367 4.124-3.423 6.25-3.708 1.298-.174 3.25-.3 3.25-.3s.165 3.311 4.106 3.495c5.365.25 5.008-3.495 5.034-3.495.869 0 5.6.626 6.782 1.39a5.4 5.4 0 0 1 .568.42c.514.424.925.956 1.205 1.557.28.602.42 1.258.41 1.92Z" fill="#383838"/><path d="m61.339 28.739-6.273 12.837a23.145 23.145 0 0 1-6.322-6.704l4.634-9.48.184-.376 7.777 3.723Z" fill="#383838"/><path d="m60.733 30.216-5.705 11.332a1.966 1.966 0 0 0-.112-.078l5.698-11.312a.068.068 0 0 1 .091-.03.065.065 0 0 1 .028.088Z" fill="#fff"/><path d="M89.664 32.127a22.97 22.97 0 0 1-4.713 6.861l-4.922-4.077-6.253-5.18 5.702-6.87.017-.021 10.169 9.287Z" fill="#383838"/><path d="M80.104 34.962a.067.067 0 0 0 .063-.06l.325-3.77a.065.065 0 0 0-.015-.049.067.067 0 0 0-.045-.023.067.067 0 0 0-.072.06l-.325 3.77a.066.066 0 0 0 .06.071h.01ZM177.43 144.995c12.188 0 22.069-9.781 22.069-21.846 0-12.066-9.881-21.847-22.069-21.847-12.189 0-22.07 9.781-22.07 21.847 0 12.065 9.881 21.846 22.07 21.846Z" fill="#fff"/><path opacity=".09" d="M155.36 123.148c0 4.321 1.294 8.545 3.719 12.137a22.016 22.016 0 0 0 9.905 8.046 22.27 22.27 0 0 0 12.75 1.244 22.141 22.141 0 0 0 11.3-5.979 21.77 21.77 0 0 0 6.04-11.186c.852-4.238.415-8.63-1.256-12.622a21.89 21.89 0 0 0-8.128-9.804 22.225 22.225 0 0 0-12.261-3.682 22.177 22.177 0 0 0-8.458 1.641 22.01 22.01 0 0 0-7.171 4.734 21.774 21.774 0 0 0-4.782 7.098 21.578 21.578 0 0 0-1.658 8.373Z" fill="#367CFF"/><path d="M187.444 111.093c-.353 4.045-.026 5.417 1.671 7.735 1.431 1.954-6.712.293-10.315-.342l3.18-9.199s5.588.386 5.464 1.806Z" fill="#0A0A0A"/><path d="M175.014 109.41c-1.063 3.921-.944 5.134-3.024 7.193-1.724 1.707 4.995 2.054 8.601 2.674l.182-9.719s-5.386-1.525-5.759-.148Z" fill="#0A0A0A"/><path d="M175.372 120.815c.024-.003.288 4.334 5.377 3.956 3.523-.262 4.779-3.962 4.86-3.962a8.35 8.35 0 0 1-1.188-.285c-.555-.295-1.241-.602-1.42-1.669-.103-.615.072-3.759.018-4.382l-5.408 1.195c.075 1.314.605 4.359-1.249 4.897-.309.09-.641.172-.99.25Z" fill="#E98862"/><path opacity=".5" d="M177.535 119.322c.084-.27.139-.549.162-.831a8.727 8.727 0 0 0-.035-1.932 5.956 5.956 0 0 0 2.989-1.297c.101.367.653 1.971.5 2.32-.289.66-1.647 1.74-3.616 1.74Z" fill="#0C0C0C"/><path d="M178.234 117.971c2.132.204 4.891-.64 5.463-3.451l.515-2.536c.572-2.811-.456-5.387-3.13-5.919-2.673-.533-5.135 1.348-5.706 4.158l-.229 1.124c-.219 1.078-.717 6.26 3.087 6.624Z" fill="#E98862"/><path d="m186.793 112.784-2.405-.261c-4.706-.856-5.859-4.615-5.859-4.615s-1.974 2.609-3.65 2.01c0 0 .54-6.291 7.981-5.186 2.924.435 4.584 2.834 4.584 6.052 0 2.366-.651 2-.651 2Z" fill="#0A0A0A"/><path opacity=".1" d="M180.279 113.901c.031-.255-.228-.495-.579-.537-.351-.041-.661.132-.691.387-.031.254.229.495.579.536.351.041.661-.132.691-.386ZM175.883 113.269c-.032.254-.341.427-.692.386a.834.834 0 0 1-.178-.04 10.54 10.54 0 0 1-.009-.865.814.814 0 0 1 .299-.017c.35.041.609.281.58.536Z" fill="#0C0C0C"/><path opacity=".5" d="M177.433 114.055h-.006a2.952 2.952 0 0 1-.32-.084c-.157-.053-.362-.138-.334-.278.033-.16.827-1.8.918-1.987a.065.065 0 0 1 .016-.022.06.06 0 0 1 .023-.014.084.084 0 0 1 .027-.004.077.077 0 0 1 .048.023.072.072 0 0 1 .014.024.057.057 0 0 1 .003.026.06.06 0 0 1-.007.026c-.339.699-.885 1.847-.907 1.955.163.109.351.179.546.202a.064.064 0 0 1 .043.028c.01.014.014.032.011.049a.072.072 0 0 1-.026.044.072.072 0 0 1-.049.013v-.001Z" fill="#0C0C0C"/><path d="M183.356 115.344c.813.161 1.646-.568 1.81-1.372.163-.804-.405-1.379-1.218-1.541l-.528.456-.762 2.317.698.14Z" fill="#E98862"/><path d="M177.114 110.398c-.1-.07-.209-.127-.325-.168a1.334 1.334 0 0 0-.364-.081 1.262 1.262 0 0 0-.373.02 1.494 1.494 0 0 0-.356.12l-.004.001a.05.05 0 0 1-.038-.001.051.051 0 0 1-.027-.025.051.051 0 0 1 .02-.067c.12-.063.248-.111.38-.142.133-.032.271-.044.407-.036.278.015.545.104.776.257a.077.077 0 0 1 .032.05.077.077 0 0 1-.013.057.077.077 0 0 1-.049.033.082.082 0 0 1-.059-.011l-.002-.001-.005-.006ZM179.304 110.698c.272-.054.553-.034.815.057.13.044.252.107.363.187.11.079.209.172.296.275.009.01.014.024.014.038a.058.058 0 0 1-.017.036.053.053 0 0 1-.038.013.05.05 0 0 1-.037-.017l-.003-.003a1.506 1.506 0 0 0-.283-.245 1.242 1.242 0 0 0-.337-.16 1.424 1.424 0 0 0-.733-.03l-.006.002a.083.083 0 0 1-.06-.009.08.08 0 0 1-.036-.049.077.077 0 0 1 .058-.094l.004-.001Z" fill="#0C0C0C"/><path d="M167.175 142.497c-.867-.374-1.516-.775-2.998-1.88a21.895 21.895 0 0 1-2.968-2.657l7.607-14.329.331-.622 6.861 3.571-5.952 11.211-.027.05.052.199" fill="#EA394A"/><path d="M192.474 130.97c-.2 2.125-.243 5.429-.229 8.368a22.135 22.135 0 0 1-10.156 5.168c-3.785.81-7.719.62-11.406-.552-.451-4.431-1.122-10.943-1.501-14.952-.383-4.153-1.51-5.524 1.566-7.513 1.695-.854 4.382-.929 5.59-.929-.41 3.936 7.971 4.421 8.179 0 6.268.58 9.17.724 7.957 10.41Z" fill="#EA394A"/><path d="M176.717 114.609a3.525 3.525 0 0 0 2.247.313.149.149 0 0 1 .078.008.15.15 0 0 1 .063.048.133.133 0 0 1 .026.074.133.133 0 0 1-.017.076c-.227.397-.768 1.076-1.693.799-.598-.178-.824-.786-.908-1.164a.138.138 0 0 1 .052-.142.143.143 0 0 1 .152-.012Z" fill="#fff"/><path d="M176.674 111.56a.334.334 0 0 0 .335-.332.333.333 0 0 0-.335-.331.333.333 0 0 0-.335.331c0 .183.15.332.335.332ZM179.891 112.117a.332.332 0 1 0 0-.663.333.333 0 0 0-.335.331c0 .183.15.332.335.332ZM169.923 136.155h.007a.057.057 0 0 0 .034-.02.052.052 0 0 0 .01-.038l-.592-5.902a.06.06 0 0 0-.006-.019.05.05 0 0 0-.014-.015.05.05 0 0 0-.018-.009.045.045 0 0 0-.02 0c-.007 0-.013.003-.019.006a.047.047 0 0 0-.015.013.076.076 0 0 0-.009.018.046.046 0 0 0-.001.02l.591 5.902a.055.055 0 0 0 .052.044Z" fill="#0C0C0C"/><path d="M169.15 131.66h-6.041v7.334h6.041v-7.334Z" fill="#fff"/><path d="M166.676 135.327c0-.484.145-.958.417-1.36a2.468 2.468 0 0 1 1.111-.902 2.495 2.495 0 0 1 2.695.531c.346.343.582.779.677 1.254.096.475.047.968-.141 1.415-.187.447-.504.83-.911 1.099a2.492 2.492 0 0 1-3.123-.306 2.44 2.44 0 0 1-.725-1.731Zm1.013 0c0 .384.154.751.428 1.022.274.272.645.424 1.033.424v-2.892a1.475 1.475 0 0 0-1.033.424 1.446 1.446 0 0 0-.428 1.022Z" fill="#fff"/><path d="M169.102 136.234a.54.54 0 0 1 .525-.45.046.046 0 0 1-.007-.016l-.18-.039a.554.554 0 0 1-.447-.535.526.526 0 0 1 .205-.412.54.54 0 0 1 .451-.104l.424.09v-.004l.004-.01a.543.543 0 0 1-.254-.247.524.524 0 0 1-.044-.35c.046-.311.423-.413.698-.354l1.1.195-.371-.244a.553.553 0 0 1-.163-.742.547.547 0 0 1 .772-.144l4.43 5.019-.983-.442a2.745 2.745 0 0 1-2.83 1.12l-2.403-.518a.554.554 0 0 1-.447-.535.533.533 0 0 1 .388-.506.044.044 0 0 1-.004-.025.052.052 0 0 1 .01-.023.07.07 0 0 1 .019-.015l-.443-.094a.566.566 0 0 1-.348-.22.551.551 0 0 1-.102-.395Z" fill="#E98862"/><path opacity=".2" d="M170.876 134.946a.052.052 0 0 0 .029-.018.046.046 0 0 0 .011-.033.049.049 0 0 0-.012-.032.052.052 0 0 0-.03-.016l-.742-.125a.067.067 0 0 0-.02 0 .046.046 0 0 0-.019.008.062.062 0 0 0-.014.014.044.044 0 0 0-.007.019.045.045 0 0 0 0 .02.066.066 0 0 0 .009.019c.004.005.009.01.015.013a.062.062 0 0 0 .019.007l.742.124a.06.06 0 0 0 .019 0ZM170.697 135.984a.05.05 0 0 0 .029-.018.052.052 0 0 0 .011-.032.05.05 0 0 0-.042-.049l-1.016-.178a.05.05 0 0 0-.021-.001.064.064 0 0 0-.019.008.047.047 0 0 0-.014.014.046.046 0 0 0-.007.039.046.046 0 0 0 .023.032.048.048 0 0 0 .02.007l1.016.179a.045.045 0 0 0 .02-.001ZM170.51 137.111a.052.052 0 0 0 .029-.018.046.046 0 0 0 .011-.033.053.053 0 0 0-.012-.032.052.052 0 0 0-.031-.016l-.482-.073a.047.047 0 0 0-.036.01.053.053 0 0 0-.019.032.054.054 0 0 0 .008.037c.008.01.019.017.032.02l.482.073a.054.054 0 0 0 .018 0Z" fill="#0C0C0C"/><path d="M195.551 135.614a22.116 22.116 0 0 1-11.138 8.265l-.002-.002c-1.003-.194-10.568-3.933-11.833-4.178l1.385-6.393c3.554.7 10.038 3.399 13.613 4.102l-2.523-11.32a3.815 3.815 0 0 1 1.749-3.931 3.892 3.892 0 0 1 1.424-.538 3.896 3.896 0 0 1 3.95 1.779c.268.433.447.914.526 1.417l2.849 10.799Z" fill="#EA394A"/><path d="M190.286 138.242a.056.056 0 0 0 .034-.015.046.046 0 0 0 .016-.033.05.05 0 0 0-.011-.035.05.05 0 0 0-.032-.019l-2.688-.903a.046.046 0 0 0-.02.001.05.05 0 0 0-.032.023c-.003.006-.006.012-.006.019a.052.052 0 0 0 .009.038.052.052 0 0 0 .034.02l2.688.903.008.001Z" fill="#0C0C0C"/><path d="M187.647 137.28a.067.067 0 0 1-.014.045.072.072 0 0 1-.021.012.049.049 0 0 1-.024.001l-13.539-3.955-1.357 6.292 11.659 4.222-.111.036a.816.816 0 0 1-.079.024l-11.545-4.196a.052.052 0 0 1-.031-.023.052.052 0 0 1-.007-.038l1.385-6.394a.038.038 0 0 1 .009-.018.044.044 0 0 1 .015-.012.046.046 0 0 1 .019-.008.05.05 0 0 1 .021.001l13.506 3.961-1.529-6.241a.048.048 0 0 1 .01-.038.054.054 0 0 1 .053-.02.064.064 0 0 1 .019.008l.014.014a.044.044 0 0 1 .007.019l1.54 6.308ZM11.099 129.125a.093.093 0 0 1-.088-.058.089.089 0 0 1-.007-.036c0-.012.003-.024.008-.036l3.707-8.721a.097.097 0 0 1 .051-.051.096.096 0 0 1 .124.052c.009.023.009.049 0 .071l-3.708 8.722a.099.099 0 0 1-.035.042.096.096 0 0 1-.052.015ZM32.911 129.225h-.004a.097.097 0 0 1-.09-.054.094.094 0 0 1-.009-.036l-.413-8.92a.097.097 0 0 1 .127-.093.097.097 0 0 1 .031.019c.01.008.017.018.022.03a.09.09 0 0 1 .009.035l.413 8.921a.093.093 0 0 1-.023.066.1.1 0 0 1-.063.032Z" fill="#0C0C0C"/></svg>