<svg width="269" height="172" fill="none" xmlns="http://www.w3.org/2000/svg"><path d="M250.442 170.943c2.506 0 4.986-.532 7.291-1.565a18.57 18.57 0 0 0 6.119-4.445 19.61 19.61 0 0 0 3.961-6.608 20.327 20.327 0 0 0 1.168-7.71c-.611-14.485-7.671-34.939-35.504-55.38-33.942-24.926-18.633-96.693-90.749-91.741-72.117 4.952-65.24 57.99-109.46 82.298C5.12 101.266.002 131.543 0 151.507c.005 5.159 1.962 10.104 5.442 13.749 3.48 3.645 8.198 5.69 13.116 5.687h231.884Z" fill="#F3F5FD"/><path d="M200.995 0H54.913v110.972h146.082V0Z" fill="#DEE8F5"/><path d="M200.995 0H54.913v9.141h146.082V0Z" fill="#C1D8ED"/><path d="M196.102 6.864c1.208 0 2.187-1.027 2.187-2.293 0-1.267-.979-2.294-2.187-2.294-1.207 0-2.186 1.027-2.186 2.294 0 1.266.979 2.293 2.186 2.293Z" fill="#fff"/><path d="M93.204 34.863c0 4.088-1.548 8.009-4.304 10.9-2.756 2.89-6.493 4.514-10.39 4.514V19.45a14.057 14.057 0 0 1 5.63 1.16 14.624 14.624 0 0 1 4.773 3.341 15.44 15.44 0 0 1 3.184 5.007 16.026 16.026 0 0 1 1.107 5.905Z" fill="#C1D8ED"/><path d="M78.51 36.451c3.212 0 5.816-2.732 5.816-6.102s-2.604-6.101-5.817-6.101c-3.212 0-5.817 2.732-5.817 6.101 0 3.37 2.605 6.102 5.817 6.102ZM89.098 45.551a14.696 14.696 0 0 1-4.835 3.495 14.107 14.107 0 0 1-5.754 1.23c-1.977 0-3.934-.418-5.753-1.23-1.82-.812-3.464-2-4.835-3.495 1.981-4.645 5.98-7.82 10.588-7.82 4.608 0 8.608 3.175 10.589 7.82ZM128.855 19.545H99.19v9.404h29.665v-9.404ZM193.484 34.766H99.19v3.421h94.294v-3.421ZM193.484 44.004H99.19v3.422h94.294v-3.422Z" fill="#fff"/><path d="M86.8 77.098H62.188v25.816h24.61V77.098Z" fill="#C1D8ED"/><path d="M125.479 92.315H92.894v2.716h32.585v-2.716ZM125.479 99.65H92.894v2.717h32.585V99.65ZM125.479 77.645H92.894v2.716h32.585v-2.716ZM125.479 84.98H92.894v2.716h32.585V84.98Z" fill="#fff"/><path d="M155.039 77.098h-24.61v25.816h24.61V77.098Z" fill="#C1D8ED"/><path d="M193.718 92.315h-32.585v2.716h32.585v-2.716ZM193.718 99.65h-32.585v2.717h32.585V99.65ZM193.718 77.645h-32.585v2.716h32.585v-2.716ZM193.718 84.98h-32.585v2.716h32.585V84.98ZM193.719 62.288c0 .39-.148.763-.411 1.039-.263.275-.619.43-.99.43h-71.93V60.82h71.93c.183 0 .366.038.536.111a1.453 1.453 0 0 1 .758.794c.071.18.107.37.107.563Z" fill="#fff"/><path d="M120.388 60.82v2.936h-56.8" fill="#0CBC8B"/><path d="M120.388 65.121c1.491 0 2.701-1.268 2.701-2.833 0-1.565-1.21-2.833-2.701-2.833-1.492 0-2.701 1.268-2.701 2.833 0 1.565 1.209 2.833 2.701 2.833Z" fill="#0CBC8B"/><path d="M78.186 98.918c1.639 23.454 3.742 46.913 6.738 70.222l4.791-.466c-1.136-23.488-3.177-46.954-5.674-70.325l-5.855.57ZM68.22 104.246c-.653 18.138-2.3 45.645-3.25 64.002l4.79.479c2.268-18.494 5.835-45.662 7.779-63.944l-9.32-.537Z" fill="#E98862"/><path d="M75.964 170.897a.937.937 0 0 0 .707-.327 1.058 1.058 0 0 0 .06-1.296.97.97 0 0 0-.433-.34l-5.75-2.02a.797.797 0 0 0-.345-.038.801.801 0 0 0-.33.117 4.35 4.35 0 0 1-2.697.839 3.891 3.891 0 0 1-2.075-.795.347.347 0 0 0-.387-.05.37.37 0 0 0-.151.141.401.401 0 0 0-.056.205v2.949a.685.685 0 0 0 .185.468.634.634 0 0 0 .447.193l10.825-.046ZM95.658 170.897a.937.937 0 0 0 .706-.327 1.058 1.058 0 0 0 .06-1.296.97.97 0 0 0-.433-.34l-5.749-2.02a.797.797 0 0 0-.346-.038.8.8 0 0 0-.33.117 4.35 4.35 0 0 1-2.697.839 3.892 3.892 0 0 1-2.074-.795.348.348 0 0 0-.387-.05.37.37 0 0 0-.152.141.4.4 0 0 0-.056.205v2.949a.685.685 0 0 0 .185.468.635.635 0 0 0 .448.193l10.825-.046Z" fill="#C1D8ED"/><path d="M68.073 94.6S65.4 107.15 65.4 117.705c0 10.555-3.068 26.903-3.068 26.903s8.815-1.931 14.593 0c5.778 1.931 16.551-1.545 16.551-1.545l-7.51-47.306-17.894-1.159Z" fill="#262626"/><path d="M73.492 68.934s1.892-.852 1.892-6.065l3.802-.406s-.784 4.606.996 6.242l-6.69.229Z" fill="#E98862"/><path d="M73.416 60.68c.136 1.593.837 3.15 2.119 3.772a9.155 9.155 0 0 0 4.487 1.033c4.128 0 4.081-9.848 2.282-11.915-1.8-2.067-7.605-1.356-8.548 1.762-.487 1.611-.47 3.832-.34 5.348Z" fill="#E98862"/><path d="M81.901 56.847c-1.613 7.594-3.1 9.624-6.842 8.104-.858-.349-2.913-2.487-3.12-7.037a6.441 6.441 0 0 1 1.262-4.215 5.9 5.9 0 0 1 3.607-2.279c7.411-1.08 7.672 5.939 7.672 5.939-3.72.669-8.786-.437-8.786-.437" fill="#0F1011"/><path d="M82.075 61.135c.003.2-.033.4-.104.586a1.524 1.524 0 0 1-.312.498 1.442 1.442 0 0 1-.471.334 1.387 1.387 0 0 1-1.115 0 1.443 1.443 0 0 1-.47-.334 1.524 1.524 0 0 1-.313-.498 1.582 1.582 0 0 1-.104-.586c-.004-.2.032-.399.103-.584.072-.185.178-.354.313-.495.135-.142.295-.253.472-.328.177-.075.366-.112.557-.108 1.029.053 1.444.679 1.444 1.515ZM62.73 103.489c0 .736.37 3.194-.225 3.369-.357.106-.778-1.727-.778-1.727" fill="#E98862"/><path d="M59.92 103.103s-1.944 4.963.273 7.814a.426.426 0 0 0 .48.148.447.447 0 0 0 .215-.158.478.478 0 0 0 .092-.257c.108-1.922.478-5.872 1.686-5.409v-3.1M103.748 76.664s2.715-2.262 2.906-3.075c.192-.812-1.719-2.41-1.719-2.41s2.542-2.688 2.035-3.078c-.598-.46-3.548 3.45-3.548 3.45s.417-1.407-.102-1.499c-.214-.038-.383.182-.717 1.177-.381 1.135-1.141 2.841-1.141 2.841l2.286 2.594Z" fill="#E98862"/><path d="m100.891 73.656-8.03 9.476-6.28-11.792c-.594-1.863-1.948-3.11-4.71-3.235-.944-.042-5.551-.049-8.925-.049-2.267 0-4.128.73-5.202 1.857a5.015 5.015 0 0 0-1.181 2.005l-.033-.013-5.398 15.4c-.06.172-.104.35-.13.532l-2.179 15.4 5.073.789 2.14-15.125 2.181-6.22c.227.957.351 1.936.37 2.921 0 5.181-2.235 7.505-2.07 10.164.259 4.18 19.623 3.193 20.61.818 1.015-2.449-1.046-3.958-.956-11.968.01-.872.074-1.784.162-2.712l3.81 7.154c.2.375.482.694.823.931a2.453 2.453 0 0 0 2.338.267c.382-.154.723-.402.995-.723l10.557-12.953-3.965-2.924Z" fill="#367CFF"/><path d="M67.618 59.289c-.141-3.659.654-5.876 1.792-7.054 1.123-1.162 4.733-2.024 6.26 2.51.996 2.962.673 3.98 1.08 8.653.406 4.672 1.456 4.666 1.652 8.965.21 4.572-1.565 8.144-6.237 8.114-3.815-.025-6.24-1.948-6.59-5.967-.501-5.768 2.32-8.052 2.043-15.221Z" fill="#0F1011"/><path d="m34.037 160.593-7.848 9.293 2.275 2.113 7.847-9.293-2.274-2.113Z" fill="#DEE8F5"/><path d="m27.827 160.989-2.015 2.386 8.86 8.232 2.014-2.386-8.859-8.232Z" fill="#DEE8F5"/><path d="M20.174 169.377c-4.658-1.515-9.178-3.494-13.296-9.032-.845-1.135-1.64-2.589-1.176-3.948.349-1.022 1.357-1.678 2.381-1.845a4.73 4.73 0 0 1 1.153-.033h.004c.59.063 1.174.183 1.744.358l.162.05a28.087 28.087 0 0 1 7.684 3.64 1.094 1.094 0 0 0 1.4-.152 1.234 1.234 0 0 0 .177-1.464 7.162 7.162 0 0 0-.843-1.16c-.468-.514-.981-.98-1.532-1.394-.733-.56-1.514-1.061-2.279-1.572a63.494 63.494 0 0 1-8.053-6.384c-1.797-1.679-3.554-3.543-4.407-5.903-.393-1.086-.571-2.338-.103-3.39.772-1.727 2.96-2.211 4.75-1.853 3.135.63 5.64 3.041 7.86 5.444 1.842 1.997 3.906 4.207 6.552 4.33a2.23 2.23 0 0 0 1.305-.274c.755-.48.949-1.591.68-2.473-.27-.883-.892-1.588-1.493-2.265-3.493-3.931-6.93-8.02-9.199-12.836-2.268-4.817-3.273-10.503-1.697-15.617.462-1.495 1.156-2.95 2.24-4.036 1.083-1.086 2.602-1.767 4.089-1.559 2.025.28 3.551 2.072 4.578 3.925 3.528 6.354 3.312 14.139 4.306 21.417.278 2.038.682 4.128 1.84 5.805.106.161.244.297.405.397.952.578 1.806-.588 2.164-1.577 1.411-3.916 1.764-8.393 4.29-11.634.965-1.233 2.329-2.264 3.85-2.254 1.858.013 3.447 1.64 3.988 3.503.542 1.863.218 3.888-.362 5.738-1.078 3.431-3.01 6.513-5.286 9.222-1.2 1.431-2.557 2.876-2.916 4.742a3.96 3.96 0 0 0 .133 1.898c.199.61.542 1.157.998 1.589.214.195.462.343.731.435.269.092.553.127.835.102.61-.059 1.16-.385 1.692-.702.223-.133.447-.268.672-.401l2.663-1.592c2.256-1.351 4.982-2.731 7.332-1.567 1.2.594 1.986 1.763 2.355 3.105a7.115 7.115 0 0 1 0 3.725c-.7 2.533-5.113 9.579-6.933 11.396-2.126 2.121-9.498 11.278-25.438 6.096Z" fill="#8DDBE0"/><path d="M206.779 144.398H204.2v26.609h2.579v-26.609Z" fill="#C1D8ED"/><path d="M204.657 144.398h-2.579v26.609h2.579v-26.609Z" fill="#DEE8F5"/><path d="M238.896 144.398h-2.579v26.609h2.579v-26.609Z" fill="#C1D8ED"/><path d="M236.774 144.398h-2.579v26.609h2.579v-26.609Z" fill="#DEE8F5"/><path d="M213.851 144.398h-2.579v26.609h2.579v-26.609Z" fill="#C1D8ED"/><path d="M211.729 144.398h-2.579v26.609h2.579v-26.609Z" fill="#DEE8F5"/><path d="M245.968 144.398h-2.578v26.609h2.578v-26.609Z" fill="#C1D8ED"/><path d="M243.846 144.398h-2.578v26.609h2.578v-26.609Z" fill="#DEE8F5"/><path d="M245.968 127.366h-34.68v17.67h34.68v-17.67Z" fill="#C1D8ED"/><path d="M236.758 127.366h-34.68v17.67h34.68v-17.67Z" fill="#DEE8F5"/><path opacity=".53" d="M234.892 129.878h-30.949v12.569h30.949v-12.569Z" fill="#F3F5FD"/><path d="M219.418 137.604c.759 0 1.374-.645 1.374-1.442 0-.796-.615-1.441-1.374-1.441-.759 0-1.375.645-1.375 1.441 0 .797.616 1.442 1.375 1.442Z" fill="#fff"/><path d="m216.34 110.084-2.621.65 3.285 14.575 2.621-.65-3.285-14.575Z" fill="#F0F6FF"/><path d="m219.223 108.954-2.25 12.793 1.455.282 2.25-12.793-1.455-.282Z" fill="#C1D8ED"/><path d="m219.224 108.95-.256 1.411 1.453.29.256-1.411-1.453-.29Z" fill="#DEE8F5"/><path d="m214.719 112.203-.808.334 4.714 12.552.808-.334-4.714-12.552Z" fill="#0CBC8B"/><path d="M220.792 117.697h-7.105v9.527h7.105v-9.527Z" fill="#C1D8ED"/></svg>