<svg width="95" height="70" fill="none" xmlns="http://www.w3.org/2000/svg"><g clip-path="url('#clip0_2_49364')"><path d="M7.879 69.984a8.208 8.208 0 0 1-3.096-.604 7.898 7.898 0 0 1-2.597-1.716A7.478 7.478 0 0 1 .504 65.11a7.206 7.206 0 0 1-.496-2.977c.259-5.594 3.985-13.611 14.141-20.852C28.241 31.235 18.95 8.296 37.448 5.9c30.405-3.937 24.653 21.813 43.427 31.2C92.826 43.076 95 54.77 95 62.478c-.002 1.992-.833 3.902-2.31 5.31-1.478 1.407-3.481 2.197-5.569 2.196H7.88Z" fill="#F3F5FD"/><path d="M3.39 65.35c-2.477-.733-4.882-1.69-7.072-4.37-.45-.55-.872-1.253-.626-1.91.186-.495.722-.812 1.267-.892a2.75 2.75 0 0 1 .613-.017h.002c.314.031.625.09.928.174l.086.024c1.446.392 2.823.986 4.087 1.761a.624.624 0 0 0 .745-.073.553.553 0 0 0 .094-.708 3.482 3.482 0 0 0-.448-.561 5.699 5.699 0 0 0-.815-.675c-.39-.27-.805-.513-1.212-.76a33.474 33.474 0 0 1-4.284-3.09c-.955-.812-1.89-1.713-2.344-2.855-.21-.526-.304-1.131-.055-1.64.41-.836 1.574-1.07 2.526-.897 1.668.305 3 1.471 4.181 2.634.98.966 2.078 2.036 3.485 2.095.24.021.482-.025.694-.133.402-.232.505-.77.362-1.196-.143-.427-.474-.768-.794-1.096-1.858-1.902-3.686-3.88-4.893-6.211-1.206-2.33-1.74-5.082-.902-7.556.245-.723.615-1.427 1.19-1.953.577-.525 1.385-.855 2.176-.754 1.077.135 1.889 1.003 2.435 1.899 1.877 3.074 1.762 6.84 2.29 10.362.148.986.363 1.997.979 2.809.056.078.13.143.216.192.506.28.96-.285 1.15-.764.751-1.894.939-4.06 2.283-5.628.513-.597 1.238-1.096 2.047-1.09.988.006 1.833.793 2.122 1.694.288.902.116 1.881-.193 2.776-.574 1.66-1.6 3.152-2.812 4.462-.637.693-1.36 1.392-1.55 2.294a1.75 1.75 0 0 0 .07.919c.106.295.289.56.531.769a1.177 1.177 0 0 0 .833.26c.324-.03.617-.187.9-.34l.357-.194 1.417-.77c1.2-.654 2.65-1.322 3.9-.759.638.288 1.056.853 1.253 1.502.176.59.176 1.214 0 1.803-.373 1.225-2.72 4.634-3.689 5.513-1.13 1.027-5.052 5.457-13.53 2.95Z" fill="#8DDBE0"/><path d="M26.349 68.947h30.7c2.352 0 4.258-1.819 4.258-4.062V5.115c0-2.243-1.906-4.062-4.257-4.062H26.349c-2.35 0-4.257 1.819-4.257 4.062v59.77c0 2.243 1.906 4.062 4.257 4.062Z" fill="#fff"/><path d="M20.988 64.885V5.115A5.005 5.005 0 0 1 22.56 1.5 5.5 5.5 0 0 1 26.35 0h30.7a5.5 5.5 0 0 1 3.789 1.5 5.005 5.005 0 0 1 1.572 3.615v59.77a5.005 5.005 0 0 1-1.572 3.615 5.5 5.5 0 0 1-3.79 1.5h-30.7a5.5 5.5 0 0 1-3.789-1.5 5.005 5.005 0 0 1-1.572-3.615ZM26.35 2.106a3.235 3.235 0 0 0-2.228.883 2.944 2.944 0 0 0-.925 2.125v59.771c.001.797.334 1.562.925 2.126a3.235 3.235 0 0 0 2.228.882h30.7c.837 0 1.638-.318 2.23-.882a2.944 2.944 0 0 0 .924-2.126V5.115a2.944 2.944 0 0 0-.925-2.126 3.235 3.235 0 0 0-2.228-.882h-30.7Z" fill="#DEE8F5"/><path d="M46.47 5.405h-9.54a2.001 2.001 0 0 1-1.38-.546 1.82 1.82 0 0 1-.572-1.317V1.053h13.444v2.489c0 .369-.115.729-.33 1.035-.214.306-.519.545-.875.686a2.04 2.04 0 0 1-1.129.106 1.983 1.983 0 0 1-1-.51 1.838 1.838 0 0 1-.534-.954 1.784 1.784 0 0 1 .111-1.076c.148-.34.398-.631.72-.836a2.02 2.02 0 0 1 1.084-.314v3.726Z" fill="#DEE8F5"/><path d="M82.16 20.944s-.99-.501-.769-3.074l-2.046-.362s.23 2.307-.805 3.04l3.62.396Z" fill="#E98862"/><path opacity=".15" d="m78.959 20.066 1.7-1.242-1.335-.013a3.389 3.389 0 0 1-.365 1.255Z" fill="#000"/><path d="M82.552 16.873c-.142.78-.588 1.52-1.31 1.771a5.415 5.415 0 0 1-2.48.32c-2.239-.175-1.796-5.034-.732-5.978 1.063-.944 4.184-.346 4.563 1.232.197.817.093 1.912-.041 2.655Z" fill="#E98862"/><path d="M81.27 18.551c.044.13.073.187.196.117.48-.272 1.435-.866 1.804-3.089.33-1.992-.957-2.814-1.984-3.107-.886-.252-2.952-.304-3.921.253-.836.481 0 1.599 0 1.599.369.016.443.319 1.315.319.673 0 .437-.024 1.068-.02 1.123.01.76.797.74 1.012-.059.614.424.94.498 1.454.056.494.151.982.285 1.462Z" fill="#0F1011"/><path d="M80.313 16.528a.717.717 0 0 0 .184.547.783.783 0 0 0 .536.262.82.82 0 0 0 .573-.176.757.757 0 0 0 .19-.23.723.723 0 0 0 .085-.28.705.705 0 0 0-.18-.551.768.768 0 0 0-.242-.182.805.805 0 0 0-.297-.077c-.561-.018-.813.274-.849.687Z" fill="#E98862"/><path d="m80.659 14.147.58.202s-.206 2.761-.368 3.516c-.162.755-.616 1.246-1.13 1.288-.79.065-1.36.07-1.94-.127-.653-.223-.561-1.895-.561-1.895s2.1.217 2.682-.05c.581-.265.737-2.934.737-2.934Z" fill="#0F1011"/><path d="M79.348 16.271c.102 0 .185-.079.185-.177a.181.181 0 0 0-.185-.177.181.181 0 0 0-.186.178c0 .097.083.177.186.177ZM77.884 16.157c.102 0 .185-.08.185-.177a.181.181 0 0 0-.185-.177.182.182 0 0 0-.186.177c0 .098.083.177.186.177Z" fill="#0F1011"/><path d="m78.054 15.513-.492.006M79.748 15.69l-.484-.11" stroke="#0F1011" stroke-width="1.394" stroke-miterlimit="10" stroke-linecap="round"/><path opacity=".15" d="M78.524 17.076a.07.07 0 0 1-.018-.002l-.447-.132a.066.066 0 0 1-.024-.012.06.06 0 0 1-.016-.071l.294-.624a.063.063 0 0 1 .036-.031.067.067 0 0 1 .048.001.062.062 0 0 1 .033.034.058.058 0 0 1 0 .046l-.264.56.377.111a.064.064 0 0 1 .035.026.059.059 0 0 1-.012.079.066.066 0 0 1-.042.015Z" fill="#000"/><path d="M82.401 13.02s-.605.729-2.85-.73c-2.246-1.458-3.088-.4-3.088.245s-.369 2.098 1.956 2.098" fill="#0F1011"/><path d="M79.11 17.846s-.66-.12-1.141 0c0 0 .04-.42.57-.42.532 0 .572.42.572.42Z" fill="#fff"/><path d="M65.699 26.25s-.736-.833-1.518-.965c-.783-.132-.587.298-.123.618.466.32 1.514.966 1.514.966" fill="#E98862"/><path d="M65.16 25.997s-1.46-.566-2.086-.31c0 0-.546.51-.011 1.182.513.643 1.852.882 1.852.882l.245-1.754ZM73.6 68.693l2.61-.296c-.118-.942-.25-2.074-.26-2.26v.03h-2.627c.001.075.001.303.278 2.526ZM84.07 68.993l2.627-.009-.01-2.817h-2.626l.008 2.826Z" fill="#E98862"/><path d="m77.26 67.901-4.628-.075c.192-4.65.225-9.97.277-14.784.014-1.193.108-2.384.282-3.566.745-5.1 1.23-10.17 2.233-15.24l.034.009.098-.637 9.517-.56.496 5.932s1.24 20.526 1.805 28.778l-4.613.372c-.83-8.091-2.117-19.881-2.908-28.382-.908 4.139-1.526 8.424-2.316 12.527-.158 5.137-.292 10.506-.277 15.626Z" fill="#262626"/><path d="M80.876 69.962a.536.536 0 0 1-.376-.158.487.487 0 0 1-.134-.37.478.478 0 0 1 .102-.258.513.513 0 0 1 .23-.164l3.058-.977a.452.452 0 0 1 .36.038c.42.278.923.42 1.434.406.399-.027.781-.16 1.104-.385a.2.2 0 0 1 .286.044c.02.03.03.064.03.1v1.426a.308.308 0 0 1-.099.227.337.337 0 0 1-.237.093l-5.758-.022ZM70.4 69.962a.536.536 0 0 1-.376-.158.485.485 0 0 1-.134-.37.477.477 0 0 1 .102-.258.512.512 0 0 1 .23-.164l3.059-.977a.453.453 0 0 1 .359.038c.42.278.923.42 1.435.406.398-.027.78-.16 1.103-.385a.202.202 0 0 1 .206-.024.192.192 0 0 1 .08.068c.02.03.03.064.03.1v1.426a.308.308 0 0 1-.098.227.336.336 0 0 1-.238.093l-5.758-.022Z" fill="#C1D8ED"/><path d="M72.134 30.396c.228 0 .453-.057.651-.165.199-.108.364-.264.48-.451l4.524-7.305-2.263-1.275-3.979 6.426-6.29-2.053-.85 2.372 7.301 2.383c.137.045.281.068.426.068Z" fill="#367CFF"/><path d="M74.938 34.008c.525 1.15 10.825 1.627 10.962-.395.088-1.287-1.1-2.41-1.1-4.918s2.418-5.71.447-7.59c-.572-.546-1.559-.898-2.762-.9-.09.67-4.351.673-4.384.016-.163.003-.289.005-.368.008-4.15.171-2.327 4.678-2.287 7.99.049 3.874-1.049 4.605-.508 5.79Z" fill="#367CFF"/><path d="M75.59 35.447a1.18 1.18 0 0 0 .278-.394 1.134 1.134 0 0 0-.013-.931 1.185 1.185 0 0 0-.29-.387l-11.751-10.38a1.263 1.263 0 0 0-.436-.25 1.306 1.306 0 0 0-.993.07 1.24 1.24 0 0 0-.393.307 1.182 1.182 0 0 0 .157 1.655L73.883 35.47c.234.205.541.318.859.313.317-.004.621-.125.848-.337Z" fill="#CA1000"/><path d="M75.168 22.973a1.24 1.24 0 0 0-.413-.265 1.29 1.29 0 0 0-.976.013 1.24 1.24 0 0 0-.405.276L62.494 34.21c-.115.12-.204.262-.26.416a1.143 1.143 0 0 0 .072.948c.08.145.19.272.323.375a1.323 1.323 0 0 0 1.734-.15l10.83-11.196c.216-.223.333-.516.329-.819a1.155 1.155 0 0 0-.354-.81Z" fill="#BC0C0C"/><path d="M78.1 20.221c.033.657.407 1.622 1.562 1.695 1.539.097 2.732-1.04 2.822-1.71h-.003c-1.515 0-3.497.002-4.38.015ZM74.602 29.411s.29-1.572-.902-1.702c-.752-.082-2.64-1.079-3-.246-.31.723 1.494 1.584 2.14 1.743.578.142 1.762.205 1.762.205Z" fill="#E98862"/><path d="M74.106 27.834s-1.535-.803-1.955-.784c-.371.017.26.703.26.703l1.695.081Z" fill="#E98862"/><path d="M80.79 31.984c.264 0 .521-.073.742-.21a1.32 1.32 0 0 0 .504-.561l3.822-8.165-2.491-1.061-3.33 7.114-6.411-1.877-.8 2.488 7.564 2.215c.13.038.264.057.4.057Z" fill="#367CFF"/><path d="M62.327 25.939a.235.235 0 0 1 .022-.302c.19-.195.542-.506.774-.39.33.163.99.77.807 1.085-.184.316-.563.662-.808.557-.185-.079-.583-.656-.795-.95Z" fill="#E98862"/><path d="M42.792 50.59h12.111V45.64H42.792v4.948Z" fill="#C1D8ED"/><path d="M28.495 50.59h12.111V45.64h-12.11v4.948Z" fill="#0CBC8B"/><path d="M32.96 23.217c-.003 2.156.873 4.229 2.442 5.78 1.178-2.513 3.557-4.228 6.295-4.228 2.741 0 5.12 1.718 6.298 4.23a8.255 8.255 0 0 0 2.108-3.495 7.968 7.968 0 0 0 .142-4.031 8.19 8.19 0 0 0-1.857-3.623 8.733 8.733 0 0 0-3.422-2.367 9.123 9.123 0 0 0-4.186-.559 9.006 9.006 0 0 0-3.971 1.382 8.487 8.487 0 0 0-2.827 2.998 8.035 8.035 0 0 0-1.022 3.913Z" fill="#C1D8ED"/><path d="M41.7 24.076c1.91 0 3.459-1.478 3.459-3.301 0-1.823-1.55-3.301-3.46-3.301s-3.46 1.478-3.46 3.301c0 1.823 1.55 3.301 3.46 3.301ZM35.402 28.997a8.76 8.76 0 0 0 2.875 1.891 9.099 9.099 0 0 0 3.421.667 9.1 9.1 0 0 0 3.422-.665A8.76 8.76 0 0 0 47.996 29c-1.179-2.514-3.557-4.231-6.298-4.231-2.739 0-5.117 1.715-6.296 4.228Z" fill="#F3F5FD"/><path d="M28.495 35.861h26.408v-1.006H28.495v1.006ZM28.495 38.6h26.408v-1.006H28.495V38.6ZM42.792 41.433h12.111v-1.006H42.792v1.006Z" fill="#DEE8F5"/></g><defs><clipPath id="clip0_2_49364"><path fill="#fff" d="M0 0h95v70H0z"/></clipPath></defs></svg>