<svg width="108" height="69" fill="none" xmlns="http://www.w3.org/2000/svg"><g clip-path="url('#clip0_8_17548')"><path d="M32.575 7.265c0-3.426-2.088-6.167-6.102-6.167-3.62 0-5.915 2.781-5.915 6.167" fill="#C1D8ED"/><path d="M26.474 1.098c4.01 0 6.094 2.737 6.1 6.158.004.025.006.05.005.075v32.763a5.34 5.34 0 0 0 .547 2.37 6.204 6.204 0 0 0 1.582 2.01 7.515 7.515 0 0 0 2.376 1.345c.889.312 1.842.472 2.805.472.963 0 1.916-.16 2.805-.472a7.515 7.515 0 0 0 2.376-1.345 6.203 6.203 0 0 0 1.582-2.01 5.34 5.34 0 0 0 .546-2.37H70.48V7.951c0-3.669-2.51-6.693-6.858-6.853H26.474Z" fill="#D7E8F4"/><path d="M39.89 46.262h30.59c.96 0 1.91-.16 2.796-.47a7.52 7.52 0 0 0 2.372-1.337 6.213 6.213 0 0 0 1.584-2c.368-.749.557-1.55.557-2.36h-30.59a5.318 5.318 0 0 1-.548 2.364 6.184 6.184 0 0 1-1.584 2.004 7.494 7.494 0 0 1-2.376 1.336 8.468 8.468 0 0 1-2.802.463Z" fill="#C1D8ED"/><path d="M43.757 14.354h15.692c.707 0 1.281-.484 1.281-1.081 0-.598-.574-1.082-1.281-1.082H43.757c-.708 0-1.281.484-1.281 1.082 0 .597.573 1.08 1.28 1.08ZM63.931 19.618H39.274c-.302 0-.546.206-.546.46 0 .255.244.461.546.461H63.93c.302 0 .546-.206.546-.46 0-.255-.244-.461-.546-.461ZM63.931 17.405H39.274c-.302 0-.546.206-.546.46v.001c0 .254.244.46.546.46H63.93c.302 0 .546-.206.546-.46 0-.255-.244-.46-.546-.46ZM63.931 21.83H39.274c-.302 0-.546.206-.546.46 0 .255.244.461.546.461H63.93c.302 0 .546-.206.546-.46 0-.255-.244-.46-.546-.46ZM63.931 24.043H39.274c-.302 0-.546.206-.546.46 0 .255.244.461.546.461H63.93c.302 0 .546-.206.546-.46 0-.255-.244-.461-.546-.461ZM63.931 26.255H39.274c-.302 0-.546.207-.546.461 0 .255.244.46.546.46H63.93c.302 0 .546-.205.546-.46 0-.254-.244-.46-.546-.46ZM63.931 30.68H39.274c-.302 0-.546.206-.546.46 0 .255.244.462.546.462H63.93c.302 0 .546-.207.546-.461 0-.255-.244-.46-.546-.46ZM63.931 28.468H39.274c-.302 0-.546.206-.546.46 0 .255.244.461.546.461H63.93c.302 0 .546-.206.546-.46 0-.255-.244-.461-.546-.461ZM56.516 32.893H46.69c-.301 0-.546.206-.546.46 0 .255.245.461.546.461h9.827c.302 0 .546-.206.546-.46 0-.255-.244-.46-.546-.46Z" fill="#FAFBFC"/><path d="M17.481 5.472c.05.51-.58.985-.684 1.466-.108.497.277 1.129.026 1.575-.255.453-1.081.6-1.463.98-.383.379-.421 1.09-.91 1.375-.481.282-1.282.063-1.847.232-.545.164-1 .765-1.604.807-.605.041-1.167-.49-1.737-.578-.59-.09-1.338.234-1.867.022-.537-.215-.71-.912-1.16-1.235-.45-.322-1.294-.355-1.632-.767-.333-.406-.073-1.082-.274-1.558-.195-.46-.907-.844-.956-1.354-.05-.51.58-.985.685-1.466.107-.497-.278-1.129-.027-1.575.255-.453 1.082-.6 1.464-.98.382-.379.42-1.09.909-1.376C6.885.76 7.686.978 8.25.81c.545-.164 1-.765 1.604-.807.605-.041 1.168.49 1.737.578.59.09 1.339-.234 1.867-.022.537.215.712.912 1.16 1.235.45.322 1.294.355 1.632.767.333.406.074 1.082.275 1.558.194.46.906.844.955 1.354Z" fill="#0F1011"/><path d="M8.237 11.017c.326-.466.675-1.369.514-3.044l2.633-.41s-.297 2.614 1.023 3.454h-4.17Z" fill="#E98862"/><path opacity=".15" d="M11.877 10.473 9.692 9.06l1.717-.014c.05.496.208.98.468 1.427Z" fill="#000"/><path d="M7.259 6.837c.18.888.755 1.73 1.683 2.018a7.817 7.817 0 0 0 3.189.366c2.882-.198 2.318-5.727.95-6.802-1.367-1.074-5.383-.398-5.873 1.398-.253.929-.123 2.174.05 3.02Z" fill="#E98862"/><path d="M11.382 6.156c.132 0 .24-.09.24-.202 0-.11-.108-.201-.24-.201s-.238.09-.238.201c0 .112.106.202.238.202ZM13.266 6.027c.132 0 .239-.09.239-.202 0-.11-.107-.201-.239-.201s-.239.09-.239.201c0 .112.107.202.24.202ZM13.68 5.397h-.001l-.633-.008a.122.122 0 0 1-.076-.029.087.087 0 0 1-.031-.066c0-.024.012-.048.032-.065a.123.123 0 0 1 .077-.029h.001l.633.007c.03 0 .058.01.079.028.02.018.032.042.032.068 0 .025-.012.049-.033.066a.124.124 0 0 1-.08.028ZM10.867 5.59a.125.125 0 0 1-.074-.025.091.091 0 0 1-.037-.06.084.084 0 0 1 .02-.065.115.115 0 0 1 .065-.038l.624-.126a.133.133 0 0 1 .087.01.108.108 0 0 1 .033.025c.008.01.015.022.018.035a.08.08 0 0 1 .002.037.086.086 0 0 1-.016.035.103.103 0 0 1-.03.027.123.123 0 0 1-.042.015l-.623.126a.13.13 0 0 1-.027.003Z" fill="#0F1011"/><path d="M11.491 7.541s.881.08 1.5-.103c0 0-.006.49-.703.538-.697.048-.797-.435-.797-.435Z" fill="#F8FCFF"/><path d="M9.2 4.537a14.858 14.858 0 0 1-.802 6.174S6.39 7.788 6.078 5.354c-.29-2.281 1.703-3.627 3.05-3.88 5.116-.961 5.484 2.192 5.484 2.192-.932 1.636-5.966 1.629-5.966 1.629" fill="#0F1011"/><path d="M10.176 6.822a.773.773 0 0 1-.243.616c-.173.17-.42.276-.685.295a1.141 1.141 0 0 1-.733-.198.822.822 0 0 1-.357-.575.716.716 0 0 1 .04-.333.813.813 0 0 1 .192-.293.99.99 0 0 1 .312-.207c.12-.05.25-.08.383-.087.721-.02 1.046.312 1.09.782Z" fill="#E98862"/><path opacity=".15" d="M12.44 7.073a.091.091 0 0 1-.053-.017.067.067 0 0 1-.028-.043.06.06 0 0 1 .012-.047.082.082 0 0 1 .046-.03l.485-.124-.339-.639a.06.06 0 0 1-.001-.053.076.076 0 0 1 .043-.039.096.096 0 0 1 .063-.001c.02.006.037.02.046.036l.377.71a.06.06 0 0 1 0 .058.071.071 0 0 1-.02.023.088.088 0 0 1-.031.015l-.575.148a.097.097 0 0 1-.024.003Z" fill="#000"/><path d="M17.024 30.36c3.287 12.22 6.264 24.521 8.613 36.895l-3.303.574c-3.63-12.152-6.65-24.446-9.345-36.768l4.035-.7ZM10.229 31.118c.302 12.139.28 24.305-.374 36.436H6.483c-.654-12.13-.675-24.297-.374-36.436h4.12Z" fill="#E98862"/><path d="M14.216 68.676a.785.785 0 0 0 .27-.049.687.687 0 0 0 .225-.135.56.56 0 0 0 .141-.2.488.488 0 0 0 .036-.232.52.52 0 0 0-.134-.3.679.679 0 0 0-.304-.19l-4.028-1.139a.67.67 0 0 0-.473.045 3.579 3.579 0 0 1-1.89.472 3.144 3.144 0 0 1-1.453-.448.296.296 0 0 0-.27-.028.246.246 0 0 0-.107.08.191.191 0 0 0-.04.115v1.662c0 .049.012.098.034.143a.376.376 0 0 0 .096.12c.041.035.09.063.144.081a.514.514 0 0 0 .17.028l7.583-.025ZM29.66 68.676a.783.783 0 0 0 .271-.049.686.686 0 0 0 .225-.135.56.56 0 0 0 .141-.2.488.488 0 0 0 .035-.232.521.521 0 0 0-.134-.3.68.68 0 0 0-.303-.19l-4.028-1.139a.67.67 0 0 0-.473.045 3.58 3.58 0 0 1-1.89.472 3.143 3.143 0 0 1-1.453-.448.298.298 0 0 0-.27-.028.245.245 0 0 0-.107.08.191.191 0 0 0-.04.115v1.662c0 .049.012.098.034.143a.375.375 0 0 0 .096.12c.041.035.09.063.144.081a.515.515 0 0 0 .17.028l7.583-.025Z" fill="#C1D8ED"/><path d="M4.02 25.877S2.15 32.95 2.15 38.897C2.149 44.848 0 54.06 0 54.06s6.091-.832 10.223 0c7.12 1.432 13.504-1.687 13.504-1.687l-7.17-25.842-12.537-.653Z" fill="#262626"/><path d="M36.423 19.255s1.353-.555 2.369-.342c1.016.213.54.582-.2.713-.739.131-2.363.345-2.363.345" fill="#E98862"/><path d="M37.214 19.228s2.507-.222 2.533.287c0 0 .11 1.57-.23 1.813-.515.367-3.062.08-3.062.08l.759-2.18Z" fill="#E98862"/><path d="M30.585 21.824h-9.8a1.99 1.99 0 0 1-.831-.18 1.651 1.651 0 0 1-.627-.492l-6.192-8.157 2.914-1.575 5.682 7.484h8.854v2.92Z" fill="#367CFF"/><path d="M17.35 26.8c-.69 1.338-14.256 1.894-14.437-.46-.115-1.5 1.45-2.808 1.45-5.729 0-2.921-3.185-6.651-.59-8.841.753-.635 2.053-1.045 3.639-1.047.118.78 5.73.783 5.773.018.214.003.38.006.485.01 5.467.199 3.065 5.449 3.012 9.305-.064 4.513 1.38 5.364.669 6.743Z" fill="#367CFF"/><path d="M13.186 10.741c-.043.765-.536 1.89-2.057 1.975-2.026.112-3.598-1.213-3.717-1.993h.005c1.995 0 4.606.003 5.769.018Z" fill="#E98862"/><path d="M29.146 28.706c5.46 0 9.886-3.735 9.886-8.342 0-4.607-4.426-8.342-9.886-8.342-5.46 0-9.887 3.735-9.887 8.342 0 4.607 4.427 8.342 9.887 8.342Z" fill="#0CBC8B"/><path opacity=".29" d="M29.146 25.772c3.54 0 6.409-2.421 6.409-5.408 0-2.987-2.87-5.408-6.41-5.408-3.539 0-6.408 2.421-6.408 5.408 0 2.986 2.87 5.408 6.409 5.408Z" fill="#fff"/><path d="m27.048 22.296.598-.782c.473.305.888.462 1.329.462.528 0 .76-.185.76-.543 0-.81-2.46-.794-2.46-2.214 0-.912.749-1.494 1.93-1.494.336-.004.668.054.975.17.306.114.58.285.8.498l-.686.663c-.339-.26-.626-.397-1.015-.397-.449 0-.692.153-.692.506 0 .75 2.46.684 2.46 2.188 0 .903-.708 1.557-2.072 1.557a3.456 3.456 0 0 1-1.927-.614Zm1.64-5.341h.909v1.132h-.91v-1.132Zm0 5.482h.909v1.243h-.91v-1.243Z" fill="#fff"/><path d="M39.516 21.33a.604.604 0 0 1-.154.073c-.295.051-1.04-.1-1.16-.273-.194-.284-.073-1.31.098-1.681.161-.348.963-.203 1.068-.186a.07.07 0 0 0 .01.002c.219.05.363.13.369.251 0 0 .11 1.57-.231 1.813ZM17.686 22.277s.397-1.829 1.93-1.51c.968.2 3.78-.158 3.822.89.037.91-2.604 1.152-3.477 1.077-.784-.068-2.275-.457-2.275-.457Z" fill="#E98862"/><path d="M19.055 20.746s2.28-.284 2.79-.1c.451.161-.659.667-.659.667l-2.131-.567Z" fill="#E98862"/><path d="M19.785 23.293 9.588 23.03a2.043 2.043 0 0 1-.898-.23 1.653 1.653 0 0 1-.638-.58l-5.034-8.1L6.2 12.712l4.547 7.315 9.147.236-.11 3.03Z" fill="#367CFF"/><path d="m77.599 67.496 3.436-.345c-.155-1.098-.33-2.416-.341-2.632v.034h-3.46c0 .088 0 .354.365 2.943ZM91.387 67.845l3.46-.01-.011-3.282h-3.46l.011 3.292Z" fill="#E98862"/><path d="M76.323 66.486c.286-6.118.303-12.545.393-18.68 1.19-6.617 1.816-13.874 3.285-20.444l.044.01.129-.74 12.535-.654.441 6.91c.63 9.257 1.85 24.138 2.589 33.519l-6.075.434c-1.085-9.226-2.69-23.924-3.67-33.017-1.076 4.633-2.255 9.851-3.21 14.54-.21 5.989-.385 12.23-.366 18.21l-6.095-.088Z" fill="#262626"/><path d="M87.18 68.974a.787.787 0 0 1-.27-.049.686.686 0 0 1-.224-.135.56.56 0 0 1-.142-.2.488.488 0 0 1-.035-.232.522.522 0 0 1 .134-.299.68.68 0 0 1 .304-.191l4.027-1.138a.672.672 0 0 1 .474.044 3.58 3.58 0 0 0 1.89.473 3.144 3.144 0 0 0 1.453-.448.296.296 0 0 1 .27-.028c.044.017.081.045.107.08.026.034.04.074.04.115v1.662a.322.322 0 0 1-.035.142.376.376 0 0 1-.096.121.455.455 0 0 1-.144.081.514.514 0 0 1-.169.028l-7.584-.026ZM73.383 68.974a.786.786 0 0 1-.27-.049.686.686 0 0 1-.225-.135.561.561 0 0 1-.141-.2.49.49 0 0 1-.035-.232.523.523 0 0 1 .134-.299.68.68 0 0 1 .304-.191l4.027-1.138a.672.672 0 0 1 .473.044 3.58 3.58 0 0 0 1.89.473 3.143 3.143 0 0 0 1.453-.448.296.296 0 0 1 .27-.028c.045.017.082.045.108.08.025.034.039.074.039.115v1.662a.322.322 0 0 1-.034.142.377.377 0 0 1-.096.121.456.456 0 0 1-.144.081.513.513 0 0 1-.17.028l-7.583-.026Z" fill="#C1D8ED"/><path d="M87.893 36.07v9.03c0 .365.171.714.476.97a1.79 1.79 0 0 0 1.15.403h16.855c.431 0 .845-.145 1.15-.402.305-.257.476-.606.476-.97V36.07c0-.271-.095-.537-.274-.762a1.6 1.6 0 0 0-.73-.505 1.906 1.906 0 0 0-.939-.078 1.736 1.736 0 0 0-.832.375 1.32 1.32 0 0 0-.445.702c-.063.266-.031.542.092.793.123.25.332.465.599.616.267.15.582.23.903.23l-4.455-2.743v-.953c0-.34-.16-.666-.445-.906a1.677 1.677 0 0 0-1.074-.376h-4.907c-.403 0-.789.136-1.074.376-.285.24-.445.566-.445.906v.953h-4.455v2.744c.321 0 .636-.08.903-.231.267-.151.476-.365.599-.616.123-.25.155-.527.092-.793a1.322 1.322 0 0 0-.445-.702 1.737 1.737 0 0 0-.832-.375 1.906 1.906 0 0 0-.94.078c-.296.104-.55.28-.729.505-.179.225-.274.49-.274.762Zm13.038-1.372h-5.969v-.953c0-.119.056-.232.156-.316a.585.585 0 0 1 .375-.132h4.907c.14 0 .275.047.375.132a.421.421 0 0 1 .156.316v.953Z" fill="#0CBC8B"/><path d="M65.152 23.012c-.478.095-2.136.198-2.155.563-.011.219 1.247.226 1.247.226" fill="#E98862"/><path d="M64.217 25.699c1.977-.391 3.447-1.181 3.285-1.765-.162-.584-1.896-.741-3.872-.35-1.976.39-3.447 1.18-3.285 1.764.163.584 1.896.741 3.872.35ZM96.39 30.711c0 .415-.26 1.8.157 1.899.25.06.546-.973.546-.973" fill="#E98862"/><path d="M98.358 30.494s1.41 1.282.452 2.803c-.133.211-1.43.335-1.43.077 0-1.085-.099-1.936-.945-1.676v-1.746" fill="#E98862"/><path d="m73.753 19.931 6.136-7.736.036.02c.527-.679 1.433-1.112 2.929-1.166.103-.004.27-.007.484-.01.043.765 5.655.762 5.774-.018 1.585.001 2.885.411 3.638 1.047.35.292.619.647.786 1.038l.02-.007 3.983 7.566c.07.132.116.27.139.413l1.547 9.709-3.56.404-1.513-9.494-1.57-2.981a7.437 7.437 0 0 0-.421 2.193c0 2.921 1.565 4.23 1.45 5.728-.181 2.355-13.747 1.8-14.438.46-.712-1.379.733-2.23.67-6.743-.027-.792-.101-1.582-.224-2.368l-3.209 4.046c-.213.27-.524.474-.885.584L65.48 25.661l-1.215-2.853 9.487-2.877Z" fill="#367CFF"/><path d="M83.339 11.04c.043.764.535 1.889 2.056 1.973 2.027.113 3.599-1.212 3.718-1.992h-.006c-1.995 0-4.605.002-5.768.018Z" fill="#E98862"/><path d="M87.715 9.217a7.646 7.646 0 0 1 .04-.94l-2.634-.412c.092.273.009 2.335-.494 2.907-.125.206-.3.387-.514.531h4.14c-.257-.372-.52-1.014-.538-2.086Z" fill="#E98862"/><path opacity=".15" d="m84.625 10.774 2.187-1.411-1.718-.015c-.05.496-.209.98-.469 1.426Z" fill="#000"/><path d="M89.248 7.142c-.336 2.089-2.724 2.536-4.875 2.38-2.882-.2-2.312-5.729-.944-6.803 1.368-1.074 5.385-.394 5.872 1.403.253.929.12 2.174-.053 3.02Z" fill="#E98862"/><path d="M81.413 2.206c-.001-.737 1.09-1.937 3.976-.277 1.583.024 2.5.095 3.665.829 2.56 1.474.335 6.1-1.204 6.427-.157.079-.196.014-.25-.133a9.727 9.727 0 0 1-.368-1.664c-.094-.584-.716-.956-.641-1.655.026-.244.493-1.14-.951-1.15-3.152.177-4.58-.234-4.227-2.377Z" fill="#0F1011"/><path d="M86.367 6.75c-.126 1.102 1.93 1.244 2.018.138.151-1.139-2.05-1.22-2.018-.139Z" fill="#E98862"/><path d="m86.812 4.04.745.23c-.227.527.174 5.398-1.926 5.466-2.819.295-3.324-.424-3.219-2.3 4.317.412 3.994-.11 4.4-3.396Z" fill="#0F1011"/><path d="M84.888 6.24a.183.183 0 0 0 .058.142.27.27 0 0 0 .331.023.195.195 0 0 0 .086-.133.183.183 0 0 0-.059-.143.27.27 0 0 0-.331-.023.195.195 0 0 0-.085.133ZM83.004 6.11a.182.182 0 0 0 .057.144.269.269 0 0 0 .334.023.194.194 0 0 0 .084-.135.182.182 0 0 0-.057-.145.256.256 0 0 0-.161-.07.27.27 0 0 0-.173.047.194.194 0 0 0-.084.135ZM82.828 5.696l.634-.006a.122.122 0 0 0 .076-.03.087.087 0 0 0 .03-.066.088.088 0 0 0-.032-.065.123.123 0 0 0-.077-.029l-.633.007a.122.122 0 0 0-.076.03.087.087 0 0 0-.03.065c0 .025.01.048.031.066.02.017.048.028.077.028ZM85.64 5.891c.455-.186-.497-.276-.597-.313a.13.13 0 0 0-.083.012.097.097 0 0 0-.05.058.082.082 0 0 0 .013.07c.015.022.04.038.068.044.03.003.617.13.65.13Z" fill="#0F1011"/><path opacity=".15" d="M84.065 7.373c.339-.128-.395-.227-.461-.262l.34-.638c-.063-.433-.488.634-.528.654-.078.14.575.204.65.246Z" fill="#000"/><path d="M85.015 7.842s-.882.079-1.5-.103c-.025.639 1.404.736 1.5.103Z" fill="#F8FCFF"/><path d="M70.48 12.025c2.92 0 5.288-1.998 5.288-4.462 0-2.465-2.368-4.463-5.289-4.463-2.92 0-5.289 1.998-5.289 4.463 0 2.464 2.368 4.462 5.29 4.462Z" fill="#8DDBE0"/><path d="M69.7 9.392a.395.395 0 0 1-.245-.082l-1.728-1.376a.307.307 0 0 1-.081-.096.26.26 0 0 1-.008-.23.298.298 0 0 1 .074-.099.362.362 0 0 1 .113-.068.412.412 0 0 1 .39.056l1.465 1.166 3.045-2.832a.389.389 0 0 1 .245-.093.397.397 0 0 1 .252.078c.07.053.11.126.117.205a.272.272 0 0 1-.086.214l-3.29 3.059a.36.36 0 0 1-.113.07.412.412 0 0 1-.137.028H69.7Z" fill="#fff"/></g><defs><clipPath id="clip0_8_17548"><path fill="#fff" d="M0 0h108v69H0z"/></clipPath></defs></svg>