<svg width="205" height="142" fill="none" xmlns="http://www.w3.org/2000/svg"><g clip-path="url('#clip0_9_24568')"><path d="M205.001 141.97H0c2.246-5.765 6.394-10.655 12.242-12.106 8.555-2.119 17.607 3.709 26.142 1.517 4.85-1.244 8.667-4.868 12.679-7.878 15.134-11.355 35.873-14.712 53.781-8.701 9.361 3.14 17.89 8.632 27.479 10.965 12.4 3.02 25.367.516 38.119.103 12.419-.4 30.212 4.692 34.559 16.1Z" fill="#F3F5FD"/><path d="M171.657 98.964c-1.464 4.467-6.521 8.436-5.01 11.721.574 1.248 1.151 2.554 1.417 3.888a6.82 6.82 0 0 1 .084 2.421c-.544 3.479-3.779 5.789-6.786 7.588l-.561.337c-2.85 1.718-5.835 3.697-6.75 6.869-.508 1.763-.284 3.647-.495 5.469a11.462 11.462 0 0 1-1.655 4.713h-19.207c-1.705-1.891-1.563-5.07-.265-7.3 1.389-2.386 3.736-4.008 5.853-5.773 1.829-1.525 3.612-3.361 4.31-5.6.111-.354.193-.717.245-1.085.169-1.212.078-7.401 2.165-11.212 3.228-5.883 8.463-4.434 10.063-7.754.613-1.271 1.142-16.897 11.339-14.01a7.564 7.564 0 0 1 2.733 1.377 7.667 7.667 0 0 1 2.52 8.35Z" fill="#C1D8ED"/><path d="M190.31 123.396a4.623 4.623 0 0 1-.938.502c-2.752 1.039-10.404.924-11.523 3.658-.526 1.286-.652 2.705-1.103 4.02-1.023 2.983-3.724 5.22-6.746 6.061-1.087.302-2.213.442-3.289.778-2.078.652-3.8 1.963-5.313 3.555h-24.805a9.875 9.875 0 0 1 1.176-4.743 9.813 9.813 0 0 1 3.301-3.587c2.758-1.751 6.242-2.078 8.95-3.907 1.785-1.207 3.069-2.951 4.088-4.879a35.741 35.741 0 0 0 1.714-3.891c.758-1.979 1.55-4.103 3.271-5.328a8.376 8.376 0 0 1 2.763-1.166c2.486-.654 4.397-.269 6.208.104 2.197.451 4.248.882 7.002-.59 4.884-2.612 12.026-15.64 19.163-3.262 2.861 4.965-1.087 10.767-3.919 12.675Z" fill="#8DDBE0"/><path d="M34.745 98.964c1.465 4.467 6.522 8.436 5.01 11.721-.574 1.248-1.15 2.554-1.416 3.888a6.831 6.831 0 0 0-.085 2.421c.545 3.479 3.78 5.789 6.787 7.588l.561.337c2.85 1.718 5.835 3.697 6.75 6.869.508 1.763.284 3.647.495 5.469a11.48 11.48 0 0 0 1.654 4.713h19.207c1.706-1.891 1.564-5.07.266-7.3-1.39-2.386-3.736-4.008-5.853-5.773-1.829-1.525-3.612-3.361-4.31-5.6a6.835 6.835 0 0 1-.245-1.085c-.17-1.212-.078-7.401-2.166-11.212-3.227-5.883-8.462-4.434-10.062-7.754-.613-1.271-1.142-16.897-11.34-14.01a7.565 7.565 0 0 0-2.732 1.377 7.62 7.62 0 0 0-1.97 2.351 7.667 7.667 0 0 0-.55 6Z" fill="#C1D8ED"/><path d="M16.092 123.396c.293.203.607.371.938.502 2.752 1.039 10.404.924 11.523 3.658.526 1.286.652 2.705 1.103 4.02 1.023 2.983 3.724 5.22 6.746 6.061 1.087.302 2.213.442 3.29.778 2.078.652 3.799 1.963 5.312 3.555H69.81a9.878 9.878 0 0 0-1.177-4.743 9.812 9.812 0 0 0-3.3-3.587c-2.759-1.751-6.243-2.078-8.95-3.907-1.786-1.207-3.07-2.951-4.089-4.879a35.724 35.724 0 0 1-1.714-3.891c-.758-1.979-1.55-4.103-3.271-5.328a8.376 8.376 0 0 0-2.763-1.166c-2.486-.654-4.397-.269-6.208.104-2.197.451-4.248.882-7.002-.59-4.884-2.612-12.026-15.64-19.163-3.262-2.86 4.965 1.088 10.767 3.919 12.675Z" fill="#8DDBE0"/><path d="M131.984 2.032H75.812c-4.301 0-7.788 3.51-7.788 7.839v122.258c0 4.329 3.487 7.838 7.788 7.838h56.172c4.301 0 7.788-3.509 7.788-7.838V9.871c0-4.33-3.487-7.839-7.788-7.839Z" fill="#fff"/><path d="M131.984 142H75.812a9.786 9.786 0 0 1-6.932-2.895 9.913 9.913 0 0 1-2.876-6.976V9.871a9.914 9.914 0 0 1 2.876-6.976A9.788 9.788 0 0 1 75.812 0h56.172a9.79 9.79 0 0 1 6.932 2.895 9.917 9.917 0 0 1 2.876 6.976V132.13a9.916 9.916 0 0 1-2.876 6.976 9.787 9.787 0 0 1-6.932 2.895ZM75.812 4.065a5.757 5.757 0 0 0-4.077 1.702 5.83 5.83 0 0 0-1.692 4.104V132.13a5.833 5.833 0 0 0 1.691 4.103 5.758 5.758 0 0 0 4.077 1.702h56.172a5.756 5.756 0 0 0 4.076-1.702 5.831 5.831 0 0 0 1.692-4.103V9.871a5.83 5.83 0 0 0-1.692-4.103 5.755 5.755 0 0 0-4.076-1.702h-56.17Z" fill="#DEE8F5"/><path d="M91.599 2.032h24.598v4.804a3.606 3.606 0 0 1-1.046 2.542 3.554 3.554 0 0 1-2.526 1.053H95.171a3.56 3.56 0 0 1-2.526-1.053 3.607 3.607 0 0 1-1.046-2.542V2.032Z" fill="#DEE8F5"/><path d="M115.678 31.725c0 2.345-.691 4.637-1.986 6.587a11.791 11.791 0 0 1-5.287 4.366 11.71 11.71 0 0 1-6.806.674 11.757 11.757 0 0 1-6.032-3.245 11.88 11.88 0 0 1-3.223-6.071c-.454-2.3-.221-4.684.67-6.85a11.84 11.84 0 0 1 4.34-5.32 11.727 11.727 0 0 1 6.545-1.997 11.668 11.668 0 0 1 4.515.89 11.73 11.73 0 0 1 3.828 2.57 11.819 11.819 0 0 1 2.552 3.852c.59 1.441.89 2.986.884 4.544Z" fill="#C1D8ED"/><path d="M103.898 32.947c2.576 0 4.664-2.102 4.664-4.694 0-2.593-2.088-4.694-4.664-4.694-2.576 0-4.664 2.101-4.664 4.694 0 2.592 2.088 4.694 4.664 4.694ZM112.387 39.945a11.775 11.775 0 0 1-3.876 2.69 11.71 11.71 0 0 1-9.226.001 11.776 11.776 0 0 1-3.876-2.689c1.589-3.573 4.796-6.015 8.49-6.015s6.899 2.44 8.488 6.013Z" fill="#fff"/><path d="M128.717 52.129H79.079v10.898h49.638V52.129Z" fill="#0CBC8B"/><path d="M128.717 70.964H79.079v10.898h49.638V70.964Z" fill="#C1D8ED"/><path d="M163.767 46.407s-1.841-.795-1.841-5.662l-3.7-.38s.762 4.3-.969 5.828l6.51.214Z" fill="#E98862"/><path d="M163.842 38.7c-.133 1.487-.815 2.941-2.062 3.521a9.223 9.223 0 0 1-4.367.965c-4.017 0-3.972-9.196-2.222-11.126 1.75-1.931 7.401-1.266 8.319 1.645.474 1.506.458 3.578.332 4.994Z" fill="#E98862"/><path d="M158.015 38.041c.183 0 .331-.15.331-.333a.332.332 0 0 0-.331-.334.333.333 0 0 0 0 .667ZM158.667 37.047l-.025-.002-.88-.139a.154.154 0 0 1-.106-.06.165.165 0 0 1-.027-.057.164.164 0 0 1-.003-.063.158.158 0 0 1 .184-.13l.88.139a.153.153 0 0 1 .098.057c.025.031.037.07.034.11a.157.157 0 0 1-.155.145Z" fill="#367CFF"/><path d="M155.414 39.124c0 .376.148.736.412 1.001a1.401 1.401 0 0 0 1.988 0c.264-.265.412-.625.412-1a1.392 1.392 0 0 0-.388-.992 1.38 1.38 0 0 0-.971-.424h-.047c-1.001.05-1.406.634-1.406 1.415Z" fill="#E98862"/><path d="M155.402 35.796a15.257 15.257 0 0 1-2.327-.198s.236-5.971 6.537-5.63c.819-.038 1.638.01 2.447.145 1.894.292 4.579 2.24 5.012 7.118.199 2.237.965 4.346 1.55 5.682a1.044 1.044 0 0 1-.077.979 1.027 1.027 0 0 1-.858.469l-13.5-.108a1.019 1.019 0 0 1-1.008-.852 1.03 1.03 0 0 1 .028-.475c.734-2.447 2.079-3.948 2.196-7.13Z" fill="#0F1011"/><path d="M131.692 61s-3.25-.907-3.717-1.532c-.467-.625.668-2.73.668-2.73s-3.25-1.339-2.938-1.867c.37-.625 4.429 1.61 4.429 1.61s-.883-1.051-.451-1.329c.177-.115.408.01 1.068.739.752.829 2.051 2.006 2.051 2.006L131.692 61ZM147.864 139.479c-.507-4.289-.507-4.73-.507-4.875h4.807v-.057c.017.358.26 2.542.475 4.361l-4.775.571ZM167.017 140.057s-.016-5.01-.016-5.453h4.807c0 .442.016 5.436.016 5.436l-4.807.017ZM173.979 78.99c0 .686-.36 2.981.22 3.145.347.099.757-1.612.757-1.612" fill="#E98862"/><path d="M176.714 78.63s1.892 4.633-.266 7.295a.432.432 0 0 1-.467.139.43.43 0 0 1-.299-.388c-.105-1.795-.464-5.481-1.64-5.051v-2.894" fill="#E98862"/><path d="M171.127 108.609c-.465-7.229-1.267-19.355-1.66-26.47h.065l-.678-11.45-17.414 1.082-.179 1.228-.061-.018c-2.041 10.888-2.911 22.928-4.566 33.894-.116 10.161-.148 20.795-.543 30.931l8.469.145c-.026-9.901.217-20.253.507-30.172 1.328-7.774 3.192-16.402 4.689-24.091 1.354 14.98 3.372 39.523 4.869 54.706l8.439-.717-1.937-29.068Z" fill="#262626"/><path d="M161.174 141.928a.941.941 0 0 1-.933-1.02.946.946 0 0 1 .608-.813l5.595-1.886c.109-.036.224-.048.337-.036.114.013.223.05.321.109a4.357 4.357 0 0 0 2.625.784 3.883 3.883 0 0 0 2.019-.743.35.35 0 0 1 .524.086.347.347 0 0 1 .054.191v2.753a.616.616 0 0 1-.613.617h-.002l-10.535-.042ZM142.009 141.928a.946.946 0 0 1-.664-.281.937.937 0 0 1-.269-.739.94.94 0 0 1 .608-.813l5.595-1.886a.791.791 0 0 1 .657.073 4.36 4.36 0 0 0 2.625.784 3.88 3.88 0 0 0 2.019-.743.35.35 0 0 1 .377-.046.354.354 0 0 1 .202.323v2.753a.617.617 0 0 1-.613.617h-.003l-10.534-.042Z" fill="#C1D8ED"/><path d="M175.661 64.376a2.516 2.516 0 0 0-.126-.498L170.281 49.5l-.032.012a4.64 4.64 0 0 0-1.149-1.873c-1.046-1.053-2.857-1.734-5.062-1.734-3.284 0-7.768.007-8.687.046-2.808.121-4.12 1.388-4.657 3.259l-6.565 11.862-11.386-4.263-1.676 4.534 13.319 4.987c.538.202 1.13.203 1.669.004.539-.2.989-.588 1.268-1.094l3.664-6.62c.097.942.17 1.867.18 2.748.088 7.48-1.918 8.888-.93 11.175.96 2.217 19.805 3.14 20.057-.764.16-2.483-2.014-4.651-2.014-9.491.018-.92.139-1.834.36-2.727l2.122 5.807 2.083 14.122 4.937-.737-2.121-14.377Z" fill="#367CFF"/><path d="M103.898 126.683c8.703 0 15.759-7.1 15.759-15.86 0-8.759-7.056-15.86-15.759-15.86-8.704 0-15.76 7.101-15.76 15.86 0 8.76 7.056 15.86 15.76 15.86Z" fill="#C1D8ED"/><path d="M94.097 103.758c-1.807 14.383 10.051 18.303 10.051 18.303s10.888-4.169 9.637-18.267c0 0-6.354 1.346-9.637-3.475 0 .001-2.413 4.674-10.05 3.439Z" fill="#fff"/><path d="M107.242 109.416h-.477v-1.07a2.89 2.89 0 0 0-.848-2.024 2.858 2.858 0 0 0-4.037 0 2.895 2.895 0 0 0-.849 2.024v1.07h-.476v1.652a.816.816 0 0 0 .758-.51.832.832 0 0 0-.178-.9.819.819 0 0 0-1.4.584v5.384c0 .219.086.429.24.584a.818.818 0 0 0 .58.242h6.687a.817.817 0 0 0 .58-.242.83.83 0 0 0 .241-.584v-5.384a.836.836 0 0 0-.241-.584.81.81 0 0 0-.58-.242Zm-5.279-1.07a1.954 1.954 0 0 1 .574-1.364 1.928 1.928 0 0 1 2.722 0c.362.361.569.851.574 1.364v1.07h-3.87v-1.07Z" fill="#0CBC8B"/><path d="M83.989 59.335c.964 0 1.746-.787 1.746-1.757 0-.971-.782-1.758-1.746-1.758-.965 0-1.747.787-1.747 1.758 0 .97.782 1.757 1.747 1.757ZM89.232 59.335c.965 0 1.747-.787 1.747-1.757 0-.971-.782-1.758-1.747-1.758-.964 0-1.746.787-1.746 1.758 0 .97.782 1.757 1.746 1.757ZM94.476 59.335c.965 0 1.746-.787 1.746-1.757 0-.971-.781-1.758-1.746-1.758s-1.746.787-1.746 1.758c0 .97.781 1.757 1.746 1.757ZM99.72 59.335c.965 0 1.747-.787 1.747-1.757 0-.971-.782-1.758-1.747-1.758-.964 0-1.746.787-1.746 1.758 0 .97.782 1.757 1.746 1.757ZM104.964 59.335c.964 0 1.746-.787 1.746-1.757 0-.971-.782-1.758-1.746-1.758-.965 0-1.747.787-1.747 1.758 0 .97.782 1.757 1.747 1.757ZM110.207 59.335c.965 0 1.747-.787 1.747-1.757 0-.971-.782-1.758-1.747-1.758-.964 0-1.746.787-1.746 1.758 0 .97.782 1.757 1.746 1.757ZM115.264 59.335c.965 0 1.747-.787 1.747-1.757 0-.971-.782-1.758-1.747-1.758-.964 0-1.746.787-1.746 1.758 0 .97.782 1.757 1.746 1.757ZM83.989 78.17c.964 0 1.746-.786 1.746-1.757 0-.97-.782-1.757-1.746-1.757-.965 0-1.747.786-1.747 1.757 0 .97.782 1.758 1.747 1.758ZM89.232 78.17c.965 0 1.747-.786 1.747-1.757 0-.97-.782-1.757-1.747-1.757-.964 0-1.746.786-1.746 1.757 0 .97.782 1.758 1.746 1.758ZM94.476 78.17c.965 0 1.746-.786 1.746-1.757 0-.97-.781-1.757-1.746-1.757s-1.746.786-1.746 1.757c0 .97.781 1.758 1.746 1.758ZM99.72 78.17c.965 0 1.747-.786 1.747-1.757 0-.97-.782-1.757-1.747-1.757-.964 0-1.746.786-1.746 1.757 0 .97.782 1.758 1.746 1.758ZM104.964 78.17c.964 0 1.746-.786 1.746-1.757 0-.97-.782-1.757-1.746-1.757-.965 0-1.747.786-1.747 1.757 0 .97.782 1.758 1.747 1.758ZM110.207 78.17c.965 0 1.747-.786 1.747-1.757 0-.97-.782-1.757-1.747-1.757-.964 0-1.746.786-1.746 1.757 0 .97.782 1.758 1.746 1.758Z" fill="#fff"/></g><defs><clipPath id="clip0_9_24568"><path fill="#fff" d="M0 0h205v142H0z"/></clipPath></defs></svg>