<svg width="240" height="152" fill="none" xmlns="http://www.w3.org/2000/svg"><path d="M19.517 152c-6.842.006-12.955-3.973-15.276-9.946-4.975-12.859-9.358-36.679 10.122-62.443 21.54-28.488 64.633-57.939 94.943-60.956 47.483-4.723 60.755 46.636 82.061 58.588 18.408 10.326 45.066 25.811 48.55 58.172.898 8.285-5.615 15.675-14.544 16.508-.537.051-1.077.076-1.617.076L19.517 152Z" fill="#F3F5FD"/><path d="M152.417 48.625s-.814-2.295-2.444-3.211c-1.63-.916-1.626.115-.902 1.15.724 1.033 2.432 3.208 2.432 3.208" fill="#E98862"/><path d="M151.459 47.667s-2.853-3.2-4.522-3.2c0 0-2.689 1.101-2.651 1.813.057 1.073 4.604 5.076 4.604 5.076l2.569-3.689ZM171.797 148.544c-.679-4.894-.679-5.397-.679-5.563h6.443v-.064c.023.408.348 2.9.636 4.975l-6.4.652ZM197.472 149.204s-.022-5.717-.022-6.224h6.444c0 .505.021 6.206.021 6.206l-6.443.018Z" fill="#E98862"/><path d="m180.771 146.801-11.353-.166c.472-10.242.553-21.957.679-32.557.036-2.628.267-5.25.694-7.853 1.826-11.23 3.018-22.396 5.476-33.562l.082.02.24-1.4 23.343-1.235 1.216 13.065s3.04 45.199 4.427 63.373l-11.313.819c-2.037-17.817-5.191-43.781-7.131-62.5-2.228 9.114-3.743 18.55-5.681 27.586-.387 11.31-.715 23.133-.679 34.41Z" fill="#262626"/><path d="M189.64 151.339a1.43 1.43 0 0 1-.504-.092 1.29 1.29 0 0 1-.418-.256 1.07 1.07 0 0 1-.264-.378.926.926 0 0 1-.065-.437.986.986 0 0 1 .25-.566c.144-.164.34-.29.565-.362l7.5-2.152c.146-.041.3-.055.452-.041.152.015.298.057.43.125 1.031.613 2.264.926 3.518.894a5.8 5.8 0 0 0 2.707-.847.538.538 0 0 1 .504-.053c.082.033.15.085.198.15a.366.366 0 0 1 .073.218v3.142a.614.614 0 0 1-.063.27.696.696 0 0 1-.179.228.82.82 0 0 1-.267.153.957.957 0 0 1-.316.053l-14.121-.049ZM163.947 151.339c-.173 0-.345-.032-.503-.092a1.268 1.268 0 0 1-.418-.256 1.046 1.046 0 0 1-.264-.378.94.94 0 0 1-.066-.437.993.993 0 0 1 .25-.566c.144-.164.341-.29.566-.362l7.5-2.152c.145-.041.299-.055.451-.041.152.015.299.057.43.125 1.031.613 2.264.926 3.519.894a5.792 5.792 0 0 0 2.706-.847.526.526 0 0 1 .505-.053c.081.033.15.085.198.15a.366.366 0 0 1 .073.218v3.142a.628.628 0 0 1-.063.27.724.724 0 0 1-.179.229.852.852 0 0 1-.268.152.956.956 0 0 1-.315.053l-14.122-.049Z" fill="#C1D8ED"/><path d="M168.2 64.208a3.573 3.573 0 0 1-2.013-.604l-18.25-12.51 4.026-4.311 15.351 10.522 9.205-13.348 5.548 2.809-11.093 16.086a3.047 3.047 0 0 1-1.177.993 3.65 3.65 0 0 1-1.597.363Z" fill="#367CFF"/><path d="M175.076 72.163c1.286 2.531 26.548 3.583 26.885-.87.215-2.834-2.7-5.308-2.7-10.83 0-5.523 5.931-12.576 1.098-16.716-1.402-1.201-3.823-1.977-6.775-1.98-.221 1.475-10.671 1.48-10.751.035-.399.005-.709.01-.902.018-10.181.376-5.707 10.302-5.609 17.594.119 8.532-2.572 10.141-1.246 12.749Z" fill="#367CFF"/><path d="M182.833 41.802c.08 1.446.997 3.572 3.829 3.733 3.774.212 6.702-2.293 6.923-3.767h-.01c-3.715 0-8.576.005-10.742.034ZM177.32 56.782s.711-3.462-2.211-3.748c-1.843-.18-6.477-2.376-7.356-.541-.762 1.592 3.663 3.486 5.247 3.838 1.419.312 4.32.451 4.32.451Z" fill="#E98862"/><path d="M176.106 53.31s-3.765-1.769-4.795-1.728c-.912.037.639 1.548.639 1.548l4.156.18Z" fill="#E98862"/><path d="M189.429 67.705a3.724 3.724 0 0 1-2.031-.588L171.914 56.98l4.062-4.554 12.124 7.936 7.649-14.672 6.109 2.337-9.374 17.98a3.046 3.046 0 0 1-1.235 1.236 3.762 3.762 0 0 1-1.82.462Z" fill="#367CFF"/><path d="M192.684 43.294s-2.373-1.077-1.843-6.613l-4.903-.778s.551 4.962-1.929 6.538l8.675.853Z" fill="#E98862"/><path opacity=".15" d="m185.015 41.404 4.072-2.669-3.198-.028a6.762 6.762 0 0 1-.874 2.697Z" fill="#000"/><path d="M193.623 34.536c-.339 1.68-1.409 3.27-3.138 3.811-1.885.641-3.924.877-5.94.688-5.366-.377-4.305-10.83-1.757-12.861 2.548-2.031 10.025-.745 10.935 2.651.47 1.757.223 4.112-.1 5.71Z" fill="#E98862"/><path d="M179.576 29.999s1.051-7.43 10.577-5.605c1.54.35 2.911 1.11 3.916 2.169.379-.661.98-1.21 1.726-1.575a4.895 4.895 0 0 1 2.459-.475 4.73 4.73 0 0 1 2.347.787c.673.458 1.171 1.077 1.429 1.78.259.701.265 1.453.02 2.159-.245.705-.732 1.331-1.396 1.797a4.712 4.712 0 0 1-2.333.819 4.904 4.904 0 0 1-2.467-.442c-.009.105-.018.213-.031.322-.583 4.6-5.052 6.903-5.052 6.903s-1.2-.778-.773-8.21c-2.068.15-6.801.368-10.422-.429Z" fill="#0F1011"/><path d="M185.946 33.242c.246 0 .445-.17.445-.38 0-.211-.199-.382-.445-.382-.245 0-.445.171-.445.381s.2.381.445.381ZM182.439 32.996c.245 0 .444-.17.444-.381 0-.21-.199-.381-.444-.381-.246 0-.445.17-.445.38 0 .211.199.382.445.382ZM181.668 31.803a.226.226 0 0 1-.148-.051.164.164 0 0 1-.062-.127.164.164 0 0 1 .06-.126.227.227 0 0 1 .147-.053l1.178-.013h.002c.054.002.106.02.143.054a.169.169 0 0 1 .06.124c0 .046-.02.09-.058.124a.225.225 0 0 1-.142.056l-1.178.012h-.002ZM186.905 32.171a.252.252 0 0 1-.048-.005l-1.162-.24a.208.208 0 0 1-.126-.08.16.16 0 0 1-.024-.134.185.185 0 0 1 .092-.11.241.241 0 0 1 .156-.023l1.161.239c.05.01.093.036.123.072a.16.16 0 0 1 .036.123.174.174 0 0 1-.069.113.23.23 0 0 1-.139.045Z" fill="#0F1011"/><path d="M185.74 35.861s-1.641.148-2.792-.196c0 0 .009.926 1.307 1.017 1.299.091 1.485-.82 1.485-.82Z" fill="#fff"/><path d="M188.259 33.793c-.034.424.129.841.452 1.163.323.321.781.52 1.275.555a2.1 2.1 0 0 0 1.363-.37c.38-.273.619-.662.667-1.085a1.38 1.38 0 0 0-.075-.63 1.552 1.552 0 0 0-.357-.554 1.828 1.828 0 0 0-.58-.391 2.101 2.101 0 0 0-.713-.166c-1.343-.036-1.947.59-2.032 1.478Z" fill="#E98862"/><path opacity=".15" d="M183.972 34.974a.171.171 0 0 0 .1-.032.13.13 0 0 0 .052-.08.121.121 0 0 0-.022-.09.156.156 0 0 0-.085-.055l-.904-.238.632-1.207a.113.113 0 0 0 .014-.05.112.112 0 0 0-.009-.051.128.128 0 0 0-.032-.044.162.162 0 0 0-.108-.041.18.18 0 0 0-.06.008.157.157 0 0 0-.085.07l-.703 1.343a.116.116 0 0 0-.014.054c0 .019.005.037.014.054a.138.138 0 0 0 .038.044.165.165 0 0 0 .056.028l1.071.281a.167.167 0 0 0 .045.006Z" fill="#000"/><path d="M55.787 45.172h69.519l12.246 8.07V0H55.787v45.172Z" fill="#C1D8ED"/><path d="M65.873 13.368h61.594V9.686H65.873v3.682ZM65.873 24.13h61.594v-3.68H65.873v3.68ZM65.873 34.893h61.594v-3.682H65.873v3.682Z" fill="#fff"/><path d="M82.89 89.524H28.642l-9.557 6.297V54.274H82.89v35.25Z" fill="#DEE8F5"/><path d="M75.02 61.833H26.956v2.873H75.02v-2.873ZM75.02 70.231H26.956v2.873H75.02v-2.873ZM75.02 78.63H26.956v2.873H75.02V78.63Z" fill="#fff"/><path d="M19.517 152c-6.842.006-12.955-3.973-15.276-9.946-4.975-12.859-9.358-36.679 10.122-62.443 21.54-28.488 64.633-57.939 94.943-60.956 47.483-4.723 60.755 46.636 82.061 58.588 18.408 10.326 45.066 25.811 48.55 58.172.898 8.285-5.615 15.675-14.544 16.508-.537.051-1.077.076-1.617.076L19.517 152Z" fill="#F3F5FD"/><path d="M152.417 48.625s-.814-2.295-2.444-3.211c-1.63-.916-1.626.115-.902 1.15.724 1.033 2.432 3.208 2.432 3.208" fill="#E98862"/><path d="M151.459 47.667s-2.853-3.2-4.522-3.2c0 0-2.689 1.101-2.651 1.813.057 1.073 4.604 5.076 4.604 5.076l2.569-3.689ZM171.797 148.544c-.679-4.894-.679-5.397-.679-5.563h6.443v-.064c.023.408.348 2.9.636 4.975l-6.4.652ZM197.472 149.204s-.022-5.717-.022-6.224h6.444c0 .505.021 6.206.021 6.206l-6.443.018Z" fill="#E98862"/><path d="m180.771 146.801-11.353-.166c.472-10.242.553-21.957.679-32.557.036-2.628.267-5.25.694-7.853 1.826-11.23 3.018-22.396 5.476-33.562l.082.02.24-1.4 23.343-1.235 1.216 13.065s3.04 45.199 4.427 63.373l-11.313.819c-2.037-17.817-5.191-43.781-7.131-62.5-2.228 9.114-3.743 18.55-5.681 27.586-.387 11.31-.715 23.133-.679 34.41Z" fill="#262626"/><path d="M189.64 151.339a1.43 1.43 0 0 1-.504-.092 1.29 1.29 0 0 1-.418-.256 1.07 1.07 0 0 1-.264-.378.926.926 0 0 1-.065-.437.986.986 0 0 1 .25-.566c.144-.164.34-.29.565-.362l7.5-2.152c.146-.041.3-.055.452-.041.152.015.298.057.43.125 1.031.613 2.264.926 3.518.894a5.8 5.8 0 0 0 2.707-.847.538.538 0 0 1 .504-.053c.082.033.15.085.198.15a.366.366 0 0 1 .073.218v3.142a.614.614 0 0 1-.063.27.696.696 0 0 1-.179.228.82.82 0 0 1-.267.153.957.957 0 0 1-.316.053l-14.121-.049ZM163.947 151.339c-.173 0-.345-.032-.503-.092a1.268 1.268 0 0 1-.418-.256 1.046 1.046 0 0 1-.264-.378.94.94 0 0 1-.066-.437.993.993 0 0 1 .25-.566c.144-.164.341-.29.566-.362l7.5-2.152c.145-.041.299-.055.451-.041.152.015.299.057.43.125 1.031.613 2.264.926 3.519.894a5.792 5.792 0 0 0 2.706-.847.526.526 0 0 1 .505-.053c.081.033.15.085.198.15a.366.366 0 0 1 .073.218v3.142a.628.628 0 0 1-.063.27.724.724 0 0 1-.179.229.852.852 0 0 1-.268.152.956.956 0 0 1-.315.053l-14.122-.049Z" fill="#C1D8ED"/><path d="M168.2 64.208a3.573 3.573 0 0 1-2.013-.604l-18.25-12.51 4.026-4.311 15.351 10.522 9.205-13.348 5.548 2.809-11.093 16.086a3.047 3.047 0 0 1-1.177.993 3.65 3.65 0 0 1-1.597.363Z" fill="#367CFF"/><path d="M175.076 72.163c1.286 2.531 26.548 3.583 26.885-.87.215-2.834-2.7-5.308-2.7-10.83 0-5.523 5.931-12.576 1.098-16.716-1.402-1.201-3.823-1.977-6.775-1.98-.221 1.475-10.671 1.48-10.751.035-.399.005-.709.01-.902.018-10.181.376-5.707 10.302-5.609 17.594.119 8.532-2.572 10.141-1.246 12.749Z" fill="#367CFF"/><path d="M182.833 41.802c.08 1.446.997 3.572 3.829 3.733 3.774.212 6.702-2.293 6.923-3.767h-.01c-3.715 0-8.576.005-10.742.034ZM177.32 56.782s.711-3.462-2.211-3.748c-1.843-.18-6.477-2.376-7.356-.541-.762 1.592 3.663 3.486 5.247 3.838 1.419.312 4.32.451 4.32.451Z" fill="#E98862"/><path d="M176.106 53.31s-3.765-1.769-4.795-1.728c-.912.037.639 1.548.639 1.548l4.156.18Z" fill="#E98862"/><path d="M189.429 67.705a3.724 3.724 0 0 1-2.031-.588L171.914 56.98l4.062-4.554 12.124 7.936 7.649-14.672 6.109 2.337-9.374 17.98a3.046 3.046 0 0 1-1.235 1.236 3.762 3.762 0 0 1-1.82.462Z" fill="#367CFF"/><path d="M192.684 43.294s-2.373-1.077-1.843-6.613l-4.903-.778s.551 4.962-1.929 6.538l8.675.853Z" fill="#E98862"/><path opacity=".15" d="m185.015 41.404 4.072-2.669-3.198-.028a6.762 6.762 0 0 1-.874 2.697Z" fill="#000"/><path d="M193.623 34.536c-.339 1.68-1.409 3.27-3.138 3.811-1.885.641-3.924.877-5.94.688-5.366-.377-4.305-10.83-1.757-12.861 2.548-2.031 10.025-.745 10.935 2.651.47 1.757.223 4.112-.1 5.71Z" fill="#E98862"/><path d="M179.576 29.999s1.051-7.43 10.577-5.605c1.54.35 2.911 1.11 3.916 2.169.379-.661.98-1.21 1.726-1.575a4.895 4.895 0 0 1 2.459-.475 4.73 4.73 0 0 1 2.347.787c.673.458 1.171 1.077 1.429 1.78.259.701.265 1.453.02 2.159-.245.705-.732 1.331-1.396 1.797a4.712 4.712 0 0 1-2.333.819 4.904 4.904 0 0 1-2.467-.442c-.009.105-.018.213-.031.322-.583 4.6-5.052 6.903-5.052 6.903s-1.2-.778-.773-8.21c-2.068.15-6.801.368-10.422-.429Z" fill="#0F1011"/><path d="M185.946 33.242c.246 0 .445-.17.445-.38 0-.211-.199-.382-.445-.382-.245 0-.445.171-.445.381s.2.381.445.381ZM182.439 32.996c.245 0 .444-.17.444-.381 0-.21-.199-.381-.444-.381-.246 0-.445.17-.445.38 0 .211.199.382.445.382ZM181.668 31.803a.226.226 0 0 1-.148-.051.164.164 0 0 1-.062-.127.164.164 0 0 1 .06-.126.227.227 0 0 1 .147-.053l1.178-.013h.002c.054.002.106.02.143.054a.169.169 0 0 1 .06.124c0 .046-.02.09-.058.124a.225.225 0 0 1-.142.056l-1.178.012h-.002ZM186.905 32.171a.252.252 0 0 1-.048-.005l-1.162-.24a.208.208 0 0 1-.126-.08.16.16 0 0 1-.024-.134.185.185 0 0 1 .092-.11.241.241 0 0 1 .156-.023l1.161.239c.05.01.093.036.123.072a.16.16 0 0 1 .036.123.174.174 0 0 1-.069.113.23.23 0 0 1-.139.045Z" fill="#0F1011"/><path d="M185.74 35.861s-1.641.148-2.792-.196c0 0 .009.926 1.307 1.017 1.299.091 1.485-.82 1.485-.82Z" fill="#fff"/><path d="M188.259 33.793c-.034.424.129.841.452 1.163.323.321.781.52 1.275.555a2.1 2.1 0 0 0 1.363-.37c.38-.273.619-.662.667-1.085a1.38 1.38 0 0 0-.075-.63 1.552 1.552 0 0 0-.357-.554 1.828 1.828 0 0 0-.58-.391 2.101 2.101 0 0 0-.713-.166c-1.343-.036-1.947.59-2.032 1.478Z" fill="#E98862"/><path opacity=".15" d="M183.972 34.974a.171.171 0 0 0 .1-.032.13.13 0 0 0 .052-.08.121.121 0 0 0-.022-.09.156.156 0 0 0-.085-.055l-.904-.238.632-1.207a.113.113 0 0 0 .014-.05.112.112 0 0 0-.009-.051.128.128 0 0 0-.032-.044.162.162 0 0 0-.108-.041.18.18 0 0 0-.06.008.157.157 0 0 0-.085.07l-.703 1.343a.116.116 0 0 0-.014.054c0 .019.005.037.014.054a.138.138 0 0 0 .038.044.165.165 0 0 0 .056.028l1.071.281a.167.167 0 0 0 .045.006Z" fill="#000"/><path d="M55.787 45.172h69.519l12.246 8.07V0H55.787v45.172Z" fill="#C1D8ED"/><path d="M65.873 13.368h61.594V9.686H65.873v3.682ZM65.873 24.13h61.594v-3.68H65.873v3.68ZM65.873 34.893h61.594v-3.682H65.873v3.682Z" fill="#fff"/><path d="M82.89 89.524H28.642l-9.557 6.297V54.274H82.89v35.25Z" fill="#DEE8F5"/><path d="M75.02 61.833H26.956v2.873H75.02v-2.873ZM75.02 70.231H26.956v2.873H75.02v-2.873ZM75.02 78.63H26.956v2.873H75.02V78.63Z" fill="#fff"/></svg>