<svg width="113" height="59" fill="none" xmlns="http://www.w3.org/2000/svg"><path d="M113 59H0c1.238-2.658 3.525-4.912 6.748-5.581 4.715-.977 9.705 1.71 14.41.7 2.673-.574 4.777-2.245 6.989-3.632 8.342-5.235 19.774-6.782 29.645-4.011 5.16 1.447 9.862 3.979 15.148 5.055 6.835 1.393 13.982.238 21.011.048 6.845-.186 16.654 2.162 19.049 7.42Z" fill="#F3F5FD"/><path d="M67.191 43.483H52.905v13.61h14.286v-13.61Z" fill="#DEE8F5"/><path d="M94.818 0h-69.54c-1.522 0-2.757 1.039-2.757 2.32v45.5c0 1.281 1.235 2.32 2.757 2.32h69.54c1.523 0 2.758-1.039 2.758-2.32V2.32C97.576 1.04 96.34 0 94.818 0Z" fill="#DEE8F5"/><path d="M94.647 1.583H25.449c-.673 0-1.219.46-1.219 1.026V42.41c0 .567.546 1.026 1.22 1.026h69.197c.673 0 1.219-.46 1.219-1.026V2.61c0-.567-.546-1.026-1.22-1.026Z" fill="#fff"/><path d="M71.702 55.874H48.394c-1.025 0-1.857.7-1.857 1.563S47.37 59 48.394 59h23.308c1.025 0 1.857-.7 1.857-1.563s-.832-1.563-1.857-1.563ZM66.452 32.616H53.645v2.721h12.807v-2.721ZM65.109 7.866V9.05a.704.704 0 0 1-.265.537.995.995 0 0 1-.638.223H46.1v1.518c.179 0 .353-.044.502-.128a.806.806 0 0 0 .332-.34.649.649 0 0 0 .051-.44.731.731 0 0 0-.247-.388.965.965 0 0 0-.462-.208 1.06 1.06 0 0 0-.52.043.887.887 0 0 0-.406.28.677.677 0 0 0-.152.422v17.32c0 .201.095.394.264.537.17.142.4.222.639.222h27.897c.24 0 .47-.08.638-.222a.704.704 0 0 0 .264-.537V7.866a.677.677 0 0 0-.151-.422.887.887 0 0 0-.405-.28 1.061 1.061 0 0 0-.522-.043.965.965 0 0 0-.462.208.731.731 0 0 0-.247.389.648.648 0 0 0 .052.439.805.805 0 0 0 .332.34c.148.084.323.128.501.128l-7.986-1.518c-.118 0-.236.02-.345.057a.929.929 0 0 0-.293.165.766.766 0 0 0-.196.246.656.656 0 0 0-.069.291Z" fill="#DEE8F5"/><path d="M60.463 14.97h-.83v8.518h.83V14.97Z" fill="#fff"/><path d="M65.109 18.88h-10.12v.698h10.12v-.698Z" fill="#fff"/><path d="m28.676 58.087-2.09-.21c.094-.665.2-1.465.207-1.596v.02h2.105c0 .053 0 .215-.222 1.786ZM20.287 58.299l-2.105-.006.007-1.991h2.105l-.007 1.997Z" fill="#E98862"/><path d="M29.453 57.474c-.175-3.713-.185-7.613-.24-11.336-.724-4.016-1.104-8.42-1.998-12.407l-.027.006-.078-.45-7.627-.396s-.199 3.146-.268 4.194c-.372 5.618-1.126 14.649-1.575 20.342l3.696.263c.66-5.6 1.536-14.52 2.132-20.038.655 2.812 1.473 5.979 2.054 8.824.127 3.635.233 7.423.222 11.051l3.709-.053Z" fill="#262626"/><path d="M22.847 58.984a.48.48 0 0 0 .164-.03.42.42 0 0 0 .137-.081.341.341 0 0 0 .086-.122.296.296 0 0 0 .021-.14.316.316 0 0 0-.081-.182.415.415 0 0 0-.185-.116l-2.45-.69a.411.411 0 0 0-.288.026 2.18 2.18 0 0 1-1.15.287 1.917 1.917 0 0 1-.884-.272.181.181 0 0 0-.165-.017.149.149 0 0 0-.065.049.115.115 0 0 0-.024.07v1.008c0 .03.007.06.02.087a.227.227 0 0 0 .06.073.276.276 0 0 0 .087.049.314.314 0 0 0 .103.017l4.614-.016ZM31.24 58.984c.058 0 .113-.01.165-.03a.419.419 0 0 0 .137-.082.34.34 0 0 0 .086-.121.296.296 0 0 0 .021-.14.316.316 0 0 0-.081-.182.414.414 0 0 0-.185-.116l-2.45-.69a.41.41 0 0 0-.288.026 2.18 2.18 0 0 1-1.15.287 1.916 1.916 0 0 1-.884-.272.182.182 0 0 0-.165-.017.15.15 0 0 0-.065.049.115.115 0 0 0-.024.07v1.008c0 .03.007.06.02.087a.23.23 0 0 0 .06.073.277.277 0 0 0 .087.049.314.314 0 0 0 .103.017l4.614-.016Z" fill="#C1D8ED"/><path d="m30.848 26.963.046.017-.583.08.573.919s2.122.418 3.115-.523a.149.149 0 0 0 .046-.085.138.138 0 0 0-.019-.093.177.177 0 0 0-.078-.067.22.22 0 0 0-.11-.019c-.572.05-1.592.107-2.052-.045.202-.084.47-.212.428-.288-.11-.201-1.072.064-1.366.104Z" fill="#E98862"/><path d="m28.9 27.478.19.098h-.19v-.098Z" fill="#FD5D76"/><path d="M41.433 27.547H30.311V15.462h8.755l2.367 2.105v9.98Z" fill="#C1D8ED"/><path d="M39.066 15.462v2.105h2.367l-2.367-2.105ZM40.172 20.67h-8.6v.403h8.6v-.403ZM40.172 21.982h-8.6v.403h8.6v-.403ZM40.172 23.295h-8.6v.402h8.6v-.402ZM40.172 24.607h-8.6v.403h8.6v-.403ZM40.172 25.92h-8.6v.402h8.6v-.402Z" fill="#DEE8F5"/><path d="m37.139 26.963.046.017-.583.08.573.919s2.122.418 3.115-.523a.149.149 0 0 0 .046-.085.138.138 0 0 0-.019-.093.177.177 0 0 0-.078-.067.22.22 0 0 0-.11-.019c-.572.05-1.592.107-2.052-.045.202-.084.47-.212.428-.288-.11-.201-1.072.064-1.366.104ZM21.803 24.317s.775-.346.602-2.122l1.602-.25s-.18 1.592.63 2.098l-2.834.274Z" fill="#E98862"/><path d="M21.496 21.505c.111.54.46 1.05 1.026 1.224.67.207 1.167.221 1.94.221 1.055 0 1.02-.926 1.05-1.86.03-.936-.059-1.942-.476-2.268-.832-.652-3.275-.24-3.572.851-.154.563-.073 1.32.032 1.832Z" fill="#E98862"/><path d="M24.343 22.64c-.16.237-1.632.225-2.015.034-.377-.188-1.225-.513-1.513-2.048-.259-1.376.75-1.943 1.553-2.146.693-.174 2.31-.21 3.07.175.654.332 0 1.104 0 1.104a2.049 2.049 0 0 1-.375.04c-.452 0-.545.247-.529.396.098.9.004 2.157-.191 2.446Z" fill="#0F1011"/><path d="M25.25 21.267a.44.44 0 0 1-.024.203.5.5 0 0 1-.116.18.608.608 0 0 1-.189.127.705.705 0 0 1-.474.033.655.655 0 0 1-.211-.1.541.541 0 0 1-.149-.162.456.456 0 0 1-.064-.196.432.432 0 0 1 .025-.202.492.492 0 0 1 .116-.178.6.6 0 0 1 .19-.126.696.696 0 0 1 .233-.053c.439-.012.636.189.664.474Z" fill="#E98862"/><path d="M36.835 26.754 31.526 28.2l-.373-.625h-1.221l-2.657-2.898c-.301-.492-.87-.81-1.878-.847-.403-.015-2.367-.017-3.805-.017-.966 0-1.759.25-2.217.635-1.579 1.329.36 3.593.36 5.366 0 1.773-.953 2.567-.883 3.476.11 1.43 8.364 1.092 8.785.28.386-.747-.272-1.24-.39-3.286l1.733-.733.467.509c.138.15.327.26.542.317.216.056.446.055.66-.004l6.859-1.869-.673-1.751Zm-9.49 1.43.05-.362.226.245-.276.117Z" fill="#367CFF"/><path d="M14.14 51.926c-.502-.138-1.016.017-1.508.332.648-1.378.916-2.623-.193-2.679-.775-.039-1.37.462-1.82 1.174-.16-1.252-.569-2.185-1.486-1.876-1.007.34-1.16 1.505-1.008 2.723-.443-.622-.921-.97-1.355-.604-1.294 1.09 1.883 4.16 1.883 4.16h.79l.45.41c-.092.163-.142.26-.142.26l.572.98s5.897-4.307 3.817-4.88Z" fill="#8DDBE0"/><path d="M12.724 59H8.258l-.747-4.388h5.961L12.724 59Z" fill="#C1D8ED"/><path d="M100.585 58.698c2.031-.373 4.019-.909 5.96-2.67.398-.36.786-.831.637-1.308-.113-.36-.518-.614-.947-.702a2.491 2.491 0 0 0-.488-.047h-.002a4.907 4.907 0 0 0-.753.07l-.071.01a13.829 13.829 0 0 0-3.39 1.005.561.561 0 0 1-.314.04.508.508 0 0 1-.275-.134.371.371 0 0 1-.116-.25.36.36 0 0 1 .092-.255c.118-.134.251-.258.398-.369.217-.16.451-.304.699-.428.331-.168.68-.315 1.023-.466a28.093 28.093 0 0 0 3.642-1.928c.822-.517 1.632-1.098 2.077-1.876.204-.358.324-.779.161-1.152-.268-.612-1.18-.844-1.952-.777-1.354.118-2.501.863-3.528 1.614-.852.624-1.804 1.314-2.933 1.274a1.125 1.125 0 0 1-.544-.134c-.304-.186-.348-.57-.203-.863.145-.292.434-.514.713-.726 1.62-1.232 3.222-2.52 4.352-4.091 1.131-1.572 1.755-3.479 1.263-5.27-.144-.523-.388-1.04-.81-1.443-.423-.404-1.044-.682-1.683-.657-.87.033-1.58.598-2.08 1.197-1.72 2.057-1.898 4.716-2.573 7.165-.19.686-.434 1.386-.983 1.922a.555.555 0 0 1-.186.123c-.424.167-.747-.256-.864-.604-.463-1.378-.457-2.914-1.418-4.096-.366-.45-.91-.843-1.556-.886-.79-.052-1.52.454-1.816 1.072-.295.618-.227 1.318-.045 1.966.338 1.202 1.052 2.311 1.924 3.304.46.524.986 1.059 1.074 1.705.025.22-.018.441-.123.643s-.27.378-.479.511a.988.988 0 0 1-.325.126c-.117.023-.24.026-.358.009-.257-.039-.48-.167-.694-.291l-.272-.157-1.075-.625c-.912-.529-2.02-1.083-3.06-.759-.53.166-.904.54-1.108.986a1.98 1.98 0 0 0-.129 1.269c.21.884 1.839 3.42 2.549 4.095.827.789 3.64 4.135 10.589 2.858Z" fill="#8DDBE0"/></svg>