<svg width="199" height="158" fill="none" xmlns="http://www.w3.org/2000/svg"><path opacity=".1" d="M100.805 125.896c28.169 0 51.004-19.734 51.004-44.077 0-24.343-22.835-44.077-51.004-44.077-28.169 0-51.004 19.734-51.004 44.077 0 24.343 22.835 44.077 51.004 44.077Z" fill="#367CFF"/><path d="M176.76 65.925c12.283 0 22.24-8.604 22.24-19.22 0-10.614-9.957-19.219-22.24-19.219-12.283 0-22.24 8.605-22.24 19.22 0 10.614 9.957 19.22 22.24 19.22Z" fill="#fff"/><path opacity=".1" d="M176.76 65.925c12.283 0 22.24-8.604 22.24-19.22 0-10.614-9.957-19.219-22.24-19.219-12.283 0-22.24 8.605-22.24 19.22 0 10.614 9.957 19.22 22.24 19.22Z" fill="#367CFF"/><path d="m163.471 54.325 25.825 3.653c1.363.192 2.648-.606 2.871-1.783l2.77-14.626c.223-1.178-.701-2.289-2.064-2.481l-25.825-3.653c-1.362-.192-2.647.606-2.87 1.784l-2.77 14.626c-.223 1.177.701 2.288 2.063 2.48Z" fill="#262626"/><path d="m171.078 38.705-3.224-.456c-.558-.079-1.084.248-1.175.73l-.307 1.623c-.091.481.286.936.844 1.015l3.224.456c.558.078 1.084-.248 1.175-.73l.307-1.623c.091-.482-.287-.936-.844-1.015Z" fill="#fff"/><path d="m172.016 39.222-.15.79-1.776-.251-.239-.288.173-.916 1.631.23a.483.483 0 0 1 .16.052c.049.026.091.06.125.101a.36.36 0 0 1 .07.134.32.32 0 0 1 .006.148ZM171.669 41.052l-.149.79a.365.365 0 0 1-.06.139.414.414 0 0 1-.117.108.477.477 0 0 1-.327.066l-1.631-.231.179-.941.328-.182 1.777.251ZM168.878 38.395l-.173.916-.305.212-1.776-.252.149-.79a.35.35 0 0 1 .06-.138.402.402 0 0 1 .117-.108.506.506 0 0 1 .326-.066l1.602.226ZM168.418 40.821l-.178.941-1.602-.226a.48.48 0 0 1-.16-.052.41.41 0 0 1-.125-.101.335.335 0 0 1-.077-.282l.15-.79 1.776.25.216.26Z" fill="#0CBC8B"/><path d="M190.083 54.237c-.099.525-.436.995-.937 1.306-.5.31-1.122.437-1.73.35-.608-.086-1.152-.377-1.511-.809a1.797 1.797 0 0 1-.406-1.495c.056-.296.189-.576.388-.82.199-.246.46-.448.762-.594.38-.19.814-.282 1.252-.266a2.56 2.56 0 0 1 1.222.355c.36.216.642.517.812.866.17.35.221.733.148 1.107Z" fill="#fff"/><path d="M185.209 55.123c-.381.19-.816.281-1.255.266a2.574 2.574 0 0 1-1.225-.356 2.102 2.102 0 0 1-.816-.865 1.756 1.756 0 0 1-.154-1.109c.071-.375.263-.724.555-1.008.292-.284.67-.49 1.093-.596.422-.106.87-.105 1.292 0 .422.107.8.314 1.091.598-.586.298-.919.81-1.037 1.43-.117.618.006 1.22.456 1.64Z" fill="#0CBC8B"/><path d="m170.683 44.897-4.571-.646c-.233-.033-.452.104-.49.305-.038.201.119.39.352.424l4.571.646c.233.033.453-.103.491-.304.038-.202-.12-.392-.353-.425ZM177.415 45.85l-4.571-.647c-.232-.033-.452.103-.49.304-.038.202.12.392.352.424l4.571.647c.233.033.453-.104.491-.305.038-.201-.12-.391-.353-.424ZM184.147 46.802l-4.571-.647c-.233-.033-.453.104-.491.305-.038.201.12.391.353.424l4.571.647c.233.032.452-.104.49-.305.038-.201-.119-.391-.352-.424ZM190.879 47.753l-4.571-.647c-.233-.032-.452.104-.491.305-.038.201.12.391.353.424l4.571.647c.233.033.452-.104.491-.305.038-.201-.12-.391-.353-.424ZM22.867 129.932c12.629 0 22.866-8.848 22.866-19.761 0-10.914-10.237-19.761-22.866-19.761C10.237 90.41 0 99.257 0 110.17c0 10.913 10.238 19.761 22.867 19.761Z" fill="#fff"/><path opacity=".1" d="M22.867 129.932c12.629 0 22.866-8.848 22.866-19.761 0-10.914-10.237-19.761-22.866-19.761C10.237 90.41 0 99.257 0 110.17c0 10.913 10.238 19.761 22.867 19.761Z" fill="#367CFF"/><path d="M32.951 108.467H9.345v1.374c.158 0 .311-.04.442-.116a.719.719 0 0 0 .293-.308.601.601 0 0 0 .045-.397.665.665 0 0 0-.217-.352.846.846 0 0 0-.407-.188.907.907 0 0 0-.46.039.781.781 0 0 0-.357.253.623.623 0 0 0-.134.382l1.547 14.831c0 .182.084.357.233.486.15.129.352.201.563.201H32.95c.211 0 .413-.072.562-.201a.644.644 0 0 0 .233-.486v-14.831a.623.623 0 0 0-.134-.382.78.78 0 0 0-.357-.253.907.907 0 0 0-.459-.039.846.846 0 0 0-.407.188.665.665 0 0 0-.218.352.602.602 0 0 0 .046.397.72.72 0 0 0 .292.308c.131.076.285.116.442.116v-1.374Z" fill="#292A2E"/><path d="m34.753 101.015-.992 19.34a.468.468 0 0 1-.184.342.626.626 0 0 1-.41.129l-20.377-.78a.614.614 0 0 1-.395-.16.455.455 0 0 1-.15-.354l1.178-22.952a.44.44 0 0 1 .053-.187.503.503 0 0 1 .131-.155.592.592 0 0 1 .19-.1.651.651 0 0 1 .22-.029l16.248.622-.185 3.606a.438.438 0 0 0 .034.192.492.492 0 0 0 .117.166.555.555 0 0 0 .181.115.649.649 0 0 0 .219.047l4.122.158Z" fill="#558FFF"/><path opacity=".4" d="m34.753 101.015-.992 19.34a.468.468 0 0 1-.184.342.626.626 0 0 1-.41.129l-20.377-.78a.614.614 0 0 1-.395-.16.455.455 0 0 1-.15-.354l1.178-22.952a.44.44 0 0 1 .053-.187.503.503 0 0 1 .131-.155.592.592 0 0 1 .19-.1.651.651 0 0 1 .22-.029l16.248.622-.19 3.682a.367.367 0 0 0 .03.163c.022.053.055.1.099.141a.53.53 0 0 0 .34.137l4.209.161Z" fill="#fff"/><path d="m15.915 102.478 16.043.614-16.043-.614Z" fill="#fff"/><path d="M31.958 103.169h-.004l-16.043-.614a.098.098 0 0 1-.063-.025.072.072 0 0 1-.023-.056.073.073 0 0 1 .029-.054.104.104 0 0 1 .065-.021l16.043.615c.024 0 .046.009.063.024a.071.071 0 0 1 .025.055c0 .021-.01.04-.028.055a.096.096 0 0 1-.064.021Z" fill="#FAFAFA"/><path d="m15.805 104.615 16.044.615-16.044-.615Z" fill="#fff"/><path d="M31.849 105.308h-.004l-16.044-.615a.08.08 0 0 1-.034-.007.079.079 0 0 1-.028-.018.07.07 0 0 1-.024-.056.079.079 0 0 1 .03-.053.102.102 0 0 1 .064-.021l16.043.614a.1.1 0 0 1 .063.024.073.073 0 0 1 .025.056c0 .02-.01.04-.027.054a.103.103 0 0 1-.064.022Z" fill="#FAFAFA"/><path d="m15.696 106.752 16.043.614-16.043-.614Z" fill="#fff"/><path d="M31.739 107.444h-.004l-16.044-.614a.098.098 0 0 1-.062-.025.077.077 0 0 1-.018-.026.068.068 0 0 1-.005-.03.074.074 0 0 1 .03-.053.097.097 0 0 1 .064-.021l16.043.614c.023 0 .046.009.063.024a.073.073 0 0 1 .025.055c0 .021-.01.041-.028.055a.102.102 0 0 1-.064.022v-.001Z" fill="#FAFAFA"/><path d="m15.586 108.889 16.043.614-16.043-.614Z" fill="#fff"/><path d="M31.63 109.581h-.005l-16.043-.614a.128.128 0 0 1-.034-.007.12.12 0 0 1-.028-.018.09.09 0 0 1-.018-.026.068.068 0 0 1-.005-.03.076.076 0 0 1 .03-.054.101.101 0 0 1 .063-.02l16.043.614c.024 0 .047.009.064.024a.073.073 0 0 1 .024.055c0 .021-.01.04-.027.055a.096.096 0 0 1-.064.021Z" fill="#FAFAFA"/><path d="m15.476 111.026 16.043.615-16.043-.615Z" fill="#fff"/><path d="M31.52 111.718h-.005l-16.043-.614a.094.094 0 0 1-.062-.026.07.07 0 0 1-.024-.055.078.078 0 0 1 .03-.054.108.108 0 0 1 .064-.021l16.043.615c.024 0 .047.009.063.024a.07.07 0 0 1 .025.055c0 .021-.01.04-.027.055a.096.096 0 0 1-.065.021Z" fill="#FAFAFA"/><path d="m15.367 113.164 7.203.275-7.203-.275Z" fill="#fff"/><path d="M22.57 113.518h-.005l-7.202-.276a.098.098 0 0 1-.062-.025.074.074 0 0 1-.024-.056.075.075 0 0 1 .03-.054.103.103 0 0 1 .064-.021l7.203.276a.1.1 0 0 1 .063.024.073.073 0 0 1 .025.056c0 .02-.01.04-.028.054a.102.102 0 0 1-.064.022Z" fill="#FAFAFA"/><path opacity=".7" d="m34.754 101.015-4.097-.157a.678.678 0 0 1-.229-.048.613.613 0 0 1-.19-.12.523.523 0 0 1-.121-.174.455.455 0 0 1-.036-.201l.184-3.583 4.489 4.283Z" fill="#367CFF"/><path d="m31.54 102.225 1.782 19.298a.429.429 0 0 1-.025.191.472.472 0 0 1-.109.168.56.56 0 0 1-.174.119.646.646 0 0 1-.214.052l-20.333 1.403a.657.657 0 0 1-.415-.116.52.52 0 0 1-.138-.151.448.448 0 0 1-.06-.185l-2.115-22.901a.43.43 0 0 1 .026-.191.479.479 0 0 1 .108-.168.565.565 0 0 1 .175-.12.64.64 0 0 1 .214-.052l16.212-1.118.332 3.597a.48.48 0 0 0 .2.34.64.64 0 0 0 .42.118l4.114-.284Z" fill="#558FFF"/><path opacity=".73" d="m31.54 102.225 1.782 19.298a.429.429 0 0 1-.025.191.472.472 0 0 1-.109.168.56.56 0 0 1-.174.119.646.646 0 0 1-.214.052l-20.333 1.403a.657.657 0 0 1-.415-.116.52.52 0 0 1-.138-.151.448.448 0 0 1-.06-.185l-2.115-22.901a.43.43 0 0 1 .026-.191.479.479 0 0 1 .108-.168.565.565 0 0 1 .175-.12.64.64 0 0 1 .214-.052l16.212-1.118.332 3.599a.48.48 0 0 0 .2.339.642.642 0 0 0 .42.117l4.114-.284Z" fill="#fff"/><path d="m13.054 105.688 16.008-1.104-16.008 1.104Z" fill="#fff"/><path d="M13.055 105.766a.098.098 0 0 1-.065-.021.073.073 0 0 1-.029-.054c0-.021.008-.041.024-.056a.098.098 0 0 1 .063-.025l16.008-1.104a.104.104 0 0 1 .065.019c.018.014.03.032.032.053a.07.07 0 0 1-.022.056.076.076 0 0 1-.027.019.079.079 0 0 1-.034.008l-16.008 1.104-.007.001Z" fill="#FAFAFA"/><path d="m13.252 107.82 16.008-1.104-16.008 1.104Z" fill="#fff"/><path d="M13.252 107.898a.103.103 0 0 1-.065-.021.073.073 0 0 1-.029-.054c0-.021.008-.041.024-.056a.098.098 0 0 1 .063-.025l16.007-1.104a.105.105 0 0 1 .066.019c.018.013.03.032.031.053.001.01 0 .02-.004.03a.066.066 0 0 1-.017.026.093.093 0 0 1-.061.027l-16.008 1.104-.008.001Z" fill="#FAFAFA"/><path d="m13.45 109.952 16.008-1.103-16.008 1.103Z" fill="#fff"/><path d="M13.45 110.031a.098.098 0 0 1-.065-.021.073.073 0 0 1-.03-.054c0-.02.008-.04.025-.056a.093.093 0 0 1 .062-.024l16.008-1.104a.1.1 0 0 1 .066.018c.018.014.03.033.031.053a.071.071 0 0 1-.021.057.091.091 0 0 1-.062.027l-16.008 1.104h-.007Z" fill="#FAFAFA"/><path d="m13.645 112.086 16.008-1.104-16.008 1.104Z" fill="#fff"/><path d="M13.646 112.164a.098.098 0 0 1-.065-.021.073.073 0 0 1-.029-.054c0-.021.008-.041.024-.056a.098.098 0 0 1 .063-.025l16.008-1.103a.1.1 0 0 1 .065.018c.019.013.03.033.032.053a.072.072 0 0 1-.021.057.096.096 0 0 1-.062.027l-16.008 1.104h-.007Z" fill="#FAFAFA"/><path d="m13.844 114.219 16.008-1.104-16.008 1.104Z" fill="#fff"/><path d="M13.843 114.296a.102.102 0 0 1-.064-.021.071.071 0 0 1-.03-.054c0-.01.002-.02.006-.03a.075.075 0 0 1 .019-.025.079.079 0 0 1 .028-.018.08.08 0 0 1 .034-.007l16.008-1.104a.103.103 0 0 1 .035.003.14.14 0 0 1 .03.015.088.088 0 0 1 .023.024.069.069 0 0 1-.012.086.092.092 0 0 1-.062.027l-16.008 1.104h-.007Z" fill="#FAFAFA"/><path d="m14.04 116.351 7.187-.496-7.187.496Z" fill="#fff"/><path d="M14.04 116.428a.097.097 0 0 1-.065-.02.075.075 0 0 1-.029-.054.071.071 0 0 1 .024-.056.098.098 0 0 1 .063-.025l7.186-.496a.095.095 0 0 1 .066.019c.018.013.03.032.032.053a.07.07 0 0 1-.022.056.097.097 0 0 1-.061.028l-7.187.495h-.007Z" fill="#FAFAFA"/><path opacity=".3" d="m31.54 102.224-4.088.282a.663.663 0 0 1-.438-.123.5.5 0 0 1-.21-.354l-.33-3.576 5.066 3.771Z" fill="#fff"/><path d="M29.223 110.707v.513a.644.644 0 0 1-.232.486.862.862 0 0 1-.563.201h-16a.87.87 0 0 0-.528.174.662.662 0 0 0-.261.434l-1.537 11.392a.598.598 0 0 0 .031.286c.034.092.09.178.165.25.074.072.166.13.268.17.102.04.213.06.325.06h23.655a.87.87 0 0 0 .533-.177.66.66 0 0 0 .258-.441l1.561-13.278a.6.6 0 0 0-.035-.284.681.681 0 0 0-.166-.247.806.806 0 0 0-.267-.167.903.903 0 0 0-.323-.059h-6.088a.918.918 0 0 0-.305.052.82.82 0 0 0-.258.149.696.696 0 0 0-.172.223.61.61 0 0 0-.06.263Z" fill="#0CBC8B"/><path d="M153.101 158c13.846 0 25.071-9.7 25.071-21.667 0-11.966-11.225-21.666-25.071-21.666-13.847 0-25.072 9.7-25.072 21.666 0 11.967 11.225 21.667 25.072 21.667Z" fill="#fff"/><path opacity=".1" d="M153.101 158c13.846 0 25.071-9.7 25.071-21.667 0-11.966-11.225-21.666-25.071-21.666-13.847 0-25.072 9.7-25.072 21.666 0 11.967 11.225 21.667 25.072 21.667Z" fill="#367CFF"/><path d="M137.708 130.366a.335.335 0 0 1-.22-.079.252.252 0 0 1-.091-.19v-4.984c.001-.681.314-1.333.871-1.815.557-.481 1.312-.752 2.1-.753h5.769a.338.338 0 0 1 .216.082c.056.05.088.117.088.188 0 .07-.032.137-.088.188a.342.342 0 0 1-.216.081h-5.769c-.623 0-1.22.214-1.66.595-.44.38-.688.896-.688 1.434v4.984a.25.25 0 0 1-.092.19.333.333 0 0 1-.22.079ZM146.137 150.837h-5.769c-.788-.001-1.543-.272-2.1-.753-.557-.481-.87-1.134-.871-1.815v-4.984a.244.244 0 0 1 .088-.194.316.316 0 0 1 .102-.06.358.358 0 0 1 .242 0 .306.306 0 0 1 .102.06.271.271 0 0 1 .067.089c.015.034.023.07.022.105v4.984c.001.538.248 1.054.688 1.435.441.38 1.037.594 1.66.595h5.769a.33.33 0 0 1 .216.081c.056.05.088.117.088.188 0 .07-.032.138-.088.188a.34.34 0 0 1-.216.081ZM169.825 130.366a.337.337 0 0 1-.22-.079.252.252 0 0 1-.091-.19v-4.984c-.001-.538-.248-1.054-.689-1.434a2.554 2.554 0 0 0-1.659-.595h-5.769a.358.358 0 0 1-.122-.019.316.316 0 0 1-.103-.058.267.267 0 0 1-.07-.088.237.237 0 0 1 0-.209.267.267 0 0 1 .07-.088.316.316 0 0 1 .103-.058.384.384 0 0 1 .122-.019h5.769c.788.001 1.543.272 2.1.753.557.482.87 1.134.871 1.815v4.984c0 .071-.033.14-.091.19a.338.338 0 0 1-.221.079ZM167.166 150.837h-5.769a.358.358 0 0 1-.122-.019.316.316 0 0 1-.103-.058.267.267 0 0 1-.07-.088.237.237 0 0 1 0-.209.267.267 0 0 1 .07-.088.316.316 0 0 1 .103-.058.357.357 0 0 1 .122-.018h5.769a2.55 2.55 0 0 0 1.659-.596c.441-.38.688-.896.689-1.434v-4.984a.244.244 0 0 1 .088-.194.316.316 0 0 1 .102-.06.358.358 0 0 1 .242 0 .306.306 0 0 1 .102.06.271.271 0 0 1 .067.089.23.23 0 0 1 .022.105v4.984c-.001.681-.314 1.334-.871 1.815-.557.481-1.312.752-2.1.753Z" fill="#292A2E"/><path d="M150.77 145.941a.35.35 0 0 1-.191-.056.269.269 0 0 1-.111-.146.24.24 0 0 1 .016-.174.29.29 0 0 1 .136-.129c3.416-1.618 1.964-4.993 1.901-5.136a.234.234 0 0 1 .009-.203.297.297 0 0 1 .171-.14.36.36 0 0 1 .236.004c.075.028.134.08.165.145.018.04 1.715 3.955-2.183 5.802a.342.342 0 0 1-.149.033Z" fill="#0CBC8B"/><path d="M152.392 147.335a.346.346 0 0 1-.192-.057.269.269 0 0 1-.11-.149.233.233 0 0 1 .019-.175.284.284 0 0 1 .141-.127c.173-.078 4.174-1.935 2.87-6.808-.156-.584-.591-1.321-1.343-1.636-.553-.232-1.205-.199-1.937.098-.973.396-.893 1.389-.8 2.54.113 1.392.24 2.971-1.758 3.546-1.227.354-1.98.031-2.396-.302-1.414-1.13-1.191-4.035-.572-6.179.386-1.301 1.297-2.441 2.568-3.215 1.271-.775 2.819-1.132 4.367-1.009 5.216.361 7.377 2.971 7.227 8.728 0 .035-.009.07-.025.103a.264.264 0 0 1-.07.087.33.33 0 0 1-.224.073.359.359 0 0 1-.118-.023.28.28 0 0 1-.165-.149.234.234 0 0 1-.021-.104c.143-5.472-1.785-7.842-6.653-8.179-1.402-.111-2.803.212-3.954.911-1.15.7-1.976 1.73-2.328 2.908-.75 2.595-.593 4.867.391 5.653.432.346 1.012.407 1.776.187 1.54-.444 1.444-1.628 1.334-2.999-.1-1.235-.203-2.511 1.156-3.064.911-.369 1.743-.402 2.474-.095.949.398 1.489 1.294 1.678 1.999 1.417 5.293-3.146 7.387-3.192 7.408a.362.362 0 0 1-.143.029Z" fill="#0CBC8B"/><path d="M157.125 145.348a.347.347 0 0 1-.14-.029.298.298 0 0 1-.11-.08.238.238 0 0 1-.048-.239c1.193-3.384.893-6.265-.802-7.706-1.037-.882-2.508-1.116-4.141-.66-4.108 1.146-3.13 6.033-3.119 6.082a.238.238 0 0 1-.052.199.348.348 0 0 1-.43.068.267.267 0 0 1-.131-.17c-.011-.053-1.088-5.4 3.541-6.692 1.865-.52 3.558-.24 4.768.789 1.865 1.584 2.224 4.667.962 8.247a.28.28 0 0 1-.113.138.345.345 0 0 1-.185.053ZM160.428 135.551a.35.35 0 0 1-.147-.032.297.297 0 0 1-.112-.088c-1.461-1.903-3.061-2.15-5.276-2.491a34.686 34.686 0 0 1-2.609-.475c-3.122-.718-5.437-2.854-5.534-2.945a.251.251 0 0 1-.083-.193.259.259 0 0 1 .1-.188.343.343 0 0 1 .224-.071c.082.003.16.034.216.086.023.021 2.294 2.114 5.237 2.791a34.23 34.23 0 0 0 2.558.465c2.278.351 4.078.629 5.686 2.723a.243.243 0 0 1 .015.276.29.29 0 0 1-.115.104.346.346 0 0 1-.16.038ZM145.803 135.236a.342.342 0 0 1-.205-.067.257.257 0 0 1-.103-.168.238.238 0 0 1 .05-.184.31.31 0 0 1 .179-.11c.798-.182 2.843-.847 2.731-1.741-.137-1.097-2.385-1.39-2.408-1.393a.321.321 0 0 1-.205-.105.24.24 0 0 1-.059-.199.264.264 0 0 1 .121-.178.354.354 0 0 1 .231-.051c.112.014 2.751.356 2.939 1.868.189 1.509-2.845 2.241-3.192 2.319a.342.342 0 0 1-.079.009Z" fill="#0CBC8B"/><path d="m147.001 133.584-.029-.001-1.087-.089a.34.34 0 0 1-.216-.094.239.239 0 0 1-.037-.301.28.28 0 0 1 .078-.083.353.353 0 0 1 .233-.058l1.087.089c.08.006.154.038.207.091.052.052.08.12.076.189a.254.254 0 0 1-.096.182.34.34 0 0 1-.216.075ZM161.064 133.086a.36.36 0 0 1-.134-.026.309.309 0 0 1-.107-.073c-1.19-1.257-3.672-1.623-5.667-1.916l-.566-.084a11.035 11.035 0 0 1-3.701-1.208.267.267 0 0 1-.127-.173.243.243 0 0 1 .05-.2.323.323 0 0 1 .2-.111.351.351 0 0 1 .232.042c1.056.562 2.229.943 3.454 1.119l.562.084c2.097.308 4.706.692 6.043 2.105.037.04.061.088.068.138a.24.24 0 0 1-.027.148.289.289 0 0 1-.115.112.342.342 0 0 1-.167.042l.002.001ZM159.887 130.32a.34.34 0 0 1-.188-.055c-.733-.482-1.57-.563-2.631-.665a19.112 19.112 0 0 1-2.342-.336.323.323 0 0 1-.192-.123.244.244 0 0 1-.034-.204.257.257 0 0 1 .052-.094.29.29 0 0 1 .091-.071.344.344 0 0 1 .235-.029c.744.153 1.499.26 2.261.321 1.11.107 2.068.2 2.938.772a.27.27 0 0 1 .109.135.234.234 0 0 1-.003.165c-.02.053-.06.1-.113.133a.346.346 0 0 1-.182.05l-.001.001ZM150.127 129.201a.354.354 0 0 1-.14-.028c-.056-.025-1.38-.61-1.773-1.535a.239.239 0 0 1-.022-.105.248.248 0 0 1 .028-.103.27.27 0 0 1 .072-.087.351.351 0 0 1 .346-.046.297.297 0 0 1 .16.155c.308.725 1.458 1.235 1.47 1.24a.294.294 0 0 1 .142.127.24.24 0 0 1 .02.176.267.267 0 0 1-.11.148.34.34 0 0 1-.193.058ZM153.699 128.868a.444.444 0 0 1-.062-.005c-1.575-.274-3.494-1.868-3.575-1.936a.249.249 0 0 1-.09-.188.253.253 0 0 1 .087-.189.341.341 0 0 1 .216-.082.34.34 0 0 1 .22.072c.018.016 1.869 1.553 3.265 1.795.076.013.143.05.189.104.046.053.067.12.06.186a.26.26 0 0 1-.101.173.337.337 0 0 1-.209.07ZM157.912 128.095c-3.235 0-4.803-1.394-4.87-1.455a.252.252 0 0 1-.084-.191.258.258 0 0 1 .097-.187.337.337 0 0 1 .221-.074c.082.001.16.03.217.081.023.021 1.567 1.368 4.703 1.284a.34.34 0 0 1 .22.075c.06.049.094.116.097.186a.251.251 0 0 1-.083.191.334.334 0 0 1-.215.086 10.34 10.34 0 0 1-.303.004Z" fill="#0CBC8B"/><path d="M126.898 60.91c-9.413.014-18.574-2.627-26.093-7.521-7.518 4.894-16.68 7.535-26.092 7.521-.774 0-1.546-.016-2.309-.053v14.142c.01 12.712 5.865 24.425 18.716 30.607l9.685 4.645 9.685-4.645c12.852-6.182 18.706-17.895 18.716-30.607V60.857c-.764.036-1.536.053-2.308.053Z" fill="#fff"/><path d="m100.805 110.518-9.816-4.709c-6.226-2.995-11.032-7.353-14.284-12.954C73.72 87.713 72.14 81.54 72.136 75V60.61l.285.014c.726.035 1.498.053 2.293.053 9.357.025 18.465-2.6 25.93-7.475l.162-.105.162.105c7.465 4.875 16.574 7.5 25.931 7.475.795 0 1.567-.017 2.293-.053l.285-.013v14.388c-.005 6.54-1.585 12.715-4.57 17.857-3.252 5.6-8.058 9.959-14.284 12.953l-9.817 4.709Zm-28.13-49.416V75c.01 13.647 6.781 24.729 18.576 30.403l9.554 4.582 9.554-4.583c11.796-5.674 18.567-16.755 18.577-30.402V61.102c-.652.027-1.336.041-2.039.041-9.404.026-18.562-2.594-26.092-7.463-7.529 4.87-16.688 7.49-26.092 7.464-.702 0-1.386-.015-2.039-.042Z" fill="#292A2E"/><path d="M107.637 71.739v5.474a.774.774 0 0 1-.28.583 1.036 1.036 0 0 1-.676.242c-.253 0-.496-.087-.675-.242a.774.774 0 0 1-.28-.583v-5.474c0-2.125-2.207-3.856-4.92-3.856s-4.92 1.73-4.92 3.856v5.878c0 .219-.1.429-.28.584-.18.155-.422.241-.675.241-.254 0-.497-.086-.676-.241a.773.773 0 0 1-.28-.584v-5.878c0-3.036 3.064-5.507 6.831-5.507 3.767 0 6.831 2.47 6.831 5.507Z" fill="#292A2E"/><path d="M107.637 77.213a.774.774 0 0 1-.28.583 1.036 1.036 0 0 1-.676.242c-.253 0-.496-.087-.675-.242a.774.774 0 0 1-.28-.583v-5.474c0-2.125-2.207-3.856-4.92-3.856s-4.92 1.73-4.92 3.856v5.878c0 .219-.1.429-.28.584-.18.155-.422.241-.675.241-.254 0-.497-.086-.676-.241a.773.773 0 0 1-.28-.584v-5.878c0-3.036 3.064-5.507 6.831-5.507 3.767 0 6.831 2.47 6.831 5.507v5.474Z" fill="#292A2E"/><path d="M109.768 76.6H91.843c-1.045 0-1.893.733-1.893 1.636v14.591c0 .904.848 1.636 1.893 1.636h17.925c1.045 0 1.893-.732 1.893-1.636v-14.59c0-.904-.848-1.636-1.893-1.636Z" fill="#367CFF"/><path d="M99.021 84.086c0 .29.094.573.272.819.178.245.432.442.733.57v2.369a.633.633 0 0 0 .233.47.844.844 0 0 0 .546.193c.205 0 .402-.07.547-.194a.633.633 0 0 0 .233-.47v-2.369c.286-.12.531-.305.707-.534.177-.23.279-.495.296-.77a1.37 1.37 0 0 0-.198-.794 1.658 1.658 0 0 0-.637-.597 1.99 1.99 0 0 0-.899-.234 2.011 2.011 0 0 0-.912.192 1.696 1.696 0 0 0-.674.566 1.388 1.388 0 0 0-.247.783Z" fill="#262626"/><path d="M51.93 39.522c12.628 0 22.866-8.847 22.866-19.761S64.558 0 51.93 0C39.3 0 29.063 8.847 29.063 19.761S39.3 39.522 51.929 39.522Z" fill="#fff"/><path opacity=".1" d="M51.93 39.522c12.628 0 22.866-8.847 22.866-19.761S64.558 0 51.93 0C39.3 0 29.063 8.847 29.063 19.761S39.3 39.522 51.929 39.522Z" fill="#367CFF"/><path opacity=".8" d="M38.13 29.564h.883c.133 0 .24-.093.24-.208V23.89c0-.115-.107-.208-.24-.208h-.884c-.133 0-.24.093-.24.208v5.467c0 .115.107.208.24.208ZM56.119 29.564h.883c.133 0 .24-.093.24-.208V15.652c0-.115-.107-.208-.24-.208h-.883c-.133 0-.24.093-.24.208v13.704c0 .115.107.208.24.208ZM62.116 29.564H63c.133 0 .241-.093.241-.208V15.652c0-.115-.108-.208-.24-.208h-.884c-.133 0-.24.093-.24.208v13.704c0 .115.107.208.24.208ZM44.126 29.564h.883c.133 0 .24-.093.24-.208v-10.11c0-.115-.107-.208-.24-.208h-.883c-.133 0-.241.093-.241.207v10.111c0 .115.108.208.24.208ZM50.123 29.564h.883c.133 0 .24-.093.24-.208v-8.165c0-.114-.107-.208-.24-.208h-.883c-.133 0-.241.093-.241.208v8.165c0 .115.108.208.24.208Z" fill="#367CFF"/><path opacity=".5" d="M39.493 29.564h.884c.133 0 .24-.093.24-.208V13.225c0-.115-.107-.208-.24-.208h-.884c-.133 0-.24.093-.24.208v16.131c0 .115.108.208.24.208ZM63.481 29.564h.884c.133 0 .24-.093.24-.208V13.225c0-.115-.107-.208-.24-.208h-.883c-.133 0-.241.093-.241.208v16.131c0 .115.108.208.24.208ZM57.484 29.564h.884c.133 0 .24-.093.24-.208v-10.11c0-.115-.107-.208-.24-.208h-.884c-.133 0-.24.093-.24.207v10.111c0 .115.108.208.24.208ZM51.488 29.564h.883c.133 0 .24-.093.24-.208v-5.11c0-.116-.107-.209-.24-.209h-.883c-.133 0-.241.093-.241.208v5.111c0 .115.108.208.24.208ZM45.491 29.564h.883c.133 0 .241-.093.241-.208V18.012c0-.114-.108-.207-.24-.207h-.884c-.133 0-.24.093-.24.207v11.344c0 .115.107.208.24.208Z" fill="#367CFF"/><path opacity=".2" d="M64.846 29.564h.883c.133 0 .24-.093.24-.208v-11.42c0-.116-.107-.209-.24-.209h-.883c-.133 0-.241.093-.241.208v11.421c0 .115.108.208.24.208ZM58.849 29.564h.883c.133 0 .24-.093.24-.208v-7.009c0-.114-.107-.208-.24-.208h-.883c-.133 0-.241.094-.241.208v7.01c0 .114.108.207.24.207ZM52.852 29.564h.884c.133 0 .24-.093.24-.208V19.168c0-.114-.107-.207-.24-.207h-.884c-.133 0-.24.093-.24.208v10.187c0 .115.107.208.24.208ZM46.855 29.564h.884c.133 0 .24-.093.24-.208V19.168c0-.114-.107-.207-.24-.207h-.883c-.133 0-.241.093-.241.208v10.187c0 .115.108.208.24.208ZM40.86 29.564h.883c.132 0 .24-.093.24-.208V13.947c0-.115-.108-.208-.24-.208h-.884c-.133 0-.24.093-.24.208v15.41c0 .114.107.207.24.207Z" fill="#367CFF"/><path d="M68.666 29.57H35.542a.195.195 0 0 1-.127-.045.146.146 0 0 1-.053-.11V10.922c0-.041.02-.08.053-.11a.195.195 0 0 1 .127-.045c.048 0 .094.016.127.045.034.03.053.069.053.11V29.26h32.944v.31" fill="#292A2E"/></svg>