<svg id="Layer_1" data-name="Layer 1" xmlns="http://www.w3.org/2000/svg" viewBox="0 0 1000 1005.57"><defs><style>.cls-1{fill:#51dac5;}.cls-2{fill:#003336;}</style></defs><path class="cls-1" d="M945.92,577.6C910.19,789.91,725.1,952.18,502.79,952.18c-247.8,0-449.4-201.6-449.4-449.4S255,53.39,502.79,53.39c221.88,0,406.7,161.66,442.93,373.37h54.11C963.08,185.47,754.19,0,502.79,0,225.55,0,0,225.55,0,502.78s225.55,502.79,502.79,502.79c251.81,0,461-186.09,497.21-428Z"/><path class="cls-1" d="M502.79,115.4c-187.59,0-344.45,134-379.88,311.36h54.71c34.52-147.64,167.16-258,325.17-258,184.16,0,334,149.83,334,334s-149.83,334-334,334c-158.44,0-291.37-110.93-325.44-259.17H122.68c35,177.92,192.09,312.57,380.11,312.57,213.6,0,387.38-173.78,387.38-387.39S716.39,115.4,502.79,115.4Z"/><path class="cls-2" d="M223.19,502.46c0,42,32.2,72.5,76.56,72.5a85.84,85.84,0,0,0,52.17-17.73V498.48H321.8v25.85h0v18.34l-.72.27a56.08,56.08,0,0,1-19.91,3.73c-27.77,0-46.44-17.77-46.44-44.21,0-26,18.26-44.21,44.41-44.21,12.88,0,22.88,3.76,32.26,12.16l14.09-24.81C332.29,435.36,315.8,430,297.72,430,254.53,430,223.19,460.45,223.19,502.46Z"/><polygon class="cls-2" points="380 431.99 380 572.72 476.2 572.72 476.2 544.84 411.13 544.84 411.13 431.99 380 431.99"/><polygon class="cls-2" points="586.76 520.06 586.76 492.18 527.19 492.18 527.19 459.87 594.49 459.87 594.49 431.99 496.05 431.99 496.05 572.72 595.51 572.72 595.51 545.04 527.19 545.04 527.19 520.06 586.76 520.06"/><rect class="cls-2" x="621.2" y="431.99" width="31.14" height="140.73"/><polygon class="cls-2" points="771.93 495.23 716.22 495.23 716.22 459.87 783.11 459.87 783.11 431.99 685.08 431.99 685.08 572.72 716.22 572.72 716.22 523.11 771.93 523.11 771.93 495.23"/></svg>